<svg width="10" height="14" viewBox="0 0 10 14" fill="none" xmlns="http://www.w3.org/2000/svg">
<path fill-rule="evenodd" clip-rule="evenodd" d="M2.5 0C1.11929 0 0 1.11929 0 2.5V11.5C0 12.8807 1.11929 14 2.5 14H7.5C8.88071 14 10 12.8807 10 11.5V2.5C10 1.11929 8.88071 0 7.5 0H2.5ZM1 2.5C1 1.67157 1.67157 1 2.5 1H7.5C8.32843 1 9 1.67157 9 2.5V11.5C9 12.3284 8.32843 13 7.5 13H2.5C1.67157 13 1 12.3284 1 11.5V2.5ZM4 11C3.72386 11 3.5 11.2239 3.5 11.5C3.5 11.7761 3.72386 12 4 12H6C6.27614 12 6.5 11.7761 6.5 11.5C6.5 11.2239 6.27614 11 6 11H4Z" fill="#71717A"/>
</svg>
