<svg xmlns="http://www.w3.org/2000/svg" viewBox="0 0 726.111782 107.073446" width="800" height="110">
<g transform="translate(-34.540684,110.114460) scale(0.100000,-0.100000)"
fill="#18181b" stroke="none">
<path d="M599 1081 c-102 -40 -183 -115 -228 -211 -22 -48 -26 -68 -26 -155 1
-121 22 -185 89 -260 92 -105 214 -151 376 -142 148 7 263 64 333 163 l32 46
3 -101 3 -101 134 0 135 0 0 211 c0 130 4 226 11 250 18 57 58 91 117 97 43 4
53 1 81 -24 45 -40 50 -77 51 -321 l0 -213 134 0 135 0 3 233 c3 209 5 235 23
264 39 66 132 83 185 36 41 -37 50 -99 50 -345 l0 -188 135 0 135 0 0 46 0 46
40 -35 c54 -50 130 -71 234 -65 90 5 133 22 178 71 l28 31 0 -47 0 -47 125 0
125 0 0 258 1 257 110 -258 c61 -143 109 -266 107 -274 -10 -53 -115 -72 -186
-35 l-39 20 -46 -94 -47 -94 32 -20 c137 -84 358 -58 455 55 48 55 73 107 213
445 67 162 125 301 130 309 6 11 12 7 24 -17 l16 -31 57 27 c44 20 78 27 139
30 110 5 156 -19 178 -94 6 -21 4 -22 -146 -26 -107 -4 -166 -10 -197 -22
-109 -40 -156 -111 -149 -227 5 -86 38 -138 117 -182 43 -25 69 -31 131 -35
109 -6 173 11 227 61 l43 40 0 -47 0 -46 125 0 125 0 0 254 c0 229 -2 261 -21
321 -26 86 -88 152 -172 184 -49 18 -79 21 -205 21 -81 0 -162 -4 -180 -9 -20
-6 -32 -6 -32 0 0 5 -56 9 -128 9 l-128 0 -94 -234 c-52 -129 -97 -233 -99
-230 -3 3 -46 107 -96 232 l-91 227 -142 3 -142 3 20 -47 c26 -60 26 -60 -11
-29 -75 62 -101 69 -273 73 -107 3 -174 0 -205 -9 -73 -20 -151 -57 -151 -71
0 -22 79 -180 88 -176 81 42 114 52 188 56 107 6 162 -22 179 -90 l7 -28 -123
0 c-144 0 -221 -16 -288 -58 l-48 -29 -6 91 c-7 117 -33 188 -89 243 -63 61
-99 73 -225 73 -93 0 -115 -4 -158 -24 -27 -13 -64 -38 -82 -55 l-32 -32 -17
26 c-9 15 -40 40 -68 56 -48 27 -58 29 -161 29 -114 0 -172 -16 -204 -53 -21
-26 -31 -20 -31 18 l0 35 -130 0 -130 0 0 -101 0 -101 -33 44 c-43 56 -117
111 -185 137 -74 29 -292 30 -363 2z m269 -213 c95 -59 96 -259 0 -318 -47
-29 -134 -28 -178 3 -49 33 -70 80 -70 157 0 77 21 124 70 158 45 30 129 31
178 0z m2102 -267 c0 -101 -140 -162 -211 -92 -33 33 -36 56 -14 89 21 28 63
40 153 41 l72 1 0 -39z m1420 0 c0 -90 -113 -151 -199 -106 -46 23 -54 66 -21
108 24 30 39 34 143 36 l77 1 0 -39z"/>
<path d="M5111 1073 c-86 -36 -169 -113 -207 -195 -26 -57 -29 -73 -29 -168 0
-93 3 -112 27 -162 33 -71 102 -146 166 -181 147 -80 362 -76 490 9 l53 35 42
-36 c107 -92 340 -86 416 11 l21 27 0 -47 0 -46 264 0 264 0 4 212 c4 226 6
237 56 291 22 23 97 55 107 45 2 -2 -3 -28 -12 -58 -23 -88 -12 -188 32 -276
73 -148 215 -224 418 -224 130 0 245 39 305 102 l21 23 -70 72 -71 72 -52 -29
c-45 -26 -63 -30 -125 -30 -85 0 -141 24 -171 73 -11 18 -20 35 -20 40 0 4
125 7 279 7 l279 0 6 34 c10 51 -11 163 -41 226 -33 68 -97 131 -171 167 -55
27 -63 28 -207 28 -162 0 -185 -6 -272 -71 -17 -13 -34 -24 -37 -24 -3 0 -6
23 -6 50 l0 50 -60 0 c-66 0 -124 -23 -172 -68 l-28 -26 0 47 0 47 -130 0
-130 0 -1 -157 c-1 -127 -3 -148 -10 -105 -5 29 -15 68 -23 86 -21 50 -83 114
-140 144 -47 25 -62 27 -201 30 -95 3 -170 0 -205 -8 -69 -16 -160 -55 -160
-70 0 -6 -20 3 -45 20 -74 51 -114 60 -259 60 -117 -1 -138 -4 -195 -27z
m2167 -180 c27 -20 72 -79 72 -94 0 -5 -72 -9 -160 -9 l-160 0 11 28 c14 36
47 71 84 88 40 19 119 12 153 -13z m-1272 -9 c19 -9 41 -29 49 -45 29 -55 28
-56 -132 -61 -120 -4 -159 -9 -205 -27 -62 -24 -123 -82 -134 -128 -11 -44
-12 -44 -64 -18 l-48 24 -27 -34 c-35 -47 -74 -65 -138 -65 -101 0 -161 69
-161 185 1 109 61 175 162 175 64 0 102 -18 138 -65 l27 -35 95 51 c89 48 96
50 108 34 7 -10 15 -22 17 -28 2 -6 14 -3 30 7 68 45 218 61 283 30z m64 -288
c0 -36 -6 -50 -30 -75 -34 -33 -83 -47 -132 -37 -47 9 -68 33 -68 76 0 59 37
78 158 79 l72 1 0 -44z"/>
</g>
</svg>
