<?xml version="1.0" standalone="no"?>
<!DOCTYPE svg PUBLIC "-//W3C//DTD SVG 20010904//EN"
 "http://www.w3.org/TR/2001/REC-SVG-20010904/DTD/svg10.dtd">
<svg version="1.0" xmlns="http://www.w3.org/2000/svg"
 width="512.000000pt" height="512.000000pt" viewBox="0 0 512.000000 512.000000"
 preserveAspectRatio="xMidYMid meet">
<metadata>
Created by potrace 1.16, written by Peter Selinger 2001-2019
</metadata>
<g transform="translate(0.000000,512.000000) scale(0.100000,-0.100000)"
fill="#ffffff" stroke="none">
<path d="M2418 4445 c-2 -3 -31 -10 -64 -16 -67 -12 -198 -70 -271 -120 -188
-129 -323 -344 -354 -568 -48 -336 123 -663 433 -829 139 -75 191 -87 373 -87
141 0 168 3 230 23 286 96 494 313 564 589 25 99 29 292 7 376 -99 380 -424
637 -804 637 -60 0 -111 -2 -114 -5z m205 -226 c170 -24 307 -109 403 -250 69
-102 95 -179 101 -304 6 -120 -17 -221 -73 -322 -207 -371 -731 -405 -991 -65
-47 61 -83 136 -99 202 -18 75 -17 233 1 305 32 121 117 247 219 322 54 40 82
56 161 89 24 9 138 31 178 33 16 0 61 -4 100 -10z"/>
<path d="M3290 2768 c-278 -59 -439 -167 -742 -495 -90 -98 -171 -178 -179
-178 -10 0 -17 22 -26 75 -16 104 -26 139 -60 212 -53 113 -158 227 -273 295
-121 73 -184 88 -350 87 -115 -1 -144 -4 -195 -24 -267 -102 -449 -338 -462
-600 -9 -171 57 -445 165 -680 52 -114 197 -340 272 -425 145 -165 336 -337
475 -429 189 -126 518 -270 615 -269 81 1 365 114 525 210 145 87 318 225 449
358 85 87 266 312 266 331 0 4 11 22 25 39 30 40 124 228 155 310 12 33 26 69
31 80 12 31 45 152 60 225 8 38 14 123 13 205 0 125 -3 148 -26 213 -39 109
-84 178 -173 267 -113 112 -210 161 -380 191 -90 16 -120 16 -185 2z m-1421
-265 c93 -44 163 -114 211 -209 34 -68 35 -71 35 -194 0 -122 -1 -127 -34
-195 -39 -79 -123 -168 -190 -204 -221 -115 -501 -30 -614 186 -67 130 -70
278 -8 410 35 73 71 116 143 169 87 64 170 85 303 77 65 -4 94 -11 154 -40z
m1719 1 c115 -61 202 -163 231 -275 14 -52 10 -263 -7 -344 -85 -401 -399
-840 -787 -1097 -142 -95 -351 -194 -460 -218 -56 -12 -118 7 -315 98 -96 44
-259 149 -371 240 -144 116 -339 338 -422 483 -35 60 -35 73 1 64 158 -39 247
-43 366 -15 266 62 395 156 781 575 342 370 463 466 645 513 75 19 92 21 183
16 77 -4 97 -9 155 -40z"/>
</g>
</svg>
