<svg width="20" height="20" viewBox="0 0 20 20" fill="none" xmlns="http://www.w3.org/2000/svg">
<path fill-rule="evenodd" clip-rule="evenodd" d="M4.81729 6.77039C5.67062 4.75143 7.66932 3.3335 10.0007 3.3335C12.9778 3.3335 15.4147 5.64634 15.6127 8.57327C17.6166 8.82317 19.1673 10.5327 19.1673 12.6043C19.1673 14.848 17.3485 16.6668 15.1048 16.6668H5.83398C3.07256 16.6668 0.833984 14.4283 0.833984 11.6668C0.833984 9.25356 2.54316 7.24037 4.81729 6.77039ZM9.37565 7.29183C9.37565 6.94665 9.65547 6.66683 10.0007 6.66683C10.3458 6.66683 10.6257 6.94665 10.6257 7.29183V12.0329L11.642 11.0166C11.8861 10.7725 12.2818 10.7725 12.5259 11.0166C12.77 11.2606 12.77 11.6564 12.5259 11.9004L10.4426 13.9838C10.1985 14.2278 9.80279 14.2278 9.55871 13.9838L7.47538 11.9004C7.2313 11.6564 7.2313 11.2606 7.47538 11.0166C7.71945 10.7725 8.11518 10.7725 8.35926 11.0166L9.37565 12.0329V7.29183Z" fill="#18181B" fill-opacity="0.5"/>
</svg>
