<svg width="20" height="20" viewBox="0 0 20 20" fill="none" xmlns="http://www.w3.org/2000/svg">
<path fill-rule="evenodd" clip-rule="evenodd" d="M17.502 5.625C17.502 3.89911 16.1028 2.5 14.377 2.5H5.62695C3.90106 2.5 2.50195 3.89911 2.50195 5.625V18.125C2.50195 18.3522 2.62525 18.5615 2.82397 18.6717C3.02269 18.7818 3.26553 18.7754 3.4582 18.655L6.58887 16.6983C6.62198 16.6776 6.66024 16.6667 6.69928 16.6667H14.377C16.1028 16.6667 17.502 15.2676 17.502 13.5417V5.625ZM5.41679 9.58333C5.41679 10.0436 5.78988 10.4167 6.25012 10.4167C6.71036 10.4167 7.08346 10.0436 7.08346 9.58333C7.08346 9.1231 6.71036 8.75 6.25012 8.75C5.78988 8.75 5.41679 9.1231 5.41679 9.58333ZM9.16679 9.58333C9.16679 10.0436 9.53989 10.4167 10.0001 10.4167C10.4604 10.4167 10.8335 10.0436 10.8335 9.58333C10.8335 9.1231 10.4604 8.75 10.0001 8.75C9.53989 8.75 9.16679 9.1231 9.16679 9.58333ZM13.7501 10.4167C13.2899 10.4167 12.9168 10.0436 12.9168 9.58333C12.9168 9.1231 13.2899 8.75 13.7501 8.75C14.2104 8.75 14.5835 9.1231 14.5835 9.58333C14.5835 10.0436 14.2104 10.4167 13.7501 10.4167Z" fill="#18181B" fill-opacity="0.5"/>
</svg>
