<svg width="118" height="39" viewBox="0 0 118 39" fill="none" xmlns="http://www.w3.org/2000/svg">
<g clip-path="url(#clip0_6010_13478)">
<path d="M7.44487 38.8682C7.14019 38.8682 6.84287 38.8643 6.54058 38.8575C5.91436 38.8493 5.2896 38.7948 4.67144 38.6944C4.09503 38.5951 3.53664 38.4104 3.0147 38.1465C2.49754 37.8847 2.02585 37.5414 1.6177 37.1299C1.20364 36.7231 0.858914 36.2514 0.597187 35.7334C0.332576 35.212 0.14945 34.6531 0.0541869 34.0762C-0.0486888 33.4563 -0.104349 32.8295 -0.112313 32.2012C-0.118653 31.9903 -0.126953 31.2881 -0.126953 31.2881V8.1875C-0.126953 8.1875 -0.118113 7.49609 -0.112263 7.29296C-0.104637 6.66565 -0.0493009 6.03982 0.0532669 5.42089C0.148706 4.84241 0.331974 4.28191 0.596727 3.75879C0.857492 3.24111 1.2003 2.76902 1.61187 2.36084C2.02297 1.94879 2.49617 1.60377 3.01421 1.33837C3.53495 1.07526 4.09228 0.891897 4.66753 0.794434C5.28772 0.693 5.91465 0.63816 6.54304 0.630374L7.44536 0.618164H110.214L111.127 0.630864C111.75 0.638263 112.371 0.692614 112.985 0.793454C113.566 0.892139 114.13 1.07678 114.656 1.3413C115.694 1.87615 116.539 2.72233 117.071 3.76123C117.332 4.28074 117.512 4.83667 117.607 5.41015C117.71 6.03416 117.768 6.6649 117.78 7.29736C117.783 7.58056 117.783 7.88476 117.783 8.1875C117.791 8.5625 117.791 8.91943 117.791 9.27929V30.208C117.791 30.5713 117.791 30.9258 117.783 31.2832C117.783 31.6084 117.783 31.9063 117.779 32.2129C117.768 32.834 117.711 33.4535 117.608 34.0664C117.515 34.6474 117.333 35.2107 117.068 35.7364C116.805 36.2488 116.462 36.7164 116.053 37.1221C115.644 37.5358 115.172 37.8811 114.653 38.1446C114.128 38.4106 113.566 38.5959 112.985 38.6944C112.367 38.7953 111.742 38.8498 111.116 38.8575C110.823 38.8643 110.517 38.8682 110.219 38.8682L109.135 38.8702L7.44487 38.8682Z" fill="white"/>
<path d="M23.997 19.6319C24.0082 18.7639 24.2388 17.9129 24.6672 17.158C25.0957 16.4031 25.7081 15.7688 26.4476 15.3142C25.9779 14.6433 25.3581 14.0911 24.6377 13.7017C23.9172 13.3122 23.1158 13.096 22.2972 13.0704C20.551 12.8871 18.8581 14.1153 17.9682 14.1153C17.0612 14.1153 15.6911 13.0886 14.2158 13.119C13.2615 13.1498 12.3314 13.4273 11.5163 13.9244C10.7011 14.4216 10.0287 15.1214 9.56438 15.9557C7.55327 19.4377 9.05338 24.555 10.9799 27.3697C11.9438 28.7479 13.0703 30.2874 14.5443 30.2328C15.9867 30.173 16.5254 29.313 18.2665 29.313C19.9914 29.313 20.4968 30.2328 22.0007 30.1981C23.5485 30.173 24.5237 28.8137 25.4537 27.4225C26.1463 26.4404 26.6792 25.3551 27.0327 24.2066C26.1335 23.8263 25.3662 23.1897 24.8263 22.3761C24.2865 21.5626 23.9981 20.6082 23.997 19.6319Z" fill="black"/>
<path d="M21.1573 11.2197C22.0012 10.2067 22.417 8.90452 22.3163 7.58984C21.027 7.72526 19.8361 8.34146 18.9808 9.31566C18.5626 9.79159 18.2423 10.3453 18.0382 10.945C17.8341 11.5448 17.7503 12.179 17.7914 12.8112C18.4363 12.8178 19.0743 12.678 19.6573 12.4024C20.2403 12.1267 20.7532 11.7223 21.1573 11.2197Z" fill="black"/>
<path d="M41.3027 26.8828H36.5693L35.4326 30.2393H33.4277L37.9111 17.8213H39.9941L44.4775 30.2393H42.4385L41.3027 26.8828ZM37.0596 25.334H40.8116L38.962 19.8867H38.9102L37.0596 25.334Z" fill="black"/>
<path d="M54.1592 25.7126C54.1592 28.5261 52.6533 30.3337 50.3809 30.3337C49.8052 30.3638 49.2327 30.2312 48.7289 29.9511C48.2251 29.6709 47.8104 29.2546 47.5323 28.7497H47.4893V33.2341H45.6309V21.1853H47.4297V22.6911H47.4639C47.7548 22.1887 48.1766 21.7745 48.6842 21.4926C49.1918 21.2108 49.7664 21.0718 50.3467 21.0905C52.6446 21.0905 54.1592 22.9069 54.1592 25.7126ZM52.249 25.7126C52.249 23.8796 51.3018 22.6745 49.8565 22.6745C48.4365 22.6745 47.4815 23.905 47.4815 25.7126C47.4815 27.5368 48.4365 28.7585 49.8565 28.7585C51.3018 28.7585 52.249 27.5622 52.249 25.7126Z" fill="black"/>
<path d="M64.1245 25.7126C64.1245 28.5261 62.6182 30.3337 60.3457 30.3337C59.7701 30.3638 59.1976 30.2312 58.6938 29.9511C58.19 29.6709 57.7753 29.2546 57.4971 28.7497H57.4541V33.2341H55.5957V21.1853H57.3945V22.6911H57.4287C57.7197 22.1887 58.1414 21.7745 58.649 21.4926C59.1567 21.2108 59.7312 21.0718 60.3115 21.0905C62.6094 21.0905 64.1245 22.9069 64.1245 25.7126ZM62.2139 25.7126C62.2139 23.8796 61.2666 22.6745 59.8213 22.6745C58.4014 22.6745 57.4463 23.905 57.4463 25.7126C57.4463 27.5368 58.4014 28.7585 59.8213 28.7585C61.2666 28.7585 62.2139 27.5622 62.2139 25.7126Z" fill="black"/>
<path d="M70.711 26.7793C70.8487 28.0108 72.045 28.8193 73.6797 28.8193C75.2461 28.8193 76.3731 28.0108 76.3731 26.9004C76.3731 25.9365 75.6934 25.3594 74.084 24.9639L72.4747 24.5762C70.1944 24.0254 69.1358 22.959 69.1358 21.2285C69.1358 19.0859 71.003 17.6143 73.6534 17.6143C76.2784 17.6143 78.0772 19.0859 78.1378 21.2285H76.2618C76.1495 19.9893 75.125 19.2412 73.628 19.2412C72.1309 19.2412 71.1065 19.9981 71.1065 21.0996C71.1065 21.9775 71.7608 22.4941 73.3614 22.8896L74.7295 23.2256C77.2774 23.8281 78.335 24.8516 78.335 26.6679C78.335 28.9912 76.4854 30.4463 73.542 30.4463C70.7881 30.4463 68.9287 29.0254 68.8086 26.7793L70.711 26.7793Z" fill="black"/>
<path d="M82.3476 19.043V21.1855H84.0693V22.6572H82.3476V27.6484C82.3476 28.4238 82.6924 28.7852 83.4492 28.7852C83.6536 28.7816 83.8577 28.7672 84.0605 28.7422V30.205C83.7203 30.2686 83.3744 30.2974 83.0283 30.291C81.1953 30.291 80.4805 29.6025 80.4805 27.8466V22.6572H79.1641V21.1855H80.4804V19.043H82.3476Z" fill="black"/>
<path d="M85.0645 25.7129C85.0645 22.8643 86.7422 21.0742 89.3584 21.0742C91.9834 21.0742 93.6533 22.8642 93.6533 25.7129C93.6533 28.5693 91.9922 30.3516 89.3584 30.3516C86.7256 30.3516 85.0645 28.5693 85.0645 25.7129ZM91.7598 25.7129C91.7598 23.7588 90.8643 22.6055 89.3584 22.6055C87.8525 22.6055 86.957 23.7676 86.957 25.7129C86.957 27.6748 87.8525 28.8193 89.3584 28.8193C90.8643 28.8193 91.7598 27.6748 91.7598 25.7129Z" fill="black"/>
<path d="M95.1856 21.1852H96.958V22.7262H97.001C97.1209 22.2449 97.4029 21.8196 97.7995 21.5217C98.1961 21.2238 98.6831 21.0715 99.1787 21.0904C99.3929 21.0897 99.6065 21.113 99.8155 21.1598V22.8981C99.5451 22.8154 99.2631 22.7775 98.9805 22.7858C98.7105 22.7748 98.4413 22.8224 98.1915 22.9253C97.9417 23.0282 97.717 23.1839 97.5331 23.3818C97.3491 23.5797 97.2101 23.8151 97.1257 24.0717C97.0413 24.3284 97.0134 24.6003 97.044 24.8688V30.2389H95.1855L95.1856 21.1852Z" fill="black"/>
<path d="M108.384 27.5801C108.134 29.2236 106.533 30.3516 104.485 30.3516C101.852 30.3516 100.217 28.5869 100.217 25.7559C100.217 22.916 101.86 21.0742 104.407 21.0742C106.912 21.0742 108.487 22.7949 108.487 25.54V26.1768H102.093V26.2891C102.063 26.6223 102.105 26.9579 102.215 27.2738C102.325 27.5896 102.501 27.8784 102.732 28.1209C102.962 28.3635 103.241 28.5542 103.551 28.6806C103.861 28.8069 104.194 28.8658 104.528 28.8535C104.967 28.8947 105.408 28.7929 105.785 28.5635C106.162 28.3341 106.454 27.9892 106.619 27.5801L108.384 27.5801ZM102.102 24.8779H106.628C106.645 24.5783 106.599 24.2785 106.495 23.9973C106.39 23.7161 106.228 23.4596 106.02 23.2438C105.811 23.028 105.56 22.8577 105.283 22.7435C105.005 22.6293 104.707 22.5736 104.407 22.5801C104.105 22.5783 103.805 22.6364 103.525 22.7512C103.245 22.8659 102.99 23.035 102.776 23.2486C102.561 23.4622 102.391 23.7162 102.276 23.9959C102.16 24.2755 102.101 24.5753 102.102 24.8779Z" fill="black"/>
<path d="M36.8271 8.47357C37.2168 8.44561 37.6077 8.50447 37.9718 8.6459C38.3359 8.78733 38.6641 9.00781 38.9327 9.29144C39.2013 9.57506 39.4036 9.91476 39.525 10.286C39.6464 10.6573 39.6839 11.0509 39.6348 11.4384C39.6348 13.3447 38.6045 14.4404 36.8271 14.4404H34.6719V8.47357H36.8271ZM35.5986 13.5966H36.7236C37.002 13.6132 37.2806 13.5676 37.5392 13.4629C37.7977 13.3583 38.0297 13.1974 38.2182 12.9918C38.4067 12.7863 38.5469 12.5412 38.6288 12.2746C38.7107 12.008 38.7321 11.7265 38.6914 11.4506C38.7291 11.1757 38.7056 10.896 38.6224 10.6313C38.5393 10.3666 38.3987 10.1236 38.2106 9.9197C38.0226 9.71577 37.7917 9.55596 37.5346 9.45173C37.2776 9.34749 37.0006 9.30141 36.7236 9.31678H35.5986V13.5966Z" fill="black"/>
<path d="M40.6819 12.187C40.6536 11.891 40.6875 11.5925 40.7813 11.3104C40.8751 11.0283 41.0269 10.769 41.2268 10.549C41.4268 10.329 41.6705 10.1533 41.9423 10.033C42.2142 9.91272 42.5082 9.85059 42.8055 9.85059C43.1027 9.85059 43.3967 9.91272 43.6686 10.033C43.9404 10.1533 44.1841 10.329 44.3841 10.549C44.584 10.769 44.7358 11.0283 44.8296 11.3104C44.9235 11.5925 44.9573 11.891 44.929 12.187C44.9578 12.4832 44.9244 12.7822 44.8308 13.0647C44.7372 13.3472 44.5855 13.607 44.3855 13.8274C44.1856 14.0479 43.9417 14.224 43.6695 14.3445C43.3974 14.4651 43.1031 14.5273 42.8055 14.5273C42.5078 14.5273 42.2135 14.4651 41.9414 14.3445C41.6693 14.224 41.4254 14.0479 41.2254 13.8274C41.0254 13.607 40.8737 13.3472 40.7801 13.0647C40.6865 12.7822 40.6531 12.4832 40.6819 12.187ZM44.0149 12.187C44.0149 11.2109 43.5764 10.6401 42.8069 10.6401C42.0345 10.6401 41.5999 11.2109 41.5999 12.187C41.5999 13.1709 42.0345 13.7373 42.8069 13.7373C43.5765 13.7373 44.0149 13.1669 44.0149 12.187Z" fill="black"/>
<path d="M50.5742 14.4404H49.6523L48.7217 11.124H48.6514L47.7246 14.4404H46.8115L45.5703 9.9375H46.4717L47.2783 13.3735H47.3447L48.2705 9.9375H49.1231L50.0488 13.3735H50.1191L50.9219 9.9375H51.8105L50.5742 14.4404Z" fill="black"/>
<path d="M52.8535 9.93706H53.709V10.6524H53.7754C53.888 10.3955 54.0781 10.1801 54.3189 10.0363C54.5598 9.89248 54.8395 9.82741 55.1191 9.85014C55.3382 9.83366 55.5582 9.8667 55.7628 9.94679C55.9674 10.0269 56.1514 10.152 56.3011 10.3128C56.4508 10.4737 56.5623 10.6661 56.6275 10.876C56.6927 11.0858 56.7099 11.3076 56.6777 11.5249V14.4399H55.7891V11.7481C55.7891 11.0245 55.4746 10.6646 54.8174 10.6646C54.6686 10.6577 54.5201 10.683 54.3821 10.7388C54.244 10.7946 54.1197 10.8797 54.0175 10.9881C53.9154 11.0964 53.8379 11.2256 53.7904 11.3668C53.7429 11.5079 53.7264 11.6576 53.7422 11.8057V14.44H52.8535L52.8535 9.93706Z" fill="black"/>
<path d="M58.0938 8.17969H58.9824V14.4404H58.0938V8.17969Z" fill="black"/>
<path d="M60.219 12.187C60.1907 11.8911 60.2246 11.5925 60.3185 11.3104C60.4123 11.0284 60.5641 10.769 60.7641 10.549C60.964 10.329 61.2078 10.1533 61.4796 10.033C61.7515 9.91272 62.0455 9.85059 62.3428 9.85059C62.6401 9.85059 62.9341 9.91272 63.206 10.033C63.4778 10.1533 63.7215 10.329 63.9215 10.549C64.1215 10.769 64.2733 11.0284 64.3671 11.3104C64.461 11.5925 64.4949 11.8911 64.4666 12.187C64.4954 12.4833 64.4619 12.7823 64.3683 13.0648C64.2747 13.3473 64.123 13.6071 63.9229 13.8275C63.7229 14.0479 63.479 14.2241 63.2069 14.3446C62.9348 14.4651 62.6404 14.5274 62.3428 14.5274C62.0452 14.5274 61.7508 14.4651 61.4787 14.3446C61.2065 14.2241 60.9626 14.0479 60.7626 13.8275C60.5626 13.6071 60.4109 13.3473 60.3173 13.0648C60.2237 12.7823 60.1902 12.4833 60.219 12.187ZM63.552 12.187C63.552 11.211 63.1135 10.6402 62.344 10.6402C61.5715 10.6402 61.137 11.211 61.137 12.1871C61.137 13.1709 61.5716 13.7373 62.344 13.7373C63.1135 13.7373 63.552 13.167 63.552 12.187Z" fill="black"/>
<path d="M65.4023 13.167C65.4023 12.3564 66.0059 11.8892 67.0771 11.8227L68.2969 11.7524V11.3638C68.2969 10.8882 67.9824 10.6196 67.375 10.6196C66.8789 10.6196 66.5352 10.8018 66.4365 11.1201H65.5762C65.667 10.3467 66.3945 9.85059 67.416 9.85059C68.5449 9.85059 69.1816 10.4126 69.1816 11.3638V14.4404H68.3262V13.8076H68.2559C68.1131 14.0346 67.9127 14.2197 67.6751 14.3439C67.4375 14.4681 67.1712 14.527 66.9033 14.5146C66.7143 14.5343 66.5232 14.5141 66.3425 14.4554C66.1617 14.3967 65.9953 14.3008 65.8538 14.1738C65.7124 14.0468 65.5992 13.8917 65.5214 13.7182C65.4437 13.5448 65.4031 13.357 65.4023 13.167ZM68.2969 12.7822V12.4058L67.1973 12.4761C66.5771 12.5176 66.2959 12.7285 66.2959 13.1255C66.2959 13.5307 66.6474 13.7666 67.1309 13.7666C67.2725 13.7809 67.4156 13.7666 67.5516 13.7245C67.6876 13.6824 67.8138 13.6134 67.9226 13.5216C68.0313 13.4297 68.1205 13.317 68.1849 13.1899C68.2492 13.0629 68.2873 12.9243 68.2969 12.7822Z" fill="black"/>
<path d="M70.3496 12.187C70.3496 10.7642 71.0811 9.86281 72.2188 9.86281C72.5002 9.84984 72.7795 9.91724 73.024 10.0571C73.2685 10.197 73.4682 10.4036 73.5996 10.6528H73.666V8.17969H74.5547V14.4404H73.7031V13.729H73.6328C73.4912 13.9765 73.2846 14.1805 73.0353 14.319C72.7861 14.4575 72.5037 14.5251 72.2188 14.5146C71.0732 14.5147 70.3496 13.6133 70.3496 12.187ZM71.2676 12.187C71.2676 13.1421 71.7178 13.7168 72.4707 13.7168C73.2197 13.7168 73.6826 13.1338 73.6826 12.1909C73.6826 11.2525 73.2149 10.6611 72.4707 10.6611C71.7227 10.6611 71.2676 11.2398 71.2676 12.187Z" fill="black"/>
<path d="M78.2307 12.187C78.2024 11.891 78.2363 11.5925 78.3301 11.3104C78.424 11.0283 78.5757 10.769 78.7757 10.549C78.9756 10.329 79.2193 10.1533 79.4912 10.033C79.763 9.91272 80.057 9.85059 80.3543 9.85059C80.6516 9.85059 80.9455 9.91272 81.2174 10.033C81.4892 10.1533 81.7329 10.329 81.9329 10.549C82.1328 10.769 82.2846 11.0283 82.3784 11.3104C82.4723 11.5925 82.5061 11.891 82.4778 12.187C82.5067 12.4832 82.4732 12.7822 82.3796 13.0647C82.286 13.3472 82.1344 13.607 81.9344 13.8274C81.7344 14.0479 81.4905 14.224 81.2184 14.3445C80.9462 14.4651 80.6519 14.5273 80.3543 14.5273C80.0567 14.5273 79.7623 14.4651 79.4902 14.3445C79.2181 14.224 78.9742 14.0479 78.7742 13.8274C78.5742 13.607 78.4225 13.3472 78.3289 13.0647C78.2353 12.7822 78.2019 12.4832 78.2307 12.187ZM81.5637 12.187C81.5637 11.2109 81.1253 10.6401 80.3557 10.6401C79.5833 10.6401 79.1487 11.2109 79.1487 12.187C79.1487 13.1709 79.5833 13.7373 80.3557 13.7373C81.1253 13.7373 81.5637 13.1669 81.5637 12.187Z" fill="black"/>
<path d="M83.6699 9.93706H84.5254V10.6524H84.5918C84.7045 10.3955 84.8945 10.1801 85.1353 10.0363C85.3762 9.89248 85.6559 9.82741 85.9356 9.85014C86.1547 9.83366 86.3746 9.8667 86.5792 9.94679C86.7838 10.0269 86.9678 10.152 87.1175 10.3128C87.2672 10.4737 87.3787 10.6661 87.4439 10.876C87.5091 11.0858 87.5263 11.3076 87.4941 11.5249V14.4399H86.6055V11.7481C86.6055 11.0245 86.291 10.6646 85.6338 10.6646C85.485 10.6577 85.3365 10.683 85.1985 10.7388C85.0604 10.7946 84.9361 10.8797 84.8339 10.9881C84.7318 11.0964 84.6543 11.2256 84.6068 11.3668C84.5593 11.5079 84.5428 11.6576 84.5586 11.8057V14.44H83.6699V9.93706Z" fill="black"/>
<path d="M92.5166 8.81641V9.95801H93.4922V10.7065H92.5166V13.022C92.5166 13.4937 92.7109 13.7002 93.1533 13.7002C93.2666 13.6998 93.3797 13.693 93.4922 13.6797V14.4199C93.3326 14.4485 93.1709 14.4637 93.0088 14.4653C92.0205 14.4653 91.627 14.1177 91.627 13.2495V10.7065H90.9121V9.95797H91.627V8.81641H92.5166Z" fill="black"/>
<path d="M94.7051 8.17969H95.5859V10.6611H95.6562C95.7744 10.4018 95.9696 10.1852 96.2153 10.0409C96.461 9.89653 96.7452 9.83145 97.0292 9.8545C97.2472 9.84264 97.4651 9.87903 97.6674 9.96107C97.8697 10.0431 98.0513 10.1688 98.1995 10.3291C98.3476 10.4895 98.4585 10.6805 98.5243 10.8886C98.5901 11.0968 98.6091 11.3169 98.58 11.5332V14.4404H97.6905V11.7524C97.6905 11.0332 97.3555 10.6689 96.7276 10.6689C96.5748 10.6564 96.4212 10.6774 96.2774 10.7305C96.1337 10.7835 96.0032 10.8673 95.8952 10.9761C95.7872 11.0848 95.7043 11.2158 95.6522 11.36C95.6002 11.5041 95.5802 11.6579 95.5938 11.8105V14.4404H94.7051L94.7051 8.17969Z" fill="black"/>
<path d="M103.761 13.2247C103.641 13.6362 103.379 13.9922 103.022 14.2304C102.666 14.4685 102.237 14.5737 101.81 14.5274C101.514 14.5352 101.219 14.4784 100.946 14.3609C100.674 14.2434 100.43 14.0679 100.232 13.8468C100.034 13.6257 99.8868 13.3641 99.8001 13.0803C99.7135 12.7965 99.6896 12.4972 99.7301 12.2032C99.6906 11.9083 99.7149 11.6084 99.8014 11.3237C99.8879 11.039 100.035 10.7763 100.231 10.5532C100.428 10.3301 100.671 10.152 100.943 10.0307C101.214 9.90954 101.509 9.84812 101.806 9.85066C103.059 9.85066 103.815 10.7067 103.815 12.1207V12.4308H100.635V12.4806C100.621 12.6458 100.642 12.8121 100.696 12.9689C100.751 13.1256 100.837 13.2693 100.95 13.3908C101.063 13.5122 101.2 13.6088 101.352 13.6742C101.504 13.7396 101.669 13.7724 101.835 13.7706C102.047 13.7961 102.263 13.7578 102.453 13.6606C102.644 13.5634 102.802 13.4116 102.906 13.2247L103.761 13.2247ZM100.635 11.7735H102.91C102.921 11.6224 102.9 11.4706 102.85 11.3279C102.799 11.1851 102.718 11.0547 102.614 10.9448C102.51 10.835 102.383 10.7481 102.243 10.69C102.103 10.6318 101.953 10.6035 101.801 10.607C101.648 10.6051 101.495 10.6339 101.353 10.6919C101.21 10.7498 101.081 10.8357 100.972 10.9444C100.864 11.0531 100.778 11.1825 100.72 11.3249C100.662 11.4673 100.633 11.6198 100.635 11.7735Z" fill="black"/>
</g>
<defs>
<clipPath id="clip0_6010_13478">
<rect width="118" height="39" fill="white"/>
</clipPath>
</defs>
</svg>
