<svg width="522" height="150" viewBox="0 0 522 150" fill="none" xmlns="http://www.w3.org/2000/svg">
<rect width="522" height="150" rx="8" fill="#FAFAFA"/>
<path d="M261.898 58.6001L261.898 72.7754C261.898 79.8446 256.168 85.5754 249.098 85.5754L195.211 85.5753C185.649 85.5753 177.898 93.3264 177.898 102.888C177.898 112.449 185.649 120.2 195.211 120.2L261.898 120.2" stroke="#D4D4D8" stroke-width="0.8" stroke-dasharray="1.6 1.6"/>
<path d="M261.898 58.6001L261.898 72.7754C261.898 79.8446 267.629 85.5754 274.698 85.5754L328.586 85.5753C338.147 85.5753 345.898 93.3264 345.898 102.888C345.898 112.449 338.147 120.2 328.586 120.2L261.898 120.2" stroke="#D4D4D8" stroke-width="0.8" stroke-dasharray="1.6 1.6"/>
<g filter="url(#filter0_dddd_6013_3850)">
<rect x="110.699" y="29.8" width="301.6" height="28.7961" rx="6.4" fill="white"/>
<rect x="111.049" y="30.1502" width="300.9" height="28.0958" rx="6.04986" stroke="#E4E4E7" stroke-width="0.700277"/>
<path d="M122.68 39.9397H123.86C123.886 39.9397 123.905 39.9557 123.918 39.9877L126.155 46.6501C126.168 46.6821 126.152 46.6981 126.107 46.6981H125.204C125.185 46.6981 125.169 46.6821 125.156 46.6501L124.715 45.2773C124.708 45.2453 124.686 45.2293 124.648 45.2293H121.864C121.838 45.2293 121.819 45.2453 121.806 45.2773L121.355 46.6501C121.342 46.6821 121.326 46.6981 121.307 46.6981H120.414C120.369 46.6981 120.35 46.6821 120.356 46.6501L122.622 39.9877C122.635 39.9557 122.654 39.9397 122.68 39.9397ZM122.123 44.4613H124.398C124.436 44.4613 124.449 44.4453 124.436 44.4133L123.313 40.8997C123.3 40.8741 123.284 40.8613 123.265 40.8613C123.246 40.8613 123.23 40.8741 123.217 40.8997L122.084 44.4133C122.072 44.4453 122.084 44.4613 122.123 44.4613ZM130.725 43.4821H129.899C129.867 43.4821 129.851 43.4661 129.851 43.4341C129.851 43.1653 129.746 42.9541 129.534 42.8005C129.33 42.6405 129.035 42.5605 128.651 42.5605C128.312 42.5605 128.053 42.6213 127.874 42.7429C127.701 42.8645 127.614 43.0085 127.614 43.1749C127.614 43.2517 127.624 43.3189 127.643 43.3765C127.669 43.4341 127.707 43.4853 127.758 43.5301C127.816 43.5685 127.867 43.6005 127.912 43.6261C127.963 43.6517 128.034 43.6773 128.123 43.7029C128.219 43.7221 128.29 43.7349 128.334 43.7413C128.386 43.7477 128.466 43.7573 128.574 43.7701C128.683 43.7829 128.754 43.7925 128.786 43.7989C129.451 43.8949 129.896 43.9877 130.12 44.0773C130.638 44.2949 130.898 44.6853 130.898 45.2485C130.898 45.7733 130.706 46.1637 130.322 46.4197C129.938 46.6693 129.426 46.7941 128.786 46.7941C128.088 46.7941 127.55 46.6341 127.173 46.3141C126.802 45.9941 126.616 45.5909 126.616 45.1045C126.616 45.0725 126.632 45.0565 126.664 45.0565H127.47C127.509 45.0565 127.528 45.0725 127.528 45.1045C127.528 45.3541 127.643 45.5621 127.874 45.7285C128.104 45.8949 128.408 45.9781 128.786 45.9781C129.586 45.9781 129.986 45.7349 129.986 45.2485C129.986 45.1909 129.976 45.1365 129.957 45.0853C129.944 45.0341 129.918 44.9893 129.88 44.9509C129.842 44.9125 129.803 44.8805 129.765 44.8549C129.733 44.8229 129.682 44.7973 129.611 44.7781C129.547 44.7525 129.496 44.7333 129.458 44.7205C129.419 44.7077 129.358 44.6949 129.275 44.6821C129.192 44.6693 129.134 44.6597 129.102 44.6533C129.07 44.6469 129.013 44.6405 128.93 44.6341C128.846 44.6213 128.798 44.6149 128.786 44.6149C128.581 44.5893 128.418 44.5701 128.296 44.5573C128.181 44.5381 128.027 44.5061 127.835 44.4613C127.65 44.4165 127.499 44.3621 127.384 44.2981C127.275 44.2341 127.16 44.1541 127.038 44.0581C126.923 43.9557 126.837 43.8309 126.779 43.6837C126.728 43.5365 126.702 43.3669 126.702 43.1749C126.702 42.7717 126.882 42.4325 127.24 42.1573C127.598 41.8821 128.069 41.7445 128.651 41.7445C129.272 41.7445 129.778 41.8917 130.168 42.1861C130.565 42.4741 130.763 42.8901 130.763 43.4341C130.763 43.4661 130.75 43.4821 130.725 43.4821ZM136.578 46.6981H135.714C135.676 46.6981 135.647 46.6821 135.628 46.6501L134.101 44.0293C134.082 44.0037 134.06 44.0037 134.034 44.0293L132.94 44.9701C132.927 44.9829 132.92 45.0021 132.92 45.0277V46.6501C132.92 46.6821 132.904 46.6981 132.872 46.6981H132.056C132.024 46.6981 132.008 46.6821 132.008 46.6501V39.9877C132.008 39.9557 132.024 39.9397 132.056 39.9397H132.872C132.904 39.9397 132.92 39.9557 132.92 39.9877V43.7509C132.92 43.7637 132.927 43.7733 132.94 43.7797C132.959 43.7861 132.975 43.7829 132.988 43.7701L135.196 41.8885C135.234 41.8565 135.282 41.8405 135.34 41.8405H136.52C136.533 41.8405 136.543 41.8469 136.549 41.8597C136.556 41.8725 136.556 41.8821 136.549 41.8885L134.764 43.4053C134.744 43.4245 134.744 43.4501 134.764 43.4821L136.616 46.6501C136.629 46.6821 136.616 46.6981 136.578 46.6981ZM143.768 45.9301V46.6501C143.768 46.6821 143.752 46.6981 143.72 46.6981H143.538C142.994 46.6981 142.655 46.5349 142.52 46.2085C142.501 46.1573 142.472 46.1509 142.434 46.1893C142.031 46.5925 141.477 46.7941 140.773 46.7941C140.184 46.7941 139.724 46.6565 139.391 46.3813C139.064 46.0997 138.901 45.7253 138.901 45.2581C138.901 44.8293 139.084 44.4805 139.448 44.2117C139.813 43.9365 140.319 43.7989 140.965 43.7989H141.992C142.088 43.7989 142.165 43.7669 142.223 43.7029C142.28 43.6325 142.309 43.5589 142.309 43.4821C142.309 43.3541 142.3 43.2485 142.28 43.1653C142.261 43.0821 142.216 42.9893 142.146 42.8869C142.076 42.7781 141.954 42.6981 141.781 42.6469C141.608 42.5893 141.388 42.5605 141.119 42.5605C140.728 42.5605 140.437 42.6405 140.245 42.8005C140.06 42.9605 139.967 43.1717 139.967 43.4341C139.967 43.4661 139.951 43.4821 139.919 43.4821H139.103C139.071 43.4821 139.055 43.4661 139.055 43.4341C139.055 42.8965 139.253 42.4805 139.65 42.1861C140.047 41.8917 140.536 41.7445 141.119 41.7445C141.791 41.7445 142.309 41.8917 142.674 42.1861C143.039 42.4741 143.221 42.9061 143.221 43.4821V45.5653C143.221 45.6421 143.25 45.7157 143.308 45.7861C143.365 45.8501 143.442 45.8821 143.538 45.8821H143.72C143.752 45.8821 143.768 45.8981 143.768 45.9301ZM142.309 44.7013V44.5669C142.309 44.5349 142.293 44.5189 142.261 44.5189H140.965C140.568 44.5189 140.277 44.5925 140.092 44.7397C139.906 44.8869 139.813 45.0597 139.813 45.2581C139.813 45.4437 139.9 45.6101 140.072 45.7573C140.245 45.9045 140.479 45.9781 140.773 45.9781C141.304 45.9781 141.692 45.8533 141.935 45.6037C142.184 45.3477 142.309 45.0469 142.309 44.7013ZM144.753 41.8405H145.473C145.493 41.8405 145.509 41.8565 145.521 41.8885L145.617 42.3205C145.624 42.3461 145.64 42.3589 145.665 42.3589C145.691 42.3589 145.71 42.3493 145.723 42.3301C145.985 41.9397 146.405 41.7445 146.981 41.7445C147.646 41.7445 148.161 41.9589 148.526 42.3877C148.891 42.8101 149.073 43.3509 149.073 44.0101V46.6501C149.073 46.6821 149.057 46.6981 149.025 46.6981H148.209C148.177 46.6981 148.161 46.6821 148.161 46.6501V44.0101C148.161 43.6005 148.059 43.2581 147.854 42.9829C147.649 42.7013 147.326 42.5605 146.885 42.5605C146.501 42.5605 146.193 42.7045 145.963 42.9925C145.733 43.2741 145.617 43.6133 145.617 44.0101V46.6501C145.617 46.6821 145.601 46.6981 145.569 46.6981H144.753C144.721 46.6981 144.705 46.6821 144.705 46.6501V41.8885C144.705 41.8565 144.721 41.8405 144.753 41.8405ZM149.714 48.5509V47.8309C149.714 47.7989 149.73 47.7829 149.762 47.7829H150.847C151.122 47.7829 151.308 47.7029 151.404 47.5429C151.5 47.3829 151.503 47.1717 151.413 46.9093L149.704 41.8885C149.698 41.8565 149.717 41.8405 149.762 41.8405H150.636C150.655 41.8405 150.671 41.8565 150.684 41.8885L151.941 45.7477C151.954 45.7797 151.97 45.7957 151.989 45.7957C152.008 45.7957 152.024 45.7797 152.037 45.7477L153.304 41.8885C153.317 41.8565 153.333 41.8405 153.352 41.8405H154.226C154.271 41.8405 154.287 41.8565 154.274 41.8885L152.354 47.5333C152.213 47.9301 152.047 48.2053 151.855 48.3589C151.669 48.5189 151.388 48.5989 151.01 48.5989H149.762C149.73 48.5989 149.714 48.5829 149.714 48.5509ZM157.416 45.9301V46.6501C157.416 46.6821 157.4 46.6981 157.368 46.6981H156.628C155.79 46.6981 155.371 46.3205 155.371 45.5653V42.6085C155.371 42.5765 155.355 42.5605 155.323 42.5605H154.468C154.436 42.5605 154.42 42.5445 154.42 42.5125V41.8885C154.42 41.8565 154.436 41.8405 154.468 41.8405H155.323C155.355 41.8405 155.371 41.8245 155.371 41.7925V40.4965C155.371 40.4645 155.387 40.4485 155.419 40.4485H156.235C156.267 40.4485 156.283 40.4645 156.283 40.4965V41.7925C156.283 41.8245 156.299 41.8405 156.331 41.8405H157.368C157.4 41.8405 157.416 41.8565 157.416 41.8885V42.5125C157.416 42.5445 157.4 42.5605 157.368 42.5605H156.331C156.299 42.5605 156.283 42.5765 156.283 42.6085V45.4021C156.283 45.7221 156.456 45.8821 156.801 45.8821H157.368C157.4 45.8821 157.416 45.8981 157.416 45.9301ZM158.51 39.9397H159.326C159.358 39.9397 159.374 39.9557 159.374 39.9877V42.3109C159.374 42.3365 159.387 42.3525 159.412 42.3589C159.438 42.3653 159.46 42.3557 159.48 42.3301C159.787 41.9397 160.206 41.7445 160.737 41.7445C161.441 41.7445 161.966 41.9557 162.312 42.3781C162.657 42.7941 162.83 43.3381 162.83 44.0101V46.6501C162.83 46.6821 162.814 46.6981 162.782 46.6981H161.966C161.934 46.6981 161.918 46.6821 161.918 46.6501V44.0101C161.918 43.6005 161.816 43.2581 161.611 42.9829C161.406 42.7013 161.083 42.5605 160.641 42.5605C160.257 42.5605 159.95 42.7045 159.72 42.9925C159.489 43.2741 159.374 43.6133 159.374 44.0101V46.6501C159.374 46.6821 159.358 46.6981 159.326 46.6981H158.51C158.478 46.6981 158.462 46.6821 158.462 46.6501V39.9877C158.462 39.9557 158.478 39.9397 158.51 39.9397ZM165.131 41.8885V46.6501C165.131 46.6821 165.115 46.6981 165.083 46.6981H164.267C164.235 46.6981 164.219 46.6821 164.219 46.6501V41.8885C164.219 41.8565 164.235 41.8405 164.267 41.8405H165.083C165.115 41.8405 165.131 41.8565 165.131 41.8885ZM165.151 41.0053H164.191C164.159 41.0053 164.143 40.9893 164.143 40.9573V39.9877C164.143 39.9557 164.159 39.9397 164.191 39.9397H165.151C165.183 39.9397 165.199 39.9557 165.199 39.9877V40.9573C165.199 40.9893 165.183 41.0053 165.151 41.0053ZM166.65 41.8405H167.37C167.389 41.8405 167.405 41.8565 167.418 41.8885L167.514 42.3205C167.52 42.3461 167.536 42.3589 167.562 42.3589C167.587 42.3589 167.607 42.3493 167.619 42.3301C167.882 41.9397 168.301 41.7445 168.877 41.7445C169.543 41.7445 170.058 41.9589 170.423 42.3877C170.787 42.8101 170.97 43.3509 170.97 44.0101V46.6501C170.97 46.6821 170.954 46.6981 170.922 46.6981H170.106C170.074 46.6981 170.058 46.6821 170.058 46.6501V44.0101C170.058 43.6005 169.955 43.2581 169.751 42.9829C169.546 42.7013 169.223 42.5605 168.781 42.5605C168.397 42.5605 168.09 42.7045 167.859 42.9925C167.629 43.2741 167.514 43.6133 167.514 44.0101V46.6501C167.514 46.6821 167.498 46.6981 167.466 46.6981H166.65C166.618 46.6981 166.602 46.6821 166.602 46.6501V41.8885C166.602 41.8565 166.618 41.8405 166.65 41.8405ZM173.166 47.2645C173.217 47.4117 173.345 47.5493 173.55 47.6773C173.754 47.8117 174.033 47.8789 174.385 47.8789C174.852 47.8789 175.194 47.7445 175.412 47.4757C175.636 47.2133 175.748 46.8933 175.748 46.5157V46.2565C175.748 46.2373 175.735 46.2245 175.71 46.2181C175.69 46.2053 175.671 46.2117 175.652 46.2373C175.575 46.3397 175.399 46.4581 175.124 46.5925C174.855 46.7269 174.574 46.7941 174.279 46.7941C173.62 46.7941 173.073 46.5605 172.638 46.0933C172.209 45.6197 171.994 45.0117 171.994 44.2693C171.994 43.5141 172.199 42.9061 172.609 42.4453C173.025 41.9781 173.582 41.7445 174.279 41.7445C174.51 41.7445 174.759 41.7989 175.028 41.9077C175.303 42.0165 175.511 42.1413 175.652 42.2821C175.697 42.3269 175.729 42.3237 175.748 42.2725L175.844 41.8885C175.857 41.8565 175.873 41.8405 175.892 41.8405H176.612C176.644 41.8405 176.66 41.8565 176.66 41.8885V46.5157C176.66 47.1621 176.449 47.6869 176.026 48.0901C175.61 48.4933 175.063 48.6949 174.385 48.6949C173.809 48.6949 173.316 48.5541 172.906 48.2725C172.497 47.9909 172.273 47.6549 172.234 47.2645C172.234 47.2325 172.25 47.2165 172.282 47.2165H173.118C173.137 47.2165 173.153 47.2325 173.166 47.2645ZM173.3 43.0405C173.038 43.3541 172.906 43.7637 172.906 44.2693C172.906 44.7749 173.038 45.1877 173.3 45.5077C173.562 45.8213 173.921 45.9781 174.375 45.9781C174.804 45.9781 175.14 45.8213 175.383 45.5077C175.626 45.1941 175.748 44.7813 175.748 44.2693C175.748 43.7573 175.626 43.3445 175.383 43.0309C175.14 42.7173 174.804 42.5605 174.375 42.5605C173.921 42.5605 173.562 42.7205 173.3 43.0405ZM179.127 46.6981H177.975C177.943 46.6981 177.927 46.6821 177.927 46.6501V45.4789C177.927 45.4469 177.943 45.4309 177.975 45.4309H179.127C179.159 45.4309 179.175 45.4469 179.175 45.4789V46.6501C179.175 46.6821 179.159 46.6981 179.127 46.6981ZM181.669 46.6981H180.517C180.485 46.6981 180.469 46.6821 180.469 46.6501V45.4789C180.469 45.4469 180.485 45.4309 180.517 45.4309H181.669C181.701 45.4309 181.717 45.4469 181.717 45.4789V46.6501C181.717 46.6821 181.701 46.6981 181.669 46.6981ZM184.21 46.6981H183.058C183.026 46.6981 183.01 46.6821 183.01 46.6501V45.4789C183.01 45.4469 183.026 45.4309 183.058 45.4309H184.21C184.242 45.4309 184.258 45.4469 184.258 45.4789V46.6501C184.258 46.6821 184.242 46.6981 184.21 46.6981Z" fill="#A1A1AA"/>
<g clip-path="url(#clip0_6013_3850)">
<path d="M390.801 41.9983C390.356 41.6025 390.635 40.8662 391.231 40.8662H398.135C398.632 40.8662 398.944 41.4031 398.698 41.835L395.312 47.7725C395.02 48.2843 394.252 48.1724 394.118 47.5986L393.354 44.3208L395.801 42.9599C395.935 42.8853 395.983 42.7163 395.909 42.5823C395.834 42.4483 395.665 42.4 395.531 42.4746L392.951 43.9097L390.801 41.9983Z" fill="#FC5F2B"/>
</g>
</g>
<g filter="url(#filter1_ddd_6013_3850)">
<rect x="152.939" y="92.2001" width="71.128" height="20.416" rx="10.208" fill="white" fill-opacity="0.8"/>
<rect x="152.707" y="91.9681" width="71.592" height="20.88" rx="10.44" stroke="black" stroke-opacity="0.1" stroke-width="0.464"/>
<path d="M164.038 97.812C163.543 97.3106 162.752 97.3106 162.256 97.812C161.731 98.344 160.967 99.1868 160.332 100.167C159.703 101.138 159.17 102.29 159.17 103.43C159.17 105.614 160.953 107.379 163.147 107.379C165.341 107.379 167.124 105.614 167.124 103.43C167.124 102.29 166.591 101.138 165.962 100.167C165.327 99.1868 164.563 98.344 164.038 97.812Z" fill="#FC5F2B"/>
<path opacity="0.5" d="M173.22 105.86V99.1977C173.22 99.1657 173.236 99.1497 173.268 99.1497H176.465C176.977 99.1497 177.399 99.3385 177.732 99.7161C178.065 100.087 178.231 100.538 178.231 101.07C178.231 101.37 178.154 101.636 178.001 101.866C177.854 102.09 177.678 102.244 177.473 102.327C177.447 102.334 177.434 102.35 177.434 102.375C177.434 102.401 177.447 102.417 177.473 102.423C177.703 102.519 177.911 102.724 178.097 103.038C178.289 103.345 178.385 103.662 178.385 103.988C178.385 104.558 178.199 105.022 177.828 105.38C177.463 105.732 176.993 105.908 176.417 105.908H173.268C173.236 105.908 173.22 105.892 173.22 105.86ZM176.35 102.836H174.18C174.148 102.836 174.132 102.852 174.132 102.884V105.044C174.132 105.076 174.148 105.092 174.18 105.092H176.282C176.622 105.092 176.903 104.983 177.127 104.766C177.358 104.542 177.473 104.282 177.473 103.988C177.473 103.7 177.361 103.438 177.137 103.201C176.913 102.958 176.65 102.836 176.35 102.836ZM177.319 101.07C177.319 100.762 177.226 100.5 177.041 100.282C176.862 100.065 176.609 99.9561 176.282 99.9561H174.18C174.148 99.9561 174.132 99.9721 174.132 100.004V101.972C174.132 102.004 174.148 102.02 174.18 102.02H176.282C176.551 102.007 176.791 101.911 177.002 101.732C177.214 101.553 177.319 101.332 177.319 101.07ZM180.395 99.1977V105.86C180.395 105.892 180.379 105.908 180.347 105.908H179.531C179.499 105.908 179.483 105.892 179.483 105.86V99.1977C179.483 99.1657 179.499 99.1497 179.531 99.1497H180.347C180.379 99.1497 180.395 99.1657 180.395 99.1977ZM185.619 101.646C186.048 102.106 186.263 102.718 186.263 103.479C186.263 104.241 186.048 104.852 185.619 105.313C185.197 105.774 184.618 106.004 183.882 106.004C183.139 106.004 182.557 105.774 182.135 105.313C181.712 104.852 181.501 104.241 181.501 103.479C181.501 102.718 181.712 102.106 182.135 101.646C182.557 101.185 183.139 100.954 183.882 100.954C184.618 100.954 185.197 101.185 185.619 101.646ZM184.957 104.718C185.219 104.398 185.351 103.985 185.351 103.479C185.351 102.974 185.219 102.564 184.957 102.25C184.695 101.93 184.336 101.77 183.882 101.77C183.434 101.77 183.075 101.93 182.807 102.25C182.544 102.564 182.413 102.974 182.413 103.479C182.413 103.985 182.544 104.398 182.807 104.718C183.075 105.031 183.434 105.188 183.882 105.188C184.336 105.188 184.695 105.031 184.957 104.718ZM191.124 101.646C191.552 102.106 191.767 102.718 191.767 103.479C191.767 104.241 191.552 104.852 191.124 105.313C190.701 105.774 190.122 106.004 189.386 106.004C188.644 106.004 188.061 105.774 187.639 105.313C187.216 104.852 187.005 104.241 187.005 103.479C187.005 102.718 187.216 102.106 187.639 101.646C188.061 101.185 188.644 100.954 189.386 100.954C190.122 100.954 190.701 101.185 191.124 101.646ZM190.461 104.718C190.724 104.398 190.855 103.985 190.855 103.479C190.855 102.974 190.724 102.564 190.461 102.25C190.199 101.93 189.84 101.77 189.386 101.77C188.938 101.77 188.58 101.93 188.311 102.25C188.048 102.564 187.917 102.974 187.917 103.479C187.917 103.985 188.048 104.398 188.311 104.718C188.58 105.031 188.938 105.188 189.386 105.188C189.84 105.188 190.199 105.031 190.461 104.718ZM197.127 105.908H196.407C196.388 105.908 196.372 105.892 196.359 105.86L196.263 105.476C196.244 105.418 196.212 105.412 196.167 105.457C196.033 105.591 195.828 105.716 195.553 105.831C195.277 105.946 195.025 106.004 194.794 106.004C194.097 106.004 193.54 105.774 193.124 105.313C192.714 104.846 192.509 104.234 192.509 103.479C192.509 102.724 192.714 102.116 193.124 101.655C193.54 101.188 194.097 100.954 194.794 100.954C195.089 100.954 195.367 101.022 195.629 101.156C195.898 101.284 196.077 101.399 196.167 101.502C196.193 101.527 196.215 101.537 196.234 101.53C196.253 101.518 196.263 101.502 196.263 101.482V99.1977C196.263 99.1657 196.279 99.1497 196.311 99.1497H197.127C197.159 99.1497 197.175 99.1657 197.175 99.1977V105.86C197.175 105.892 197.159 105.908 197.127 105.908ZM193.815 102.25C193.553 102.564 193.421 102.974 193.421 103.479C193.421 103.985 193.553 104.398 193.815 104.718C194.077 105.031 194.436 105.188 194.89 105.188C195.319 105.188 195.655 105.031 195.898 104.718C196.141 104.404 196.263 103.991 196.263 103.479C196.263 102.967 196.141 102.554 195.898 102.241C195.655 101.927 195.319 101.77 194.89 101.77C194.436 101.77 194.077 101.93 193.815 102.25ZM201.523 99.1977V105.86C201.523 105.892 201.507 105.908 201.475 105.908H200.659C200.627 105.908 200.611 105.892 200.611 105.86V99.1977C200.611 99.1657 200.627 99.1497 200.659 99.1497H201.475C201.507 99.1497 201.523 99.1657 201.523 99.1977ZM207.457 105.14V105.86C207.457 105.892 207.441 105.908 207.409 105.908H207.227C206.683 105.908 206.344 105.745 206.209 105.418C206.19 105.367 206.161 105.361 206.123 105.399C205.72 105.802 205.166 106.004 204.462 106.004C203.873 106.004 203.412 105.866 203.08 105.591C202.753 105.31 202.59 104.935 202.59 104.468C202.59 104.039 202.772 103.69 203.137 103.422C203.502 103.146 204.008 103.009 204.654 103.009H205.681C205.777 103.009 205.854 102.977 205.912 102.913C205.969 102.842 205.998 102.769 205.998 102.692C205.998 102.564 205.988 102.458 205.969 102.375C205.95 102.292 205.905 102.199 205.835 102.097C205.764 101.988 205.643 101.908 205.47 101.857C205.297 101.799 205.076 101.77 204.808 101.77C204.417 101.77 204.126 101.85 203.934 102.01C203.748 102.17 203.656 102.382 203.656 102.644C203.656 102.676 203.64 102.692 203.608 102.692H202.792C202.76 102.692 202.744 102.676 202.744 102.644C202.744 102.106 202.942 101.69 203.339 101.396C203.736 101.102 204.225 100.954 204.808 100.954C205.48 100.954 205.998 101.102 206.363 101.396C206.728 101.684 206.91 102.116 206.91 102.692V104.775C206.91 104.852 206.939 104.926 206.996 104.996C207.054 105.06 207.131 105.092 207.227 105.092H207.409C207.441 105.092 207.457 105.108 207.457 105.14ZM205.998 103.911V103.777C205.998 103.745 205.982 103.729 205.95 103.729H204.654C204.257 103.729 203.966 103.802 203.78 103.95C203.595 104.097 203.502 104.27 203.502 104.468C203.502 104.654 203.588 104.82 203.761 104.967C203.934 105.114 204.168 105.188 204.462 105.188C204.993 105.188 205.38 105.063 205.624 104.814C205.873 104.558 205.998 104.257 205.998 103.911ZM209.162 105.908H208.442C208.41 105.908 208.394 105.892 208.394 105.86V99.1977C208.394 99.1657 208.41 99.1497 208.442 99.1497H209.258C209.29 99.1497 209.306 99.1657 209.306 99.1977V101.482C209.306 101.502 209.316 101.518 209.335 101.53C209.354 101.537 209.377 101.527 209.402 101.502C209.492 101.399 209.668 101.284 209.93 101.156C210.199 101.022 210.481 100.954 210.775 100.954C211.473 100.954 212.026 101.188 212.436 101.655C212.852 102.116 213.06 102.724 213.06 103.479C213.06 104.234 212.852 104.846 212.436 105.313C212.026 105.774 211.473 106.004 210.775 106.004C210.545 106.004 210.292 105.946 210.017 105.831C209.742 105.716 209.537 105.591 209.402 105.457C209.358 105.412 209.326 105.418 209.306 105.476L209.21 105.86C209.198 105.892 209.182 105.908 209.162 105.908ZM211.754 104.718C212.017 104.398 212.148 103.985 212.148 103.479C212.148 102.974 212.017 102.564 211.754 102.25C211.492 101.93 211.134 101.77 210.679 101.77C210.25 101.77 209.914 101.927 209.671 102.241C209.428 102.554 209.306 102.967 209.306 103.479C209.306 103.991 209.428 104.404 209.671 104.718C209.914 105.031 210.25 105.188 210.679 105.188C211.134 105.188 211.492 105.031 211.754 104.718ZM217.866 102.692H217.041C217.009 102.692 216.993 102.676 216.993 102.644C216.993 102.375 216.887 102.164 216.676 102.01C216.471 101.85 216.177 101.77 215.793 101.77C215.454 101.77 215.194 101.831 215.015 101.953C214.842 102.074 214.756 102.218 214.756 102.385C214.756 102.462 214.766 102.529 214.785 102.586C214.81 102.644 214.849 102.695 214.9 102.74C214.958 102.778 215.009 102.81 215.054 102.836C215.105 102.862 215.175 102.887 215.265 102.913C215.361 102.932 215.431 102.945 215.476 102.951C215.527 102.958 215.607 102.967 215.716 102.98C215.825 102.993 215.895 103.002 215.927 103.009C216.593 103.105 217.038 103.198 217.262 103.287C217.78 103.505 218.039 103.895 218.039 104.458C218.039 104.983 217.847 105.374 217.463 105.63C217.079 105.879 216.567 106.004 215.927 106.004C215.23 106.004 214.692 105.844 214.314 105.524C213.943 105.204 213.758 104.801 213.758 104.314C213.758 104.282 213.774 104.266 213.806 104.266H214.612C214.65 104.266 214.67 104.282 214.67 104.314C214.67 104.564 214.785 104.772 215.015 104.938C215.246 105.105 215.55 105.188 215.927 105.188C216.727 105.188 217.127 104.945 217.127 104.458C217.127 104.401 217.118 104.346 217.098 104.295C217.086 104.244 217.06 104.199 217.022 104.161C216.983 104.122 216.945 104.09 216.906 104.065C216.874 104.033 216.823 104.007 216.753 103.988C216.689 103.962 216.638 103.943 216.599 103.93C216.561 103.918 216.5 103.905 216.417 103.892C216.334 103.879 216.276 103.87 216.244 103.863C216.212 103.857 216.154 103.85 216.071 103.844C215.988 103.831 215.94 103.825 215.927 103.825C215.722 103.799 215.559 103.78 215.438 103.767C215.322 103.748 215.169 103.716 214.977 103.671C214.791 103.626 214.641 103.572 214.526 103.508C214.417 103.444 214.302 103.364 214.18 103.268C214.065 103.166 213.978 103.041 213.921 102.894C213.87 102.746 213.844 102.577 213.844 102.385C213.844 101.982 214.023 101.642 214.382 101.367C214.74 101.092 215.21 100.954 215.793 100.954C216.414 100.954 216.919 101.102 217.31 101.396C217.706 101.684 217.905 102.1 217.905 102.644C217.905 102.676 217.892 102.692 217.866 102.692Z" fill="black"/>
</g>
<g filter="url(#filter2_ddd_6013_3850)">
<rect x="233.668" y="92.2001" width="62.128" height="20.416" rx="10.208" fill="white" fill-opacity="0.8"/>
<rect x="233.436" y="91.9681" width="62.592" height="20.88" rx="10.44" stroke="black" stroke-opacity="0.1" stroke-width="0.464"/>
<path fill-rule="evenodd" clip-rule="evenodd" d="M242.674 99.1372C242.84 99.2597 242.875 99.4932 242.752 99.6587L241.095 101.896C240.976 102.056 240.752 102.095 240.587 101.983L239.758 101.424C239.587 101.308 239.542 101.077 239.658 100.906C239.773 100.735 240.005 100.69 240.175 100.806L240.708 101.165L242.153 99.2148C242.275 99.0494 242.509 99.0146 242.674 99.1372ZM243.571 100.68C243.571 100.474 243.738 100.307 243.944 100.307H248.17C248.375 100.307 248.542 100.474 248.542 100.68C248.542 100.886 248.375 101.052 248.17 101.052H243.944C243.738 101.052 243.571 100.886 243.571 100.68ZM242.674 103.611C242.84 103.734 242.875 103.968 242.752 104.133L241.095 106.37C240.976 106.531 240.752 106.569 240.587 106.457L239.758 105.898C239.587 105.783 239.542 105.551 239.658 105.38C239.773 105.21 240.005 105.165 240.175 105.28L240.708 105.64L242.153 103.689C242.275 103.524 242.509 103.489 242.674 103.611ZM243.571 104.905C243.571 104.699 243.738 104.532 243.944 104.532H248.17C248.375 104.532 248.542 104.699 248.542 104.905C248.542 105.111 248.375 105.278 248.17 105.278H243.944C243.738 105.278 243.571 105.111 243.571 104.905Z" fill="#FC5F2B"/>
<path opacity="0.5" d="M253.949 105.86V99.1977C253.949 99.1657 253.965 99.1497 253.997 99.1497H256.8C257.331 99.1497 257.789 99.3513 258.173 99.7545C258.563 100.151 258.758 100.634 258.758 101.204C258.758 101.767 258.563 102.244 258.173 102.634C257.789 103.025 257.331 103.22 256.8 103.22H254.909C254.877 103.22 254.861 103.236 254.861 103.268V105.86C254.861 105.892 254.845 105.908 254.813 105.908H253.997C253.965 105.908 253.949 105.892 253.949 105.86ZM256.685 99.9657H254.909C254.877 99.9657 254.861 99.9817 254.861 100.014V102.356C254.861 102.388 254.877 102.404 254.909 102.404H256.685C256.992 102.404 257.261 102.286 257.491 102.049C257.728 101.812 257.846 101.53 257.846 101.204C257.846 100.878 257.728 100.59 257.491 100.34C257.261 100.09 256.992 99.9657 256.685 99.9657ZM262.14 101.77H261.65C261.266 101.77 260.959 101.914 260.729 102.202C260.498 102.484 260.383 102.823 260.383 103.22V105.86C260.383 105.892 260.367 105.908 260.335 105.908H259.519C259.487 105.908 259.471 105.892 259.471 105.86V101.098C259.471 101.066 259.487 101.05 259.519 101.05H260.239C260.258 101.05 260.274 101.066 260.287 101.098L260.383 101.53C260.402 101.588 260.438 101.591 260.489 101.54C260.879 101.15 261.266 100.954 261.65 100.954H262.14C262.172 100.954 262.188 100.97 262.188 101.002V101.722C262.188 101.754 262.172 101.77 262.14 101.77ZM266.648 101.646C267.077 102.106 267.291 102.718 267.291 103.479C267.291 104.241 267.077 104.852 266.648 105.313C266.225 105.774 265.646 106.004 264.91 106.004C264.168 106.004 263.585 105.774 263.163 105.313C262.741 104.852 262.529 104.241 262.529 103.479C262.529 102.718 262.741 102.106 263.163 101.646C263.585 101.185 264.168 100.954 264.91 100.954C265.646 100.954 266.225 101.185 266.648 101.646ZM265.985 104.718C266.248 104.398 266.379 103.985 266.379 103.479C266.379 102.974 266.248 102.564 265.985 102.25C265.723 101.93 265.365 101.77 264.91 101.77C264.462 101.77 264.104 101.93 263.835 102.25C263.573 102.564 263.441 102.974 263.441 103.479C263.441 103.985 263.573 104.398 263.835 104.718C264.104 105.031 264.462 105.188 264.91 105.188C265.365 105.188 265.723 105.031 265.985 104.718ZM270.681 105.14V105.86C270.681 105.892 270.665 105.908 270.633 105.908H269.894C269.056 105.908 268.637 105.53 268.637 104.775V101.818C268.637 101.786 268.621 101.77 268.589 101.77H267.734C267.702 101.77 267.686 101.754 267.686 101.722V101.098C267.686 101.066 267.702 101.05 267.734 101.05H268.589C268.621 101.05 268.637 101.034 268.637 101.002V99.7065C268.637 99.6745 268.653 99.6585 268.685 99.6585H269.501C269.533 99.6585 269.549 99.6745 269.549 99.7065V101.002C269.549 101.034 269.565 101.05 269.597 101.05H270.633C270.665 101.05 270.681 101.066 270.681 101.098V101.722C270.681 101.754 270.665 101.77 270.633 101.77H269.597C269.565 101.77 269.549 101.786 269.549 101.818V104.612C269.549 104.932 269.721 105.092 270.067 105.092H270.633C270.665 105.092 270.681 105.108 270.681 105.14ZM275.397 101.646C275.826 102.106 276.04 102.718 276.04 103.479C276.04 104.241 275.826 104.852 275.397 105.313C274.975 105.774 274.395 106.004 273.659 106.004C272.917 106.004 272.335 105.774 271.912 105.313C271.49 104.852 271.279 104.241 271.279 103.479C271.279 102.718 271.49 102.106 271.912 101.646C272.335 101.185 272.917 100.954 273.659 100.954C274.395 100.954 274.975 101.185 275.397 101.646ZM274.735 104.718C274.997 104.398 275.128 103.985 275.128 103.479C275.128 102.974 274.997 102.564 274.735 102.25C274.472 101.93 274.114 101.77 273.659 101.77C273.211 101.77 272.853 101.93 272.584 102.25C272.322 102.564 272.191 102.974 272.191 103.479C272.191 103.985 272.322 104.398 272.584 104.718C272.853 105.031 273.211 105.188 273.659 105.188C274.114 105.188 274.472 105.031 274.735 104.718ZM281.391 102.692H280.536C280.511 102.692 280.492 102.676 280.479 102.644C280.261 102.062 279.82 101.77 279.154 101.77C278.706 101.77 278.351 101.93 278.088 102.25C277.826 102.564 277.695 102.974 277.695 103.479C277.695 103.985 277.826 104.398 278.088 104.718C278.351 105.031 278.706 105.188 279.154 105.188C279.82 105.188 280.261 104.897 280.479 104.314C280.492 104.282 280.511 104.266 280.536 104.266H281.391C281.429 104.266 281.445 104.282 281.439 104.314C281.304 104.852 281.039 105.268 280.642 105.562C280.252 105.857 279.756 106.004 279.154 106.004C278.412 106.004 277.829 105.774 277.407 105.313C276.991 104.852 276.783 104.241 276.783 103.479C276.783 102.711 276.991 102.1 277.407 101.646C277.829 101.185 278.412 100.954 279.154 100.954C279.756 100.954 280.255 101.105 280.652 101.406C281.048 101.7 281.311 102.113 281.439 102.644C281.445 102.676 281.429 102.692 281.391 102.692ZM286.265 101.646C286.694 102.106 286.908 102.718 286.908 103.479C286.908 104.241 286.694 104.852 286.265 105.313C285.842 105.774 285.263 106.004 284.527 106.004C283.785 106.004 283.202 105.774 282.78 105.313C282.358 104.852 282.146 104.241 282.146 103.479C282.146 102.718 282.358 102.106 282.78 101.646C283.202 101.185 283.785 100.954 284.527 100.954C285.263 100.954 285.842 101.185 286.265 101.646ZM285.602 104.718C285.865 104.398 285.996 103.985 285.996 103.479C285.996 102.974 285.865 102.564 285.602 102.25C285.34 101.93 284.982 101.77 284.527 101.77C284.079 101.77 283.721 101.93 283.452 102.25C283.19 102.564 283.058 102.974 283.058 103.479C283.058 103.985 283.19 104.398 283.452 104.718C283.721 105.031 284.079 105.188 284.527 105.188C284.982 105.188 285.34 105.031 285.602 104.718ZM288.928 99.1977V105.86C288.928 105.892 288.912 105.908 288.88 105.908H288.064C288.032 105.908 288.016 105.892 288.016 105.86V99.1977C288.016 99.1657 288.032 99.1497 288.064 99.1497H288.88C288.912 99.1497 288.928 99.1657 288.928 99.1977Z" fill="black"/>
</g>
<g filter="url(#filter3_ddd_6013_3850)">
<rect x="305.395" y="92.2001" width="56.128" height="20.416" rx="10.208" fill="white" fill-opacity="0.8"/>
<rect x="305.163" y="91.9681" width="56.592" height="20.88" rx="10.44" stroke="black" stroke-opacity="0.1" stroke-width="0.464"/>
<path d="M311.624 99.9224C311.624 98.8242 312.515 97.9338 313.613 97.9338C314.711 97.9338 315.602 98.8242 315.602 99.9224C315.602 101.021 314.711 101.911 313.613 101.911C312.515 101.911 311.624 101.021 311.624 99.9224Z" fill="#FC5F2B"/>
<path d="M316.347 100.171C316.347 99.21 317.126 98.431 318.087 98.431C319.048 98.431 319.827 99.21 319.827 100.171C319.827 101.132 319.048 101.911 318.087 101.911C317.126 101.911 316.347 101.132 316.347 100.171Z" fill="#FC5F2B"/>
<path d="M313.613 102.408C312.03 102.408 310.977 103.424 310.475 104.815C310.277 105.363 310.422 105.894 310.75 106.275C311.072 106.649 311.571 106.882 312.11 106.882H315.116C315.655 106.882 316.154 106.649 316.476 106.275C316.804 105.894 316.949 105.363 316.751 104.815C316.249 103.424 315.196 102.408 313.613 102.408Z" fill="#FC5F2B"/>
<path d="M317.585 106.385C317.858 105.83 317.933 105.159 317.687 104.477C317.459 103.848 317.124 103.257 316.681 102.765C317.082 102.537 317.551 102.408 318.087 102.408C319.411 102.408 320.327 103.196 320.804 104.307C321.037 104.851 320.902 105.389 320.576 105.773C320.257 106.15 319.755 106.385 319.215 106.385H317.585Z" fill="#FC5F2B"/>
<path d="M329.774 99.1497H330.59C330.622 99.1497 330.638 99.1657 330.638 99.1977V105.86C330.638 105.892 330.622 105.908 330.59 105.908H329.774C329.742 105.908 329.726 105.892 329.726 105.86V102.884C329.726 102.852 329.71 102.836 329.678 102.836H326.635C326.603 102.836 326.587 102.849 326.587 102.874V105.86C326.587 105.892 326.571 105.908 326.539 105.908H325.723C325.691 105.908 325.675 105.892 325.675 105.86V99.1977C325.675 99.1657 325.691 99.1497 325.723 99.1497H326.539C326.571 99.1497 326.587 99.1657 326.587 99.1977V101.972C326.587 102.004 326.603 102.02 326.635 102.02H329.678C329.71 102.02 329.726 102.004 329.726 101.972V99.1977C329.726 99.1657 329.742 99.1497 329.774 99.1497ZM333.029 101.098V105.86C333.029 105.892 333.013 105.908 332.981 105.908H332.165C332.133 105.908 332.117 105.892 332.117 105.86V101.098C332.117 101.066 332.133 101.05 332.165 101.05H332.981C333.013 101.05 333.029 101.066 333.029 101.098ZM333.048 100.215H332.088C332.056 100.215 332.04 100.199 332.04 100.167V99.1977C332.04 99.1657 332.056 99.1497 332.088 99.1497H333.048C333.08 99.1497 333.096 99.1657 333.096 99.1977V100.167C333.096 100.199 333.08 100.215 333.048 100.215ZM338.185 102.692H337.36C337.328 102.692 337.312 102.676 337.312 102.644C337.312 102.375 337.206 102.164 336.995 102.01C336.79 101.85 336.496 101.77 336.112 101.77C335.773 101.77 335.513 101.831 335.334 101.953C335.161 102.074 335.075 102.218 335.075 102.385C335.075 102.462 335.085 102.529 335.104 102.586C335.129 102.644 335.168 102.695 335.219 102.74C335.277 102.778 335.328 102.81 335.373 102.836C335.424 102.862 335.494 102.887 335.584 102.913C335.68 102.932 335.75 102.945 335.795 102.951C335.846 102.958 335.926 102.967 336.035 102.98C336.144 102.993 336.214 103.002 336.246 103.009C336.912 103.105 337.357 103.198 337.581 103.287C338.099 103.505 338.358 103.895 338.358 104.458C338.358 104.983 338.166 105.374 337.782 105.63C337.398 105.879 336.886 106.004 336.246 106.004C335.549 106.004 335.011 105.844 334.633 105.524C334.262 105.204 334.077 104.801 334.077 104.314C334.077 104.282 334.093 104.266 334.125 104.266H334.931C334.969 104.266 334.989 104.282 334.989 104.314C334.989 104.564 335.104 104.772 335.334 104.938C335.565 105.105 335.869 105.188 336.246 105.188C337.046 105.188 337.446 104.945 337.446 104.458C337.446 104.401 337.437 104.346 337.417 104.295C337.405 104.244 337.379 104.199 337.341 104.161C337.302 104.122 337.264 104.09 337.225 104.065C337.193 104.033 337.142 104.007 337.072 103.988C337.008 103.962 336.957 103.943 336.918 103.93C336.88 103.918 336.819 103.905 336.736 103.892C336.653 103.879 336.595 103.87 336.563 103.863C336.531 103.857 336.473 103.85 336.39 103.844C336.307 103.831 336.259 103.825 336.246 103.825C336.041 103.799 335.878 103.78 335.757 103.767C335.641 103.748 335.488 103.716 335.296 103.671C335.11 103.626 334.96 103.572 334.845 103.508C334.736 103.444 334.621 103.364 334.499 103.268C334.384 103.166 334.297 103.041 334.24 102.894C334.189 102.746 334.163 102.577 334.163 102.385C334.163 101.982 334.342 101.642 334.701 101.367C335.059 101.092 335.529 100.954 336.112 100.954C336.733 100.954 337.238 101.102 337.629 101.396C338.025 101.684 338.224 102.1 338.224 102.644C338.224 102.676 338.211 102.692 338.185 102.692ZM341.724 105.14V105.86C341.724 105.892 341.708 105.908 341.676 105.908H340.936C340.098 105.908 339.679 105.53 339.679 104.775V101.818C339.679 101.786 339.663 101.77 339.631 101.77H338.776C338.744 101.77 338.728 101.754 338.728 101.722V101.098C338.728 101.066 338.744 101.05 338.776 101.05H339.631C339.663 101.05 339.679 101.034 339.679 101.002V99.7065C339.679 99.6745 339.695 99.6585 339.727 99.6585H340.543C340.575 99.6585 340.591 99.6745 340.591 99.7065V101.002C340.591 101.034 340.607 101.05 340.639 101.05H341.676C341.708 101.05 341.724 101.066 341.724 101.098V101.722C341.724 101.754 341.708 101.77 341.676 101.77H340.639C340.607 101.77 340.591 101.786 340.591 101.818V104.612C340.591 104.932 340.764 105.092 341.109 105.092H341.676C341.708 105.092 341.724 105.108 341.724 105.14ZM346.439 101.646C346.868 102.106 347.082 102.718 347.082 103.479C347.082 104.241 346.868 104.852 346.439 105.313C346.017 105.774 345.438 106.004 344.702 106.004C343.959 106.004 343.377 105.774 342.954 105.313C342.532 104.852 342.321 104.241 342.321 103.479C342.321 102.718 342.532 102.106 342.954 101.646C343.377 101.185 343.959 100.954 344.702 100.954C345.438 100.954 346.017 101.185 346.439 101.646ZM345.777 104.718C346.039 104.398 346.17 103.985 346.17 103.479C346.17 102.974 346.039 102.564 345.777 102.25C345.514 101.93 345.156 101.77 344.702 101.77C344.254 101.77 343.895 101.93 343.626 102.25C343.364 102.564 343.233 102.974 343.233 103.479C343.233 103.985 343.364 104.398 343.626 104.718C343.895 105.031 344.254 105.188 344.702 105.188C345.156 105.188 345.514 105.031 345.777 104.718ZM350.859 101.77H350.369C349.985 101.77 349.678 101.914 349.447 102.202C349.217 102.484 349.102 102.823 349.102 103.22V105.86C349.102 105.892 349.086 105.908 349.054 105.908H348.238C348.206 105.908 348.19 105.892 348.19 105.86V101.098C348.19 101.066 348.206 101.05 348.238 101.05H348.958C348.977 101.05 348.993 101.066 349.006 101.098L349.102 101.53C349.121 101.588 349.156 101.591 349.207 101.54C349.598 101.15 349.985 100.954 350.369 100.954H350.859C350.891 100.954 350.907 100.97 350.907 101.002V101.722C350.907 101.754 350.891 101.77 350.859 101.77ZM351.145 107.761V107.041C351.145 107.009 351.161 106.993 351.193 106.993H352.278C352.553 106.993 352.739 106.913 352.835 106.753C352.931 106.593 352.934 106.382 352.845 106.119L351.136 101.098C351.129 101.066 351.149 101.05 351.193 101.05H352.067C352.086 101.05 352.102 101.066 352.115 101.098L353.373 104.958C353.385 104.99 353.401 105.006 353.421 105.006C353.44 105.006 353.456 104.99 353.469 104.958L354.736 101.098C354.749 101.066 354.765 101.05 354.784 101.05H355.657C355.702 101.05 355.718 101.066 355.705 101.098L353.785 106.743C353.645 107.14 353.478 107.415 353.286 107.569C353.101 107.729 352.819 107.809 352.441 107.809H351.193C351.161 107.809 351.145 107.793 351.145 107.761Z" fill="#71717A"/>
</g>
<defs>
<filter id="filter0_dddd_6013_3850" x="108.843" y="27.944" width="327.12" height="53.3881" filterUnits="userSpaceOnUse" color-interpolation-filters="sRGB">
<feFlood flood-opacity="0" result="BackgroundImageFix"/>
<feColorMatrix in="SourceAlpha" type="matrix" values="0 0 0 0 0 0 0 0 0 0 0 0 0 0 0 0 0 0 127 0" result="hardAlpha"/>
<feOffset/>
<feGaussianBlur stdDeviation="0.700277"/>
<feComposite in2="hardAlpha" operator="out"/>
<feColorMatrix type="matrix" values="0 0 0 0 0 0 0 0 0 0 0 0 0 0 0 0 0 0 0.02 0"/>
<feBlend mode="normal" in2="BackgroundImageFix" result="effect1_dropShadow_6013_3850"/>
<feColorMatrix in="SourceAlpha" type="matrix" values="0 0 0 0 0 0 0 0 0 0 0 0 0 0 0 0 0 0 127 0" result="hardAlpha"/>
<feOffset dx="0.928" dy="0.928"/>
<feGaussianBlur stdDeviation="1.392"/>
<feColorMatrix type="matrix" values="0 0 0 0 0 0 0 0 0 0 0 0 0 0 0 0 0 0 0.04 0"/>
<feBlend mode="normal" in2="effect1_dropShadow_6013_3850" result="effect2_dropShadow_6013_3850"/>
<feColorMatrix in="SourceAlpha" type="matrix" values="0 0 0 0 0 0 0 0 0 0 0 0 0 0 0 0 0 0 127 0" result="hardAlpha"/>
<feOffset dx="8.816" dy="8.352"/>
<feGaussianBlur stdDeviation="3.48"/>
<feColorMatrix type="matrix" values="0 0 0 0 0 0 0 0 0 0 0 0 0 0 0 0 0 0 0.02 0"/>
<feBlend mode="normal" in2="effect2_dropShadow_6013_3850" result="effect3_dropShadow_6013_3850"/>
<feColorMatrix in="SourceAlpha" type="matrix" values="0 0 0 0 0 0 0 0 0 0 0 0 0 0 0 0 0 0 127 0" result="hardAlpha"/>
<feOffset dx="15.312" dy="14.384"/>
<feGaussianBlur stdDeviation="4.176"/>
<feColorMatrix type="matrix" values="0 0 0 0 0 0 0 0 0 0 0 0 0 0 0 0 0 0 0.01 0"/>
<feBlend mode="normal" in2="effect3_dropShadow_6013_3850" result="effect4_dropShadow_6013_3850"/>
<feBlend mode="normal" in="BackgroundImageFix" in2="effect4_dropShadow_6013_3850" result="BackgroundImageFix"/>
<feBlend mode="normal" in="SourceGraphic" in2="BackgroundImageFix" result="shape"/>
</filter>
<filter id="filter1_ddd_6013_3850" x="150.619" y="89.8801" width="97.5766" height="45.936" filterUnits="userSpaceOnUse" color-interpolation-filters="sRGB">
<feFlood flood-opacity="0" result="BackgroundImageFix"/>
<feColorMatrix in="SourceAlpha" type="matrix" values="0 0 0 0 0 0 0 0 0 0 0 0 0 0 0 0 0 0 127 0" result="hardAlpha"/>
<feOffset dx="0.928" dy="0.928"/>
<feGaussianBlur stdDeviation="1.392"/>
<feColorMatrix type="matrix" values="0 0 0 0 0 0 0 0 0 0 0 0 0 0 0 0 0 0 0.04 0"/>
<feBlend mode="normal" in2="BackgroundImageFix" result="effect1_dropShadow_6013_3850"/>
<feColorMatrix in="SourceAlpha" type="matrix" values="0 0 0 0 0 0 0 0 0 0 0 0 0 0 0 0 0 0 127 0" result="hardAlpha"/>
<feOffset dx="8.816" dy="8.352"/>
<feGaussianBlur stdDeviation="3.48"/>
<feColorMatrix type="matrix" values="0 0 0 0 0 0 0 0 0 0 0 0 0 0 0 0 0 0 0.02 0"/>
<feBlend mode="normal" in2="effect1_dropShadow_6013_3850" result="effect2_dropShadow_6013_3850"/>
<feColorMatrix in="SourceAlpha" type="matrix" values="0 0 0 0 0 0 0 0 0 0 0 0 0 0 0 0 0 0 127 0" result="hardAlpha"/>
<feOffset dx="15.312" dy="14.384"/>
<feGaussianBlur stdDeviation="4.176"/>
<feColorMatrix type="matrix" values="0 0 0 0 0 0 0 0 0 0 0 0 0 0 0 0 0 0 0.01 0"/>
<feBlend mode="normal" in2="effect2_dropShadow_6013_3850" result="effect3_dropShadow_6013_3850"/>
<feBlend mode="normal" in="BackgroundImageFix" in2="effect3_dropShadow_6013_3850" result="BackgroundImageFix"/>
<feBlend mode="normal" in="SourceGraphic" in2="BackgroundImageFix" result="shape"/>
</filter>
<filter id="filter2_ddd_6013_3850" x="231.347" y="89.8801" width="88.5766" height="45.936" filterUnits="userSpaceOnUse" color-interpolation-filters="sRGB">
<feFlood flood-opacity="0" result="BackgroundImageFix"/>
<feColorMatrix in="SourceAlpha" type="matrix" values="0 0 0 0 0 0 0 0 0 0 0 0 0 0 0 0 0 0 127 0" result="hardAlpha"/>
<feOffset dx="0.928" dy="0.928"/>
<feGaussianBlur stdDeviation="1.392"/>
<feColorMatrix type="matrix" values="0 0 0 0 0 0 0 0 0 0 0 0 0 0 0 0 0 0 0.04 0"/>
<feBlend mode="normal" in2="BackgroundImageFix" result="effect1_dropShadow_6013_3850"/>
<feColorMatrix in="SourceAlpha" type="matrix" values="0 0 0 0 0 0 0 0 0 0 0 0 0 0 0 0 0 0 127 0" result="hardAlpha"/>
<feOffset dx="8.816" dy="8.352"/>
<feGaussianBlur stdDeviation="3.48"/>
<feColorMatrix type="matrix" values="0 0 0 0 0 0 0 0 0 0 0 0 0 0 0 0 0 0 0.02 0"/>
<feBlend mode="normal" in2="effect1_dropShadow_6013_3850" result="effect2_dropShadow_6013_3850"/>
<feColorMatrix in="SourceAlpha" type="matrix" values="0 0 0 0 0 0 0 0 0 0 0 0 0 0 0 0 0 0 127 0" result="hardAlpha"/>
<feOffset dx="15.312" dy="14.384"/>
<feGaussianBlur stdDeviation="4.176"/>
<feColorMatrix type="matrix" values="0 0 0 0 0 0 0 0 0 0 0 0 0 0 0 0 0 0 0.01 0"/>
<feBlend mode="normal" in2="effect2_dropShadow_6013_3850" result="effect3_dropShadow_6013_3850"/>
<feBlend mode="normal" in="BackgroundImageFix" in2="effect3_dropShadow_6013_3850" result="BackgroundImageFix"/>
<feBlend mode="normal" in="SourceGraphic" in2="BackgroundImageFix" result="shape"/>
</filter>
<filter id="filter3_ddd_6013_3850" x="303.074" y="89.8801" width="82.5766" height="45.936" filterUnits="userSpaceOnUse" color-interpolation-filters="sRGB">
<feFlood flood-opacity="0" result="BackgroundImageFix"/>
<feColorMatrix in="SourceAlpha" type="matrix" values="0 0 0 0 0 0 0 0 0 0 0 0 0 0 0 0 0 0 127 0" result="hardAlpha"/>
<feOffset dx="0.928" dy="0.928"/>
<feGaussianBlur stdDeviation="1.392"/>
<feColorMatrix type="matrix" values="0 0 0 0 0 0 0 0 0 0 0 0 0 0 0 0 0 0 0.04 0"/>
<feBlend mode="normal" in2="BackgroundImageFix" result="effect1_dropShadow_6013_3850"/>
<feColorMatrix in="SourceAlpha" type="matrix" values="0 0 0 0 0 0 0 0 0 0 0 0 0 0 0 0 0 0 127 0" result="hardAlpha"/>
<feOffset dx="8.816" dy="8.352"/>
<feGaussianBlur stdDeviation="3.48"/>
<feColorMatrix type="matrix" values="0 0 0 0 0 0 0 0 0 0 0 0 0 0 0 0 0 0 0.02 0"/>
<feBlend mode="normal" in2="effect1_dropShadow_6013_3850" result="effect2_dropShadow_6013_3850"/>
<feColorMatrix in="SourceAlpha" type="matrix" values="0 0 0 0 0 0 0 0 0 0 0 0 0 0 0 0 0 0 127 0" result="hardAlpha"/>
<feOffset dx="15.312" dy="14.384"/>
<feGaussianBlur stdDeviation="4.176"/>
<feColorMatrix type="matrix" values="0 0 0 0 0 0 0 0 0 0 0 0 0 0 0 0 0 0 0.01 0"/>
<feBlend mode="normal" in2="effect2_dropShadow_6013_3850" result="effect3_dropShadow_6013_3850"/>
<feBlend mode="normal" in="BackgroundImageFix" in2="effect3_dropShadow_6013_3850" result="BackgroundImageFix"/>
<feBlend mode="normal" in="SourceGraphic" in2="BackgroundImageFix" result="shape"/>
</filter>
<clipPath id="clip0_6013_3850">
<rect width="8.8849" height="8.8849" fill="white" transform="translate(390.258 39.7556)"/>
</clipPath>
</defs>
</svg>
