<svg width="20" height="20" viewBox="0 0 20 20" fill="none" xmlns="http://www.w3.org/2000/svg">
<path d="M10.6243 2.29169C10.6243 1.94651 10.3445 1.66669 9.99935 1.66669C9.65417 1.66669 9.37435 1.94651 9.37435 2.29169C9.37435 4.8919 8.80046 6.62145 7.71062 7.71129C6.62078 8.80113 4.89123 9.37502 2.29102 9.37502C1.94584 9.37502 1.66602 9.65484 1.66602 10C1.66602 10.3452 1.94584 10.625 2.29102 10.625C4.89123 10.625 6.62078 11.1989 7.71062 12.2888C8.80046 13.3786 9.37435 15.1081 9.37435 17.7084C9.37435 18.0535 9.65417 18.3334 9.99935 18.3334C10.3445 18.3334 10.6243 18.0535 10.6243 17.7084C10.6243 15.1081 11.1982 13.3786 12.2881 12.2888C13.3779 11.1989 15.1075 10.625 17.7077 10.625C18.0529 10.625 18.3327 10.3452 18.3327 10C18.3327 9.65484 18.0529 9.37502 17.7077 9.37502C15.1075 9.37502 13.3779 8.80113 12.2881 7.71129C11.1982 6.62145 10.6243 4.8919 10.6243 2.29169Z" fill="#18181B" fill-opacity="0.5"/>
</svg>
