<svg width="20" height="20" viewBox="0 0 20 20" fill="none" xmlns="http://www.w3.org/2000/svg">
<path fill-rule="evenodd" clip-rule="evenodd" d="M16.5882 8.75L16.1165 5.21199C15.9095 3.65947 14.5851 2.5 13.0189 2.5H6.97981C5.41355 2.5 4.08922 3.65947 3.88222 5.21199L3.41048 8.75H2.29102C1.94584 8.75 1.66602 9.02982 1.66602 9.375C1.66602 9.72018 1.94584 10 2.29102 10H17.7077C18.0529 10 18.3327 9.72018 18.3327 9.375C18.3327 9.02982 18.0529 8.75 17.7077 8.75H16.5882ZM5.83268 12.0833C4.68209 12.0833 3.74935 13.0161 3.74935 14.1667C3.74935 15.3173 4.68209 16.25 5.83268 16.25C6.98328 16.25 7.91602 15.3173 7.91602 14.1667C7.91602 14.0139 7.89968 13.8657 7.86888 13.7233C7.66596 12.7856 6.8306 12.0833 5.83268 12.0833ZM2.49935 14.1667C2.49935 12.3257 3.99173 10.8333 5.83268 10.8333C7.1519 10.8333 8.29123 11.5993 8.83173 12.7104C9.1954 12.5744 9.58902 12.5 9.99935 12.5C10.4097 12.5 10.8033 12.5744 11.167 12.7104C11.7075 11.5993 12.8468 10.8333 14.166 10.8333C16.007 10.8333 17.4993 12.3257 17.4993 14.1667C17.4993 16.0076 16.007 17.5 14.166 17.5C12.3251 17.5 10.8327 16.0076 10.8327 14.1667C10.8327 14.0861 10.8356 14.0062 10.8412 13.9269C10.5841 13.8132 10.2996 13.75 9.99935 13.75C9.69915 13.75 9.4146 13.8132 9.1575 13.9269C9.16315 14.0062 9.16602 14.0861 9.16602 14.1667C9.16602 16.0076 7.67363 17.5 5.83268 17.5C3.99173 17.5 2.49935 16.0076 2.49935 14.1667ZM14.166 12.0833C13.1681 12.0833 12.3327 12.7856 12.1298 13.7233C12.099 13.8657 12.0827 14.0139 12.0827 14.1667C12.0827 15.3173 13.0154 16.25 14.166 16.25C15.3166 16.25 16.2493 15.3173 16.2493 14.1667C16.2493 13.0161 15.3166 12.0833 14.166 12.0833Z" fill="#18181B" fill-opacity="0.5"/>
</svg>
