<svg width="20" height="20" viewBox="0 0 20 20" fill="none" xmlns="http://www.w3.org/2000/svg">
<path d="M12.5522 16.613C12.8586 16.5319 13.183 16.6949 13.2969 16.9979C13.4182 17.3209 13.2545 17.6813 12.9315 17.8027L12.5856 17.924C11.7708 18.1898 10.9013 18.3333 9.99935 18.3333C9.09743 18.3333 8.22794 18.1898 7.41309 17.924L7.06722 17.8027L7.00863 17.7775C6.72485 17.6367 6.58809 17.3008 6.70182 16.9979C6.81572 16.6949 7.14013 16.5319 7.44645 16.613L7.50749 16.6325L7.80046 16.7358C8.49196 16.9614 9.23088 17.0833 9.99935 17.0833C10.8775 17.0833 11.7169 16.9236 12.4912 16.6325L12.5522 16.613Z" fill="#18181B" fill-opacity="0.5"/>
<path d="M9.99935 7.91667C11.1499 7.91667 12.0827 8.84941 12.0827 10C12.0827 11.1506 11.1499 12.0833 9.99935 12.0833C8.84876 12.0833 7.91602 11.1506 7.91602 10C7.91602 8.84941 8.84876 7.91667 9.99935 7.91667Z" fill="#18181B" fill-opacity="0.5"/>
<path fill-rule="evenodd" clip-rule="evenodd" d="M9.99935 5.83334C12.3005 5.83334 14.166 7.69882 14.166 10C14.166 10.9251 13.8639 11.7793 13.3538 12.4707L15.0246 14.1414L15.0677 14.1886C15.268 14.4341 15.2534 14.7964 15.0246 15.0252C14.7957 15.2541 14.4335 15.2686 14.188 15.0684L14.1408 15.0252L12.4701 13.3545C11.7787 13.8646 10.9244 14.1667 9.99935 14.1667C7.69816 14.1667 5.83268 12.3012 5.83268 10C5.83268 7.69882 7.69816 5.83334 9.99935 5.83334ZM9.99935 7.08334C8.38852 7.08334 7.08268 8.38917 7.08268 10C7.08268 11.6108 8.38852 12.9167 9.99935 12.9167C10.7872 12.9167 11.5009 12.6032 12.0257 12.0955C12.0363 12.0832 12.0458 12.0698 12.0575 12.0581C12.0691 12.0464 12.0825 12.0369 12.0949 12.0264C12.6025 11.5015 12.916 10.7878 12.916 10C12.916 8.38917 11.6102 7.08334 9.99935 7.08334Z" fill="#18181B" fill-opacity="0.5"/>
<path d="M2.19661 7.06788C2.31816 6.74493 2.67844 6.58186 3.00146 6.70329C3.32454 6.82477 3.48832 7.18505 3.36686 7.50814C3.07579 8.28249 2.91602 9.12185 2.91602 10C2.91602 10.8782 3.07579 11.7175 3.36686 12.4919C3.48832 12.815 3.32454 13.1752 3.00146 13.2967C2.67844 13.4181 2.31816 13.2551 2.19661 12.9321C1.85347 12.0193 1.66602 11.0307 1.66602 10C1.66602 8.96932 1.85347 7.98071 2.19661 7.06788Z" fill="#18181B" fill-opacity="0.5"/>
<path d="M17.8021 12.9321C17.6805 13.2551 17.3203 13.4181 16.9972 13.2967C16.6742 13.1752 16.5104 12.815 16.6318 12.4919L17.8021 12.9321Z" fill="#18181B" fill-opacity="0.5"/>
<path d="M17.8021 7.06788C18.1452 7.98071 18.3327 8.96932 18.3327 10C18.3327 11.0307 18.1452 12.0193 17.8021 12.9321L17.217 12.7116L16.6318 12.4919C16.9229 11.7175 17.0827 10.8782 17.0827 10C17.0827 9.12185 16.9229 8.28249 16.6318 7.50814L17.217 7.28842L17.8021 7.06788Z" fill="#18181B" fill-opacity="0.5"/>
<path d="M16.9972 6.70329C17.3203 6.58186 17.6805 6.74493 17.8021 7.06788L16.6318 7.50814C16.5104 7.18505 16.6742 6.82477 16.9972 6.70329Z" fill="#18181B" fill-opacity="0.5"/>
<path d="M9.99935 1.66667C10.9013 1.66667 11.7708 1.81022 12.5856 2.07601L12.9315 2.19727L12.9901 2.2225C13.2738 2.36328 13.4106 2.69922 13.2969 3.00212C13.183 3.30509 12.8586 3.46812 12.5522 3.38705L12.4912 3.36752L12.1982 3.26417C11.5067 3.03859 10.7678 2.91667 9.99935 2.91667C9.12119 2.91667 8.28183 3.07644 7.50749 3.36752L7.44645 3.38705C7.14013 3.46812 6.81572 3.30509 6.70182 3.00212C6.58053 2.67909 6.74421 2.31872 7.06722 2.19727L7.41309 2.07601C8.22794 1.81022 9.09743 1.66667 9.99935 1.66667Z" fill="#18181B" fill-opacity="0.5"/>
</svg>
