<svg width="20" height="20" viewBox="0 0 20 20" fill="none" xmlns="http://www.w3.org/2000/svg">
<path fill-rule="evenodd" clip-rule="evenodd" d="M4.79102 1.66667C3.06513 1.66667 1.66602 3.06578 1.66602 4.79167V11.875C1.66602 13.6009 3.06513 15 4.79102 15H4.99935V15.5614C4.99935 17.0923 6.24036 18.3333 7.77124 18.3333H15.5608C17.0917 18.3333 18.3327 17.0923 18.3327 15.5614V8.125C18.3327 6.39911 16.9336 5 15.2077 5H14.9993V4.79167C14.9993 3.06578 13.6002 1.66667 11.8743 1.66667H4.79102ZM8.12435 5H13.7493V4.79167C13.7493 3.75613 12.9099 2.91667 11.8743 2.91667H4.79102C3.75548 2.91667 2.91602 3.75613 2.91602 4.79167V11.875C2.91602 12.9105 3.75548 13.75 4.79102 13.75H4.99935V8.125C4.99935 6.39911 6.39846 5 8.12435 5ZM11.666 13.75C9.94474 13.75 8.45114 14.8846 7.70723 16.5464C7.59127 16.8054 7.79157 17.0833 8.07537 17.0833H15.2567C15.5405 17.0833 15.7408 16.8054 15.6248 16.5464C14.8809 14.8846 13.3873 13.75 11.666 13.75ZM11.666 12.5C12.8166 12.5 13.7493 11.5673 13.7493 10.4167C13.7493 9.26607 12.8166 8.33333 11.666 8.33333C10.5154 8.33333 9.58268 9.26607 9.58268 10.4167C9.58268 11.5673 10.5154 12.5 11.666 12.5Z" fill="#18181B" fill-opacity="0.5"/>
</svg>
