<svg width="124" height="32" viewBox="0 0 124 32" fill="none" xmlns="http://www.w3.org/2000/svg">
<path d="M73.4182 5.71784C73.1616 5.1621 72.7769 4.73484 72.0933 4.56371V4.26465C72.5205 4.26465 73.8884 4.30729 74.2304 4.30729C74.5297 4.30729 75.7694 4.26465 76.1967 4.26465V4.60635C75.8121 4.69191 75.3848 4.90569 75.3848 5.29031C75.3848 5.58964 75.5557 5.93161 75.8976 6.65821L78.9749 13.6251L81.8813 6.65821C82.095 6.10247 82.2659 5.6752 82.2659 5.33323C82.2659 4.94861 81.9242 4.69192 81.454 4.60663V4.26492C81.8386 4.26492 82.7787 4.30757 83.0781 4.30757C83.3347 4.30757 84.4459 4.26492 84.8732 4.26492V4.60663C84.1466 4.8204 83.7191 5.20502 83.2915 6.14538L79.0175 16.1898H78.1201L73.4182 5.71784Z" fill="black"/>
<path d="M32.1287 15.7625C32.6844 15.6343 33.0691 15.3779 33.0691 14.7366V5.58964C33.0691 4.99125 32.6844 4.73484 32.1287 4.56371V4.22201C32.428 4.22201 33.6674 4.26466 33.9668 4.26466C34.3088 4.26466 35.6337 4.22201 35.9328 4.22201V4.56371C35.3771 4.69192 34.9498 4.94833 34.9498 5.58964V9.43639H41.7888V5.58964C41.7888 4.9486 41.4468 4.69192 40.8484 4.56371V4.22201C41.1477 4.22201 42.4298 4.26466 42.8147 4.26466C43.1138 4.26466 44.3961 4.22201 44.6954 4.22201V4.56371C44.1397 4.69192 43.7124 4.94833 43.7124 5.58964V14.7793C43.7124 15.3776 44.097 15.6343 44.6954 15.8052V16.1045C44.3964 16.1045 43.114 16.0619 42.8147 16.0619C42.4727 16.0619 41.1477 16.1045 40.8484 16.1045V15.8052C41.4039 15.677 41.7888 15.4206 41.7888 14.7793V10.4194H34.9495V14.7793C34.9495 15.4203 35.3341 15.6343 35.9325 15.8052V16.1045C35.6332 16.1045 34.3082 16.0619 33.9665 16.0619C33.6672 16.0619 32.3851 16.1045 32.1284 16.1045V15.7625H32.1287ZM46.5756 15.7625C47.3022 15.5914 47.7297 15.1212 48.0288 14.4376L51.8329 5.33323C52.0038 4.94861 52.1749 4.17909 52.1749 4.17909H53.2435C53.2435 4.17909 53.4146 4.94833 53.5854 5.33323L57.6033 14.4802C57.9026 15.1212 58.2017 15.5488 59.0139 15.7625V16.0616C58.5863 16.0616 57.2187 16.019 56.9194 16.019C56.62 16.019 55.338 16.0616 54.9104 16.0616V15.7625C55.5088 15.6343 55.6799 15.335 55.6799 15.0359C55.6799 14.7795 55.5944 14.5231 55.4662 14.2238L54.6114 12.3004H50.1659L49.3967 14.2664C49.3111 14.4802 49.1829 14.8222 49.1829 15.0357C49.1829 15.3776 49.3541 15.6343 50.038 15.8052V16.1045C49.6531 16.1045 48.6275 16.0619 48.3711 16.0619L46.6614 16.1045L46.5756 15.7625ZM54.1412 11.36L52.2605 6.95754L50.5079 11.36H54.1412ZM46.5756 15.7625C47.3022 15.5914 47.7297 15.1212 48.0288 14.4376L51.8329 5.33323C52.0038 4.94861 52.1749 4.17909 52.1749 4.17909H53.2435C53.2435 4.17909 53.4146 4.94833 53.5854 5.33323L57.6033 14.4802C57.9026 15.1212 58.2017 15.5488 59.0139 15.7625V16.0616C58.5863 16.0616 57.2187 16.019 56.9194 16.019C56.62 16.019 55.338 16.0616 54.9104 16.0616V15.7625C55.5088 15.6343 55.6799 15.335 55.6799 15.0359C55.6799 14.7795 55.5944 14.5231 55.4662 14.2238L54.6114 12.3004H50.1659L49.3967 14.2664C49.3111 14.4802 49.1829 14.8222 49.1829 15.0357C49.1829 15.3776 49.3541 15.6343 50.038 15.8052V16.1045C49.6531 16.1045 48.6275 16.0619 48.3711 16.0619L46.6614 16.1045L46.5756 15.7625ZM54.1412 11.36L52.2605 6.95754L50.5079 11.36H54.1412ZM84.1462 15.7625C84.8728 15.5914 85.3004 15.1212 85.5568 14.4376L89.3609 5.33323C89.532 4.94861 89.7026 4.17909 89.7026 4.17909H90.7714C90.7714 4.17909 90.9426 4.94833 91.1131 5.33323L95.131 14.4802C95.4301 15.1212 95.7294 15.5488 96.5415 15.7625V16.0616C96.114 16.0616 94.7464 16.019 94.4471 16.019C94.148 16.019 92.8656 16.0616 92.4384 16.0616V15.7625C93.0368 15.6343 93.2076 15.335 93.2076 15.0359C93.2076 14.7795 93.1223 14.5231 92.9941 14.2238L92.1391 12.3004H87.6939L86.9244 14.2664C86.8391 14.4802 86.7109 14.8222 86.7109 15.0357C86.7109 15.3776 86.882 15.6343 87.5231 15.8052V16.1045C87.1382 16.1045 86.1125 16.0619 85.8987 16.0619L84.1462 16.1045V15.7625ZM91.6691 11.36L89.7884 6.95754L88.0362 11.36H91.6691ZM111.502 15.7625C112.228 15.6343 112.613 15.335 112.613 14.694V5.58991C112.613 4.94888 112.228 4.6922 111.544 4.56399V4.22229C111.929 4.22229 113.254 4.26492 113.596 4.26492C114.194 4.26492 115.818 4.13672 117.058 4.13672C121.29 4.13672 123.811 6.48764 123.811 10.078C123.811 13.5401 121.161 16.1474 116.802 16.1474C115.562 16.1474 114.023 16.0619 113.467 16.0619C113.126 16.0619 111.886 16.1045 111.501 16.1045L111.502 15.7625ZM114.536 15.1641C114.964 15.2494 115.776 15.2924 116.374 15.2924C119.922 15.2924 121.76 13.1552 121.76 10.2059C121.76 7.12839 119.837 4.9486 116.503 4.9486C115.819 4.9486 114.964 4.99125 114.537 5.07681V15.1641H114.536Z" fill="black"/>
<path d="M63.7167 14.6928C63.7167 15.2915 64.1016 15.6332 64.8281 15.8043V16.1463C64.4433 16.1463 63.1609 16.1036 62.7763 16.1036C62.4772 16.1036 61.1949 16.1463 60.81 16.1463V15.8043C61.4513 15.6761 61.8786 15.3341 61.8786 14.6928V5.58877C61.8786 5.03303 61.5792 4.69105 60.81 4.56285V4.22114C61.1949 4.22114 62.4343 4.26378 62.8189 4.26378C63.4173 4.26378 65.0414 4.17822 65.6827 4.17822C68.5038 4.17822 70.0852 5.33236 70.0852 7.34102C70.0852 8.92242 68.8887 9.99099 67.0932 10.4185C67.0932 10.4185 67.5208 10.6749 67.9054 11.1451C68.4182 11.7435 69.8288 13.7095 70.3845 14.3935C70.9403 15.0774 71.6669 15.847 72.4361 15.8896V16.1463C72.0515 16.2316 71.4957 16.2745 71.0258 16.2745C70.0428 16.2745 69.2733 15.9325 68.5467 15.0348C67.9054 14.2656 66.7515 12.5986 66.0676 11.7438C65.6403 11.231 65.1701 10.8034 64.2295 10.6752C64.0586 10.6326 63.8878 10.6326 63.674 10.5899V14.6931H63.7167V14.6928ZM63.7167 9.86306C64.1015 9.9057 64.657 9.94835 65.2128 9.94835C67.4355 9.94835 68.1191 8.66601 68.1191 7.55479C68.1191 5.97339 67.0506 4.94746 65.1272 4.94746C64.7426 4.94746 64.1442 4.99011 63.7596 5.07567V9.86279L63.7167 9.86306Z" fill="black"/>
<path d="M101.074 14.6928C101.074 15.2915 101.458 15.6332 102.185 15.8043V16.1463C101.8 16.1463 100.518 16.1036 100.133 16.1036C99.8338 16.1036 98.5515 16.1463 98.1669 16.1463V15.8043C98.8082 15.6761 99.2354 15.3341 99.2354 14.6928V5.58877C99.2354 5.03303 98.9364 4.69105 98.2098 4.56285V4.22114C98.5944 4.22114 99.8338 4.26378 100.218 4.26378C100.817 4.26378 102.441 4.17822 103.082 4.17822C105.903 4.17822 107.485 5.33236 107.485 7.34102C107.485 8.92242 106.288 9.99099 104.493 10.4185C104.493 10.4185 104.92 10.6749 105.305 11.1451C105.818 11.7435 107.186 13.7095 107.741 14.3935C108.297 15.0774 109.024 15.847 109.793 15.8896V16.1463C109.408 16.2316 108.853 16.2745 108.383 16.2745C107.4 16.2745 106.63 15.9325 105.904 15.0348C105.263 14.2656 104.151 12.5986 103.51 11.7438C103.083 11.231 102.613 10.8034 101.672 10.6752C101.501 10.6326 101.33 10.6326 101.116 10.5899V14.6931H101.074V14.6928ZM101.074 9.86306C101.458 9.9057 102.014 9.94835 102.569 9.94835C104.792 9.94835 105.476 8.66601 105.476 7.55479C105.476 5.97339 104.407 4.94746 102.484 4.94746C102.099 4.94746 101.501 4.99011 101.116 5.07567V9.86279L101.074 9.86306Z" fill="black"/>
<path d="M82.4387 26.2764H82.6098C82.6954 26.6184 82.9089 26.9177 83.1656 27.1312C83.4646 27.345 83.8922 27.4303 84.2768 27.4303C85.089 27.4303 85.6018 27.0457 85.6018 26.4044C85.6018 25.7633 84.9608 25.464 84.1912 25.0794C83.5929 24.7803 82.4387 24.3528 82.4387 23.1987C82.4387 22.1727 83.2509 21.4888 84.4906 21.4888C85.3025 21.4888 85.73 21.7025 86.2855 21.6596V22.899H86.072C85.8582 22.1724 85.1745 21.916 84.4479 21.916C83.6358 21.916 83.2935 22.3862 83.2935 22.8564C83.2935 23.5401 84.063 23.925 84.747 24.267C85.6021 24.6516 86.4995 25.0791 86.4995 26.1477C86.4995 27.1733 85.73 27.8573 84.2768 27.8573C83.4217 27.8573 82.9089 27.6435 82.4387 27.558V26.2764Z" fill="#631627"/>
<path d="M95.3475 27.5594C95.6466 27.4741 95.8177 27.3457 95.8177 27.0466V22.3021C95.8177 22.0028 95.6466 21.8749 95.3475 21.7893V21.6182C95.4757 21.6182 96.1597 21.6608 96.3305 21.6608C96.5017 21.6608 97.1856 21.6182 97.3562 21.6182V21.7893C97.0571 21.8749 96.8434 22.0031 96.8434 22.3021V24.2684H100.348V22.3021C100.348 21.9601 100.177 21.8319 99.878 21.7893V21.6182C100.049 21.6182 100.69 21.6608 100.904 21.6608C101.075 21.6608 101.715 21.6182 101.887 21.6182V21.7893C101.588 21.8749 101.374 22.0031 101.374 22.3021V27.0466C101.374 27.3459 101.588 27.4741 101.887 27.5594V27.7303C101.759 27.7303 101.075 27.7303 100.904 27.7303C100.733 27.7303 100.049 27.7303 99.878 27.7303V27.5594C100.177 27.4741 100.348 27.3457 100.348 27.0466V24.7812H96.8434V27.0037C96.8434 27.3457 97.0571 27.4312 97.3562 27.5165V27.6876C97.2283 27.6876 96.5014 27.6876 96.3305 27.6876C96.1597 27.6876 95.5187 27.6876 95.3475 27.6876V27.5594Z" fill="#631627"/>
<path d="M93.637 26.1906L93.5514 27.5582C93.0809 27.5156 92.4402 27.8576 91.3716 27.8576C89.1062 27.8576 88.0803 26.4899 88.0803 24.6945C88.0803 22.8138 89.4053 21.4888 91.329 21.4888C92.2693 21.4888 92.8677 21.8307 93.4661 21.7878L93.5088 23.1555H93.3376C92.9959 22.3433 92.1835 21.9587 91.329 21.9587C89.9184 21.9587 89.1489 23.1984 89.1489 24.6942C89.1489 25.9339 89.7476 27.4298 91.4572 27.4298C92.3975 27.4298 93.1241 27.0878 93.4232 26.1903L93.637 26.1906Z" fill="#631627"/>
<path d="M103.383 24.6945C103.383 22.942 104.623 21.4888 106.546 21.4888C108.469 21.4888 109.709 22.942 109.709 24.6945C109.709 26.447 108.469 27.8576 106.546 27.8576C104.58 27.8576 103.383 26.447 103.383 24.6945ZM108.597 24.6945C108.597 23.2839 107.956 21.9163 106.546 21.9163C105.092 21.9163 104.451 23.2413 104.451 24.6945C104.451 26.105 105.092 27.43 106.546 27.43C107.956 27.43 108.597 26.105 108.597 24.6945Z" fill="#631627"/>
<path d="M111.076 24.6945C111.076 22.942 112.315 21.4888 114.238 21.4888C116.162 21.4888 117.401 22.942 117.401 24.6945C117.401 26.447 116.162 27.8576 114.238 27.8576C112.272 27.8576 111.076 26.447 111.076 24.6945ZM116.29 24.6945C116.29 23.2839 115.649 21.9163 114.238 21.9163C112.785 21.9163 112.144 23.2413 112.144 24.6945C112.144 26.105 112.785 27.43 114.238 27.43C115.649 27.43 116.29 26.105 116.29 24.6945Z" fill="#631627"/>
<path d="M41.7053 21.617H45.5521C45.6803 21.617 45.8941 21.617 45.9794 21.5317H46.1502L46.1076 22.7714H45.9367C45.8085 22.3868 45.5947 22.0875 44.8255 22.0875H43.2012V24.3099C43.2012 24.3099 44.4406 24.3099 44.5262 24.3099C44.697 24.3099 44.9534 24.3099 45.039 24.2673C45.3383 24.2246 45.4663 24.0535 45.5092 23.7971H45.68C45.68 23.9679 45.68 24.3955 45.68 24.5237C45.68 24.6519 45.68 25.0794 45.68 25.2932H45.5092C45.4236 25.0365 45.2954 24.8657 45.039 24.7804C44.9534 24.7377 44.697 24.7377 44.5262 24.7377C44.4406 24.7377 43.2012 24.7377 43.2012 24.7377V27.2168H45.039C45.8082 27.2168 46.0649 26.8749 46.2358 26.405L46.4066 26.4476L46.2358 27.7297C45.6374 27.687 45.2954 27.687 44.6544 27.687H42.6881C42.5172 27.687 41.8333 27.7297 41.6195 27.7297V27.5588C41.9615 27.4735 42.1752 27.345 42.1752 27.0031V22.3013C42.1752 22.0019 42.0044 21.8311 41.6195 21.7455V21.6173H41.7053V21.617Z" fill="#631627"/>
<path d="M56.4088 22.3436C56.4088 22.0442 56.238 21.8734 55.8531 21.7878V21.6167C56.0669 21.6167 56.7505 21.6593 56.9217 21.6593C57.0928 21.6593 57.7765 21.6167 57.9902 21.6167V21.7878C57.6053 21.8734 57.4345 22.0016 57.4345 22.3436V27.0025C57.4345 27.3018 57.6053 27.4727 57.9902 27.5582V27.7291C57.7765 27.7291 57.1354 27.6864 56.9217 27.6864C56.7508 27.6864 56.0669 27.7291 55.8531 27.7291V27.5582C56.2377 27.4729 56.4088 27.3445 56.4088 27.0025V22.3436Z" fill="#631627"/>
<path d="M65.8532 27.5594C66.2378 27.4741 66.4516 27.2174 66.5795 26.8754L68.5458 22.1736C68.6314 21.9598 68.7169 21.5752 68.7169 21.5752H69.2727C69.2727 21.5752 69.3583 21.9598 69.4435 22.1736L71.4954 26.8754C71.6236 27.2174 71.7945 27.4312 72.222 27.5594V27.7302C72.0082 27.7302 71.2816 27.7302 71.1532 27.7302C70.9823 27.7302 70.3413 27.7302 70.1275 27.7302V27.5594C70.4268 27.4741 70.5124 27.3456 70.5124 27.1747C70.5124 27.0465 70.4697 26.9183 70.3842 26.7475L69.9569 25.7645H67.6916L67.3067 26.7901C67.2643 26.9183 67.2211 27.0895 67.2211 27.1747C67.2211 27.3459 67.3067 27.4741 67.6487 27.5594V27.7302C67.4349 27.7302 66.9221 27.7302 66.7936 27.7302H65.8961L65.8532 27.5594ZM69.7855 25.2514L68.8025 22.986L67.9048 25.2514H69.7855Z" fill="#631627"/>
<path d="M65.0418 26.1906L64.9562 27.5582C64.4861 27.5156 63.845 27.8576 62.7765 27.8576C60.5111 27.8576 59.4852 26.4899 59.4852 24.6945C59.4852 22.8138 60.8102 21.4888 62.7335 21.4888C63.6742 21.4888 64.2726 21.8307 64.8707 21.7878L64.9136 23.1555H64.7425C64.4008 22.3433 63.5883 21.9587 62.7335 21.9587C61.323 21.9587 60.5537 23.1984 60.5537 24.6942C60.5537 25.9339 61.1521 27.4298 62.8617 27.4298C63.8021 27.4298 64.5287 27.0878 64.828 26.1903L65.0418 26.1906Z" fill="#631627"/>
<path d="M78.0353 26.447C77.8215 26.9172 77.608 27.2592 76.8385 27.2592H74.9578V22.3436C74.9578 22.0016 75.1289 21.8734 75.5135 21.7878V21.6167C75.2998 21.6167 74.6161 21.6593 74.445 21.6593C74.2739 21.6593 73.5899 21.6167 73.3764 21.6167V21.7878C73.761 21.8734 73.9322 22.0442 73.9322 22.3436V27.0025C73.9322 27.3445 73.761 27.5153 73.3764 27.5582V27.7291C73.5899 27.7291 74.2739 27.6864 74.445 27.6864H76.4113C77.0523 27.6864 77.4369 27.6864 77.9927 27.7291L78.1638 26.447H78.0353Z" fill="#631627"/>
<path d="M123.426 26.447C123.213 26.9172 122.999 27.2592 122.23 27.2592H120.392V22.3436C120.392 22.0016 120.563 21.8734 120.948 21.7878V21.6167C120.734 21.6167 120.05 21.6593 119.879 21.6593C119.708 21.6593 119.024 21.6167 118.81 21.6167V21.7878C119.195 21.8734 119.366 22.0442 119.366 22.3436V27.0025C119.366 27.3445 119.195 27.5153 118.81 27.5582V27.7291C119.024 27.7291 119.708 27.6864 119.879 27.6864H121.845C122.486 27.6864 122.871 27.6864 123.426 27.7291L123.598 26.447H123.426Z" fill="#631627"/>
<path d="M48.1155 27.5594C48.5002 27.4741 48.6713 27.3456 48.6713 27.0036V22.3018C48.6713 21.9598 48.4575 21.8316 48.1155 21.789V21.6178C48.3293 21.6178 49.013 21.6605 49.1841 21.6605C49.4834 21.6605 50.2953 21.5752 50.9366 21.5752C53.1164 21.5752 54.4414 22.772 54.4414 24.6527C54.4414 26.4479 53.0735 27.7731 50.8511 27.7731C50.21 27.7731 49.4834 27.7302 49.1841 27.7302C49.0133 27.7302 48.3722 27.7731 48.1582 27.7731V27.5594H48.1155ZM49.6543 27.2603C49.8681 27.303 50.2527 27.303 50.552 27.303C52.3898 27.303 53.3302 26.2773 53.3302 24.653C53.3302 23.0716 52.3472 21.9601 50.6373 21.9601C50.2953 21.9601 49.9107 22.0027 49.6543 22.0457V27.2603Z" fill="#631627"/>
<path d="M39.4399 26.8743L39.1405 22.3436C39.0979 22.0442 39.2688 21.8734 39.6107 21.7878V21.6167C39.3543 21.6167 38.9697 21.6167 38.7986 21.6167C38.6704 21.6167 38.371 21.6167 38.1573 21.6167L36.1483 26.3185L34.1394 21.6167C33.9256 21.6167 33.6266 21.6167 33.4554 21.6167C33.3272 21.6167 32.857 21.6167 32.6006 21.6167V21.7878C32.9426 21.8305 33.1135 22.0442 33.1135 22.3436L32.7715 26.8743C32.7288 27.2163 32.5577 27.4727 32.1731 27.6009V27.772H33.0279C33.1561 27.772 33.6689 27.772 33.8827 27.772V27.6009C33.4552 27.4727 33.3699 27.2592 33.3699 26.9598L33.6263 22.942L35.7208 27.772H36.0628L38.157 22.942L38.4134 27.0025C38.4134 27.2592 38.3278 27.5153 37.9006 27.6435V27.8144C38.1143 27.8144 38.8409 27.8144 38.9691 27.8144H40.0377V27.6435C39.6536 27.4729 39.4825 27.2592 39.4399 26.8743Z" fill="#631627"/>
<path d="M13.5802 0.630859H0.842878L0.800232 10.8035C0.800232 23.2844 13.3238 31.2343 13.452 31.3199L13.4946 31.3625C13.5373 31.3625 13.6228 31.3199 13.6228 31.3199C15.76 29.9093 26.3601 22.3867 26.3601 10.889V0.673505C26.3175 0.630861 13.5802 0.630859 13.5802 0.630859ZM26.2748 9.64962H1.05692V8.19643H26.2748V9.64962Z" fill="#631627"/>
<path d="M5.11777 1.86989C5.97258 1.52791 6.91295 1.78433 7.85331 1.69876C8.10973 1.74141 8.4517 1.57056 8.62283 1.82697C8.62283 2.08338 8.62283 2.3398 8.62283 2.63913C8.70839 2.8529 9.00744 2.72469 9.13565 2.81026C9.22121 2.8529 9.3065 2.89555 9.34942 3.02403C9.39207 3.15224 9.34942 3.28044 9.30677 3.40865C9.13592 3.5795 8.92215 3.53685 8.66574 3.5795L8.58018 3.66506C8.62283 4.17789 8.49462 4.60542 8.58018 5.0756C8.58018 5.16089 8.53726 5.33202 8.66574 5.37494C8.92215 5.37494 9.13592 5.37494 9.30677 5.54579C9.39234 5.674 9.39234 5.80221 9.34942 5.97333C9.26386 6.48616 8.4517 5.88776 8.53726 6.48615C8.53726 6.69992 8.58018 6.99899 8.49461 7.21276C7.55425 7.21276 6.61388 7.12719 5.75908 7.21276C5.58823 7.34096 5.41711 7.42652 5.16069 7.46917C4.98984 7.42652 4.81872 7.34096 4.69051 7.21276C3.83571 7.17011 3.02355 7.17011 2.21139 7.17011C1.95498 6.95634 2.12583 6.57172 2.04054 6.27239C1.91233 6.10154 1.69856 6.22975 1.52771 6.14418C1.3995 6.14418 1.35686 6.01597 1.31394 5.93041C1.31394 5.75929 1.31394 5.58844 1.44215 5.46023C1.57036 5.37494 1.78412 5.37494 1.95497 5.37494L2.04054 5.28938C1.99789 4.73363 2.1261 4.17816 1.99789 3.57977C1.91233 3.45156 1.74148 3.57977 1.65591 3.49421C1.52771 3.45157 1.35659 3.366 1.31394 3.19515C1.2713 3.06694 1.2713 2.93874 1.3995 2.81053C1.57035 2.59676 1.91233 2.85317 2.08345 2.63941L2.16902 1.82724C2.29723 1.57083 2.59655 1.69904 2.85297 1.69904C3.2805 1.61375 3.79334 1.69904 4.2206 1.69904C4.56203 1.69904 4.86136 1.7846 5.11777 1.86989Z" fill="#631627"/>
<path d="M6.27093 10.8037L6.22828 10.9746C6.22828 11.0601 6.14272 11.1457 6.05743 11.1028L5.71545 11.0601C5.58725 11.0175 5.45904 10.9746 5.33084 11.0175C5.28819 11.0601 5.20263 11.103 5.11707 11.1883C5.15971 11.1883 5.15971 11.2312 5.15971 11.2312C5.24527 11.2739 5.41613 11.3165 5.45904 11.5303C5.45904 11.7012 5.54461 11.8296 5.62989 11.9149L5.67254 12.0005C5.71519 12.0431 5.71518 12.086 5.71518 12.1287C5.71518 12.1713 5.71519 12.1713 5.67254 12.2143L5.50169 12.428L5.41612 12.5133C5.41612 12.5133 5.33056 12.7271 5.28792 12.8124C5.33056 12.8979 5.37348 12.9406 5.41612 12.9406C5.58697 12.8979 5.71545 12.9406 5.84366 12.9406L6.10008 12.9832H6.14272H6.22828C6.31385 12.9832 6.4847 12.9406 6.61291 13.0259C6.61291 13.0259 6.74111 13.2396 6.74111 13.2826C6.78376 13.3678 6.78376 13.4108 6.78376 13.4963C6.78376 13.5819 6.78376 13.6672 6.74111 13.7527L6.69847 13.8809C6.69847 13.9236 6.69846 13.9665 6.65582 13.9665C6.44205 14.3085 6.14299 14.5649 5.7581 14.7357C5.80074 14.7357 5.80075 14.7357 5.80075 14.7357C5.80075 14.7357 5.80075 14.7357 5.80075 14.7784C5.84339 14.821 5.9716 14.821 6.0998 14.7784H6.18536C6.35621 14.7784 6.48469 14.7357 6.65554 14.6502L7.12573 14.522C7.21129 14.4793 7.25394 14.5646 7.29658 14.6075C7.38214 14.7784 7.51035 14.9066 7.59564 14.9922C7.59564 14.9922 7.59564 14.9922 7.6812 14.9066C7.76677 14.8213 7.93762 14.6928 8.15139 14.7784C8.15139 14.7784 8.19403 14.7784 8.19403 14.821C8.36488 14.9492 8.4078 15.1204 8.45044 15.2483C8.49309 15.3339 8.49309 15.4621 8.57865 15.505C8.62129 15.5476 8.62129 15.5903 8.62129 15.5903V15.6332C8.62129 15.804 8.45044 15.8896 8.40752 15.8896H8.36488L8.32224 15.9323L7.93761 16.0178C7.80941 16.0178 7.6812 16.0605 7.59564 16.1034C7.59564 16.1034 7.59564 16.146 7.63828 16.146C7.80913 16.2313 8.06582 16.2742 8.32224 16.3169L8.45044 16.3595H8.74978H9.2626C9.34817 16.3595 9.34817 16.4022 9.39081 16.4451C9.43373 16.4877 9.39081 16.5733 9.34816 16.6159L9.2626 16.7441L9.21996 16.7871L8.4078 17.3428C8.36515 17.3428 7.93761 17.5137 7.93761 17.5137L7.29658 17.7701H7.25367C6.86905 17.8556 6.65527 17.6419 6.44151 17.5137C6.3133 17.3854 6.18509 17.2999 6.01397 17.2999C5.88576 17.2999 5.75755 17.3425 5.67199 17.4281C5.62935 17.4707 5.62934 17.5136 5.62934 17.5989C5.62934 17.6419 5.62934 17.6419 5.62934 17.6845H5.67199C5.75755 17.7272 5.9284 17.7701 5.9284 17.9838C5.9284 18.2829 5.8002 18.4967 5.67199 18.7104C5.58643 18.8813 5.45822 19.0951 5.45822 19.2662V19.3088C5.45822 19.3517 5.45822 19.3944 5.50086 19.3944H5.54378H5.58643L5.62907 19.3088C5.67171 19.2235 5.75728 19.0951 5.92813 19.0524H5.97105C6.31302 19.0951 6.48387 19.0524 6.61208 18.9242C6.65473 18.8816 6.69765 18.8816 6.69765 18.8816C6.78294 18.8816 6.91142 18.8816 6.99671 18.9669C7.08227 19.0524 7.12491 19.138 7.12491 19.2235C7.12491 19.2235 7.12491 19.2662 7.12491 19.3088C7.33868 19.2662 7.46689 19.0951 7.63774 18.8389L7.7233 18.7107C7.76594 18.6681 7.80886 18.6251 7.8515 18.6251L7.97972 18.5825C8.15057 18.5399 8.32169 18.4543 8.53518 18.5825C8.5781 18.6251 8.62074 18.6681 8.62074 18.7107C8.62074 18.7534 8.62074 18.796 8.62074 18.8389C8.62074 19.0098 8.53518 19.138 8.49254 19.2662C8.49254 19.2662 8.44989 19.3517 8.44989 19.437C8.74922 19.3517 9.00564 19.0951 9.21941 18.796L9.34762 18.6251C9.39027 18.5396 9.47582 18.3258 9.73224 18.3258H9.77488C9.90309 18.3685 9.94573 18.3258 10.0739 18.112L10.3304 17.8556C10.373 17.813 10.373 17.813 10.4586 17.813H10.5441C10.5868 17.813 10.6297 17.813 10.6723 17.8556C10.715 17.8983 10.715 17.8983 10.715 17.9409V18.1976C10.7579 18.1976 10.8858 18.112 10.9714 18.112L11.3134 17.8983C11.356 17.8556 11.3989 17.8556 11.4842 17.8983L12.7666 18.2402C13.023 18.3258 13.0659 18.4969 13.0659 18.6678C13.0659 18.7104 13.0659 18.796 13.0659 18.796C13.0659 18.8389 13.0659 18.8816 13.0659 18.9242C13.0659 18.9668 13.0659 18.9668 13.1085 19.0098C13.1512 19.0524 13.1512 19.0951 13.1512 19.138C13.1512 19.1806 13.1512 19.1806 13.1512 19.2235C13.1085 19.3517 12.9803 19.4802 12.6384 19.4802L11.9973 19.5229C11.4845 19.5229 10.9717 19.5229 10.5868 19.8648L10.2448 20.2068C10.2021 20.2495 10.1592 20.2495 10.1166 20.2495C9.86017 20.2495 9.68904 20.3777 9.47528 20.5061C9.30442 20.6344 9.09066 20.7626 8.83424 20.8052C8.66339 20.8908 8.44962 20.8908 8.2785 20.8908C8.10737 20.8908 8.02209 20.8908 7.97944 20.9334C8.15029 21.1472 8.44962 21.2325 8.74868 21.318C8.79133 21.318 8.91953 21.361 8.91953 21.361C9.04774 21.361 9.26151 21.361 9.34707 21.5747C9.34707 21.5747 9.34707 21.6174 9.34707 21.66C9.34707 21.8311 9.38971 21.9167 9.47528 21.9167H9.51792C9.56057 21.8741 9.73169 21.7885 9.94546 21.9167C9.9881 21.9594 10.2445 22.2158 10.2445 22.2158L10.5865 22.5577C10.6291 22.6004 10.6291 22.6857 10.5865 22.7286C10.4583 22.985 10.159 22.9423 9.98811 22.9423H9.8599H9.68905C9.43263 22.985 9.04802 23.0706 8.79133 22.7286L8.83397 22.7712L8.44935 22.643C8.23558 22.4722 8.06473 22.301 7.80832 22.301C7.5519 22.3866 7.42369 22.4722 7.42369 22.6001L7.46634 22.6854L7.59454 22.8136C7.63719 22.8565 7.63719 22.8992 7.63719 22.8992C7.63719 22.8992 7.63719 22.8992 7.63719 22.9418C7.63719 22.9845 7.59455 23.0274 7.55163 23.07C7.33786 23.1982 7.08145 23.412 7.08145 23.6684C7.08145 23.7113 7.08145 23.754 7.08145 23.754C7.08145 23.754 7.08145 23.754 7.08145 23.7966C7.12409 23.7966 7.16701 23.754 7.16701 23.754C7.25257 23.7113 7.42342 23.6684 7.59454 23.754C7.63719 23.7966 7.68011 23.8395 7.68011 23.8822V24.0959C7.68011 24.3097 7.72303 24.3953 7.76567 24.4806C7.80831 24.4806 7.85124 24.4379 7.85124 24.4379C7.97944 24.3524 8.23586 24.2671 8.49227 24.4379C8.53492 24.4379 8.62048 24.4379 8.74868 24.3524L9.00509 24.2241C9.04774 24.2241 9.04774 24.2241 9.04774 24.2241C9.47528 24.2241 9.68877 24.6088 9.77433 24.8652C9.9881 25.036 10.159 25.1219 10.2872 25.079V25.036C10.2872 24.9934 10.2872 24.9507 10.2872 24.8652C10.2872 24.8225 10.2445 24.737 10.2445 24.6514C10.2445 24.4806 10.2872 24.3094 10.5438 24.2241C10.5865 24.2241 10.9714 24.1812 10.9714 24.1812H11.2278H11.2704C11.6551 24.2242 11.9544 24.2241 12.0826 23.9675C12.0826 23.9675 12.3819 23.4973 12.4246 23.412C12.4246 23.3693 12.4675 23.1127 12.4675 23.1127C12.4675 23.0274 12.5101 22.9844 12.5957 22.9844C12.7239 22.9418 12.895 22.9844 12.9803 23.0271C12.9803 23.0271 13.023 23.0271 13.0659 23.0697C12.9803 22.856 12.9377 22.6422 12.9377 22.4284C12.9377 22.3002 12.9377 22.2147 12.9803 22.0865C13.0659 21.7871 13.1941 21.5307 13.3649 21.3169C13.4076 21.2743 13.4932 21.2317 13.5787 21.2743L13.6643 21.3169C13.7069 21.3599 13.7498 21.4025 13.7925 21.4451L13.8781 21.8727C13.9207 22.1291 13.9636 22.3855 14.0918 22.6419C14.0918 22.6846 14.1345 22.6846 14.0918 22.7275L13.921 23.3259L13.7928 23.7961C13.6646 24.2663 13.3652 24.6082 12.938 24.8217V24.8644C12.938 24.8644 13.0235 24.8644 13.1088 24.8644C13.1088 24.8644 13.237 24.8644 13.2797 24.8644C13.7498 24.8217 14.1771 24.5653 14.5191 24.2233C14.5617 24.1804 14.6473 24.1378 14.6899 24.1804C14.7755 24.2233 14.8608 24.1804 14.9893 24.0951C15.1175 24.0096 15.3739 23.8814 15.6303 24.0525C15.7159 24.1378 15.8867 24.1378 16.0578 24.0951C16.3143 24.0951 16.7418 24.0525 16.8274 24.5224V24.6079V24.8217C16.87 25.0355 16.9129 25.4627 16.4427 25.5912C16.4001 25.5912 16.4001 25.5912 16.3572 25.5912L15.887 25.4204C15.5024 25.2493 15.3315 25.2066 15.1604 25.4204C15.1177 25.463 15.0748 25.5486 15.0748 25.5912C15.1175 25.7194 15.2886 25.9759 15.0748 26.1896C14.9466 26.4034 14.8611 26.5313 14.9466 26.7024C14.9466 26.7024 14.9893 26.7451 15.1175 26.7024C15.2883 26.6172 15.5021 26.7024 15.6732 26.7451L15.887 26.8307C15.9299 26.8307 15.9725 26.8733 15.9725 26.8733L16.0581 26.9162C16.229 27.0444 16.3574 27.13 16.5283 27.1726V27.13L16.6139 26.9162C16.6565 26.8733 16.9132 26.7451 16.9132 26.7451C17.084 26.6595 17.127 26.6595 17.127 26.5742C17.1696 26.2749 17.3834 25.9758 17.6827 25.8047C17.7253 25.8047 17.7683 25.7621 17.8109 25.7621C17.8965 25.7621 18.1102 25.6765 18.1955 25.591V25.5483L18.11 25.4628C18.067 25.4201 18.0671 25.3772 18.0244 25.3772C18.0244 25.3346 18.0244 25.2919 18.0244 25.249C18.0244 25.0352 18.1526 24.8644 18.2382 24.6932C18.3237 24.565 18.3664 24.4368 18.3664 24.3513C18.3664 24.3086 18.3664 24.266 18.3237 24.1801C18.3237 24.1375 18.2811 24.1375 18.2811 24.1375L18.2384 23.8384C18.1958 23.6247 18.1958 23.4965 18.0676 23.3683L17.7256 23.1974L17.5974 23.0692C17.5119 23.0265 17.5119 22.9836 17.5119 22.8981C17.5119 22.7272 17.5974 22.6417 17.8109 22.5987H17.8536C18.0673 22.5132 18.2811 22.5987 18.4519 22.684C18.6228 22.7269 18.6657 22.7269 18.7084 22.7269C18.6657 22.5987 18.5375 22.4705 18.4519 22.3423C18.2382 22.2141 17.9818 22.1285 17.7253 22.0859C17.2978 22.0003 16.8705 21.8721 16.6141 21.4875C16.5715 21.4449 16.5715 21.4022 16.5715 21.3593C16.5715 21.3164 16.5715 21.2737 16.6141 21.2311L16.6568 21.1885C16.6994 21.1458 16.785 21.1458 16.8279 21.1458C17.3407 21.274 17.8535 21.1458 18.1955 20.8468C18.4093 20.5901 18.6657 20.2481 19.0503 20.1202C19.3494 19.9064 19.3923 19.5218 19.3923 19.0516C19.3923 18.7949 19.5205 18.6241 19.6914 18.4529L20.076 18.2821C20.2042 18.2394 20.2468 18.2394 20.2468 18.1968C20.0331 18.1112 19.7767 17.983 19.5629 18.0257C19.5202 18.0257 19.4773 18.0257 19.4347 17.983C19.3065 17.9401 19.3065 17.8548 19.2638 17.7692V17.7266C19.2638 17.5984 19.3494 17.5128 19.4347 17.4702L19.4773 17.4275L19.52 17.3849L19.9046 17.1711C20.4174 16.8718 20.7594 16.7009 20.7594 16.2737V16.2308C20.7168 16.2737 20.6312 16.2737 20.5885 16.359L20.2466 16.5298C19.9902 16.658 19.6908 16.7436 19.4344 16.7865C19.1351 16.8292 18.8787 16.9147 18.6649 17.0429C18.6222 17.0429 18.6223 17.0856 18.5793 17.0856C18.4938 17.0856 18.3656 17.0429 18.3656 16.9147C18.3656 16.8721 18.3656 16.8292 18.3656 16.7865C18.3656 16.7009 18.4082 16.6154 18.4511 16.5727C18.5367 16.4445 18.6649 16.359 18.7931 16.3163C18.9639 16.2308 19.0495 16.1881 19.0922 16.0599L19.1348 15.9317C19.2204 15.7179 19.3057 15.4189 19.605 15.2907C19.6476 15.2907 19.8614 15.1625 19.8614 15.1625C19.904 15.1625 19.947 15.1198 19.947 15.1198C19.947 15.1198 19.947 15.1198 19.9043 15.0772C19.4768 14.949 19.0495 15.2909 18.7931 15.5047L18.7505 15.5474L18.5367 15.59C18.2374 15.7182 17.9383 15.8467 17.7672 16.0602C17.7672 16.1028 17.7245 16.1028 17.6816 16.1028C17.5961 16.1455 17.5108 16.1028 17.4252 16.0602C17.3396 16.0175 17.297 15.932 17.297 15.8464C17.2114 15.1625 17.7672 14.6496 18.1947 14.2647L18.2803 14.1792L18.3658 14.1365L18.6222 14.0083C18.836 13.8801 19.0924 13.709 19.4344 13.8801C19.6908 14.0083 19.9046 14.0939 20.1184 14.051C20.2466 14.0083 20.3321 13.8801 20.4603 13.7093C20.5459 13.5811 20.6741 13.4102 20.845 13.282C21.0158 13.1964 21.1869 13.282 21.3151 13.282C21.3578 13.282 21.486 13.3247 21.486 13.3247L21.5286 13.282V13.2394C21.5286 13.1112 21.4431 12.9827 21.3149 12.8118L21.144 12.5981C21.1011 12.5551 21.1011 12.5551 21.1011 12.5125C21.1011 12.4698 21.1011 12.4699 21.1011 12.4272C21.144 12.299 21.1867 12.1705 21.1867 11.9997C21.1867 11.6577 21.0584 11.3586 20.802 11.1449C20.7165 11.1022 20.5456 11.0167 20.3745 11.0167C20.3745 11.0593 20.4171 11.1022 20.4171 11.1022L20.588 11.4442C20.588 11.4868 20.588 11.5295 20.588 11.5724C20.588 12.3416 19.947 12.6836 19.3912 12.94L18.921 13.1964C17.8525 13.7522 16.4419 14.607 16.3566 16.0175C16.3566 16.7441 16.6557 17.4281 17.2543 18.0265C17.2543 18.0265 17.2543 18.0691 17.297 18.0691L17.5108 18.3685C17.7245 18.7104 17.9809 19.0524 17.9809 19.5226C17.9809 19.6079 17.9809 19.7364 17.9383 19.8646C17.7674 20.2918 17.2543 20.2918 17.0835 20.2918C16.0149 20.2065 15.4592 19.1377 15.0319 18.3685L14.9463 18.2402L14.8608 18.0694C14.7326 17.813 14.6044 17.5566 14.6044 17.2572C14.6044 17.2146 14.6044 17.1293 14.6473 17.1293C14.6899 17.0864 14.8181 16.9582 15.0319 17.0864C15.0748 17.0864 15.2457 17.3857 15.2457 17.3857C15.2883 17.4284 15.2883 17.4713 15.2883 17.5139C15.2883 17.4713 15.331 17.4284 15.331 17.3431C15.331 17.172 15.2454 16.9585 15.1601 16.7444L15.1175 16.7018C15.0748 16.6162 14.9466 16.488 14.8181 16.4024C14.6473 16.2745 14.4762 16.1034 14.3906 15.8896V15.847C14.3906 15.847 14.3906 15.847 14.3906 15.8043C14.3906 15.5479 14.6044 15.505 14.6897 15.4623H14.7323C14.6467 15.2059 14.6041 14.9066 14.6041 14.6075C14.6041 14.4793 14.6041 14.3082 14.647 14.18L14.9034 13.9236C14.989 13.8809 14.989 13.8809 14.989 13.838C14.9034 13.5387 14.9034 13.197 14.9034 12.8977C14.9034 12.7695 14.9034 12.6412 14.9034 12.513C14.9034 12.4704 14.989 12.2137 14.989 12.2137C15.0316 12.0855 15.0746 11.9999 15.0746 11.9147C15.0746 11.872 15.0746 11.872 15.0746 11.8291C14.9037 11.7438 14.8608 11.5298 14.8608 11.4445V11.3589C14.9034 11.3589 14.9034 11.3589 14.9034 11.3589C14.4759 11.3589 14.0913 11.1878 13.7493 11.0169L13.4073 10.8458C13.3218 10.8032 13.2365 10.8458 13.108 10.9314L12.8942 11.0167L12.6804 11.0593C12.4667 11.1019 12.2529 11.1449 12.1247 11.2731C12.0391 11.3586 12.0391 11.4868 12.0391 11.6577V11.7859V11.8285C11.9962 11.9568 11.9109 11.9997 11.8683 11.9997C11.7401 12.0423 11.6545 11.9997 11.569 11.957H11.5263C11.1843 11.7862 11.0561 11.4442 11.1417 11.1022C11.1417 11.0596 11.099 10.974 11.099 10.974C11.0135 10.9314 10.8426 10.8887 10.7144 10.9314C10.6289 10.974 10.5436 11.0596 10.5007 11.2731C10.5007 11.2731 10.458 11.3157 10.458 11.3586V11.4013C10.458 11.5295 10.5007 11.6577 10.5436 11.7003C10.6718 11.8285 10.8856 11.957 11.142 12.0852L11.6977 12.3843C11.7404 12.4272 11.7404 12.4272 11.7404 12.4698C11.7404 12.5125 11.783 12.5981 11.783 12.641C11.783 12.8547 11.6974 12.9827 11.6122 13.1112C11.6548 13.1538 11.783 13.2394 11.783 13.4105C11.783 13.4531 11.783 13.4531 11.783 13.4961C11.783 13.5816 11.6974 13.6243 11.6548 13.6243C11.3128 13.7098 11.0138 13.6243 10.7573 13.4534L10.5865 13.2396C10.5438 13.1541 10.5009 13.1114 10.4583 13.1114C10.4583 13.1114 10.4156 13.1967 10.4156 13.2396L10.3301 13.4105C10.3301 13.3678 10.3301 13.5387 10.3301 13.5387C10.3301 13.6669 10.2874 13.838 10.1592 13.9662C10.1166 14.0089 10.0737 14.0089 10.031 14.0089H9.86018C9.17622 13.7951 8.5781 13.4531 7.89415 12.9403C7.59509 12.7265 7.38133 12.4275 7.16756 12.1281L6.99671 11.9144L6.95406 11.8717L6.91141 11.658C6.78321 11.2307 6.69764 10.974 6.39858 10.8887C6.31357 10.8037 6.27093 10.8037 6.27093 10.8037ZM5.37321 12.9835C5.41585 12.9835 5.41585 12.9835 5.45877 12.9835C5.41612 12.9835 5.41613 12.9835 5.37321 12.9835ZM11.5282 13.2402C11.5709 13.1973 11.5709 13.1973 11.5709 13.1546C11.5709 13.1546 11.5282 13.1973 11.5282 13.2402ZM14.8192 15.5055C14.8622 15.5055 14.8622 15.5055 14.8192 15.5055V15.5055ZM10.8016 18.3693C10.8016 18.3266 10.8016 18.3266 10.8016 18.3693V18.3693Z" fill="white"/>
<path d="M0.96991 10.8038C0.96991 7.81181 0.96991 4.52053 0.96991 0.630859H26.4019C26.4019 0.630859 26.4019 2.12698 26.4019 10.8461C26.4019 23.7119 13.579 31.2772 13.579 31.2772C13.579 31.2772 0.96991 23.3702 0.96991 10.8038Z" stroke="#631627" stroke-width="0.344486"/>
<path d="M18.7109 25.6352C18.6254 25.5496 18.5401 25.4214 18.4971 25.3785C18.4116 24.9086 19.0955 24.6093 18.7536 24.1391C18.668 23.84 18.7536 23.4981 18.4542 23.2843C18.2405 23.1132 17.984 23.0705 17.7703 22.9423C17.7703 22.8141 17.9411 22.857 17.984 22.8141C18.3687 22.7288 18.668 23.1561 18.9671 22.8141C19.0097 22.5577 18.7533 22.3439 18.5824 22.1728C18.0267 21.7882 17.2145 21.959 16.7873 21.3609L16.8299 21.318C17.3427 21.4462 17.9411 21.318 18.326 20.9763C18.5398 20.677 18.7962 20.3779 19.1382 20.2923C19.5228 19.9933 19.5657 19.5231 19.5657 19.0956C19.5657 18.9247 19.6513 18.7536 19.7795 18.6254C19.9933 18.4543 20.5061 18.4972 20.3779 18.1123C20.0785 17.9414 19.7795 17.8132 19.4802 17.8559C19.3093 17.7703 19.5228 17.6421 19.5657 17.5992C20.0785 17.2572 20.9336 17.0434 20.8907 16.2316C20.8481 16.1463 20.8481 16.0178 20.7199 16.0178C20.5061 16.0604 20.3352 16.2745 20.1215 16.3598C19.6086 16.6588 19.0102 16.5735 18.4971 16.8726C18.4116 16.8726 18.4116 16.7444 18.4545 16.7017C18.6253 16.4453 19.0102 16.4453 19.1385 16.1033C19.224 15.8469 19.2667 15.505 19.566 15.4194C19.7368 15.2912 19.9935 15.2912 20.0788 15.0774C20.0788 14.9492 19.908 14.9063 19.8224 14.8636C19.3522 14.7354 18.882 14.9919 18.5401 15.3338C18.1981 15.505 17.7705 15.6332 17.5141 15.8896C17.4715 15.8896 17.3859 15.8896 17.3859 15.8043C17.3004 15.1203 17.8988 14.6501 18.3689 14.2655C18.668 14.18 18.9673 13.7953 19.3093 13.9662C19.5657 14.0944 19.8221 14.2226 20.1215 14.137C20.5061 14.0088 20.549 13.5816 20.891 13.3678C21.1474 13.2825 21.4894 13.6671 21.6605 13.2825C21.746 12.8979 21.4467 12.6839 21.2759 12.4277C21.4896 11.9146 21.3185 11.3162 20.8912 10.9316C20.6775 10.8034 20.4211 10.7178 20.2073 10.8034C20.0364 11.0172 20.3784 11.188 20.3784 11.4018C20.464 12.3422 19.4381 12.5559 18.797 12.9832C17.6429 13.5819 16.2323 14.4793 16.1471 15.9751C16.1471 16.7873 16.5317 17.5565 17.0874 18.1123C17.3865 18.6254 17.8569 19.0953 17.6858 19.7792C17.5576 20.0357 17.2583 20.0783 17.0019 20.0783C16.0188 19.993 15.4631 18.8815 15.0356 18.112C14.9074 17.813 14.7365 17.5136 14.6936 17.1716C14.7362 17.129 14.7791 17.129 14.8644 17.1716C15.0353 17.3428 15.0353 17.7274 15.3346 17.6845C15.591 17.3428 15.4202 16.9152 15.2491 16.5733C15.0782 16.2742 14.6933 16.1031 14.5225 15.7611C14.5225 15.5047 14.8644 15.6755 14.9071 15.4191C14.7789 14.9916 14.7362 14.5214 14.8215 14.1368C14.9071 13.9659 15.1635 13.9659 15.1635 13.7522C15.0353 13.3246 15.0353 12.94 15.0779 12.4698C15.1206 12.2134 15.3343 11.9141 15.2061 11.6577C14.9071 11.5724 15.1635 11.1875 14.8642 11.1448C14.3084 11.1448 13.8812 10.8455 13.411 10.6746C13.1546 10.5894 12.9834 10.7602 12.7697 10.8029C12.4706 10.8884 12.1286 10.8884 11.9149 11.1022C11.744 11.273 11.7866 11.4868 11.7866 11.7432C11.744 11.8714 11.6158 11.7432 11.5302 11.7432C11.3165 11.615 11.2309 11.3586 11.2738 11.1022C11.3165 10.974 11.2738 10.8884 11.1456 10.8029C10.9748 10.7176 10.761 10.6317 10.5901 10.7176C10.3764 10.8028 10.2908 11.0593 10.2055 11.273C10.2055 11.4442 10.2055 11.6577 10.2911 11.7861C10.6331 12.1278 11.1032 12.2563 11.4452 12.5554C11.5308 12.7691 11.3597 12.94 11.2315 13.1111C11.2315 13.2822 11.4879 13.2822 11.4452 13.4531C11.1888 13.5384 10.9324 13.4531 10.7186 13.2822C10.5904 13.154 10.5478 12.8976 10.334 12.8976C10.1202 12.8976 10.1202 13.154 10.0347 13.2822C9.94911 13.4531 10.0347 13.6669 9.86382 13.7951H9.73562C9.05166 13.5813 8.45327 13.1967 7.85488 12.7265C7.51291 12.4698 7.2565 12.0425 7.00008 11.7006C6.87188 11.2733 6.78631 10.7176 6.27348 10.5894C6.14528 10.5894 6.01707 10.632 5.97443 10.7602L5.93151 10.9313C5.6751 10.9313 5.41868 10.7602 5.11963 10.8458C4.99142 10.9313 4.86321 11.0169 4.77765 11.1451C4.77765 11.4442 5.11962 11.316 5.16226 11.5726C5.16226 11.7864 5.33312 11.9573 5.41868 12.1281C5.33312 12.2563 5.20491 12.2992 5.16226 12.4274L4.99141 12.8547C5.07698 12.9829 5.16226 13.154 5.29075 13.154C5.50451 13.0688 5.71829 13.2396 5.9747 13.1967C6.14555 13.1967 6.35932 13.0688 6.40224 13.3249C6.4878 13.5387 6.40224 13.7095 6.40224 13.8806C6.18847 14.18 5.88941 14.4364 5.59008 14.5646C5.50451 14.6501 5.50452 14.7784 5.50452 14.8639C5.63272 15.0348 5.88914 14.9495 6.06026 14.9495C6.40224 14.9495 6.65865 14.7357 7.00063 14.6928C7.08619 14.8639 7.2144 15.0774 7.38525 15.163C7.64166 15.2483 7.72723 14.8636 7.98364 14.9492C8.19741 15.1201 8.15449 15.4194 8.32562 15.6332C8.32562 15.7614 8.24005 15.7614 8.15477 15.804C7.85543 15.8893 7.47081 15.804 7.25705 16.0178C7.2144 16.146 7.34261 16.2745 7.4279 16.3171C7.68431 16.4453 7.98364 16.4882 8.2827 16.5309C8.53911 16.5735 8.83844 16.4456 9.09486 16.5309L9.00929 16.6591L8.19714 17.2148C7.81252 17.3857 7.42762 17.4286 7.08592 17.6424C6.57309 17.7706 6.35932 17.1295 5.88913 17.1722C5.67536 17.1722 5.54717 17.2575 5.41896 17.3433C5.29075 17.4715 5.29075 17.6424 5.33339 17.8135C5.41895 17.9846 5.63245 17.8988 5.63245 18.0699C5.63245 18.5401 5.20491 18.8821 5.16226 19.3523C5.16226 19.4805 5.16226 19.6087 5.33312 19.6516C5.41868 19.6942 5.54689 19.6516 5.63218 19.6087C5.71774 19.5234 5.71774 19.3523 5.88859 19.3096C6.18792 19.3523 6.48698 19.3522 6.65811 19.1388C6.74367 19.1388 6.87187 19.2241 6.87187 19.3096C6.87187 19.4378 6.87188 19.566 7.00008 19.6087C7.42762 19.6087 7.59847 19.1814 7.81224 18.8821C7.98309 18.8394 8.19686 18.7112 8.36799 18.8394C8.45355 19.1385 8.19713 19.3096 8.15421 19.6087C8.15421 19.6942 8.23978 19.7369 8.32507 19.7369C8.83789 19.6516 9.09458 19.224 9.39364 18.8394C9.43656 18.7539 9.47921 18.6257 9.65006 18.6257C10.0347 18.7539 10.1202 18.2837 10.3766 18.1126H10.4622C10.5049 18.2408 10.4196 18.3263 10.4622 18.4119C10.6331 18.5827 10.8042 18.4119 10.975 18.3692L11.317 18.1555C11.7446 18.2837 12.1718 18.3692 12.5994 18.4975C12.9413 18.6257 12.5994 19.0103 12.8131 19.224C12.7705 19.3523 12.5994 19.3949 12.4711 19.3949C11.7446 19.4805 10.8895 19.3096 10.2914 19.8224L9.94939 20.1644C9.39364 20.1644 9.13723 20.6346 8.6244 20.7202C8.28242 20.9339 7.7696 20.6346 7.55583 21.0195C7.72668 21.3615 8.15422 21.4897 8.49619 21.5752C8.66704 21.6605 8.88081 21.5752 8.96638 21.7461C8.96638 21.9172 9.00929 22.1307 9.22279 22.1736C9.35099 22.2163 9.43656 22.0025 9.60741 22.131C9.77826 22.3874 10.0776 22.5156 10.2058 22.7294C10.0776 22.9431 9.82118 22.8147 9.60741 22.8147H9.56476C9.26571 22.8576 8.88082 22.9858 8.66732 22.7294C8.36826 22.5156 8.11157 22.131 7.64139 22.131C7.38497 22.2165 7.12856 22.3018 7.08564 22.5585C7.043 22.7294 7.21385 22.7723 7.29942 22.9002C7.00008 23.114 6.70102 23.4133 6.78659 23.7979C6.82923 23.8835 6.87215 23.9688 6.95744 23.9688C7.12829 23.9688 7.21385 23.8406 7.38498 23.9262C7.42762 24.1826 7.34233 24.5672 7.64139 24.6954C7.85515 24.6527 8.02601 24.3961 8.28242 24.6098C8.53883 24.738 8.70996 24.4816 8.96638 24.439C9.30835 24.439 9.43656 24.781 9.56476 25.0374C9.77853 25.2085 10.0776 25.4649 10.3769 25.294C10.5907 24.995 10.2061 24.653 10.5907 24.4819C10.8045 24.3963 11.0182 24.4819 11.2746 24.4392C11.6593 24.4819 12.0868 24.5245 12.3006 24.0973L12.6425 23.5415L12.7281 23.1998C12.9419 23.1143 13.2409 23.4989 13.3691 23.1569C13.2409 22.8149 13.1983 22.4732 13.2836 22.1312C13.3691 21.8748 13.4544 21.6611 13.6256 21.4902L13.7111 21.5329C13.7967 21.9601 13.8393 22.345 14.0105 22.7296C13.9678 23.1143 13.7967 23.4562 13.7111 23.8409C13.6256 24.2255 13.3265 24.5675 12.9416 24.7386C12.856 24.8239 12.7708 24.9097 12.856 25.0376C12.9416 25.2088 13.198 25.1232 13.3689 25.1658C13.8817 25.0806 14.3519 24.8665 14.7368 24.4822C15.1214 24.5677 15.2925 24.1402 15.6342 24.311C15.9762 24.5677 16.6172 24.0973 16.7454 24.6957C16.7028 24.9521 16.9592 25.4223 16.5317 25.5507C16.1041 25.4652 15.5913 24.9094 15.164 25.4225C15.0785 25.5078 14.9932 25.6363 15.0785 25.8072C15.164 25.9354 15.2493 26.0638 15.1211 26.1918C14.9929 26.4055 14.8218 26.662 14.9503 26.8755C15.0358 27.0037 15.2067 27.0037 15.3349 27.0037C15.5913 26.9184 15.8051 27.1319 16.0615 27.1319C16.2753 27.3027 16.489 27.5165 16.7881 27.4738C16.9163 27.3883 16.8736 27.2601 16.9589 27.1745C17.1298 27.0037 17.5147 27.0463 17.5147 26.7043C17.5573 26.4479 17.7711 26.2341 17.9849 26.1059C18.0699 25.9772 18.5827 25.849 18.7109 25.6352Z" fill="#631627"/>
<path d="M18.7109 25.6352C18.6254 25.5496 18.5401 25.4214 18.4971 25.3785C18.4116 24.9086 19.0955 24.6519 18.7536 24.1391C18.668 23.84 18.7536 23.4981 18.4542 23.2843C18.2405 23.1132 17.984 23.0705 17.7703 22.9423C17.7703 22.8141 17.9411 22.857 17.984 22.8141C18.3687 22.7288 18.668 23.1561 18.9671 22.8141C19.0097 22.5577 18.7533 22.3439 18.5824 22.1728C18.0267 21.7882 17.2145 21.959 16.7873 21.3609L16.8299 21.318C17.3427 21.4462 17.9411 21.318 18.326 20.9763C18.5398 20.677 18.7962 20.3779 19.1382 20.2923C19.5228 19.9933 19.5657 19.5231 19.5657 19.0956C19.5657 18.9247 19.6513 18.7536 19.7795 18.6254C19.9933 18.4543 20.5061 18.4972 20.3779 18.1123C20.0785 17.9414 19.7795 17.8132 19.4802 17.8559C19.3519 17.7703 19.5228 17.6421 19.5657 17.5992C20.0785 17.2572 20.9336 17.0434 20.8907 16.2316C20.8481 16.1463 20.8481 16.0178 20.7199 16.0178C20.5061 16.0604 20.3352 16.2745 20.1215 16.3598C19.6086 16.6588 19.0102 16.5735 18.4971 16.8726C18.4116 16.8726 18.4116 16.7444 18.4545 16.7017C18.6253 16.4453 19.0102 16.4453 19.1385 16.1033C19.224 15.8469 19.2667 15.505 19.566 15.4194C19.7368 15.2912 19.9935 15.2912 20.0788 15.0774C20.0788 14.9492 19.908 14.9063 19.8224 14.8636C19.3522 14.7354 18.882 14.9919 18.5401 15.3338C18.1981 15.505 17.7705 15.6332 17.5141 15.8896C17.4715 15.8896 17.3859 15.8896 17.3859 15.8043C17.3004 15.1203 17.8988 14.6501 18.3689 14.2655C18.668 14.18 18.9673 13.7953 19.3093 13.9662C19.5657 14.0944 19.8221 14.2226 20.1215 14.137C20.5061 14.0088 20.5916 13.5816 20.891 13.3678C21.1474 13.2825 21.4894 13.6671 21.6605 13.2825C21.746 12.8979 21.4467 12.6839 21.2759 12.4277C21.4896 11.9146 21.3185 11.3162 20.8912 10.9316C20.6775 10.8034 20.4211 10.7178 20.2073 10.8034C20.0364 11.0172 20.3784 11.188 20.3784 11.4018C20.464 12.3422 19.4381 12.5559 18.797 12.9832C17.6429 13.5819 16.2323 14.4793 16.1471 15.9751C16.1471 16.7873 16.5317 17.5565 17.0874 18.1123C17.3865 18.6254 17.8569 19.0953 17.6858 19.7792C17.5576 20.0357 17.2583 20.0783 17.0019 20.0783C16.0188 19.993 15.4631 18.8815 15.0356 18.112C14.9074 17.813 14.7365 17.5136 14.6936 17.1716C14.7362 17.129 14.7791 17.129 14.8644 17.1716C15.0353 17.3428 15.0353 17.7274 15.3346 17.6845C15.591 17.3428 15.4202 16.9152 15.2491 16.5733C15.0782 16.2742 14.6933 16.1031 14.5225 15.7611C14.5225 15.5047 14.8644 15.6755 14.9071 15.4191C14.7789 14.9916 14.7362 14.5214 14.8215 14.1368C14.9071 13.9659 15.1635 13.9659 15.1635 13.7522C15.0353 13.3246 15.0353 12.94 15.0779 12.4698C15.1206 12.2134 15.3343 11.9141 15.2061 11.6577C14.9071 11.5724 15.1635 11.1875 14.8642 11.1448C14.3084 11.1448 13.8812 10.8455 13.411 10.6746C13.1546 10.5894 12.9834 10.7602 12.7697 10.8029C12.4706 10.8884 12.1286 10.8884 11.9149 11.1022C11.744 11.273 11.7866 11.4868 11.7866 11.7432C11.744 11.8714 11.6158 11.7432 11.5302 11.7432C11.3165 11.615 11.2309 11.3586 11.2738 11.1022C11.3165 10.974 11.2738 10.8884 11.1456 10.8029C10.9748 10.7176 10.761 10.6746 10.5901 10.7176C10.3764 10.8028 10.2908 11.0593 10.2055 11.273C10.2055 11.4442 10.2055 11.6577 10.2911 11.7861C10.6331 12.1278 11.1032 12.2563 11.4452 12.5554C11.5308 12.7691 11.3597 12.94 11.2315 13.1111C11.2315 13.2822 11.4879 13.2822 11.4452 13.4531C11.1888 13.5384 10.9324 13.4531 10.7186 13.2822C10.5904 13.154 10.5478 12.8976 10.334 12.8976C10.1202 12.8976 10.1202 13.154 10.0347 13.2822C9.94911 13.4531 10.0347 13.6669 9.86382 13.7951H9.73562C9.05166 13.5813 8.45327 13.1967 7.85488 12.7265C7.51291 12.4698 7.2565 12.0425 7.00008 11.7006C6.87188 11.2733 6.78631 10.7176 6.27348 10.5894C6.14528 10.5894 6.01707 10.632 5.97443 10.7602L5.93151 10.9313C5.6751 10.9313 5.41868 10.7602 5.11963 10.8458C4.99142 10.9313 4.86321 11.0169 4.77765 11.1451C4.77765 11.4442 5.11962 11.316 5.16226 11.5726C5.16226 11.7864 5.33312 11.9573 5.41868 12.1281C5.33312 12.2563 5.20491 12.2992 5.16226 12.4274L4.99141 12.8547C5.07698 12.9829 5.16226 13.154 5.29075 13.154C5.50451 13.0688 5.71829 13.2396 5.9747 13.1967C6.14555 13.1967 6.35932 13.0688 6.40224 13.3249C6.4878 13.5387 6.40224 13.7095 6.40224 13.8806C6.18847 14.18 5.88941 14.4364 5.59008 14.5646C5.50451 14.6501 5.50452 14.7784 5.50452 14.8639C5.63272 15.0348 5.88914 14.9495 6.06026 14.9495C6.40224 14.9495 6.65865 14.7357 7.00063 14.6928C7.08619 14.8639 7.2144 15.0774 7.38525 15.163C7.64166 15.2483 7.72723 14.8636 7.98364 14.9492C8.19741 15.1201 8.11185 15.4194 8.32562 15.6332C8.32562 15.7614 8.24005 15.7614 8.15477 15.804C7.85543 15.8893 7.47081 15.804 7.25705 16.0178C7.2144 16.146 7.34261 16.2745 7.4279 16.3171C7.68431 16.4453 7.98364 16.4882 8.2827 16.5309C8.53911 16.5735 8.83844 16.4456 9.09486 16.5309L9.00929 16.6591L8.19714 17.2148C7.81252 17.3857 7.42762 17.4286 7.08592 17.6424C6.57309 17.7706 6.35932 17.1295 5.88913 17.1722C5.67536 17.1722 5.54717 17.2575 5.41896 17.3433C5.29075 17.4715 5.29075 17.6424 5.33339 17.8135C5.41895 17.9846 5.63245 17.8988 5.63245 18.0699C5.63245 18.5401 5.20491 18.8821 5.16226 19.3523C5.16226 19.4805 5.16227 19.6087 5.29048 19.6516C5.37604 19.6942 5.50425 19.6516 5.58981 19.6087C5.67537 19.5234 5.67537 19.3523 5.84622 19.3096C6.14555 19.3523 6.44461 19.3522 6.61574 19.1388C6.7013 19.1388 6.8295 19.2241 6.8295 19.3096C6.8295 19.4378 6.82951 19.566 6.95771 19.6087C7.38525 19.6087 7.5561 19.1814 7.76987 18.8821C7.94072 18.8394 8.15449 18.7112 8.32562 18.8394C8.41118 19.1385 8.15476 19.3096 8.11184 19.6087C8.11184 19.6942 8.19741 19.7369 8.2827 19.7369C8.79552 19.6516 9.05221 19.224 9.35127 18.8394C9.39391 18.7539 9.43683 18.6257 9.60769 18.6257C9.99231 18.7539 10.0779 18.2837 10.3343 18.1126H10.4198C10.4625 18.2408 10.3772 18.3263 10.4198 18.4119C10.5907 18.5827 10.7618 18.4119 10.9327 18.3692L11.2746 18.1555C11.7022 18.2837 12.1295 18.3692 12.557 18.4975C12.899 18.6257 12.557 19.0103 12.7708 19.224C12.7281 19.3523 12.557 19.3949 12.4288 19.3949C11.7022 19.4805 10.8474 19.3096 10.249 19.8224L9.90702 20.1644C9.35127 20.1644 9.09485 20.6346 8.58203 20.7202C8.24005 20.9339 7.72722 20.6346 7.51346 21.0195C7.68431 21.3615 8.11185 21.4897 8.45382 21.5752C8.62467 21.6605 8.83844 21.5752 8.92401 21.7461C8.92401 21.9172 8.96665 22.1307 9.18042 22.1736C9.30862 22.2163 9.39419 22.0025 9.56504 22.131C9.73616 22.3874 10.0352 22.5156 10.1634 22.7294C10.0352 22.9431 9.77881 22.8147 9.56504 22.8147H9.52239C9.22306 22.8576 8.83844 22.9858 8.62467 22.7294C8.32534 22.5156 8.06893 22.131 7.59875 22.131C7.34233 22.2165 7.08592 22.3018 7.043 22.6012C7.00035 22.7723 7.17121 22.8149 7.25677 22.9431C6.95771 23.1569 6.65838 23.456 6.74394 23.8409C6.78659 23.9264 6.8295 24.0117 6.91479 24.0117C7.08564 24.0117 7.1712 23.8835 7.34233 23.9691C7.38497 24.2258 7.29969 24.6101 7.59875 24.7386C7.81252 24.6959 7.98337 24.4395 8.23978 24.653C8.4962 24.7812 8.70996 24.5248 8.92373 24.4822C9.26571 24.4822 9.39391 24.8239 9.52212 25.0806C9.73589 25.2514 10.0349 25.5078 10.3343 25.337C10.548 25.0376 10.1634 24.6959 10.5481 24.5248C10.7618 24.4395 10.9756 24.5248 11.232 24.4822C11.6166 24.5248 12.0442 24.5677 12.2579 24.1402L12.5999 23.5844L12.6855 23.2425C12.8992 23.1569 13.1983 23.5418 13.3265 23.1998C13.1983 22.8578 13.1556 22.5159 13.2409 22.1739C13.3265 21.9175 13.4118 21.7037 13.5829 21.5326L13.6685 21.5752C13.754 22.0025 13.7967 22.3874 13.9678 22.772C13.9252 23.1566 13.754 23.4986 13.6685 23.8832C13.5829 24.2678 13.2839 24.6098 12.8992 24.7809C12.8137 24.8662 12.7284 24.9518 12.8137 25.08C12.8992 25.2509 13.1556 25.1653 13.3265 25.2082C13.8393 25.1229 14.3095 24.9092 14.6944 24.5243C15.079 24.6098 15.2502 24.1823 15.5921 24.3534C15.9341 24.6098 16.5751 24.1396 16.7033 24.738C16.6607 24.9944 16.9171 25.4646 16.4896 25.5928C16.062 25.5073 15.5492 24.9518 15.1219 25.4646C15.0364 25.5502 14.9511 25.6784 15.0364 25.8492C15.1219 25.9775 15.2072 26.1057 15.0793 26.2339C14.9511 26.4476 14.78 26.704 14.9084 26.9178C14.994 27.046 15.1649 27.046 15.2931 27.046C15.5495 26.9605 15.7633 27.1742 16.0197 27.1742C16.2334 27.3454 16.4472 27.5589 16.7463 27.5162C16.8745 27.4309 16.8318 27.3024 16.9171 27.2169C17.0882 27.046 17.4729 27.0887 17.4729 26.7467C17.5155 26.4903 17.7293 26.2765 17.943 26.1483C18.0699 25.9772 18.5827 25.849 18.7109 25.6352Z" stroke="#631627" stroke-width="0.0703826"/>
<path d="M11.102 11.0592C11.0593 11.2729 11.0593 11.4864 11.1875 11.6575C11.5295 12.0422 12.085 12.1704 12.2988 12.5979H12.1706C11.743 12.3412 11.3584 11.9995 10.9311 11.8284C10.7603 11.7002 10.6318 11.5291 10.6747 11.3156C10.7174 11.1874 10.7603 11.0162 10.9311 10.9736C11.0167 10.9312 11.102 10.9739 11.102 11.0592Z" fill="white"/>
<path d="M14.6482 11.4453C14.7338 11.5306 14.6482 11.7446 14.862 11.7873C14.9046 11.7873 14.9476 11.8299 14.9476 11.8726C14.9476 12.0434 14.9049 12.2145 14.862 12.3854C14.8193 12.5136 14.6482 12.5562 14.6482 12.77C14.6482 12.8556 14.7764 12.8982 14.8191 13.0264V13.7104C14.3915 13.8386 14.6053 14.3514 14.5627 14.6081C14.52 14.8219 14.5627 15.0354 14.5627 15.2491C14.4771 15.292 14.2633 15.292 14.2207 15.4203C14.2207 15.6767 14.3489 15.8904 14.4345 16.0613C14.6053 16.2751 14.9046 16.3177 14.9046 16.617C14.6909 16.617 14.4771 16.4888 14.3062 16.4033C14.0069 16.2324 13.7934 15.8904 13.5797 15.5911C13.537 15.5485 13.4514 15.5485 13.4088 15.5911C13.3662 15.8049 13.3662 16.0613 13.195 16.1895C12.9813 16.0613 12.9813 15.5058 12.6393 15.6767C12.5111 16.4033 12.0409 16.959 11.6136 17.5574C11.5281 17.6 11.4854 17.7282 11.3572 17.7282C11.571 17.1725 11.7418 16.5315 11.5281 15.8902C11.4854 15.762 11.3572 15.8049 11.2717 15.8475C11.1861 15.9328 11.1008 16.0613 10.9723 16.0184C10.8441 15.8475 11.1005 15.5482 10.8015 15.42C10.5877 15.4626 10.4168 15.6764 10.2457 15.762C9.7329 16.061 9.13451 16.1892 8.53612 16.1892C8.40791 16.1892 8.32235 16.1466 8.23706 16.1039C8.36527 15.9328 8.62168 15.9328 8.7928 15.8046C9.47675 15.3771 9.94694 14.6078 10.5024 14.0521C10.4598 13.7957 10.246 13.4966 10.4598 13.2828C10.6306 13.2828 10.7162 13.4966 10.8444 13.5392C11.1008 13.6674 11.4001 13.753 11.6565 13.6248C11.8703 13.5822 12.0412 13.3684 12.0841 13.1546C12.0841 13.0693 12.0414 12.9835 11.9559 12.9835C11.8703 12.9835 11.8277 12.9835 11.785 12.8982C11.785 12.77 11.8706 12.6844 11.9559 12.6844C12.2552 12.6844 12.5116 13.2831 12.7254 12.8126C12.8536 12.428 12.469 12.1287 12.2126 11.8723C12.127 11.787 12.0844 11.7012 12.127 11.5732C12.3408 11.445 12.0844 11.2739 12.2552 11.103C12.5545 10.8893 12.9818 11.0175 13.2809 10.8037C13.7934 10.9751 14.178 11.3597 14.6482 11.4453Z" fill="white"/>
<path d="M6.74219 11.3165C6.74219 11.4021 6.78483 11.4874 6.74219 11.5303C6.65662 11.6159 6.57133 11.5303 6.52841 11.4877C6.44285 11.4024 6.40021 11.2739 6.40021 11.1883C6.44285 10.8461 6.74219 11.1881 6.74219 11.3165Z" fill="white"/>
<path d="M6.48431 11.7876C6.95449 12.0014 7.25355 12.4713 7.59553 12.8562C8.32213 13.4546 9.09164 13.9674 9.94644 14.2238C9.98909 14.352 9.86088 14.4802 9.77559 14.5658C9.47626 14.8651 9.26276 15.2068 8.96343 15.4635C8.87787 15.4635 8.83523 15.4635 8.79258 15.4635C8.49325 15.1644 8.53617 14.6087 8.02307 14.5658C7.85221 14.5658 7.72401 14.7796 7.55288 14.6514C7.38203 14.5231 7.59553 14.2238 7.33912 14.1383C7.03979 14.2665 6.82629 14.5658 6.48431 14.5229C6.69808 14.1383 7.0827 13.7536 6.86894 13.2835C6.82602 13.0697 6.69781 12.8133 6.48431 12.7703C6.27054 12.7703 6.18499 12.9841 5.97149 12.8986C5.88593 12.7277 5.50131 12.813 5.67216 12.5566C5.80037 12.3428 6.27055 12.3428 6.0997 12.0011C5.97149 11.83 5.62951 11.9155 5.62951 11.6591C5.67216 11.5309 5.54395 11.3172 5.62951 11.2319C6.01413 11.1463 6.27054 11.5738 6.48431 11.7876Z" fill="white"/>
<path d="M21.1019 12.0006C21.1448 12.257 20.8881 12.4282 20.9737 12.6843C21.0592 12.8125 21.2727 12.8554 21.2301 12.9834C20.5891 12.9834 20.4606 13.8382 19.8622 13.7955C19.6058 13.7529 19.392 13.4536 19.0927 13.5818C18.2805 13.9664 17.3831 14.5221 17.1693 15.5051C17.0837 15.8898 17.0837 16.2746 17.3831 16.5737C17.4686 16.6163 17.5539 16.6163 17.5968 16.5737C17.7677 16.2746 17.8962 15.8898 18.2808 15.8045C18.4946 15.7189 18.751 15.6336 18.9647 15.5051C19.0074 15.5051 19.0503 15.4625 19.0503 15.5478C18.9647 15.8471 18.8365 16.1888 18.4946 16.2744C18.2808 16.4881 18.0244 16.7016 18.0244 17.001C18.0244 17.1292 17.9817 17.3429 18.1099 17.4712C18.2381 17.5567 18.3663 17.4285 18.4519 17.3856C18.8795 16.8728 19.5205 16.7872 20.1615 16.7446C20.2042 16.7875 20.1189 16.9157 20.0333 16.9157C19.4776 17.0865 18.9647 17.5567 18.7939 18.1125C18.7939 18.198 18.8795 18.2836 18.9221 18.2836C19.1785 18.2409 19.3923 18.0698 19.6913 18.1125C19.7769 18.2836 19.4776 18.2836 19.3923 18.4544C18.8795 18.9246 19.3923 19.9079 18.5375 20.0788C18.2811 20.1643 18.3237 20.4634 18.1529 20.5916C17.8535 20.9762 17.3833 21.0618 16.9561 21.0191C16.6141 21.0618 16.3577 20.5916 16.0584 20.8909C16.101 21.2329 16.3577 21.404 16.5285 21.7031C16.9561 22.0877 17.5116 22.1303 18.0673 22.3015C18.1529 22.3015 18.1955 22.387 18.2381 22.4297C18.2381 22.5579 18.0673 22.5152 17.9817 22.5152C17.6398 22.5579 17.2551 22.6005 16.9132 22.4726C16.8705 22.4726 16.8276 22.5152 16.785 22.5582C16.8276 22.9428 17.2551 23.071 17.5115 23.2418C17.768 23.37 18.1099 23.3271 18.1955 23.6264V24.0111C18.3237 24.1819 18.3664 24.4386 18.3237 24.6521C18.1099 24.9088 17.9391 25.2505 18.1099 25.6351C18.0244 25.7204 17.8535 25.6351 17.768 25.7204C17.6398 25.9771 17.3404 26.0197 17.2551 26.2335C17.2551 26.4473 17.1269 26.6181 16.9132 26.6608C16.7423 26.6608 16.6141 26.7463 16.4856 26.7034C16.4001 26.5752 16.5283 26.4043 16.3574 26.3188C16.1436 26.2761 16.0581 26.6181 15.8017 26.4899C15.6735 26.4046 15.5879 26.3617 15.5026 26.2762C15.5026 26.105 15.6308 26.0624 15.7164 26.0195C16.2721 25.9342 16.9987 25.8486 17.1696 25.2502C17.2122 24.9512 17.084 24.7374 17.1269 24.481C17.0414 24.1817 16.7423 23.9679 16.4003 23.9252C16.101 23.8397 15.7593 23.9679 15.5455 23.7541C15.46 23.6686 15.3747 23.6259 15.2462 23.6686C15.1606 23.6686 15.118 23.7968 15.0324 23.7541C14.9469 23.6686 14.8187 23.5403 14.7334 23.6686C14.5196 24.0534 14.2205 24.4807 13.7504 24.5663C13.6648 24.4381 13.8359 24.3096 13.8786 24.1814C14.0068 23.8823 14.135 23.4977 14.2205 23.1557C14.3487 22.9849 14.5196 22.7285 14.3914 22.472C14.1776 21.9163 13.9639 21.2753 14.135 20.634C14.2632 19.8647 14.0494 19.1381 13.4937 18.625C13.1943 18.4539 12.8953 18.1119 12.5107 18.0693C12.2543 17.984 11.9123 18.0693 11.7411 17.8555C11.7838 17.5988 12.0405 17.428 12.1687 17.2142L12.5962 16.5302C12.7671 16.4876 12.7244 16.744 12.8956 16.744C13.2375 16.744 13.2375 16.1456 13.5795 16.3594C13.7504 16.5732 14.007 16.6584 14.1779 16.8722C14.3917 17.8126 14.7763 18.7529 15.4176 19.4795C15.9304 20.1206 16.6999 20.5908 17.4692 20.377C17.6829 20.2061 17.982 19.9924 18.0249 19.6933C18.2387 18.1972 16.315 17.428 16.4435 15.9319C16.5717 14.5213 18.0249 13.7518 19.1791 13.196C19.8201 12.8543 20.5896 12.4268 20.6749 11.6146C20.6749 11.5291 20.6749 11.4864 20.7178 11.4009C21.1019 11.4875 21.0592 11.7869 21.1019 12.0006Z" fill="white"/>
<path d="M10.7595 16.4894C10.9304 16.532 11.1441 16.2756 11.2297 16.532C11.1871 16.874 11.1871 17.3015 11.0159 17.6006C10.8451 17.7717 10.5884 17.6435 10.4175 17.7288C10.1611 17.8144 10.1185 18.4128 9.81915 18.0281C9.69095 17.9855 9.60539 18.1134 9.5201 18.1993C9.39189 18.4986 9.26368 18.8406 9.00727 19.0967C8.96435 19.1393 8.87906 19.1823 8.83642 19.0967C8.79377 18.8829 8.96462 18.4983 8.66556 18.413C8.53736 18.413 8.40915 18.4986 8.28094 18.5412C8.02453 18.5412 7.68255 18.5412 7.55435 18.755C7.5117 18.8832 7.5117 19.0543 7.34057 19.0543C7.16972 18.9688 6.9986 18.9261 6.91304 18.755C6.82747 18.7124 6.74219 18.6268 6.65663 18.7124C6.52842 18.8406 6.48577 19.097 6.272 19.097C6.10115 19.097 5.97294 19.0543 5.80182 18.9688C5.84446 18.5842 6.27201 18.5415 6.52842 18.3704C7.04125 18.2422 7.46878 17.9002 7.98161 17.8146C8.79377 17.5156 9.47745 16.8743 10.1188 16.2332C10.2043 16.1906 10.3325 16.1479 10.4178 16.1479C10.5884 16.2759 10.5884 16.4467 10.7595 16.4894Z" fill="white"/>
<path d="M6.69618 18.0266C6.52533 18.1119 6.31156 18.1977 6.14044 18.1119C6.05488 18.0266 6.09779 17.8128 6.05487 17.6846C6.09752 17.5564 6.26865 17.5991 6.35394 17.642C6.48269 17.7702 6.69618 17.8128 6.69618 18.0266Z" fill="white"/>
<path d="M13.8353 20.1641C13.8353 20.4205 13.7926 20.5914 13.6644 20.8051C13.3653 21.0618 13.1087 21.4038 13.0234 21.8311C13.0234 22.1304 12.9807 22.3868 12.9807 22.6432C12.8952 22.7288 12.8099 22.6006 12.767 22.5579C12.6388 22.3442 12.6814 21.9169 12.3394 21.9593C12.1686 22.173 11.9548 22.4724 12.083 22.7288C12.2539 22.9426 12.5532 23.1134 12.3823 23.4127C12.1259 23.541 12.2115 23.9256 11.8695 23.9682C11.3567 24.0538 10.8436 23.7974 10.459 24.182C10.3308 24.3102 10.2452 24.4813 10.1596 24.6522C9.94587 24.6948 9.98879 24.3528 9.8603 24.2249C9.77474 24.0967 9.60389 24.182 9.47568 24.0967C9.30483 24.0111 9.09106 23.8403 8.87729 23.9685C8.70644 24.054 8.49267 24.3105 8.2789 24.1396L7.97985 24.0543C7.97985 23.9688 8.06541 23.8405 7.97985 23.7123L7.4241 23.413C7.38145 23.3704 7.4241 23.2848 7.46674 23.2419C7.93693 22.9426 8.49267 23.2845 9.04814 23.1992C9.43276 23.071 9.77474 23.1137 10.1594 23.1563C10.3731 23.1563 10.6295 23.2419 10.7577 23.0281C10.8433 22.8999 10.886 22.7288 10.8004 22.6006C10.6295 22.216 10.1164 22.173 10.0309 21.7031C9.98824 21.6176 9.94532 21.532 9.86003 21.4894C9.73182 21.4467 9.64626 21.5749 9.51805 21.532C9.47541 21.4038 9.43249 21.2756 9.30429 21.2327C9.04787 21.2327 8.74854 21.3609 8.53504 21.19C8.57796 21.0618 8.74881 21.1045 8.83437 21.0192C9.17635 20.9336 9.47541 20.7199 9.81738 20.549L10.2876 20.4634C10.7577 19.6942 11.7408 19.7368 12.5956 19.6942L13.4077 19.4375C13.7071 19.6084 13.7926 19.9503 13.8353 20.1641Z" fill="white"/>
<path d="M8.53575 22.8576C8.3649 22.9429 8.19377 22.9002 8.02292 22.8576C7.93736 22.772 7.89471 22.6009 7.89471 22.473C8.15113 22.3874 8.40754 22.6438 8.53575 22.8576Z" fill="white"/>
<path d="M15.974 25.5501C15.974 25.6357 15.8885 25.6357 15.8458 25.6357C15.7603 25.6357 15.7603 25.593 15.7603 25.5501C15.7603 25.4219 15.9314 25.5075 15.974 25.5501Z" fill="white"/>
<path d="M13.7923 11.744C13.835 11.8722 13.7494 11.9578 13.6215 11.9578C13.4077 11.9578 13.2369 11.9578 13.1087 11.7869C12.9378 11.6587 13.0231 11.4876 13.066 11.3168C13.1516 11.2315 13.2369 11.2315 13.3224 11.2741C13.493 11.402 13.6641 11.5732 13.7923 11.744Z" fill="#631627"/>
<path d="M14.7349 12.0002C14.7349 12.1285 14.6493 12.2567 14.564 12.3849C14.4785 12.4278 14.3932 12.3849 14.3932 12.2996C14.3505 12.1714 14.4358 12.0002 14.5214 11.915C14.6067 11.8718 14.7349 11.9147 14.7349 12.0002Z" fill="#631627"/>
<path d="M13.6651 13.1981V13.4974C13.366 13.7965 13.366 14.3096 12.9385 14.4804C12.8103 14.4804 12.7247 14.4378 12.7247 14.3096C12.7247 14.1384 12.6821 13.882 12.7247 13.7112C12.8956 13.6256 12.9385 13.9676 13.1093 13.7967C13.1949 13.5401 13.4087 13.3266 13.5369 13.1128C13.5795 13.1128 13.6651 13.1554 13.6651 13.1981Z" fill="#631627"/>
<path d="M0.96991 8.02637H26.359V9.77889H0.96991V8.02637Z" fill="#631627"/>
<path d="M0.96991 8.02637H26.359V9.77889H0.96991V8.02637Z" stroke="#631627" stroke-width="0.0703826"/>
<path d="M19.8627 8.3252H22.7265V9.47933H19.8627V8.3252Z" fill="white"/>
<path d="M13.581 8.3252H16.4447V9.47933H13.581V8.3252Z" fill="white"/>
<path d="M7.25464 8.3252H10.161V9.47933H7.25464V8.3252Z" fill="white"/>
<path d="M1.27063 8.3252H3.87796V9.47933H1.27063V8.3252Z" fill="white"/>
<path d="M25.2072 1.74257C25.4209 1.99899 25.2927 2.38361 25.3354 2.68294C25.5492 2.85379 26.062 2.68294 26.1049 3.11048C26.1475 3.28133 26.0193 3.40981 25.934 3.4951C25.7632 3.66622 25.5065 3.49509 25.3783 3.66622C25.3357 4.17905 25.3783 4.7348 25.3783 5.33319C25.5492 5.41848 25.7203 5.41848 25.8911 5.50404C25.9767 5.5896 26.062 5.7178 26.062 5.84601C26.062 5.97421 25.9764 6.10242 25.8056 6.14534C25.6774 6.2309 25.4209 6.14534 25.378 6.31647C25.2925 6.57288 25.378 6.91485 25.3354 7.21419C25.1645 7.29947 24.9078 7.29948 24.6943 7.29948H22.6428C22.4719 7.38504 22.2581 7.59854 22.0017 7.47033C21.5742 7.21392 20.9758 7.29947 20.5056 7.25656H19.0095C18.7531 7.00014 18.9239 6.61525 18.8387 6.31619C18.7531 6.14507 18.454 6.23063 18.2829 6.14507C18.1121 6.05951 18.1121 5.88865 18.1121 5.76045C18.1121 5.5896 18.2829 5.50403 18.454 5.46112C18.5822 5.37583 18.796 5.50376 18.8387 5.33291C18.8387 4.81981 18.796 4.26434 18.8387 3.79416C18.796 3.49482 18.4111 3.66594 18.2403 3.53774C18.0694 3.45218 18.0694 3.23841 18.1121 3.06755C18.2403 2.76822 18.5822 2.85379 18.8387 2.76822L18.8813 2.68266L18.9239 1.78494L18.9669 1.69938L21.3178 1.74202C21.5742 1.74202 21.8306 1.87023 22.0873 1.95579C22.6001 1.57117 23.3267 1.78495 23.9251 1.65674C24.3524 1.74257 24.7796 1.65728 25.2072 1.74257Z" fill="#631627"/>
<path d="M25.2072 1.74257C25.4209 1.99899 25.2927 2.38361 25.3354 2.68294C25.5492 2.85379 26.062 2.68294 26.1049 3.11048C26.1475 3.28133 26.0193 3.40981 25.934 3.4951C25.7632 3.66622 25.5065 3.49509 25.3783 3.66622C25.3357 4.17905 25.3783 4.7348 25.3783 5.33319C25.5492 5.41848 25.7203 5.41848 25.8911 5.50404C25.9767 5.5896 26.062 5.7178 26.062 5.84601C26.062 5.97421 25.9764 6.10242 25.8056 6.14534C25.6774 6.2309 25.4209 6.14534 25.378 6.31647C25.2925 6.57288 25.378 6.91485 25.3354 7.21419C25.1645 7.29947 24.9078 7.29948 24.6943 7.29948H22.6428C22.4719 7.38504 22.2581 7.59854 22.0017 7.47033C21.5742 7.21392 20.9758 7.29947 20.5056 7.25656H19.0095C18.7531 7.00014 18.9239 6.61525 18.8387 6.31619C18.7531 6.14507 18.454 6.23063 18.2829 6.14507C18.1121 6.05951 18.1121 5.88865 18.1121 5.76045C18.1121 5.5896 18.2829 5.50403 18.454 5.46112C18.5822 5.37583 18.796 5.50376 18.8387 5.33291C18.8387 4.81981 18.796 4.26434 18.8387 3.79416C18.796 3.49482 18.4111 3.66594 18.2403 3.53774C18.0694 3.45218 18.0694 3.23841 18.1121 3.06755C18.2403 2.76822 18.5822 2.85379 18.8387 2.76822L18.8813 2.68266L18.9239 1.78494L18.9669 1.69938L21.3178 1.74202C21.5742 1.74202 21.8306 1.87023 22.0873 1.95579C22.6001 1.57117 23.3267 1.78495 23.9251 1.65674C24.3524 1.74257 24.7796 1.65728 25.2072 1.74257Z" stroke="#631627" stroke-width="0.071733"/>
<path d="M16.7436 1.6999C16.8292 1.6999 16.9574 1.78546 17.0429 1.8281C17.1285 2.17008 17.043 2.42649 17.1285 2.72582C17.3423 2.81138 17.6843 2.72582 17.8125 3.02515C17.8551 3.15336 17.8551 3.36714 17.7698 3.45242C17.599 3.66619 17.2141 3.45242 17.0859 3.70883C17.0432 4.30722 17.0432 4.77741 17.0859 5.33316C17.257 5.50401 17.5561 5.3758 17.7269 5.58957C17.8125 5.67513 17.8551 5.80334 17.8125 5.93155C17.6843 6.14531 17.3849 6.14531 17.1285 6.18796C17.043 6.27324 17.1285 6.44437 17.0859 6.52993C17.0003 6.7437 17.2141 7.04276 16.9577 7.17097C16.2311 7.25626 15.59 7.12805 14.8634 7.17097H14.1795C14.0086 7.29917 13.7519 7.47003 13.5385 7.34182L13.1109 7.17097C12.5981 7.17097 12.1279 7.17097 11.6151 7.17097C11.2731 7.17097 10.8029 7.29917 10.5465 6.99984C10.5465 6.74343 10.5891 6.44409 10.5465 6.18768C10.2901 6.10212 9.86255 6.23032 9.73434 5.88835C9.69169 5.80279 9.73434 5.63194 9.77698 5.54638C9.94784 5.28997 10.418 5.50373 10.5891 5.28996V4.52072C10.6318 4.17874 10.5891 3.87968 10.5891 3.53771C10.3327 3.45215 9.86255 3.58036 9.81963 3.19574C9.77699 2.98197 9.90519 2.81111 10.076 2.76847C10.2469 2.72582 10.5036 2.81111 10.5889 2.64026L10.6315 1.8281C10.8453 1.48613 11.3581 1.6999 11.6574 1.65725H13.2388C13.4953 1.6999 13.709 1.91366 13.9654 1.78546C14.735 1.48612 15.8035 1.78546 16.7436 1.6999Z" fill="#631627"/>
<path d="M16.7436 1.6999C16.8292 1.6999 16.9574 1.78546 17.0429 1.8281C17.1285 2.17008 17.0429 2.42649 17.1285 2.72582C17.3423 2.81138 17.6842 2.72582 17.8124 3.02515C17.8551 3.15336 17.8551 3.36714 17.7698 3.45242C17.5989 3.66619 17.214 3.45242 17.0858 3.70883C17.0432 4.30722 17.0432 4.77741 17.0858 5.33316C17.257 5.50401 17.556 5.3758 17.7269 5.58957C17.8124 5.67513 17.8551 5.80334 17.8124 5.93155C17.6842 6.14531 17.3849 6.14531 17.1285 6.18796C17.0429 6.27324 17.1285 6.44437 17.0858 6.52993C17.0003 6.7437 17.214 7.04276 16.9576 7.17097C16.231 7.25626 15.59 7.12805 14.8634 7.17097H14.1795C14.0086 7.29917 13.7519 7.47003 13.5384 7.34182L13.1109 7.17097C12.5981 7.17097 12.1279 7.17097 11.615 7.17097C11.2731 7.17097 10.8029 7.29917 10.5465 6.99984C10.5465 6.74343 10.5891 6.44409 10.5465 6.18768C10.2901 6.10212 9.86252 6.23032 9.73431 5.88835C9.69167 5.80279 9.73431 5.63194 9.77696 5.54638C9.94781 5.28997 10.418 5.50373 10.5891 5.28996V4.52072C10.6318 4.17874 10.5891 3.87968 10.5891 3.53771C10.3327 3.45215 9.86252 3.58036 9.8196 3.19574C9.77696 2.98197 9.90516 2.81111 10.076 2.76847C10.2469 2.72582 10.5036 2.81111 10.5888 2.64026L10.6315 1.8281C10.8453 1.48613 11.3581 1.6999 11.6574 1.65725H13.2388C13.4952 1.6999 13.709 1.91366 13.9654 1.78546C14.7349 1.48612 15.8035 1.78546 16.7436 1.6999ZM5.11777 1.87075C5.97258 1.52877 6.91295 1.78518 7.85331 1.69962C8.10973 1.74227 8.4517 1.57141 8.62283 1.82783C8.62283 2.08424 8.62283 2.34066 8.62283 2.63999C8.70839 2.85376 9.00744 2.72555 9.13565 2.81111C9.22121 2.85376 9.3065 2.89641 9.34942 3.02489C9.39206 3.15309 9.34942 3.2813 9.30677 3.4095C9.13592 3.58035 8.92215 3.53771 8.70839 3.58035L8.62283 3.66592C8.66547 4.17875 8.53726 4.60628 8.62283 5.07646C8.62283 5.16175 8.58018 5.33288 8.70839 5.37579C8.9648 5.37579 9.17857 5.37579 9.3497 5.54665C9.43526 5.67485 9.43525 5.80307 9.39233 5.97419C9.30677 6.48702 8.49489 5.88862 8.58046 6.48701C8.58046 6.70078 8.6231 6.99984 8.53753 7.21361C7.59717 7.21361 6.65681 7.12805 5.802 7.21361C5.63115 7.34182 5.46002 7.42738 5.20361 7.47002C5.03276 7.42738 4.86163 7.34182 4.73342 7.21361C3.87862 7.17097 3.06646 7.17097 2.2543 7.17097C1.99789 6.9572 2.16874 6.57258 2.08345 6.27325C1.95524 6.1024 1.74148 6.2306 1.57063 6.14504C1.44242 6.14504 1.39978 6.01683 1.35686 5.93127C1.35686 5.76015 1.35686 5.58929 1.48506 5.46109C1.61327 5.3758 1.82704 5.37579 1.99789 5.37579L2.08345 5.29024C2.04053 4.73449 2.16902 4.17902 2.04054 3.58063C1.95498 3.45242 1.78412 3.58063 1.69856 3.49507C1.52771 3.45243 1.35659 3.36686 1.31394 3.19601C1.2713 3.0678 1.2713 2.9396 1.3995 2.81139C1.57035 2.59762 1.91233 2.85403 2.08345 2.64026L2.16902 1.8281C2.29723 1.57169 2.59655 1.6999 2.85297 1.6999C3.2805 1.61461 3.79334 1.6999 4.2206 1.6999C4.56203 1.6999 4.86136 1.78546 5.11777 1.87075Z" stroke="#631627" stroke-width="0.071733"/>
<path d="M4.98836 2.08392L5.07392 2.25504C5.11683 3.40918 5.11684 4.56305 5.11684 5.80247L5.07392 6.23001C4.77486 6.23001 4.47553 6.1018 4.17647 6.14445C3.83449 6.1018 3.49252 6.18709 3.19346 6.1018C3.02261 5.71718 3.15082 5.28964 3.1079 4.86238C3.1079 4.00757 3.15054 2.939 3.15054 2.04128C3.15054 1.95572 3.23611 1.95572 3.27875 1.91307C3.87714 1.95572 4.51817 1.78487 4.98836 2.08392Z" fill="white"/>
<path d="M2.72372 1.99935C2.55287 2.12755 2.3391 2.34133 2.42439 2.5551C2.50995 4.00856 2.42439 5.29063 2.50995 6.65853L2.63816 6.78674C3.32211 6.78674 4.04871 6.70118 4.68974 6.82938C4.73239 6.82938 4.73239 6.91468 4.68974 6.91468C4.51889 7.00024 4.30512 6.95731 4.134 6.95731L2.38147 6.91468C2.25326 6.82939 2.29591 6.61534 2.29591 6.44449C2.29591 6.27337 2.33856 6.05987 2.16771 5.97431C1.91129 5.93166 1.69752 5.97431 1.52667 5.80318C1.65488 5.46121 2.21062 5.7179 2.29618 5.37592C2.33882 4.73461 2.25353 4.09358 2.29618 3.49519C2.21062 3.15349 1.86865 3.23878 1.61223 3.19613C1.56959 3.15349 1.52667 3.11084 1.52667 3.02528C1.74044 2.81151 2.1677 3.06792 2.29618 2.76886C2.38174 2.51245 2.29618 2.25603 2.33883 1.9567C2.42439 1.91406 2.59524 1.91406 2.72345 1.91406V1.99935H2.72372Z" fill="white"/>
<path d="M7.5522 1.99811C7.5522 3.40866 7.5522 4.73365 7.5522 6.05863C6.86825 6.14419 6.09901 6.01599 5.41506 6.18684C5.24421 6.05863 5.37242 5.84486 5.3295 5.63109C5.28686 5.20356 5.3295 4.69073 5.3295 4.22054C5.3295 3.53659 5.28686 2.81 5.3295 2.12605C5.41506 1.91228 5.67147 1.86963 5.88524 1.86963H7.50956L7.5522 1.99811Z" fill="white"/>
<path d="M8.36383 1.99935C8.40648 2.25603 8.27828 2.64065 8.4494 2.89707C8.62025 2.98263 8.87694 2.93972 9.04779 2.98263C9.13335 3.0682 9.09043 3.15376 9.04779 3.23904C8.87694 3.41017 8.4494 3.19641 8.36383 3.49546C8.36383 4.17942 8.32119 4.82045 8.36383 5.5044L8.4494 5.58996C8.66317 5.6326 8.96223 5.54731 9.09044 5.71817C9.09044 5.80345 9.09043 5.93194 9.00487 5.97458C8.7911 6.01723 8.44913 5.88902 8.32092 6.14544C8.27828 6.40185 8.36356 6.70117 8.27827 6.95759L8.15007 7.00023L5.71359 6.95759C5.67095 6.91494 5.71359 6.8723 5.71359 6.8723L5.97 6.78674H7.93602C8.14979 6.74409 8.14979 6.48741 8.14979 6.31655C8.14979 5.33354 8.14979 4.52139 8.14979 3.58102C8.14979 3.11084 8.23535 2.6833 8.10687 2.21312C8.10687 2.12783 7.93602 2.04227 7.93602 1.91406C8.10742 1.91406 8.27854 1.91406 8.36383 1.99935Z" fill="white"/>
<path d="M19.4351 1.9985C19.3924 2.12671 19.2213 2.25519 19.1787 2.38312C19.1787 3.79367 19.1787 5.33242 19.2213 6.78561L19.3495 6.87118C20.119 6.87118 20.9309 6.70006 21.5722 7.04203C21.6149 7.04203 21.5722 7.04203 21.5722 7.08468C20.7601 7.08468 19.9053 7.12732 19.0931 7.08468L19.0075 6.99911C18.9649 6.69978 19.0502 6.40072 18.922 6.10139C18.7511 5.93054 18.1954 6.14403 18.3236 5.75941C18.5373 5.58856 18.8364 5.80206 18.9649 5.54565C18.9649 4.81905 19.0075 4.17802 18.9649 3.49406C18.794 3.2803 18.5373 3.40878 18.3236 3.36586C18.238 3.2803 18.1954 3.19473 18.2809 3.10944C18.4947 2.93832 19.1787 3.15209 19.0505 2.63926C19.136 2.42549 18.9649 1.99795 19.2642 1.95531C19.3069 1.91321 19.3924 1.91321 19.4351 1.9985Z" fill="white"/>
<path d="M25.0759 1.99785C25.1615 2.33982 24.9903 2.63915 25.2041 2.93821C25.375 3.02377 25.7169 2.89557 25.8025 3.10934C25.8025 3.5366 25.2041 3.19463 25.0759 3.5366C25.1185 4.17791 25.0332 4.73338 25.0759 5.41733C24.9903 5.45998 24.9903 5.54554 25.0332 5.58846C25.2041 5.75931 25.4608 5.50289 25.6743 5.67402C25.8025 5.71666 25.7169 5.80223 25.7169 5.88779C25.5461 6.10156 25.2041 5.84514 25.0756 6.1442L25.033 6.99901L24.9048 7.04166H22.5968C22.5541 6.99901 22.5968 6.99901 22.5968 6.95609L22.8532 6.8708H24.6057C24.6913 6.8708 24.8195 6.78524 24.8195 6.65703C24.8195 5.28913 24.7768 3.87858 24.7768 2.42538L24.5631 1.99785C24.7766 1.91256 25.033 1.86964 25.0759 1.99785Z" fill="white"/>
<path d="M19.6917 2.5545C19.6917 3.75155 19.6917 5.03362 19.6917 6.27304C19.649 6.3586 19.5208 6.44416 19.4779 6.48681L19.3923 6.44416C19.3923 6.05954 19.3923 5.58936 19.3923 5.20447V4.90514C19.3923 4.09298 19.3923 3.19553 19.3923 2.38337C19.4779 2.29808 19.5205 2.1696 19.6061 2.12695C19.6917 2.29808 19.6917 2.38365 19.6917 2.5545Z" fill="white"/>
<path d="M24.7354 2.38318C24.6928 3.36619 24.7354 4.26391 24.7354 5.16135C24.7354 5.58889 24.7354 5.97351 24.7354 6.35841C24.7354 6.40105 24.7354 6.40105 24.6928 6.44369C24.3934 6.31548 24.5219 6.01643 24.479 5.7171C24.479 5.37512 24.4363 4.94759 24.5216 4.56297L24.479 4.43475V2.1694C24.5643 2.0412 24.6925 2.25497 24.7354 2.38318Z" fill="white"/>
<path d="M8.02417 2.2978C8.02417 3.70808 8.02417 5.07598 7.98152 6.31568C7.93888 6.40097 7.89596 6.31568 7.81067 6.27277C7.72511 6.059 7.81067 5.80258 7.81067 5.58909C7.76803 4.47787 7.81067 3.32373 7.81067 2.21224C7.89596 2.12696 7.98152 2.25516 8.02417 2.2978Z" fill="white"/>
<path d="M22.2142 4.05086C22.1716 4.13642 22.0434 4.13642 21.9578 4.09351L21.8723 4.05086C21.9149 3.88001 21.8723 3.6236 22.0431 3.49512C22.1713 3.62332 22.1287 3.87973 22.2142 4.05086Z" fill="white"/>
<path d="M7.85282 6.52969C7.81018 6.61498 7.63904 6.57233 7.55376 6.61497H6.99801C6.57047 6.61497 6.10029 6.57233 5.71567 6.6579C5.63011 6.6579 5.58746 6.57233 5.58746 6.48677C5.63011 6.31592 5.84388 6.40121 5.97209 6.31592C6.48491 6.31592 7.12595 6.31592 7.63905 6.31592C7.68169 6.35856 7.76726 6.44413 7.85282 6.52969Z" fill="white"/>
<path d="M4.94455 6.4442C4.94455 6.52976 4.85899 6.61505 4.7737 6.65797C4.21795 6.48685 3.61957 6.61506 3.02118 6.52977C3.06382 6.4442 3.14938 6.35892 3.27759 6.35892C3.83333 6.35864 4.43145 6.35864 4.94455 6.4442Z" fill="white"/>
<path d="M21.8272 6.52962C21.8699 6.57226 21.8699 6.65782 21.8272 6.65782C21.6134 6.91424 21.357 6.61491 21.1006 6.65782C20.6731 6.61491 20.1602 6.65782 19.6901 6.6149C19.8183 6.23028 20.3314 6.44406 20.6304 6.40114C21.058 6.44406 21.4855 6.31585 21.8272 6.52962Z" fill="white"/>
<path d="M24.3941 6.44445C24.4797 6.48709 24.565 6.57266 24.565 6.65822C23.8384 6.74351 23.1545 6.57266 22.5134 6.74351C22.4279 6.74351 22.3852 6.6153 22.4279 6.52974C22.5561 6.35889 22.7698 6.40153 22.9833 6.35889L24.3941 6.44445Z" fill="white"/>
<path d="M5.50149 6.78636C5.54441 6.91457 5.50149 7.0857 5.41593 7.17098C5.33036 7.25627 5.20216 7.25628 5.11687 7.21363C5.03131 7.21363 4.98866 7.08542 4.98866 6.99986C4.94602 6.82901 5.15951 6.74344 5.24507 6.61523C5.37328 6.61523 5.45885 6.7008 5.50149 6.78636Z" fill="white"/>
<path d="M22.342 6.87202C22.342 7.04288 22.342 7.25664 22.1711 7.25664C22.0429 7.25664 21.9147 7.214 21.8718 7.08579C21.8292 6.91466 21.9574 6.74382 22.0427 6.70117C22.2138 6.7009 22.2991 6.78646 22.342 6.87202Z" fill="white"/>
<path d="M16.0589 2.04108C16.0589 3.36606 16.0589 4.77661 16.0589 6.1016L15.9733 6.14425C15.2467 6.22981 14.5201 6.01604 13.8362 6.27245C13.708 6.18716 13.8362 6.01603 13.7935 5.88783C13.7935 4.73369 13.7935 3.53691 13.7935 2.29749C13.7935 2.16928 13.8788 2.08372 13.9644 2.0408C14.1352 1.9126 14.3919 1.95524 14.6483 1.9126L16.016 1.95524L16.0589 2.04108Z" fill="white"/>
<path d="M16.8704 1.9993C16.8704 2.29863 16.8704 2.59769 16.9131 2.89702C17.1268 3.06814 17.7252 2.81173 17.597 3.28164C17.4262 3.40985 17.1695 3.32428 16.9557 3.3672L16.8701 3.40985C16.7846 4.09353 16.9128 4.82012 16.8701 5.41851C16.8701 5.50407 16.9128 5.58964 17.041 5.63228C17.2118 5.63228 17.5112 5.50408 17.5967 5.76049C17.5541 6.18803 17.041 5.80314 16.8701 6.10247C16.8275 6.4018 16.9557 6.70086 16.8275 7.00019L16.7419 7.04283C15.8445 7.04283 14.9897 7.04283 14.1775 7.00019C14.1349 7.00019 14.1775 6.91463 14.1775 6.91463L14.3484 6.82934C15.0323 6.74377 15.8016 6.82934 16.5282 6.74378C16.6137 6.74378 16.699 6.65848 16.699 6.53C16.699 5.20502 16.699 3.88003 16.699 2.38392C16.6564 2.17015 16.4426 2.04195 16.4426 1.87109C16.5711 1.91401 16.7848 1.87109 16.8704 1.9993Z" fill="white"/>
<path d="M11.1426 1.95615C11.1 2.12728 10.9718 2.16992 10.8862 2.29813C10.8006 2.55455 10.8862 2.85361 10.8436 3.15294C10.8436 4.34972 10.8436 5.46093 10.8436 6.61506C10.8436 6.70063 10.9291 6.78619 11.0144 6.82884L12.8522 6.87148C12.9378 6.87148 13.066 6.91413 13.1516 6.99969C13.1089 7.08525 12.9807 7.08525 12.8951 7.08525C12.2112 7.08525 11.4846 7.1279 10.8006 7.04261L10.7151 6.99996C10.7151 6.70063 10.7151 6.35893 10.5869 6.10224C10.3731 6.01695 10.1167 6.10224 9.90292 6.01695C9.81735 5.97431 9.81735 5.84583 9.90292 5.76027C10.1167 5.63206 10.544 5.84583 10.6724 5.50385C10.6724 4.8199 10.7151 4.17887 10.6724 3.49492C10.5016 3.2385 10.074 3.49491 9.90292 3.2385C9.98848 2.85388 10.5013 3.19586 10.6724 2.85388L10.7151 2.04172C10.8859 1.91351 11.0144 1.91351 11.1426 1.95615Z" fill="white"/>
<path d="M11.3994 2.16954C11.4421 3.36632 11.3138 4.4349 11.3994 5.63168C11.3138 5.88809 11.5276 6.31563 11.143 6.35827C11.0574 5.16122 11.143 3.87915 11.1004 2.59681C11.0577 2.38304 11.1859 2.21219 11.3568 2.08398L11.3994 2.16954Z" fill="white"/>
<path d="M16.5286 2.38399C16.5286 3.70898 16.5712 5.11953 16.4859 6.35922C16.4004 6.35922 16.3151 6.27366 16.3151 6.23102C16.3151 5.71819 16.2295 5.16244 16.2724 4.6067C16.3151 3.8801 16.2298 2.98266 16.3151 2.21314C16.4004 2.17023 16.5286 2.29843 16.5286 2.38399Z" fill="white"/>
<path d="M13.367 6.44412C13.4526 6.44412 13.5379 6.52969 13.4526 6.61497L13.3244 6.74319C12.726 6.52942 11.9567 6.6579 11.3154 6.57234C11.3581 6.48677 11.401 6.40121 11.4863 6.31592C12.1276 6.40121 12.7686 6.31592 13.367 6.44412Z" fill="white"/>
<path d="M16.1006 6.3588C16.1862 6.40144 16.2715 6.48701 16.2715 6.57257L16.1859 6.61521C15.4593 6.61521 14.7327 6.52992 14.0488 6.70077C13.9632 6.70077 13.835 6.70078 13.7924 6.57257C13.8776 6.40144 14.0488 6.3588 14.2199 6.3588C14.9038 6.31615 15.5022 6.3588 16.1006 6.3588Z" fill="white"/>
<path d="M13.8812 6.95674C13.8812 7.08494 13.8812 7.25607 13.7104 7.25607C13.5822 7.25607 13.4113 7.25607 13.4113 7.08522C13.454 6.95701 13.5395 6.87145 13.6677 6.78588C13.7959 6.74297 13.8386 6.87145 13.8812 6.95674Z" fill="white"/>
<path d="M13.5367 4.7764C13.6223 4.09245 13.5367 3.32321 13.5794 2.63926C13.5794 2.42549 13.5794 2.21172 13.4512 2.04087C12.9384 1.8271 12.297 1.95531 11.6987 1.91267C11.656 1.91267 11.6131 1.91266 11.6131 1.9553C11.6131 3.32321 11.6131 4.60528 11.6131 5.93054L11.6557 6.10139C12.0833 6.18696 12.4679 6.14404 12.8954 6.14404C13.1092 6.18668 13.3227 6.2296 13.5365 6.27225C13.5365 5.80206 13.5791 5.46008 13.5365 4.9899V4.7764H13.5367Z" fill="white"/>
<path d="M13.365 4.73418C13.1512 4.56306 13.1086 4.30665 12.9374 4.09315C13.023 4.00786 13.1083 3.96494 13.1938 3.87938C13.3221 3.75117 13.4503 3.5374 13.4076 3.36655C13.4076 3.19542 13.3221 3.02457 13.1512 2.93901C12.8092 2.8108 12.339 2.85345 11.9544 2.89636C11.8689 2.93901 11.8689 2.98193 11.9118 3.06749C12.04 3.06749 12.1256 3.15306 12.1256 3.28126C12.1256 3.75145 12.1256 4.22163 12.04 4.69181L11.8691 4.90558C12.04 5.0767 12.2967 4.94823 12.5957 4.99114C12.6813 4.86294 12.4675 4.77737 12.4249 4.64917C12.4678 4.52096 12.4249 4.30719 12.5104 4.2219C12.7669 4.43567 12.8524 4.82029 13.1515 5.03406L13.5361 5.0767V4.86293C13.5361 4.81974 13.4079 4.73418 13.365 4.73418ZM12.8521 3.87938C12.7239 3.87938 12.5531 3.96494 12.5102 3.79382C12.5102 3.58005 12.4246 3.28098 12.5102 3.06722C12.681 2.93901 12.8948 2.98166 13.023 3.15278C13.1086 3.28099 13.1086 3.40919 13.1086 3.58004C13.023 3.70853 12.9804 3.83673 12.8521 3.87938Z" fill="#631627"/>
<path d="M24.3087 2.42662C24.3087 2.25577 24.3087 2.08464 24.2231 1.95643H23.5821C23.1545 2.042 22.6417 1.87115 22.2571 2.12756C22.0862 2.34133 22.1715 2.55483 22.1289 2.81152C22.1715 2.93972 22.2144 3.11084 22.2571 3.23878L22.1715 3.4099L21.9577 3.32435L21.8722 3.15349C21.9148 3.06793 21.9577 2.98237 21.9577 2.85416C21.9577 2.55483 22.0433 2.12756 21.6587 1.99935C21.1029 1.95671 20.5901 1.91406 19.9917 1.91406C19.9491 1.91406 19.9062 1.91406 19.9062 1.95671C19.9062 3.28169 19.9062 4.43583 19.9062 5.71817C19.9062 5.88903 19.8635 6.05987 20.0344 6.14544C20.5472 6.05987 20.9747 6.14544 21.4449 6.14544C21.6158 6.14544 21.7442 6.31656 21.9577 6.27364C22.0007 5.76081 22.0007 5.11979 22.0007 4.5214C22.0007 4.47875 22.0007 4.35027 21.9151 4.35027V4.22207L22.2144 4.2647L22.2571 4.35C22.2571 4.35 22.2571 4.35 22.2144 4.39264L22.1718 6.14517C22.1718 6.18781 22.1718 6.31629 22.3 6.31629C22.8128 6.01696 23.4968 6.23073 24.0952 6.14517L24.2234 6.10252C24.3089 5.80319 24.266 4.77753 24.266 4.77753C24.3087 4.00829 24.3087 3.23878 24.3087 2.42662Z" fill="white"/>
<path d="M22.2998 4.34963C22.3854 4.4352 22.428 4.5634 22.3854 4.69161L22.2572 4.86274L22.3428 4.94802C22.5565 4.94802 22.8129 4.99066 23.0267 4.90538C22.9841 4.81981 22.8559 4.77717 22.7703 4.69161C22.5139 4.05058 22.3428 3.40926 22.1719 2.72559L21.9581 2.8538C21.8299 3.45219 21.6162 3.96529 21.4453 4.56341C21.4027 4.69161 21.2745 4.69161 21.1889 4.77717C21.0607 4.81981 21.018 4.69161 20.9751 4.60604C20.9751 4.09322 21.0178 3.66568 20.9751 3.11021C20.9751 3.02465 21.0607 2.93909 21.146 3.02465C21.2742 3.11021 21.2742 3.28106 21.3168 3.36662C21.4024 3.40926 21.4877 3.40927 21.4877 3.32398L21.5732 2.81115C21.4877 2.64003 21.3595 2.81115 21.2313 2.81115C20.9749 2.81115 20.6329 2.85379 20.3765 2.72559C20.1627 2.81115 20.2056 3.06757 20.2056 3.28134C20.2056 3.32398 20.2056 3.3669 20.2056 3.3669C20.3765 3.23869 20.462 2.98227 20.6758 3.02492V3.53775V4.64896C20.5902 4.73453 20.4194 4.77717 20.462 4.90538C20.7614 4.99094 21.1031 4.90538 21.4024 4.94802C21.5732 4.94802 21.7444 4.99067 21.9152 4.94802C21.9579 4.90538 21.9152 4.86273 21.9152 4.81982C21.8297 4.77717 21.7014 4.69161 21.7444 4.56341C21.787 4.47812 21.8299 4.30699 21.9581 4.34963C22.0011 4.34963 22.0011 4.34963 22.0437 4.39228L22.3001 4.43492C22.2572 4.39228 22.2572 4.34963 22.2998 4.34963ZM21.9152 4.13586L21.8297 4.09322C21.8723 3.92237 21.8297 3.66595 22.0005 3.53747C22.1714 3.62303 22.1287 3.87945 22.2143 4.0503C22.1716 4.13586 22.0008 4.13586 21.9152 4.13586Z" fill="#631627"/>
<path d="M23.8789 2.93916C23.8789 3.06736 23.9645 3.28113 23.8789 3.36669C23.7507 3.28113 23.7507 3.15293 23.537 3.11028C23.4514 3.11028 23.3232 3.11028 23.3232 3.23849C23.2806 3.62311 23.6652 3.62311 23.8789 3.83688C24.0927 4.05065 24.1783 4.3497 24.0927 4.60612C24.0071 4.81989 23.9219 4.90545 23.7081 4.90545C23.5372 4.94809 23.4088 4.81989 23.2808 4.90545C23.2379 4.90545 23.1953 4.94809 23.1526 4.90545V4.22178C23.1526 4.17913 23.1953 4.17913 23.2382 4.17913C23.3237 4.3929 23.2811 4.64932 23.5802 4.69196C23.6654 4.69196 23.751 4.64932 23.7939 4.52111C23.8366 3.92272 23.0244 4.05092 23.0244 3.40989C23.0244 3.28168 23.0671 3.15347 23.11 3.02527C23.2382 2.8115 23.5802 2.93971 23.7939 2.8115C23.836 2.76831 23.836 2.89651 23.8789 2.93916Z" fill="#631627"/>
<path d="M15.2466 2.89597C15.0758 2.98153 14.9046 3.10974 14.9473 3.36616C14.9046 3.79342 14.9046 4.22096 14.9473 4.64822L15.2037 4.90464V4.94728C14.9046 4.94728 14.6482 4.98993 14.3489 4.94728C14.2207 4.81907 14.5198 4.73351 14.5627 4.64795C14.6053 4.17777 14.6482 3.66494 14.6053 3.15212C14.5198 2.98099 14.2633 3.02391 14.3063 2.85278C14.5627 2.81014 14.9047 2.81014 15.1611 2.85278L15.2466 2.89597Z" fill="#631627"/>
<path d="M6.86838 3.23842C6.69726 3.45218 6.65461 3.06757 6.48376 3.02465C6.3982 3.02465 6.22735 2.982 6.14179 3.06729C6.09915 3.28106 6.05623 3.49455 6.14179 3.70832C6.22735 3.75124 6.35556 3.75124 6.44112 3.75124C6.52668 3.66568 6.61197 3.49456 6.74045 3.49456C6.82601 3.58012 6.6978 3.70833 6.74045 3.79389C6.6978 3.9221 6.82601 4.09322 6.65489 4.13586C6.56932 4.09322 6.48403 3.87945 6.35555 3.87945H6.09914C6.01358 4.17878 6.0565 4.47784 6.09914 4.77717C6.22735 4.90538 6.39848 4.77717 6.56933 4.77717C6.7831 4.73453 6.74017 4.43519 6.9113 4.43519C6.95394 4.5634 6.99686 4.73453 6.95394 4.86274L6.86866 4.94802H5.62896C5.58632 4.94802 5.45811 4.94803 5.50076 4.86274C5.88538 4.60605 5.6716 4.13613 5.71452 3.79416C5.67188 3.53774 5.88538 3.11048 5.50076 2.93936C5.50076 2.8538 5.58632 2.8538 5.62896 2.8538C5.92802 2.8538 6.35556 2.982 6.61197 2.72559C6.86839 2.81087 6.86838 3.06756 6.86838 3.23842Z" fill="#631627"/>
<path d="M4.98947 2.98136C4.6475 3.23778 4.6475 3.75087 4.47664 4.13549C4.34844 4.34926 4.39108 4.69124 4.17759 4.8621C4.09202 4.90474 4.00674 4.81917 4.00674 4.73388C3.87853 4.22106 3.75032 3.66532 3.53655 3.15249C3.53655 3.02428 3.15193 2.98137 3.3657 2.85316C3.62212 2.81051 3.79324 2.8958 4.04966 2.85316C4.0923 3.02428 3.8788 3.10984 3.92144 3.2807C4.09229 3.49446 4.00701 3.83643 4.22051 4.09285L4.30607 4.00756C4.30607 3.62294 4.77625 3.23805 4.39163 2.89607C4.47719 2.72522 4.7336 2.85343 4.90446 2.81079C4.94683 2.85289 5.07504 2.8958 4.98947 2.98136Z" fill="#631627"/>
<path d="M2.89368 2.16992C2.97925 3.58047 2.89368 4.90546 2.89368 6.23044C2.89368 6.31601 2.80812 6.4013 2.72283 6.4013C2.63727 5.97403 2.63727 5.54649 2.68019 5.11895C2.63754 4.22123 2.68019 3.28087 2.68019 2.38342C2.68019 2.25549 2.8084 2.16992 2.89368 2.16992Z" fill="white"/>
</svg>
