<svg width="13" height="14" viewBox="0 0 13 14" fill="none" xmlns="http://www.w3.org/2000/svg">
<path d="M3.66667 0.5C3.66667 0.223858 3.44281 0 3.16667 0C2.89052 0 2.66667 0.223858 2.66667 0.5V1.33333H2.5C1.11929 1.33333 0 2.45262 0 3.83333V10.1667C0 11.5474 1.11929 12.6667 2.5 12.6667H5.5C5.77614 12.6667 6 12.4428 6 12.1667C6 11.8905 5.77614 11.6667 5.5 11.6667H2.5C1.67157 11.6667 1 10.9951 1 10.1667V5.33333H11V6.83333C11 7.10948 11.2239 7.33333 11.5 7.33333C11.7761 7.33333 12 7.10948 12 6.83333V3.83333C12 2.45262 10.8807 1.33333 9.5 1.33333H9.33333V0.5C9.33333 0.223858 9.10948 0 8.83333 0C8.55719 0 8.33333 0.223858 8.33333 0.5V1.33333H3.66667V0.5Z" fill="#71717A"/>
<path d="M12.5594 9.4761C12.7303 9.25919 12.693 8.94482 12.4761 8.77392C12.2592 8.60302 11.9448 8.64032 11.7739 8.85723L9.23604 12.0784L8.18958 11.0158C7.99581 10.8191 7.67924 10.8167 7.48249 11.0104C7.28574 11.2042 7.28333 11.5208 7.47709 11.7175L8.92154 13.1842C9.02225 13.2864 9.16206 13.3405 9.30538 13.3326C9.4487 13.3246 9.58169 13.2555 9.67052 13.1428L12.5594 9.4761Z" fill="#71717A"/>
</svg>
