<svg width="123" height="31" viewBox="0 0 123 31" fill="none" xmlns="http://www.w3.org/2000/svg">
<path d="M72.1529 5.22509C71.8978 4.67292 71.5157 4.24841 70.8364 4.07839V3.78125C71.2609 3.78125 72.62 3.82362 72.9598 3.82362C73.2572 3.82362 74.4889 3.78125 74.9134 3.78125V4.12075C74.5313 4.20576 74.1068 4.41816 74.1068 4.8003C74.1068 5.09771 74.2765 5.43748 74.6163 6.1594L77.6737 13.0814L80.5614 6.1594C80.7738 5.60723 80.9435 5.18272 80.9435 4.84295C80.9435 4.4608 80.604 4.20577 80.1369 4.12103V3.78152C80.519 3.78152 81.453 3.82389 81.7505 3.82389C82.0055 3.82389 83.1095 3.78152 83.534 3.78152V4.12103C82.8121 4.33342 82.3873 4.71556 81.9626 5.64987L77.7161 15.6296H76.8244L72.1529 5.22509Z" fill="black" fill-opacity="0.3"/>
<path d="M31.1292 15.205C31.6814 15.0776 32.0635 14.8229 32.0635 14.1857V5.09762C32.0635 4.50308 31.6814 4.24832 31.1292 4.0783V3.7388C31.4266 3.7388 32.6581 3.78117 32.9555 3.78117C33.2952 3.78117 34.6117 3.7388 34.9088 3.7388V4.0783C34.3567 4.20568 33.9322 4.46044 33.9322 5.09762V8.91959H40.7271V5.09762C40.7271 4.46071 40.3873 4.20568 39.7928 4.0783V3.7388C40.0902 3.7388 41.364 3.78117 41.7464 3.78117C42.0435 3.78117 43.3176 3.7388 43.615 3.7388V4.0783C43.0629 4.20568 42.6383 4.46044 42.6383 5.09762V14.228C42.6383 14.8226 43.0205 15.0776 43.615 15.2474V15.5448C43.3179 15.5448 42.0438 15.5024 41.7464 15.5024C41.4066 15.5024 40.0902 15.5448 39.7928 15.5448V15.2474C40.3447 15.12 40.7271 14.8652 40.7271 14.228V9.89627H33.9319V14.228C33.9319 14.865 34.314 15.0776 34.9086 15.2474V15.5448C34.6112 15.5448 33.2947 15.5024 32.9552 15.5024C32.6578 15.5024 31.384 15.5448 31.129 15.5448V15.205H31.1292ZM45.4831 15.205C46.205 15.035 46.6298 14.5678 46.9269 13.8885L50.7065 4.84286C50.8763 4.46071 51.0463 3.69615 51.0463 3.69615H52.108C52.108 3.69615 52.278 4.46044 52.4478 4.84286L56.4398 13.9309C56.7372 14.5678 57.0343 14.9926 57.8412 15.205V15.5021C57.4165 15.5021 56.0576 15.4598 55.7602 15.4598C55.4628 15.4598 54.189 15.5021 53.7642 15.5021V15.205C54.3588 15.0776 54.5288 14.7802 54.5288 14.4831C54.5288 14.2283 54.4438 13.9736 54.3164 13.6761L53.4671 11.7652H49.0503L48.286 13.7185C48.201 13.9309 48.0736 14.2707 48.0736 14.4828C48.0736 14.8226 48.2437 15.0776 48.9232 15.2474V15.5448C48.5408 15.5448 47.5217 15.5024 47.267 15.5024L45.5684 15.5448L45.4831 15.205ZM52.9999 10.8309L51.1313 6.45671L49.3901 10.8309H52.9999ZM45.4831 15.205C46.205 15.035 46.6298 14.5678 46.9269 13.8885L50.7065 4.84286C50.8763 4.46071 51.0463 3.69615 51.0463 3.69615H52.108C52.108 3.69615 52.278 4.46044 52.4478 4.84286L56.4398 13.9309C56.7372 14.5678 57.0343 14.9926 57.8412 15.205V15.5021C57.4165 15.5021 56.0576 15.4598 55.7602 15.4598C55.4628 15.4598 54.189 15.5021 53.7642 15.5021V15.205C54.3588 15.0776 54.5288 14.7802 54.5288 14.4831C54.5288 14.2283 54.4438 13.9736 54.3164 13.6761L53.4671 11.7652H49.0503L48.286 13.7185C48.201 13.9309 48.0736 14.2707 48.0736 14.4828C48.0736 14.8226 48.2437 15.0776 48.9232 15.2474V15.5448C48.5408 15.5448 47.5217 15.5024 47.267 15.5024L45.5684 15.5448L45.4831 15.205ZM52.9999 10.8309L51.1313 6.45671L49.3901 10.8309H52.9999ZM82.8117 15.205C83.5337 15.035 83.9584 14.5678 84.2132 13.8885L87.9928 4.84286C88.1628 4.46071 88.3323 3.69615 88.3323 3.69615H89.3943C89.3943 3.69615 89.5643 4.46044 89.7338 4.84286L93.7258 13.9309C94.0229 14.5678 94.3203 14.9926 95.1272 15.205V15.5021C94.7024 15.5021 93.3436 15.4598 93.0462 15.4598C92.7491 15.4598 91.475 15.5021 91.0505 15.5021V15.205C91.645 15.0776 91.8148 14.7802 91.8148 14.4831C91.8148 14.2283 91.73 13.9736 91.6027 13.6761L90.7531 11.7652H86.3366L85.572 13.7185C85.4873 13.9309 85.3599 14.2707 85.3599 14.4828C85.3599 14.8226 85.5299 15.0776 86.1668 15.2474V15.5448C85.7844 15.5448 84.7654 15.5024 84.553 15.5024L82.8117 15.5448V15.205ZM90.2862 10.8309L88.4176 6.45671L86.6766 10.8309H90.2862ZM109.991 15.205C110.713 15.0776 111.095 14.7802 111.095 14.1433V5.09789C111.095 4.46098 110.713 4.20595 110.033 4.07857V3.73907C110.415 3.73907 111.732 3.78143 112.072 3.78143C112.666 3.78143 114.28 3.65405 115.511 3.65405C119.716 3.65405 122.221 5.98983 122.221 9.55704C122.221 12.9969 119.588 15.5874 115.257 15.5874C114.025 15.5874 112.496 15.5024 111.944 15.5024C111.604 15.5024 110.373 15.5448 109.991 15.5448L109.991 15.205ZM113.006 14.6105C113.431 14.6952 114.238 14.7378 114.832 14.7378C118.357 14.7378 120.183 12.6145 120.183 9.68415C120.183 6.62646 118.272 4.46071 114.96 4.46071C114.28 4.46071 113.431 4.50308 113.007 4.58809V14.6105H113.006Z" fill="black" fill-opacity="0.3"/>
<path d="M62.5137 14.1424C62.5137 14.7372 62.8962 15.0767 63.6181 15.2468V15.5865C63.2357 15.5865 61.9616 15.5442 61.5794 15.5442C61.2823 15.5442 60.0082 15.5865 59.6258 15.5865V15.2468C60.263 15.1194 60.6875 14.7796 60.6875 14.1424V5.09702C60.6875 4.54486 60.3901 4.20508 59.6258 4.0777V3.7382C60.0082 3.7382 61.2397 3.78056 61.6218 3.78056C62.2163 3.78056 63.8299 3.69556 64.4671 3.69556C67.27 3.69556 68.8412 4.84226 68.8412 6.83799C68.8412 8.4092 67.6524 9.47089 65.8686 9.89568C65.8686 9.89568 66.2934 10.1504 66.6755 10.6176C67.185 11.2121 68.5865 13.1655 69.1387 13.845C69.6908 14.5246 70.4127 15.2891 71.177 15.3315V15.5865C70.7949 15.6713 70.2427 15.7139 69.7758 15.7139C68.7991 15.7139 68.0346 15.3742 67.3127 14.4822C66.6755 13.7179 65.5291 12.0617 64.8495 11.2124C64.425 10.7029 63.9579 10.2781 63.0233 10.1507C62.8535 10.1083 62.6838 10.1083 62.4714 10.066V14.1427H62.5137V14.1424ZM62.5137 9.34378C62.8962 9.38615 63.4481 9.42852 64.0002 9.42852C66.2086 9.42852 66.8879 8.15444 66.8879 7.05038C66.8879 5.47916 65.8262 4.45984 63.9152 4.45984C63.5331 4.45984 62.9385 4.50221 62.5564 4.58722V9.34351L62.5137 9.34378Z" fill="black" fill-opacity="0.3"/>
<path d="M99.63 14.1424C99.63 14.7372 100.012 15.0767 100.734 15.2468V15.5865C100.352 15.5865 99.0779 15.5442 98.6954 15.5442C98.3983 15.5442 97.1242 15.5865 96.7421 15.5865V15.2468C97.3793 15.1194 97.8038 14.7796 97.8038 14.1424V5.09702C97.8038 4.54486 97.5066 4.20508 96.7847 4.0777V3.7382C97.1669 3.7382 98.3983 3.78056 98.7805 3.78056C99.375 3.78056 100.989 3.69556 101.626 3.69556C104.429 3.69556 106 4.84226 106 6.83799C106 8.4092 104.811 9.47089 103.027 9.89568C103.027 9.89568 103.452 10.1504 103.834 10.6176C104.344 11.2121 105.703 13.1655 106.255 13.845C106.807 14.5246 107.529 15.2891 108.294 15.3315V15.5865C107.911 15.6713 107.359 15.7139 106.892 15.7139C105.915 15.7139 105.151 15.3742 104.429 14.4822C103.792 13.7179 102.688 12.0617 102.051 11.2124C101.627 10.7029 101.159 10.2781 100.225 10.1507C100.055 10.1083 99.885 10.1083 99.6727 10.066V14.1427H99.63V14.1424ZM99.63 9.34378C100.012 9.38615 100.564 9.42852 101.116 9.42852C103.325 9.42852 104.004 8.15444 104.004 7.05038C104.004 5.47916 102.942 4.45984 101.031 4.45984C100.649 4.45984 100.055 4.50221 99.6724 4.58722V9.34351L99.63 9.34378Z" fill="black" fill-opacity="0.3"/>
<path d="M81.1152 25.6511H81.2853C81.3703 25.9909 81.5824 26.2883 81.8374 26.5004C82.1346 26.7128 82.5594 26.7975 82.9415 26.7975C83.7484 26.7975 84.2579 26.4154 84.2579 25.7782C84.2579 25.1413 83.621 24.8439 82.8565 24.4618C82.262 24.1646 81.1152 23.7399 81.1152 22.5932C81.1152 21.5738 81.9222 20.8943 83.1539 20.8943C83.9605 20.8943 84.3853 21.1067 84.9372 21.064V22.2955H84.7251C84.5127 21.5736 83.8334 21.3188 83.1115 21.3188C82.3046 21.3188 81.9645 21.786 81.9645 22.2531C81.9645 22.9324 82.7291 23.3148 83.4086 23.6546C84.2582 24.0367 85.1499 24.4615 85.1499 25.5232C85.1499 26.5422 84.3853 27.2218 82.9415 27.2218C82.0919 27.2218 81.5824 27.0094 81.1152 26.9244V25.6511Z" fill="black" fill-opacity="0.3"/>
<path d="M93.9409 26.9259C94.238 26.8412 94.408 26.7136 94.408 26.4164V21.7025C94.408 21.4051 94.238 21.278 93.9409 21.193V21.0229C94.0683 21.0229 94.7478 21.0653 94.9176 21.0653C95.0876 21.0653 95.7671 21.0229 95.9366 21.0229V21.193C95.6395 21.278 95.4271 21.4054 95.4271 21.7025V23.6561H98.9093V21.7025C98.9093 21.3627 98.7393 21.2354 98.4422 21.193V21.0229C98.6122 21.0229 99.2488 21.0653 99.4612 21.0653C99.6312 21.0653 100.268 21.0229 100.438 21.0229V21.193C100.141 21.278 99.9286 21.4054 99.9286 21.7025V26.4164C99.9286 26.7138 100.141 26.8412 100.438 26.9259V27.0957C100.311 27.0957 99.6312 27.0957 99.4612 27.0957C99.2914 27.0957 98.6119 27.0957 98.4422 27.0957V26.9259C98.7393 26.8412 98.9093 26.7136 98.9093 26.4164V24.1657H95.4271V26.3738C95.4271 26.7136 95.6395 26.7986 95.9366 26.8833V27.0533C95.8095 27.0533 95.0873 27.0533 94.9176 27.0533C94.7478 27.0533 94.1109 27.0533 93.9409 27.0533V26.9259Z" fill="black" fill-opacity="0.3"/>
<path d="M92.2414 25.5658L92.1564 26.9247C91.689 26.8823 91.0523 27.2221 89.9906 27.2221C87.7399 27.2221 86.7206 25.8632 86.7206 24.0794C86.7206 22.2107 88.037 20.8943 89.9483 20.8943C90.8826 20.8943 91.4771 21.2341 92.0717 21.1914L92.114 22.5503H91.944C91.6045 21.7433 90.7973 21.3612 89.9483 21.3612C88.5468 21.3612 87.7823 22.5929 87.7823 24.0791C87.7823 25.3108 88.3771 26.797 90.0757 26.797C91.01 26.797 91.7319 26.4572 92.029 25.5656L92.2414 25.5658Z" fill="black" fill-opacity="0.3"/>
<path d="M101.924 24.0794C101.924 22.3381 103.156 20.8943 105.067 20.8943C106.978 20.8943 108.21 22.3381 108.21 24.0794C108.21 25.8206 106.978 27.2221 105.067 27.2221C103.113 27.2221 101.924 25.8206 101.924 24.0794ZM107.105 24.0794C107.105 22.6779 106.468 21.3191 105.067 21.3191C103.623 21.3191 102.986 22.6355 102.986 24.0794C102.986 25.4808 103.623 26.7973 105.067 26.7973C106.468 26.7973 107.105 25.4808 107.105 24.0794Z" fill="black" fill-opacity="0.3"/>
<path d="M109.568 24.0794C109.568 22.3381 110.799 20.8943 112.71 20.8943C114.621 20.8943 115.853 22.3381 115.853 24.0794C115.853 25.8206 114.621 27.2221 112.71 27.2221C110.757 27.2221 109.568 25.8206 109.568 24.0794ZM114.749 24.0794C114.749 22.6779 114.112 21.3191 112.71 21.3191C111.266 21.3191 110.629 22.6355 110.629 24.0794C110.629 25.4808 111.266 26.7973 112.71 26.7973C114.112 26.7973 114.749 25.4808 114.749 24.0794Z" fill="black" fill-opacity="0.3"/>
<path d="M40.6442 21.022H44.4662C44.5936 21.022 44.8059 21.022 44.8907 20.9373H45.0604L45.0181 22.169H44.8483C44.7209 21.7868 44.5085 21.4894 43.7443 21.4894H42.1304V23.6975C42.1304 23.6975 43.3618 23.6975 43.4469 23.6975C43.6166 23.6975 43.8714 23.6975 43.9564 23.6552C44.2538 23.6128 44.3809 23.4428 44.4235 23.188H44.5933C44.5933 23.3578 44.5933 23.7825 44.5933 23.9099C44.5933 24.0373 44.5933 24.4621 44.5933 24.6745H44.4235C44.3385 24.4194 44.2111 24.2497 43.9564 24.165C43.8714 24.1226 43.6166 24.1226 43.4469 24.1226C43.3618 24.1226 42.1304 24.1226 42.1304 24.1226V26.5858H43.9564C44.7207 26.5858 44.9757 26.246 45.1454 25.7791L45.3152 25.8215L45.1454 27.0953C44.5509 27.0529 44.2111 27.0529 43.5742 27.0529H41.6206C41.4509 27.0529 40.7713 27.0953 40.5589 27.0953V26.9255C40.8987 26.8408 41.1111 26.7131 41.1111 26.3733V21.7018C41.1111 21.4044 40.9413 21.2347 40.5589 21.1496V21.0223H40.6442V21.022Z" fill="black" fill-opacity="0.3"/>
<path d="M55.253 21.7437C55.253 21.4463 55.0832 21.2765 54.7008 21.1915V21.0215C54.9132 21.0215 55.5925 21.0639 55.7625 21.0639C55.9325 21.0639 56.6118 21.0215 56.8242 21.0215V21.1915C56.4418 21.2765 56.272 21.4039 56.272 21.7437V26.3726C56.272 26.67 56.4418 26.8397 56.8242 26.9247V27.0945C56.6118 27.0945 55.9749 27.0521 55.7625 27.0521C55.5928 27.0521 54.9132 27.0945 54.7008 27.0945V26.9247C55.083 26.84 55.253 26.7124 55.253 26.3726V21.7437Z" fill="black" fill-opacity="0.3"/>
<path d="M64.6366 26.9259C65.0187 26.8411 65.2311 26.5861 65.3582 26.2463L67.3118 21.5748C67.3968 21.3624 67.4818 20.9802 67.4818 20.9802H68.034C68.034 20.9802 68.119 21.3624 68.2038 21.5748L70.2424 26.2463C70.3698 26.5861 70.5395 26.7985 70.9643 26.9259V27.0956C70.7519 27.0956 70.03 27.0956 69.9024 27.0956C69.7326 27.0956 69.0957 27.0956 68.8833 27.0956V26.9259C69.1807 26.8411 69.2657 26.7135 69.2657 26.5437C69.2657 26.4163 69.2233 26.289 69.1383 26.1192L68.7138 25.1425H66.4631L66.0806 26.1616C66.0385 26.289 65.9956 26.459 65.9956 26.5437C65.9956 26.7137 66.0807 26.8411 66.4204 26.9259V27.0956C66.208 27.0956 65.6985 27.0956 65.5709 27.0956H64.6792L64.6366 26.9259ZM68.5435 24.6327L67.5669 22.382L66.6749 24.6327H68.5435Z" fill="black" fill-opacity="0.3"/>
<path d="M63.8304 25.5658L63.7454 26.9247C63.2782 26.8823 62.6413 27.2221 61.5796 27.2221C59.3288 27.2221 58.3095 25.8632 58.3095 24.0794C58.3095 22.2107 59.626 20.8943 61.537 20.8943C62.4715 20.8943 63.0661 21.2341 63.6604 21.1914L63.703 22.5503H63.533C63.1935 21.7433 62.3863 21.3612 61.537 21.3612C60.1355 21.3612 59.3712 22.5929 59.3712 24.0791C59.3712 25.3108 59.9658 26.797 61.6644 26.797C62.5987 26.797 63.3206 26.4572 63.618 25.5656L63.8304 25.5658Z" fill="black" fill-opacity="0.3"/>
<path d="M76.7402 25.8207C76.5278 26.2878 76.3157 26.6276 75.5511 26.6276H73.6825V21.7437C73.6825 21.4039 73.8525 21.2765 74.2347 21.1915V21.0215C74.0223 21.0215 73.343 21.0639 73.173 21.0639C73.0029 21.0639 72.3234 21.0215 72.1113 21.0215V21.1915C72.4934 21.2765 72.6635 21.4463 72.6635 21.7437V26.3726C72.6635 26.7124 72.4934 26.8821 72.1113 26.9247V27.0945C72.3234 27.0945 73.0029 27.0521 73.173 27.0521H75.1266C75.7635 27.0521 76.1456 27.0521 76.6978 27.0945L76.8678 25.8207H76.7402Z" fill="black" fill-opacity="0.3"/>
<path d="M121.839 25.8207C121.627 26.2878 121.414 26.6276 120.65 26.6276H118.824V21.7437C118.824 21.4039 118.994 21.2765 119.376 21.1915V21.0215C119.164 21.0215 118.484 21.0639 118.314 21.0639C118.144 21.0639 117.465 21.0215 117.252 21.0215V21.1915C117.635 21.2765 117.805 21.4463 117.805 21.7437V26.3726C117.805 26.7124 117.635 26.8821 117.252 26.9247V27.0945C117.465 27.0945 118.144 27.0521 118.314 27.0521H120.268C120.905 27.0521 121.287 27.0521 121.839 27.0945L122.009 25.8207H121.839Z" fill="black" fill-opacity="0.3"/>
<path d="M47.0131 26.9259C47.3953 26.8411 47.5653 26.7135 47.5653 26.3737V21.7021C47.5653 21.3624 47.3529 21.235 47.0131 21.1926V21.0226C47.2255 21.0226 47.9048 21.065 48.0748 21.065C48.3722 21.065 49.1789 20.9802 49.816 20.9802C51.9818 20.9802 53.2982 22.1693 53.2982 24.0379C53.2982 25.8215 51.9391 27.1383 49.731 27.1383C49.0941 27.1383 48.3722 27.0956 48.0748 27.0956C47.905 27.0956 47.2681 27.1383 47.0555 27.1383V26.9259H47.0131ZM48.542 26.6287C48.7543 26.6711 49.1365 26.6711 49.4339 26.6711C51.2599 26.6711 52.1942 25.6521 52.1942 24.0382C52.1942 22.467 51.2175 21.3626 49.5186 21.3626C49.1789 21.3626 48.7967 21.405 48.542 21.4477V26.6287Z" fill="black" fill-opacity="0.3"/>
<path d="M38.3933 26.2452L38.0959 21.7437C38.0535 21.4463 38.2233 21.2765 38.5631 21.1915V21.0215C38.3083 21.0215 37.9262 21.0215 37.7561 21.0215C37.6288 21.0215 37.3314 21.0215 37.119 21.0215L35.123 25.693L33.127 21.0215C32.9146 21.0215 32.6174 21.0215 32.4474 21.0215C32.32 21.0215 31.8529 21.0215 31.5981 21.0215V21.1915C31.9379 21.2339 32.1076 21.4463 32.1076 21.7437L31.7679 26.2452C31.7255 26.585 31.5555 26.8397 31.1733 26.9671V27.1371H32.0226C32.15 27.1371 32.6595 27.1371 32.8719 27.1371V26.9671C32.4472 26.8397 32.3624 26.6276 32.3624 26.3302L32.6172 22.3382L34.6982 27.1371H35.038L37.1187 22.3382L37.3735 26.3726C37.3735 26.6276 37.2884 26.8821 36.8639 27.0095V27.1792C37.0763 27.1792 37.7982 27.1792 37.9256 27.1792H38.9873V27.0095C38.6057 26.84 38.4357 26.6276 38.3933 26.2452Z" fill="black" fill-opacity="0.3"/>
<path d="M12.7002 0.171387H0.0449196L0.00254822 10.2785C0.00254822 22.679 12.4454 30.5777 12.5728 30.6627L12.6152 30.7051C12.6575 30.7051 12.7426 30.6627 12.7426 30.6627C14.8659 29.2613 25.3978 21.7871 25.3978 10.3635V0.213758C25.3555 0.171388 12.7002 0.171387 12.7002 0.171387ZM25.3131 9.13207H0.257581V7.68823H25.3131V9.13207Z" fill="black" fill-opacity="0.3"/>
<path d="M4.29227 1.40199C5.14157 1.06222 6.07588 1.31698 7.01019 1.23197C7.26495 1.27434 7.60473 1.10459 7.77475 1.35935C7.77475 1.61411 7.77475 1.86887 7.77475 2.16628C7.85976 2.37867 8.15689 2.25129 8.28427 2.3363C8.36928 2.37867 8.45402 2.42105 8.49666 2.5487C8.53903 2.67608 8.49666 2.80346 8.45429 2.93084C8.28454 3.10059 8.07215 3.05822 7.81739 3.10059L7.73238 3.18561C7.77475 3.69513 7.64737 4.11991 7.73238 4.58706C7.73238 4.6718 7.68973 4.84182 7.81739 4.88447C8.07215 4.88447 8.28454 4.88447 8.45429 5.05422C8.5393 5.1816 8.5393 5.30899 8.49666 5.47901C8.41165 5.98853 7.60472 5.39399 7.68973 5.98853C7.68973 6.20092 7.73237 6.49806 7.64736 6.71045C6.71305 6.71045 5.77875 6.62544 4.92945 6.71045C4.7597 6.83783 4.58967 6.92284 4.33491 6.96521C4.16516 6.92284 3.99514 6.83783 3.86776 6.71045C3.01846 6.66808 2.21153 6.66808 1.4046 6.66808C1.14984 6.45569 1.31959 6.07354 1.23485 5.77614C1.10747 5.60639 0.895077 5.73377 0.725326 5.64876C0.597944 5.64876 0.555579 5.52138 0.512938 5.43636C0.512938 5.26634 0.512936 5.09659 0.640317 4.96921C0.767699 4.88447 0.980085 4.88447 1.14984 4.88447L1.23485 4.79946C1.19248 4.24729 1.31986 3.6954 1.19248 3.10086C1.10747 2.97348 0.937716 3.10087 0.852705 3.01585C0.725324 2.97348 0.555308 2.88847 0.512938 2.71872C0.470568 2.59133 0.470565 2.46396 0.597946 2.33658C0.767697 2.12418 1.10747 2.37894 1.27749 2.16655L1.36251 1.35962C1.48989 1.10486 1.78729 1.23224 2.04205 1.23224C2.46683 1.1475 2.97636 1.23224 3.40088 1.23224C3.74011 1.23224 4.03751 1.31725 4.29227 1.40199Z" fill="black" fill-opacity="0.3"/>
<path d="M5.438 10.2783L5.39563 10.4481C5.39563 10.5331 5.31061 10.6181 5.22587 10.5755L4.8861 10.5331C4.75872 10.4907 4.63134 10.4481 4.50396 10.4907C4.46159 10.5331 4.37658 10.5757 4.29156 10.6605C4.33393 10.6605 4.33394 10.7031 4.33394 10.7031C4.41895 10.7455 4.5887 10.7878 4.63134 11.0002C4.63134 11.17 4.71635 11.2976 4.80109 11.3824L4.84346 11.4674C4.88583 11.5098 4.88583 11.5524 4.88583 11.5948C4.88583 11.6371 4.88583 11.6371 4.84346 11.6798L4.67371 11.8922L4.5887 11.9769C4.5887 11.9769 4.50369 12.1893 4.46132 12.274C4.50369 12.3591 4.54633 12.4014 4.5887 12.4014C4.75845 12.3591 4.8861 12.4014 5.01348 12.4014L5.26825 12.4438H5.31062H5.39563C5.48064 12.4438 5.65039 12.4014 5.77777 12.4862C5.77777 12.4862 5.90515 12.6986 5.90515 12.7412C5.94752 12.8259 5.94752 12.8686 5.94752 12.9536C5.94752 13.0386 5.94752 13.1233 5.90515 13.2084L5.86278 13.3357C5.86278 13.3781 5.86278 13.4207 5.82041 13.4207C5.60802 13.7605 5.31089 14.0153 4.92847 14.185C4.97084 14.185 4.97084 14.185 4.97084 14.185C4.97084 14.185 4.97084 14.185 4.97084 14.2274C5.01321 14.2698 5.14059 14.2698 5.26797 14.2274H5.35298C5.52273 14.2274 5.65039 14.185 5.82014 14.1L6.28729 13.9726C6.3723 13.9303 6.41467 14.015 6.45704 14.0577C6.54205 14.2274 6.66943 14.3548 6.75417 14.4398C6.75417 14.4398 6.75418 14.4398 6.83919 14.3548C6.9242 14.27 7.09395 14.1424 7.30634 14.2274C7.30634 14.2274 7.34872 14.2274 7.34872 14.2698C7.51847 14.3972 7.5611 14.5672 7.60347 14.6943C7.64584 14.7793 7.64584 14.9067 7.73085 14.9493C7.77322 14.9917 7.77323 15.0341 7.77323 15.0341V15.0767C7.77323 15.2465 7.60347 15.3315 7.56083 15.3315H7.51847L7.47609 15.3738L7.09395 15.4588C6.96657 15.4588 6.83918 15.5012 6.75417 15.5439C6.75417 15.5439 6.75417 15.5862 6.79654 15.5862C6.9663 15.671 7.22133 15.7136 7.47609 15.756L7.60347 15.7983H7.90088H8.4104C8.49542 15.7983 8.49541 15.8407 8.53778 15.8834C8.58043 15.9257 8.53778 16.0107 8.49541 16.0531L8.4104 16.1805L8.36803 16.2231L7.5611 16.7753C7.51873 16.7753 7.09395 16.945 7.09395 16.945L6.45704 17.1998H6.41441C6.03226 17.2848 5.81987 17.0724 5.60747 16.945C5.48009 16.8177 5.35271 16.7327 5.18269 16.7327C5.05531 16.7327 4.92793 16.775 4.84292 16.86C4.80055 16.9024 4.80054 16.945 4.80054 17.0298C4.80054 17.0724 4.80054 17.0724 4.80054 17.1148H4.84292C4.92793 17.1572 5.09767 17.1998 5.09767 17.4122C5.09767 17.7093 4.9703 17.9217 4.84292 18.1341C4.7579 18.3039 4.63052 18.5163 4.63052 18.6863V18.7287C4.63052 18.7713 4.63052 18.8137 4.67289 18.8137H4.71554H4.75791L4.80027 18.7287C4.84264 18.6439 4.92766 18.5163 5.09741 18.4739H5.14005C5.47982 18.5163 5.64957 18.4739 5.77695 18.3465C5.81932 18.3041 5.86197 18.3041 5.86197 18.3041C5.94671 18.3041 6.07436 18.3041 6.1591 18.3889C6.24411 18.4739 6.28648 18.5589 6.28648 18.6439C6.28648 18.6439 6.28648 18.6863 6.28648 18.7287C6.49887 18.6863 6.62625 18.5163 6.79601 18.2618L6.88101 18.1344C6.92338 18.092 6.96602 18.0494 7.00839 18.0494L7.13578 18.007C7.30553 17.9646 7.47555 17.8796 7.68767 18.007C7.73031 18.0494 7.77268 18.092 7.77268 18.1344C7.77268 18.1768 7.77268 18.2191 7.77268 18.2618C7.77268 18.4315 7.68767 18.5589 7.6453 18.6863C7.6453 18.6863 7.60293 18.7713 7.60293 18.856C7.90033 18.7713 8.15509 18.5163 8.36749 18.2191L8.49487 18.0494C8.53724 17.9644 8.62225 17.752 8.87701 17.752H8.91938C9.04677 17.7943 9.08913 17.752 9.21651 17.5396L9.47128 17.2848C9.51365 17.2425 9.51365 17.2425 9.59866 17.2425H9.68367C9.72604 17.2425 9.76868 17.2425 9.81105 17.2848C9.85342 17.3272 9.85342 17.3272 9.85342 17.3696V17.6246C9.89606 17.6246 10.0232 17.5396 10.1082 17.5396L10.448 17.3272C10.4903 17.2848 10.533 17.2848 10.6177 17.3272L11.8918 17.667C12.1466 17.752 12.1892 17.922 12.1892 18.0917C12.1892 18.1341 12.1892 18.2191 12.1892 18.2191C12.1892 18.2618 12.1892 18.3041 12.1892 18.3465C12.1892 18.3889 12.1892 18.3889 12.2316 18.4315C12.2739 18.4739 12.2739 18.5163 12.2739 18.5589C12.2739 18.6013 12.2739 18.6013 12.2739 18.6439C12.2316 18.7713 12.1042 18.899 11.7644 18.899L11.1275 18.9413C10.618 18.9413 10.1085 18.9413 9.72604 19.2811L9.38627 19.6209C9.3439 19.6632 9.30126 19.6632 9.25889 19.6632C9.00412 19.6632 8.8341 19.7906 8.62171 19.9183C8.45196 20.0457 8.23956 20.173 7.9848 20.2154C7.81505 20.3004 7.60266 20.3004 7.43264 20.3004C7.26261 20.3004 7.17788 20.3004 7.13551 20.3428C7.30526 20.5552 7.60266 20.6399 7.89979 20.7249C7.94216 20.7249 8.06954 20.7676 8.06954 20.7676C8.19692 20.7676 8.40932 20.7676 8.49433 20.98C8.49433 20.98 8.49433 21.0223 8.49433 21.0647C8.49433 21.2347 8.5367 21.3197 8.62171 21.3197H8.66408C8.70645 21.2774 8.87647 21.1924 9.08886 21.3197C9.13123 21.3621 9.38599 21.6169 9.38599 21.6169L9.72577 21.9566C9.76814 21.999 9.76814 22.0837 9.72577 22.1264C9.59839 22.3812 9.30098 22.3388 9.13123 22.3388H9.00385H8.8341C8.57934 22.3811 8.1972 22.4662 7.94216 22.1264L7.98454 22.1688L7.60239 22.0414C7.39 21.8716 7.22024 21.7016 6.96548 21.7016C6.71072 21.7866 6.58334 21.8716 6.58334 21.9987L6.62571 22.0835L6.75309 22.2109C6.79546 22.2535 6.79546 22.2959 6.79546 22.2959C6.79546 22.2959 6.79546 22.2959 6.79546 22.3382C6.79546 22.3806 6.75309 22.4233 6.71045 22.4656C6.49806 22.593 6.24329 22.8054 6.24329 23.0602C6.24329 23.1028 6.24329 23.1452 6.24329 23.1452C6.24329 23.1452 6.24329 23.1452 6.24329 23.1875C6.28566 23.1875 6.3283 23.1452 6.3283 23.1452C6.41331 23.1028 6.58306 23.0602 6.75309 23.1452C6.79546 23.1875 6.8381 23.2302 6.8381 23.2725V23.4849C6.8381 23.6973 6.88074 23.7823 6.92311 23.8671C6.96548 23.8671 7.00813 23.8247 7.00813 23.8247C7.13551 23.7397 7.39027 23.655 7.64503 23.8247C7.6874 23.8247 7.77241 23.8247 7.89979 23.7397L8.15455 23.6123C8.19692 23.6123 8.19692 23.6123 8.19692 23.6123C8.62171 23.6123 8.83383 23.9945 8.91884 24.2492C9.13123 24.419 9.30098 24.5043 9.42836 24.4616V24.419C9.42836 24.3766 9.42836 24.3342 9.42836 24.2492C9.42836 24.2069 9.38599 24.1218 9.38599 24.0368C9.38599 23.8671 9.42836 23.6971 9.6834 23.6123C9.72577 23.6123 10.1082 23.5697 10.1082 23.5697H10.3629H10.4053C10.7875 23.6123 11.0849 23.6123 11.2122 23.3573C11.2122 23.3573 11.5096 22.8901 11.552 22.8054C11.552 22.763 11.5947 22.508 11.5947 22.508C11.5947 22.4233 11.637 22.3806 11.722 22.3806C11.8494 22.3382 12.0194 22.3806 12.1042 22.423C12.1042 22.423 12.1466 22.423 12.1892 22.4653C12.1042 22.253 12.0618 22.0406 12.0618 21.8282C12.0618 21.7008 12.0618 21.6158 12.1042 21.4884C12.1892 21.191 12.3166 20.9362 12.4863 20.7238C12.5287 20.6815 12.6137 20.6391 12.6987 20.6815L12.7837 20.7238C12.8261 20.7665 12.8687 20.8089 12.9111 20.8512L12.9961 21.276C13.0385 21.5308 13.0811 21.7855 13.2085 22.0403C13.2085 22.0827 13.2509 22.0827 13.2085 22.1253L13.0388 22.7198L12.9114 23.187C12.784 23.6542 12.4866 23.9939 12.0621 24.206V24.2484C12.0621 24.2484 12.1471 24.2484 12.2318 24.2484C12.2318 24.2484 12.3592 24.2484 12.4016 24.2484C12.8687 24.206 13.2933 23.9513 13.633 23.6115C13.6754 23.5689 13.7604 23.5265 13.8028 23.5689C13.8878 23.6115 13.9725 23.5689 14.1002 23.4841C14.2276 23.3991 14.4823 23.2717 14.7371 23.4418C14.8221 23.5265 14.9919 23.5265 15.1619 23.4841C15.4166 23.4841 15.8414 23.4418 15.9264 23.9086V23.9937V24.206C15.9688 24.4184 16.0114 24.8429 15.5443 24.9706C15.5019 24.9706 15.5019 24.9706 15.4593 24.9706L14.9921 24.8008C14.61 24.6308 14.4402 24.5885 14.2702 24.8008C14.2278 24.8432 14.1852 24.9282 14.1852 24.9706C14.2276 25.098 14.3976 25.3527 14.1852 25.5651C14.0578 25.7775 13.9728 25.9046 14.0578 26.0747C14.0578 26.0747 14.1002 26.117 14.2276 26.0747C14.3973 25.9899 14.6097 26.0747 14.7797 26.117L14.9921 26.202C15.0348 26.202 15.0771 26.2444 15.0771 26.2444L15.1621 26.287C15.3319 26.4144 15.4595 26.4995 15.6293 26.5418V26.4995L15.7143 26.287C15.7567 26.2444 16.0117 26.117 16.0117 26.117C16.1815 26.032 16.2241 26.032 16.2241 25.9473C16.2665 25.6499 16.4789 25.3527 16.7763 25.1827C16.8186 25.1827 16.8613 25.1403 16.9037 25.1403C16.9887 25.1403 17.2011 25.0553 17.2858 24.9703V24.928L17.2008 24.843C17.1581 24.8006 17.1581 24.7579 17.1158 24.7579C17.1158 24.7156 17.1158 24.6732 17.1158 24.6305C17.1158 24.4182 17.2432 24.2484 17.3282 24.0784C17.4132 23.951 17.4555 23.8236 17.4555 23.7386C17.4555 23.6962 17.4556 23.6539 17.4132 23.5686C17.4132 23.5262 17.3708 23.5262 17.3708 23.5262L17.3284 23.2291C17.2861 23.0167 17.2861 22.8893 17.1587 22.7619L16.8189 22.5922L16.6915 22.4648C16.6065 22.4224 16.6065 22.3798 16.6065 22.2948C16.6065 22.125 16.6915 22.04 16.9037 21.9974H16.946C17.1584 21.9124 17.3708 21.9974 17.5406 22.0821C17.7103 22.1248 17.753 22.1248 17.7953 22.1248C17.753 21.9974 17.6256 21.87 17.5406 21.7426C17.3282 21.6152 17.0734 21.5302 16.8186 21.4879C16.3939 21.4028 15.9693 21.2755 15.7146 20.8933C15.6722 20.851 15.6722 20.8086 15.6722 20.7659C15.6722 20.7233 15.6722 20.6809 15.7146 20.6386L15.757 20.5962C15.7993 20.5538 15.8843 20.5538 15.927 20.5538C16.4365 20.6812 16.946 20.5538 17.2858 20.2567C17.4982 20.0017 17.753 19.6619 18.1351 19.5348C18.4322 19.3224 18.4749 18.9402 18.4749 18.4731C18.4749 18.218 18.6023 18.0483 18.772 17.8783L19.1542 17.7085C19.2815 17.6662 19.3239 17.6661 19.3239 17.6238C19.1115 17.5388 18.8567 17.4114 18.6444 17.4538C18.602 17.4538 18.5593 17.4538 18.517 17.4114C18.3896 17.3688 18.3896 17.284 18.3472 17.199V17.1566C18.3472 17.0292 18.4322 16.9442 18.517 16.9019L18.5593 16.8595L18.6017 16.8171L18.9839 16.6047C19.4934 16.3073 19.8332 16.1376 19.8332 15.7131V15.6704C19.7908 15.7131 19.7058 15.7131 19.6634 15.7978L19.3236 15.9676C19.0689 16.0949 18.7715 16.1799 18.5167 16.2226C18.2193 16.265 17.9645 16.35 17.7521 16.4773C17.7098 16.4773 17.7098 16.5197 17.6671 16.5197C17.5821 16.5197 17.4547 16.4773 17.4547 16.35C17.4547 16.3076 17.4547 16.265 17.4547 16.2226C17.4547 16.1376 17.4971 16.0526 17.5398 16.0102C17.6248 15.8828 17.7521 15.7978 17.8795 15.7554C18.0493 15.6704 18.1343 15.6281 18.1766 15.5007L18.219 15.3733C18.304 15.1609 18.3888 14.8638 18.6862 14.7364C18.7285 14.7364 18.9409 14.609 18.9409 14.609C18.9833 14.609 19.0259 14.5666 19.0259 14.5666C19.0259 14.5666 19.0259 14.5666 18.9836 14.5243C18.5588 14.3969 18.1343 14.7367 17.8795 14.949L17.8371 14.9914L17.6248 15.0338C17.3274 15.1612 17.0302 15.2888 16.8602 15.5009C16.8602 15.5433 16.8178 15.5433 16.7752 15.5433C16.6902 15.5857 16.6054 15.5433 16.5204 15.5009C16.4354 15.4586 16.393 15.3736 16.393 15.2886C16.308 14.609 16.8602 14.0995 17.285 13.7171L17.37 13.6321L17.455 13.5897L17.7098 13.4623C17.9222 13.3349 18.1769 13.1649 18.5167 13.3349C18.7715 13.4623 18.9839 13.5473 19.1962 13.5047C19.3236 13.4623 19.4086 13.3349 19.536 13.1652C19.621 13.0378 19.7484 12.868 19.9182 12.7407C20.0879 12.6556 20.2579 12.7407 20.3853 12.7407C20.4277 12.7407 20.5551 12.783 20.5551 12.783L20.5974 12.7407V12.6983C20.5974 12.5709 20.5124 12.4433 20.385 12.2735L20.2153 12.0611C20.1727 12.0185 20.1727 12.0185 20.1727 11.9761C20.1727 11.9337 20.1727 11.9337 20.1727 11.8914C20.2153 11.764 20.2577 11.6363 20.2577 11.4666C20.2577 11.1268 20.1303 10.8297 19.8755 10.6173C19.7905 10.5749 19.6208 10.4899 19.4507 10.4899C19.4507 10.5323 19.4931 10.5749 19.4931 10.5749L19.6629 10.9147C19.6629 10.957 19.6629 10.9994 19.6629 11.0421C19.6629 11.8063 19.026 12.1461 18.4738 12.4009L18.0066 12.6556C16.9449 13.2078 15.5435 14.0571 15.4587 15.4586C15.4587 16.1805 15.7559 16.86 16.3507 17.4546C16.3507 17.4546 16.3507 17.4969 16.393 17.4969L16.6054 17.7943C16.8178 18.1341 17.0726 18.4739 17.0726 18.941C17.0726 19.0258 17.0726 19.1534 17.0302 19.2808C16.8605 19.7053 16.3507 19.7053 16.1809 19.7053C15.1192 19.6206 14.5671 18.5586 14.1426 17.7943L14.0575 17.667L13.9725 17.4972C13.8452 17.2425 13.7178 16.9877 13.7178 16.6903C13.7178 16.6479 13.7178 16.5632 13.7604 16.5632C13.8028 16.5205 13.9302 16.3931 14.1426 16.5205C14.1852 16.5205 14.3549 16.8179 14.3549 16.8179C14.3973 16.8603 14.3973 16.903 14.3973 16.9453C14.3973 16.903 14.4397 16.8603 14.4397 16.7756C14.4397 16.6055 14.3547 16.3934 14.2699 16.1808L14.2276 16.1384C14.1852 16.0534 14.0578 15.926 13.9302 15.841C13.7604 15.7139 13.5904 15.5439 13.5054 15.3315V15.2891C13.5054 15.2891 13.5054 15.2891 13.5054 15.2467C13.5054 14.992 13.7178 14.9493 13.8025 14.907H13.8449C13.7599 14.6522 13.7175 14.3548 13.7175 14.0577C13.7175 13.9303 13.7175 13.7602 13.7601 13.6329L14.0149 13.3781C14.0999 13.3357 14.0999 13.3357 14.0999 13.2931C14.0149 12.9957 14.0149 12.6562 14.0149 12.3588C14.0149 12.2314 14.0149 12.104 14.0149 11.9766C14.0149 11.9343 14.0999 11.6792 14.0999 11.6792C14.1423 11.5519 14.1849 11.4668 14.1849 11.3821C14.1849 11.3397 14.1849 11.3397 14.1849 11.2971C14.0152 11.2124 13.9725 10.9997 13.9725 10.915V10.8299C14.0149 10.8299 14.0149 10.8299 14.0149 10.8299C13.5901 10.8299 13.208 10.6599 12.8682 10.4902L12.5284 10.3201C12.4434 10.2778 12.3587 10.3201 12.231 10.4052L12.0186 10.4899L11.8062 10.5323C11.5938 10.5746 11.3815 10.6173 11.2541 10.7447C11.1691 10.8297 11.1691 10.9571 11.1691 11.1268V11.2542V11.2966C11.1264 11.4239 11.0417 11.4666 10.9993 11.4666C10.8719 11.5089 10.7869 11.4666 10.7019 11.4242H10.6595C10.3198 11.2545 10.1924 10.9147 10.2774 10.5749C10.2774 10.5325 10.235 10.4475 10.235 10.4475C10.15 10.4052 9.98026 10.3628 9.85288 10.4052C9.76787 10.4475 9.68313 10.5325 9.64049 10.7447C9.64049 10.7447 9.59811 10.787 9.59811 10.8297V10.872C9.59811 10.9994 9.64049 11.1268 9.68313 11.1692C9.81051 11.2966 10.0229 11.4242 10.2777 11.5516L10.8298 11.8487C10.8722 11.8914 10.8722 11.8914 10.8722 11.9337C10.8722 11.9761 10.9146 12.0611 10.9146 12.1037C10.9146 12.3161 10.8296 12.4433 10.7448 12.5709C10.7872 12.6133 10.9146 12.6983 10.9146 12.8683C10.9146 12.9107 10.9146 12.9107 10.9146 12.9533C10.9146 13.0383 10.8296 13.0807 10.7872 13.0807C10.4474 13.1657 10.1503 13.0807 9.89552 12.911L9.72577 12.6986C9.6834 12.6135 9.64076 12.5712 9.59839 12.5712C9.59839 12.5712 9.55602 12.6559 9.55602 12.6986L9.47101 12.8683C9.47101 12.8259 9.47101 12.9957 9.47101 12.9957C9.47101 13.1231 9.42864 13.2931 9.30126 13.4205C9.25889 13.4628 9.21625 13.4628 9.17388 13.4628H9.00413C8.32458 13.2504 7.73031 12.9107 7.05076 12.4012C6.75363 12.1888 6.54124 11.8916 6.32885 11.5942L6.1591 11.3818L6.11673 11.3395L6.07436 11.1271C5.94698 10.7026 5.86196 10.4475 5.56483 10.3628C5.48036 10.2783 5.438 10.2783 5.438 10.2783ZM4.54606 12.4441C4.58843 12.4441 4.58843 12.4441 4.63107 12.4441C4.5887 12.4441 4.5887 12.4441 4.54606 12.4441ZM10.6614 12.6991C10.7038 12.6565 10.7038 12.6565 10.7038 12.6141C10.7038 12.6141 10.6614 12.6565 10.6614 12.6991ZM13.9312 14.9499C13.9739 14.9499 13.9739 14.9499 13.9312 14.9499V14.9499ZM9.93952 17.7952C9.93952 17.7528 9.93952 17.7528 9.93952 17.7952V17.7952Z" fill="white"/>
<path d="M0.171127 10.2785C0.171127 7.30585 0.171127 4.03576 0.171127 0.171143H25.4393C25.4393 0.171143 25.4393 1.65762 25.4393 10.3206C25.4393 23.1036 12.699 30.6201 12.699 30.6201C12.699 30.6201 0.171127 22.7641 0.171127 10.2785Z" stroke="black" stroke-opacity="0.3" stroke-width="0.342267"/>
<path d="M17.7979 25.0144C17.7129 24.9294 17.6281 24.802 17.5855 24.7593C17.5005 24.2925 18.18 23.9951 17.8402 23.5279C17.7552 23.2308 17.8402 22.891 17.5428 22.6786C17.3305 22.5086 17.0757 22.4662 16.8633 22.3388C16.8633 22.2115 17.033 22.2541 17.0757 22.2115C17.4578 22.1267 17.7552 22.5512 18.0524 22.2115C18.0947 21.9567 17.84 21.7443 17.6702 21.5743C17.1181 21.1921 16.3111 21.3619 15.8866 20.7676L15.929 20.725C16.4385 20.8524 17.033 20.725 17.4155 20.3855C17.6278 20.0881 17.8826 19.7909 18.2224 19.7059C18.6045 19.4088 18.6472 18.9416 18.6472 18.5169C18.6472 18.3471 18.7322 18.1771 18.8596 18.0497C19.072 17.8797 19.5815 17.9223 19.4541 17.5399C19.1567 17.3702 18.8596 17.2428 18.5622 17.2851C18.3924 17.2001 18.6045 17.0728 18.6472 17.0301C19.1567 16.6903 20.0063 16.4779 19.9636 15.6713C19.9213 15.5866 19.9213 15.4589 19.7939 15.4589C19.5815 15.5013 19.4117 15.7139 19.1993 15.7987C18.6898 16.0958 18.0953 16.0111 17.5855 16.3082C17.5005 16.3082 17.5005 16.1808 17.5431 16.1384C17.7129 15.8837 18.0953 15.8837 18.2227 15.5439C18.3077 15.2891 18.35 14.9494 18.6474 14.8644C18.8172 14.737 19.0722 14.737 19.157 14.5246C19.157 14.3972 18.9872 14.3546 18.9022 14.3122C18.435 14.1848 17.9679 14.4396 17.6281 14.7794C17.2884 14.9494 16.8636 15.0768 16.6088 15.3315C16.5664 15.3315 16.4814 15.3315 16.4814 15.2468C16.3964 14.5672 16.9909 14.1001 17.4581 13.7179C17.7552 13.6329 18.0526 13.2508 18.3924 13.4205C18.6472 13.5479 18.9019 13.6753 19.1993 13.5903C19.5815 13.4629 19.6241 13.0384 19.9639 12.826C20.2187 12.7412 20.5584 13.1234 20.7285 12.7413C20.8135 12.3591 20.5161 12.1464 20.3463 11.892C20.5587 11.3822 20.3887 10.7876 19.9642 10.4055C19.7518 10.2781 19.497 10.1931 19.2846 10.2781C19.1149 10.4905 19.4546 10.6602 19.4546 10.8726C19.5397 11.8069 18.5203 12.0193 17.8834 12.4438C16.7367 13.0387 15.3353 13.9303 15.2505 15.4165C15.2505 16.2235 15.6327 16.9877 16.1848 17.5399C16.482 18.0497 16.9494 18.5166 16.7794 19.1961C16.652 19.4509 16.3546 19.4933 16.0998 19.4933C15.1231 19.4085 14.571 18.3042 14.1462 17.5396C14.0188 17.2425 13.8491 16.9451 13.8064 16.6053C13.8488 16.563 13.8914 16.563 13.9762 16.6053C14.1459 16.7753 14.1459 17.1575 14.4433 17.1149C14.6981 16.7754 14.5283 16.3506 14.3583 16.0108C14.1886 15.7137 13.8061 15.5436 13.6364 15.2039C13.6364 14.9491 13.9762 15.1188 14.0185 14.8641C13.8912 14.4393 13.8488 13.9722 13.9335 13.59C14.0185 13.4203 14.2733 13.4203 14.2733 13.2079C14.1459 12.7831 14.1459 12.4009 14.1883 11.9338C14.2307 11.679 14.4431 11.3816 14.3157 11.1269C14.0185 11.0421 14.2733 10.6597 13.9759 10.6173C13.4237 10.6173 12.9992 10.3199 12.5321 10.1502C12.2773 10.0654 12.1073 10.2352 11.8949 10.2776C11.5978 10.3626 11.258 10.3626 11.0456 10.575C10.8758 10.7447 10.9182 10.9571 10.9182 11.2119C10.8758 11.3392 10.7485 11.2119 10.6634 11.2119C10.4511 11.0845 10.366 10.8297 10.4087 10.575C10.4511 10.4476 10.4087 10.3626 10.2813 10.2776C10.1115 10.1928 9.89916 10.1075 9.72941 10.1928C9.51702 10.2775 9.432 10.5323 9.34726 10.7447C9.34726 10.9147 9.34727 11.1268 9.43228 11.2545C9.77205 11.594 10.2392 11.7217 10.579 12.0188C10.664 12.2312 10.494 12.4009 10.3666 12.571C10.3666 12.741 10.6213 12.741 10.579 12.9107C10.3242 12.9955 10.0695 12.9107 9.85706 12.741C9.72968 12.6136 9.68731 12.3588 9.47492 12.3588C9.26252 12.3588 9.26252 12.6136 9.17751 12.741C9.0925 12.9107 9.17751 13.1231 9.00776 13.2505H8.88038C8.20083 13.0381 7.6063 12.656 7.01176 12.1888C6.67199 11.9338 6.41723 11.5093 6.16247 11.1695C6.03509 10.745 5.95007 10.1928 5.44055 10.0654C5.31316 10.0654 5.18578 10.1078 5.14341 10.2352L5.10078 10.4052C4.84602 10.4052 4.59125 10.2352 4.29412 10.3202C4.16674 10.4052 4.03936 10.4902 3.95435 10.6176C3.95435 10.9147 4.29411 10.7874 4.33648 11.0424C4.33648 11.2548 4.50624 11.4245 4.59125 11.5943C4.50624 11.7217 4.37885 11.7643 4.33648 11.8917L4.16673 12.3162C4.25174 12.4436 4.33648 12.6136 4.46414 12.6136C4.67653 12.5289 4.88893 12.6986 5.14369 12.656C5.31344 12.656 5.52583 12.5289 5.56847 12.7834C5.65348 12.9957 5.56847 13.1655 5.56847 13.3355C5.35608 13.6329 5.05895 13.8877 4.76154 14.0151C4.67653 14.1001 4.67653 14.2275 4.67653 14.3125C4.80391 14.4822 5.05867 14.3975 5.2287 14.3975C5.56847 14.3975 5.82323 14.1851 6.16301 14.1424C6.24802 14.3125 6.3754 14.5246 6.54515 14.6096C6.79992 14.6943 6.88493 14.3122 7.13969 14.3972C7.35208 14.567 7.30944 14.8644 7.47946 15.0768C7.47946 15.2041 7.39445 15.2041 7.30971 15.2465C7.01231 15.3312 6.63017 15.2465 6.41777 15.4589C6.3754 15.5863 6.50279 15.7139 6.58752 15.7563C6.84229 15.8837 7.13969 15.9263 7.43682 15.9687C7.69158 16.0111 7.98899 15.884 8.24375 15.9687L8.15873 16.0961L7.35181 16.6482C6.96967 16.818 6.58725 16.8606 6.24775 17.073C5.73822 17.2004 5.52583 16.5635 5.05867 16.6059C4.84628 16.6059 4.71891 16.6906 4.59153 16.7759C4.46414 16.9033 4.46414 17.073 4.50651 17.243C4.59152 17.4131 4.80364 17.3278 4.80364 17.4978C4.80364 17.965 4.37885 18.3047 4.33648 18.7719C4.33648 18.8993 4.33648 19.0267 4.50624 19.0693C4.59125 19.1117 4.71863 19.0693 4.80337 19.0267C4.88839 18.9419 4.88838 18.7719 5.05813 18.7295C5.35554 18.7719 5.65267 18.7719 5.82269 18.5598C5.9077 18.5598 6.03508 18.6445 6.03508 18.7295C6.03508 18.8569 6.03509 18.9843 6.16247 19.0267C6.58725 19.0267 6.757 18.6021 6.96939 18.3047C7.13914 18.2624 7.35154 18.135 7.52156 18.2624C7.60657 18.5595 7.35181 18.7295 7.30917 19.0267C7.30917 19.1117 7.39418 19.154 7.47892 19.154C7.98844 19.0693 8.24347 18.6445 8.54061 18.2624C8.58325 18.1774 8.62562 18.05 8.79537 18.05C9.17752 18.1774 9.26253 17.7102 9.51729 17.5402H9.6023C9.64467 17.6676 9.55993 17.7526 9.6023 17.8376C9.77205 18.0073 9.94207 17.8376 10.1118 17.7952L10.4516 17.5828C10.8764 17.7102 11.3009 17.7952 11.7257 17.9226C12.0655 18.05 11.7257 18.4321 11.9381 18.6445C11.8957 18.7719 11.7257 18.8143 11.5983 18.8143C10.8764 18.8993 10.0268 18.7295 9.43254 19.239L9.09278 19.5788C8.54061 19.5788 8.28584 20.046 7.77632 20.131C7.43655 20.3434 6.92702 20.046 6.71463 20.4284C6.88438 20.7682 7.30917 20.8955 7.64894 20.9805C7.81869 21.0653 8.03108 20.9805 8.1161 21.1503C8.1161 21.3203 8.15873 21.5325 8.37085 21.5751C8.49824 21.6175 8.58325 21.4051 8.753 21.5327C8.92275 21.7875 9.22016 21.9149 9.34754 22.1273C9.22016 22.3397 8.96539 22.212 8.753 22.212H8.71063C8.4135 22.2546 8.03109 22.382 7.81897 22.1273C7.52183 21.9149 7.26679 21.5327 6.79964 21.5327C6.54488 21.6177 6.29012 21.7025 6.24748 21.9575C6.20511 22.1273 6.37486 22.1699 6.45987 22.297C6.16247 22.5094 5.86533 22.8068 5.95035 23.189C5.99272 23.274 6.03536 23.3587 6.1201 23.3587C6.28985 23.3587 6.37486 23.2313 6.54488 23.3163C6.58725 23.5711 6.50251 23.9532 6.79964 24.0806C7.01203 24.0382 7.18178 23.7832 7.43654 23.9956C7.69131 24.123 7.86133 23.8682 8.1161 23.8259C8.45587 23.8259 8.58325 24.1656 8.71063 24.4204C8.92302 24.5904 9.22016 24.8452 9.51756 24.6754C9.72995 24.3783 9.34781 24.0385 9.72995 23.8685C9.94234 23.7835 10.1547 23.8685 10.4095 23.8261C10.7916 23.8685 11.2164 23.9109 11.4288 23.4863L11.7686 22.9342L11.8536 22.5947C12.066 22.5097 12.3631 22.8918 12.4905 22.552C12.3631 22.2123 12.3208 21.8728 12.4055 21.533C12.4905 21.2782 12.5753 21.0658 12.7453 20.8961L12.8303 20.9385C12.9153 21.363 12.9577 21.7454 13.1277 22.1275C13.0853 22.5097 12.9153 22.8494 12.8303 23.2316C12.7453 23.6137 12.4481 23.9535 12.0657 24.1235C11.9807 24.2083 11.896 24.2935 11.9807 24.4207C12.0657 24.5907 12.3205 24.5057 12.4902 24.548C12.9998 24.4633 13.4669 24.2506 13.8493 23.8688C14.2315 23.9538 14.4015 23.529 14.741 23.6987C15.0808 23.9538 15.7177 23.4864 15.8451 24.0809C15.8027 24.3357 16.0575 24.8028 15.6327 24.9305C15.2079 24.8454 14.6984 24.2933 14.2738 24.8031C14.1888 24.8878 14.1041 25.0155 14.1888 25.1852C14.2738 25.3126 14.3586 25.4402 14.2312 25.5674C14.1038 25.7797 13.9338 26.0345 14.0615 26.2466C14.1465 26.374 14.3162 26.374 14.4436 26.374C14.6984 26.2893 14.9107 26.5014 15.1655 26.5014C15.3779 26.6712 15.5903 26.8835 15.8874 26.8412C16.0148 26.7562 15.9724 26.6288 16.0572 26.5438C16.2269 26.374 16.6093 26.4164 16.6093 26.0766C16.6517 25.8218 16.8641 25.6095 17.0765 25.4821C17.161 25.3542 17.6705 25.2268 17.7979 25.0144Z" fill="black" fill-opacity="0.3"/>
<path d="M17.7979 25.0144C17.7129 24.9294 17.6281 24.802 17.5855 24.7593C17.5005 24.2925 18.18 24.0374 17.8402 23.5279C17.7552 23.2308 17.8402 22.891 17.5428 22.6786C17.3305 22.5086 17.0757 22.4662 16.8633 22.3388C16.8633 22.2115 17.033 22.2541 17.0757 22.2115C17.4578 22.1267 17.7552 22.5512 18.0524 22.2115C18.0947 21.9567 17.84 21.7443 17.6702 21.5743C17.1181 21.1921 16.3111 21.3619 15.8866 20.7676L15.929 20.725C16.4385 20.8524 17.033 20.725 17.4155 20.3855C17.6278 20.0881 17.8826 19.7909 18.2224 19.7059C18.6045 19.4088 18.6472 18.9416 18.6472 18.5169C18.6472 18.3471 18.7322 18.1771 18.8596 18.0497C19.072 17.8797 19.5815 17.9223 19.4541 17.5399C19.1567 17.3702 18.8596 17.2428 18.5622 17.2851C18.4348 17.2001 18.6045 17.0728 18.6472 17.0301C19.1567 16.6903 20.0063 16.4779 19.9636 15.6713C19.9213 15.5866 19.9213 15.4589 19.7939 15.4589C19.5815 15.5013 19.4117 15.7139 19.1993 15.7987C18.6898 16.0958 18.0953 16.0111 17.5855 16.3082C17.5005 16.3082 17.5005 16.1808 17.5431 16.1384C17.7129 15.8837 18.0953 15.8837 18.2227 15.5439C18.3077 15.2891 18.35 14.9494 18.6474 14.8644C18.8172 14.737 19.0722 14.737 19.157 14.5246C19.157 14.3972 18.9872 14.3546 18.9022 14.3122C18.435 14.1848 17.9679 14.4396 17.6281 14.7794C17.2884 14.9494 16.8636 15.0768 16.6088 15.3315C16.5664 15.3315 16.4814 15.3315 16.4814 15.2468C16.3964 14.5672 16.9909 14.1001 17.4581 13.7179C17.7552 13.6329 18.0526 13.2508 18.3924 13.4205C18.6472 13.5479 18.9019 13.6753 19.1993 13.5903C19.5815 13.4629 19.6665 13.0384 19.9639 12.826C20.2187 12.7412 20.5584 13.1234 20.7285 12.7413C20.8135 12.3591 20.5161 12.1464 20.3463 11.892C20.5587 11.3822 20.3887 10.7876 19.9642 10.4055C19.7518 10.2781 19.497 10.1931 19.2846 10.2781C19.1149 10.4905 19.4546 10.6602 19.4546 10.8726C19.5397 11.8069 18.5203 12.0193 17.8834 12.4438C16.7367 13.0387 15.3353 13.9303 15.2505 15.4165C15.2505 16.2235 15.6327 16.9877 16.1848 17.5399C16.482 18.0497 16.9494 18.5166 16.7794 19.1961C16.652 19.4509 16.3546 19.4933 16.0998 19.4933C15.1231 19.4085 14.571 18.3042 14.1462 17.5396C14.0188 17.2425 13.8491 16.9451 13.8064 16.6053C13.8488 16.563 13.8914 16.563 13.9762 16.6053C14.1459 16.7753 14.1459 17.1575 14.4433 17.1149C14.6981 16.7754 14.5283 16.3506 14.3583 16.0108C14.1886 15.7137 13.8061 15.5436 13.6364 15.2039C13.6364 14.9491 13.9762 15.1188 14.0185 14.8641C13.8912 14.4393 13.8488 13.9722 13.9335 13.59C14.0185 13.4203 14.2733 13.4203 14.2733 13.2079C14.1459 12.7831 14.1459 12.4009 14.1883 11.9338C14.2307 11.679 14.4431 11.3816 14.3157 11.1269C14.0185 11.0421 14.2733 10.6597 13.9759 10.6173C13.4237 10.6173 12.9992 10.3199 12.5321 10.1502C12.2773 10.0654 12.1073 10.2352 11.8949 10.2776C11.5978 10.3626 11.258 10.3626 11.0456 10.575C10.8758 10.7447 10.9182 10.9571 10.9182 11.2119C10.8758 11.3392 10.7485 11.2119 10.6634 11.2119C10.4511 11.0845 10.366 10.8297 10.4087 10.575C10.4511 10.4476 10.4087 10.3626 10.2813 10.2776C10.1115 10.1928 9.89916 10.1502 9.72941 10.1928C9.51702 10.2775 9.432 10.5323 9.34726 10.7447C9.34726 10.9147 9.34727 11.1268 9.43228 11.2545C9.77205 11.594 10.2392 11.7217 10.579 12.0188C10.664 12.2312 10.494 12.4009 10.3666 12.571C10.3666 12.741 10.6213 12.741 10.579 12.9107C10.3242 12.9955 10.0695 12.9107 9.85706 12.741C9.72968 12.6136 9.68731 12.3588 9.47492 12.3588C9.26252 12.3588 9.26252 12.6136 9.17751 12.741C9.0925 12.9107 9.17751 13.1231 9.00776 13.2505H8.88038C8.20083 13.0381 7.6063 12.656 7.01176 12.1888C6.67199 11.9338 6.41723 11.5093 6.16247 11.1695C6.03509 10.745 5.95007 10.1928 5.44055 10.0654C5.31316 10.0654 5.18578 10.1078 5.14341 10.2352L5.10078 10.4052C4.84602 10.4052 4.59125 10.2352 4.29412 10.3202C4.16674 10.4052 4.03936 10.4902 3.95435 10.6176C3.95435 10.9147 4.29411 10.7874 4.33648 11.0424C4.33648 11.2548 4.50624 11.4245 4.59125 11.5943C4.50624 11.7217 4.37885 11.7643 4.33648 11.8917L4.16673 12.3162C4.25174 12.4436 4.33648 12.6136 4.46414 12.6136C4.67653 12.5289 4.88893 12.6986 5.14369 12.656C5.31344 12.656 5.52583 12.5289 5.56847 12.7834C5.65348 12.9957 5.56847 13.1655 5.56847 13.3355C5.35608 13.6329 5.05895 13.8877 4.76154 14.0151C4.67653 14.1001 4.67653 14.2275 4.67653 14.3125C4.80391 14.4822 5.05867 14.3975 5.2287 14.3975C5.56847 14.3975 5.82323 14.1851 6.16301 14.1424C6.24802 14.3125 6.3754 14.5246 6.54515 14.6096C6.79992 14.6943 6.88493 14.3122 7.13969 14.3972C7.35208 14.567 7.26707 14.8644 7.47946 15.0768C7.47946 15.2041 7.39445 15.2041 7.30971 15.2465C7.01231 15.3312 6.63017 15.2465 6.41777 15.4589C6.3754 15.5863 6.50279 15.7139 6.58752 15.7563C6.84229 15.8837 7.13969 15.9263 7.43682 15.9687C7.69158 16.0111 7.98899 15.884 8.24375 15.9687L8.15873 16.0961L7.35181 16.6482C6.96967 16.818 6.58725 16.8606 6.24775 17.073C5.73822 17.2004 5.52583 16.5635 5.05867 16.6059C4.84628 16.6059 4.71891 16.6906 4.59153 16.7759C4.46414 16.9033 4.46414 17.073 4.50651 17.243C4.59152 17.4131 4.80364 17.3278 4.80364 17.4978C4.80364 17.965 4.37885 18.3047 4.33648 18.7719C4.33648 18.8993 4.33649 19.0267 4.46387 19.0693C4.54888 19.1117 4.67626 19.0693 4.76128 19.0267C4.84629 18.9419 4.84628 18.7719 5.01604 18.7295C5.31344 18.7719 5.61057 18.7719 5.78059 18.5598C5.86561 18.5598 5.99298 18.6445 5.99298 18.7295C5.99298 18.8569 5.99299 18.9843 6.12037 19.0267C6.54515 19.0267 6.7149 18.6021 6.92729 18.3047C7.09704 18.2624 7.30944 18.135 7.47946 18.2624C7.56447 18.5595 7.30971 18.7295 7.26707 19.0267C7.26707 19.1117 7.35208 19.154 7.43682 19.154C7.94634 19.0693 8.20138 18.6445 8.49851 18.2624C8.54088 18.1774 8.58352 18.05 8.75328 18.05C9.13542 18.1774 9.22043 17.7102 9.47519 17.5402H9.5602C9.60257 17.6676 9.51783 17.7526 9.5602 17.8376C9.72995 18.0073 9.89997 17.8376 10.0697 17.7952L10.4095 17.5828C10.8343 17.7102 11.2588 17.7952 11.6836 17.9226C12.0234 18.05 11.6836 18.4321 11.896 18.6445C11.8536 18.7719 11.6836 18.8143 11.5562 18.8143C10.8343 18.8993 9.98498 18.7295 9.39045 19.239L9.05068 19.5788C8.49851 19.5788 8.24375 20.046 7.73422 20.131C7.39445 20.3434 6.88493 20.046 6.67253 20.4284C6.84228 20.7682 7.26707 20.8955 7.60684 20.9805C7.77659 21.0653 7.98899 20.9805 8.074 21.1503C8.074 21.3203 8.11636 21.5325 8.32876 21.5751C8.45614 21.6175 8.54115 21.4051 8.7109 21.5327C8.88093 21.7875 9.17806 21.9149 9.30544 22.1273C9.17806 22.3397 8.9233 22.212 8.7109 22.212H8.66853C8.37113 22.2546 7.98899 22.382 7.77659 22.1273C7.47919 21.9149 7.22443 21.5327 6.75728 21.5327C6.50251 21.6177 6.24775 21.7025 6.2051 21.9999C6.16273 22.1699 6.33249 22.2123 6.4175 22.3397C6.12037 22.552 5.82296 22.8492 5.90797 23.2316C5.95034 23.3166 5.99299 23.4013 6.07772 23.4013C6.24748 23.4013 6.33249 23.274 6.50251 23.359C6.54488 23.614 6.46014 23.9959 6.75728 24.1235C6.96967 24.0812 7.13942 23.8264 7.39418 24.0385C7.64894 24.1659 7.86133 23.9111 8.07372 23.8688C8.4135 23.8688 8.54088 24.2083 8.66826 24.4633C8.88065 24.633 9.17779 24.8878 9.47519 24.7181C9.68758 24.4207 9.30544 24.0812 9.68759 23.9111C9.89998 23.8264 10.1124 23.9111 10.3671 23.8688C10.7493 23.9111 11.1741 23.9538 11.3864 23.529L11.7262 22.9768L11.8112 22.637C12.0236 22.552 12.3208 22.9344 12.4481 22.5947C12.3208 22.2549 12.2784 21.9151 12.3631 21.5754C12.4481 21.3206 12.5329 21.1082 12.7029 20.9382L12.7879 20.9805C12.8729 21.4051 12.9153 21.7875 13.0853 22.1696C13.0429 22.5518 12.8729 22.8915 12.7879 23.2737C12.7029 23.6558 12.4058 23.9956 12.0236 24.1656C11.9386 24.2504 11.8539 24.3354 11.9386 24.4628C12.0236 24.6325 12.2784 24.5475 12.4481 24.5901C12.9577 24.5054 13.4248 24.293 13.8072 23.9106C14.1894 23.9956 14.3594 23.5708 14.6992 23.7408C15.0389 23.9956 15.6759 23.5284 15.8032 24.123C15.7609 24.3777 16.0156 24.8449 15.5908 24.9723C15.1661 24.8873 14.6565 24.3354 14.232 24.8449C14.147 24.9299 14.0623 25.0573 14.147 25.227C14.232 25.3544 14.3168 25.4818 14.1896 25.6092C14.0623 25.8216 13.8922 26.0763 14.0199 26.2887C14.1049 26.4161 14.2747 26.4161 14.402 26.4161C14.6568 26.3311 14.8692 26.5435 15.124 26.5435C15.3364 26.7135 15.5487 26.9256 15.8459 26.8833C15.9733 26.7985 15.9309 26.6709 16.0156 26.5859C16.1856 26.4161 16.5678 26.4585 16.5678 26.1187C16.6102 25.864 16.8226 25.6516 17.0349 25.5242C17.161 25.3542 17.6705 25.2268 17.7979 25.0144Z" stroke="black" stroke-opacity="0.3" stroke-width="0.0699293"/>
<path d="M10.2379 10.5321C10.1956 10.7445 10.1956 10.9566 10.323 11.1267C10.6627 11.5088 11.2146 11.6362 11.427 12.061H11.2996C10.8748 11.8059 10.4927 11.4664 10.0682 11.2964C9.89844 11.169 9.77078 10.999 9.81342 10.7869C9.85579 10.6595 9.89844 10.4895 10.0682 10.4471C10.1532 10.405 10.2379 10.4474 10.2379 10.5321Z" fill="white"/>
<path d="M13.7614 10.9158C13.8464 11.0005 13.7613 11.2132 13.9737 11.2555C14.0161 11.2555 14.0588 11.2979 14.0588 11.3403C14.0588 11.51 14.0164 11.6801 13.9737 11.8498C13.9314 11.9772 13.7614 12.0196 13.7614 12.2319C13.7614 12.317 13.8887 12.3593 13.9311 12.4867V13.1663C13.5063 13.2936 13.7187 13.8032 13.6763 14.0582C13.634 14.2706 13.6763 14.4827 13.6763 14.6951C13.5913 14.7377 13.3789 14.7377 13.3366 14.8651C13.3366 15.1199 13.4639 15.3323 13.549 15.502C13.7187 15.7144 14.0161 15.7568 14.0161 16.0542C13.8037 16.0542 13.5913 15.9268 13.4216 15.8418C13.1242 15.672 12.9121 15.3323 12.6997 15.0349C12.6573 14.9925 12.5723 14.9925 12.5299 15.0349C12.4875 15.2473 12.4875 15.502 12.3175 15.6294C12.1051 15.502 12.1051 14.9501 11.7654 15.1199C11.638 15.8418 11.1708 16.394 10.7463 16.9885C10.6613 17.0309 10.6189 17.1583 10.4915 17.1583C10.7039 16.6061 10.8737 15.9692 10.6613 15.332C10.6189 15.2046 10.4915 15.2473 10.4065 15.2896C10.3215 15.3744 10.2368 15.502 10.1091 15.4594C9.98175 15.2896 10.2365 14.9922 9.93938 14.8649C9.72698 14.9072 9.55723 15.1196 9.38721 15.2046C8.87768 15.5018 8.28315 15.6291 7.68861 15.6291C7.56123 15.6291 7.47622 15.5868 7.39148 15.5444C7.51886 15.3744 7.77362 15.3744 7.94364 15.247C8.62319 14.8222 9.09034 14.0579 9.64224 13.5058C9.59987 13.251 9.38748 12.9539 9.59987 12.7415C9.76963 12.7415 9.85463 12.9539 9.98201 12.9962C10.2368 13.1236 10.5342 13.2086 10.7889 13.0813C11.0013 13.0389 11.1711 12.8265 11.2137 12.6141C11.2137 12.5294 11.1714 12.4441 11.0863 12.4441C11.0013 12.4441 10.959 12.4441 10.9166 12.3593C10.9166 12.2319 11.0016 12.1469 11.0863 12.1469C11.3838 12.1469 11.6385 12.7417 11.8509 12.2743C11.9783 11.8922 11.5961 11.5948 11.3414 11.34C11.2564 11.2553 11.214 11.17 11.2564 11.0429C11.4688 10.9155 11.214 10.7455 11.3838 10.5757C11.6812 10.3633 12.1057 10.4907 12.4028 10.2783C12.912 10.4486 13.2942 10.8308 13.7614 10.9158Z" fill="white"/>
<path d="M5.90623 10.7877C5.90623 10.8727 5.9486 10.9574 5.90623 11.0001C5.82122 11.0851 5.73647 11.0001 5.69383 10.9577C5.60882 10.8729 5.56645 10.7453 5.56645 10.6603C5.60882 10.3202 5.90623 10.66 5.90623 10.7877Z" fill="white"/>
<path d="M5.65 11.2556C6.11715 11.468 6.41429 11.9349 6.75406 12.3173C7.47598 12.9119 8.24054 13.4214 9.08983 13.6761C9.1322 13.8035 9.00482 13.9309 8.92008 14.0159C8.62268 14.3133 8.41056 14.6528 8.11315 14.9079C8.02814 14.9079 7.98577 14.9079 7.9434 14.9079C7.646 14.6107 7.68864 14.0586 7.17884 14.0159C7.00909 14.0159 6.88171 14.2283 6.71169 14.1009C6.54194 13.9736 6.75406 13.6762 6.4993 13.5911C6.2019 13.7185 5.98977 14.0159 5.65 13.9733C5.86239 13.5911 6.24454 13.209 6.03215 12.7418C5.9895 12.5295 5.86212 12.2747 5.65 12.232C5.43761 12.232 5.3526 12.4444 5.14048 12.3594C5.05547 12.1897 4.67333 12.2744 4.84308 12.0197C4.97046 11.8073 5.43761 11.8073 5.26786 11.4678C5.14048 11.2977 4.80071 11.3827 4.80071 11.128C4.84308 11.0006 4.71569 10.7882 4.80071 10.7035C5.18285 10.6185 5.43761 11.0432 5.65 11.2556Z" fill="white"/>
<path d="M20.1734 11.4672C20.2161 11.722 19.961 11.892 20.0461 12.1465C20.1311 12.2739 20.3432 12.3165 20.3008 12.4436C19.6639 12.4436 19.5363 13.2929 18.9417 13.2506C18.687 13.2082 18.4746 12.9108 18.1772 13.0382C17.3702 13.4203 16.4786 13.9725 16.2662 14.9492C16.1812 15.3313 16.1812 15.7137 16.4786 16.0108C16.5636 16.0532 16.6483 16.0532 16.691 16.0108C16.8607 15.7137 16.9884 15.3313 17.3705 15.2466C17.5829 15.1615 17.8377 15.0768 18.0501 14.9492C18.0924 14.9492 18.1351 14.9068 18.1351 14.9915C18.0501 15.2889 17.9227 15.6284 17.5829 15.7135C17.3705 15.9258 17.1157 16.138 17.1157 16.4354C17.1157 16.5627 17.0734 16.7751 17.2008 16.9025C17.3281 16.9875 17.4555 16.8601 17.5405 16.8175C17.9653 16.308 18.6022 16.223 19.2391 16.1806C19.2815 16.2232 19.1968 16.3506 19.1117 16.3506C18.5596 16.5204 18.0501 16.9875 17.8803 17.5397C17.8803 17.6247 17.9653 17.7097 18.0077 17.7097C18.2624 17.6673 18.4748 17.4973 18.772 17.5397C18.857 17.7097 18.5596 17.7097 18.4748 17.8795C17.9653 18.3466 18.4748 19.3236 17.6255 19.4933C17.3708 19.5783 17.4131 19.8755 17.2434 20.0028C16.946 20.385 16.4788 20.47 16.0543 20.4276C15.7146 20.47 15.4598 20.0029 15.1624 20.3003C15.2048 20.64 15.4598 20.8101 15.6295 21.1072C16.0543 21.4893 16.6062 21.5317 17.1584 21.7017C17.2434 21.7017 17.2858 21.7867 17.3281 21.8291C17.3281 21.9565 17.1584 21.9141 17.0734 21.9141C16.7336 21.9565 16.3515 21.9989 16.0117 21.8717C15.9693 21.8717 15.9267 21.9141 15.8843 21.9568C15.9267 22.3389 16.3515 22.4663 16.6062 22.636C16.861 22.7634 17.2008 22.7208 17.2858 23.0182V23.4003C17.4131 23.5701 17.4555 23.8251 17.4131 24.0372C17.2008 24.2922 17.031 24.6318 17.2008 25.0139C17.1157 25.0986 16.946 25.0139 16.861 25.0986C16.7336 25.3537 16.4362 25.396 16.3515 25.6084C16.3515 25.8208 16.2241 25.9906 16.0117 26.0329C15.8419 26.0329 15.7146 26.118 15.5869 26.0753C15.5019 25.9479 15.6293 25.7782 15.4595 25.6932C15.2471 25.6508 15.1621 25.9906 14.9074 25.8632C14.78 25.7785 14.695 25.7358 14.6102 25.6508C14.6102 25.4808 14.7376 25.4384 14.8226 25.3958C15.3748 25.311 16.0967 25.226 16.2665 24.6315C16.3088 24.3343 16.1814 24.122 16.2241 23.8672C16.1391 23.5698 15.8419 23.3574 15.5022 23.315C15.2048 23.23 14.8653 23.3574 14.6529 23.145C14.5679 23.06 14.4831 23.0176 14.3555 23.06C14.2704 23.06 14.2281 23.1874 14.1431 23.145C14.0581 23.06 13.9307 22.9326 13.8459 23.06C13.6335 23.4424 13.3364 23.8669 12.8693 23.9519C12.7842 23.8246 12.9543 23.6969 12.9966 23.5695C13.124 23.2724 13.2514 22.8902 13.3364 22.5505C13.4638 22.3807 13.6335 22.126 13.5062 21.8712C13.2938 21.319 13.0814 20.6821 13.2514 20.045C13.3788 19.2807 13.1664 18.5587 12.6142 18.049C12.3168 17.8789 12.0197 17.5392 11.6375 17.4968C11.3828 17.412 11.043 17.4968 10.873 17.2844C10.9154 17.0294 11.1704 16.8596 11.2978 16.6472L11.7226 15.9677C11.8923 15.9253 11.8499 16.1801 12.02 16.1801C12.3597 16.1801 12.3597 15.5855 12.6995 15.7979C12.8693 16.0103 13.1243 16.095 13.294 16.3074C13.5064 17.2417 13.8886 18.1761 14.5258 18.898C15.0353 19.5349 15.7998 20.002 16.5641 19.7896C16.7765 19.6199 17.0736 19.4075 17.1163 19.1104C17.3287 17.6239 15.4174 16.8596 15.5451 15.3731C15.6725 13.9717 17.1163 13.2071 18.263 12.6549C18.8999 12.3154 19.6645 11.8907 19.7492 11.0837C19.7492 10.9987 19.7492 10.9563 19.7918 10.8713C20.1734 10.9574 20.1311 11.2548 20.1734 11.4672Z" fill="white"/>
<path d="M9.89768 15.9271C10.0674 15.9695 10.2798 15.7147 10.3648 15.9695C10.3225 16.3093 10.3225 16.734 10.1524 17.0312C9.98269 17.2012 9.72765 17.0738 9.5579 17.1586C9.30314 17.2436 9.26077 17.8381 8.96337 17.456C8.83599 17.4136 8.75098 17.5407 8.66624 17.626C8.53886 17.9234 8.41147 18.2632 8.15671 18.5177C8.11407 18.56 8.02933 18.6027 7.98696 18.5177C7.94459 18.3053 8.11434 17.9231 7.81721 17.8384C7.68983 17.8384 7.56244 17.9234 7.43506 17.9658C7.1803 17.9658 6.84053 17.9658 6.71315 18.1782C6.67078 18.3055 6.67078 18.4756 6.50075 18.4756C6.331 18.3905 6.16098 18.3482 6.07597 18.1782C5.99096 18.1358 5.90622 18.0508 5.82121 18.1358C5.69383 18.2632 5.65146 18.5179 5.43906 18.5179C5.26931 18.5179 5.14193 18.4756 4.97191 18.3905C5.01428 18.0084 5.43907 17.966 5.69383 17.796C6.20336 17.6686 6.62813 17.3289 7.13766 17.2438C7.94459 16.9467 8.62387 16.3095 9.26105 15.6726C9.34606 15.6303 9.47344 15.5879 9.55818 15.5879C9.72766 15.715 9.72766 15.8847 9.89768 15.9271Z" fill="white"/>
<path d="M5.86051 17.4545C5.69076 17.5392 5.47837 17.6245 5.30834 17.5392C5.22333 17.4545 5.26597 17.2421 5.22333 17.1147C5.2657 16.9873 5.43573 17.0297 5.52047 17.0724C5.64839 17.1997 5.86051 17.2421 5.86051 17.4545Z" fill="white"/>
<path d="M12.9536 19.5784C12.9536 19.8331 12.9112 20.0029 12.7839 20.2153C12.4867 20.4703 12.2317 20.8101 12.147 21.2346C12.147 21.532 12.1046 21.7868 12.1046 22.0415C12.0196 22.1265 11.9348 21.9992 11.8922 21.9568C11.7648 21.7444 11.8072 21.3199 11.4674 21.362C11.2977 21.5744 11.0853 21.8718 11.2126 22.1265C11.3824 22.3389 11.6798 22.5087 11.5101 22.8061C11.2553 22.9335 11.3403 23.3156 11.0005 23.358C10.491 23.443 9.98121 23.1882 9.59907 23.5704C9.47169 23.6977 9.38668 23.8678 9.30166 24.0375C9.08927 24.0799 9.13191 23.7401 9.00426 23.613C8.91925 23.4856 8.74949 23.5704 8.62211 23.4856C8.45236 23.4006 8.23997 23.2309 8.02758 23.3582C7.85783 23.4433 7.64544 23.698 7.43304 23.5283L7.13591 23.4435C7.13591 23.3585 7.22093 23.2311 7.13591 23.1038L6.58374 22.8064C6.54137 22.764 6.58374 22.679 6.62611 22.6363C7.09327 22.3389 7.64544 22.6787 8.19733 22.594C8.57947 22.4666 8.91925 22.5089 9.30139 22.5513C9.51378 22.5513 9.76854 22.6363 9.89593 22.4239C9.98094 22.2966 10.0233 22.1265 9.9383 21.9992C9.76855 21.617 9.25875 21.5744 9.17374 21.1075C9.13137 21.0225 9.08873 20.9375 9.00399 20.8951C8.87661 20.8527 8.79159 20.9801 8.66421 20.9375C8.62184 20.8101 8.5792 20.6827 8.45182 20.6401C8.19706 20.6401 7.89965 20.7674 7.68753 20.5977C7.73017 20.4703 7.89992 20.5127 7.98493 20.4279C8.32471 20.3429 8.62184 20.1305 8.96162 19.9608L9.42877 19.8758C9.89593 19.1115 10.8726 19.1539 11.7219 19.1115L12.5288 18.8564C12.8262 19.0262 12.9112 19.366 12.9536 19.5784Z" fill="white"/>
<path d="M7.68824 22.2546C7.51849 22.3394 7.34846 22.297 7.17871 22.2546C7.0937 22.1696 7.05133 21.9996 7.05133 21.8725C7.30609 21.7875 7.56086 22.0423 7.68824 22.2546Z" fill="white"/>
<path d="M15.0786 24.9298C15.0786 25.0148 14.9936 25.0148 14.9512 25.0148C14.8662 25.0148 14.8662 24.9724 14.8662 24.9298C14.8662 24.8024 15.0362 24.8874 15.0786 24.9298Z" fill="white"/>
<path d="M12.911 11.2122C12.9533 11.3396 12.8683 11.4246 12.7412 11.4246C12.5288 11.4246 12.3591 11.4246 12.2317 11.2549C12.0619 11.1275 12.1467 10.9575 12.1893 10.7877C12.2743 10.703 12.3591 10.703 12.4441 10.7454C12.6136 10.8725 12.7836 11.0425 12.911 11.2122Z" fill="black" fill-opacity="0.3"/>
<path d="M13.8474 11.4671C13.8474 11.5945 13.7624 11.7219 13.6777 11.8493C13.5927 11.8919 13.5079 11.8493 13.5079 11.7645C13.4656 11.6371 13.5503 11.4671 13.6353 11.3824C13.7201 11.3395 13.8474 11.3821 13.8474 11.4671Z" fill="black" fill-opacity="0.3"/>
<path d="M12.7845 12.657V12.9544C12.4874 13.2515 12.4874 13.7613 12.0626 13.9311C11.9352 13.9311 11.8502 13.8887 11.8502 13.7613C11.8502 13.5913 11.8078 13.3366 11.8502 13.1668C12.02 13.0818 12.0626 13.4216 12.2324 13.2518C12.3174 12.9968 12.5298 12.7847 12.6571 12.5723C12.6995 12.5723 12.7845 12.6146 12.7845 12.657Z" fill="black" fill-opacity="0.3"/>
<path d="M0.171127 7.51855H25.3967V9.25979H0.171127V7.51855Z" fill="black" fill-opacity="0.3"/>
<path d="M0.171127 7.51855H25.3967V9.2598H0.171127V7.51855Z" stroke="black" stroke-opacity="0.3" stroke-width="0.0699293"/>
<path d="M18.9423 7.81592H21.7876V8.96262H18.9423V7.81592Z" fill="white"/>
<path d="M12.701 7.81592H15.5463V8.96262H12.701V7.81592Z" fill="white"/>
<path d="M6.41537 7.81592H9.30305V8.96262H6.41537V7.81592Z" fill="white"/>
<path d="M0.46991 7.81592H3.06044V8.96262H0.46991V7.81592Z" fill="white"/>
<path d="M24.2523 1.27547C24.4647 1.53023 24.3373 1.91237 24.3797 2.20978C24.5921 2.37953 25.1016 2.20978 25.1442 2.63456C25.1866 2.80431 25.0592 2.93197 24.9745 3.01671C24.8047 3.18673 24.5497 3.0167 24.4223 3.18672C24.3799 3.69625 24.4223 4.24842 24.4223 4.84296C24.5921 4.9277 24.7621 4.9277 24.9318 5.01271C25.0168 5.09772 25.1016 5.22509 25.1016 5.35247C25.1016 5.47985 25.0166 5.60724 24.8468 5.64988C24.7194 5.73489 24.4647 5.64988 24.422 5.8199C24.337 6.07466 24.422 6.41444 24.3797 6.71184C24.2099 6.79658 23.9549 6.79658 23.7428 6.79658H21.7044C21.5346 6.88159 21.3222 7.09372 21.0675 6.96633C20.6427 6.71157 20.0482 6.79658 19.581 6.75394H18.0945C17.8398 6.49918 18.0095 6.11676 17.9248 5.81963C17.8398 5.64961 17.5426 5.73462 17.3726 5.64961C17.2029 5.5646 17.2029 5.39485 17.2029 5.26747C17.2029 5.09771 17.3726 5.0127 17.5426 4.97006C17.67 4.88532 17.8824 5.01243 17.9248 4.84268C17.9248 4.33289 17.8824 3.78099 17.9248 3.31384C17.8824 3.01643 17.5 3.18645 17.3303 3.05907C17.1605 2.97406 17.1605 2.76167 17.2029 2.59192C17.3302 2.29451 17.67 2.37952 17.9248 2.29451L17.9672 2.2095L18.0095 1.31757L18.0522 1.23256L20.3879 1.27492C20.6427 1.27492 20.8975 1.4023 21.1525 1.48732C21.662 1.10517 22.3839 1.31757 22.9785 1.19019C23.403 1.27547 23.8275 1.19073 24.2523 1.27547Z" fill="black" fill-opacity="0.3"/>
<path d="M24.2523 1.27547C24.4647 1.53023 24.3373 1.91237 24.3797 2.20978C24.5921 2.37953 25.1016 2.20978 25.1442 2.63456C25.1866 2.80431 25.0592 2.93197 24.9745 3.01671C24.8047 3.18673 24.5497 3.0167 24.4223 3.18672C24.3799 3.69625 24.4223 4.24842 24.4223 4.84296C24.5921 4.9277 24.7621 4.9277 24.9318 5.01271C25.0168 5.09772 25.1016 5.22509 25.1016 5.35247C25.1016 5.47985 25.0166 5.60724 24.8468 5.64988C24.7194 5.73489 24.4647 5.64988 24.422 5.8199C24.337 6.07466 24.422 6.41444 24.3797 6.71184C24.2099 6.79658 23.9549 6.79658 23.7428 6.79658H21.7044C21.5346 6.88159 21.3222 7.09372 21.0675 6.96633C20.6427 6.71157 20.0482 6.79658 19.581 6.75394H18.0945C17.8398 6.49918 18.0095 6.11676 17.9248 5.81963C17.8398 5.64961 17.5426 5.73462 17.3726 5.64961C17.2029 5.5646 17.2029 5.39485 17.2029 5.26747C17.2029 5.09771 17.3726 5.0127 17.5426 4.97006C17.67 4.88532 17.8824 5.01243 17.9248 4.84268C17.9248 4.33289 17.8824 3.78099 17.9248 3.31384C17.8824 3.01643 17.5 3.18645 17.3303 3.05907C17.1605 2.97406 17.1605 2.76167 17.2029 2.59192C17.3302 2.29451 17.67 2.37952 17.9248 2.29451L17.9672 2.2095L18.0095 1.31757L18.0522 1.23256L20.3879 1.27492C20.6427 1.27492 20.8975 1.4023 21.1525 1.48732C21.662 1.10517 22.3839 1.31757 22.9785 1.19019C23.403 1.27547 23.8275 1.19073 24.2523 1.27547Z" stroke="black" stroke-opacity="0.3" stroke-width="0.0712711"/>
<path d="M15.8432 1.23289C15.9283 1.23289 16.0556 1.3179 16.1406 1.36027C16.2257 1.70005 16.1406 1.95481 16.2257 2.25221C16.4381 2.33722 16.7778 2.25221 16.9052 2.54962C16.9476 2.677 16.9476 2.88939 16.8628 2.97413C16.6931 3.18653 16.3107 2.97413 16.1833 3.22889C16.1409 3.82343 16.1409 4.29059 16.1833 4.84275C16.3533 5.0125 16.6504 4.88512 16.8202 5.09751C16.9052 5.18252 16.9476 5.30991 16.9052 5.43729C16.7778 5.64968 16.4804 5.64968 16.2257 5.69205C16.1406 5.77679 16.2257 5.94681 16.1833 6.03182C16.0983 6.24421 16.3107 6.54135 16.0559 6.66873C15.334 6.75347 14.6971 6.62609 13.9752 6.66873H13.2956C13.1259 6.79611 12.8708 6.96586 12.6587 6.83848L12.2339 6.66873C11.7244 6.66873 11.2573 6.66873 10.7477 6.66873C10.408 6.66873 9.9408 6.79611 9.68604 6.4987C9.68604 6.24394 9.72841 5.94654 9.68604 5.69177C9.43128 5.60676 9.00649 5.73414 8.87911 5.39437C8.83674 5.30936 8.87911 5.13961 8.92148 5.0546C9.09123 4.79984 9.55839 5.01223 9.72841 4.79983V4.03555C9.77078 3.69578 9.72841 3.39864 9.72841 3.05887C9.47365 2.97386 9.00649 3.10124 8.96385 2.7191C8.92148 2.50671 9.04886 2.33695 9.21861 2.29458C9.38836 2.25221 9.6434 2.33695 9.72814 2.1672L9.77051 1.36027C9.9829 1.0205 10.4924 1.23289 10.7898 1.19052H12.361C12.6158 1.23289 12.8282 1.44528 13.083 1.3179C13.8475 1.0205 14.9092 1.3179 15.8432 1.23289Z" fill="black" fill-opacity="0.3"/>
<path d="M15.8432 1.23289C15.9282 1.23289 16.0556 1.3179 16.1406 1.36027C16.2256 1.70005 16.1406 1.95481 16.2256 2.25221C16.438 2.33722 16.7778 2.25221 16.9052 2.54961C16.9475 2.677 16.9475 2.88939 16.8628 2.97413C16.6931 3.18653 16.3106 2.97413 16.1833 3.22889C16.1409 3.82343 16.1409 4.29059 16.1833 4.84275C16.3533 5.0125 16.6504 4.88512 16.8202 5.09751C16.9052 5.18252 16.9475 5.30991 16.9052 5.43729C16.7778 5.64968 16.4804 5.64968 16.2256 5.69205C16.1406 5.77679 16.2256 5.94681 16.1833 6.03182C16.0982 6.24421 16.3106 6.54135 16.0559 6.66873C15.334 6.75347 14.6971 6.62609 13.9751 6.66873H13.2956C13.1258 6.79611 12.8708 6.96586 12.6587 6.83848L12.2339 6.66873C11.7244 6.66873 11.2572 6.66873 10.7477 6.66873C10.4079 6.66873 9.94077 6.79611 9.686 6.4987C9.686 6.24394 9.72837 5.94654 9.686 5.69177C9.43124 5.60676 9.00645 5.73414 8.87907 5.39437C8.8367 5.30936 8.87908 5.13961 8.92145 5.0546C9.0912 4.79984 9.55835 5.01223 9.72838 4.79983V4.03555C9.77075 3.69578 9.72838 3.39864 9.72838 3.05887C9.47361 2.97386 9.00646 3.10124 8.96382 2.7191C8.92145 2.50671 9.04882 2.33695 9.21858 2.29458C9.38833 2.25221 9.64336 2.33695 9.7281 2.1672L9.77047 1.36027C9.98287 1.0205 10.4924 1.23289 10.7898 1.19052H12.361C12.6158 1.23289 12.8282 1.44528 13.0829 1.3179C13.8475 1.0205 14.9092 1.3179 15.8432 1.23289ZM4.29227 1.40264C5.14157 1.06287 6.07588 1.31763 7.01019 1.23262C7.26495 1.27499 7.60473 1.10524 7.77475 1.36C7.77475 1.61476 7.77475 1.86953 7.77475 2.16693C7.85976 2.37932 8.15688 2.25194 8.28427 2.33695C8.36928 2.37932 8.45402 2.4217 8.49666 2.54935C8.53903 2.67673 8.49666 2.80411 8.45429 2.93149C8.28454 3.10124 8.07215 3.05887 7.85976 3.10124L7.77475 3.18626C7.81712 3.69578 7.68974 4.12056 7.77475 4.58771C7.77475 4.67245 7.73237 4.84247 7.85976 4.88512C8.11452 4.88512 8.32691 4.88512 8.49694 5.05487C8.58195 5.18225 8.58194 5.30964 8.5393 5.47966C8.45429 5.98918 7.64764 5.39464 7.73265 5.98918C7.73265 6.20157 7.77502 6.49871 7.69 6.7111C6.7557 6.7111 5.82139 6.62609 4.97209 6.7111C4.80234 6.83848 4.63231 6.92349 4.37755 6.96586C4.2078 6.92349 4.03777 6.83848 3.91039 6.7111C3.0611 6.66873 2.25417 6.66873 1.44724 6.66873C1.19248 6.45634 1.36223 6.07419 1.27749 5.77679C1.15011 5.60704 0.937721 5.73442 0.76797 5.64941C0.640589 5.64941 0.598216 5.52203 0.555575 5.43701C0.555575 5.26699 0.555573 5.09724 0.682954 4.96986C0.810335 4.88512 1.02273 4.88512 1.19248 4.88512L1.27749 4.80011C1.23485 4.24794 1.3625 3.69605 1.23485 3.10151C1.14984 2.97413 0.980088 3.10152 0.895076 3.0165C0.725326 2.97413 0.555308 2.88912 0.512938 2.71937C0.470568 2.59198 0.470565 2.46461 0.597946 2.33723C0.767697 2.12483 1.10747 2.3796 1.27749 2.1672L1.36251 1.36027C1.48989 1.10551 1.78729 1.23289 2.04205 1.23289C2.46683 1.14815 2.97636 1.23289 3.40088 1.23289C3.74011 1.23289 4.0375 1.3179 4.29227 1.40264Z" stroke="black" stroke-opacity="0.3" stroke-width="0.0712711"/>
<path d="M4.16369 1.61449L4.2487 1.78451C4.29134 2.93121 4.29134 4.07765 4.29134 5.30909L4.2487 5.73387C3.95156 5.73387 3.65416 5.60649 3.35703 5.64886C3.01726 5.60649 2.67748 5.69123 2.38035 5.60649C2.2106 5.22435 2.33798 4.79957 2.29534 4.37505C2.29534 3.52575 2.33771 2.46406 2.33771 1.57212C2.33771 1.48711 2.42272 1.48711 2.46509 1.44474C3.05963 1.48711 3.69653 1.31736 4.16369 1.61449Z" fill="white"/>
<path d="M1.91365 1.53078C1.7439 1.65816 1.5315 1.87056 1.61624 2.08295C1.70125 3.52706 1.61624 4.80086 1.70125 6.15996L1.82863 6.28734C2.50818 6.28734 3.2301 6.20233 3.867 6.32971C3.90937 6.32971 3.90937 6.41445 3.867 6.41445C3.69725 6.49946 3.48486 6.45682 3.31484 6.45682L1.5736 6.41445C1.44622 6.32971 1.48859 6.11705 1.48859 5.9473C1.48859 5.77727 1.53096 5.56515 1.36121 5.48014C1.10645 5.43777 0.894055 5.48014 0.724304 5.31012C0.851685 4.97034 1.40384 5.22538 1.48886 4.88561C1.53122 4.24843 1.44649 3.61152 1.48886 3.01699C1.40384 2.67749 1.06407 2.76223 0.809312 2.71986C0.766942 2.67749 0.724304 2.63512 0.724304 2.55011C0.936697 2.33771 1.3612 2.59247 1.48886 2.29534C1.57387 2.04058 1.48886 1.78581 1.53123 1.48841C1.61624 1.44604 1.78599 1.44604 1.91337 1.44604V1.53078H1.91365Z" fill="white"/>
<path d="M6.71103 1.52926C6.71103 2.93073 6.71103 4.24718 6.71103 5.56363C6.03148 5.64865 5.2672 5.52126 4.58765 5.69101C4.4179 5.56363 4.54528 5.35124 4.50264 5.13885C4.46027 4.71407 4.50264 4.20454 4.50264 3.73739C4.50264 3.05784 4.46027 2.33593 4.50264 1.65638C4.58765 1.44399 4.84241 1.40161 5.0548 1.40161H6.66867L6.71103 1.52926Z" fill="white"/>
<path d="M7.51742 1.53078C7.55979 1.78581 7.43241 2.16796 7.60244 2.42272C7.77219 2.50773 8.02722 2.46509 8.19697 2.50773C8.28198 2.59275 8.23934 2.67775 8.19697 2.76249C8.02722 2.93252 7.60243 2.72013 7.51742 3.01726C7.51742 3.69681 7.47505 4.33371 7.51742 5.01326L7.60244 5.09827C7.81483 5.14064 8.11196 5.0559 8.23934 5.22565C8.23934 5.31039 8.23934 5.43805 8.15433 5.48041C7.94193 5.52278 7.60216 5.3954 7.47478 5.65017C7.43241 5.90493 7.51715 6.20233 7.43241 6.45709L7.30503 6.49946L4.88425 6.45709C4.84188 6.41472 4.88425 6.37235 4.88425 6.37235L5.13901 6.28734H7.09236C7.30475 6.24497 7.30476 5.98993 7.30476 5.82018C7.30476 4.8435 7.30476 4.03658 7.30476 3.10227C7.30476 2.63511 7.38977 2.21033 7.26211 1.74318C7.26211 1.65844 7.09236 1.57343 7.09236 1.44604C7.26266 1.44604 7.43268 1.44604 7.51742 1.53078Z" fill="white"/>
<path d="M18.5174 1.52954C18.475 1.65692 18.305 1.78457 18.2626 1.91168C18.2626 3.31315 18.2626 4.84199 18.305 6.28582L18.4324 6.37084C19.1969 6.37084 20.0036 6.20082 20.6407 6.54059C20.6831 6.54059 20.6407 6.54059 20.6407 6.58296C19.8338 6.58296 18.9845 6.62533 18.1776 6.58296L18.0926 6.49794C18.0502 6.20054 18.135 5.90341 18.0076 5.60601C17.8378 5.43625 17.2856 5.64837 17.413 5.26623C17.6254 5.09648 17.9226 5.3086 18.0502 5.05384C18.0502 4.33193 18.0926 3.69502 18.0502 3.01547C17.8805 2.80308 17.6254 2.93073 17.413 2.88809C17.328 2.80308 17.2857 2.71806 17.3707 2.63332C17.5831 2.4633 18.2626 2.67569 18.1352 2.16617C18.2202 1.95378 18.0502 1.529 18.3476 1.48663C18.39 1.4448 18.475 1.4448 18.5174 1.52954Z" fill="white"/>
<path d="M24.1218 1.52931C24.2069 1.86908 24.0368 2.16649 24.2492 2.46362C24.419 2.54863 24.7588 2.42125 24.8438 2.63364C24.8438 3.05816 24.2492 2.71838 24.1218 3.05815C24.1642 3.69533 24.0795 4.24723 24.1218 4.92677C24.0368 4.96914 24.0368 5.05416 24.0795 5.0968C24.2492 5.26655 24.5043 5.01178 24.7164 5.1818C24.8438 5.22417 24.7588 5.30919 24.7588 5.3942C24.589 5.60659 24.2492 5.35183 24.1216 5.64896L24.0792 6.49826L23.9518 6.54063H21.6587C21.6163 6.49826 21.6587 6.49826 21.6587 6.45562L21.9135 6.37088H23.6547C23.7397 6.37088 23.8671 6.28587 23.8671 6.15849C23.8671 4.79939 23.8247 3.39793 23.8247 1.95409L23.6123 1.52931C23.8244 1.44457 24.0792 1.40193 24.1218 1.52931Z" fill="white"/>
<path d="M18.7723 2.08226C18.7723 3.27161 18.7723 4.54542 18.7723 5.77686C18.7299 5.86187 18.6025 5.94688 18.5599 5.98924L18.4749 5.94687C18.4749 5.56473 18.4749 5.09758 18.4749 4.71517V4.41776C18.4749 3.61084 18.4749 2.71917 18.4749 1.91224C18.5599 1.8275 18.6023 1.69984 18.6873 1.65747C18.7723 1.82749 18.7723 1.91251 18.7723 2.08226Z" fill="white"/>
<path d="M23.7835 1.91206C23.7412 2.88874 23.7835 3.78068 23.7835 4.67235C23.7835 5.09713 23.7835 5.47928 23.7835 5.86169C23.7835 5.90406 23.7835 5.90406 23.7412 5.94643C23.4438 5.81904 23.5714 5.52192 23.5288 5.22451C23.5288 4.88474 23.4864 4.45996 23.5712 4.07781L23.5288 3.95043V1.69967C23.6135 1.57229 23.7409 1.78468 23.7835 1.91206Z" fill="white"/>
<path d="M7.17996 1.8271C7.17996 3.22829 7.17996 4.58738 7.13759 5.8191C7.09522 5.90384 7.05258 5.8191 6.96784 5.77646C6.88283 5.56407 6.96784 5.3093 6.96784 5.09718C6.92547 3.99312 6.96784 2.84642 6.96784 1.74209C7.05258 1.65735 7.13759 1.78473 7.17996 1.8271Z" fill="white"/>
<path d="M21.2786 3.56876C21.2362 3.65378 21.1089 3.65378 21.0239 3.61114L20.9388 3.56876C20.9812 3.39901 20.9388 3.14425 21.1086 3.0166C21.236 3.14398 21.1936 3.39874 21.2786 3.56876Z" fill="white"/>
<path d="M7.00969 6.03173C6.96732 6.11647 6.79729 6.0741 6.71255 6.11647H6.16039C5.73561 6.11647 5.26845 6.0741 4.88631 6.15911C4.80129 6.15911 4.75893 6.0741 4.75893 5.98909C4.8013 5.81934 5.01369 5.90408 5.14107 5.81934C5.6506 5.81934 6.2875 5.81934 6.7973 5.81934C6.83967 5.86171 6.92468 5.94672 7.00969 6.03173Z" fill="white"/>
<path d="M4.12015 5.94682C4.12015 6.03183 4.03514 6.11658 3.9504 6.15922C3.39823 5.9892 2.8037 6.11658 2.20917 6.03184C2.25154 5.94683 2.33655 5.86209 2.46393 5.86209C3.01609 5.86182 3.61035 5.86181 4.12015 5.94682Z" fill="white"/>
<path d="M20.8941 6.03158C20.9365 6.07395 20.9365 6.15896 20.8941 6.15896C20.6817 6.41373 20.4269 6.11632 20.1722 6.15896C19.7474 6.11632 19.2379 6.15896 18.7707 6.11632C18.8981 5.73418 19.4079 5.94657 19.705 5.90393C20.1298 5.94657 20.5546 5.81919 20.8941 6.03158Z" fill="white"/>
<path d="M23.4445 5.94707C23.5295 5.98944 23.6142 6.07445 23.6142 6.15946C22.8923 6.2442 22.2128 6.07446 21.5759 6.24421C21.4909 6.24421 21.4485 6.11682 21.4909 6.03181C21.6182 5.86206 21.8306 5.90443 22.0428 5.86206L23.4445 5.94707Z" fill="white"/>
<path d="M4.67351 6.28648C4.71615 6.41386 4.6735 6.58389 4.58849 6.66863C4.50348 6.75337 4.3761 6.75337 4.29136 6.711C4.20635 6.711 4.16398 6.58361 4.16398 6.4986C4.12161 6.32885 4.33373 6.24384 4.41874 6.11646C4.54612 6.11646 4.63114 6.20147 4.67351 6.28648Z" fill="white"/>
<path d="M21.4055 6.3719C21.4055 6.54165 21.4055 6.75404 21.2358 6.75404C21.1084 6.75404 20.981 6.71167 20.9384 6.58429C20.896 6.41427 21.0234 6.24452 21.1081 6.20215C21.2782 6.20188 21.3629 6.28689 21.4055 6.3719Z" fill="white"/>
<path d="M15.1629 1.57199C15.1629 2.88844 15.1629 4.28991 15.1629 5.60636L15.0779 5.64873C14.356 5.73374 13.6341 5.52135 12.9545 5.77611C12.8271 5.69137 12.9545 5.52134 12.9121 5.39396C12.9121 4.24726 12.9121 3.05819 12.9121 1.82675C12.9121 1.69937 12.9969 1.61436 13.0819 1.57172C13.2516 1.44433 13.5067 1.48671 13.7614 1.44434L15.1203 1.48671L15.1629 1.57199Z" fill="white"/>
<path d="M15.9692 1.53046C15.9692 1.82786 15.9692 2.12499 16.0116 2.42239C16.224 2.59242 16.8185 2.33766 16.6911 2.80454C16.5214 2.93192 16.2663 2.84691 16.054 2.88955L15.9689 2.93192C15.8839 3.6112 16.0113 4.33311 15.9689 4.92765C15.9689 5.01266 16.0113 5.09767 16.1387 5.14004C16.3085 5.14004 16.6059 5.01266 16.6909 5.26742C16.6485 5.69221 16.1387 5.30979 15.9689 5.6072C15.9266 5.9046 16.054 6.20173 15.9266 6.49914L15.8416 6.54151C14.9499 6.54151 14.1006 6.5415 13.2937 6.49914C13.2513 6.49914 13.2937 6.41413 13.2937 6.41413L13.4634 6.32938C14.143 6.24437 14.9073 6.32939 15.6292 6.24438C15.7142 6.24438 15.7989 6.15963 15.7989 6.03198C15.7989 4.71553 15.7989 3.39908 15.7989 1.9126C15.7566 1.70021 15.5442 1.57283 15.5442 1.40308C15.6718 1.44572 15.8842 1.40307 15.9692 1.53046Z" fill="white"/>
<path d="M10.2783 1.48748C10.2359 1.65751 10.1086 1.69988 10.0235 1.82726C9.93854 2.08202 10.0235 2.37916 9.98118 2.67656C9.98118 3.86563 9.98118 4.96969 9.98118 6.11639C9.98118 6.2014 10.0662 6.28642 10.1509 6.32879L11.9769 6.37116C12.0619 6.37116 12.1893 6.41353 12.2743 6.49854C12.2319 6.58355 12.1046 6.58354 12.0195 6.58354C11.34 6.58354 10.6181 6.62592 9.93854 6.54118L9.85352 6.49881C9.85352 6.20141 9.85352 5.86191 9.72614 5.60687C9.51375 5.52213 9.25898 5.60687 9.04659 5.52213C8.96158 5.47976 8.96158 5.35211 9.04659 5.2671C9.25898 5.13971 9.6835 5.35211 9.81115 5.01234C9.81115 4.33279 9.85352 3.69588 9.81115 3.01634C9.6414 2.76157 9.21661 3.01633 9.04659 2.76157C9.1316 2.37943 9.64113 2.7192 9.81115 2.37943L9.85352 1.5725C10.0233 1.44512 10.1509 1.44511 10.2783 1.48748Z" fill="white"/>
<path d="M10.5334 1.69951C10.5758 2.88858 10.4484 3.95027 10.5334 5.13935C10.4484 5.39411 10.6608 5.81889 10.2787 5.86126C10.1937 4.67192 10.2787 3.3981 10.2363 2.12402C10.1939 1.91163 10.3213 1.74188 10.4911 1.6145L10.5334 1.69951Z" fill="white"/>
<path d="M15.6296 1.91262C15.6296 3.22908 15.6719 4.63054 15.5872 5.86225C15.5022 5.86225 15.4174 5.77724 15.4174 5.73487C15.4174 5.22535 15.3324 4.67318 15.3751 4.12101C15.4174 3.39909 15.3327 2.50743 15.4174 1.74287C15.5022 1.70023 15.6296 1.82761 15.6296 1.91262Z" fill="white"/>
<path d="M12.4884 5.94672C12.5734 5.94672 12.6581 6.03173 12.5734 6.11647L12.446 6.24385C11.8515 6.03146 11.0872 6.15911 10.45 6.0741C10.4924 5.98909 10.535 5.90408 10.6198 5.81934C11.2569 5.90408 11.8938 5.81933 12.4884 5.94672Z" fill="white"/>
<path d="M15.2044 5.86185C15.2894 5.90422 15.3741 5.98923 15.3741 6.07424L15.2891 6.11661C14.5672 6.11661 13.8453 6.03187 13.1657 6.20162C13.0807 6.20162 12.9534 6.20163 12.911 6.07424C12.9957 5.90422 13.1657 5.86185 13.3358 5.86185C14.0153 5.81948 14.6098 5.86185 15.2044 5.86185Z" fill="white"/>
<path d="M12.9993 6.45582C12.9993 6.58321 12.9993 6.75323 12.8295 6.75323C12.7022 6.75323 12.5324 6.75323 12.5324 6.58348C12.5748 6.4561 12.6598 6.37108 12.7872 6.28607C12.9145 6.24343 12.9569 6.37108 12.9993 6.45582Z" fill="white"/>
<path d="M12.657 4.2897C12.742 3.61015 12.657 2.84587 12.6994 2.16632C12.6994 1.95393 12.6994 1.74154 12.572 1.57178C12.0625 1.35939 11.4253 1.48677 10.8308 1.4444C10.7884 1.4444 10.7458 1.4444 10.7458 1.48677C10.7458 2.84586 10.7458 4.11968 10.7458 5.4364L10.7881 5.60615C11.2129 5.69117 11.5951 5.64853 12.0198 5.64853C12.2322 5.6909 12.4443 5.73354 12.6567 5.77591C12.6567 5.30875 12.6991 4.96897 12.6567 4.50182V4.2897H12.657Z" fill="white"/>
<path d="M12.4864 4.24771C12.274 4.07768 12.2316 3.82292 12.0616 3.6108C12.1466 3.52606 12.2313 3.48342 12.3163 3.3984C12.4437 3.27102 12.5711 3.05863 12.5287 2.88888C12.5287 2.71886 12.4437 2.54911 12.274 2.46409C11.9342 2.33671 11.467 2.37908 11.0849 2.42172C10.9999 2.46409 10.9999 2.50674 11.0425 2.59175C11.1699 2.59175 11.2549 2.67676 11.2549 2.80414C11.2549 3.2713 11.2549 3.73845 11.1699 4.20561L11.0002 4.418C11.1699 4.58802 11.4249 4.46037 11.7221 4.50301C11.8071 4.37563 11.5947 4.29062 11.5523 4.16324C11.595 4.03586 11.5523 3.82346 11.6373 3.73872C11.8921 3.95111 11.9771 4.33326 12.2742 4.54565L12.6564 4.58802V4.37562C12.6564 4.33271 12.529 4.24771 12.4864 4.24771ZM11.9768 3.3984C11.8494 3.3984 11.6797 3.48342 11.6371 3.3134C11.6371 3.101 11.552 2.80387 11.6371 2.59147C11.8068 2.46409 12.0192 2.50647 12.1466 2.67649C12.2316 2.80387 12.2316 2.93125 12.2316 3.101C12.1466 3.22865 12.1042 3.35603 11.9768 3.3984Z" fill="black" fill-opacity="0.3"/>
<path d="M23.3596 1.9553C23.3596 1.78555 23.3596 1.61552 23.2745 1.48814H22.6376C22.2128 1.57315 21.7033 1.40341 21.3212 1.65817C21.1514 1.87056 21.2362 2.08268 21.1938 2.33772C21.2362 2.4651 21.2788 2.63512 21.3212 2.76223L21.2362 2.93225L21.0238 2.84724L20.9388 2.67749C20.9811 2.59248 21.0238 2.50747 21.0238 2.38009C21.0238 2.08269 21.1088 1.65817 20.7267 1.53079C20.1745 1.48842 19.665 1.44604 19.0704 1.44604C19.028 1.44604 18.9854 1.44605 18.9854 1.48842C18.9854 2.80487 18.9854 3.95157 18.9854 5.22566C18.9854 5.39541 18.943 5.56516 19.1128 5.65017C19.6223 5.56516 20.0471 5.65017 20.5143 5.65017C20.684 5.65017 20.8117 5.82019 21.0238 5.77755C21.0664 5.26802 21.0664 4.63112 21.0664 4.03659C21.0664 3.99422 21.0664 3.86656 20.9814 3.86656V3.73918L21.2788 3.78155L21.3212 3.86629C21.3212 3.86629 21.3212 3.86629 21.2788 3.90866L21.2364 5.6499C21.2364 5.69227 21.2364 5.81992 21.3638 5.81992C21.8733 5.52251 22.5529 5.73491 23.1474 5.6499L23.2748 5.60753C23.3598 5.31013 23.3172 4.29107 23.3172 4.29107C23.3596 3.52679 23.3596 2.76223 23.3596 1.9553Z" fill="white"/>
<path d="M21.3637 3.86554C21.4487 3.95055 21.4911 4.07793 21.4487 4.20532L21.3213 4.37534L21.4063 4.46008C21.6187 4.46008 21.8735 4.50244 22.0859 4.4177C22.0435 4.33269 21.9161 4.29033 21.8311 4.20532C21.5763 3.56841 21.4063 2.93123 21.2366 2.25195L21.0242 2.37934C20.8968 2.97388 20.6844 3.48367 20.5146 4.07794C20.4723 4.20532 20.3449 4.20531 20.2599 4.29032C20.1325 4.33269 20.0901 4.20531 20.0475 4.1203C20.0475 3.61078 20.0899 3.18599 20.0475 2.6341C20.0475 2.54909 20.1325 2.46408 20.2172 2.54909C20.3446 2.6341 20.3446 2.80385 20.387 2.88886C20.472 2.93123 20.5567 2.93124 20.5567 2.8465L20.6418 2.33697C20.5567 2.16695 20.4294 2.33697 20.302 2.33697C20.0472 2.33697 19.7074 2.37933 19.4527 2.25195C19.2403 2.33696 19.2829 2.59173 19.2829 2.80412C19.2829 2.84649 19.2829 2.88913 19.2829 2.88913C19.4527 2.76175 19.5377 2.50699 19.7501 2.54936V3.05888V4.16294C19.6651 4.24796 19.4953 4.29032 19.5377 4.4177C19.8351 4.50271 20.1746 4.41771 20.472 4.46008C20.6418 4.46008 20.8118 4.50244 20.9815 4.46008C21.0239 4.41771 20.9815 4.37534 20.9815 4.3327C20.8965 4.29033 20.7691 4.20532 20.8118 4.07794C20.8541 3.9932 20.8968 3.82317 21.0242 3.86554C21.0668 3.86554 21.0668 3.86554 21.1092 3.90791L21.3639 3.95028C21.3213 3.90791 21.3213 3.86554 21.3637 3.86554ZM20.9815 3.65314L20.8965 3.61078C20.9389 3.44103 20.8965 3.18626 21.0663 3.05861C21.236 3.14362 21.1936 3.39839 21.2787 3.56814C21.2363 3.65315 21.0665 3.65314 20.9815 3.65314Z" fill="black" fill-opacity="0.3"/>
<path d="M22.9326 2.4644C22.9326 2.59178 23.0176 2.80417 22.9326 2.88918C22.8052 2.80417 22.8052 2.6768 22.5928 2.63443C22.5078 2.63443 22.3804 2.63442 22.3804 2.76181C22.3381 3.14395 22.7202 3.14395 22.9326 3.35634C23.145 3.56873 23.23 3.86586 23.145 4.12063C23.06 4.33302 22.9752 4.41803 22.7629 4.41803C22.5931 4.4604 22.4655 4.33302 22.3383 4.41803C22.2957 4.41803 22.2533 4.4604 22.211 4.41803V3.73876C22.211 3.69639 22.2533 3.69639 22.296 3.69639C22.381 3.90878 22.3386 4.16355 22.6358 4.20592C22.7205 4.20592 22.8055 4.16355 22.8481 4.03616C22.8905 3.44163 22.0836 3.56901 22.0836 2.9321C22.0836 2.80472 22.126 2.67734 22.1686 2.54996C22.296 2.33756 22.6357 2.46495 22.8481 2.33757C22.89 2.29466 22.89 2.42203 22.9326 2.4644Z" fill="black" fill-opacity="0.3"/>
<path d="M14.3559 2.42137C14.1861 2.50638 14.0161 2.63376 14.0585 2.88852C14.0161 3.31304 14.0161 3.73782 14.0585 4.16233L14.3132 4.4171V4.45946C14.0161 4.45946 13.7614 4.50183 13.464 4.45946C13.3366 4.33208 13.6337 4.24707 13.6763 4.16206C13.7187 3.69491 13.7614 3.18539 13.7187 2.67586C13.6337 2.50584 13.3789 2.54848 13.4216 2.37846C13.6763 2.33609 14.0161 2.33609 14.2709 2.37846L14.3559 2.42137Z" fill="black" fill-opacity="0.3"/>
<path d="M6.03161 2.76148C5.86159 2.97387 5.81921 2.59173 5.64946 2.54909C5.56445 2.54909 5.39471 2.50672 5.3097 2.59146C5.26733 2.80385 5.22468 3.01597 5.3097 3.22836C5.39471 3.271 5.52209 3.27101 5.6071 3.27101C5.69211 3.18599 5.77684 3.01597 5.9045 3.01597C5.98951 3.10098 5.86213 3.22837 5.9045 3.31338C5.86213 3.44076 5.98951 3.61077 5.81949 3.65314C5.73448 3.61077 5.64974 3.39839 5.52208 3.39839H5.26732C5.18231 3.69579 5.22495 3.99292 5.26732 4.29032C5.3947 4.41771 5.56473 4.29032 5.73448 4.29032C5.94687 4.24795 5.90422 3.95055 6.07425 3.95055C6.11662 4.07793 6.15926 4.24796 6.11662 4.37534L6.03188 4.46007H4.80017C4.7578 4.46007 4.63042 4.46008 4.67279 4.37534C5.05493 4.12031 4.84254 3.65342 4.88518 3.31364C4.84281 3.05888 5.05493 2.63437 4.67279 2.46435C4.67279 2.37934 4.7578 2.37934 4.80017 2.37934C5.0973 2.37934 5.52209 2.50672 5.77685 2.25195C6.03161 2.33669 6.03161 2.59173 6.03161 2.76148Z" fill="black" fill-opacity="0.3"/>
<path d="M4.1648 2.50635C3.82503 2.76111 3.82503 3.2709 3.65528 3.65304C3.52789 3.86544 3.57027 4.20521 3.35814 4.37497C3.27313 4.41734 3.18839 4.33232 3.18839 4.24758C3.06101 3.73805 2.93363 3.18589 2.72124 2.67637C2.72124 2.54899 2.3391 2.50635 2.55149 2.37897C2.80625 2.3366 2.97628 2.42134 3.23104 2.37897C3.27341 2.54899 3.06128 2.634 3.10365 2.80375C3.2734 3.01614 3.18867 3.35591 3.40079 3.61067L3.4858 3.52594C3.4858 3.14379 3.95295 2.76138 3.57081 2.4216C3.65582 2.25185 3.91058 2.37924 4.08033 2.33687C4.12243 2.37869 4.24981 2.42133 4.1648 2.50635Z" fill="black" fill-opacity="0.3"/>
<path d="M2.0825 1.7002C2.16751 3.10166 2.0825 4.41811 2.0825 5.73457C2.0825 5.81958 1.99749 5.90432 1.91275 5.90432C1.82773 5.4798 1.82773 5.05502 1.87037 4.63023C1.828 3.73829 1.87037 2.80399 1.87037 1.91232C1.87037 1.78521 1.99776 1.7002 2.0825 1.7002Z" fill="white"/>
</svg>
