<svg width="86" height="25" viewBox="0 0 86 25" fill="none" xmlns="http://www.w3.org/2000/svg">
<path d="M80.4333 5.48031C79.5705 5.48031 78.4283 5.57341 78.031 5.57341C77.7982 5.57341 76.8888 5.55013 76.6079 5.55013V5.78289C77.075 5.87599 77.3543 6.03892 77.3543 6.48281V12.8021C77.3543 13.246 77.0983 13.4554 76.6079 13.5253V13.758C76.8872 13.758 77.7268 13.7115 77.9612 13.7115C78.3569 13.7115 79.4076 13.7813 80.2704 13.7813C83.2796 13.7813 85.1217 12.0091 85.1217 9.58342C85.1217 7.08963 83.3494 5.48031 80.4333 5.48031ZM44.8935 5.48031C44.4496 5.48031 43.3075 5.55013 42.9118 5.55013C42.6557 5.55013 41.8162 5.52686 41.5352 5.52686V5.75961C42.0489 5.85271 42.2584 6.08547 42.2584 6.48281V12.7555C42.2584 13.1994 42.0024 13.4089 41.5352 13.502V13.7348C41.8145 13.7348 42.6774 13.6882 42.9118 13.6882C43.1678 13.6882 44.0539 13.7348 44.3349 13.7348V13.502C43.8445 13.4089 43.5884 13.1761 43.5884 12.7555V9.93422C43.7281 9.95749 43.8445 9.95749 43.9608 9.98077C44.5909 10.0739 44.9401 10.3764 45.2194 10.7272C45.6633 11.2875 46.4779 12.4529 46.9218 12.9899C47.4355 13.62 47.9708 13.8528 48.6475 13.8528C48.9501 13.8528 49.3707 13.8062 49.6034 13.7597V13.5735C49.0897 13.5502 48.5777 13.0132 48.2036 12.5477C47.8079 12.0805 46.827 10.7056 46.4779 10.3083C46.1986 9.98243 45.9176 9.81784 45.9176 9.81784C47.1529 9.51526 47.9692 8.76878 47.9692 7.69646C47.9476 6.29661 46.852 5.48031 44.8935 5.48031ZM70.7092 5.48031C70.2653 5.48031 69.1232 5.55013 68.7275 5.55013C68.4715 5.55013 67.6319 5.52686 67.3509 5.52686V5.75961C67.8646 5.85271 68.0741 6.08547 68.0741 6.48281V12.7555C68.0741 13.1994 67.7948 13.4089 67.3509 13.502V13.7348C67.6302 13.7348 68.4931 13.6882 68.7042 13.6882C68.9602 13.6882 69.8464 13.7348 70.1273 13.7348V13.502C69.6369 13.4089 69.3576 13.1761 69.3576 12.7555V9.93422C69.4972 9.95749 69.6136 9.95749 69.73 9.98077C70.3601 10.0739 70.7092 10.3764 70.9885 10.7272C71.4324 11.2875 72.2238 12.4529 72.6677 12.9899C73.1814 13.62 73.7167 13.8528 74.3701 13.8528C74.6727 13.8528 75.0933 13.8062 75.3493 13.7597V13.5735C74.8123 13.5502 74.3236 13.0132 73.9495 12.5477C73.5754 12.0822 72.5962 10.7056 72.2703 10.3083C71.991 9.98243 71.7101 9.81784 71.7101 9.81784C72.9453 9.51526 73.7616 8.76878 73.7616 7.69646C73.765 6.29661 72.6677 5.48031 70.7092 5.48031ZM35.5651 5.50358C35.5651 5.50358 35.4254 6.04058 35.309 6.29661L32.6972 12.5926C32.511 13.0365 32.23 13.3856 31.6947 13.502V13.7115L32.8834 13.6882C33.0463 13.6882 33.7695 13.7115 34.0488 13.7115V13.502C33.5817 13.3856 33.4653 13.1994 33.4653 12.965C33.4653 12.8254 33.5351 12.5926 33.6049 12.428L34.1419 11.0747H37.1977L37.7812 12.4047C37.8743 12.5909 37.9441 12.8004 37.9441 12.965C37.9441 13.1512 37.8278 13.3607 37.4071 13.4554V13.6649C37.7097 13.6649 38.5959 13.6417 38.807 13.6417C39.0181 13.6417 39.9491 13.6649 40.2534 13.6649V13.4554C39.6931 13.3158 39.4836 13.0116 39.2974 12.5693L36.5227 6.25006C36.4063 5.99403 36.2899 5.45703 36.2899 5.45703H35.5667V5.50358H35.5651ZM61.5204 5.50358C61.5204 5.50358 61.3808 6.04058 61.2877 6.29661L58.6759 12.5926C58.4897 13.0365 58.2087 13.3856 57.6966 13.502V13.7115L58.9086 13.6882C59.0715 13.6882 59.7715 13.7115 60.0275 13.7115V13.502C59.5603 13.3856 59.4439 13.1994 59.4439 12.965C59.4439 12.8254 59.5138 12.5926 59.5836 12.428L60.1206 11.0747H63.1996L63.7831 12.4047C63.8762 12.5909 63.9228 12.8004 63.9228 12.965C63.9228 13.1512 63.8064 13.3607 63.4091 13.4554V13.6649C63.7117 13.6649 64.5978 13.6417 64.8089 13.6417C65.0184 13.6417 65.9511 13.6649 66.2553 13.6649V13.4554C65.695 13.3158 65.4856 13.0116 65.2994 12.5693L62.5246 6.25006C62.4082 5.99403 62.2686 5.45703 62.2686 5.45703H61.5221V5.50358H61.5204ZM21.7129 5.52686V5.75961C22.1086 5.85271 22.3663 6.03892 22.3663 6.45953V12.8254C22.3663 13.2692 22.087 13.4322 21.7129 13.5253V13.7348C21.8991 13.7348 22.7852 13.7115 22.9964 13.7115C23.2524 13.7115 24.1618 13.7348 24.3729 13.7348V13.5253C23.9773 13.4322 23.6963 13.2692 23.6963 12.8254V9.81618H28.4312V12.8254C28.4312 13.2692 28.1751 13.4322 27.7778 13.5253V13.7348C27.9873 13.7348 28.8734 13.7115 29.1311 13.7115C29.3406 13.7115 30.2267 13.7348 30.4378 13.7348V13.5253C30.0422 13.4322 29.7612 13.246 29.7612 12.8254V6.45953C29.7612 6.01564 30.0405 5.85271 30.4378 5.75961V5.52686C30.2284 5.52686 29.3422 5.55013 29.1311 5.55013C28.8751 5.55013 27.9889 5.52686 27.7778 5.52686V5.75961C28.1735 5.85271 28.4312 6.01564 28.4312 6.45953V9.11792H23.673V6.45953C23.673 6.01564 23.9523 5.85271 24.3497 5.75961V5.52686C24.1402 5.52686 23.2308 5.55013 22.9731 5.55013C22.7852 5.55179 21.8991 5.52686 21.7129 5.52686ZM49.3241 5.5518V5.78455C49.7913 5.87765 50.0706 6.18023 50.2568 6.57758L53.4755 13.783H54.1056L57.0433 6.85688C57.3226 6.20351 57.6268 5.9242 58.1156 5.80782V5.57507C57.8363 5.57507 57.0665 5.62162 56.8803 5.62162C56.6708 5.62162 56.0407 5.57507 55.7614 5.57507V5.80782C56.0873 5.87765 56.3217 6.04058 56.3217 6.29827C56.3217 6.53102 56.2053 6.83527 56.0424 7.20767L54.0374 12.0124L51.916 7.20767C51.6833 6.71723 51.5669 6.43792 51.5669 6.25172C51.5669 5.97241 51.8695 5.83276 52.1272 5.78455V5.5518C51.8246 5.5518 50.9617 5.59835 50.7506 5.59835C50.5827 5.57507 49.6267 5.5518 49.3241 5.5518ZM44.4962 6.0173C45.8495 6.0173 46.571 6.69395 46.571 7.81283C46.571 8.58258 46.0806 9.46871 44.5427 9.46871C44.1703 9.46871 43.773 9.44543 43.5169 9.42216V6.11041C43.8195 6.04058 44.2401 6.0173 44.4962 6.0173ZM70.3368 6.0173C71.6901 6.0173 72.4117 6.69395 72.4117 7.81283C72.4117 8.58258 71.9212 9.46871 70.3834 9.46871C70.011 9.46871 69.6136 9.44543 69.3576 9.42216V6.11041C69.6602 6.04058 70.0559 6.0173 70.3368 6.0173ZM80.0609 6.0173C82.3469 6.0173 83.6986 7.51025 83.6986 9.65491C83.6986 11.7065 82.4151 13.1761 79.9678 13.1761C79.5489 13.1761 78.9886 13.1529 78.6844 13.083V6.08713C78.9886 6.04058 79.5954 6.0173 80.0609 6.0173ZM35.6349 7.39387L36.9416 10.4263H34.398L35.6349 7.39387ZM61.5903 7.39387L62.897 10.4263H60.3783L61.5903 7.39387Z" fill="#231F20"/>
<path d="M8.88487 3.00952H0.0701504L0.046875 10.052C0.046875 18.6805 8.69867 24.1851 8.79177 24.255L8.81504 24.2782L8.88487 24.2317C10.3545 23.2757 17.6996 18.0521 17.6996 10.0985V3.0328L8.88487 3.00952Z" fill="#C5112E"/>
<path d="M0.162928 10.0522H0.325855V3.19597H17.7458V3.03304H17.5829C17.5829 3.03304 17.5829 4.0821 17.5829 10.0988C17.5829 14.4829 15.39 17.9808 13.1988 20.3832C12.1032 21.5719 11.0059 22.5046 10.1664 23.1347C9.7474 23.4372 9.41988 23.6949 9.16385 23.8346C9.04747 23.9044 8.95437 23.9742 8.88454 24.0208C8.81472 24.0673 8.79144 24.0906 8.79144 24.0906L8.86127 24.2303L8.95437 24.0906C8.95437 24.0906 8.9311 24.0673 8.86127 24.0208C8.3941 23.7182 6.24944 22.2253 4.22116 19.8229C2.19287 17.4206 0.30258 14.0855 0.30258 10.0522V9.91258H0.139652L0.162928 10.0522L0.0232754 10.1453L0.0698261 10.2152H0.162928V10.0522H0C0 14.4596 2.19287 18.0274 4.38408 20.4996C6.57696 22.9717 8.76817 24.3483 8.76817 24.3483L8.83799 24.3949L8.9311 24.3483C8.9311 24.3483 11.1705 23.0416 13.4083 20.5943C15.6477 18.1687 17.8855 14.6009 17.8855 10.1004C17.8855 7.09127 17.8855 5.31902 17.8855 4.31652C17.8855 3.31401 17.8855 3.03304 17.8855 3.03304V2.87012H0V10.0988L0.0232754 10.1453L0.162928 10.0522Z" fill="black"/>
<path d="M57.9063 17.4441C57.0434 17.4441 56.4831 17.888 56.4831 18.6095C56.4831 19.4258 57.2994 19.7284 57.6951 19.9163C58.2321 20.1723 58.6976 20.3834 58.6976 20.8489C58.6976 21.2928 58.3485 21.5489 57.7882 21.5489C57.5322 21.5489 57.2279 21.479 57.0185 21.3394C56.8323 21.223 56.6926 20.9903 56.6228 20.7558H56.5064V21.642C56.809 21.6885 57.1831 21.8515 57.7649 21.8515C58.7442 21.8515 59.3044 21.361 59.3044 20.6627C59.3044 19.9163 58.6743 19.637 58.0692 19.3793C57.5787 19.1698 57.0667 18.8888 57.0667 18.4233C57.0667 18.0742 57.2994 17.7467 57.8597 17.7467C58.3502 17.7467 58.8157 17.9329 58.9786 18.4233H59.095V17.5605C58.7458 17.5854 58.4665 17.4441 57.9063 17.4441ZM42.9103 17.4441C41.5802 17.4441 40.6708 18.3768 40.6708 19.6602C40.6708 20.8722 41.394 21.8531 42.9335 21.8531C43.68 21.8531 44.1222 21.5971 44.4265 21.6436L44.473 20.711H44.3567C44.1472 21.3178 43.6567 21.5505 43.0034 21.5505C41.8147 21.5505 41.394 20.5015 41.394 19.6619C41.394 18.6361 41.931 17.7733 42.9103 17.7733C43.4938 17.7733 44.0524 18.0526 44.2868 18.6128H44.4032L44.3567 17.6802C43.961 17.6785 43.5636 17.4441 42.9103 17.4441ZM62.6644 17.4441C61.3344 17.4441 60.425 18.3768 60.425 19.6602C60.425 20.8722 61.1482 21.8531 62.711 21.8531C63.4574 21.8531 63.8997 21.5971 64.2039 21.6436L64.2505 20.711H64.1341C63.9246 21.3178 63.4342 21.5505 62.7808 21.5505C61.6154 21.5505 61.1715 20.5015 61.1715 19.6619C61.1715 18.6361 61.7085 17.7733 62.6877 17.7733C63.2712 17.7733 63.8298 18.0526 64.0643 18.6128H64.1806L64.1341 17.6802C63.7135 17.6785 63.3161 17.4441 62.6644 17.4441ZM73.1583 17.4441C71.8283 17.4441 70.9887 18.4466 70.9887 19.6602C70.9887 20.8955 71.8283 21.8531 73.1583 21.8531C74.4883 21.8531 75.3279 20.8739 75.3279 19.6602C75.3279 18.4466 74.4883 17.4441 73.1583 17.4441ZM78.475 17.4441C77.145 17.4441 76.3054 18.4466 76.3054 19.6602C76.3054 20.8955 77.145 21.8531 78.475 21.8531C79.8051 21.8531 80.6446 20.8739 80.6446 19.6602C80.6446 18.4466 79.8051 17.4441 78.475 17.4441ZM31.2975 17.4923C31.2044 17.5156 31.0648 17.5389 30.9949 17.5389H28.3366V17.6552C28.5926 17.7018 28.709 17.8182 28.709 18.0276V21.2696C28.709 21.5023 28.5693 21.6187 28.3366 21.6652V21.7816C28.4762 21.7816 28.9434 21.7583 29.0598 21.7583H30.4131C30.8802 21.7583 31.113 21.7583 31.5087 21.8049L31.625 20.9188L31.5087 20.8955C31.369 21.2214 31.2294 21.4325 30.6691 21.4325H29.3856V19.7068H30.295C30.4114 19.7068 30.5743 19.7301 30.6441 19.7301C30.8303 19.7766 30.9234 19.9163 30.97 20.0792H31.0864C31.0864 19.9395 31.0631 19.6353 31.0631 19.5422C31.0631 19.4491 31.0631 19.1698 31.0864 19.0285H30.97C30.9234 19.1914 30.8536 19.3078 30.6441 19.3543C30.5743 19.3776 30.4114 19.3776 30.295 19.3776H29.3856V17.8614H30.5045C31.0182 17.8614 31.1811 18.0709 31.2742 18.3518H31.3906L31.4139 17.489H31.2975V17.4923ZM34.7024 17.4923C34.2585 17.4923 33.6999 17.5389 33.4904 17.5389C33.374 17.5389 32.9068 17.5156 32.7672 17.5156V17.632C32.9999 17.6785 33.1396 17.7716 33.1396 18.0044V21.2696C33.1396 21.5023 32.9999 21.5954 32.7439 21.642V21.7583C32.8836 21.7583 33.3275 21.7351 33.4438 21.7351C33.6533 21.7351 34.167 21.7816 34.6093 21.7816C36.1488 21.7816 37.1047 20.8489 37.1047 19.612C37.1047 18.3319 36.2186 17.4923 34.7024 17.4923ZM47.0383 17.5156C47.0383 17.5156 46.9685 17.7949 46.9219 17.9345L45.5686 21.1997C45.4755 21.4325 45.3126 21.5954 45.0549 21.6669V21.7833L45.685 21.76C45.7781 21.76 46.1289 21.7833 46.2686 21.7833V21.6669C46.0358 21.5971 45.966 21.504 45.966 21.3876C45.966 21.3178 46.0125 21.2014 46.0358 21.1083L46.3151 20.4084H47.9012L48.2038 21.1083C48.2503 21.2014 48.2736 21.3178 48.2736 21.3876C48.2736 21.4807 48.2038 21.5971 47.9943 21.6436V21.76C48.1572 21.76 48.6011 21.7367 48.7175 21.7367C48.8339 21.7367 49.301 21.76 49.4639 21.76V21.6436C49.1846 21.5738 49.0683 21.4109 48.9735 21.1765L47.5504 17.9113C47.5038 17.7716 47.434 17.4923 47.434 17.4923H47.0383V17.5156ZM65.4392 17.5389V17.6552C65.6486 17.7018 65.7883 17.7949 65.7883 18.0276V21.2928C65.7883 21.5256 65.6486 21.6187 65.4392 21.6652V21.7816C65.5323 21.7816 65.9994 21.7583 66.1158 21.7583C66.2322 21.7583 66.7226 21.7816 66.8157 21.7816V21.6652C66.6063 21.6187 66.4666 21.5256 66.4666 21.2928V19.7533H68.8922V21.2928C68.8922 21.5256 68.7526 21.6187 68.5664 21.6652V21.7816C68.6828 21.7816 69.1267 21.7583 69.2663 21.7583C69.3827 21.7583 69.8499 21.7816 69.943 21.7816V21.6652C69.7335 21.6187 69.5938 21.5256 69.5938 21.2928V18.0276C69.5938 17.7949 69.7335 17.7018 69.943 17.6552V17.5389C69.8499 17.5389 69.3594 17.5621 69.2663 17.5621C69.1267 17.5621 68.6828 17.5389 68.5664 17.5389V17.6552C68.7759 17.7018 68.8922 17.7949 68.8922 18.0276V19.4042H66.4666V18.0276C66.4666 17.7949 66.6063 17.7018 66.8157 17.6552V17.5389C66.7226 17.5389 66.2322 17.5621 66.1158 17.5621C65.9994 17.5389 65.5323 17.5389 65.4392 17.5389ZM38.1072 17.5389V17.6552C38.3633 17.7018 38.4796 17.8182 38.4796 18.0509V21.2696C38.4796 21.5023 38.3633 21.6187 38.1072 21.6652V21.7816C38.2469 21.7816 38.7373 21.7583 38.8537 21.7583C38.9934 21.7583 39.4372 21.7816 39.5769 21.7816V21.6652C39.3209 21.6187 39.2045 21.5023 39.2045 21.2696V18.0509C39.2045 17.8182 39.3441 17.7251 39.5769 17.6552V17.5389C39.4372 17.5389 38.9701 17.5621 38.8537 17.5621C38.7124 17.5389 38.2469 17.5389 38.1072 17.5389ZM50.257 17.5389V17.6552C50.513 17.7018 50.6294 17.8182 50.6294 18.0509V21.2696C50.6294 21.5023 50.513 21.6187 50.257 21.6652V21.7816C50.3966 21.7816 50.8871 21.7583 51.0034 21.7583H52.3567C52.8239 21.7583 53.0567 21.7583 53.4524 21.8049L53.5687 20.9188L53.4524 20.8955C53.3127 21.2214 53.1498 21.4325 52.6128 21.4325H51.3293V18.0509C51.3293 17.8182 51.469 17.7251 51.7017 17.6552V17.5389C51.5621 17.5389 51.0949 17.5621 50.9785 17.5621C50.8638 17.5389 50.3966 17.5389 50.257 17.5389ZM81.6239 17.5389V17.6552C81.8799 17.7018 81.9963 17.8182 81.9963 18.0509V21.2696C81.9963 21.5023 81.8799 21.6187 81.6239 21.6652V21.7816C81.7635 21.7816 82.254 21.7583 82.3703 21.7583H83.7236C84.1908 21.7583 84.4236 21.7583 84.8192 21.8049L84.9356 20.9188L84.8192 20.8955C84.6796 21.2214 84.5167 21.4325 83.9797 21.4325H82.6962V18.0509C82.6962 17.8182 82.8358 17.7251 83.0686 17.6552V17.5389C82.9289 17.5389 82.4618 17.5621 82.3454 17.5621C82.254 17.5389 81.7635 17.5389 81.6239 17.5389ZM22.0389 17.5389V17.6552C22.2949 17.7018 22.4113 17.8182 22.388 18.0276L22.1553 21.1765C22.132 21.4325 21.9924 21.5954 21.7363 21.6669V21.7833H22.3431C22.4363 21.7833 22.787 21.7833 22.9267 21.7833V21.6669C22.6474 21.5971 22.5776 21.4342 22.5776 21.248L22.7638 18.4499L24.2102 21.7849H24.4662L25.9126 18.4266L26.0988 21.2247C26.0988 21.4109 26.029 21.5738 25.7497 21.6436V21.76C25.8893 21.76 26.3798 21.76 26.4729 21.76H27.1961V21.6436C26.9168 21.5738 26.8004 21.4342 26.7771 21.1532L26.5444 18.0044C26.5211 17.7949 26.6375 17.6785 26.8702 17.632V17.5156C26.7073 17.5156 26.4263 17.5156 26.3099 17.5156C26.2168 17.5156 26.0074 17.5156 25.866 17.5156L24.4662 20.7575L23.0663 17.5156C22.9267 17.5156 22.7172 17.5156 22.5992 17.5156C22.5277 17.5389 22.2018 17.5389 22.0389 17.5389ZM73.1583 17.7716C74.1608 17.7716 74.5814 18.7043 74.5814 19.6835C74.5814 20.6627 74.1375 21.5721 73.1583 21.5721C72.179 21.5721 71.7119 20.686 71.7119 19.6835C71.7119 18.681 72.1558 17.7716 73.1583 17.7716ZM78.475 17.7716C79.4543 17.7716 79.8982 18.7043 79.8982 19.6835C79.8982 20.6627 79.4543 21.5721 78.475 21.5721C77.4958 21.5721 77.0519 20.686 77.0519 19.6835C77.0286 18.681 77.4725 17.7716 78.475 17.7716ZM34.4929 17.7716C35.6816 17.7716 36.3815 18.5414 36.3815 19.637C36.3815 20.7558 35.7282 21.4558 34.4696 21.4558C34.2369 21.4558 33.9792 21.4325 33.8395 21.4092V17.7949C33.9792 17.7949 34.2585 17.7716 34.4929 17.7716ZM47.0616 18.4948L47.7382 20.0576H46.4315L47.0616 18.4948Z" fill="#C5112E"/>
<path d="M12.4311 20.3132C12.3846 20.2666 12.3148 20.1735 12.2682 20.127C12.1984 19.8244 12.6872 19.6133 12.4311 19.2874C12.3846 19.1012 12.4079 18.8435 12.2217 18.6806C12.082 18.5642 11.8958 18.5409 11.7312 18.4478C11.7312 18.378 11.8243 18.4013 11.8941 18.378C12.1502 18.3082 12.3846 18.6108 12.5708 18.4013C12.5941 18.2383 12.4311 18.0754 12.3148 17.9574C11.9424 17.7013 11.3588 17.7944 11.0795 17.3971L11.1261 17.3738C11.4985 17.4437 11.8958 17.3971 12.1751 17.1411C12.338 16.9316 12.501 16.7221 12.7587 16.6506C13.0147 16.4644 13.038 16.1369 13.038 15.8111C13.0612 15.6947 13.1078 15.5783 13.2009 15.4852C13.3405 15.3455 13.6913 15.4154 13.6198 15.1361C13.4336 15.043 13.2242 14.9499 12.9898 14.9731C12.8734 14.9266 13.013 14.8335 13.0363 14.7869C13.4087 14.5542 13.9923 14.3913 13.9457 13.8543C13.8992 13.7844 13.9224 13.7146 13.8293 13.6913C13.6664 13.7146 13.5733 13.8543 13.4336 13.9241C13.0845 14.1103 12.6406 14.087 12.3148 14.2965C12.2449 14.2965 12.2682 14.2034 12.2915 14.1801C12.4079 14.0172 12.6639 13.9939 12.7587 13.7844C12.8285 13.6215 12.8518 13.3888 13.0612 13.3173C13.1776 13.2242 13.3638 13.2242 13.4336 13.0845C13.4336 13.0147 13.3405 12.9681 13.2707 12.9449C12.9449 12.8518 12.6173 13.038 12.3846 13.2707C12.1518 13.3638 11.8709 13.4569 11.6847 13.6664C11.6614 13.6664 11.5916 13.6664 11.5916 13.5966C11.545 13.1294 11.964 12.8035 12.2682 12.5242C12.4777 12.4544 12.6639 12.1984 12.9216 12.3148C13.0845 12.4079 13.2707 12.501 13.4819 12.4311C13.7379 12.338 13.7844 12.0587 14.0189 11.9174C14.1818 11.8709 14.4378 12.1036 14.5326 11.8709C14.5791 11.6148 14.3929 11.4752 14.2765 11.2873C14.4162 10.9382 14.2998 10.5176 14.0205 10.2615C13.8809 10.1917 13.7179 10.1219 13.5533 10.1684C13.437 10.3314 13.6697 10.4245 13.693 10.5874C13.7396 11.2408 13.0396 11.4037 12.6207 11.6597C11.8044 12.0554 10.8484 12.6855 10.7786 13.7113C10.7786 14.2948 11.0346 14.7836 11.432 15.2042C11.6414 15.5534 11.969 15.8809 11.8509 16.3464C11.7811 16.5326 11.5483 16.5559 11.3838 16.5559C10.6838 16.5093 10.3114 15.7396 10.0305 15.2026C9.93735 14.9931 9.82098 14.8069 9.7977 14.5492C9.84425 14.5259 9.86753 14.5259 9.8908 14.5492C10.0072 14.6656 10.0072 14.9449 10.2167 14.8983C10.3796 14.6656 10.2632 14.3613 10.1701 14.1286C10.0537 13.9191 9.77443 13.8027 9.67966 13.5683C9.67966 13.4054 9.91241 13.4985 9.93569 13.3356C9.84259 13.033 9.84259 12.7287 9.86586 12.4494C9.91242 12.333 10.0986 12.333 10.0986 12.1701C10.0288 11.8908 10.0288 11.5866 10.0288 11.284C10.0521 11.0978 10.215 10.9116 10.0986 10.7004C9.88914 10.6306 10.0521 10.3979 9.86586 10.328C9.47018 10.328 9.18922 10.1186 8.86336 10.0022C8.70043 9.95563 8.56078 10.0487 8.41947 10.0953C8.20999 10.1418 7.97557 10.1418 7.81264 10.3048C7.71954 10.4211 7.74282 10.5608 7.74282 10.7487C7.71954 10.8418 7.62644 10.7719 7.57989 10.7487C7.41696 10.6556 7.37041 10.4926 7.41696 10.3048C7.44024 10.2349 7.39369 10.1418 7.34714 10.0953C7.25403 10.0255 7.09111 10.0022 6.97473 10.0487C6.8118 10.0953 6.76525 10.2815 6.69543 10.4211C6.67215 10.5375 6.7187 10.6772 6.76525 10.7703C6.99801 11.003 7.32552 11.0961 7.58155 11.3073C7.6281 11.4469 7.535 11.5866 7.4419 11.703C7.41862 11.8193 7.60483 11.8193 7.58155 11.9357C7.39535 11.9823 7.20915 11.959 7.06783 11.8426C6.97473 11.7728 6.95146 11.5866 6.8118 11.5633C6.67215 11.5633 6.64887 11.7495 6.60232 11.8426C6.55577 11.9357 6.60232 12.1219 6.50922 12.1917L6.41612 12.1685C5.94895 12.0055 5.52999 11.7495 5.10938 11.4453C4.87662 11.2591 4.69042 10.9781 4.50255 10.7453C4.40945 10.466 4.3629 10.0454 3.98883 9.97559C3.91901 9.97559 3.80263 9.99886 3.80263 10.092L3.77935 10.2083C3.59315 10.2083 3.40695 10.0687 3.21908 10.1385C3.12598 10.2083 3.03288 10.2782 2.98633 10.348C2.98633 10.5575 3.21908 10.4876 3.26563 10.6273C3.26563 10.7669 3.38201 10.9066 3.45184 10.9997C3.40529 11.0695 3.31218 11.1161 3.26563 11.2092L3.14926 11.4885C3.19581 11.5816 3.24236 11.698 3.35873 11.698C3.52166 11.6281 3.66131 11.7445 3.8259 11.7212C3.91901 11.7212 4.10521 11.6514 4.10521 11.8143C4.15176 11.954 4.10521 12.0704 4.08193 12.21C3.94228 12.4195 3.7328 12.5824 3.52166 12.7005C3.45184 12.747 3.45184 12.8401 3.47511 12.9099C3.54494 13.0263 3.73114 12.9798 3.87079 12.9565C4.10355 12.9565 4.28975 12.8168 4.52417 12.7936C4.57072 12.9099 4.66382 13.0496 4.78019 13.0961C4.9664 13.1427 5.01295 12.8867 5.19915 12.9565C5.3388 13.0729 5.29225 13.2824 5.43191 13.4237C5.43191 13.4935 5.36208 13.4935 5.31553 13.54C5.12933 13.6099 4.84836 13.54 4.68543 13.703C4.66216 13.7961 4.73198 13.8659 4.80181 13.9125C4.96474 14.0056 5.19749 14.0288 5.40863 14.0521C5.59483 14.0754 5.78104 14.0056 5.9689 14.0521L5.92235 14.1452L5.36208 14.5176C5.10605 14.6107 4.82508 14.6805 4.59233 14.7969C4.2432 14.89 4.07861 14.4478 3.75275 14.4711C3.6131 14.4711 3.52 14.5176 3.4269 14.5874C3.35707 14.6573 3.3338 14.7969 3.35707 14.89C3.40362 14.9831 3.54327 14.9366 3.54327 15.0529C3.52 15.3788 3.26397 15.6132 3.24069 15.9391C3.21742 16.0089 3.24069 16.1253 3.3338 16.1485C3.40362 16.1718 3.47345 16.1485 3.52 16.102C3.58983 16.0322 3.58983 15.9391 3.7062 15.9158C3.89241 15.9391 4.10188 15.9391 4.2432 15.7761C4.31302 15.7761 4.38285 15.846 4.38285 15.8925C4.38285 15.9623 4.38285 16.0554 4.45268 16.102C4.73198 16.102 4.87163 15.8227 5.01295 15.6115C5.12933 15.5883 5.26898 15.4952 5.40863 15.565C5.45518 15.7512 5.29225 15.8909 5.26898 16.0787C5.26898 16.1253 5.3388 16.1718 5.38535 16.1718C5.73449 16.1253 5.92235 15.7994 6.13183 15.5417C6.1551 15.4719 6.20166 15.3788 6.29476 15.3788C6.55079 15.4486 6.62061 15.146 6.7852 15.0297H6.85503C6.8783 15.0995 6.83175 15.1693 6.85503 15.2391C6.97141 15.3555 7.08778 15.2159 7.20416 15.2159L7.43691 15.0762C7.71622 15.1693 8.02046 15.2391 8.32304 15.309C8.55579 15.4021 8.32304 15.6581 8.46269 15.7994C8.43942 15.8692 8.32304 15.8925 8.22994 15.8925C7.71622 15.9623 7.13433 15.8227 6.73699 16.1951L6.50423 16.4278C6.13183 16.4511 5.92069 16.7537 5.59483 16.8235C5.36208 16.9865 5.01129 16.7537 4.84836 17.0097C4.96474 17.2425 5.24404 17.3356 5.50173 17.4054C5.59483 17.452 5.78104 17.3821 5.82759 17.4985C5.85086 17.6149 5.87414 17.7545 5.99051 17.8011C6.08362 17.8244 6.15344 17.6847 6.24654 17.7545C6.36292 17.9175 6.54912 18.0106 6.6655 18.1735C6.59567 18.3132 6.3862 18.2201 6.24654 18.2201H6.22327C6.01379 18.2433 5.7561 18.3364 5.59317 18.1502C5.38369 17.9873 5.19749 17.7313 4.89325 17.7313C4.73032 17.7778 4.54412 17.8476 4.49757 18.0339C4.47429 18.1502 4.59067 18.1968 4.63722 18.2666C4.42774 18.4063 4.21826 18.6157 4.28809 18.8967C4.31136 18.9433 4.33464 19.0131 4.40446 19.0131C4.49757 19.0131 4.59067 18.92 4.68377 18.9665C4.70704 19.1295 4.66049 19.4104 4.86997 19.4803C5.0329 19.457 5.14928 19.294 5.31387 19.4104C5.47679 19.4802 5.61645 19.3406 5.78104 19.2708C6.01379 19.2708 6.10689 19.5035 6.19999 19.6665C6.33965 19.7828 6.54912 19.969 6.76026 19.8527C6.89992 19.6665 6.64389 19.4088 6.89992 19.2691C7.06284 19.2226 7.2025 19.2691 7.36709 19.2458C7.62312 19.2691 7.92736 19.2924 8.06701 19.0131L8.29976 18.6174L8.34632 18.3846C8.48597 18.3381 8.71872 18.5708 8.79021 18.3614C8.72038 18.1286 8.69711 17.8942 8.72038 17.6382C8.76693 17.4752 8.83676 17.3123 8.95314 17.1943L8.99969 17.2176C9.06951 17.4969 9.06951 17.8011 9.20917 18.0571C9.18589 18.3132 9.04624 18.5476 9.02296 18.8036C8.95314 19.0829 8.76693 19.294 8.50924 19.4337C8.43942 19.4803 8.41614 19.5501 8.43942 19.6432C8.50924 19.7828 8.67217 19.6897 8.81182 19.713C9.16095 19.6665 9.48847 19.5035 9.7445 19.2226C10.0005 19.2924 10.1169 18.9898 10.3513 19.1295C10.5841 19.3157 11.028 18.9898 11.1211 19.3855C11.0745 19.5717 11.2607 19.8992 10.9581 19.9923C10.6556 19.9458 10.3048 19.5484 10.0255 19.8992C9.95564 19.969 9.90909 20.0621 9.95564 20.1552C10.0022 20.2483 10.0487 20.3414 9.97892 20.4113C9.90909 20.5509 9.79271 20.7138 9.86254 20.9017C9.90909 20.9948 10.0255 20.9948 10.1418 20.9948C10.3048 20.925 10.4677 21.0646 10.6556 21.0879C10.7952 21.2043 10.9581 21.3439 11.146 21.3207C11.2158 21.2741 11.2158 21.181 11.2624 21.1112C11.3788 21.0181 11.6581 21.0414 11.6581 20.8086C11.6813 20.6457 11.8443 20.4828 11.9839 20.3897C12.0105 20.5459 12.3364 20.4761 12.4311 20.3132Z" fill="black"/>
<path d="M12.4314 20.3134V20.3367H12.5245L12.4546 20.2902C12.4081 20.2436 12.3383 20.1505 12.2917 20.1272L12.2684 20.1505H12.2917V20.104C12.2917 20.0109 12.3383 19.9178 12.4081 19.8247C12.4779 19.7316 12.5477 19.6385 12.5477 19.4988C12.5477 19.429 12.5245 19.3591 12.4779 19.2893L12.4546 19.3126H12.4779C12.4314 19.1264 12.4779 18.8687 12.2684 18.7058C12.1288 18.5894 11.9426 18.5661 11.778 18.473L11.7547 18.4963H11.778V18.473C11.778 18.4497 11.8478 18.473 11.9176 18.4497L11.8944 18.4265V18.4497H11.9642C12.1038 18.4497 12.2435 18.5661 12.3832 18.5661C12.453 18.5661 12.5228 18.5428 12.5694 18.473V18.4265C12.5694 18.2403 12.4064 18.1006 12.3133 18.0075C12.1271 17.8679 11.8694 17.8213 11.6367 17.7748C11.4039 17.7282 11.1928 17.6351 11.0764 17.4489V17.3791L11.0997 17.4024L11.1462 17.3791L11.123 17.3558V17.3791C11.2161 17.4024 11.3324 17.4024 11.4255 17.4024C11.7048 17.4024 11.9858 17.3093 12.1953 17.1231C12.3582 16.9136 12.5211 16.7041 12.7556 16.6559C13.0349 16.4464 13.0581 16.1189 13.0581 15.793C13.0581 15.6767 13.128 15.5603 13.2211 15.4904C13.2676 15.4439 13.384 15.4206 13.4771 15.3741C13.5236 15.3508 13.5702 15.3275 13.6167 15.3042C13.6633 15.281 13.6866 15.2344 13.6866 15.1646V15.0948V15.0715H13.6666C13.5037 14.9784 13.3175 14.8853 13.1064 14.8853H13.0365V14.9086L13.0598 14.8853L13.0365 14.862L13.0598 14.8155L13.1296 14.7456C13.3158 14.6293 13.5253 14.5362 13.7365 14.3965C13.9227 14.2569 14.0856 14.0939 14.0856 13.813V13.7897C14.0623 13.7664 14.0623 13.7431 14.0623 13.6966C14.039 13.65 14.0158 13.6268 13.9459 13.6035C13.7597 13.6268 13.6666 13.7897 13.527 13.8362C13.2011 14.0224 12.7572 13.9992 12.4081 14.2086L12.4314 14.2319V14.2086H12.4081V14.1854L12.4314 14.1388C12.4779 14.069 12.571 14.0224 12.6641 13.9759C12.7572 13.9293 12.8503 13.8595 12.8969 13.7431C12.9667 13.5569 13.0133 13.3474 13.1762 13.2992C13.2227 13.2527 13.2926 13.2294 13.3624 13.2061C13.4322 13.1829 13.502 13.1363 13.5486 13.0665C13.5253 12.9501 13.4322 12.9268 13.3624 12.9036C13.2926 12.8803 13.2227 12.8803 13.1762 12.8803C12.8969 12.8803 12.6392 13.0432 12.453 13.2294C12.2202 13.3225 11.9393 13.4156 11.7298 13.6251L11.7531 13.6484V13.6251L11.7065 13.5785V13.5087C11.7065 13.113 12.0789 12.7855 12.3599 12.5295L12.2435 12.4829V12.5062C12.4297 12.4597 12.5926 12.2735 12.7572 12.2735C12.8038 12.2735 12.827 12.2735 12.8736 12.2967C13.0133 12.3666 13.1529 12.4364 13.2926 12.4364C13.3391 12.4364 13.3857 12.4364 13.4555 12.4131C13.7348 12.32 13.7813 12.0174 13.9925 11.8994L13.9692 11.8761V11.8994H14.0158C14.1089 11.8994 14.2252 11.9692 14.3416 11.9692C14.4114 11.9692 14.4813 11.9227 14.5045 11.8528C14.5045 11.8296 14.5045 11.783 14.5045 11.7597C14.5045 11.527 14.3183 11.3873 14.2252 11.246L14.202 11.2693H14.2252C14.2718 11.1529 14.2951 11.0365 14.2951 10.9434C14.2951 10.6641 14.1787 10.4064 13.9692 10.2202C13.8528 10.1504 13.7365 10.1039 13.5968 10.1039C13.5502 10.1039 13.5037 10.1039 13.4571 10.1271C13.4339 10.1737 13.4106 10.197 13.4106 10.2435C13.4106 10.3133 13.4571 10.3599 13.5037 10.4297C13.5502 10.4763 13.5735 10.5228 13.5735 10.5926V10.6625C13.5735 10.9418 13.4106 11.1296 13.2011 11.2693C12.9916 11.4089 12.7107 11.5253 12.5012 11.6417C11.6849 12.0374 10.7057 12.6675 10.6358 13.7165C10.6358 14.3001 10.8919 14.8121 11.2892 15.2328C11.4754 15.5353 11.7331 15.8163 11.7331 16.1654C11.7331 16.2353 11.7331 16.2818 11.7098 16.3516H11.7331L11.7098 16.3284C11.64 16.4913 11.4538 16.5146 11.2659 16.5146C10.5893 16.468 10.2169 15.7215 9.93591 15.1845C9.84281 14.9751 9.72644 14.7889 9.70316 14.5544H9.67989L9.70316 14.5777L9.72644 14.5544L9.77299 14.5777C9.81954 14.6243 9.84281 14.7174 9.88936 14.7872C9.93591 14.857 9.98247 14.9501 10.0988 14.9501H10.1454H10.1687C10.2385 14.857 10.2618 14.7639 10.2618 14.6475C10.2618 14.4613 10.1919 14.2984 10.1221 14.1338C9.98247 13.9011 9.72644 13.7847 9.63167 13.5736L9.6084 13.5968H9.63167L9.65495 13.5503C9.67822 13.527 9.72477 13.527 9.77132 13.5037C9.81788 13.4805 9.86443 13.4572 9.8877 13.3641C9.81788 13.1779 9.7946 12.9684 9.7946 12.7805C9.7946 12.6874 9.7946 12.5943 9.81787 12.5012C9.84115 12.4547 9.8877 12.4314 9.93425 12.3848C9.9808 12.3616 10.0506 12.2917 10.0506 12.1986C10.0041 11.9892 9.9808 11.803 9.9808 11.5685C9.9808 11.4754 9.9808 11.4056 9.9808 11.3125H9.95919H9.98247C10.0057 11.1729 10.0988 11.0332 10.0988 10.8686C10.0988 10.8221 10.0988 10.7522 10.0523 10.7057V10.6824H10.029C9.98247 10.6591 9.95919 10.6591 9.95919 10.6359C9.93591 10.5893 9.93591 10.5428 9.93591 10.4729C9.93591 10.4031 9.88936 10.3566 9.81954 10.31C9.44713 10.31 9.16616 10.1005 8.81703 9.98416C8.79376 9.98416 8.74721 9.96088 8.72393 9.96088C8.58428 9.96088 8.4679 10.0307 8.3748 10.054C8.16532 10.1005 7.93091 10.1005 7.76798 10.2635C7.69815 10.3566 7.67488 10.4497 7.67488 10.566C7.67488 10.6126 7.67488 10.6591 7.67488 10.729L7.6516 10.7522C7.62833 10.7522 7.58178 10.729 7.53523 10.7057V10.729L7.5585 10.7057C7.44212 10.6359 7.39557 10.5428 7.39557 10.4031C7.39557 10.3798 7.39557 10.3333 7.41885 10.2867V10.2402C7.41885 10.1704 7.3723 10.1005 7.32575 10.054C7.25592 10.0074 7.16282 9.96088 7.04644 9.96088C6.99989 9.96088 6.95334 9.96088 6.90679 9.98416V10.0074V9.9825C6.72059 10.0523 6.67404 10.2385 6.60421 10.3782V10.448C6.60421 10.5411 6.62749 10.6575 6.67404 10.7506C6.90679 11.0066 7.23431 11.0997 7.49034 11.2876L7.51361 11.2643H7.49034V11.3341C7.49034 11.4272 7.42051 11.5436 7.35068 11.6367V11.66C7.35068 11.7298 7.39724 11.7764 7.44379 11.7996C7.49034 11.8229 7.51361 11.8462 7.51361 11.8695V11.8927H7.53689V11.8695C7.49034 11.8927 7.44379 11.8927 7.39724 11.8927C7.28086 11.8927 7.16448 11.8462 7.07138 11.7764C7.02483 11.7531 7.00155 11.6833 6.955 11.6134C6.90845 11.5436 6.8619 11.4971 6.7688 11.4738C6.6757 11.4738 6.62915 11.5436 6.60587 11.5902C6.5826 11.66 6.55932 11.7298 6.53605 11.7531C6.51277 11.8229 6.51277 11.8927 6.4895 11.9393C6.4895 12.0091 6.46622 12.0557 6.44295 12.0789L6.46622 12.1022V12.0789L6.37312 12.0557C5.90595 11.8927 5.48699 11.6367 5.06637 11.3325C4.83362 11.1463 4.67069 10.8886 4.48283 10.6325L4.45955 10.6558H4.48283C4.43627 10.5162 4.413 10.33 4.34317 10.1886C4.27335 10.0257 4.15697 9.90934 3.97077 9.86279C3.92422 9.86279 3.87767 9.86279 3.83112 9.88607C3.78456 9.90934 3.73801 9.93262 3.73801 10.0024L3.71474 10.1188H3.73801V10.0955C3.59836 10.0955 3.45871 10.0257 3.29412 10.0257C3.24757 10.0257 3.20102 10.0257 3.15447 10.049C3.06136 10.1188 2.96826 10.1886 2.89844 10.2818V10.305C2.89844 10.4214 2.96826 10.468 3.03809 10.4912C3.10792 10.5145 3.15447 10.5378 3.17774 10.5843C3.17774 10.7473 3.29412 10.8869 3.36394 10.98L3.38722 10.9567L3.36394 10.9335C3.31739 11.0033 3.22429 11.0498 3.17774 11.1429L3.06137 11.4222V11.4455V11.4688C3.10792 11.5619 3.15447 11.6783 3.29412 11.7015C3.31739 11.6783 3.36395 11.6783 3.38722 11.6783C3.48032 11.6783 3.57342 11.7248 3.71308 11.7248H3.75963H3.7829C3.82945 11.7248 3.89928 11.7015 3.94583 11.7015L3.99238 11.7248C3.99238 11.7248 4.01566 11.7481 4.01566 11.7946C4.03893 11.8412 4.03893 11.8645 4.03893 11.911C4.03893 12.0041 4.01566 12.074 3.99238 12.1671H4.01566L3.99238 12.1438C3.85273 12.3533 3.64325 12.5162 3.43211 12.6109C3.38556 12.6575 3.36228 12.7041 3.36228 12.7739C3.36228 12.7972 3.36228 12.8437 3.38556 12.867C3.43211 12.9368 3.52521 12.9601 3.59504 12.9601C3.66486 12.9601 3.73469 12.9368 3.80451 12.9368C4.06054 12.9135 4.24841 12.7739 4.45789 12.7739V12.7506L4.43461 12.7739C4.50444 12.8903 4.59754 13.0299 4.71392 13.0997H4.76047C4.83029 13.0997 4.90012 13.0532 4.94667 13.0066C4.99322 12.9601 5.03977 12.9368 5.08632 12.9368H5.13287V12.9135L5.1096 12.9368C5.17942 12.9834 5.2027 13.0532 5.22598 13.1463C5.24925 13.2394 5.27253 13.3325 5.34235 13.4023L5.36563 13.379H5.34235L5.31908 13.4256L5.24925 13.4721L5.27253 13.4954V13.4721C5.17942 13.4954 5.06305 13.4954 4.94667 13.5187C4.83029 13.542 4.71392 13.5652 4.64409 13.6351V13.6816C4.64409 13.7747 4.71392 13.8445 4.78374 13.8911C4.96995 13.9842 5.17942 14.0075 5.39057 14.054H5.48367C5.60004 14.054 5.71642 14.0307 5.80952 14.0307C5.85607 14.0307 5.90262 14.0307 5.94917 14.054V14.0307L5.9259 14.0075L5.87935 14.1006L5.31908 14.473C5.06305 14.5661 4.78208 14.6359 4.54933 14.7523L4.5726 14.7756V14.7523C4.54933 14.7523 4.50278 14.7523 4.4795 14.7523C4.36312 14.7523 4.24675 14.6825 4.15365 14.5894C4.03727 14.4963 3.94417 14.4032 3.78124 14.4032H3.75796C3.61831 14.4032 3.50193 14.4497 3.40883 14.5428C3.33901 14.6126 3.31573 14.7057 3.31573 14.7756C3.31573 14.7988 3.31573 14.8454 3.31573 14.8687C3.33901 14.9385 3.40883 14.9618 3.45538 14.9618L3.50193 14.985L3.52521 15.0316C3.52521 15.3342 3.24591 15.5686 3.22263 15.9177V15.9643C3.22263 16.0341 3.24591 16.1272 3.33901 16.1737L3.43211 16.197C3.47866 16.197 3.54849 16.1737 3.59504 16.1272C3.64159 16.0806 3.64159 16.0341 3.66486 16.0108C3.68814 15.9875 3.71141 15.9643 3.75796 15.941C3.80451 15.941 3.87434 15.941 3.92089 15.941C4.06054 15.941 4.22347 15.9177 4.31657 15.8013L4.2933 15.7781V15.8013L4.36312 15.8246L4.31657 15.9643C4.31657 16.0108 4.31657 16.0574 4.31657 16.1039C4.31657 16.1505 4.36312 16.197 4.40967 16.2203H4.43295C4.5726 16.2203 4.68898 16.1505 4.78208 16.0341C4.87518 15.941 4.94501 15.8013 4.99156 15.7082L4.96828 15.685V15.7082C5.06138 15.685 5.15449 15.6384 5.24759 15.6384C5.27086 15.6384 5.31741 15.6384 5.34069 15.6617L5.36396 15.6384H5.34069V15.7082C5.34069 15.8479 5.22431 15.9643 5.17776 16.1521C5.20104 16.222 5.27086 16.2685 5.31741 16.2918C5.68982 16.2452 5.87769 15.9194 6.08716 15.6617C6.11044 15.6151 6.11044 15.5919 6.13371 15.5686C6.15699 15.5453 6.18027 15.522 6.22682 15.522C6.25009 15.522 6.29664 15.5453 6.31992 15.5453C6.43629 15.5453 6.50612 15.4755 6.57595 15.3824C6.64577 15.3126 6.69232 15.2195 6.76215 15.1729L6.73887 15.1496V15.1729H6.8087V15.1496H6.78543V15.1729C6.78543 15.1962 6.76215 15.2427 6.76215 15.2893L6.78543 15.3591C6.83198 15.4057 6.87853 15.4289 6.92508 15.4289C7.01818 15.4289 7.11128 15.3591 7.18111 15.3358L7.43714 15.1729L7.41386 15.1496V15.1729C7.69317 15.266 7.99741 15.3358 8.29999 15.4057C8.36981 15.4289 8.39309 15.4755 8.39309 15.5453C8.39309 15.5919 8.36981 15.6617 8.36981 15.7315C8.36981 15.7781 8.39309 15.8479 8.43964 15.8944L8.46292 15.8712L8.43964 15.8479C8.41636 15.9177 8.32326 15.941 8.23016 15.941C7.73972 16.0108 7.13456 15.8712 6.71394 16.2668L6.48118 16.4996L6.50446 16.5229V16.4996C6.10878 16.5229 5.89764 16.8487 5.57178 16.8953C5.50195 16.9418 5.43213 16.9418 5.33903 16.9418C5.2692 16.9418 5.22265 16.9418 5.15282 16.9418C5.03645 16.9418 4.92007 16.9651 4.82697 17.1048V17.128V17.1513C4.94335 17.4073 5.24593 17.5004 5.50362 17.5703V17.547L5.48034 17.5703C5.55017 17.5935 5.61999 17.5935 5.66655 17.5935C5.73637 17.5935 5.75965 17.6168 5.78292 17.6634L5.8062 17.6401H5.78292C5.8062 17.7565 5.82947 17.9194 5.96913 17.9659H6.01568C6.06223 17.9659 6.0855 17.9427 6.10878 17.9194L6.1786 17.8961L6.22515 17.9194C6.36481 18.1056 6.55101 18.1754 6.64411 18.3384L6.66739 18.3151L6.64411 18.2918C6.62084 18.3384 6.57428 18.3616 6.50446 18.3616C6.43463 18.3616 6.34153 18.3384 6.24843 18.3384V18.3616L6.2717 18.3384H6.24843C6.13205 18.3616 6.01568 18.3849 5.8993 18.3849C5.8062 18.3849 5.7131 18.3616 5.64327 18.2918C5.43379 18.1289 5.24759 17.8728 4.92007 17.8728C4.75714 17.9194 4.54766 17.9892 4.50111 18.1987V18.222C4.50111 18.3384 4.61749 18.3849 4.64077 18.4315L4.66404 18.4082L4.64077 18.3849C4.45456 18.5013 4.26836 18.6875 4.26836 18.9452C4.26836 18.9917 4.26836 19.015 4.29164 19.0616L4.33819 19.1547C4.36146 19.1779 4.40801 19.2012 4.45456 19.2012C4.54766 19.2012 4.61749 19.1547 4.66404 19.1547L4.71059 19.1779L4.73387 19.1547H4.71059C4.71059 19.2478 4.71059 19.3409 4.73387 19.4572C4.75714 19.5503 4.80369 19.6667 4.92007 19.7133C5.05972 19.69 5.15282 19.5969 5.24593 19.5969C5.2692 19.5969 5.31575 19.5969 5.3623 19.6434C5.40885 19.6667 5.43213 19.6667 5.47868 19.6667C5.61833 19.6667 5.73471 19.5503 5.85109 19.5038C5.96746 19.5038 6.03729 19.5503 6.08384 19.6202C6.15367 19.69 6.17694 19.7831 6.22349 19.8762C6.33987 19.9693 6.5028 20.1089 6.66739 20.1089C6.71394 20.1089 6.76049 20.0857 6.80704 20.0624C6.85359 20.0158 6.85359 19.946 6.85359 19.8995C6.85359 19.8064 6.83031 19.7133 6.83031 19.6434C6.83031 19.5736 6.85359 19.5271 6.92342 19.4805L6.90014 19.4572V19.4805C6.94669 19.4572 6.99324 19.4572 7.03979 19.4572C7.10962 19.4572 7.15617 19.4572 7.226 19.4572C7.27255 19.4572 7.3191 19.4572 7.36565 19.434C7.43547 19.434 7.5053 19.4572 7.5984 19.4572C7.7846 19.4572 7.99408 19.4107 8.11212 19.2012L8.34488 18.8055L8.39143 18.5495H8.36815V18.5728H8.39143C8.46125 18.5728 8.57763 18.6426 8.67073 18.6426C8.74056 18.6426 8.78711 18.5961 8.81038 18.5262C8.76383 18.3633 8.71728 18.2236 8.71728 18.0358C8.71728 17.966 8.71728 17.8961 8.74056 17.8263C8.78711 17.6634 8.85693 17.5004 8.97331 17.3824L8.95004 17.3591L8.92676 17.3824L8.97331 17.4057L8.99659 17.3824H8.97331C9.04314 17.6617 9.04314 17.9659 9.18279 18.222L9.20606 18.1987H9.18279C9.15951 18.4547 9.01986 18.6891 8.99659 18.9452C8.92676 19.2012 8.74056 19.4356 8.50614 19.552C8.45959 19.5986 8.41304 19.6451 8.41304 19.7149L8.43632 19.7848C8.48287 19.8779 8.55269 19.8779 8.64579 19.8779C8.69234 19.8779 8.7389 19.8779 8.76217 19.8779H8.832C9.2044 19.8313 9.53192 19.6451 9.78795 19.3874L9.76467 19.3641V19.3874H9.85778C9.95088 19.3874 10.0207 19.3409 10.0905 19.3176C10.1604 19.271 10.2069 19.2478 10.2767 19.2478C10.3 19.2478 10.3466 19.2478 10.3698 19.271C10.4397 19.3176 10.5328 19.3409 10.6259 19.3409C10.719 19.3409 10.8121 19.3176 10.8819 19.3176C10.9983 19.3176 11.0914 19.3409 11.1146 19.5038V19.5736C11.1146 19.6667 11.1379 19.7598 11.1379 19.8529C11.1379 19.9693 11.1146 20.0391 10.975 20.0857C10.7888 20.0624 10.556 19.8529 10.2983 19.8529C10.2052 19.8529 10.0889 19.8995 9.99577 20.0158C9.94921 20.0624 9.90266 20.1322 9.90266 20.2253L9.92594 20.3184C9.94921 20.365 9.99577 20.4348 9.99577 20.4581L9.97249 20.5279C9.90266 20.6443 9.83284 20.7607 9.83284 20.9236C9.83284 20.9701 9.83284 21.0167 9.85611 21.04C9.90266 21.1331 9.99577 21.1563 10.0656 21.1563C10.1121 21.1563 10.1354 21.1563 10.1587 21.1563L10.2518 21.1331C10.3682 21.1331 10.5078 21.2262 10.6475 21.2494V21.2262L10.6242 21.2494C10.7639 21.3658 10.9035 21.5055 11.1146 21.5055H11.1379C11.1845 21.4822 11.2077 21.4356 11.231 21.3891C11.2543 21.3425 11.2543 21.3193 11.2776 21.2727C11.3241 21.2262 11.4172 21.2029 11.5103 21.1796C11.6034 21.1331 11.6733 21.0865 11.6733 20.9469C11.6965 20.7839 11.8362 20.6443 11.9991 20.5512L11.9758 20.5279V20.5512H11.9991C12.0457 20.5512 12.1388 20.5279 12.2319 20.4814C12.325 20.4348 12.4413 20.3883 12.4879 20.2952L12.5112 20.2719L12.4879 20.2486L12.4314 20.3134L12.4081 20.2902C12.3615 20.36 12.2917 20.4065 12.1986 20.4531C12.1055 20.4996 12.0124 20.5229 11.9891 20.5229H11.9659H11.9426C11.7797 20.616 11.64 20.7789 11.5935 20.9668C11.5935 21.0599 11.5469 21.1065 11.4538 21.1297C11.384 21.153 11.2676 21.1763 11.1978 21.2461C11.1745 21.2927 11.1512 21.3392 11.1279 21.3625C11.1047 21.409 11.1047 21.4323 11.0814 21.4556L11.1047 21.4789V21.4556H11.0814C10.9185 21.4556 10.7788 21.3392 10.6375 21.2228C10.5211 21.2228 10.3815 21.1065 10.2185 21.1065C10.172 21.1065 10.1487 21.1065 10.1022 21.1297L10.1254 21.153V21.1297H10.0323C9.96251 21.1297 9.91596 21.1065 9.89269 21.0599C9.86941 21.0366 9.86941 20.9901 9.86941 20.9668C9.86941 20.8504 9.93924 20.7108 10.0091 20.6177C10.0556 20.5944 10.0556 20.5479 10.0556 20.5013C10.0556 20.4315 10.0091 20.3617 9.98579 20.3151L9.96251 20.2453C9.96251 20.1987 9.98579 20.1289 10.0323 20.0823C10.1254 19.9892 10.1953 19.9427 10.2884 19.9427C10.4978 19.9427 10.7323 20.1289 10.9417 20.1754C11.1047 20.1289 11.1512 20.0125 11.1512 19.8961C11.1512 19.803 11.1279 19.6867 11.1279 19.6168V19.5703C11.0814 19.3841 10.965 19.3375 10.8254 19.3375C10.7323 19.3375 10.6392 19.3608 10.5693 19.3608C10.4995 19.3608 10.4064 19.3375 10.3599 19.3143C10.3133 19.291 10.2668 19.2677 10.2202 19.2677C10.1271 19.2677 10.0806 19.3143 10.0107 19.3375C9.9409 19.3841 9.87108 19.4074 9.80125 19.4074H9.73142H9.70815L9.68487 19.4306C9.45212 19.6867 9.1246 19.8496 8.77547 19.8978H8.70564C8.65909 19.8978 8.61254 19.8978 8.58927 19.8978C8.51944 19.8978 8.47289 19.8978 8.44962 19.828V19.7814C8.44962 19.7349 8.47289 19.6883 8.51944 19.6651C8.77547 19.5254 8.98661 19.3159 9.05644 19.0117C9.07971 18.7556 9.21937 18.5212 9.24264 18.2652C9.12626 18.0092 9.10299 17.7282 9.03316 17.4256V17.4024L8.96334 17.3791H8.94006L8.91679 17.4024C8.80041 17.5187 8.70731 17.6817 8.66076 17.8695C8.66076 17.9393 8.63748 18.0325 8.63748 18.1023C8.63748 18.2652 8.66076 18.4281 8.73058 18.5927C8.70731 18.6626 8.68403 18.6625 8.66076 18.6625C8.59093 18.6625 8.47455 18.5927 8.38145 18.5927H8.3349H8.31163L8.26507 18.8487L8.03232 19.2444C7.93922 19.4306 7.77629 19.4772 7.58843 19.4772C7.5186 19.4772 7.44877 19.4772 7.37895 19.4539C7.3324 19.4539 7.30912 19.4772 7.26257 19.4772C7.19274 19.4772 7.14619 19.4772 7.07637 19.4772C7.02982 19.4772 6.98327 19.4772 6.91344 19.5005C6.79706 19.547 6.77379 19.6401 6.77379 19.7099C6.77379 19.803 6.79706 19.8729 6.79706 19.966C6.79706 20.0125 6.79706 20.0591 6.75051 20.1056C6.70396 20.1289 6.68069 20.1289 6.63414 20.1289C6.49448 20.1289 6.33156 20.0125 6.21518 19.9194C6.16863 19.8263 6.12208 19.7332 6.07553 19.6401C6.0057 19.547 5.9126 19.5005 5.77295 19.5005C5.63329 19.547 5.54019 19.6634 5.42382 19.6401L5.33071 19.6168C5.28416 19.5703 5.23761 19.5703 5.19106 19.5703C5.05141 19.5703 4.95831 19.6634 4.86521 19.6867V19.7099L4.88848 19.6867C4.79538 19.6401 4.77211 19.5703 4.74883 19.4772C4.72555 19.3841 4.74883 19.2677 4.72555 19.1746V19.1513H4.68898L4.59588 19.1281C4.50278 19.1281 4.43295 19.1746 4.3864 19.1746C4.36312 19.1746 4.33985 19.1746 4.31657 19.1513L4.27002 19.0815L4.24675 19.1048H4.27002C4.27002 19.0815 4.24675 19.035 4.24675 19.0117C4.24675 18.8022 4.43295 18.6393 4.59588 18.498L4.61915 18.4747L4.59588 18.4514C4.54933 18.3816 4.45623 18.335 4.45623 18.2652V18.2419C4.4795 18.079 4.64243 18.0092 4.82863 17.9626C5.13121 17.9626 5.2958 18.1954 5.50528 18.3583C5.57511 18.4514 5.69148 18.498 5.80786 18.498C5.92424 18.498 6.06389 18.4514 6.15699 18.4514V18.4281L6.13371 18.4514H6.15699C6.22682 18.4514 6.31992 18.4747 6.41302 18.4747C6.48285 18.4747 6.55267 18.4514 6.59922 18.3816V18.3583V18.335C6.48285 18.1721 6.29664 18.079 6.18027 17.9161L6.11044 17.8928C6.06389 17.8928 6.04061 17.9161 6.01734 17.9393L5.94751 17.9626H5.92424C5.80786 17.9161 5.78458 17.7997 5.76131 17.6833C5.71476 17.6135 5.64493 17.5902 5.59838 17.5902C5.52855 17.5902 5.45873 17.5902 5.43545 17.5669C5.17942 17.4971 4.89846 17.4273 4.80536 17.1945L4.78208 17.2178L4.80536 17.2411C4.87518 17.148 4.94501 17.1247 5.06139 17.1247C5.13121 17.1247 5.17776 17.1247 5.24759 17.1247C5.34069 17.1247 5.43379 17.1247 5.52689 17.0549L5.50362 17.0316V17.0549C5.87602 16.9851 6.06389 16.6825 6.41302 16.6592H6.43629L6.69232 16.4032C7.08801 16.0308 7.64828 16.1704 8.162 16.1006C8.27837 16.1006 8.39475 16.0773 8.4413 15.9842V15.9609L8.41803 15.9377C8.39475 15.9144 8.37148 15.8678 8.37148 15.8213C8.37148 15.7515 8.39475 15.7049 8.39475 15.6351C8.39475 15.5653 8.37148 15.4722 8.2551 15.4489C7.95252 15.3791 7.64828 15.3092 7.36897 15.2161H7.3457L7.08967 15.3791L7.11294 15.4023V15.3791C7.01984 15.4023 6.92674 15.4722 6.88019 15.4722C6.85691 15.4722 6.83364 15.4722 6.78709 15.4256V15.3791C6.78709 15.3558 6.81036 15.3092 6.81036 15.2627V15.2161V15.1929H6.71726C6.64744 15.2394 6.57761 15.3558 6.53106 15.4256C6.46123 15.4954 6.41468 15.5653 6.32158 15.5653H6.25175C6.18193 15.5653 6.13538 15.5885 6.1121 15.6351C6.08883 15.6816 6.06555 15.7049 6.04228 15.7515C5.8328 16.0075 5.64659 16.3117 5.31908 16.3583C5.27253 16.3583 5.22598 16.3117 5.22598 16.2885C5.24925 16.1488 5.3889 16.0092 5.3889 15.8446V15.7747V15.7515C5.34235 15.7282 5.2958 15.7049 5.24925 15.7049C5.15615 15.7049 5.03977 15.7515 4.96995 15.7747H4.94667V15.798C4.87684 15.8911 4.80702 16.0308 4.73719 16.1239C4.66737 16.217 4.57426 16.2868 4.43461 16.2868H4.41134V16.3101L4.43461 16.2868C4.41134 16.2635 4.38806 16.2635 4.38806 16.217C4.38806 16.1937 4.38806 16.1471 4.38806 16.1006C4.38806 16.0308 4.31824 15.9609 4.22513 15.9609H4.20186C4.10876 16.054 3.99238 16.0773 3.85273 16.0773C3.80618 16.0773 3.75963 16.0773 3.6898 16.0773C3.61997 16.0773 3.57342 16.1239 3.55015 16.1704C3.52687 16.217 3.5036 16.2402 3.48032 16.2868C3.45705 16.3101 3.4105 16.3334 3.36394 16.3334L3.31739 16.3101C3.24757 16.2868 3.22429 16.217 3.22429 16.1704V16.1471C3.24757 15.8213 3.52687 15.6101 3.52687 15.261C3.52687 15.2145 3.5036 15.1912 3.5036 15.1679C3.48032 15.1446 3.43377 15.1446 3.4105 15.1214C3.38722 15.0981 3.36395 15.0981 3.34067 15.0748L3.31739 15.0981H3.34067V15.005C3.34067 14.9352 3.36395 14.8653 3.4105 14.8188C3.5036 14.749 3.57342 14.7024 3.71308 14.7024H3.73635C3.85273 14.7024 3.9691 14.7722 4.06221 14.8653C4.17858 14.9584 4.27168 15.0515 4.43461 15.0515C4.45789 15.0515 4.50444 15.0515 4.52771 15.0283C4.76047 14.9119 5.01816 14.8421 5.27419 14.749L5.83446 14.3533L5.90429 14.2602L5.92756 14.2136H5.88101C5.83446 14.1904 5.78791 14.1904 5.74136 14.1904C5.62498 14.1904 5.5086 14.2136 5.4155 14.2136H5.34568C5.1362 14.1904 4.92672 14.1671 4.76213 14.074C4.71558 14.0507 4.64575 13.9809 4.64575 13.9343V13.911H4.62248L4.64575 13.9343C4.71558 13.8645 4.80868 13.8412 4.92506 13.8179C5.04143 13.8179 5.15781 13.8179 5.25091 13.7714L5.32074 13.7248C5.34401 13.7016 5.39057 13.6783 5.39057 13.6317V13.6085C5.32074 13.5386 5.29746 13.4688 5.27419 13.3757C5.25091 13.2826 5.22764 13.1895 5.13454 13.1197L5.06471 13.0964C4.99488 13.0964 4.94833 13.143 4.90178 13.1895C4.85523 13.2361 4.80868 13.2593 4.76213 13.2593H4.71558V13.2826L4.73885 13.2593C4.64575 13.2128 4.55265 13.0731 4.48283 12.9568V12.9335H4.45955C4.2268 12.9568 4.04059 13.0964 3.80618 13.0964C3.73635 13.0964 3.66652 13.1197 3.5967 13.1197C3.52687 13.1197 3.45705 13.0964 3.43377 13.0499L3.4105 13.0731H3.43377L3.4105 13.0033C3.4105 12.9568 3.43377 12.9102 3.45705 12.8869C3.6898 12.7706 3.876 12.6076 4.04059 12.3965C4.04059 12.3267 4.08714 12.2336 4.08714 12.1405C4.08714 12.0939 4.08714 12.0474 4.06387 12.0008L4.04059 12.0241H4.06387C4.06387 11.9775 4.04059 11.931 4.01732 11.9077C3.99404 11.8844 3.94749 11.8844 3.92422 11.8844C3.87767 11.8844 3.80784 11.9077 3.76129 11.9077H3.73801H3.69146C3.59836 11.9077 3.48198 11.8612 3.36561 11.8612C3.31906 11.8612 3.27251 11.8612 3.24923 11.8844L3.27251 11.9077V11.8844C3.1794 11.8844 3.13285 11.768 3.0863 11.6749L3.06303 11.6982L3.0863 11.7215L3.20268 11.4422C3.24923 11.3724 3.34233 11.3258 3.38888 11.2327V11.2094V11.1862C3.31906 11.0931 3.20268 10.9534 3.20268 10.837C3.1794 10.7439 3.0863 10.7207 3.03975 10.6974C2.96993 10.6741 2.94665 10.6508 2.92338 10.581V10.5577H2.9001L2.92338 10.581C2.96993 10.4879 3.06303 10.4414 3.15613 10.3715L3.13285 10.3483V10.3715C3.1794 10.3483 3.20268 10.3483 3.24923 10.3483C3.38888 10.3483 3.52854 10.4181 3.69313 10.4181H3.7164L3.73968 10.2784C3.73968 10.2551 3.76295 10.2319 3.78623 10.2086C3.8095 10.1853 3.85605 10.1853 3.9026 10.1853C4.06553 10.2319 4.18191 10.3482 4.22846 10.4879C4.29829 10.6276 4.32156 10.7905 4.36811 10.9551C4.55431 11.1878 4.71724 11.4688 4.97493 11.655C5.39389 11.9576 5.81451 12.2153 6.30496 12.3782L6.42133 12.4015H6.44461C6.49116 12.3549 6.51443 12.2851 6.51443 12.2153C6.51443 12.1454 6.53771 12.0756 6.53771 12.0291C6.56098 11.9825 6.58426 11.9127 6.60754 11.8429C6.63081 11.7963 6.67736 11.7498 6.72391 11.7498C6.79374 11.7498 6.81701 11.7963 6.86356 11.8429C6.91011 11.8894 6.93339 11.9592 6.97994 12.0058C7.07304 12.0989 7.2127 12.1454 7.35235 12.1454C7.3989 12.1454 7.46872 12.1454 7.51528 12.1222H7.53855V12.0989V12.0756C7.53855 12.0058 7.492 11.9825 7.44545 11.9592C7.3989 11.936 7.37562 11.9127 7.37562 11.8661H7.35235L7.37562 11.8894C7.44545 11.7963 7.53855 11.6799 7.53855 11.5636L7.51528 11.4705C7.25925 11.261 6.93173 11.1679 6.72225 10.9335C6.6757 10.8636 6.65242 10.7705 6.65242 10.6774V10.6309H6.62915L6.65242 10.6542C6.72225 10.5145 6.7688 10.3283 6.90845 10.2818C6.955 10.2585 6.97828 10.2585 7.02483 10.2585C7.11793 10.2585 7.18776 10.2818 7.25758 10.3283C7.30413 10.3749 7.32741 10.4214 7.32741 10.468V10.5145C7.32741 10.5611 7.30413 10.6076 7.30413 10.6309C7.30413 10.7705 7.37396 10.9102 7.51361 10.98C7.53689 10.98 7.58344 11.0266 7.62999 11.0266C7.67654 11.0266 7.69982 11.0033 7.72309 10.9567C7.72309 10.9102 7.72309 10.8404 7.72309 10.7938C7.72309 10.7007 7.72309 10.6076 7.79292 10.5378C7.93257 10.3981 8.14205 10.3749 8.37646 10.3516C8.49284 10.3283 8.60922 10.2585 8.72559 10.2585H8.79542C9.12128 10.3749 9.42552 10.5843 9.8212 10.5843C9.86775 10.6076 9.86775 10.6076 9.89103 10.6309C9.9143 10.6774 9.9143 10.724 9.9143 10.7938C9.9143 10.8636 9.96085 10.9335 10.054 10.9567V10.9335L10.0307 10.9567C10.054 11.0033 10.054 11.0498 10.054 11.0964C10.054 11.236 9.96085 11.3757 9.93758 11.5153C9.93758 11.6084 9.93758 11.6783 9.93758 11.7714C9.93758 11.9809 9.96085 12.1903 10.0074 12.4015C10.0074 12.4713 9.98413 12.4946 9.9143 12.5178C9.86775 12.5411 9.79792 12.5877 9.77465 12.6575C9.75137 12.7506 9.75137 12.8437 9.75137 12.9601C9.75137 13.1696 9.77465 13.3558 9.84448 13.5669H9.86775H9.84281C9.84281 13.5902 9.81954 13.6135 9.81954 13.6367C9.79626 13.66 9.74971 13.66 9.70316 13.6833C9.65661 13.7066 9.61006 13.7298 9.61006 13.7997V13.8063C9.72644 14.0391 9.98247 14.1787 10.1005 14.3666L10.1238 14.3433H10.1005C10.1703 14.5062 10.2402 14.6692 10.2402 14.8337C10.2402 14.9268 10.2169 15.02 10.1703 15.0898L10.1936 15.1131V15.0898H10.1703C10.1005 15.0898 10.054 15.0432 10.0307 14.9734C9.98413 14.9036 9.96085 14.8105 9.89103 14.7406L9.8212 14.7174L9.75137 14.7406H9.7281V14.7639C9.75137 15.02 9.86775 15.2078 9.96085 15.4173C10.2402 15.9543 10.6375 16.724 11.3374 16.7706C11.5004 16.7706 11.7564 16.7473 11.8279 16.5378C11.8511 16.468 11.8511 16.3982 11.8511 16.3284C11.8511 15.956 11.5718 15.675 11.4073 15.3724C11.0116 14.9767 10.7772 14.4863 10.7772 13.9027C10.8237 12.9002 11.8029 12.2701 12.596 11.8745C12.8054 11.7348 13.0631 11.6417 13.2959 11.502C13.5286 11.3624 13.6916 11.1529 13.6916 10.8487V10.7788H13.6666H13.6899C13.6899 10.709 13.6433 10.6392 13.5968 10.5926C13.5502 10.5461 13.527 10.4995 13.527 10.453L13.5502 10.3832L13.527 10.3599V10.3832C13.5735 10.3832 13.5968 10.3599 13.6433 10.3599C13.7597 10.3599 13.8761 10.4064 13.9692 10.453C14.1554 10.6159 14.2718 10.8719 14.2718 11.1296C14.2718 11.246 14.2485 11.3391 14.2252 11.4322V11.4555V11.4788C14.3416 11.6417 14.5045 11.7813 14.5045 11.9692V12.039H14.5278L14.5045 12.0158C14.4813 12.0856 14.4347 12.1089 14.3882 12.1089C14.2951 12.1089 14.1787 12.039 14.0623 12.039H13.9925C13.7597 12.1787 13.6899 12.4829 13.4555 12.5528C13.4089 12.576 13.3624 12.576 13.3158 12.576C13.1762 12.576 13.0365 12.5062 12.9202 12.4364C12.8736 12.4131 12.827 12.4131 12.7805 12.4131C12.571 12.4131 12.4081 12.5993 12.2435 12.6459C11.9642 12.9019 11.5669 13.2294 11.5669 13.6716V13.7415H11.5901H11.5436C11.5436 13.7647 11.5669 13.8113 11.5901 13.8113L11.66 13.8346H11.6832C11.8694 13.6484 12.1271 13.5553 12.3832 13.4389C12.5694 13.2527 12.8021 13.0898 13.0598 13.0898C13.1296 13.0898 13.1762 13.0898 13.246 13.113C13.3158 13.1363 13.3857 13.1829 13.4089 13.2294H13.4322L13.4089 13.2061C13.3857 13.2527 13.3158 13.2992 13.2693 13.3225C13.1995 13.3458 13.1296 13.3691 13.0598 13.4156L13.0831 13.4389V13.4156C12.8736 13.4854 12.827 13.7415 12.7572 13.9061C12.7107 13.9992 12.6408 14.0457 12.5477 14.1155C12.4546 14.1621 12.3615 14.2086 12.2917 14.3017C12.2684 14.325 12.2684 14.3483 12.2684 14.3948L12.2917 14.4414L12.3615 14.4647C12.6874 14.2552 13.108 14.3017 13.4804 14.0923C13.6433 14.0224 13.7365 13.8595 13.8761 13.8595C13.8994 13.8595 13.9227 13.8828 13.9227 13.9061C13.9227 13.9293 13.9459 13.9759 13.9692 13.9992L13.9925 13.9759H13.9692V13.9992C13.9692 14.2319 13.8296 14.3948 13.6666 14.5362C13.4804 14.6525 13.2477 14.7689 13.0598 14.8853L13.0133 14.9318C12.99 14.9551 12.9667 14.9784 12.9667 15.0249C12.9667 15.0482 12.99 15.0948 13.0133 15.0948H13.0831C13.2693 15.0948 13.4555 15.1646 13.6201 15.2577L13.6433 15.2344H13.6201V15.281C13.6201 15.3275 13.5968 15.3508 13.5735 15.3741C13.5037 15.4439 13.2942 15.4439 13.2011 15.537C13.108 15.6301 13.0382 15.7465 13.0382 15.8861C13.0382 16.212 13.0149 16.5162 12.7589 16.7024L12.7822 16.7257V16.7024C12.5261 16.7723 12.3632 16.9817 12.1986 17.1929C12.0124 17.3558 11.7314 17.4489 11.4754 17.4489C11.3823 17.4489 11.2892 17.4489 11.1961 17.4256H11.1728L11.1263 17.4722L11.103 17.4955L11.1263 17.5187C11.2659 17.7282 11.4987 17.798 11.7331 17.8679C11.9659 17.9144 12.2003 17.961 12.3865 18.1006C12.5029 18.217 12.6425 18.3334 12.6192 18.473V18.4963H12.6425L12.6192 18.473C12.5727 18.5196 12.5261 18.5428 12.4796 18.5428C12.3632 18.5428 12.2236 18.4265 12.0606 18.4265H11.9675C11.9442 18.4265 11.921 18.4265 11.8744 18.4497L11.8279 18.473L11.8046 18.5428V18.5661H11.8279C11.9908 18.6825 12.177 18.7058 12.3183 18.7989C12.5045 18.9385 12.458 19.1713 12.5045 19.3824C12.5511 19.4523 12.5743 19.4988 12.5743 19.5453C12.5743 19.6385 12.5278 19.7316 12.458 19.8247C12.3881 19.9178 12.3183 20.0109 12.3183 20.1505V20.2203C12.2668 20.1738 12.3615 20.2669 12.4314 20.3134V20.2669H12.3366L12.4064 20.3367L12.4314 20.3134Z" fill="black"/>
<path d="M7.04282 10.1453C6.92644 10.1685 6.90317 10.2849 6.87989 10.4013C6.85662 10.5409 6.94972 10.6573 7.04282 10.7504C7.3454 10.8901 7.60309 11.1228 7.8824 11.3107H7.9755C7.81257 11.0081 7.4385 10.915 7.20575 10.6573C7.11265 10.5409 7.11265 10.378 7.1592 10.2384C7.1592 10.1685 7.11265 10.1453 7.04282 10.1453ZM8.6987 10.1453C8.48922 10.2849 8.18498 10.2151 7.99877 10.3547C7.8824 10.4478 8.0686 10.5875 7.92895 10.6806C7.90567 10.7504 7.95222 10.8203 7.9755 10.8668C8.1617 11.0297 8.41939 11.2392 8.3479 11.5202C8.20825 11.8693 7.99877 11.4503 7.81091 11.4503C7.74108 11.4736 7.69453 11.5202 7.69453 11.6133C7.71781 11.6598 7.76436 11.6598 7.81091 11.6598C7.85746 11.6831 7.92728 11.7297 7.90401 11.7995C7.88073 11.9391 7.78763 12.1021 7.6247 12.1253C7.4385 12.1952 7.20575 12.1719 7.04116 12.0788C6.94806 12.0555 6.90151 11.8926 6.78513 11.9159C6.6222 12.0788 6.76185 12.2883 6.8084 12.4529C6.41272 12.8485 6.10848 13.3623 5.6197 13.6648C5.50332 13.7347 5.34039 13.7579 5.24729 13.851C5.29384 13.8743 5.36367 13.8976 5.43349 13.8976C5.85245 13.8976 6.27307 13.8278 6.6222 13.6183C6.76185 13.5485 6.85495 13.4088 6.99461 13.3623C7.18081 13.4321 7.01788 13.6416 7.08771 13.7579C7.18081 13.7812 7.22736 13.6881 7.29719 13.6416C7.36701 13.595 7.43684 13.5717 7.46011 13.6648C7.59977 14.0838 7.48339 14.551 7.34374 14.9234C7.43684 14.9466 7.43684 14.8535 7.50667 14.8303C7.78597 14.4113 8.13676 14.014 8.20659 13.5235C8.43934 13.4071 8.43934 13.7795 8.57899 13.8726C8.69537 13.7795 8.71865 13.5701 8.74192 13.4288C8.7652 13.3822 8.81175 13.4055 8.8583 13.4288C8.97468 13.6382 9.1376 13.8727 9.34874 13.989C9.4884 14.0356 9.62805 14.1287 9.7677 14.1287C9.7677 13.9425 9.55822 13.8959 9.44185 13.7563C9.3953 13.6166 9.30219 13.5002 9.30219 13.3124C9.34874 13.2193 9.46512 13.2193 9.53495 13.1727C9.55822 13.0331 9.4884 12.8934 9.53495 12.7288C9.55822 12.5426 9.41857 12.1686 9.69788 12.0755L9.72115 11.6083C9.69788 11.5385 9.60477 11.5152 9.60477 11.4454C9.60477 11.3057 9.72115 11.2824 9.7677 11.1893C9.79098 11.073 9.83753 10.9566 9.83753 10.8402C9.83753 10.7937 9.79098 10.7704 9.7677 10.7704C9.62805 10.7704 9.65132 10.6074 9.60477 10.5376C9.28224 10.4246 9.04949 10.1685 8.6987 10.1453ZM3.96548 10.2384C3.94221 10.2616 3.91893 10.2849 3.91893 10.3547C3.89566 10.4013 3.91893 10.5177 3.98876 10.5642C4.01203 10.5875 4.08186 10.634 4.12841 10.5875C4.15169 10.5409 4.12841 10.4944 4.12841 10.4246C4.15169 10.3547 4.03531 10.1918 3.96548 10.2384ZM3.38194 10.3315C3.31211 10.4013 3.40521 10.5409 3.38194 10.6573C3.40521 10.8202 3.61469 10.7504 3.70779 10.8901C3.84744 11.1228 3.52159 11.1228 3.45176 11.2625C3.35866 11.4254 3.59141 11.3556 3.63796 11.4952C3.77762 11.5651 3.87072 11.4021 4.01037 11.4254C4.15002 11.472 4.24312 11.6349 4.2664 11.7978C4.40605 12.1237 4.12675 12.4046 3.9871 12.6607C4.21985 12.7072 4.38278 12.4745 4.57064 12.4046C4.73357 12.4512 4.59392 12.6607 4.71029 12.7538C4.82667 12.8236 4.91977 12.6839 5.03615 12.7072C5.38528 12.7305 5.36201 13.1262 5.57315 13.314C5.6197 13.3373 5.66625 13.3373 5.7128 13.3373C5.92228 13.1511 6.06193 12.9184 6.27307 12.7072C6.3429 12.6374 6.41272 12.5443 6.38945 12.4512C5.78262 12.2883 5.27057 11.9142 4.78012 11.5185C4.57064 11.2625 4.31295 10.935 4.01037 10.7953C3.82417 10.5642 3.66124 10.3082 3.38194 10.3315ZM8.62887 10.378C8.65215 10.378 8.6987 10.4013 8.72197 10.4246C8.83835 10.4944 8.95473 10.6108 9.04783 10.7039C9.0711 10.7737 9.02455 10.8435 8.93145 10.8668C8.7918 10.8668 8.65215 10.8668 8.55904 10.7504C8.46594 10.6806 8.51249 10.5409 8.53577 10.4478C8.53577 10.4013 8.58232 10.378 8.62887 10.378ZM13.9224 10.4944C13.8991 10.5409 13.8991 10.5875 13.8991 10.6573C13.8525 11.2176 13.2923 11.5202 12.8733 11.7529C12.0803 12.1253 11.101 12.6623 11.0079 13.6416C10.9148 14.6673 12.2199 15.2043 12.0803 16.2534C12.0337 16.4629 11.8475 16.6025 11.7079 16.7438C11.1476 16.9068 10.6123 16.5576 10.2615 16.1137C9.81758 15.5767 9.58482 14.9483 9.4219 14.2949C9.30552 14.1553 9.11932 14.1087 9.00294 13.9458C8.74691 13.8294 8.77019 14.2018 8.51249 14.2018C8.37284 14.2251 8.41939 14.0389 8.30302 14.0622L8.00044 14.5061C7.93061 14.669 7.72113 14.7854 7.69786 14.9732C7.79096 15.1362 8.07026 15.0663 8.23485 15.1362C8.49088 15.1827 8.67875 15.4155 8.88822 15.5319C9.28391 15.881 9.40195 16.3714 9.33212 16.9084C9.21574 17.3523 9.37867 17.7713 9.51832 18.167C9.58815 18.3299 9.47177 18.4928 9.37867 18.6341C9.33212 18.8669 9.26229 19.1246 9.14592 19.3341C9.12264 19.4272 9.02954 19.5203 9.07609 19.5901C9.40195 19.5203 9.61309 19.2177 9.75274 18.9367C9.82256 18.8669 9.91567 18.9367 9.96222 18.9833C10.032 19.0298 10.0553 18.9367 10.1251 18.9367C10.195 18.9134 10.2648 18.96 10.3113 18.9833C10.451 19.1229 10.707 19.0531 10.8949 19.1229C11.1044 19.1462 11.3388 19.2858 11.3853 19.4953C11.3621 19.6582 11.4552 19.8212 11.4319 20.0323C11.2922 20.4513 10.8018 20.4995 10.4294 20.546C10.3596 20.5926 10.2432 20.6391 10.2665 20.7322C10.313 20.8021 10.3828 20.8486 10.4527 20.8719C10.6156 20.965 10.6854 20.7322 10.8483 20.7555C10.9647 20.8021 10.8716 20.9184 10.9414 21.0115C11.0345 21.0348 11.1044 20.9883 11.2207 20.9883C11.3604 20.965 11.4302 20.8486 11.4535 20.709C11.5233 20.546 11.7328 20.4995 11.8259 20.3366C11.8957 20.29 12.0121 20.3598 12.0819 20.29C11.9656 20.0572 12.0587 19.7996 12.2216 19.6134C12.2681 19.4504 12.2216 19.3108 12.1518 19.1695V18.9134C12.0819 18.704 11.8259 18.7272 11.6613 18.6574C11.4984 18.5177 11.2174 18.4247 11.1709 18.167C11.1942 18.1437 11.2174 18.0739 11.2407 18.0971C11.4735 18.1902 11.7311 18.1437 11.9639 18.1204C12.0337 18.1437 12.1268 18.167 12.1268 18.0739C12.1036 18.0273 12.057 17.9808 12.0105 17.9808C11.638 17.8644 11.2407 17.8644 10.9614 17.5851C10.845 17.3989 10.6588 17.2592 10.6355 17.0248C10.8217 16.8153 11.0079 17.1179 11.2424 17.0946C11.5682 17.1412 11.8957 17.0714 12.0819 16.8153C12.1983 16.7222 12.175 16.5127 12.338 16.4662C12.9448 16.3731 12.5707 15.6732 12.9215 15.3473C12.9681 15.2542 13.1775 15.2542 13.131 15.1146C12.9448 15.0913 12.7819 15.1844 12.594 15.2077C12.5474 15.1844 12.5009 15.1611 12.5009 15.0913C12.6173 14.7189 12.9913 14.3914 13.3637 14.275C13.4103 14.275 13.4801 14.2052 13.4568 14.1586C13.013 14.1819 12.5474 14.2284 12.2449 14.6025C12.175 14.6491 12.0819 14.7421 11.9888 14.6723C11.919 14.6025 11.919 14.4628 11.9423 14.3465C11.9656 14.137 12.1285 13.9741 12.2914 13.8327C12.5009 13.7629 12.594 13.5302 12.6638 13.3423C12.6405 13.2958 12.6173 13.319 12.594 13.319C12.4543 13.4121 12.2681 13.482 12.1036 13.5285C11.8242 13.5983 11.7311 13.8544 11.6131 14.0655C11.5666 14.0888 11.4967 14.0888 11.4502 14.0655C11.264 13.856 11.2407 13.5751 11.3105 13.319C11.4735 12.6424 12.057 12.27 12.6405 11.989C12.85 11.8959 13.013 12.0821 13.2008 12.1287C13.6447 12.1519 13.7145 11.5684 14.1335 11.5451C14.1568 11.452 14.0171 11.4055 13.9706 11.3124C13.924 11.1494 14.1102 11.0331 14.0637 10.8452C14.0869 10.7521 14.0869 10.5642 13.9224 10.4944ZM9.53827 10.8452C9.58482 10.8219 9.67792 10.8452 9.7012 10.8917C9.7012 10.9848 9.65465 11.0779 9.6081 11.1478C9.56155 11.1943 9.49172 11.171 9.46845 11.1012C9.44517 11.0081 9.46845 10.8917 9.53827 10.8452ZM8.83835 11.6615C8.8849 11.6615 8.93145 11.6848 8.95473 11.708L8.93145 11.8942C8.74525 12.1037 8.72197 12.4545 8.44101 12.5942C8.37118 12.6174 8.30135 12.5709 8.27808 12.4778C8.2548 12.3614 8.23153 12.1752 8.27808 12.0588C8.41773 11.989 8.44101 12.245 8.53411 12.1287C8.6056 11.9641 8.74525 11.8244 8.83835 11.6615ZM6.76352 13.7596C6.69369 13.7596 6.64714 13.7829 6.57731 13.8061C6.13342 14.25 5.66791 14.669 5.08436 14.9018C4.71196 14.9716 4.43099 15.2043 4.08186 15.2742C3.89566 15.3673 3.61469 15.4138 3.59141 15.6698C3.68452 15.7164 3.77762 15.7397 3.89399 15.7397C4.03365 15.7397 4.0802 15.5767 4.15002 15.4836C4.19657 15.4371 4.2664 15.4604 4.31295 15.5069C4.3595 15.6466 4.49915 15.6698 4.59226 15.7164C4.68536 15.7164 4.73191 15.6 4.75518 15.5302C4.84828 15.3673 5.05776 15.344 5.24563 15.3673C5.31545 15.3207 5.43183 15.2742 5.50166 15.2974C5.71114 15.344 5.59476 15.6 5.61803 15.7646C5.66459 15.8112 5.71114 15.7646 5.75769 15.7413C5.92061 15.5784 6.01372 15.3689 6.10682 15.1578C6.15337 15.1112 6.19992 15.0181 6.29302 15.0414C6.5025 15.3207 6.54905 14.9018 6.71198 14.8552C6.82835 14.8087 7.01456 14.9018 7.13093 14.7854C7.24731 14.5759 7.27059 14.2949 7.29386 14.0622C7.24731 13.8993 7.08438 14.0389 6.94473 14.0156C6.81007 13.9691 6.81007 13.8527 6.76352 13.7596ZM3.73107 14.7621L3.68452 14.8087C3.68452 14.9018 3.66124 15.0181 3.73107 15.088C3.87072 15.1345 4.03365 15.088 4.12675 15.0414C4.12675 14.9018 3.96382 14.8785 3.87072 14.7854C3.84911 14.7854 3.77762 14.7388 3.73107 14.7621ZM8.7918 16.1154L8.20825 16.2783C7.6247 16.3016 6.94972 16.2783 6.6222 16.8153L6.29635 16.8619C6.08687 16.955 5.87739 17.1179 5.6197 17.1645C5.54987 17.211 5.43349 17.1877 5.41022 17.2808C5.54987 17.3972 5.78262 17.3274 5.94721 17.3274C6.04032 17.3507 6.06359 17.467 6.08687 17.5601C6.17997 17.6067 6.24979 17.4903 6.3429 17.5136C6.38945 17.5369 6.436 17.5834 6.45927 17.6532C6.50582 17.9558 6.87823 18.0256 6.99627 18.2601C7.04282 18.3532 7.01954 18.4928 6.94972 18.5626C6.85662 18.679 6.67041 18.6557 6.53076 18.6325C6.25146 18.6325 6.01704 18.5626 5.76101 18.6557C5.36533 18.7256 4.99126 18.4695 4.64213 18.7023C4.61886 18.7256 4.59558 18.7721 4.61886 18.8187L5.01454 18.9816C5.06109 19.0514 4.99126 19.1445 4.99126 19.2143L5.20074 19.2609C5.34039 19.3773 5.50332 19.2376 5.6197 19.1678C5.75935 19.0747 5.899 19.1911 6.01538 19.2376C6.0852 19.2842 6.20158 19.2143 6.27141 19.3074C6.34123 19.4006 6.29468 19.61 6.45761 19.5868C6.50416 19.4704 6.57399 19.354 6.66709 19.2842C6.94639 19.0514 7.29719 19.1911 7.64632 19.1445C7.87907 19.1212 7.80924 18.8652 7.99545 18.7721C8.11182 18.5859 7.90235 18.4695 7.80924 18.3049C7.73942 18.1187 7.8558 17.9093 7.97217 17.7679C8.20493 17.7214 8.18165 18.024 8.27475 18.1636C8.3213 18.1869 8.36785 18.2567 8.43768 18.2102C8.43768 18.024 8.46096 17.8611 8.46096 17.6499C8.53078 17.3706 8.71698 17.1362 8.92813 16.95C9.02123 16.8103 9.02123 16.694 9.0445 16.5061C9.02621 16.3714 8.97966 16.1387 8.7918 16.1154ZM5.08436 18.1437C5.03781 18.1437 4.99126 18.1437 4.94471 18.167C4.92144 18.2368 4.96799 18.3532 5.03781 18.423C5.15419 18.423 5.27057 18.4695 5.38694 18.3997C5.31712 18.2833 5.20074 18.167 5.08436 18.1437ZM10.4011 20.2202L10.3546 20.2667C10.3778 20.29 10.3778 20.3133 10.4244 20.3133C10.4477 20.3133 10.5175 20.3366 10.5175 20.2667C10.5175 20.2435 10.4477 20.1969 10.4011 20.2202Z" fill="white"/>
<path d="M0.162109 8.14038H17.7234V9.35236H0.162109V8.14038Z" fill="black"/>
<path d="M0.1639 8.14022V8.18677H17.7019V9.32893H0.210451L0.187176 8.14022H0.1639V8.18677V8.11694V8.18677V8.14022V8.18677V8.11694H0.140625V9.37548H17.7484V8.11694H0.1639V8.18677V8.14022Z" fill="black"/>
<path d="M13.2244 8.34985H15.2294V9.1196H13.2244V8.34985ZM8.88519 8.34985H10.8669V9.1196H8.88519V8.34985ZM4.52438 8.34985H6.52938V9.1196H4.52438V8.34985ZM0.373047 8.34985H2.19185V9.1196H0.373047V8.34985Z" fill="white"/>
<path d="M3.0315 3.89601C3.61505 3.63999 4.26676 3.82619 4.92013 3.77964C5.08306 3.82619 5.33909 3.68654 5.43386 3.87274C5.43386 4.05894 5.43386 4.24514 5.45713 4.43301C5.52696 4.57266 5.71316 4.45629 5.80626 4.52611C5.87609 4.57266 5.94591 4.59594 5.94591 4.66577C5.99247 4.75887 5.96919 4.85197 5.89936 4.92179C5.78299 5.06145 5.62006 5.01489 5.48041 5.03817L5.43386 5.108C5.45713 5.45713 5.36403 5.76137 5.43386 6.08723C5.41058 6.15705 5.38731 6.25015 5.48041 6.2967C5.64333 6.2967 5.80626 6.2967 5.9243 6.41308C5.97085 6.50618 5.97085 6.59928 5.94758 6.69239C5.87775 7.04152 5.31748 6.64583 5.3873 7.06479C5.3873 7.22772 5.43386 7.4372 5.36403 7.57851C4.71066 7.57851 4.05728 7.53196 3.45212 7.57851C3.33575 7.67161 3.19609 7.74144 3.05644 7.74144C2.91679 7.71817 2.82369 7.64834 2.73059 7.57851C2.14704 7.55524 1.56516 7.55524 1.02816 7.53196C0.841957 7.36903 0.981609 7.13628 0.911783 6.90186C0.818681 6.78549 0.679029 6.87859 0.562652 6.80876C0.469551 6.80876 0.446275 6.71566 0.399724 6.64583C0.399724 6.50618 0.399724 6.41308 0.492826 6.31998C0.585927 6.25015 0.72558 6.25015 0.841957 6.25015L0.911783 6.18033C0.865232 5.78465 0.981609 5.41058 0.888507 4.99162C0.818681 4.89852 0.72558 4.99162 0.655754 4.92179C0.539377 4.89852 0.446275 4.85197 0.399724 4.73559C0.376449 4.64249 0.353174 4.54939 0.446275 4.45629C0.585927 4.31663 0.795406 4.47956 0.913445 4.33991L0.959996 3.77964C1.0531 3.61671 1.28585 3.68654 1.45044 3.68654C1.72975 3.61671 2.10381 3.66326 2.40639 3.68654C2.63416 3.77798 2.84364 3.82453 3.0315 3.89601Z" fill="black"/>
<path d="M3.03309 3.89592L3.05637 3.91919C3.31239 3.80282 3.57009 3.77954 3.82612 3.77954C4.1287 3.77954 4.43294 3.80282 4.73552 3.80282C4.80534 3.80282 4.85189 3.80282 4.92172 3.80282H5.01482C5.08465 3.80282 5.17775 3.77954 5.24758 3.77954C5.34068 3.77954 5.38723 3.80282 5.43378 3.87264L5.45705 3.84937H5.43378C5.43378 4.03557 5.43378 4.22177 5.45705 4.40964C5.48033 4.47947 5.57343 4.50274 5.64326 4.50274C5.66653 4.50274 5.71308 4.50274 5.73636 4.50274C5.78291 4.50274 5.80618 4.50274 5.82946 4.52602C5.89929 4.57257 5.94584 4.59584 5.94584 4.64239L5.96911 4.71222C5.96911 4.75877 5.94584 4.8286 5.92256 4.87515C5.82946 4.99152 5.68981 4.94497 5.5036 4.99152H5.48033L5.43378 5.08462C5.43378 5.13118 5.43378 5.15445 5.43378 5.201C5.43378 5.41048 5.4105 5.59668 5.4105 5.78455C5.4105 5.87765 5.4105 5.97075 5.43378 6.06385C5.43378 6.08713 5.4105 6.13368 5.4105 6.18023C5.4105 6.22678 5.43378 6.29661 5.48033 6.31988C5.64326 6.31988 5.80618 6.31988 5.89929 6.41298C5.92256 6.45954 5.94584 6.50609 5.94584 6.55264C5.94584 6.59919 5.94584 6.62246 5.92256 6.66902C5.89929 6.73884 5.87601 6.76212 5.85274 6.78539C5.80618 6.80867 5.75963 6.80867 5.71308 6.80867C5.66653 6.80867 5.61998 6.80867 5.57343 6.80867C5.52688 6.80867 5.45705 6.80867 5.43378 6.83194C5.38723 6.85522 5.36395 6.90177 5.36395 6.99487V7.06469C5.36395 7.1578 5.36395 7.2509 5.36395 7.344C5.36395 7.41383 5.36395 7.50693 5.34068 7.55348L5.36395 7.57675C4.89678 7.57675 4.43128 7.55348 3.9641 7.55348C3.80118 7.55348 3.61497 7.55348 3.45038 7.57675C3.35728 7.66985 3.21763 7.7164 3.0547 7.73968C2.93833 7.7164 2.84522 7.64658 2.72885 7.57675C2.1453 7.55348 1.56342 7.55348 1.00314 7.5302V7.55348L1.02642 7.5302C0.956594 7.46038 0.933318 7.39055 0.933318 7.29745C0.933318 7.22762 0.933318 7.1578 0.933318 7.08797C0.933318 7.04142 0.933318 6.97159 0.910043 6.92504C0.863492 6.85522 0.770391 6.85522 0.72384 6.85522H0.677289C0.630739 6.85522 0.607463 6.85522 0.560912 6.83194C0.537637 6.83194 0.514362 6.80867 0.491086 6.78539C0.467811 6.76212 0.444536 6.71557 0.42126 6.69229L0.397985 6.71557H0.42126C0.42126 6.57591 0.42126 6.48281 0.514362 6.41298C0.584188 6.34316 0.72384 6.36643 0.840217 6.34316L0.910043 6.27333V6.25006C0.910043 6.18023 0.910043 6.1104 0.910043 6.06385C0.910043 5.87765 0.933318 5.66817 0.933318 5.48031C0.933318 5.34065 0.933318 5.22428 0.886768 5.08462C0.840217 5.03807 0.793666 5.0148 0.747115 5.03807H0.72384C0.677289 5.03807 0.654014 5.03807 0.630739 5.0148C0.514362 4.99152 0.444536 4.96825 0.397985 4.85187H0.373047H0.396322C0.396322 4.80532 0.373047 4.75877 0.373047 4.7355C0.373047 4.68894 0.396322 4.66567 0.419598 4.61912C0.466148 4.57257 0.512699 4.57257 0.55925 4.57257C0.605801 4.57257 0.652351 4.57257 0.698902 4.57257C0.768728 4.57257 0.838554 4.54929 0.885105 4.50274L0.931656 3.91919H0.910043L0.933318 3.94247C0.979869 3.87264 1.02642 3.84937 1.11952 3.84937C1.21262 3.84937 1.30572 3.87264 1.39883 3.87264C1.49193 3.84937 1.6083 3.84937 1.72468 3.84937C1.93416 3.84937 2.14364 3.87264 2.3315 3.87264C2.54098 3.87264 2.75046 3.91919 2.93833 4.0123H2.9616H2.98488L3.03309 3.89592L3.05637 3.87264C2.87016 3.77954 2.63741 3.75627 2.42627 3.73299C2.24006 3.73299 2.00731 3.70972 1.81945 3.70972C1.70307 3.70972 1.58669 3.70972 1.47031 3.73299C1.40049 3.73299 1.28411 3.70972 1.19101 3.70972C1.09791 3.70972 1.00481 3.73299 0.958256 3.82609L0.911706 4.40964H0.934981L0.911706 4.38636C0.865155 4.43291 0.841879 4.43291 0.772053 4.43291C0.725503 4.43291 0.678952 4.43291 0.632401 4.43291C0.562575 4.43291 0.492749 4.45619 0.446198 4.50274C0.376372 4.54929 0.376372 4.61912 0.376372 4.66567C0.376372 4.71222 0.399647 4.75877 0.399647 4.80532C0.446198 4.94497 0.562575 4.99152 0.678952 5.0148V4.99152L0.655676 5.0148C0.702227 5.03807 0.748778 5.06135 0.772053 5.06135H0.795329C0.841879 5.06135 0.865155 5.06135 0.88843 5.08462L0.911706 5.06135H0.886768C0.910043 5.201 0.910043 5.31738 0.910043 5.45703C0.910043 5.64323 0.886768 5.85271 0.886768 6.04058C0.886768 6.1104 0.886768 6.18023 0.886768 6.25006H0.910043L0.886768 6.22678L0.816942 6.29661L0.840217 6.31988V6.29661C0.72384 6.31988 0.584188 6.29661 0.491086 6.36643C0.374709 6.45954 0.374709 6.57591 0.374709 6.71557C0.397985 6.73884 0.42126 6.78539 0.444536 6.80867C0.467811 6.83194 0.514362 6.87849 0.560912 6.87849V6.85522L0.537637 6.87849C0.584188 6.90177 0.630739 6.90177 0.677289 6.90177H0.72384C0.793666 6.90177 0.840217 6.90177 0.863492 6.94832L0.886768 6.92504H0.863492C0.886768 6.97159 0.886768 7.01814 0.886768 7.06469C0.886768 7.13452 0.886768 7.20435 0.886768 7.27417C0.886768 7.36728 0.910043 7.48365 1.00314 7.55348H1.02642C1.58669 7.55348 2.1453 7.55348 2.72885 7.60003V7.57675L2.70557 7.60003C2.82195 7.66985 2.91505 7.73968 3.0547 7.76296C3.21763 7.73968 3.35728 7.69313 3.47366 7.57675L3.45038 7.55348V7.57675C3.61331 7.57675 3.77624 7.55348 3.9641 7.55348C4.43128 7.55348 4.89678 7.57675 5.36395 7.57675H5.38723V7.55348C5.4105 7.48365 5.43378 7.39055 5.43378 7.32073C5.43378 7.22762 5.43378 7.11125 5.43378 7.04142V6.99487C5.43378 6.92504 5.45705 6.90177 5.48033 6.90177C5.5036 6.87849 5.55016 6.87849 5.59671 6.87849C5.64326 6.87849 5.68981 6.87849 5.73636 6.87849C5.78291 6.87849 5.85274 6.87849 5.89929 6.85522C5.94584 6.83194 5.99239 6.78539 6.01566 6.69229C6.01566 6.64574 6.03894 6.59919 6.03894 6.55264C6.03894 6.48281 6.01566 6.43626 5.99239 6.36643C5.85274 6.25006 5.68981 6.25006 5.52522 6.25006V6.27333L5.54849 6.25006C5.50194 6.22678 5.50194 6.20351 5.50194 6.15696C5.50194 6.13368 5.50194 6.08713 5.52522 6.06385C5.50194 5.97075 5.50194 5.87765 5.50194 5.78455C5.50194 5.59835 5.52522 5.38887 5.52522 5.201C5.52522 5.15445 5.52522 5.13118 5.52522 5.08462H5.5036L5.52688 5.1079L5.57343 5.03807L5.55016 5.0148V5.03807C5.68981 4.99152 5.85274 5.06135 5.99405 4.89842C6.01733 4.8286 6.0406 4.78205 6.0406 4.71222C6.0406 4.68894 6.0406 4.64239 6.01733 4.61912L5.99405 4.64239H6.01733C5.99405 4.54929 5.92422 4.50274 5.8544 4.47947C5.80785 4.45619 5.7613 4.45619 5.71475 4.45619C5.69147 4.45619 5.64492 4.45619 5.62164 4.45619C5.55182 4.45619 5.52854 4.45619 5.50527 4.40964L5.48199 4.43291H5.50527C5.48199 4.24671 5.48199 4.06051 5.48199 3.87264C5.43544 3.77954 5.31906 3.75627 5.22596 3.75627C5.15614 3.75627 5.06304 3.77954 4.99321 3.77954H4.92172C4.85189 3.77954 4.80534 3.77954 4.73552 3.77954C4.43294 3.77954 4.1287 3.75627 3.82612 3.75627C3.54515 3.7546 3.28912 3.77788 3.03309 3.89592Z" fill="black"/>
<path d="M3.31216 7.27758C3.33543 7.37068 3.33543 7.48706 3.24233 7.53361C3.19578 7.60344 3.10268 7.60344 3.03285 7.58016C2.96303 7.58016 2.93975 7.48706 2.93975 7.41723C2.91648 7.27758 3.05613 7.23103 3.12595 7.13793C3.19578 7.15954 3.26561 7.22937 3.31216 7.27758ZM1.37698 3.96583C1.2606 4.03565 1.12095 4.19858 1.1675 4.33823C1.21405 5.34074 1.1675 6.22686 1.21405 7.15954L1.30715 7.25264C1.77432 7.25264 2.28638 7.20609 2.73027 7.29919L2.75355 7.36902C2.63717 7.41557 2.49752 7.39229 2.35787 7.39229L1.14588 7.36902C1.05278 7.29919 1.09933 7.13627 1.09933 7.04317C1.09933 6.92679 1.14588 6.78713 1.00623 6.71731C0.843305 6.67076 0.680377 6.74058 0.562338 6.60093C0.655439 6.36818 1.02951 6.55438 1.09933 6.29835C1.14588 5.85446 1.05278 5.41222 1.07606 4.99161C1.02951 4.75885 0.773479 4.82868 0.585613 4.78213C0.562338 4.75885 0.539062 4.7123 0.539062 4.66575C0.678715 4.5261 0.958019 4.68902 1.07606 4.47955C1.12261 4.29334 1.07606 4.10714 1.12261 3.94255C1.19244 3.87273 1.28554 3.87273 1.37864 3.896L1.37698 3.96583ZM5.27062 3.96583C5.31717 4.15203 5.22406 4.40972 5.34044 4.59593C5.45682 4.66575 5.64302 4.64248 5.7594 4.66575C5.80595 4.7123 5.80595 4.78213 5.78267 4.82868C5.64302 4.96833 5.38699 4.78213 5.29223 5.01488C5.29223 5.48205 5.26895 5.92428 5.29223 6.41473L5.36205 6.48456C5.52498 6.50783 5.71118 6.43801 5.80595 6.55438C5.80595 6.62421 5.80595 6.69403 5.73612 6.71731C5.57319 6.76386 5.36372 6.67076 5.26895 6.83369C5.2224 7.01989 5.29223 7.20609 5.2224 7.39396L5.1293 7.44051L3.45015 7.41723C3.4036 7.39396 3.45015 7.37068 3.45015 7.34741L3.61308 7.27758H4.96637C5.10602 7.23103 5.10602 7.0681 5.1293 6.95173C5.10602 6.27508 5.1293 5.69319 5.10602 5.0631C5.10602 4.73724 5.15258 4.433 5.08275 4.13042C5.05947 4.06059 4.96637 4.01404 4.9431 3.92094C5.10769 3.896 5.22406 3.896 5.27062 3.96583ZM4.92148 7.11299C4.87493 7.18282 4.78183 7.15954 4.71201 7.18282H4.31632C4.01374 7.15954 3.68623 7.13627 3.4302 7.20609C3.38365 7.20609 3.3371 7.15954 3.3371 7.11299C3.38365 6.99661 3.50002 7.04316 3.59313 6.99661C3.96553 7.01989 4.40943 6.99661 4.75856 6.99661C4.82838 6.99661 4.87493 7.04316 4.92148 7.11299ZM5.03786 4.19858C5.01459 5.15453 5.03786 6.11049 5.01459 6.97334C4.99131 7.01989 4.94476 6.97334 4.89821 6.92679C4.82838 6.78713 4.87493 6.60093 4.87493 6.45962C4.82838 5.68987 4.87493 4.89684 4.87493 4.10382C4.94476 4.05893 5.01459 4.15203 5.03786 4.19858ZM2.96136 4.03565L3.00792 4.15203C3.03119 4.94505 3.03119 5.76136 3.03119 6.60093L3.00792 6.90351C2.79844 6.90351 2.61223 6.81041 2.37782 6.83369C2.14506 6.81041 1.88737 6.85696 1.70117 6.78713C1.58479 6.50783 1.65462 6.25014 1.63134 5.94756C1.65462 5.34074 1.65462 4.61754 1.65462 3.9891C1.65462 3.94255 1.72444 3.91928 1.74772 3.91928C2.17 3.94255 2.63551 3.82451 2.96136 4.03565ZM4.73528 3.9891C4.73528 4.94505 4.73528 5.87773 4.73528 6.81041C4.26811 6.85696 3.73278 6.76386 3.24233 6.90351C3.14923 6.81041 3.21906 6.64748 3.19578 6.53111C3.17251 6.22853 3.19578 5.87773 3.17251 5.55188C3.19578 5.08471 3.14923 4.57265 3.19578 4.10548C3.26561 3.96583 3.42853 3.91928 3.59146 3.91928L4.71034 3.94255L4.73528 3.9891ZM2.91481 7.06644C2.91481 7.13627 2.86826 7.18282 2.79844 7.20609C2.42603 7.11299 2.00541 7.18282 1.58645 7.13627L1.56318 7.11299C1.58645 7.04316 1.65628 6.97334 1.72611 6.97334C2.17 6.97334 2.54241 6.97334 2.91481 7.06644ZM1.49335 4.0822C1.5399 5.03816 1.47008 5.97083 1.51663 6.90351C1.49335 6.95006 1.4468 7.01989 1.40025 7.01989C1.33043 6.71731 1.33043 6.43801 1.3537 6.13376C1.33043 5.52694 1.3537 4.85029 1.3537 4.24513C1.3537 4.17531 1.42353 4.10548 1.49335 4.0822Z" fill="white"/>
<path d="M11.0772 3.77795C11.1471 3.75468 11.2169 3.82451 11.2867 3.87106C11.3565 4.10381 11.2634 4.29001 11.3333 4.50115C11.4962 4.57098 11.7057 4.52443 11.8004 4.71063C11.847 4.80373 11.847 4.94338 11.7772 5.01321C11.6608 5.17614 11.3815 5.01321 11.31 5.19941C11.2867 5.61837 11.2634 5.92261 11.31 6.3183C11.4264 6.43467 11.6358 6.34157 11.7539 6.5045C11.8237 6.57432 11.847 6.66742 11.8237 6.76053C11.7306 6.92345 11.5211 6.92345 11.3565 6.94673C11.2867 7.01656 11.3565 7.10966 11.31 7.20276C11.2402 7.36569 11.4031 7.55189 11.2169 7.64665C10.7264 7.71648 10.2609 7.62338 9.77049 7.66993H9.30332C9.16367 7.76303 9.02402 7.87941 8.85943 7.7863L8.55685 7.64665C8.20772 7.64665 7.85692 7.62338 7.50779 7.64665C7.27504 7.62338 6.94752 7.73975 6.78459 7.507C6.78459 7.3208 6.83115 7.1346 6.78459 6.94673C6.59839 6.8769 6.31742 6.97 6.20105 6.73725C6.17777 6.66742 6.20105 6.57432 6.22432 6.5045C6.36397 6.31829 6.64328 6.48122 6.78459 6.3183V5.80457C6.83115 5.54854 6.76132 5.36068 6.76132 5.10465C6.57512 5.03482 6.27087 5.12792 6.2476 4.84862C6.22432 4.70897 6.31742 4.59259 6.4338 4.56932C6.55018 4.52277 6.71311 4.59259 6.78293 4.47622L6.82948 3.91594C6.96914 3.68319 7.31993 3.82284 7.52941 3.77629L8.60174 3.79957C8.76466 3.82284 8.92759 3.98577 9.09218 3.89267C9.70067 3.61503 10.4239 3.84944 11.0772 3.77795Z" fill="black"/>
<path d="M11.0776 3.77775V3.80103H11.1008C11.1474 3.80103 11.2172 3.84758 11.2638 3.87086L11.287 3.84758H11.2638C11.287 3.91741 11.287 3.98723 11.287 4.05706C11.287 4.12688 11.287 4.17343 11.287 4.24326C11.287 4.31309 11.287 4.38291 11.3103 4.47602V4.49929H11.3336C11.4267 4.52257 11.5198 4.54584 11.5896 4.54584C11.6827 4.56912 11.7293 4.59239 11.7758 4.68549C11.7991 4.70877 11.7991 4.75532 11.7991 4.80187C11.7991 4.84842 11.7758 4.91825 11.7525 4.94152C11.706 5.01135 11.6129 5.01135 11.5198 5.01135C11.4732 5.01135 11.4267 5.01135 11.3801 5.03462C11.3336 5.0579 11.287 5.08117 11.2638 5.12773C11.2405 5.36048 11.2405 5.54668 11.2405 5.75782C11.2405 5.92075 11.2405 6.08368 11.2638 6.27154V6.29482C11.3336 6.36465 11.4267 6.36465 11.4965 6.38792C11.5896 6.38792 11.6362 6.4112 11.6827 6.48102C11.7293 6.52757 11.7525 6.57412 11.7525 6.64395V6.71377H11.7758L11.7525 6.6905C11.6827 6.83015 11.4732 6.83015 11.3086 6.8767C11.2621 6.89998 11.2621 6.94653 11.2621 6.99308C11.2621 7.03963 11.2621 7.06291 11.2621 7.10946V7.15601C11.2388 7.20256 11.2388 7.22583 11.2388 7.27238C11.2388 7.34221 11.2621 7.41204 11.2621 7.45859C11.2621 7.52841 11.2388 7.55169 11.1923 7.59824L11.2155 7.62152V7.59824C11.0759 7.62152 10.9362 7.62152 10.7966 7.62152C10.5406 7.62152 10.2829 7.59824 10.0036 7.59824C9.91046 7.59824 9.84063 7.59824 9.74753 7.59824L9.25709 7.62152C9.16399 7.69134 9.04761 7.76117 8.95451 7.76117C8.93123 7.76117 8.88468 7.76117 8.83813 7.73789L8.53555 7.59824C8.46572 7.59824 8.3959 7.59824 8.32607 7.59824C8.11659 7.59824 7.93039 7.59824 7.71925 7.59824C7.64942 7.59824 7.55632 7.59824 7.48649 7.59824H7.43994C7.32357 7.59824 7.20719 7.62152 7.11409 7.62152C6.97444 7.62152 6.85806 7.59824 6.78823 7.48186L6.76496 7.50514H6.78823C6.78823 7.38876 6.81151 7.27238 6.81151 7.15601C6.81151 7.08618 6.81151 6.99308 6.78823 6.92325V6.89998H6.76496C6.67186 6.8767 6.55548 6.8767 6.4391 6.85343C6.32273 6.83015 6.2529 6.80688 6.20635 6.71377L6.18307 6.73705H6.20635V6.6905C6.20635 6.64395 6.22962 6.57412 6.22962 6.52757H6.20635L6.22962 6.55085C6.27618 6.48102 6.36928 6.45775 6.48565 6.45775C6.57875 6.45775 6.71841 6.45775 6.78823 6.36465V5.82765C6.78823 5.75782 6.81151 5.688 6.81151 5.61817C6.81151 5.45524 6.78823 5.29232 6.78823 5.12773V5.10445H6.76496C6.67186 5.0579 6.5322 5.08117 6.4391 5.0579C6.346 5.03462 6.27618 5.01135 6.2529 4.89497V4.84842C6.2529 4.73204 6.32273 4.66222 6.41583 4.63894C6.46238 4.61567 6.5322 4.63894 6.60203 4.61567C6.67186 4.61567 6.74168 4.59239 6.78823 4.52257L6.83478 3.96229H6.81151L6.83478 3.98557C6.90461 3.89247 6.99771 3.86919 7.11409 3.86919C7.20719 3.86919 7.32357 3.89247 7.41667 3.89247C7.43994 3.89247 7.48649 3.89247 7.50977 3.89247L8.5821 3.91574C8.69848 3.93902 8.81485 4.03212 8.95451 4.03212C9.00106 4.03212 9.04761 4.03212 9.09416 3.98557C9.35019 3.89247 9.60788 3.86919 9.86391 3.86919C10.1665 3.86919 10.494 3.91574 10.8199 3.91574C10.913 3.91574 11.0293 3.91574 11.1224 3.89247L11.0776 3.77775V3.75448C10.9845 3.75448 10.8681 3.77775 10.775 3.77775C10.4724 3.77775 10.1449 3.7312 9.81902 3.7312C9.53972 3.7312 9.28202 3.75448 9.026 3.87086C9.00272 3.89413 8.95617 3.89413 8.93289 3.89413C8.81652 3.89413 8.70014 3.80103 8.56049 3.77775L7.46488 3.75448H7.39506C7.30195 3.75448 7.20885 3.7312 7.09248 3.7312C6.95282 3.7312 6.83645 3.75448 6.74335 3.89413L6.69679 4.4544H6.72007L6.69679 4.43113C6.67352 4.47768 6.62697 4.47768 6.58042 4.47768C6.51059 4.47768 6.44077 4.47768 6.37094 4.50095C6.23129 4.52423 6.13819 4.64061 6.13819 4.75698V4.80353C6.16146 4.96646 6.25456 5.01301 6.37094 5.03629C6.48732 5.05956 6.60369 5.05956 6.67352 5.08284L6.69679 5.05956H6.67352C6.67352 5.24576 6.69679 5.38542 6.69679 5.55001C6.69679 5.61983 6.69679 5.66638 6.67352 5.73621V6.27321H6.69679L6.67352 6.24993C6.62697 6.31976 6.53387 6.31976 6.41749 6.31976C6.30111 6.31976 6.18474 6.31976 6.11491 6.43613C6.09163 6.48268 6.06836 6.55251 6.06836 6.62234V6.69216C6.11491 6.83182 6.23129 6.85509 6.34766 6.87837C6.46404 6.90164 6.58042 6.87837 6.65024 6.92492V6.90164H6.62697C6.65024 6.97147 6.65024 7.04129 6.65024 7.11112C6.65024 7.2275 6.62697 7.34387 6.62697 7.46025C6.72007 7.5999 6.85972 7.62318 6.99937 7.62318C7.11575 7.62318 7.23213 7.5999 7.32523 7.5999H7.37178C7.44161 7.5999 7.53471 7.5999 7.60453 7.5999C7.81401 7.5999 8.00022 7.5999 8.21136 7.5999C8.28118 7.5999 8.35101 7.5999 8.42084 7.5999V7.57663L8.39756 7.5999L8.70014 7.73955C8.74669 7.76283 8.79324 7.7861 8.83979 7.7861C8.97944 7.7861 9.09582 7.693 9.18892 7.62318L9.16565 7.5999V7.62318H9.63282C9.72592 7.62318 9.79575 7.62318 9.88885 7.62318C10.1449 7.62318 10.4026 7.64645 10.6819 7.64645C10.8215 7.64645 10.9612 7.64645 11.1008 7.62318C11.1939 7.57663 11.2172 7.5068 11.2172 7.43697C11.2172 7.36715 11.1939 7.3206 11.1939 7.25077L11.2172 7.15767L11.2405 7.08784C11.2405 7.04129 11.2405 7.01802 11.2405 6.97147L11.2638 6.92492L11.2405 6.90164V6.92492C11.4034 6.87837 11.6129 6.90164 11.7309 6.71544V6.64561C11.7309 6.57578 11.7077 6.50596 11.6611 6.45941L11.6378 6.48435L11.6611 6.46107C11.5913 6.36797 11.4982 6.34469 11.4283 6.34469C11.3352 6.34469 11.2654 6.32142 11.2189 6.27487L11.1956 6.29814H11.2189C11.1956 6.11194 11.1956 5.94901 11.1956 5.78442C11.1956 5.59822 11.1956 5.38874 11.2189 5.15433H11.1956L11.2189 5.1776C11.2421 5.13105 11.2654 5.13105 11.2887 5.10777C11.3352 5.0845 11.4051 5.0845 11.4749 5.0845C11.5447 5.0845 11.6145 5.06122 11.6844 4.9914C11.7309 4.94485 11.7309 4.87502 11.7309 4.80519C11.7309 4.75864 11.7309 4.71209 11.7077 4.66554C11.6611 4.54917 11.568 4.52589 11.4749 4.50261C11.3818 4.47934 11.2887 4.47934 11.2189 4.45606L11.1956 4.47934H11.2189C11.1956 4.40951 11.1956 4.33969 11.1956 4.26986C11.1956 4.20003 11.1956 4.15348 11.1956 4.08366C11.1956 4.01383 11.1956 3.944 11.1723 3.8509V3.82763C11.1258 3.80435 11.0559 3.73453 10.9628 3.73453H10.9396L11.0776 3.77775Z" fill="black"/>
<path d="M11.1479 3.98901C11.1479 4.19849 11.1246 4.3847 11.1945 4.61911C11.3341 4.75876 11.7315 4.57256 11.6616 4.87514C11.522 4.96824 11.3591 4.89842 11.2178 4.92169L11.1712 4.96824C11.1014 5.43541 11.2178 5.92419 11.1712 6.36809C11.1712 6.41464 11.2178 6.50774 11.2876 6.50774C11.4272 6.53102 11.6134 6.43792 11.66 6.60084C11.6367 6.88015 11.2643 6.62412 11.1695 6.85687C11.123 7.06635 11.2394 7.25256 11.1463 7.4637L11.0764 7.51025C10.4696 7.48697 9.86445 7.48697 9.30418 7.48697L9.32746 7.41715L9.44383 7.34732C9.911 7.30077 10.4463 7.34732 10.9368 7.30077C11.0066 7.27749 11.0764 7.23094 11.0532 7.16112C11.0532 6.25171 11.0764 5.31904 11.0764 4.29326C11.0532 4.1536 10.9135 4.0605 10.8902 3.94412C10.9617 3.91919 11.1014 3.87264 11.1479 3.98901ZM7.20607 3.94246C7.1828 4.03556 7.0897 4.08212 7.04315 4.17522C6.97332 4.36142 7.06642 4.54762 7.01987 4.75876C7.04315 5.57507 7.01987 6.34481 7.04315 7.16112C7.04315 7.23094 7.0897 7.30077 7.13625 7.30077L8.41972 7.32404C8.48954 7.32404 8.58265 7.3706 8.6292 7.41715C8.60592 7.48697 8.51282 7.4637 8.44299 7.48697C7.97582 7.48697 7.46377 7.51025 6.9966 7.44042L6.95004 7.39387C6.92677 7.18439 6.95004 6.94997 6.85694 6.76377C6.71729 6.69395 6.53109 6.76377 6.38977 6.71722C6.31995 6.67067 6.34322 6.57757 6.38977 6.53102C6.5527 6.43792 6.83367 6.57757 6.92677 6.36809C6.92677 5.90092 6.95004 5.45869 6.92677 4.99152C6.78712 4.80531 6.53109 4.96824 6.41305 4.80531C6.4596 4.52601 6.832 4.75877 6.95004 4.54929L6.9966 3.98901C7.01987 3.89591 7.11297 3.91919 7.20607 3.94246ZM9.09637 7.39387C9.09637 7.48697 9.07309 7.60335 8.97999 7.60335C8.88689 7.60335 8.77051 7.60335 8.77051 7.48697C8.79379 7.39387 8.86361 7.32404 8.95671 7.27749C9.02654 7.25422 9.07309 7.34732 9.09637 7.39387ZM7.39394 4.10539C7.44049 4.92169 7.34739 5.66817 7.39394 6.48447C7.32411 6.67067 7.48704 6.95164 7.20774 6.99819C7.16118 6.18189 7.20774 5.29576 7.16118 4.40963C7.13791 4.26998 7.23101 4.13033 7.34739 4.0605L7.39394 4.10539ZM10.9152 4.24504C10.9152 5.15445 10.9384 6.13367 10.8686 6.99652C10.8221 7.0198 10.7522 6.94997 10.7522 6.90342C10.7522 6.53102 10.7057 6.15695 10.729 5.78454C10.7522 5.27082 10.6824 4.66566 10.7522 4.12867C10.8221 4.10539 10.9152 4.17522 10.9152 4.24504ZM8.74557 7.06635C8.79212 7.06635 8.86195 7.13618 8.8154 7.18273L8.7223 7.27583C8.30334 7.1129 7.78962 7.22928 7.34573 7.15945C7.39228 7.08963 7.41555 7.04308 7.48538 6.99652C7.88272 7.0198 8.32662 6.94998 8.74557 7.06635ZM10.6342 6.99652C10.704 7.04308 10.7739 7.08963 10.7739 7.15945L10.704 7.18273C10.2136 7.206 9.70153 7.13618 9.23436 7.25256C9.16453 7.27583 9.07143 7.25256 9.07143 7.18273C9.11798 7.06635 9.25763 7.04308 9.37401 7.0198C9.79629 6.97325 10.2152 6.99652 10.6342 6.99652ZM10.5877 4.01229C10.5644 4.94497 10.5877 5.90092 10.5644 6.8336L10.5178 6.85687C10.0041 6.90342 9.51532 6.76377 9.04815 6.94997C8.95505 6.90342 9.02488 6.76377 9.0016 6.67067V4.19849C9.0016 4.10539 9.04815 4.03556 9.14125 4.01229C9.28091 3.91919 9.44383 3.96574 9.6317 3.94246L10.5644 3.96574L10.5877 4.01229ZM8.86195 5.90092C8.9085 5.41047 8.88523 4.89842 8.88523 4.43125C8.88523 4.29159 8.9085 4.12867 8.79212 4.03556C8.44299 3.87264 7.97582 3.96574 7.58014 3.94246C7.55687 3.96574 7.51032 3.91919 7.51032 3.98901C7.51032 4.92169 7.48704 5.80782 7.48704 6.7405L7.51032 6.85687C7.78962 6.90342 8.09386 6.88015 8.37317 6.88015C8.53609 6.90342 8.67575 6.94997 8.81706 6.97325C8.84034 6.64739 8.86361 6.3897 8.84034 6.08712L8.86195 5.90092Z" fill="white"/>
<path d="M16.932 3.80103C17.0717 3.98723 16.9786 4.21999 17.0251 4.4544C17.1881 4.59405 17.5156 4.4544 17.5389 4.7337C17.5621 4.85008 17.4923 4.94318 17.4225 5.01301C17.3061 5.12939 17.1199 5.01301 17.0268 5.12939C16.9802 5.47852 17.0268 5.87586 17.0268 6.29482C17.1432 6.36465 17.2828 6.34137 17.3992 6.4112C17.469 6.48102 17.5156 6.55085 17.5156 6.64395C17.4923 6.73705 17.4458 6.80688 17.3527 6.85343C17.2596 6.89998 17.0966 6.85343 17.0501 6.99308C17.0035 7.17928 17.0733 7.38876 17.0268 7.5999C16.8871 7.66973 16.7475 7.66973 16.6078 7.66973L15.208 7.64645C15.0683 7.71628 14.9287 7.85593 14.7641 7.7861C14.4615 7.5999 14.0642 7.64645 13.715 7.64645L12.666 7.62318C12.4798 7.46025 12.6194 7.17928 12.5496 6.96981C12.4798 6.85343 12.2936 6.89998 12.1772 6.83015C12.0608 6.7836 12.0376 6.66722 12.0608 6.57412C12.0608 6.45775 12.1772 6.38792 12.2936 6.36465C12.3867 6.31809 12.5263 6.41119 12.5729 6.27154C12.5729 5.89914 12.5496 5.54834 12.5496 5.19921C12.5263 4.98973 12.247 5.10611 12.1307 5.03629C12.0143 4.96646 12.0143 4.82681 12.0376 4.71043C12.1307 4.50095 12.3634 4.5475 12.5513 4.50095L12.5745 4.43113L12.5978 3.80103L12.6677 3.75448L14.3003 3.80103C14.4865 3.80103 14.6494 3.89413 14.8372 3.94068C15.1864 3.68465 15.7001 3.80103 16.1207 3.7312C16.3485 3.80103 16.6295 3.75448 16.932 3.80103Z" fill="black"/>
<path d="M16.9307 3.80111L16.9074 3.82439C16.9772 3.89421 16.9772 3.98731 16.9772 4.10369C16.9772 4.17352 16.9772 4.24334 16.9772 4.33644C16.9772 4.38299 16.9772 4.42955 16.9772 4.45282V4.4761C17.0703 4.54592 17.1867 4.54592 17.3031 4.5692C17.3962 4.59247 17.466 4.61575 17.4893 4.7554V4.80195C17.4893 4.87178 17.4427 4.9416 17.3962 5.01143C17.3496 5.05798 17.3031 5.05798 17.21 5.05798C17.1402 5.05798 17.0471 5.05798 17.0005 5.12781C16.9772 5.24418 16.9772 5.38384 16.9772 5.50021C16.9772 5.75624 17.0005 6.01393 17.0005 6.29324V6.31651H17.0238C17.1402 6.38634 17.2798 6.38634 17.3962 6.43289L17.4195 6.40961H17.3729C17.4427 6.47944 17.4893 6.54927 17.4893 6.61909C17.4893 6.7122 17.4195 6.75875 17.3496 6.8053C17.3031 6.82857 17.2565 6.82857 17.1867 6.82857C17.1169 6.82857 17.0471 6.87512 17.0238 6.94495C17.0005 7.01477 17.0005 7.0846 17.0005 7.13115C17.0005 7.22425 17.0005 7.29408 17.0005 7.38718C17.0005 7.43373 17.0005 7.48028 16.9772 7.55011H17.0005L16.9772 7.52683C16.8609 7.59666 16.6979 7.59666 16.5583 7.59666L15.1584 7.57338C15.0421 7.64321 14.949 7.71304 14.8326 7.71304C14.8093 7.71304 14.7627 7.71304 14.7395 7.68976C14.53 7.55011 14.2723 7.55011 14.0163 7.55011C13.9464 7.55011 13.8766 7.55011 13.8068 7.55011C13.7602 7.55011 13.7137 7.55011 13.6904 7.55011L12.6414 7.52683V7.55011L12.6646 7.52683C12.5948 7.45701 12.5715 7.38718 12.5715 7.2708C12.5715 7.20098 12.5948 7.10788 12.5948 7.01477C12.5948 6.96822 12.5948 6.92167 12.5715 6.87512C12.525 6.8053 12.4552 6.78202 12.3853 6.75875C12.3155 6.75875 12.2457 6.73547 12.1759 6.7122C12.106 6.68892 12.0828 6.59582 12.0828 6.52599V6.47944C12.0828 6.38634 12.1759 6.33979 12.2922 6.31651C12.3155 6.31651 12.3388 6.29324 12.3621 6.29324H12.4086C12.4319 6.29324 12.4784 6.29324 12.5017 6.26996C12.525 6.24669 12.5483 6.22341 12.5715 6.17686C12.5715 5.87428 12.5483 5.59331 12.5483 5.31401C12.5483 5.24418 12.5483 5.17436 12.5483 5.10453C12.5483 5.03471 12.5017 5.01143 12.4784 4.96488C12.4086 4.94161 12.3388 4.9416 12.269 4.9416C12.1991 4.9416 12.1293 4.9416 12.106 4.91833C12.0362 4.87178 12.0129 4.80195 12.0129 4.73213C12.0129 4.70885 12.0129 4.6623 12.0129 4.63902H11.9863L12.0096 4.6623C12.0562 4.5692 12.126 4.54592 12.2191 4.52265C12.3122 4.49937 12.4053 4.49937 12.5217 4.4761H12.5449L12.5682 4.40627L12.5915 3.79945L12.638 3.77617L14.2474 3.82272C14.4336 3.82272 14.5965 3.89255 14.7611 3.96237H14.7844H14.8076C15.1335 3.70635 15.6472 3.846 16.0662 3.77617C16.3687 3.846 16.6497 3.79945 16.929 3.846L16.9307 3.80111V3.77783C16.6281 3.70801 16.3471 3.75456 16.0678 3.70801C15.6722 3.77783 15.1352 3.63818 14.7844 3.91749L14.8076 3.94076V3.91749C14.6214 3.87094 14.4585 3.77783 14.2706 3.77783L12.638 3.73128L12.5682 3.77783H12.5449L12.5217 4.40793L12.4984 4.45448L12.5217 4.47776V4.45448C12.4286 4.47776 12.3355 4.47776 12.2424 4.50103C12.1493 4.52431 12.0562 4.57086 11.9863 4.68724C11.9863 4.71051 11.9863 4.75706 11.9863 4.78034C11.9863 4.87344 12.0096 4.96654 12.1027 5.03637C12.1725 5.08292 12.2889 5.08292 12.3587 5.08292C12.4053 5.08292 12.4286 5.08292 12.4518 5.10619C12.4751 5.12947 12.4984 5.12947 12.4984 5.17602C12.4984 5.24585 12.4984 5.31567 12.4984 5.3855C12.4984 5.6648 12.5217 5.96904 12.5217 6.24835L12.4984 6.2949H12.4286H12.382C12.3587 6.2949 12.3122 6.2949 12.2656 6.31818L12.2889 6.34145V6.31818C12.1725 6.34145 12.0562 6.41128 12.0329 6.55093V6.59748C12.0329 6.69058 12.0562 6.80696 12.1725 6.85351C12.2424 6.87678 12.3122 6.87679 12.382 6.90006C12.4518 6.90006 12.4984 6.92334 12.5217 6.96989L12.5449 6.94661H12.5217C12.5217 6.99316 12.5449 7.01644 12.5449 7.06299C12.5449 7.13282 12.5217 7.22592 12.5217 7.31902C12.5217 7.43539 12.5449 7.5285 12.638 7.6216L13.6871 7.64487C13.7336 7.64487 13.7802 7.64487 13.8267 7.64487C13.8966 7.64487 13.9664 7.64487 14.0362 7.64487C14.2923 7.64487 14.5267 7.66815 14.7129 7.78453C14.7594 7.8078 14.7827 7.8078 14.8292 7.8078C14.9689 7.8078 15.0853 7.7147 15.2017 7.64487L15.1784 7.6216V7.64487L16.5782 7.66815C16.7179 7.66815 16.8808 7.66815 17.0221 7.59832H17.0454V7.57505C17.0454 7.5285 17.0687 7.45867 17.0687 7.41212C17.0687 7.31902 17.0687 7.22592 17.0687 7.15609C17.0687 7.08626 17.0687 7.03971 17.0919 6.96989C17.1152 6.92334 17.1385 6.90006 17.2083 6.90006C17.2549 6.90006 17.3247 6.90006 17.3945 6.85351L17.3713 6.83023V6.85351C17.4644 6.80696 17.5575 6.73713 17.5575 6.62076C17.5575 6.50438 17.4876 6.43455 17.4411 6.36473C17.3014 6.2949 17.1618 6.31818 17.0687 6.24835L17.0454 6.27162H17.0687C17.0687 5.99232 17.0454 5.73463 17.0454 5.4786C17.0454 5.36222 17.0454 5.22257 17.0687 5.10619H17.0454L17.0687 5.12947C17.1152 5.08292 17.1618 5.08292 17.2316 5.08292C17.3014 5.08292 17.3945 5.08292 17.4644 5.01309C17.5109 4.94327 17.5807 4.87344 17.5807 4.75706V4.71051C17.5575 4.54758 17.4411 4.50103 17.348 4.47776C17.2316 4.45448 17.1152 4.45448 17.0687 4.40793L17.0454 4.43121H17.0687C17.0687 4.38466 17.0687 4.36138 17.0687 4.31483C17.0687 4.24501 17.0687 4.17518 17.0687 4.08208C17.0687 3.9657 17.0454 3.8726 16.9756 3.7795L16.9307 3.80111Z" fill="black"/>
<path d="M14.5992 7.08963C14.6457 7.11291 14.6457 7.18273 14.5992 7.18273C14.4595 7.34566 14.2733 7.13618 14.0855 7.18273C13.7829 7.13618 13.4321 7.18273 13.1295 7.13618C13.2226 6.88015 13.5734 7.04308 13.7829 6.97325C14.0638 7.04308 14.3664 6.94998 14.5992 7.08963ZM16.3482 7.04308C16.418 7.08963 16.4645 7.13618 16.4878 7.20601C15.9974 7.27583 15.5318 7.15946 15.0647 7.27583C14.9949 7.25256 14.9716 7.18273 14.9949 7.13618C15.088 7.0198 15.2509 7.04308 15.3905 7.0198L16.3482 7.04308ZM14.95 7.34732C14.9732 7.4637 14.9732 7.60335 14.8103 7.60335C14.7172 7.62663 14.6241 7.5568 14.6008 7.48697C14.5776 7.3706 14.6474 7.25422 14.7405 7.20767C14.8552 7.20601 14.9034 7.30077 14.95 7.34732ZM12.9433 3.96574C12.92 4.05884 12.8036 4.12867 12.7571 4.22177C12.7804 5.201 12.7571 6.25005 12.8036 7.27749L12.8967 7.32404C13.4105 7.32404 13.9691 7.20767 14.4362 7.44042V7.4637C13.8527 7.44042 13.2941 7.51025 12.7338 7.44042L12.6873 7.37059C12.664 7.16112 12.7105 6.95164 12.6174 6.76377C12.4778 6.6474 12.1037 6.81033 12.1985 6.53102C12.3381 6.41464 12.5709 6.57757 12.6424 6.39137C12.6424 5.90092 12.6657 5.45869 12.6191 4.99152C12.5027 4.85187 12.3165 4.94497 12.1752 4.89842C12.1287 4.85187 12.0821 4.78204 12.1287 4.71222C12.2916 4.57256 12.7355 4.75877 12.6424 4.38636C12.6889 4.22343 12.5726 3.94246 12.782 3.91919C12.8502 3.91919 12.92 3.91919 12.9433 3.96574ZM16.8386 3.98902C16.8851 4.22177 16.792 4.43291 16.9317 4.64239C17.0713 4.68894 17.3041 4.59584 17.3756 4.73549C17.3523 5.0148 16.9799 4.80532 16.8851 5.01479C16.9317 5.45869 16.8386 5.8311 16.9084 6.32154C16.8619 6.36809 16.8386 6.41464 16.8851 6.46119C17.0248 6.57757 17.1877 6.39137 17.3041 6.50775C17.3972 6.53102 17.3507 6.60085 17.3507 6.6474C17.2343 6.81032 16.9782 6.62412 16.9068 6.8336L16.8835 7.44042L16.7904 7.48697H15.2043V7.44042L15.3905 7.37059H16.6025C16.6723 7.37059 16.7422 7.30077 16.7422 7.23094C16.7189 6.29827 16.7189 5.31904 16.7189 4.29326L16.5792 4.01395C16.6291 3.89592 16.792 3.89591 16.8386 3.98902ZM13.1295 4.36142V6.9267C13.1062 6.99653 13.0131 7.04308 12.9666 7.08963L12.92 7.04308C12.92 6.76377 12.92 6.45953 12.92 6.2035V5.99402C12.8967 5.43375 12.8967 4.80532 12.92 4.24505C12.9666 4.1985 13.0131 4.10539 13.0829 4.08212C13.1295 4.17522 13.1062 4.24505 13.1295 4.36142ZM16.6058 4.22177C16.5826 4.89842 16.6058 5.52852 16.6291 6.15695C16.6058 6.45953 16.6058 6.71722 16.6058 6.99653L16.5593 7.04308C16.3498 6.94998 16.4196 6.7405 16.4196 6.55263C16.4429 6.2966 16.3964 6.01564 16.4429 5.75961L16.3964 5.6665L16.4196 4.10373C16.4645 4.01229 16.5576 4.17522 16.6058 4.22177ZM16.3016 4.26832C16.3016 4.15194 16.3249 4.03557 16.255 3.94246L15.8361 3.91919C15.5335 3.96574 15.1827 3.87264 14.9267 4.03557C14.8103 4.17522 14.8569 4.33815 14.8336 4.52601C14.8569 4.61911 14.8801 4.73549 14.9267 4.82859L14.8801 4.96824L14.6939 4.92169L14.6457 4.82859C14.669 4.75877 14.6923 4.68894 14.6923 4.59584C14.6923 4.38636 14.7621 4.08212 14.4828 3.98902C14.0871 3.96574 13.7363 3.94246 13.3174 3.94246L13.2475 3.98902C13.2475 4.89842 13.2475 5.69144 13.2475 6.60085C13.2475 6.71722 13.201 6.85687 13.3406 6.90342C13.6898 6.85687 13.994 6.90343 14.3199 6.88015C14.4362 6.88015 14.5293 6.99653 14.669 6.97325C14.7155 6.60084 14.7155 6.15695 14.6923 5.76127C14.669 5.73799 14.6923 5.64489 14.6457 5.62162V5.55179L14.8552 5.57507L14.8785 5.64489L14.8552 5.66817L14.8319 6.90342C14.8319 6.94998 14.8319 7.04308 14.925 7.0198C15.2974 6.81032 15.7413 6.94998 16.1836 6.90342L16.2767 6.85687C16.3232 6.6474 16.2999 5.9242 16.2999 5.9242C16.3016 5.36393 16.3016 4.82859 16.3016 4.26832Z" fill="white"/>
<path d="M14.8537 5.41041C14.8304 5.48024 14.714 5.48024 14.6675 5.45696L14.5977 5.43369C14.6442 5.29403 14.5977 5.15438 14.714 5.06128C14.8071 5.10783 14.8071 5.27076 14.8537 5.41041Z" fill="white"/>
<path d="M8.74416 5.85444C8.6045 5.73806 8.55795 5.55186 8.44158 5.41054C8.48813 5.34072 8.58123 5.31744 8.62778 5.27089C8.72088 5.17779 8.81398 5.03814 8.76743 4.89848C8.74416 4.78211 8.69761 4.66573 8.58123 4.59591C8.3252 4.5028 8.02096 4.54935 7.76493 4.57263C7.71838 4.59591 7.6951 4.64246 7.74165 4.66573C7.83475 4.71228 7.88131 4.78211 7.88131 4.85193C7.85803 5.17779 7.85803 5.50531 7.83476 5.80789L7.6951 5.94754C7.83476 6.06392 7.99768 5.97081 8.20882 6.01736C8.25537 5.92426 8.11572 5.87771 8.09245 5.78461C8.11572 5.69151 8.09245 5.55186 8.16227 5.48203C8.34848 5.64496 8.39503 5.87771 8.60617 6.01903L8.88547 6.0423V5.87938C8.83726 5.92426 8.76743 5.87771 8.74416 5.85444ZM8.37175 5.27089C8.30193 5.27089 8.16227 5.34072 8.139 5.22434C8.139 5.06141 8.06917 4.87521 8.139 4.71062C8.25537 4.61752 8.4183 4.66407 8.48813 4.78045C8.53468 4.87355 8.53468 4.96665 8.53468 5.05975C8.48813 5.15451 8.46485 5.24762 8.37175 5.27089ZM14.9254 5.59841C14.972 5.66824 14.9953 5.73806 14.9953 5.83116L14.9022 5.97081L14.972 6.01736C15.1116 6.01736 15.2978 6.06391 15.4392 5.99409C15.3926 5.92426 15.3228 5.90099 15.2762 5.85444C15.1133 5.41054 14.9969 4.94504 14.8573 4.50114L14.7176 4.57097C14.6245 4.96665 14.4616 5.34072 14.3685 5.75967C14.3452 5.8295 14.2754 5.85278 14.2056 5.89933C14.1125 5.9226 14.0892 5.8295 14.0426 5.78295C14.0426 5.43382 14.0892 5.12957 14.0659 4.73389C14.0426 4.66407 14.1357 4.59424 14.1823 4.66407C14.2754 4.71062 14.2754 4.827 14.2987 4.9201C14.3219 4.96665 14.3918 4.96665 14.3918 4.89682L14.4616 4.52442C14.415 4.40804 14.2987 4.54769 14.2056 4.52442C14.0194 4.50114 13.7866 4.57097 13.5987 4.45459C13.4591 4.50114 13.5056 4.71062 13.4591 4.827L13.4824 4.89682C13.5987 4.827 13.6686 4.64079 13.8315 4.68734L13.8548 5.03647L13.8082 5.80623C13.7617 5.87605 13.6453 5.87605 13.6453 5.96915C13.8548 6.03898 14.0892 5.96915 14.2987 5.99243C14.415 5.99243 14.5547 6.03898 14.6478 5.99243V5.89933C14.578 5.85278 14.4849 5.80623 14.5081 5.71312C14.5547 5.6433 14.5547 5.52692 14.6711 5.57347L14.7176 5.59674L14.8805 5.62002C14.8772 5.62168 14.8772 5.59841 14.9254 5.59841ZM14.6677 5.43382L14.5979 5.41054C14.6445 5.27089 14.5979 5.13124 14.7143 5.03814C14.8307 5.10796 14.8074 5.27089 14.8539 5.41054C14.8307 5.45709 14.7143 5.45709 14.6677 5.43382ZM15.9978 4.61752C15.9978 4.71062 16.0676 4.85027 15.9978 4.9201C15.9047 4.85027 15.9047 4.78044 15.765 4.73389C15.6952 4.73389 15.6254 4.75717 15.6021 4.827C15.5788 5.08303 15.8348 5.08302 15.9745 5.24595C16.1141 5.3856 16.1607 5.59508 16.1141 5.75967C16.0676 5.89933 15.9978 5.96915 15.8581 5.96915C15.7417 5.99243 15.6486 5.89933 15.5555 5.94588C15.5323 5.94588 15.4857 5.96915 15.4624 5.9226L15.4857 5.45543L15.5555 5.40888C15.6254 5.57181 15.5788 5.75801 15.7883 5.75801C15.8581 5.75801 15.9279 5.73474 15.9279 5.64163C15.9512 5.22268 15.3909 5.31578 15.4142 4.89516C15.4375 4.80206 15.4375 4.70896 15.484 4.63913C15.5771 4.4762 15.7866 4.56931 15.9512 4.4762C15.9978 4.50114 15.9978 4.59424 15.9978 4.61752ZM10.0276 4.59424C9.91125 4.66407 9.7716 4.75717 9.81815 4.9201C9.7716 5.1994 9.79487 5.50365 9.81815 5.80623L10.0044 5.96915L9.98108 5.99243C9.7716 5.99243 9.5854 6.03898 9.37425 5.99243C9.28115 5.89933 9.49063 5.85278 9.51391 5.78295C9.56046 5.45709 9.58373 5.1063 9.56046 4.73389C9.51391 4.61752 9.35098 4.66407 9.39753 4.54769C9.58373 4.52442 9.81649 4.52442 10.0044 4.54769L10.0276 4.59424ZM4.2437 4.82866C4.12732 4.96831 4.10404 4.68901 3.98767 4.68901C3.91784 4.68901 3.80146 4.66573 3.75491 4.71228C3.73164 4.87521 3.70836 5.01486 3.75491 5.15618C3.80146 5.20273 3.89457 5.17945 3.96439 5.17945C4.03422 5.1329 4.08077 4.99325 4.17387 5.01652C4.2437 5.08635 4.1506 5.17945 4.17387 5.226C4.1506 5.3191 4.2437 5.43548 4.12732 5.45875C4.05749 5.4122 4.01094 5.29583 3.91784 5.29583L3.75491 5.3191C3.68509 5.52858 3.70836 5.71479 3.75491 5.92593C3.84802 6.01903 3.96439 5.92593 4.08077 5.92593C4.2437 5.90265 4.19715 5.6699 4.3368 5.69317C4.38335 5.78627 4.38335 5.90265 4.36007 5.99575L4.29025 6.0423H3.45067C3.40412 6.01903 3.33429 6.01903 3.35757 5.97248C3.63687 5.80955 3.47395 5.48203 3.5205 5.226C3.47395 5.0398 3.63687 4.73556 3.38085 4.61918C3.35757 4.54935 3.45067 4.57263 3.47395 4.54936C3.68342 4.54936 3.96439 4.61918 4.15059 4.45625C4.2437 4.52442 4.2437 4.71228 4.2437 4.82866ZM2.93695 4.64079C2.7042 4.827 2.68092 5.17779 2.58782 5.43382C2.49472 5.59675 2.54127 5.80622 2.37834 5.94754C2.30852 5.97081 2.26196 5.90099 2.26196 5.85444C2.16886 5.48203 2.07576 5.10796 1.93611 4.75883C1.91283 4.64246 1.68008 4.61918 1.81973 4.54936C2.00594 4.52608 2.12231 4.57263 2.2869 4.54936C2.33345 4.66573 2.14725 4.71228 2.1938 4.85193C2.31018 5.01486 2.26363 5.24761 2.40328 5.38893L2.47311 5.3191C2.47311 5.0398 2.79896 4.80538 2.51966 4.54936C2.58948 4.45625 2.75241 4.52608 2.86879 4.47953C2.91367 4.54769 3.00844 4.57097 2.93695 4.64079Z" fill="black"/>
</svg>
