<svg width="430" height="100" viewBox="0 0 430 100" fill="none" xmlns="http://www.w3.org/2000/svg">
<path d="M0.00017184 45.1201L11.2002 0.320114L17.9202 0.320114L8.64017 37.4401C8.38417 38.4641 8.83217 39.0401 9.85617 39.0401L18.7522 39.0401L17.2162 45.1201L0.00017184 45.1201ZM19.8927 45.1201L31.0927 0.320114L48.9487 0.320114L47.4127 6.40012L37.8767 6.40012C36.8527 6.40012 36.1487 6.91212 35.8927 7.93612L33.2047 18.6881L39.0287 18.6881L37.4927 24.7681L31.6687 24.7681L28.5327 37.4401C28.2767 38.4641 28.7247 39.0401 29.7487 39.0401L39.2847 39.0401L37.7487 45.1201L19.8927 45.1201ZM48.9057 45.4401C43.9137 45.4401 41.2257 42.7521 42.5057 37.7601L50.3137 6.40012C51.4017 2.04811 53.3217 0.000114441 57.6737 0.000114441L65.3537 0.000114441C70.3457 0.000114441 72.9697 2.68811 71.7537 7.68011L69.8337 15.3601L63.1137 15.3601L65.0337 7.68011C65.2897 6.65612 64.8417 6.08012 63.8177 6.08012L58.6977 6.08012C57.6737 6.08012 56.9697 6.65612 56.7137 7.68011L49.2257 37.7601C48.9697 38.7841 49.4177 39.3601 50.4417 39.3601L55.5617 39.3601C56.5857 39.3601 57.2897 38.7841 57.5457 37.7601L60.0417 27.8401L55.3057 27.8401L56.8417 21.7601L68.2337 21.7601L67.2737 25.6641L63.9457 39.0401C62.8577 43.3921 60.9377 45.4401 56.5857 45.4401L48.9057 45.4401ZM67.1152 45.1201L78.3152 0.320114L96.1712 0.320114L94.6352 6.40012L85.0992 6.40012C84.0752 6.40012 83.3712 6.91212 83.1152 7.93612L80.4272 18.6881L86.2512 18.6881L84.7152 24.7681L78.8912 24.7681L75.7552 37.4401C75.4992 38.4641 75.9472 39.0401 76.9712 39.0401L86.5072 39.0401L84.9712 45.1201L67.1152 45.1201ZM88.3202 45.1201L99.5202 0.320114L111.36 0.320114L106.112 36.5441C105.856 37.9521 107.712 37.8241 108.096 36.2881L117.056 0.320114L123.136 0.320114L111.936 45.1201L100.096 45.1201L105.344 9.21611C105.6 7.42411 103.808 7.48812 103.36 9.15211L94.4002 45.1201L88.3202 45.1201ZM117.213 45.1201L128.413 0.320114L141.853 0.320114C146.845 0.320114 149.469 3.00811 148.253 8.00011L140.573 38.7201C139.485 43.0721 137.565 45.1201 133.213 45.1201L117.213 45.1201ZM125.469 39.0401L132.189 39.0401C133.213 39.0401 133.917 38.4641 134.173 37.4401L141.533 8.00011C141.789 6.97612 141.341 6.40012 140.317 6.40012L133.597 6.40012L125.469 39.0401ZM151.217 45.4401C146.225 45.4401 143.537 42.7521 144.817 37.7601L147.377 27.5201L154.097 27.5201L151.537 37.7601C151.281 38.7841 151.729 39.3601 152.753 39.3601L157.873 39.3601C158.897 39.3601 159.601 38.7841 159.857 37.7601L162.033 29.0561C162.417 27.3921 162.033 26.5601 160.561 25.7921L154.737 22.8481C151.281 21.1201 149.745 19.0081 151.025 14.0161L152.945 6.40012C154.033 2.04811 155.953 0.000114441 160.305 0.000114441L167.601 0.000114441C172.593 0.000114441 175.217 2.68811 174.001 7.68011L172.145 15.1041L165.425 15.1041L167.281 7.68011C167.537 6.65612 167.089 6.08012 166.065 6.08012L161.329 6.08012C160.305 6.08012 159.601 6.65612 159.345 7.68011L157.745 14.2721C157.361 15.9361 157.809 16.7681 159.153 17.4721L165.041 20.4801C168.497 22.2721 169.969 24.0001 168.753 28.9921L166.257 39.0401C165.169 43.3921 163.249 45.4401 158.897 45.4401L151.217 45.4401ZM176.015 45.1201L187.215 0.320114L200.655 0.320114C205.647 0.320114 208.271 3.00811 207.055 8.00011L199.375 38.7201C198.287 43.0721 196.367 45.1201 192.015 45.1201L176.015 45.1201ZM184.271 39.0401L190.991 39.0401C192.015 39.0401 192.719 38.4641 192.975 37.4401L200.335 8.00011C200.591 6.97612 200.143 6.40012 199.119 6.40012L192.399 6.40012L184.271 39.0401ZM210.403 45.4401C205.411 45.4401 202.723 42.7521 204.003 37.7601L211.811 6.40012C212.899 2.04811 214.819 0.000114441 219.171 0.000114441L226.851 0.000114441C231.843 0.000114441 234.467 2.68811 233.251 7.68011L225.443 39.0401C224.355 43.3921 222.435 45.4401 218.083 45.4401L210.403 45.4401ZM211.939 39.3601L217.059 39.3601C218.083 39.3601 218.787 38.7841 219.043 37.7601L226.531 7.68011C226.787 6.65612 226.339 6.08012 225.315 6.08012L220.195 6.08012C219.171 6.08012 218.467 6.65612 218.211 7.68011L210.723 37.7601C210.467 38.7841 210.915 39.3601 211.939 39.3601ZM228.8 45.1201L240 0.320114L251.84 0.320114L246.592 36.5441C246.336 37.9521 248.192 37.8241 248.576 36.2881L257.536 0.320114L263.616 0.320114L252.416 45.1201L240.576 45.1201L245.824 9.21611C246.08 7.42411 244.288 7.48812 243.84 9.15211L234.88 45.1201L228.8 45.1201ZM263.837 15.0401L267.229 9.47211C267.805 8.57611 267.741 8.00011 266.781 8.00011L265.565 8.00011L267.485 0.320114L274.525 0.320114L272.285 9.34412L268.893 15.0401L263.837 15.0401ZM273.164 45.1201L282.444 8.00011C282.7 6.97612 282.252 6.40012 281.228 6.40012L274.252 6.40012L275.788 0.320114L299.66 0.320114L298.124 6.40012L291.148 6.40012C290.124 6.40012 289.42 6.97612 289.164 8.00011L279.884 45.1201L273.164 45.1201ZM304.616 45.4401C299.624 45.4401 296.936 42.7521 298.216 37.7601L306.024 6.40012C307.112 2.04811 309.032 0.000114441 313.384 0.000114441L321.064 0.000114441C326.056 0.000114441 328.68 2.68811 327.464 7.68011L325.544 15.3601L318.824 15.3601L320.744 7.68011C321 6.65612 320.552 6.08012 319.528 6.08012L314.408 6.08012C313.384 6.08012 312.68 6.65612 312.424 7.68011L304.936 37.7601C304.68 38.7841 305.128 39.3601 306.152 39.3601L311.272 39.3601C312.296 39.3601 313 38.7841 313.256 37.7601L315.752 27.8401L311.016 27.8401L312.552 21.7601L323.944 21.7601L322.984 25.6641L319.656 39.0401C318.568 43.3921 316.648 45.4401 312.296 45.4401L304.616 45.4401ZM330.889 45.4401C325.897 45.4401 323.209 42.7521 324.489 37.7601L333.833 0.320114L340.553 0.320114L331.209 37.7601C330.953 38.7841 331.401 39.3601 332.425 39.3601L337.545 39.3601C338.569 39.3601 339.273 38.7841 339.529 37.7601L348.873 0.320114L355.593 0.320114L345.929 39.0401C344.841 43.3921 342.921 45.4401 338.569 45.4401L330.889 45.4401ZM349.593 45.1201L360.793 0.320114L378.649 0.320114L377.113 6.40012L367.577 6.40012C366.553 6.40012 365.849 6.91212 365.593 7.93612L362.905 18.6881L368.729 18.6881L367.193 24.7681L361.369 24.7681L358.233 37.4401C357.977 38.4641 358.425 39.0401 359.449 39.0401L368.985 39.0401L367.449 45.1201L349.593 45.1201ZM378.222 45.4401C373.23 45.4401 370.542 42.7521 371.822 37.7601L374.382 27.5201L381.102 27.5201L378.542 37.7601C378.286 38.7841 378.734 39.3601 379.758 39.3601L384.878 39.3601C385.902 39.3601 386.606 38.7841 386.862 37.7601L389.038 29.0561C389.422 27.3921 389.038 26.5601 387.566 25.7921L381.742 22.8481C378.286 21.1201 376.75 19.0081 378.03 14.0161L379.95 6.40012C381.038 2.04811 382.958 0.000114441 387.31 0.000114441L394.606 0.000114441C399.598 0.000114441 402.222 2.68811 401.006 7.68011L399.15 15.1041L392.43 15.1041L394.286 7.68011C394.542 6.65612 394.094 6.08012 393.07 6.08012L388.334 6.08012C387.31 6.08012 386.606 6.65612 386.35 7.68011L384.75 14.2721C384.366 15.9361 384.814 16.7681 386.158 17.4721L392.046 20.4801C395.502 22.2721 396.974 24.0001 395.758 28.9921L393.262 39.0401C392.174 43.3921 390.254 45.4401 385.902 45.4401L378.222 45.4401ZM403.677 45.4401C398.685 45.4401 395.997 42.7521 397.277 37.7601L399.837 27.5201L406.557 27.5201L403.997 37.7601C403.741 38.7841 404.189 39.3601 405.213 39.3601L410.333 39.3601C411.357 39.3601 412.061 38.7841 412.317 37.7601L414.493 29.0561C414.877 27.3921 414.493 26.5601 413.021 25.7921L407.197 22.8481C403.741 21.1201 402.205 19.0081 403.485 14.0161L405.405 6.40012C406.493 2.04811 408.413 0.000114441 412.765 0.000114441L420.061 0.000114441C425.053 0.000114441 427.677 2.68811 426.461 7.68011L424.605 15.1041L417.885 15.1041L419.741 7.68011C419.997 6.65612 419.549 6.08012 418.525 6.08012L413.789 6.08012C412.765 6.08012 412.061 6.65612 411.805 7.68011L410.205 14.2721C409.821 15.9361 410.269 16.7681 411.613 17.4721L417.501 20.4801C420.957 22.2721 422.429 24.0001 421.213 28.9921L418.717 39.0401C417.629 43.3921 415.709 45.4401 411.357 45.4401L403.677 45.4401ZM418.764 52.1601L422.156 46.5921C422.732 45.6961 422.668 45.1201 421.708 45.1201L420.492 45.1201L422.412 37.4401L429.452 37.4401L427.212 46.4641L423.82 52.1601L418.764 52.1601ZM6.01617 99.1201L15.2962 62.0001C15.5522 60.9761 15.1042 60.4001 14.0802 60.4001L7.10417 60.4001L8.64017 54.3201L32.5122 54.3201L30.9762 60.4001L24.0002 60.4001C22.9762 60.4001 22.2722 60.9761 22.0162 62.0001L12.7362 99.1201H6.01617ZM24.0802 99.1201L35.2802 54.3201L42.0002 54.3201L37.7762 71.2161C37.5202 72.2401 37.9682 72.8161 38.9922 72.8161H44.1122C45.1362 72.8161 45.8402 72.2401 46.0962 71.2161L50.3202 54.3201L57.0402 54.3201L45.8402 99.1201H39.1202L44.1762 78.8961L35.8562 78.8961L30.8002 99.1201L24.0802 99.1201ZM51.0977 99.1201L62.2977 54.3201L80.1537 54.3201L78.6177 60.4001L69.0817 60.4001C68.0577 60.4001 67.3537 60.9121 67.0977 61.9361L64.4097 72.6881H70.2337L68.6977 78.7681H62.8737L59.7377 91.4401C59.4817 92.4641 59.9297 93.0401 60.9537 93.0401L70.4897 93.0401L68.9537 99.1201L51.0977 99.1201ZM78.0627 99.1201L81.5827 85.1681L78.0627 85.1681L81.1347 54.3201L87.5987 54.3201L84.9107 77.6161C84.6547 79.9841 87.5987 79.9841 88.4947 77.6161L97.5187 54.3201L104.047 54.3201L91.7587 85.1681H88.3027L84.7827 99.1201L78.0627 99.1201ZM101.713 99.1201L112.913 54.3201L125.713 54.3201L119.761 91.4401L132.113 54.3201L145.297 54.3201L134.097 99.1201L127.697 99.1201L136.657 63.1521C137.169 61.2961 134.993 61.2961 134.417 63.0241L122.001 99.1201L113.809 99.1201L119.441 63.0241C119.697 61.2961 117.585 61.2961 117.073 63.1521L108.113 99.1201L101.713 99.1201ZM139.355 99.1201L150.555 54.3201L168.411 54.3201L166.875 60.4001L157.339 60.4001C156.315 60.4001 155.611 60.9121 155.355 61.9361L152.667 72.6881L158.491 72.6881L156.955 78.7681L151.131 78.7681L147.995 91.4401C147.739 92.4641 148.187 93.0401 149.211 93.0401L158.747 93.0401L157.211 99.1201L139.355 99.1201ZM158.32 99.1201L175.024 54.3201L188.144 54.3201L182.32 99.1201L175.536 99.1201L177.264 87.5361L169.328 87.5361L165.104 99.1201L158.32 99.1201ZM173.36 81.4561H176.24C177.264 81.4561 177.968 80.7521 178.16 79.6001L181.104 62.0001C181.424 60.2081 179.12 60.0161 178.608 61.4881L172.336 79.6001C171.952 80.7521 172.336 81.4561 173.36 81.4561ZM192.689 99.4401C187.697 99.4401 185.009 96.7521 186.289 91.7601L188.849 81.5201L195.569 81.5201L193.009 91.7601C192.753 92.7841 193.201 93.3601 194.225 93.3601L199.345 93.3601C200.369 93.3601 201.073 92.7841 201.329 91.7601L203.505 83.0561C203.889 81.3921 203.505 80.5601 202.033 79.7921L196.209 76.8481C192.753 75.1201 191.217 73.0081 192.497 68.0161L194.417 60.4001C195.505 56.0481 197.425 54.0001 201.777 54.0001L209.073 54.0001C214.065 54.0001 216.689 56.6881 215.473 61.6801L213.617 69.1041L206.897 69.1041L208.753 61.6801C209.009 60.6561 208.561 60.0801 207.537 60.0801L202.801 60.0801C201.777 60.0801 201.073 60.6561 200.817 61.6801L199.217 68.2721C198.833 69.9361 199.281 70.7681 200.625 71.4721L206.513 74.4801C209.969 76.2721 211.441 78.0001 210.225 82.9921L207.729 93.0401C206.641 97.3921 204.721 99.4401 200.369 99.4401L192.689 99.4401ZM218.784 99.4401C213.792 99.4401 211.104 96.7521 212.384 91.7601L221.728 54.3201L228.448 54.3201L219.104 91.7601C218.848 92.7841 219.296 93.3601 220.32 93.3601H225.44C226.464 93.3601 227.168 92.7841 227.424 91.7601L236.768 54.3201L243.488 54.3201L233.824 93.0401C232.736 97.3921 230.816 99.4401 226.464 99.4401L218.784 99.4401ZM237.488 99.1201L248.688 54.3201L262.128 54.3201C267.12 54.3201 269.744 57.0081 268.528 62.0001L266.352 70.7681C265.52 74.0321 263.792 76.0161 261.232 76.7841C263.28 77.7441 263.792 79.6001 263.088 82.5441L258.928 99.1201L252.208 99.1201L256.624 81.4561C256.88 80.3681 256.432 79.7281 255.408 79.7281L249.072 79.7281L244.208 99.1201H237.488ZM250.544 73.6481L257.264 73.6481C258.288 73.6481 259.056 73.0721 259.312 72.0481L261.808 62.0001C262.064 60.9761 261.616 60.4001 260.592 60.4001H253.872L250.544 73.6481ZM263.88 99.1201L275.08 54.3201L292.936 54.3201L291.4 60.4001L281.864 60.4001C280.84 60.4001 280.136 60.9121 279.88 61.9361L277.192 72.6881L283.016 72.6881L281.48 78.7681L275.656 78.7681L272.52 91.4401C272.264 92.4641 272.712 93.0401 273.736 93.0401L283.272 93.0401L281.736 99.1201L263.88 99.1201Z" fill="white"/>
</svg>
