<svg width="20" height="20" viewBox="0 0 20 20" fill="none" xmlns="http://www.w3.org/2000/svg">
<path fill-rule="evenodd" clip-rule="evenodd" d="M9.99998 3.3335C13.1194 3.33352 16.1635 5.13412 18.2622 8.57917C18.7927 9.45016 18.7927 10.5502 18.2622 11.4212C16.1635 14.8662 13.1194 16.6668 9.99997 16.6668C6.88055 16.6667 3.8364 14.8661 1.73778 11.4211C1.2072 10.5501 1.2072 9.45007 1.73778 8.57907C3.8364 5.13403 6.88056 3.33347 9.99998 3.3335ZM6.97914 10.0002C6.97914 8.3318 8.33161 6.97933 9.99997 6.97933C11.6683 6.97933 13.0208 8.3318 13.0208 10.0002C13.0208 11.6685 11.6683 13.021 9.99997 13.021C8.33161 13.021 6.97914 11.6685 6.97914 10.0002Z" fill="#18181B" fill-opacity="0.5"/>
</svg>
