<svg width="490" height="120" viewBox="0 0 490 120" fill="none" xmlns="http://www.w3.org/2000/svg">
<rect width="490" height="120" rx="8" fill="#FAFAFA"/>
<rect x="99.3602" y="44.6458" width="291.874" height="30.6" rx="15.3" stroke="#D4D4D8" stroke-width="0.9" stroke-dasharray="1.8 1.8"/>
<g filter="url(#filter0_ddd_6026_3517)">
<rect x="102.984" y="31.6318" width="79.144" height="22.968" rx="11.484" fill="white" fill-opacity="0.8"/>
<rect x="102.723" y="31.3708" width="79.666" height="23.49" rx="11.745" stroke="black" stroke-opacity="0.1" stroke-width="0.522"/>
<path d="M115.47 37.945C114.913 37.381 114.024 37.381 113.467 37.945C112.876 38.5434 112.016 39.4917 111.302 40.5939C110.594 41.6869 109.994 42.9825 109.994 44.2652C109.994 46.7221 112 48.7084 114.468 48.7084C116.936 48.7084 118.943 46.7221 118.943 44.2652C118.943 42.9825 118.343 41.6869 117.635 40.5939C116.921 39.4917 116.061 38.5434 115.47 37.945Z" fill="#FC5F2B"/>
<path opacity="0.5" d="M124.675 47.0617V39.5665C124.675 39.5305 124.693 39.5125 124.729 39.5125H128.326C128.902 39.5125 129.377 39.7249 129.751 40.1497C130.126 40.5673 130.313 41.0749 130.313 41.6725C130.313 42.0109 130.226 42.3097 130.054 42.5689C129.888 42.8209 129.69 42.9937 129.46 43.0873C129.431 43.0945 129.416 43.1125 129.416 43.1413C129.416 43.1701 129.431 43.1881 129.46 43.1953C129.719 43.3033 129.953 43.5337 130.162 43.8865C130.378 44.2321 130.486 44.5885 130.486 44.9557C130.486 45.5965 130.277 46.1185 129.859 46.5217C129.449 46.9177 128.92 47.1157 128.272 47.1157H124.729C124.693 47.1157 124.675 47.0977 124.675 47.0617ZM128.196 43.6597H125.755C125.719 43.6597 125.701 43.6777 125.701 43.7137V46.1437C125.701 46.1797 125.719 46.1977 125.755 46.1977H128.12C128.502 46.1977 128.819 46.0753 129.071 45.8305C129.33 45.5785 129.46 45.2869 129.46 44.9557C129.46 44.6317 129.334 44.3365 129.082 44.0701C128.83 43.7965 128.534 43.6597 128.196 43.6597ZM129.287 41.6725C129.287 41.3269 129.182 41.0317 128.974 40.7869C128.772 40.5421 128.488 40.4197 128.12 40.4197H125.755C125.719 40.4197 125.701 40.4377 125.701 40.4737V42.6877C125.701 42.7237 125.719 42.7417 125.755 42.7417H128.12C128.423 42.7273 128.693 42.6193 128.93 42.4177C129.168 42.2161 129.287 41.9677 129.287 41.6725ZM132.748 39.5665V47.0617C132.748 47.0977 132.73 47.1157 132.694 47.1157H131.776C131.74 47.1157 131.722 47.0977 131.722 47.0617V39.5665C131.722 39.5305 131.74 39.5125 131.776 39.5125H132.694C132.73 39.5125 132.748 39.5305 132.748 39.5665ZM138.625 42.3205C139.107 42.8389 139.348 43.5265 139.348 44.3833C139.348 45.2401 139.107 45.9277 138.625 46.4461C138.149 46.9645 137.498 47.2237 136.67 47.2237C135.835 47.2237 135.179 46.9645 134.704 46.4461C134.229 45.9277 133.991 45.2401 133.991 44.3833C133.991 43.5265 134.229 42.8389 134.704 42.3205C135.179 41.8021 135.835 41.5429 136.67 41.5429C137.498 41.5429 138.149 41.8021 138.625 42.3205ZM137.879 45.7765C138.175 45.4165 138.322 44.9521 138.322 44.3833C138.322 43.8145 138.175 43.3537 137.879 43.0009C137.584 42.6409 137.181 42.4609 136.67 42.4609C136.166 42.4609 135.763 42.6409 135.46 43.0009C135.165 43.3537 135.017 43.8145 135.017 44.3833C135.017 44.9521 135.165 45.4165 135.46 45.7765C135.763 46.1293 136.166 46.3057 136.67 46.3057C137.181 46.3057 137.584 46.1293 137.879 45.7765ZM144.817 42.3205C145.299 42.8389 145.54 43.5265 145.54 44.3833C145.54 45.2401 145.299 45.9277 144.817 46.4461C144.342 46.9645 143.69 47.2237 142.862 47.2237C142.027 47.2237 141.372 46.9645 140.896 46.4461C140.421 45.9277 140.184 45.2401 140.184 44.3833C140.184 43.5265 140.421 42.8389 140.896 42.3205C141.372 41.8021 142.027 41.5429 142.862 41.5429C143.69 41.5429 144.342 41.8021 144.817 42.3205ZM144.072 45.7765C144.367 45.4165 144.514 44.9521 144.514 44.3833C144.514 43.8145 144.367 43.3537 144.072 43.0009C143.776 42.6409 143.373 42.4609 142.862 42.4609C142.358 42.4609 141.955 42.6409 141.652 43.0009C141.357 43.3537 141.21 43.8145 141.21 44.3833C141.21 44.9521 141.357 45.4165 141.652 45.7765C141.955 46.1293 142.358 46.3057 142.862 46.3057C143.373 46.3057 143.776 46.1293 144.072 45.7765ZM151.571 47.1157H150.761C150.739 47.1157 150.721 47.0977 150.707 47.0617L150.599 46.6297C150.577 46.5649 150.541 46.5577 150.491 46.6081C150.339 46.7593 150.109 46.8997 149.799 47.0293C149.49 47.1589 149.205 47.2237 148.946 47.2237C148.161 47.2237 147.535 46.9645 147.067 46.4461C146.606 45.9205 146.376 45.2329 146.376 44.3833C146.376 43.5337 146.606 42.8497 147.067 42.3313C147.535 41.8057 148.161 41.5429 148.946 41.5429C149.277 41.5429 149.591 41.6185 149.886 41.7697C150.188 41.9137 150.39 42.0433 150.491 42.1585C150.519 42.1873 150.545 42.1981 150.566 42.1909C150.588 42.1765 150.599 42.1585 150.599 42.1369V39.5665C150.599 39.5305 150.617 39.5125 150.653 39.5125H151.571C151.607 39.5125 151.625 39.5305 151.625 39.5665V47.0617C151.625 47.0977 151.607 47.1157 151.571 47.1157ZM147.845 43.0009C147.549 43.3537 147.402 43.8145 147.402 44.3833C147.402 44.9521 147.549 45.4165 147.845 45.7765C148.14 46.1293 148.543 46.3057 149.054 46.3057C149.537 46.3057 149.915 46.1293 150.188 45.7765C150.462 45.4237 150.599 44.9593 150.599 44.3833C150.599 43.8073 150.462 43.3429 150.188 42.9901C149.915 42.6373 149.537 42.4609 149.054 42.4609C148.543 42.4609 148.14 42.6409 147.845 43.0009ZM156.516 39.5665V47.0617C156.516 47.0977 156.498 47.1157 156.462 47.1157H155.544C155.508 47.1157 155.49 47.0977 155.49 47.0617V39.5665C155.49 39.5305 155.508 39.5125 155.544 39.5125H156.462C156.498 39.5125 156.516 39.5305 156.516 39.5665ZM163.192 46.2517V47.0617C163.192 47.0977 163.174 47.1157 163.138 47.1157H162.933C162.321 47.1157 161.939 46.9321 161.788 46.5649C161.767 46.5073 161.734 46.5001 161.691 46.5433C161.237 46.9969 160.615 47.2237 159.823 47.2237C159.16 47.2237 158.642 47.0689 158.267 46.7593C157.9 46.4425 157.717 46.0213 157.717 45.4957C157.717 45.0133 157.922 44.6209 158.332 44.3185C158.743 44.0089 159.311 43.8541 160.039 43.8541H161.194C161.302 43.8541 161.389 43.8181 161.453 43.7461C161.518 43.6669 161.551 43.5841 161.551 43.4977C161.551 43.3537 161.54 43.2349 161.518 43.1413C161.497 43.0477 161.446 42.9433 161.367 42.8281C161.288 42.7057 161.151 42.6157 160.957 42.5581C160.762 42.4933 160.514 42.4609 160.211 42.4609C159.772 42.4609 159.445 42.5509 159.229 42.7309C159.02 42.9109 158.915 43.1485 158.915 43.4437C158.915 43.4797 158.897 43.4977 158.861 43.4977H157.943C157.907 43.4977 157.889 43.4797 157.889 43.4437C157.889 42.8389 158.113 42.3709 158.559 42.0397C159.005 41.7085 159.556 41.5429 160.211 41.5429C160.967 41.5429 161.551 41.7085 161.961 42.0397C162.371 42.3637 162.577 42.8497 162.577 43.4977V45.8413C162.577 45.9277 162.609 46.0105 162.674 46.0897C162.739 46.1617 162.825 46.1977 162.933 46.1977H163.138C163.174 46.1977 163.192 46.2157 163.192 46.2517ZM161.551 44.8693V44.7181C161.551 44.6821 161.533 44.6641 161.497 44.6641H160.039C159.592 44.6641 159.265 44.7469 159.056 44.9125C158.847 45.0781 158.743 45.2725 158.743 45.4957C158.743 45.7045 158.84 45.8917 159.034 46.0573C159.229 46.2229 159.491 46.3057 159.823 46.3057C160.42 46.3057 160.856 46.1653 161.129 45.8845C161.41 45.5965 161.551 45.2581 161.551 44.8693ZM165.11 47.1157H164.3C164.264 47.1157 164.246 47.0977 164.246 47.0617V39.5665C164.246 39.5305 164.264 39.5125 164.3 39.5125H165.218C165.254 39.5125 165.272 39.5305 165.272 39.5665V42.1369C165.272 42.1585 165.283 42.1765 165.305 42.1909C165.326 42.1981 165.352 42.1873 165.38 42.1585C165.481 42.0433 165.679 41.9137 165.974 41.7697C166.277 41.6185 166.594 41.5429 166.925 41.5429C167.71 41.5429 168.332 41.8057 168.793 42.3313C169.261 42.8497 169.495 43.5337 169.495 44.3833C169.495 45.2329 169.261 45.9205 168.793 46.4461C168.332 46.9645 167.71 47.2237 166.925 47.2237C166.666 47.2237 166.381 47.1589 166.072 47.0293C165.762 46.8997 165.532 46.7593 165.38 46.6081C165.33 46.5577 165.294 46.5649 165.272 46.6297L165.164 47.0617C165.15 47.0977 165.132 47.1157 165.11 47.1157ZM168.026 45.7765C168.322 45.4165 168.469 44.9521 168.469 44.3833C168.469 43.8145 168.322 43.3537 168.026 43.0009C167.731 42.6409 167.328 42.4609 166.817 42.4609C166.334 42.4609 165.956 42.6373 165.683 42.9901C165.409 43.3429 165.272 43.8073 165.272 44.3833C165.272 44.9593 165.409 45.4237 165.683 45.7765C165.956 46.1293 166.334 46.3057 166.817 46.3057C167.328 46.3057 167.731 46.1293 168.026 45.7765ZM174.902 43.4977H173.974C173.938 43.4977 173.92 43.4797 173.92 43.4437C173.92 43.1413 173.801 42.9037 173.563 42.7309C173.333 42.5509 173.002 42.4609 172.57 42.4609C172.188 42.4609 171.896 42.5293 171.695 42.6661C171.5 42.8029 171.403 42.9649 171.403 43.1521C171.403 43.2385 171.414 43.3141 171.436 43.3789C171.464 43.4437 171.508 43.5013 171.565 43.5517C171.63 43.5949 171.688 43.6309 171.738 43.6597C171.796 43.6885 171.875 43.7173 171.976 43.7461C172.084 43.7677 172.163 43.7821 172.213 43.7893C172.271 43.7965 172.361 43.8073 172.483 43.8217C172.606 43.8361 172.685 43.8469 172.721 43.8541C173.47 43.9621 173.97 44.0665 174.222 44.1673C174.805 44.4121 175.097 44.8513 175.097 45.4849C175.097 46.0753 174.881 46.5145 174.449 46.8025C174.017 47.0833 173.441 47.2237 172.721 47.2237C171.936 47.2237 171.331 47.0437 170.906 46.6837C170.489 46.3237 170.28 45.8701 170.28 45.3229C170.28 45.2869 170.298 45.2689 170.334 45.2689H171.241C171.284 45.2689 171.306 45.2869 171.306 45.3229C171.306 45.6037 171.436 45.8377 171.695 46.0249C171.954 46.2121 172.296 46.3057 172.721 46.3057C173.621 46.3057 174.071 46.0321 174.071 45.4849C174.071 45.4201 174.06 45.3589 174.038 45.3013C174.024 45.2437 173.995 45.1933 173.952 45.1501C173.909 45.1069 173.866 45.0709 173.822 45.0421C173.786 45.0061 173.729 44.9773 173.65 44.9557C173.578 44.9269 173.52 44.9053 173.477 44.8909C173.434 44.8765 173.365 44.8621 173.272 44.8477C173.178 44.8333 173.113 44.8225 173.077 44.8153C173.041 44.8081 172.976 44.8009 172.883 44.7937C172.789 44.7793 172.735 44.7721 172.721 44.7721C172.49 44.7433 172.307 44.7217 172.17 44.7073C172.04 44.6857 171.868 44.6497 171.652 44.5993C171.443 44.5489 171.274 44.4877 171.144 44.4157C171.022 44.3437 170.892 44.2537 170.755 44.1457C170.626 44.0305 170.528 43.8901 170.464 43.7245C170.406 43.5589 170.377 43.3681 170.377 43.1521C170.377 42.6985 170.579 42.3169 170.982 42.0073C171.385 41.6977 171.914 41.5429 172.57 41.5429C173.268 41.5429 173.837 41.7085 174.276 42.0397C174.722 42.3637 174.946 42.8317 174.946 43.4437C174.946 43.4797 174.931 43.4977 174.902 43.4977Z" fill="black"/>
</g>
<g filter="url(#filter1_ddd_6026_3517)">
<rect x="192.93" y="31.6318" width="103.144" height="22.968" rx="11.484" fill="white" fill-opacity="0.8"/>
<rect x="192.669" y="31.3708" width="103.666" height="23.49" rx="11.745" stroke="black" stroke-opacity="0.1" stroke-width="0.522"/>
<path d="M199.938 40.3192C199.938 39.0836 200.939 38.082 202.175 38.082C203.41 38.082 204.412 39.0836 204.412 40.3192C204.412 41.5547 203.41 42.5563 202.175 42.5563C200.939 42.5563 199.938 41.5547 199.938 40.3192Z" fill="#FC5F2B"/>
<path d="M205.251 40.5988C205.251 39.5177 206.127 38.6413 207.208 38.6413C208.289 38.6413 209.166 39.5177 209.166 40.5988C209.166 41.6799 208.289 42.5563 207.208 42.5563C206.127 42.5563 205.251 41.6799 205.251 40.5988Z" fill="#FC5F2B"/>
<path d="M202.175 43.1156C200.394 43.1156 199.209 44.2584 198.644 45.8236C198.422 46.4395 198.585 47.0371 198.954 47.4654C199.316 47.8866 199.878 48.1492 200.484 48.1492H203.865C204.472 48.1492 205.033 47.8866 205.396 47.4654C205.765 47.0371 205.928 46.4395 205.705 45.8236C205.14 44.2584 203.956 43.1156 202.175 43.1156Z" fill="#FC5F2B"/>
<path d="M206.643 47.5899C206.95 46.9657 207.035 46.2107 206.758 45.4436C206.502 44.7349 206.125 44.0701 205.627 43.5171C206.077 43.261 206.605 43.1156 207.208 43.1156C208.698 43.1156 209.727 44.0017 210.264 45.2522C210.527 45.8639 210.375 46.469 210.008 46.9015C209.649 47.3248 209.084 47.5899 208.477 47.5899H206.643Z" fill="#FC5F2B"/>
<path d="M218.53 46.0465L220.453 39.5665C220.474 39.5305 220.499 39.5125 220.528 39.5125H222.278C222.314 39.5125 222.332 39.5305 222.332 39.5665V47.0617C222.332 47.0977 222.314 47.1157 222.278 47.1157H221.36C221.324 47.1157 221.306 47.0977 221.306 47.0617V40.5925C221.306 40.5565 221.288 40.5385 221.252 40.5385C221.223 40.5385 221.205 40.5529 221.198 40.5817L219.297 47.0617C219.283 47.0977 219.254 47.1157 219.211 47.1157H217.742C217.699 47.1157 217.67 47.0977 217.655 47.0617L215.755 40.5817C215.74 40.5529 215.719 40.5385 215.69 40.5385C215.661 40.5385 215.647 40.5565 215.647 40.5925V47.0617C215.647 47.0977 215.629 47.1157 215.593 47.1157H214.675C214.639 47.1157 214.621 47.0977 214.621 47.0617V39.5665C214.621 39.5305 214.639 39.5125 214.675 39.5125H216.424C216.453 39.5125 216.478 39.5305 216.5 39.5665L218.422 46.0465C218.429 46.0753 218.447 46.0897 218.476 46.0897C218.505 46.0897 218.523 46.0753 218.53 46.0465ZM228.739 44.7505H224.732C224.696 44.7505 224.678 44.7685 224.678 44.8045C224.678 45.2149 224.819 45.5677 225.099 45.8629C225.38 46.1581 225.751 46.3057 226.212 46.3057C226.86 46.3057 227.317 46.0537 227.583 45.5497C227.598 45.5137 227.623 45.4957 227.659 45.4957H228.62C228.663 45.4957 228.681 45.5137 228.674 45.5497C228.537 46.0753 228.246 46.4857 227.799 46.7809C227.36 47.0761 226.831 47.2237 226.212 47.2237C225.413 47.2237 224.775 46.9645 224.3 46.4461C223.825 45.9205 223.587 45.2329 223.587 44.3833C223.587 43.5193 223.818 42.8317 224.279 42.3205C224.747 41.8021 225.391 41.5429 226.212 41.5429C227.04 41.5429 227.684 41.8021 228.145 42.3205C228.613 42.8389 228.847 43.5265 228.847 44.3833C228.847 44.4985 228.836 44.5993 228.815 44.6857C228.8 44.7289 228.775 44.7505 228.739 44.7505ZM227.724 43.8865C227.724 43.5265 227.594 43.1989 227.335 42.9037C227.076 42.6085 226.701 42.4609 226.212 42.4609C225.737 42.4609 225.362 42.6229 225.089 42.9469C224.815 43.2637 224.678 43.5769 224.678 43.8865C224.678 43.9225 224.696 43.9405 224.732 43.9405H227.67C227.706 43.9405 227.724 43.9225 227.724 43.8865ZM234.858 47.1157H234.048C234.027 47.1157 234.009 47.0977 233.994 47.0617L233.886 46.6297C233.865 46.5649 233.829 46.5577 233.778 46.6081C233.627 46.7593 233.397 46.8997 233.087 47.0293C232.778 47.1589 232.493 47.2237 232.234 47.2237C231.449 47.2237 230.823 46.9645 230.355 46.4461C229.894 45.9205 229.664 45.2329 229.664 44.3833C229.664 43.5337 229.894 42.8497 230.355 42.3313C230.823 41.8057 231.449 41.5429 232.234 41.5429C232.565 41.5429 232.878 41.6185 233.174 41.7697C233.476 41.9137 233.678 42.0433 233.778 42.1585C233.807 42.1873 233.832 42.1981 233.854 42.1909C233.876 42.1765 233.886 42.1585 233.886 42.1369V39.5665C233.886 39.5305 233.904 39.5125 233.94 39.5125H234.858C234.894 39.5125 234.912 39.5305 234.912 39.5665V47.0617C234.912 47.0977 234.894 47.1157 234.858 47.1157ZM231.132 43.0009C230.837 43.3537 230.69 43.8145 230.69 44.3833C230.69 44.9521 230.837 45.4165 231.132 45.7765C231.428 46.1293 231.831 46.3057 232.342 46.3057C232.824 46.3057 233.202 46.1293 233.476 45.7765C233.75 45.4237 233.886 44.9593 233.886 44.3833C233.886 43.8073 233.75 43.3429 233.476 42.9901C233.202 42.6373 232.824 42.4609 232.342 42.4609C231.831 42.4609 231.428 42.6409 231.132 43.0009ZM237.588 41.7049V47.0617C237.588 47.0977 237.57 47.1157 237.534 47.1157H236.616C236.58 47.1157 236.562 47.0977 236.562 47.0617V41.7049C236.562 41.6689 236.58 41.6509 236.616 41.6509H237.534C237.57 41.6509 237.588 41.6689 237.588 41.7049ZM237.609 40.7113H236.529C236.493 40.7113 236.475 40.6933 236.475 40.6573V39.5665C236.475 39.5305 236.493 39.5125 236.529 39.5125H237.609C237.645 39.5125 237.663 39.5305 237.663 39.5665V40.6573C237.663 40.6933 237.645 40.7113 237.609 40.7113ZM244.015 43.4977H243.054C243.025 43.4977 243.004 43.4797 242.989 43.4437C242.745 42.7885 242.248 42.4609 241.499 42.4609C240.995 42.4609 240.595 42.6409 240.3 43.0009C240.005 43.3537 239.857 43.8145 239.857 44.3833C239.857 44.9521 240.005 45.4165 240.3 45.7765C240.595 46.1293 240.995 46.3057 241.499 46.3057C242.248 46.3057 242.745 45.9781 242.989 45.3229C243.004 45.2869 243.025 45.2689 243.054 45.2689H244.015C244.059 45.2689 244.077 45.2869 244.069 45.3229C243.918 45.9277 243.619 46.3957 243.173 46.7269C242.734 47.0581 242.176 47.2237 241.499 47.2237C240.664 47.2237 240.009 46.9645 239.533 46.4461C239.065 45.9277 238.831 45.2401 238.831 44.3833C238.831 43.5193 239.065 42.8317 239.533 42.3205C240.009 41.8021 240.664 41.5429 241.499 41.5429C242.176 41.5429 242.737 41.7121 243.184 42.0505C243.63 42.3817 243.925 42.8461 244.069 43.4437C244.077 43.4797 244.059 43.4977 244.015 43.4977ZM250.298 46.2517V47.0617C250.298 47.0977 250.28 47.1157 250.244 47.1157H250.039C249.427 47.1157 249.045 46.9321 248.894 46.5649C248.872 46.5073 248.84 46.5001 248.797 46.5433C248.343 46.9969 247.72 47.2237 246.928 47.2237C246.266 47.2237 245.747 47.0689 245.373 46.7593C245.006 46.4425 244.822 46.0213 244.822 45.4957C244.822 45.0133 245.027 44.6209 245.438 44.3185C245.848 44.0089 246.417 43.8541 247.144 43.8541H248.3C248.408 43.8541 248.494 43.8181 248.559 43.7461C248.624 43.6669 248.656 43.5841 248.656 43.4977C248.656 43.3537 248.645 43.2349 248.624 43.1413C248.602 43.0477 248.552 42.9433 248.473 42.8281C248.393 42.7057 248.257 42.6157 248.062 42.5581C247.868 42.4933 247.619 42.4609 247.317 42.4609C246.878 42.4609 246.55 42.5509 246.334 42.7309C246.125 42.9109 246.021 43.1485 246.021 43.4437C246.021 43.4797 246.003 43.4977 245.967 43.4977H245.049C245.013 43.4977 244.995 43.4797 244.995 43.4437C244.995 42.8389 245.218 42.3709 245.665 42.0397C246.111 41.7085 246.662 41.5429 247.317 41.5429C248.073 41.5429 248.656 41.7085 249.067 42.0397C249.477 42.3637 249.682 42.8497 249.682 43.4977V45.8413C249.682 45.9277 249.715 46.0105 249.779 46.0897C249.844 46.1617 249.931 46.1977 250.039 46.1977H250.244C250.28 46.1977 250.298 46.2157 250.298 46.2517ZM248.656 44.8693V44.7181C248.656 44.6821 248.638 44.6641 248.602 44.6641H247.144C246.698 44.6641 246.37 44.7469 246.161 44.9125C245.953 45.0781 245.848 45.2725 245.848 45.4957C245.848 45.7045 245.945 45.8917 246.14 46.0573C246.334 46.2229 246.597 46.3057 246.928 46.3057C247.526 46.3057 247.961 46.1653 248.235 45.8845C248.516 45.5965 248.656 45.2581 248.656 44.8693ZM252.378 39.5665V47.0617C252.378 47.0977 252.36 47.1157 252.324 47.1157H251.406C251.37 47.1157 251.352 47.0977 251.352 47.0617V39.5665C251.352 39.5305 251.37 39.5125 251.406 39.5125H252.324C252.36 39.5125 252.378 39.5305 252.378 39.5665ZM256.302 39.5125H257.22C257.256 39.5125 257.274 39.5305 257.274 39.5665V42.1801C257.274 42.2089 257.289 42.2269 257.318 42.2341C257.346 42.2413 257.372 42.2305 257.393 42.2017C257.739 41.7625 258.21 41.5429 258.808 41.5429C259.6 41.5429 260.19 41.7805 260.579 42.2557C260.968 42.7237 261.162 43.3357 261.162 44.0917V47.0617C261.162 47.0977 261.144 47.1157 261.108 47.1157H260.19C260.154 47.1157 260.136 47.0977 260.136 47.0617V44.0917C260.136 43.6309 260.021 43.2457 259.791 42.9361C259.56 42.6193 259.197 42.4609 258.7 42.4609C258.268 42.4609 257.922 42.6229 257.663 42.9469C257.404 43.2637 257.274 43.6453 257.274 44.0917V47.0617C257.274 47.0977 257.256 47.1157 257.22 47.1157H256.302C256.266 47.1157 256.248 47.0977 256.248 47.0617V39.5665C256.248 39.5305 256.266 39.5125 256.302 39.5125ZM263.751 41.7049V47.0617C263.751 47.0977 263.733 47.1157 263.697 47.1157H262.779C262.743 47.1157 262.725 47.0977 262.725 47.0617V41.7049C262.725 41.6689 262.743 41.6509 262.779 41.6509H263.697C263.733 41.6509 263.751 41.6689 263.751 41.7049ZM263.773 40.7113H262.693C262.657 40.7113 262.639 40.6933 262.639 40.6573V39.5665C262.639 39.5305 262.657 39.5125 262.693 39.5125H263.773C263.809 39.5125 263.827 39.5305 263.827 39.5665V40.6573C263.827 40.6933 263.809 40.7113 263.773 40.7113ZM269.553 43.4977H268.624C268.588 43.4977 268.57 43.4797 268.57 43.4437C268.57 43.1413 268.451 42.9037 268.214 42.7309C267.983 42.5509 267.652 42.4609 267.22 42.4609C266.838 42.4609 266.547 42.5293 266.345 42.6661C266.151 42.8029 266.054 42.9649 266.054 43.1521C266.054 43.2385 266.064 43.3141 266.086 43.3789C266.115 43.4437 266.158 43.5013 266.216 43.5517C266.28 43.5949 266.338 43.6309 266.388 43.6597C266.446 43.6885 266.525 43.7173 266.626 43.7461C266.734 43.7677 266.813 43.7821 266.864 43.7893C266.921 43.7965 267.011 43.8073 267.134 43.8217C267.256 43.8361 267.335 43.8469 267.371 43.8541C268.12 43.9621 268.62 44.0665 268.872 44.1673C269.456 44.4121 269.747 44.8513 269.747 45.4849C269.747 46.0753 269.531 46.5145 269.099 46.8025C268.667 47.0833 268.091 47.2237 267.371 47.2237C266.586 47.2237 265.982 47.0437 265.557 46.6837C265.139 46.3237 264.93 45.8701 264.93 45.3229C264.93 45.2869 264.948 45.2689 264.984 45.2689H265.892C265.935 45.2689 265.956 45.2869 265.956 45.3229C265.956 45.6037 266.086 45.8377 266.345 46.0249C266.604 46.2121 266.946 46.3057 267.371 46.3057C268.271 46.3057 268.721 46.0321 268.721 45.4849C268.721 45.4201 268.71 45.3589 268.689 45.3013C268.674 45.2437 268.646 45.1933 268.602 45.1501C268.559 45.1069 268.516 45.0709 268.473 45.0421C268.437 45.0061 268.379 44.9773 268.3 44.9557C268.228 44.9269 268.17 44.9053 268.127 44.8909C268.084 44.8765 268.016 44.8621 267.922 44.8477C267.828 44.8333 267.764 44.8225 267.728 44.8153C267.692 44.8081 267.627 44.8009 267.533 44.7937C267.44 44.7793 267.386 44.7721 267.371 44.7721C267.141 44.7433 266.957 44.7217 266.82 44.7073C266.691 44.6857 266.518 44.6497 266.302 44.5993C266.093 44.5489 265.924 44.4877 265.794 44.4157C265.672 44.3437 265.542 44.2537 265.406 44.1457C265.276 44.0305 265.179 43.8901 265.114 43.7245C265.056 43.5589 265.028 43.3681 265.028 43.1521C265.028 42.6985 265.229 42.3169 265.632 42.0073C266.036 41.6977 266.565 41.5429 267.22 41.5429C267.918 41.5429 268.487 41.7085 268.926 42.0397C269.373 42.3637 269.596 42.8317 269.596 43.4437C269.596 43.4797 269.582 43.4977 269.553 43.4977ZM273.533 46.2517V47.0617C273.533 47.0977 273.515 47.1157 273.479 47.1157H272.648C271.704 47.1157 271.233 46.6909 271.233 45.8413V42.5149C271.233 42.4789 271.215 42.4609 271.179 42.4609H270.218C270.182 42.4609 270.164 42.4429 270.164 42.4069V41.7049C270.164 41.6689 270.182 41.6509 270.218 41.6509H271.179C271.215 41.6509 271.233 41.6329 271.233 41.5969V40.1389C271.233 40.1029 271.251 40.0849 271.287 40.0849H272.205C272.241 40.0849 272.259 40.1029 272.259 40.1389V41.5969C272.259 41.6329 272.277 41.6509 272.313 41.6509H273.479C273.515 41.6509 273.533 41.6689 273.533 41.7049V42.4069C273.533 42.4429 273.515 42.4609 273.479 42.4609H272.313C272.277 42.4609 272.259 42.4789 272.259 42.5149V45.6577C272.259 46.0177 272.453 46.1977 272.842 46.1977H273.479C273.515 46.1977 273.533 46.2157 273.533 46.2517ZM278.838 42.3205C279.321 42.8389 279.562 43.5265 279.562 44.3833C279.562 45.2401 279.321 45.9277 278.838 46.4461C278.363 46.9645 277.712 47.2237 276.884 47.2237C276.048 47.2237 275.393 46.9645 274.918 46.4461C274.443 45.9277 274.205 45.2401 274.205 44.3833C274.205 43.5265 274.443 42.8389 274.918 42.3205C275.393 41.8021 276.048 41.5429 276.884 41.5429C277.712 41.5429 278.363 41.8021 278.838 42.3205ZM278.093 45.7765C278.388 45.4165 278.536 44.9521 278.536 44.3833C278.536 43.8145 278.388 43.3537 278.093 43.0009C277.798 42.6409 277.395 42.4609 276.884 42.4609C276.38 42.4609 275.976 42.6409 275.674 43.0009C275.379 43.3537 275.231 43.8145 275.231 44.3833C275.231 44.9521 275.379 45.4165 275.674 45.7765C275.976 46.1293 276.38 46.3057 276.884 46.3057C277.395 46.3057 277.798 46.1293 278.093 45.7765ZM283.81 42.4609H283.259C282.827 42.4609 282.482 42.6229 282.223 42.9469C281.963 43.2637 281.834 43.6453 281.834 44.0917V47.0617C281.834 47.0977 281.816 47.1157 281.78 47.1157H280.862C280.826 47.1157 280.808 47.0977 280.808 47.0617V41.7049C280.808 41.6689 280.826 41.6509 280.862 41.6509H281.672C281.693 41.6509 281.711 41.6689 281.726 41.7049L281.834 42.1909C281.855 42.2557 281.895 42.2593 281.953 42.2017C282.392 41.7625 282.827 41.5429 283.259 41.5429H283.81C283.846 41.5429 283.864 41.5609 283.864 41.5969V42.4069C283.864 42.4429 283.846 42.4609 283.81 42.4609ZM284.133 49.2001V48.3901C284.133 48.3541 284.151 48.3361 284.187 48.3361H285.407C285.717 48.3361 285.926 48.2461 286.034 48.0661C286.142 47.8861 286.145 47.6485 286.044 47.3533L284.122 41.7049C284.115 41.6689 284.136 41.6509 284.187 41.6509H285.17C285.191 41.6509 285.209 41.6689 285.224 41.7049L286.638 46.0465C286.653 46.0825 286.671 46.1005 286.692 46.1005C286.714 46.1005 286.732 46.0825 286.746 46.0465L288.172 41.7049C288.186 41.6689 288.204 41.6509 288.226 41.6509H289.209C289.259 41.6509 289.277 41.6689 289.263 41.7049L287.103 48.0553C286.944 48.5017 286.757 48.8113 286.541 48.9841C286.332 49.1641 286.016 49.2541 285.591 49.2541H284.187C284.151 49.2541 284.133 49.2361 284.133 49.2001Z" fill="#71717A"/>
</g>
<g filter="url(#filter2_ddd_6026_3517)">
<rect x="306.873" y="31.6318" width="80.144" height="22.968" rx="11.484" fill="white" fill-opacity="0.8"/>
<rect x="306.612" y="31.3708" width="80.666" height="23.49" rx="11.745" stroke="black" stroke-opacity="0.1" stroke-width="0.522"/>
<g clip-path="url(#clip0_6026_3517)">
<path fill-rule="evenodd" clip-rule="evenodd" d="M315.593 37.6326L315.208 38.7873C314.431 39.0944 313.881 39.8523 313.881 40.7386V45.4925C313.881 46.3788 314.431 47.1367 315.208 47.4438L315.593 48.5984C315.726 48.9981 316.1 49.2677 316.521 49.2677H320.189C320.61 49.2677 320.984 48.9981 321.118 48.5984L321.503 47.4438C322.28 47.1367 322.829 46.3788 322.829 45.4925V40.7386C322.829 39.8523 322.28 39.0944 321.503 38.7873L321.118 37.6326C320.984 37.233 320.61 36.9634 320.189 36.9634H316.521C316.1 36.9634 315.726 37.233 315.593 37.6326ZM316.521 37.8023C316.461 37.8023 316.408 37.8408 316.388 37.8979L316.141 38.6412H320.57L320.322 37.8979C320.303 37.8408 320.249 37.8023 320.189 37.8023H316.521ZM320.57 47.5898H316.141L316.388 48.3331C316.408 48.3902 316.461 48.4287 316.521 48.4287H320.189C320.249 48.4287 320.303 48.3902 320.322 48.3331L320.57 47.5898ZM318.775 41.2978C318.775 41.0662 318.587 40.8784 318.355 40.8784C318.123 40.8784 317.936 41.0662 317.936 41.2978V43.1155C317.936 43.2268 317.98 43.3335 318.059 43.4121L318.897 44.2511C319.061 44.4149 319.327 44.4149 319.491 44.2511C319.654 44.0872 319.654 43.8217 319.491 43.6578L318.775 42.9418V41.2978Z" fill="#FC5F2B"/>
</g>
<path opacity="0.5" d="M333.467 39.5665L334.806 46.0357C334.814 46.0645 334.832 46.0789 334.86 46.0789C334.889 46.0789 334.907 46.0645 334.914 46.0357L336.102 39.5665C336.117 39.5305 336.135 39.5125 336.156 39.5125H337.139C337.19 39.5125 337.211 39.5305 337.204 39.5665L335.714 47.0617C335.699 47.0977 335.678 47.1157 335.649 47.1157H334.007C333.986 47.1157 333.968 47.0977 333.953 47.0617L332.56 40.6033C332.553 40.5745 332.535 40.5601 332.506 40.5601C332.477 40.5601 332.459 40.5745 332.452 40.6033L331.059 47.0617C331.044 47.0977 331.026 47.1157 331.005 47.1157H329.363C329.334 47.1157 329.313 47.0977 329.298 47.0617L327.808 39.5665C327.801 39.5305 327.822 39.5125 327.873 39.5125H328.856C328.877 39.5125 328.895 39.5305 328.91 39.5665L330.098 46.0357C330.105 46.0645 330.123 46.0789 330.152 46.0789C330.18 46.0789 330.198 46.0645 330.206 46.0357L331.545 39.5665C331.559 39.5305 331.577 39.5125 331.599 39.5125H333.413C333.435 39.5125 333.453 39.5305 333.467 39.5665ZM342.756 44.7505H338.749C338.713 44.7505 338.695 44.7685 338.695 44.8045C338.695 45.2149 338.836 45.5677 339.117 45.8629C339.397 46.1581 339.768 46.3057 340.229 46.3057C340.877 46.3057 341.334 46.0537 341.601 45.5497C341.615 45.5137 341.64 45.4957 341.676 45.4957H342.637C342.681 45.4957 342.699 45.5137 342.691 45.5497C342.555 46.0753 342.263 46.4857 341.817 46.7809C341.377 47.0761 340.848 47.2237 340.229 47.2237C339.43 47.2237 338.793 46.9645 338.317 46.4461C337.842 45.9205 337.605 45.2329 337.605 44.3833C337.605 43.5193 337.835 42.8317 338.296 42.3205C338.764 41.8021 339.408 41.5429 340.229 41.5429C341.057 41.5429 341.701 41.8021 342.162 42.3205C342.63 42.8389 342.864 43.5265 342.864 44.3833C342.864 44.4985 342.853 44.5993 342.832 44.6857C342.817 44.7289 342.792 44.7505 342.756 44.7505ZM341.741 43.8865C341.741 43.5265 341.611 43.1989 341.352 42.9037C341.093 42.6085 340.719 42.4609 340.229 42.4609C339.754 42.4609 339.379 42.6229 339.106 42.9469C338.832 43.2637 338.695 43.5769 338.695 43.8865C338.695 43.9225 338.713 43.9405 338.749 43.9405H341.687C341.723 43.9405 341.741 43.9225 341.741 43.8865ZM349.113 46.2517V47.0617C349.113 47.0977 349.095 47.1157 349.059 47.1157H348.854C348.242 47.1157 347.86 46.9321 347.709 46.5649C347.688 46.5073 347.655 46.5001 347.612 46.5433C347.158 46.9969 346.536 47.2237 345.744 47.2237C345.081 47.2237 344.563 47.0689 344.188 46.7593C343.821 46.4425 343.638 46.0213 343.638 45.4957C343.638 45.0133 343.843 44.6209 344.253 44.3185C344.664 44.0089 345.232 43.8541 345.96 43.8541H347.115C347.223 43.8541 347.31 43.8181 347.374 43.7461C347.439 43.6669 347.472 43.5841 347.472 43.4977C347.472 43.3537 347.461 43.2349 347.439 43.1413C347.418 43.0477 347.367 42.9433 347.288 42.8281C347.209 42.7057 347.072 42.6157 346.878 42.5581C346.683 42.4933 346.435 42.4609 346.132 42.4609C345.693 42.4609 345.366 42.5509 345.15 42.7309C344.941 42.9109 344.836 43.1485 344.836 43.4437C344.836 43.4797 344.818 43.4977 344.782 43.4977H343.864C343.828 43.4977 343.81 43.4797 343.81 43.4437C343.81 42.8389 344.034 42.3709 344.48 42.0397C344.926 41.7085 345.477 41.5429 346.132 41.5429C346.888 41.5429 347.472 41.7085 347.882 42.0397C348.292 42.3637 348.498 42.8497 348.498 43.4977V45.8413C348.498 45.9277 348.53 46.0105 348.595 46.0897C348.66 46.1617 348.746 46.1977 348.854 46.1977H349.059C349.095 46.1977 349.113 46.2157 349.113 46.2517ZM347.472 44.8693V44.7181C347.472 44.6821 347.454 44.6641 347.418 44.6641H345.96C345.513 44.6641 345.186 44.7469 344.977 44.9125C344.768 45.0781 344.664 45.2725 344.664 45.4957C344.664 45.7045 344.761 45.8917 344.955 46.0573C345.15 46.2229 345.412 46.3057 345.744 46.3057C346.341 46.3057 346.777 46.1653 347.05 45.8845C347.331 45.5965 347.472 45.2581 347.472 44.8693ZM353.17 42.4609H352.619C352.187 42.4609 351.841 42.6229 351.582 42.9469C351.323 43.2637 351.193 43.6453 351.193 44.0917V47.0617C351.193 47.0977 351.175 47.1157 351.139 47.1157H350.221C350.185 47.1157 350.167 47.0977 350.167 47.0617V41.7049C350.167 41.6689 350.185 41.6509 350.221 41.6509H351.031C351.053 41.6509 351.071 41.6689 351.085 41.7049L351.193 42.1909C351.215 42.2557 351.255 42.2593 351.312 42.2017C351.751 41.7625 352.187 41.5429 352.619 41.5429H353.17C353.206 41.5429 353.224 41.5609 353.224 41.5969V42.4069C353.224 42.4429 353.206 42.4609 353.17 42.4609ZM359.093 46.2517V47.0617C359.093 47.0977 359.075 47.1157 359.039 47.1157H358.834C358.222 47.1157 357.84 46.9321 357.689 46.5649C357.667 46.5073 357.635 46.5001 357.592 46.5433C357.138 46.9969 356.515 47.2237 355.723 47.2237C355.061 47.2237 354.543 47.0689 354.168 46.7593C353.801 46.4425 353.617 46.0213 353.617 45.4957C353.617 45.0133 353.823 44.6209 354.233 44.3185C354.643 44.0089 355.212 43.8541 355.939 43.8541H357.095C357.203 43.8541 357.289 43.8181 357.354 43.7461C357.419 43.6669 357.451 43.5841 357.451 43.4977C357.451 43.3537 357.441 43.2349 357.419 43.1413C357.397 43.0477 357.347 42.9433 357.268 42.8281C357.189 42.7057 357.052 42.6157 356.857 42.5581C356.663 42.4933 356.415 42.4609 356.112 42.4609C355.673 42.4609 355.345 42.5509 355.129 42.7309C354.921 42.9109 354.816 43.1485 354.816 43.4437C354.816 43.4797 354.798 43.4977 354.762 43.4977H353.844C353.808 43.4977 353.79 43.4797 353.79 43.4437C353.79 42.8389 354.013 42.3709 354.46 42.0397C354.906 41.7085 355.457 41.5429 356.112 41.5429C356.868 41.5429 357.451 41.7085 357.862 42.0397C358.272 42.3637 358.477 42.8497 358.477 43.4977V45.8413C358.477 45.9277 358.51 46.0105 358.575 46.0897C358.639 46.1617 358.726 46.1977 358.834 46.1977H359.039C359.075 46.1977 359.093 46.2157 359.093 46.2517ZM357.451 44.8693V44.7181C357.451 44.6821 357.433 44.6641 357.397 44.6641H355.939C355.493 44.6641 355.165 44.7469 354.957 44.9125C354.748 45.0781 354.643 45.2725 354.643 45.4957C354.643 45.7045 354.741 45.8917 354.935 46.0573C355.129 46.2229 355.392 46.3057 355.723 46.3057C356.321 46.3057 356.757 46.1653 357.03 45.8845C357.311 45.5965 357.451 45.2581 357.451 44.8693ZM361.011 47.1157H360.201C360.165 47.1157 360.147 47.0977 360.147 47.0617V39.5665C360.147 39.5305 360.165 39.5125 360.201 39.5125H361.119C361.155 39.5125 361.173 39.5305 361.173 39.5665V42.1369C361.173 42.1585 361.184 42.1765 361.206 42.1909C361.227 42.1981 361.253 42.1873 361.281 42.1585C361.382 42.0433 361.58 41.9137 361.875 41.7697C362.178 41.6185 362.495 41.5429 362.826 41.5429C363.611 41.5429 364.233 41.8057 364.694 42.3313C365.162 42.8497 365.396 43.5337 365.396 44.3833C365.396 45.2329 365.162 45.9205 364.694 46.4461C364.233 46.9645 363.611 47.2237 362.826 47.2237C362.567 47.2237 362.282 47.1589 361.973 47.0293C361.663 46.8997 361.433 46.7593 361.281 46.6081C361.231 46.5577 361.195 46.5649 361.173 46.6297L361.065 47.0617C361.051 47.0977 361.033 47.1157 361.011 47.1157ZM363.927 45.7765C364.223 45.4165 364.37 44.9521 364.37 44.3833C364.37 43.8145 364.223 43.3537 363.927 43.0009C363.632 42.6409 363.229 42.4609 362.718 42.4609C362.235 42.4609 361.857 42.6373 361.584 42.9901C361.31 43.3429 361.173 43.8073 361.173 44.3833C361.173 44.9593 361.31 45.4237 361.584 45.7765C361.857 46.1293 362.235 46.3057 362.718 46.3057C363.229 46.3057 363.632 46.1293 363.927 45.7765ZM367.661 39.5665V47.0617C367.661 47.0977 367.643 47.1157 367.607 47.1157H366.689C366.653 47.1157 366.635 47.0977 366.635 47.0617V39.5665C366.635 39.5305 366.653 39.5125 366.689 39.5125H367.607C367.643 39.5125 367.661 39.5305 367.661 39.5665ZM374.056 44.7505H370.049C370.013 44.7505 369.995 44.7685 369.995 44.8045C369.995 45.2149 370.136 45.5677 370.417 45.8629C370.697 46.1581 371.068 46.3057 371.529 46.3057C372.177 46.3057 372.634 46.0537 372.901 45.5497C372.915 45.5137 372.94 45.4957 372.976 45.4957H373.937C373.981 45.4957 373.999 45.5137 373.991 45.5497C373.855 46.0753 373.563 46.4857 373.117 46.7809C372.677 47.0761 372.148 47.2237 371.529 47.2237C370.73 47.2237 370.093 46.9645 369.617 46.4461C369.142 45.9205 368.905 45.2329 368.905 44.3833C368.905 43.5193 369.135 42.8317 369.596 42.3205C370.064 41.8021 370.708 41.5429 371.529 41.5429C372.357 41.5429 373.001 41.8021 373.462 42.3205C373.93 42.8389 374.164 43.5265 374.164 44.3833C374.164 44.4985 374.153 44.5993 374.132 44.6857C374.117 44.7289 374.092 44.7505 374.056 44.7505ZM373.041 43.8865C373.041 43.5265 372.911 43.1989 372.652 42.9037C372.393 42.6085 372.019 42.4609 371.529 42.4609C371.054 42.4609 370.679 42.6229 370.406 42.9469C370.132 43.2637 369.995 43.5769 369.995 43.8865C369.995 43.9225 370.013 43.9405 370.049 43.9405H372.987C373.023 43.9405 373.041 43.9225 373.041 43.8865ZM379.56 43.4977H378.631C378.595 43.4977 378.577 43.4797 378.577 43.4437C378.577 43.1413 378.458 42.9037 378.22 42.7309C377.99 42.5509 377.659 42.4609 377.227 42.4609C376.845 42.4609 376.554 42.5293 376.352 42.6661C376.158 42.8029 376.06 42.9649 376.06 43.1521C376.06 43.2385 376.071 43.3141 376.093 43.3789C376.122 43.4437 376.165 43.5013 376.222 43.5517C376.287 43.5949 376.345 43.6309 376.395 43.6597C376.453 43.6885 376.532 43.7173 376.633 43.7461C376.741 43.7677 376.82 43.7821 376.87 43.7893C376.928 43.7965 377.018 43.8073 377.14 43.8217C377.263 43.8361 377.342 43.8469 377.378 43.8541C378.127 43.9621 378.627 44.0665 378.879 44.1673C379.462 44.4121 379.754 44.8513 379.754 45.4849C379.754 46.0753 379.538 46.5145 379.106 46.8025C378.674 47.0833 378.098 47.2237 377.378 47.2237C376.593 47.2237 375.988 47.0437 375.564 46.6837C375.146 46.3237 374.937 45.8701 374.937 45.3229C374.937 45.2869 374.955 45.2689 374.991 45.2689H375.898C375.942 45.2689 375.963 45.2869 375.963 45.3229C375.963 45.6037 376.093 45.8377 376.352 46.0249C376.611 46.2121 376.953 46.3057 377.378 46.3057C378.278 46.3057 378.728 46.0321 378.728 45.4849C378.728 45.4201 378.717 45.3589 378.696 45.3013C378.681 45.2437 378.652 45.1933 378.609 45.1501C378.566 45.1069 378.523 45.0709 378.48 45.0421C378.444 45.0061 378.386 44.9773 378.307 44.9557C378.235 44.9269 378.177 44.9053 378.134 44.8909C378.091 44.8765 378.022 44.8621 377.929 44.8477C377.835 44.8333 377.77 44.8225 377.734 44.8153C377.698 44.8081 377.634 44.8009 377.54 44.7937C377.446 44.7793 377.392 44.7721 377.378 44.7721C377.148 44.7433 376.964 44.7217 376.827 44.7073C376.698 44.6857 376.525 44.6497 376.309 44.5993C376.1 44.5489 375.931 44.4877 375.801 44.4157C375.679 44.3437 375.549 44.2537 375.412 44.1457C375.283 44.0305 375.186 43.8901 375.121 43.7245C375.063 43.5589 375.034 43.3681 375.034 43.1521C375.034 42.6985 375.236 42.3169 375.639 42.0073C376.042 41.6977 376.572 41.5429 377.227 41.5429C377.925 41.5429 378.494 41.7085 378.933 42.0397C379.38 42.3637 379.603 42.8317 379.603 43.4437C379.603 43.4797 379.588 43.4977 379.56 43.4977Z" fill="black"/>
</g>
<g filter="url(#filter3_ddd_6026_3517)">
<rect x="129.457" y="65.3999" width="127.144" height="22.968" rx="11.484" fill="white" fill-opacity="0.8"/>
<rect x="129.196" y="65.1389" width="127.666" height="23.49" rx="11.745" stroke="black" stroke-opacity="0.1" stroke-width="0.522"/>
<path d="M144.628 71.3965C144.502 70.9872 143.981 70.8655 143.687 71.1767L142.353 72.5867C141.985 72.9762 141.779 73.4919 141.779 74.028V75.4515L140.644 76.5871C140.48 76.7509 140.48 77.0165 140.644 77.1803C140.808 77.3441 141.073 77.3441 141.237 77.1803L142.373 76.0447H143.796C144.332 76.0447 144.848 75.8394 145.237 75.471L146.647 74.1372C146.959 73.8429 146.837 73.3223 146.428 73.1964L145.051 72.7729L144.628 71.3965Z" fill="#FC5F2B"/>
<path d="M136.187 76.8838C136.187 74.2583 138.315 72.1299 140.941 72.1299C141.027 72.1299 141.113 72.1322 141.198 72.1367C141.429 72.149 141.627 71.9715 141.639 71.7401C141.651 71.5088 141.474 71.3113 141.242 71.299C141.142 71.2936 141.042 71.2909 140.941 71.2909C137.852 71.2909 135.348 73.7949 135.348 76.8838C135.348 79.9726 137.852 82.4767 140.941 82.4767C144.029 82.4767 146.533 79.9726 146.533 76.8838C146.533 76.7825 146.531 76.6819 146.525 76.5818C146.513 76.3505 146.316 76.173 146.084 76.1853C145.853 76.1976 145.675 76.3951 145.688 76.6265C145.692 76.7116 145.694 76.7974 145.694 76.8838C145.694 79.5093 143.566 81.6377 140.941 81.6377C138.315 81.6377 136.187 79.5093 136.187 76.8838Z" fill="#FC5F2B"/>
<path d="M140.462 74.3987C140.689 74.3543 140.837 74.1341 140.793 73.9067C140.749 73.6793 140.528 73.5309 140.301 73.5752C138.753 73.877 137.585 75.2396 137.585 76.876C137.585 78.7333 139.09 80.239 140.948 80.239C142.584 80.239 143.947 79.0707 144.249 77.5229C144.293 77.2955 144.144 77.0752 143.917 77.0309C143.69 76.9866 143.469 77.135 143.425 77.3623C143.199 78.5236 142.175 79.4001 140.948 79.4001C139.554 79.4001 138.424 78.27 138.424 76.876C138.424 75.6487 139.3 74.6251 140.462 74.3987Z" fill="#FC5F2B"/>
<path d="M157.498 76.6718V80.8298C157.498 80.8658 157.48 80.8838 157.444 80.8838H156.656C156.613 80.8838 156.587 80.8622 156.58 80.819L156.472 80.063C156.472 80.0414 156.458 80.027 156.429 80.0198C156.407 80.0126 156.389 80.0198 156.375 80.0414C156.195 80.2862 155.893 80.5058 155.468 80.7002C155.05 80.8946 154.607 80.9918 154.139 80.9918C152.995 80.9918 152.138 80.6426 151.569 79.9442C151.007 79.2386 150.727 78.2846 150.727 77.0822C150.727 75.9158 151.029 74.9726 151.634 74.2526C152.246 73.5326 153.081 73.1726 154.139 73.1726C155.032 73.1726 155.723 73.3814 156.213 73.799C156.71 74.2094 157.048 74.7314 157.228 75.365C157.235 75.401 157.217 75.419 157.174 75.419H156.17C156.134 75.419 156.112 75.401 156.105 75.365C155.947 74.9474 155.695 74.6306 155.349 74.4146C155.003 74.1986 154.6 74.0906 154.139 74.0906C153.391 74.0906 152.815 74.3534 152.411 74.879C152.008 75.4046 151.807 76.139 151.807 77.0822C151.807 78.0254 152.008 78.7598 152.411 79.2854C152.815 79.811 153.391 80.0738 154.139 80.0738C154.91 80.0738 155.489 79.8758 155.878 79.4798C156.274 79.0766 156.472 78.4466 156.472 77.5898C156.472 77.5538 156.454 77.5358 156.418 77.5358H154.193C154.157 77.5358 154.139 77.5178 154.139 77.4818V76.6718C154.139 76.6358 154.157 76.6178 154.193 76.6178H157.444C157.48 76.6178 157.498 76.6358 157.498 76.6718ZM163.324 76.0886C163.806 76.607 164.048 77.2946 164.048 78.1514C164.048 79.0082 163.806 79.6958 163.324 80.2142C162.849 80.7326 162.197 80.9918 161.369 80.9918C160.534 80.9918 159.879 80.7326 159.404 80.2142C158.928 79.6958 158.691 79.0082 158.691 78.1514C158.691 77.2946 158.928 76.607 159.404 76.0886C159.879 75.5702 160.534 75.311 161.369 75.311C162.197 75.311 162.849 75.5702 163.324 76.0886ZM162.579 79.5446C162.874 79.1846 163.022 78.7202 163.022 78.1514C163.022 77.5826 162.874 77.1218 162.579 76.769C162.284 76.409 161.88 76.229 161.369 76.229C160.865 76.229 160.462 76.409 160.16 76.769C159.864 77.1218 159.717 77.5826 159.717 78.1514C159.717 78.7202 159.864 79.1846 160.16 79.5446C160.462 79.8974 160.865 80.0738 161.369 80.0738C161.88 80.0738 162.284 79.8974 162.579 79.5446ZM170.316 80.0198V80.8298C170.316 80.8658 170.298 80.8838 170.262 80.8838H170.056C169.444 80.8838 169.063 80.7002 168.912 80.333C168.89 80.2754 168.858 80.2682 168.814 80.3114C168.361 80.765 167.738 80.9918 166.946 80.9918C166.284 80.9918 165.765 80.837 165.391 80.5274C165.024 80.2106 164.84 79.7894 164.84 79.2638C164.84 78.7814 165.045 78.389 165.456 78.0866C165.866 77.777 166.435 77.6222 167.162 77.6222H168.318C168.426 77.6222 168.512 77.5862 168.577 77.5142C168.642 77.435 168.674 77.3522 168.674 77.2658C168.674 77.1218 168.663 77.003 168.642 76.9094C168.62 76.8158 168.57 76.7114 168.49 76.5962C168.411 76.4738 168.274 76.3838 168.08 76.3262C167.886 76.2614 167.637 76.229 167.335 76.229C166.896 76.229 166.568 76.319 166.352 76.499C166.143 76.679 166.039 76.9166 166.039 77.2118C166.039 77.2478 166.021 77.2658 165.985 77.2658H165.067C165.031 77.2658 165.013 77.2478 165.013 77.2118C165.013 76.607 165.236 76.139 165.682 75.8078C166.129 75.4766 166.68 75.311 167.335 75.311C168.091 75.311 168.674 75.4766 169.084 75.8078C169.495 76.1318 169.7 76.6178 169.7 77.2658V79.6094C169.7 79.6958 169.732 79.7786 169.797 79.8578C169.862 79.9298 169.948 79.9658 170.056 79.9658H170.262C170.298 79.9658 170.316 79.9838 170.316 80.0198ZM168.674 78.6374V78.4862C168.674 78.4502 168.656 78.4322 168.62 78.4322H167.162C166.716 78.4322 166.388 78.515 166.179 78.6806C165.97 78.8462 165.866 79.0406 165.866 79.2638C165.866 79.4726 165.963 79.6598 166.158 79.8254C166.352 79.991 166.615 80.0738 166.946 80.0738C167.544 80.0738 167.979 79.9334 168.253 79.6526C168.534 79.3646 168.674 79.0262 168.674 78.6374ZM172.396 73.3346V80.8298C172.396 80.8658 172.378 80.8838 172.342 80.8838H171.424C171.388 80.8838 171.37 80.8658 171.37 80.8298V73.3346C171.37 73.2986 171.388 73.2806 171.424 73.2806H172.342C172.378 73.2806 172.396 73.2986 172.396 73.3346ZM178.197 77.2658H177.268C177.232 77.2658 177.214 77.2478 177.214 77.2118C177.214 76.9094 177.096 76.6718 176.858 76.499C176.628 76.319 176.296 76.229 175.864 76.229C175.483 76.229 175.191 76.2974 174.99 76.4342C174.795 76.571 174.698 76.733 174.698 76.9202C174.698 77.0066 174.709 77.0822 174.73 77.147C174.759 77.2118 174.802 77.2694 174.86 77.3198C174.925 77.363 174.982 77.399 175.033 77.4278C175.09 77.4566 175.17 77.4854 175.27 77.5142C175.378 77.5358 175.458 77.5502 175.508 77.5574C175.566 77.5646 175.656 77.5754 175.778 77.5898C175.9 77.6042 175.98 77.615 176.016 77.6222C176.764 77.7302 177.265 77.8346 177.517 77.9354C178.1 78.1802 178.392 78.6194 178.392 79.253C178.392 79.8434 178.176 80.2826 177.744 80.5706C177.312 80.8514 176.736 80.9918 176.016 80.9918C175.231 80.9918 174.626 80.8118 174.201 80.4518C173.784 80.0918 173.575 79.6382 173.575 79.091C173.575 79.055 173.593 79.037 173.629 79.037H174.536C174.579 79.037 174.601 79.055 174.601 79.091C174.601 79.3718 174.73 79.6058 174.99 79.793C175.249 79.9802 175.591 80.0738 176.016 80.0738C176.916 80.0738 177.366 79.8002 177.366 79.253C177.366 79.1882 177.355 79.127 177.333 79.0694C177.319 79.0118 177.29 78.9614 177.247 78.9182C177.204 78.875 177.16 78.839 177.117 78.8102C177.081 78.7742 177.024 78.7454 176.944 78.7238C176.872 78.695 176.815 78.6734 176.772 78.659C176.728 78.6446 176.66 78.6302 176.566 78.6158C176.473 78.6014 176.408 78.5906 176.372 78.5834C176.336 78.5762 176.271 78.569 176.178 78.5618C176.084 78.5474 176.03 78.5402 176.016 78.5402C175.785 78.5114 175.602 78.4898 175.465 78.4754C175.335 78.4538 175.162 78.4178 174.946 78.3674C174.738 78.317 174.568 78.2558 174.439 78.1838C174.316 78.1118 174.187 78.0218 174.05 77.9138C173.92 77.7986 173.823 77.6582 173.758 77.4926C173.701 77.327 173.672 77.1362 173.672 76.9202C173.672 76.4666 173.874 76.085 174.277 75.7754C174.68 75.4658 175.209 75.311 175.864 75.311C176.563 75.311 177.132 75.4766 177.571 75.8078C178.017 76.1318 178.24 76.5998 178.24 77.2118C178.24 77.2478 178.226 77.2658 178.197 77.2658ZM184.244 80.0738C184.77 80.0738 185.241 79.9082 185.659 79.577C185.688 79.541 185.688 79.5086 185.659 79.4798L183.564 77.201C183.542 77.1794 183.513 77.1758 183.477 77.1902C182.872 77.4998 182.57 77.9318 182.57 78.4862C182.57 78.9398 182.725 79.3178 183.034 79.6202C183.351 79.9226 183.754 80.0738 184.244 80.0738ZM184.136 74.0906C183.834 74.0906 183.578 74.1698 183.369 74.3282C183.168 74.4866 183.067 74.6774 183.067 74.9006C183.067 75.2246 183.308 75.6134 183.79 76.067C183.812 76.0886 183.841 76.0922 183.877 76.0778C184.748 75.8186 185.184 75.4262 185.184 74.9006C185.184 74.6774 185.079 74.4866 184.87 74.3282C184.669 74.1698 184.424 74.0906 184.136 74.0906ZM187.668 80.8838C187.236 80.8838 186.822 80.6858 186.426 80.2898C186.404 80.2682 186.379 80.2682 186.35 80.2898C185.731 80.7578 185.029 80.9918 184.244 80.9918C183.38 80.9918 182.714 80.7578 182.246 80.2898C181.778 79.8146 181.544 79.2494 181.544 78.5942C181.544 77.7158 181.969 77.0318 182.818 76.5422C182.883 76.5062 182.89 76.463 182.84 76.4126C182.552 76.1102 182.354 75.851 182.246 75.635C182.145 75.419 182.095 75.1742 182.095 74.9006C182.095 74.4182 182.282 74.0114 182.656 73.6802C183.031 73.3418 183.524 73.1726 184.136 73.1726C184.719 73.1726 185.202 73.3454 185.583 73.691C185.965 74.0366 186.156 74.4398 186.156 74.9006C186.156 75.7286 185.601 76.3298 184.492 76.7042C184.442 76.7186 184.435 76.751 184.471 76.8014L186.177 78.6482C186.213 78.6842 186.238 78.6698 186.253 78.605C186.303 78.4538 186.328 78.299 186.328 78.1406V77.201C186.328 77.165 186.346 77.147 186.382 77.147H187.3C187.336 77.147 187.354 77.165 187.354 77.201V78.1406C187.354 78.623 187.243 79.055 187.02 79.4366C186.991 79.4798 186.991 79.5086 187.02 79.523L187.192 79.6634C187.243 79.7066 187.275 79.7354 187.29 79.7498C187.304 79.757 187.329 79.775 187.365 79.8038C187.401 79.8254 187.43 79.8398 187.452 79.847C187.473 79.847 187.502 79.8506 187.538 79.8578C187.574 79.8578 187.617 79.8578 187.668 79.8578C187.704 79.8578 187.722 79.8758 187.722 79.9118V80.8298C187.722 80.8658 187.704 80.8838 187.668 80.8838ZM191.258 75.419H192.068C192.09 75.419 192.108 75.437 192.122 75.473L192.23 75.9158C192.245 75.9446 192.263 75.959 192.284 75.959C192.306 75.959 192.324 75.9482 192.338 75.9266C192.482 75.7682 192.709 75.6278 193.019 75.5054C193.328 75.3758 193.616 75.311 193.883 75.311C194.667 75.311 195.29 75.5738 195.751 76.0994C196.219 76.6178 196.453 77.3018 196.453 78.1514C196.453 79.001 196.219 79.6886 195.751 80.2142C195.29 80.7326 194.667 80.9918 193.883 80.9918C193.551 80.9918 193.235 80.9198 192.932 80.7758C192.637 80.6246 192.439 80.4914 192.338 80.3762C192.309 80.3474 192.284 80.3402 192.263 80.3546C192.241 80.3618 192.23 80.3762 192.23 80.3978V82.9682C192.23 83.0042 192.212 83.0222 192.176 83.0222H191.258C191.222 83.0222 191.204 83.0042 191.204 82.9682V75.473C191.204 75.437 191.222 75.419 191.258 75.419ZM194.984 79.5446C195.279 79.1846 195.427 78.7202 195.427 78.1514C195.427 77.5826 195.279 77.1218 194.984 76.769C194.689 76.409 194.286 76.229 193.775 76.229C193.292 76.229 192.914 76.4054 192.641 76.7582C192.367 77.111 192.23 77.5754 192.23 78.1514C192.23 78.7274 192.367 79.1918 192.641 79.5446C192.914 79.8974 193.292 80.0738 193.775 80.0738C194.286 80.0738 194.689 79.8974 194.984 79.5446ZM200.694 76.229H200.143C199.711 76.229 199.366 76.391 199.107 76.715C198.847 77.0318 198.718 77.4134 198.718 77.8598V80.8298C198.718 80.8658 198.7 80.8838 198.664 80.8838H197.746C197.71 80.8838 197.692 80.8658 197.692 80.8298V75.473C197.692 75.437 197.71 75.419 197.746 75.419H198.556C198.577 75.419 198.595 75.437 198.61 75.473L198.718 75.959C198.739 76.0238 198.779 76.0274 198.837 75.9698C199.276 75.5306 199.711 75.311 200.143 75.311H200.694C200.73 75.311 200.748 75.329 200.748 75.365V76.175C200.748 76.211 200.73 76.229 200.694 76.229ZM206.284 78.5186H202.277C202.241 78.5186 202.223 78.5366 202.223 78.5726C202.223 78.983 202.364 79.3358 202.644 79.631C202.925 79.9262 203.296 80.0738 203.757 80.0738C204.405 80.0738 204.862 79.8218 205.128 79.3178C205.143 79.2818 205.168 79.2638 205.204 79.2638H206.165C206.208 79.2638 206.226 79.2818 206.219 79.3178C206.082 79.8434 205.791 80.2538 205.344 80.549C204.905 80.8442 204.376 80.9918 203.757 80.9918C202.958 80.9918 202.32 80.7326 201.845 80.2142C201.37 79.6886 201.132 79.001 201.132 78.1514C201.132 77.2874 201.363 76.5998 201.824 76.0886C202.292 75.5702 202.936 75.311 203.757 75.311C204.585 75.311 205.229 75.5702 205.69 76.0886C206.158 76.607 206.392 77.2946 206.392 78.1514C206.392 78.2666 206.381 78.3674 206.36 78.4538C206.345 78.497 206.32 78.5186 206.284 78.5186ZM205.269 77.6546C205.269 77.2946 205.139 76.967 204.88 76.6718C204.621 76.3766 204.246 76.229 203.757 76.229C203.282 76.229 202.907 76.391 202.634 76.715C202.36 77.0318 202.223 77.345 202.223 77.6546C202.223 77.6906 202.241 77.7086 202.277 77.7086H205.215C205.251 77.7086 205.269 77.6906 205.269 77.6546ZM210.169 73.3346V74.1446C210.169 74.1806 210.151 74.1986 210.115 74.1986H209.402C209.244 74.1986 209.118 74.249 209.024 74.3498C208.938 74.4434 208.895 74.573 208.895 74.7386V75.365C208.895 75.401 208.913 75.419 208.949 75.419H210.115C210.151 75.419 210.169 75.437 210.169 75.473V76.175C210.169 76.211 210.151 76.229 210.115 76.229H208.949C208.913 76.229 208.895 76.247 208.895 76.283V80.8298C208.895 80.8658 208.877 80.8838 208.841 80.8838H207.923C207.887 80.8838 207.869 80.8658 207.869 80.8298V76.283C207.869 76.247 207.851 76.229 207.815 76.229H206.853C206.817 76.229 206.799 76.211 206.799 76.175V75.473C206.799 75.437 206.817 75.419 206.853 75.419H207.815C207.851 75.419 207.869 75.401 207.869 75.365V74.555C207.869 73.6838 208.376 73.259 209.391 73.2806H210.115C210.151 73.2806 210.169 73.2986 210.169 73.3346ZM215.705 78.5186H211.698C211.662 78.5186 211.644 78.5366 211.644 78.5726C211.644 78.983 211.784 79.3358 212.065 79.631C212.346 79.9262 212.717 80.0738 213.178 80.0738C213.826 80.0738 214.283 79.8218 214.549 79.3178C214.564 79.2818 214.589 79.2638 214.625 79.2638H215.586C215.629 79.2638 215.647 79.2818 215.64 79.3178C215.503 79.8434 215.212 80.2538 214.765 80.549C214.326 80.8442 213.797 80.9918 213.178 80.9918C212.378 80.9918 211.741 80.7326 211.266 80.2142C210.791 79.6886 210.553 79.001 210.553 78.1514C210.553 77.2874 210.784 76.5998 211.244 76.0886C211.712 75.5702 212.357 75.311 213.178 75.311C214.006 75.311 214.65 75.5702 215.111 76.0886C215.579 76.607 215.813 77.2946 215.813 78.1514C215.813 78.2666 215.802 78.3674 215.78 78.4538C215.766 78.497 215.741 78.5186 215.705 78.5186ZM214.69 77.6546C214.69 77.2946 214.56 76.967 214.301 76.6718C214.042 76.3766 213.667 76.229 213.178 76.229C212.702 76.229 212.328 76.391 212.054 76.715C211.781 77.0318 211.644 77.345 211.644 77.6546C211.644 77.6906 211.662 77.7086 211.698 77.7086H214.636C214.672 77.7086 214.69 77.6906 214.69 77.6546ZM220.042 76.229H219.491C219.059 76.229 218.714 76.391 218.455 76.715C218.195 77.0318 218.066 77.4134 218.066 77.8598V80.8298C218.066 80.8658 218.048 80.8838 218.012 80.8838H217.094C217.058 80.8838 217.04 80.8658 217.04 80.8298V75.473C217.04 75.437 217.058 75.419 217.094 75.419H217.904C217.925 75.419 217.943 75.437 217.958 75.473L218.066 75.959C218.087 76.0238 218.127 76.0274 218.185 75.9698C218.624 75.5306 219.059 75.311 219.491 75.311H220.042C220.078 75.311 220.096 75.329 220.096 75.365V76.175C220.096 76.211 220.078 76.229 220.042 76.229ZM225.632 78.5186H221.625C221.589 78.5186 221.571 78.5366 221.571 78.5726C221.571 78.983 221.712 79.3358 221.992 79.631C222.273 79.9262 222.644 80.0738 223.105 80.0738C223.753 80.0738 224.21 79.8218 224.476 79.3178C224.491 79.2818 224.516 79.2638 224.552 79.2638H225.513C225.556 79.2638 225.574 79.2818 225.567 79.3178C225.43 79.8434 225.139 80.2538 224.692 80.549C224.253 80.8442 223.724 80.9918 223.105 80.9918C222.306 80.9918 221.668 80.7326 221.193 80.2142C220.718 79.6886 220.48 79.001 220.48 78.1514C220.48 77.2874 220.711 76.5998 221.172 76.0886C221.64 75.5702 222.284 75.311 223.105 75.311C223.933 75.311 224.577 75.5702 225.038 76.0886C225.506 76.607 225.74 77.2946 225.74 78.1514C225.74 78.2666 225.729 78.3674 225.708 78.4538C225.693 78.497 225.668 78.5186 225.632 78.5186ZM224.617 77.6546C224.617 77.2946 224.487 76.967 224.228 76.6718C223.969 76.3766 223.594 76.229 223.105 76.229C222.63 76.229 222.255 76.391 221.982 76.715C221.708 77.0318 221.571 77.345 221.571 77.6546C221.571 77.6906 221.589 77.7086 221.625 77.7086H224.563C224.599 77.7086 224.617 77.6906 224.617 77.6546ZM227.021 75.419H227.831C227.853 75.419 227.871 75.437 227.885 75.473L227.993 75.959C228 75.9878 228.018 76.0022 228.047 76.0022C228.076 76.0022 228.097 75.9914 228.112 75.9698C228.407 75.5306 228.879 75.311 229.527 75.311C230.275 75.311 230.855 75.5522 231.265 76.0346C231.676 76.5098 231.881 77.1182 231.881 77.8598V80.8298C231.881 80.8658 231.863 80.8838 231.827 80.8838H230.909C230.873 80.8838 230.855 80.8658 230.855 80.8298V77.8598C230.855 77.399 230.74 77.0138 230.509 76.7042C230.279 76.3874 229.915 76.229 229.419 76.229C228.987 76.229 228.641 76.391 228.382 76.715C228.123 77.0318 227.993 77.4134 227.993 77.8598V80.8298C227.993 80.8658 227.975 80.8838 227.939 80.8838H227.021C226.985 80.8838 226.967 80.8658 226.967 80.8298V75.473C226.967 75.437 226.985 75.419 227.021 75.419ZM238.218 77.2658H237.256C237.228 77.2658 237.206 77.2478 237.192 77.2118C236.947 76.5566 236.45 76.229 235.701 76.229C235.197 76.229 234.798 76.409 234.502 76.769C234.207 77.1218 234.06 77.5826 234.06 78.1514C234.06 78.7202 234.207 79.1846 234.502 79.5446C234.798 79.8974 235.197 80.0738 235.701 80.0738C236.45 80.0738 236.947 79.7462 237.192 79.091C237.206 79.055 237.228 79.037 237.256 79.037H238.218C238.261 79.037 238.279 79.055 238.272 79.091C238.12 79.6958 237.822 80.1638 237.375 80.495C236.936 80.8262 236.378 80.9918 235.701 80.9918C234.866 80.9918 234.211 80.7326 233.736 80.2142C233.268 79.6958 233.034 79.0082 233.034 78.1514C233.034 77.2874 233.268 76.5998 233.736 76.0886C234.211 75.5702 234.866 75.311 235.701 75.311C236.378 75.311 236.94 75.4802 237.386 75.8186C237.832 76.1498 238.128 76.6142 238.272 77.2118C238.279 77.2478 238.261 77.2658 238.218 77.2658ZM244.219 78.5186H240.213C240.177 78.5186 240.159 78.5366 240.159 78.5726C240.159 78.983 240.299 79.3358 240.58 79.631C240.861 79.9262 241.231 80.0738 241.692 80.0738C242.34 80.0738 242.797 79.8218 243.064 79.3178C243.078 79.2818 243.103 79.2638 243.139 79.2638H244.101C244.144 79.2638 244.162 79.2818 244.155 79.3178C244.018 79.8434 243.726 80.2538 243.28 80.549C242.841 80.8442 242.311 80.9918 241.692 80.9918C240.893 80.9918 240.256 80.7326 239.781 80.2142C239.305 79.6886 239.068 79.001 239.068 78.1514C239.068 77.2874 239.298 76.5998 239.759 76.0886C240.227 75.5702 240.871 75.311 241.692 75.311C242.52 75.311 243.165 75.5702 243.625 76.0886C244.093 76.607 244.327 77.2946 244.327 78.1514C244.327 78.2666 244.317 78.3674 244.295 78.4538C244.281 78.497 244.255 78.5186 244.219 78.5186ZM243.204 77.6546C243.204 77.2946 243.075 76.967 242.815 76.6718C242.556 76.3766 242.182 76.229 241.692 76.229C241.217 76.229 240.843 76.391 240.569 76.715C240.295 77.0318 240.159 77.345 240.159 77.6546C240.159 77.6906 240.177 77.7086 240.213 77.7086H243.15C243.186 77.7086 243.204 77.6906 243.204 77.6546ZM249.723 77.2658H248.794C248.758 77.2658 248.74 77.2478 248.74 77.2118C248.74 76.9094 248.621 76.6718 248.383 76.499C248.153 76.319 247.822 76.229 247.39 76.229C247.008 76.229 246.717 76.2974 246.515 76.4342C246.321 76.571 246.223 76.733 246.223 76.9202C246.223 77.0066 246.234 77.0822 246.256 77.147C246.285 77.2118 246.328 77.2694 246.385 77.3198C246.45 77.363 246.508 77.399 246.558 77.4278C246.616 77.4566 246.695 77.4854 246.796 77.5142C246.904 77.5358 246.983 77.5502 247.033 77.5574C247.091 77.5646 247.181 77.5754 247.303 77.5898C247.426 77.6042 247.505 77.615 247.541 77.6222C248.29 77.7302 248.79 77.8346 249.042 77.9354C249.625 78.1802 249.917 78.6194 249.917 79.253C249.917 79.8434 249.701 80.2826 249.269 80.5706C248.837 80.8514 248.261 80.9918 247.541 80.9918C246.756 80.9918 246.151 80.8118 245.727 80.4518C245.309 80.0918 245.1 79.6382 245.1 79.091C245.1 79.055 245.118 79.037 245.154 79.037H246.061C246.105 79.037 246.126 79.055 246.126 79.091C246.126 79.3718 246.256 79.6058 246.515 79.793C246.774 79.9802 247.116 80.0738 247.541 80.0738C248.441 80.0738 248.891 79.8002 248.891 79.253C248.891 79.1882 248.88 79.127 248.859 79.0694C248.844 79.0118 248.815 78.9614 248.772 78.9182C248.729 78.875 248.686 78.839 248.643 78.8102C248.607 78.7742 248.549 78.7454 248.47 78.7238C248.398 78.695 248.34 78.6734 248.297 78.659C248.254 78.6446 248.185 78.6302 248.092 78.6158C247.998 78.6014 247.933 78.5906 247.897 78.5834C247.861 78.5762 247.797 78.569 247.703 78.5618C247.609 78.5474 247.555 78.5402 247.541 78.5402C247.311 78.5114 247.127 78.4898 246.99 78.4754C246.861 78.4538 246.688 78.4178 246.472 78.3674C246.263 78.317 246.094 78.2558 245.964 78.1838C245.842 78.1118 245.712 78.0218 245.575 77.9138C245.446 77.7986 245.349 77.6582 245.284 77.4926C245.226 77.327 245.197 77.1362 245.197 76.9202C245.197 76.4666 245.399 76.085 245.802 75.7754C246.205 75.4658 246.735 75.311 247.39 75.311C248.088 75.311 248.657 75.4766 249.096 75.8078C249.543 76.1318 249.766 76.5998 249.766 77.2118C249.766 77.2478 249.751 77.2658 249.723 77.2658Z" fill="#71717A"/>
</g>
<g filter="url(#filter4_ddd_6026_3517)">
<rect x="267.4" y="65.3999" width="93.144" height="22.968" rx="11.484" fill="white" fill-opacity="0.8"/>
<rect x="267.139" y="65.1389" width="93.666" height="23.49" rx="11.745" stroke="black" stroke-opacity="0.1" stroke-width="0.522"/>
<path fill-rule="evenodd" clip-rule="evenodd" d="M276.506 71.291H278.882V74.2273C278.882 75.0767 279.571 75.7653 280.421 75.7653H283.357V80.3794C283.357 81.5377 282.418 82.4767 281.259 82.4767H276.506C275.347 82.4767 274.408 81.5377 274.408 80.3794V73.3883C274.408 72.23 275.347 71.291 276.506 71.291ZM277.344 79.5405C277.344 79.3088 277.157 79.121 276.925 79.121C276.693 79.121 276.506 79.3088 276.506 79.5405V80.3794C276.506 80.6111 276.693 80.7989 276.925 80.7989C277.157 80.7989 277.344 80.6111 277.344 80.3794V79.5405ZM278.882 77.4432C279.114 77.4432 279.302 77.631 279.302 77.8626V80.3794C279.302 80.6111 279.114 80.7989 278.882 80.7989C278.651 80.7989 278.463 80.6111 278.463 80.3794V77.8626C278.463 77.631 278.651 77.4432 278.882 77.4432ZM281.259 78.9812C281.259 78.7495 281.072 78.5617 280.84 78.5617C280.608 78.5617 280.421 78.7495 280.421 78.9812V80.3794C280.421 80.6111 280.608 80.7989 280.84 80.7989C281.072 80.7989 281.259 80.6111 281.259 80.3794V78.9812Z" fill="#FC5F2B"/>
<path d="M283.07 74.8854C283.083 74.8987 283.096 74.9124 283.109 74.9264H280.421C280.034 74.9264 279.721 74.6134 279.721 74.2273V71.539C279.735 71.5515 279.749 71.5644 279.762 71.5777L283.07 74.8854Z" fill="#FC5F2B"/>
<path d="M289.091 80.8298V73.3346C289.091 73.2986 289.109 73.2806 289.145 73.2806H290.063C290.099 73.2806 290.117 73.2986 290.117 73.3346V79.9118C290.117 79.9478 290.135 79.9658 290.171 79.9658H293.951C293.987 79.9658 294.005 79.9838 294.005 80.0198V80.8298C294.005 80.8658 293.987 80.8838 293.951 80.8838H289.145C289.109 80.8838 289.091 80.8658 289.091 80.8298ZM296.014 75.473V80.8298C296.014 80.8658 295.996 80.8838 295.96 80.8838H295.042C295.006 80.8838 294.988 80.8658 294.988 80.8298V75.473C294.988 75.437 295.006 75.419 295.042 75.419H295.96C295.996 75.419 296.014 75.437 296.014 75.473ZM296.036 74.4794H294.956C294.92 74.4794 294.902 74.4614 294.902 74.4254V73.3346C294.902 73.2986 294.92 73.2806 294.956 73.2806H296.036C296.072 73.2806 296.09 73.2986 296.09 73.3346V74.4254C296.09 74.4614 296.072 74.4794 296.036 74.4794ZM300.271 73.3346V74.1446C300.271 74.1806 300.253 74.1986 300.217 74.1986H299.504C299.346 74.1986 299.22 74.249 299.126 74.3498C299.04 74.4434 298.997 74.573 298.997 74.7386V75.365C298.997 75.401 299.015 75.419 299.051 75.419H300.217C300.253 75.419 300.271 75.437 300.271 75.473V76.175C300.271 76.211 300.253 76.229 300.217 76.229H299.051C299.015 76.229 298.997 76.247 298.997 76.283V80.8298C298.997 80.8658 298.979 80.8838 298.943 80.8838H298.025C297.989 80.8838 297.971 80.8658 297.971 80.8298V76.283C297.971 76.247 297.953 76.229 297.917 76.229H296.955C296.919 76.229 296.901 76.211 296.901 76.175V75.473C296.901 75.437 296.919 75.419 296.955 75.419H297.917C297.953 75.419 297.971 75.401 297.971 75.365V74.555C297.971 73.6838 298.478 73.259 299.493 73.2806H300.217C300.253 73.2806 300.271 73.2986 300.271 73.3346ZM305.807 78.5186H301.8C301.764 78.5186 301.746 78.5366 301.746 78.5726C301.746 78.983 301.886 79.3358 302.167 79.631C302.448 79.9262 302.819 80.0738 303.279 80.0738C303.927 80.0738 304.385 79.8218 304.651 79.3178C304.665 79.2818 304.691 79.2638 304.727 79.2638H305.688C305.731 79.2638 305.749 79.2818 305.742 79.3178C305.605 79.8434 305.313 80.2538 304.867 80.549C304.428 80.8442 303.899 80.9918 303.279 80.9918C302.48 80.9918 301.843 80.7326 301.368 80.2142C300.893 79.6886 300.655 79.001 300.655 78.1514C300.655 77.2874 300.885 76.5998 301.346 76.0886C301.814 75.5702 302.459 75.311 303.279 75.311C304.107 75.311 304.752 75.5702 305.213 76.0886C305.681 76.607 305.915 77.2946 305.915 78.1514C305.915 78.2666 305.904 78.3674 305.882 78.4538C305.868 78.497 305.843 78.5186 305.807 78.5186ZM304.791 77.6546C304.791 77.2946 304.662 76.967 304.403 76.6718C304.143 76.3766 303.769 76.229 303.279 76.229C302.804 76.229 302.43 76.391 302.156 76.715C301.883 77.0318 301.746 77.345 301.746 77.6546C301.746 77.6906 301.764 77.7086 301.8 77.7086H304.737C304.773 77.7086 304.791 77.6906 304.791 77.6546ZM311.31 77.2658H310.381C310.345 77.2658 310.327 77.2478 310.327 77.2118C310.327 76.9094 310.208 76.6718 309.971 76.499C309.74 76.319 309.409 76.229 308.977 76.229C308.596 76.229 308.304 76.2974 308.102 76.4342C307.908 76.571 307.811 76.733 307.811 76.9202C307.811 77.0066 307.822 77.0822 307.843 77.147C307.872 77.2118 307.915 77.2694 307.973 77.3198C308.038 77.363 308.095 77.399 308.146 77.4278C308.203 77.4566 308.282 77.4854 308.383 77.5142C308.491 77.5358 308.57 77.5502 308.621 77.5574C308.678 77.5646 308.768 77.5754 308.891 77.5898C309.013 77.6042 309.092 77.615 309.128 77.6222C309.877 77.7302 310.378 77.8346 310.63 77.9354C311.213 78.1802 311.504 78.6194 311.504 79.253C311.504 79.8434 311.288 80.2826 310.856 80.5706C310.424 80.8514 309.848 80.9918 309.128 80.9918C308.344 80.9918 307.739 80.8118 307.314 80.4518C306.896 80.0918 306.688 79.6382 306.688 79.091C306.688 79.055 306.706 79.037 306.742 79.037H307.649C307.692 79.037 307.714 79.055 307.714 79.091C307.714 79.3718 307.843 79.6058 308.102 79.793C308.362 79.9802 308.704 80.0738 309.128 80.0738C310.028 80.0738 310.478 79.8002 310.478 79.253C310.478 79.1882 310.468 79.127 310.446 79.0694C310.432 79.0118 310.403 78.9614 310.36 78.9182C310.316 78.875 310.273 78.839 310.23 78.8102C310.194 78.7742 310.136 78.7454 310.057 78.7238C309.985 78.695 309.928 78.6734 309.884 78.659C309.841 78.6446 309.773 78.6302 309.679 78.6158C309.586 78.6014 309.521 78.5906 309.485 78.5834C309.449 78.5762 309.384 78.569 309.29 78.5618C309.197 78.5474 309.143 78.5402 309.128 78.5402C308.898 78.5114 308.714 78.4898 308.578 78.4754C308.448 78.4538 308.275 78.4178 308.059 78.3674C307.85 78.317 307.681 78.2558 307.552 78.1838C307.429 78.1118 307.3 78.0218 307.163 77.9138C307.033 77.7986 306.936 77.6582 306.871 77.4926C306.814 77.327 306.785 77.1362 306.785 76.9202C306.785 76.4666 306.986 76.085 307.39 75.7754C307.793 75.4658 308.322 75.311 308.977 75.311C309.676 75.311 310.244 75.4766 310.684 75.8078C311.13 76.1318 311.353 76.5998 311.353 77.2118C311.353 77.2478 311.339 77.2658 311.31 77.2658ZM315.29 80.0198V80.8298C315.29 80.8658 315.272 80.8838 315.236 80.8838H314.405C313.462 80.8838 312.99 80.459 312.99 79.6094V76.283C312.99 76.247 312.972 76.229 312.936 76.229H311.975C311.939 76.229 311.921 76.211 311.921 76.175V75.473C311.921 75.437 311.939 75.419 311.975 75.419H312.936C312.972 75.419 312.99 75.401 312.99 75.365V73.907C312.99 73.871 313.008 73.853 313.044 73.853H313.962C313.998 73.853 314.016 73.871 314.016 73.907V75.365C314.016 75.401 314.034 75.419 314.07 75.419H315.236C315.272 75.419 315.29 75.437 315.29 75.473V76.175C315.29 76.211 315.272 76.229 315.236 76.229H314.07C314.034 76.229 314.016 76.247 314.016 76.283V79.4258C314.016 79.7858 314.21 79.9658 314.599 79.9658H315.236C315.272 79.9658 315.29 79.9838 315.29 80.0198ZM315.488 82.9682V82.1582C315.488 82.1222 315.506 82.1042 315.542 82.1042H316.763C317.072 82.1042 317.281 82.0142 317.389 81.8342C317.497 81.6542 317.501 81.4166 317.4 81.1214L315.477 75.473C315.47 75.437 315.492 75.419 315.542 75.419H316.525C316.547 75.419 316.565 75.437 316.579 75.473L317.994 79.8146C318.008 79.8506 318.026 79.8686 318.048 79.8686C318.069 79.8686 318.087 79.8506 318.102 79.8146L319.527 75.473C319.542 75.437 319.56 75.419 319.581 75.419H320.564C320.615 75.419 320.633 75.437 320.618 75.473L318.458 81.8234C318.3 82.2698 318.113 82.5794 317.897 82.7522C317.688 82.9322 317.371 83.0222 316.946 83.0222H315.542C315.506 83.0222 315.488 83.0042 315.488 82.9682ZM322.484 73.3346V80.8298C322.484 80.8658 322.466 80.8838 322.43 80.8838H321.512C321.476 80.8838 321.458 80.8658 321.458 80.8298V73.3346C321.458 73.2986 321.476 73.2806 321.512 73.2806H322.43C322.466 73.2806 322.484 73.2986 322.484 73.3346ZM328.879 78.5186H324.872C324.836 78.5186 324.818 78.5366 324.818 78.5726C324.818 78.983 324.959 79.3358 325.239 79.631C325.52 79.9262 325.891 80.0738 326.352 80.0738C327 80.0738 327.457 79.8218 327.723 79.3178C327.738 79.2818 327.763 79.2638 327.799 79.2638H328.76C328.803 79.2638 328.821 79.2818 328.814 79.3178C328.677 79.8434 328.386 80.2538 327.939 80.549C327.5 80.8442 326.971 80.9918 326.352 80.9918C325.553 80.9918 324.915 80.7326 324.44 80.2142C323.965 79.6886 323.727 79.001 323.727 78.1514C323.727 77.2874 323.958 76.5998 324.419 76.0886C324.887 75.5702 325.531 75.311 326.352 75.311C327.18 75.311 327.824 75.5702 328.285 76.0886C328.753 76.607 328.987 77.2946 328.987 78.1514C328.987 78.2666 328.976 78.3674 328.955 78.4538C328.94 78.497 328.915 78.5186 328.879 78.5186ZM327.864 77.6546C327.864 77.2946 327.734 76.967 327.475 76.6718C327.216 76.3766 326.841 76.229 326.352 76.229C325.877 76.229 325.502 76.391 325.229 76.715C324.955 77.0318 324.818 77.345 324.818 77.6546C324.818 77.6906 324.836 77.7086 324.872 77.7086H327.81C327.846 77.7086 327.864 77.6906 327.864 77.6546ZM337.215 80.8838H336.405C336.383 80.8838 336.365 80.8658 336.351 80.8298L336.243 80.3978C336.221 80.333 336.185 80.3258 336.135 80.3762C335.983 80.5274 335.753 80.6678 335.443 80.7974C335.134 80.927 334.849 80.9918 334.59 80.9918C333.805 80.9918 333.179 80.7326 332.711 80.2142C332.25 79.6886 332.02 79.001 332.02 78.1514C332.02 77.3018 332.25 76.6178 332.711 76.0994C333.179 75.5738 333.805 75.311 334.59 75.311C334.921 75.311 335.235 75.3866 335.53 75.5378C335.832 75.6818 336.034 75.8114 336.135 75.9266C336.163 75.9554 336.189 75.9662 336.21 75.959C336.232 75.9446 336.243 75.9266 336.243 75.905V73.3346C336.243 73.2986 336.261 73.2806 336.297 73.2806H337.215C337.251 73.2806 337.269 73.2986 337.269 73.3346V80.8298C337.269 80.8658 337.251 80.8838 337.215 80.8838ZM333.489 76.769C333.193 77.1218 333.046 77.5826 333.046 78.1514C333.046 78.7202 333.193 79.1846 333.489 79.5446C333.784 79.8974 334.187 80.0738 334.698 80.0738C335.181 80.0738 335.559 79.8974 335.832 79.5446C336.106 79.1918 336.243 78.7274 336.243 78.1514C336.243 77.5754 336.106 77.111 335.832 76.7582C335.559 76.4054 335.181 76.229 334.698 76.229C334.187 76.229 333.784 76.409 333.489 76.769ZM343.94 80.0198V80.8298C343.94 80.8658 343.922 80.8838 343.886 80.8838H343.681C343.069 80.8838 342.687 80.7002 342.536 80.333C342.514 80.2754 342.482 80.2682 342.439 80.3114C341.985 80.765 341.362 80.9918 340.57 80.9918C339.908 80.9918 339.389 80.837 339.015 80.5274C338.648 80.2106 338.464 79.7894 338.464 79.2638C338.464 78.7814 338.669 78.389 339.08 78.0866C339.49 77.777 340.059 77.6222 340.786 77.6222H341.942C342.05 77.6222 342.136 77.5862 342.201 77.5142C342.266 77.435 342.298 77.3522 342.298 77.2658C342.298 77.1218 342.287 77.003 342.266 76.9094C342.244 76.8158 342.194 76.7114 342.115 76.5962C342.035 76.4738 341.899 76.3838 341.704 76.3262C341.51 76.2614 341.261 76.229 340.959 76.229C340.52 76.229 340.192 76.319 339.976 76.499C339.767 76.679 339.663 76.9166 339.663 77.2118C339.663 77.2478 339.645 77.2658 339.609 77.2658H338.691C338.655 77.2658 338.637 77.2478 338.637 77.2118C338.637 76.607 338.86 76.139 339.307 75.8078C339.753 75.4766 340.304 75.311 340.959 75.311C341.715 75.311 342.298 75.4766 342.709 75.8078C343.119 76.1318 343.324 76.6178 343.324 77.2658V79.6094C343.324 79.6958 343.357 79.7786 343.421 79.8578C343.486 79.9298 343.573 79.9658 343.681 79.9658H343.886C343.922 79.9658 343.94 79.9838 343.94 80.0198ZM342.298 78.6374V78.4862C342.298 78.4502 342.28 78.4322 342.244 78.4322H340.786C340.34 78.4322 340.012 78.515 339.803 78.6806C339.595 78.8462 339.49 79.0406 339.49 79.2638C339.49 79.4726 339.587 79.6598 339.782 79.8254C339.976 79.991 340.239 80.0738 340.57 80.0738C341.168 80.0738 341.603 79.9334 341.877 79.6526C342.158 79.3646 342.298 79.0262 342.298 78.6374ZM347.541 80.0198V80.8298C347.541 80.8658 347.523 80.8838 347.487 80.8838H346.655C345.712 80.8838 345.241 80.459 345.241 79.6094V76.283C345.241 76.247 345.223 76.229 345.187 76.229H344.225C344.189 76.229 344.171 76.211 344.171 76.175V75.473C344.171 75.437 344.189 75.419 344.225 75.419H345.187C345.223 75.419 345.241 75.401 345.241 75.365V73.907C345.241 73.871 345.259 73.853 345.295 73.853H346.213C346.249 73.853 346.267 73.871 346.267 73.907V75.365C346.267 75.401 346.285 75.419 346.321 75.419H347.487C347.523 75.419 347.541 75.437 347.541 75.473V76.175C347.541 76.211 347.523 76.229 347.487 76.229H346.321C346.285 76.229 346.267 76.247 346.267 76.283V79.4258C346.267 79.7858 346.461 79.9658 346.85 79.9658H347.487C347.523 79.9658 347.541 79.9838 347.541 80.0198ZM353.761 80.0198V80.8298C353.761 80.8658 353.743 80.8838 353.707 80.8838H353.502C352.89 80.8838 352.509 80.7002 352.357 80.333C352.336 80.2754 352.303 80.2682 352.26 80.3114C351.807 80.765 351.184 80.9918 350.392 80.9918C349.729 80.9918 349.211 80.837 348.837 80.5274C348.469 80.2106 348.286 79.7894 348.286 79.2638C348.286 78.7814 348.491 78.389 348.901 78.0866C349.312 77.777 349.881 77.6222 350.608 77.6222H351.763C351.871 77.6222 351.958 77.5862 352.023 77.5142C352.087 77.435 352.12 77.3522 352.12 77.2658C352.12 77.1218 352.109 77.003 352.087 76.9094C352.066 76.8158 352.015 76.7114 351.936 76.5962C351.857 76.4738 351.72 76.3838 351.526 76.3262C351.331 76.2614 351.083 76.229 350.781 76.229C350.341 76.229 350.014 76.319 349.798 76.499C349.589 76.679 349.485 76.9166 349.485 77.2118C349.485 77.2478 349.467 77.2658 349.431 77.2658H348.513C348.477 77.2658 348.459 77.2478 348.459 77.2118C348.459 76.607 348.682 76.139 349.128 75.8078C349.575 75.4766 350.125 75.311 350.781 75.311C351.537 75.311 352.12 75.4766 352.53 75.8078C352.941 76.1318 353.146 76.6178 353.146 77.2658V79.6094C353.146 79.6958 353.178 79.7786 353.243 79.8578C353.308 79.9298 353.394 79.9658 353.502 79.9658H353.707C353.743 79.9658 353.761 79.9838 353.761 80.0198ZM352.12 78.6374V78.4862C352.12 78.4502 352.102 78.4322 352.066 78.4322H350.608C350.161 78.4322 349.834 78.515 349.625 78.6806C349.416 78.8462 349.312 79.0406 349.312 79.2638C349.312 79.4726 349.409 79.6598 349.603 79.8254C349.798 79.991 350.061 80.0738 350.392 80.0738C350.989 80.0738 351.425 79.9334 351.699 79.6526C351.979 79.3646 352.12 79.0262 352.12 78.6374Z" fill="#71717A"/>
</g>
<defs>
<filter id="filter0_ddd_6026_3517" x="100.375" y="29.0219" width="108.897" height="51.6782" filterUnits="userSpaceOnUse" color-interpolation-filters="sRGB">
<feFlood flood-opacity="0" result="BackgroundImageFix"/>
<feColorMatrix in="SourceAlpha" type="matrix" values="0 0 0 0 0 0 0 0 0 0 0 0 0 0 0 0 0 0 127 0" result="hardAlpha"/>
<feOffset dx="1.044" dy="1.044"/>
<feGaussianBlur stdDeviation="1.566"/>
<feColorMatrix type="matrix" values="0 0 0 0 0 0 0 0 0 0 0 0 0 0 0 0 0 0 0.04 0"/>
<feBlend mode="normal" in2="BackgroundImageFix" result="effect1_dropShadow_6026_3517"/>
<feColorMatrix in="SourceAlpha" type="matrix" values="0 0 0 0 0 0 0 0 0 0 0 0 0 0 0 0 0 0 127 0" result="hardAlpha"/>
<feOffset dx="9.918" dy="9.396"/>
<feGaussianBlur stdDeviation="3.915"/>
<feColorMatrix type="matrix" values="0 0 0 0 0 0 0 0 0 0 0 0 0 0 0 0 0 0 0.02 0"/>
<feBlend mode="normal" in2="effect1_dropShadow_6026_3517" result="effect2_dropShadow_6026_3517"/>
<feColorMatrix in="SourceAlpha" type="matrix" values="0 0 0 0 0 0 0 0 0 0 0 0 0 0 0 0 0 0 127 0" result="hardAlpha"/>
<feOffset dx="17.226" dy="16.182"/>
<feGaussianBlur stdDeviation="4.698"/>
<feColorMatrix type="matrix" values="0 0 0 0 0 0 0 0 0 0 0 0 0 0 0 0 0 0 0.01 0"/>
<feBlend mode="normal" in2="effect2_dropShadow_6026_3517" result="effect3_dropShadow_6026_3517"/>
<feBlend mode="normal" in="BackgroundImageFix" in2="effect3_dropShadow_6026_3517" result="BackgroundImageFix"/>
<feBlend mode="normal" in="SourceGraphic" in2="BackgroundImageFix" result="shape"/>
</filter>
<filter id="filter1_ddd_6026_3517" x="190.32" y="29.0219" width="132.897" height="51.6782" filterUnits="userSpaceOnUse" color-interpolation-filters="sRGB">
<feFlood flood-opacity="0" result="BackgroundImageFix"/>
<feColorMatrix in="SourceAlpha" type="matrix" values="0 0 0 0 0 0 0 0 0 0 0 0 0 0 0 0 0 0 127 0" result="hardAlpha"/>
<feOffset dx="1.044" dy="1.044"/>
<feGaussianBlur stdDeviation="1.566"/>
<feColorMatrix type="matrix" values="0 0 0 0 0 0 0 0 0 0 0 0 0 0 0 0 0 0 0.04 0"/>
<feBlend mode="normal" in2="BackgroundImageFix" result="effect1_dropShadow_6026_3517"/>
<feColorMatrix in="SourceAlpha" type="matrix" values="0 0 0 0 0 0 0 0 0 0 0 0 0 0 0 0 0 0 127 0" result="hardAlpha"/>
<feOffset dx="9.918" dy="9.396"/>
<feGaussianBlur stdDeviation="3.915"/>
<feColorMatrix type="matrix" values="0 0 0 0 0 0 0 0 0 0 0 0 0 0 0 0 0 0 0.02 0"/>
<feBlend mode="normal" in2="effect1_dropShadow_6026_3517" result="effect2_dropShadow_6026_3517"/>
<feColorMatrix in="SourceAlpha" type="matrix" values="0 0 0 0 0 0 0 0 0 0 0 0 0 0 0 0 0 0 127 0" result="hardAlpha"/>
<feOffset dx="17.226" dy="16.182"/>
<feGaussianBlur stdDeviation="4.698"/>
<feColorMatrix type="matrix" values="0 0 0 0 0 0 0 0 0 0 0 0 0 0 0 0 0 0 0.01 0"/>
<feBlend mode="normal" in2="effect2_dropShadow_6026_3517" result="effect3_dropShadow_6026_3517"/>
<feBlend mode="normal" in="BackgroundImageFix" in2="effect3_dropShadow_6026_3517" result="BackgroundImageFix"/>
<feBlend mode="normal" in="SourceGraphic" in2="BackgroundImageFix" result="shape"/>
</filter>
<filter id="filter2_ddd_6026_3517" x="304.264" y="29.0219" width="109.897" height="51.6782" filterUnits="userSpaceOnUse" color-interpolation-filters="sRGB">
<feFlood flood-opacity="0" result="BackgroundImageFix"/>
<feColorMatrix in="SourceAlpha" type="matrix" values="0 0 0 0 0 0 0 0 0 0 0 0 0 0 0 0 0 0 127 0" result="hardAlpha"/>
<feOffset dx="1.044" dy="1.044"/>
<feGaussianBlur stdDeviation="1.566"/>
<feColorMatrix type="matrix" values="0 0 0 0 0 0 0 0 0 0 0 0 0 0 0 0 0 0 0.04 0"/>
<feBlend mode="normal" in2="BackgroundImageFix" result="effect1_dropShadow_6026_3517"/>
<feColorMatrix in="SourceAlpha" type="matrix" values="0 0 0 0 0 0 0 0 0 0 0 0 0 0 0 0 0 0 127 0" result="hardAlpha"/>
<feOffset dx="9.918" dy="9.396"/>
<feGaussianBlur stdDeviation="3.915"/>
<feColorMatrix type="matrix" values="0 0 0 0 0 0 0 0 0 0 0 0 0 0 0 0 0 0 0.02 0"/>
<feBlend mode="normal" in2="effect1_dropShadow_6026_3517" result="effect2_dropShadow_6026_3517"/>
<feColorMatrix in="SourceAlpha" type="matrix" values="0 0 0 0 0 0 0 0 0 0 0 0 0 0 0 0 0 0 127 0" result="hardAlpha"/>
<feOffset dx="17.226" dy="16.182"/>
<feGaussianBlur stdDeviation="4.698"/>
<feColorMatrix type="matrix" values="0 0 0 0 0 0 0 0 0 0 0 0 0 0 0 0 0 0 0.01 0"/>
<feBlend mode="normal" in2="effect2_dropShadow_6026_3517" result="effect3_dropShadow_6026_3517"/>
<feBlend mode="normal" in="BackgroundImageFix" in2="effect3_dropShadow_6026_3517" result="BackgroundImageFix"/>
<feBlend mode="normal" in="SourceGraphic" in2="BackgroundImageFix" result="shape"/>
</filter>
<filter id="filter3_ddd_6026_3517" x="126.848" y="62.7899" width="156.897" height="51.6782" filterUnits="userSpaceOnUse" color-interpolation-filters="sRGB">
<feFlood flood-opacity="0" result="BackgroundImageFix"/>
<feColorMatrix in="SourceAlpha" type="matrix" values="0 0 0 0 0 0 0 0 0 0 0 0 0 0 0 0 0 0 127 0" result="hardAlpha"/>
<feOffset dx="1.044" dy="1.044"/>
<feGaussianBlur stdDeviation="1.566"/>
<feColorMatrix type="matrix" values="0 0 0 0 0 0 0 0 0 0 0 0 0 0 0 0 0 0 0.04 0"/>
<feBlend mode="normal" in2="BackgroundImageFix" result="effect1_dropShadow_6026_3517"/>
<feColorMatrix in="SourceAlpha" type="matrix" values="0 0 0 0 0 0 0 0 0 0 0 0 0 0 0 0 0 0 127 0" result="hardAlpha"/>
<feOffset dx="9.918" dy="9.396"/>
<feGaussianBlur stdDeviation="3.915"/>
<feColorMatrix type="matrix" values="0 0 0 0 0 0 0 0 0 0 0 0 0 0 0 0 0 0 0.02 0"/>
<feBlend mode="normal" in2="effect1_dropShadow_6026_3517" result="effect2_dropShadow_6026_3517"/>
<feColorMatrix in="SourceAlpha" type="matrix" values="0 0 0 0 0 0 0 0 0 0 0 0 0 0 0 0 0 0 127 0" result="hardAlpha"/>
<feOffset dx="17.226" dy="16.182"/>
<feGaussianBlur stdDeviation="4.698"/>
<feColorMatrix type="matrix" values="0 0 0 0 0 0 0 0 0 0 0 0 0 0 0 0 0 0 0.01 0"/>
<feBlend mode="normal" in2="effect2_dropShadow_6026_3517" result="effect3_dropShadow_6026_3517"/>
<feBlend mode="normal" in="BackgroundImageFix" in2="effect3_dropShadow_6026_3517" result="BackgroundImageFix"/>
<feBlend mode="normal" in="SourceGraphic" in2="BackgroundImageFix" result="shape"/>
</filter>
<filter id="filter4_ddd_6026_3517" x="264.791" y="62.7899" width="122.897" height="51.6782" filterUnits="userSpaceOnUse" color-interpolation-filters="sRGB">
<feFlood flood-opacity="0" result="BackgroundImageFix"/>
<feColorMatrix in="SourceAlpha" type="matrix" values="0 0 0 0 0 0 0 0 0 0 0 0 0 0 0 0 0 0 127 0" result="hardAlpha"/>
<feOffset dx="1.044" dy="1.044"/>
<feGaussianBlur stdDeviation="1.566"/>
<feColorMatrix type="matrix" values="0 0 0 0 0 0 0 0 0 0 0 0 0 0 0 0 0 0 0.04 0"/>
<feBlend mode="normal" in2="BackgroundImageFix" result="effect1_dropShadow_6026_3517"/>
<feColorMatrix in="SourceAlpha" type="matrix" values="0 0 0 0 0 0 0 0 0 0 0 0 0 0 0 0 0 0 127 0" result="hardAlpha"/>
<feOffset dx="9.918" dy="9.396"/>
<feGaussianBlur stdDeviation="3.915"/>
<feColorMatrix type="matrix" values="0 0 0 0 0 0 0 0 0 0 0 0 0 0 0 0 0 0 0.02 0"/>
<feBlend mode="normal" in2="effect1_dropShadow_6026_3517" result="effect2_dropShadow_6026_3517"/>
<feColorMatrix in="SourceAlpha" type="matrix" values="0 0 0 0 0 0 0 0 0 0 0 0 0 0 0 0 0 0 127 0" result="hardAlpha"/>
<feOffset dx="17.226" dy="16.182"/>
<feGaussianBlur stdDeviation="4.698"/>
<feColorMatrix type="matrix" values="0 0 0 0 0 0 0 0 0 0 0 0 0 0 0 0 0 0 0.01 0"/>
<feBlend mode="normal" in2="effect2_dropShadow_6026_3517" result="effect3_dropShadow_6026_3517"/>
<feBlend mode="normal" in="BackgroundImageFix" in2="effect3_dropShadow_6026_3517" result="BackgroundImageFix"/>
<feBlend mode="normal" in="SourceGraphic" in2="BackgroundImageFix" result="shape"/>
</filter>
<clipPath id="clip0_6026_3517">
<rect width="13.4229" height="13.4229" fill="white" transform="translate(311.645 36.4043)"/>
</clipPath>
</defs>
</svg>
