<svg width="20" height="20" viewBox="0 0 20 20" fill="none" xmlns="http://www.w3.org/2000/svg">
<path d="M3.75 5.625C3.75 4.58947 4.58947 3.75 5.625 3.75H6.66667C7.01184 3.75 7.29167 3.47018 7.29167 3.125C7.29167 2.77982 7.01184 2.5 6.66667 2.5H5.625C3.89911 2.5 2.5 3.89911 2.5 5.625V6.66667C2.5 7.01184 2.77982 7.29167 3.125 7.29167C3.47018 7.29167 3.75 7.01184 3.75 6.66667V5.625Z" fill="#18181B" fill-opacity="0.5"/>
<path d="M13.3333 2.5C12.9882 2.5 12.7083 2.77982 12.7083 3.125C12.7083 3.47018 12.9882 3.75 13.3333 3.75H14.375C15.4105 3.75 16.25 4.58947 16.25 5.625V6.66667C16.25 7.01184 16.5298 7.29167 16.875 7.29167C17.2202 7.29167 17.5 7.01184 17.5 6.66667V5.625C17.5 3.89911 16.1009 2.5 14.375 2.5H13.3333Z" fill="#18181B" fill-opacity="0.5"/>
<path d="M3.75 13.3333C3.75 12.9882 3.47018 12.7083 3.125 12.7083C2.77982 12.7083 2.5 12.9882 2.5 13.3333V14.375C2.5 16.1009 3.89911 17.5 5.625 17.5H6.66667C7.01184 17.5 7.29167 17.2202 7.29167 16.875C7.29167 16.5298 7.01184 16.25 6.66667 16.25H5.625C4.58947 16.25 3.75 15.4105 3.75 14.375V13.3333Z" fill="#18181B" fill-opacity="0.5"/>
<path d="M17.5 13.3333C17.5 12.9882 17.2202 12.7083 16.875 12.7083C16.5298 12.7083 16.25 12.9882 16.25 13.3333V14.375C16.25 15.4105 15.4105 16.25 14.375 16.25H13.3333C12.9882 16.25 12.7083 16.5298 12.7083 16.875C12.7083 17.2202 12.9882 17.5 13.3333 17.5H14.375C16.1009 17.5 17.5 16.1009 17.5 14.375V13.3333Z" fill="#18181B" fill-opacity="0.5"/>
<path fill-rule="evenodd" clip-rule="evenodd" d="M12.5 8.64907V8.33333C12.5 6.95262 11.3807 5.83333 10 5.83333C8.61929 5.83333 7.5 6.95262 7.5 8.33333V8.64907C6.99751 8.98543 6.66667 9.55825 6.66667 10.2083V11.4583C6.66667 12.4939 7.50613 13.3333 8.54167 13.3333H11.4583C12.4939 13.3333 13.3333 12.4939 13.3333 11.4583V10.2083C13.3333 9.55825 13.0025 8.98543 12.5 8.64907ZM8.75 8.33333H11.25C11.25 7.64298 10.6904 7.08333 10 7.08333C9.30964 7.08333 8.75 7.64298 8.75 8.33333Z" fill="#18181B" fill-opacity="0.5"/>
</svg>
