<svg width="32" height="33" viewBox="0 0 32 33" fill="none" xmlns="http://www.w3.org/2000/svg">
<path fill-rule="evenodd" clip-rule="evenodd" d="M5.95073 0L15.1138 8.44238V8.44044V0.0194804H16.8975V8.48016L26.1015 0V9.62556H29.8804V23.5095H26.1132V32.0806L16.8975 23.984V32.1736H15.1138V24.1175L5.96111 32.1789V23.5095H2.18213V9.62556H5.95073V0ZM13.7691 11.3875H3.96581V21.7476H5.95887V18.4797L13.7691 11.3875ZM7.7447 19.2614V28.2474L15.1138 21.7569V12.5682L7.7447 19.2614ZM16.9488 21.6711V12.5595L24.32 19.2532V23.5095H24.3295V28.1556L16.9488 21.6711ZM26.1132 21.7476H28.0967V11.3875H18.3665L26.1132 18.4062V21.7476ZM24.3179 9.62556V4.05274L18.2692 9.62556H24.3179ZM13.7829 9.62556H7.73442V4.05274L13.7829 9.62556Z" fill="#22B8CD"/>
</svg>
