<svg width="6" height="6" viewBox="0 0 6 6" fill="none" xmlns="http://www.w3.org/2000/svg">
<path d="M0.8352 3.09066L0.0512 2.83466C0.00853331 2.81332 -0.00746668 2.78132 0.00320001 2.73866L0.2912 1.82666C0.312533 1.77332 0.349867 1.75732 0.4032 1.77866L1.1712 2.01866L2.0192 2.40266C2.0512 2.42399 2.07787 2.42932 2.0992 2.41866C2.1312 2.40799 2.14187 2.38132 2.1312 2.33866L2.0352 1.39466V0.578657C2.0352 0.525324 2.06187 0.498657 2.1152 0.498657H3.0752C3.12853 0.498657 3.1552 0.525324 3.1552 0.578657V1.39466L3.0432 2.33866C3.03253 2.41332 3.0752 2.43466 3.1712 2.40266L4.0192 2.01866L4.7872 1.77866C4.84053 1.75732 4.87787 1.77332 4.8992 1.82666L5.1872 2.73866C5.19787 2.78132 5.18187 2.81332 5.1392 2.83466L4.3552 3.09066L3.3312 3.31466C3.30987 3.31466 3.29387 3.32532 3.2832 3.34666C3.2832 3.36799 3.29387 3.38932 3.3152 3.41066L3.9712 4.11466L4.4512 4.80266C4.49387 4.84532 4.48853 4.88266 4.4352 4.91466L3.6672 5.47466C3.62453 5.49599 3.58187 5.48532 3.5392 5.44266L3.0752 4.80266L2.6592 4.06666C2.61653 3.98132 2.57387 3.98132 2.5312 4.06666L2.0992 4.81866L1.6352 5.45866C1.59253 5.50132 1.54987 5.51199 1.5072 5.49066L0.7392 4.93066C0.685867 4.89866 0.680533 4.86132 0.7232 4.81866L1.2032 4.13066L1.8592 3.41066C1.8912 3.36799 1.88053 3.33599 1.8272 3.31466L0.8352 3.09066ZM2.1472 2.45066H2.1152L2.1472 2.46666V2.45066ZM3.0272 2.46666L3.0592 2.45066H3.0272V2.46666Z" fill="white"/>
</svg>
