<svg width="77" height="17" viewBox="0 0 77 17" fill="none" xmlns="http://www.w3.org/2000/svg">
<path d="M42.0952 1.67924C42.7282 0.602752 43.9731 0.0329378 45.1969 0.0118892C46.3155 -0.0512565 47.5604 0.117133 48.3407 1.00418C47.9392 1.5319 47.5604 2.05962 47.18 2.58733C46.7365 2.08066 46.3786 1.36351 45.66 1.21617C44.9639 1.00568 44.0768 1.36351 43.8874 2.12426C43.5927 3.32704 43.7611 4.57191 43.719 5.77469H45.9983V7.12481H43.719C43.719 9.17103 43.719 11.2188 43.719 13.265C43.719 13.8558 43.8032 14.4257 43.9084 14.9955C44.4362 15.227 44.9849 15.3548 45.5758 15.3758C45.5758 15.5232 45.5758 15.7983 45.5758 15.9457C43.719 15.8194 41.8412 15.7773 39.9844 15.9457C39.9844 15.8194 39.9844 15.5863 39.9844 15.46C40.5752 15.3548 41.3134 15.0797 41.3345 14.3625C41.566 11.957 41.4187 9.53036 41.4608 7.10376C40.9962 7.10376 40.5527 7.10376 40.0896 7.10376C40.0896 6.89327 40.0896 6.70233 40.0896 6.49185C40.5542 6.28136 40.9977 6.04832 41.4397 5.79574C41.4202 4.44262 41.357 2.92411 42.0952 1.67924Z" fill="#8C1515"/>
<path d="M75.7307 0.0119629C74.5279 0.285594 73.3041 0.518631 72.0592 0.581777C72.0381 0.68702 72.0171 0.92006 72.0171 1.0253C72.4817 1.17264 73.2409 1.13054 73.262 1.7635C73.4514 3.07152 73.3251 4.40059 73.3462 5.71011C71.5736 5.41543 69.5905 5.41543 68.0705 6.53251C66.4242 7.69319 65.8544 9.84616 66.0032 11.7871C66.0874 13.2846 66.8467 14.8257 68.1983 15.5428C69.8025 16.4284 71.8697 16.2389 73.3898 15.2256C73.4108 15.5203 73.4108 15.8375 73.4108 16.1337C74.5715 15.839 75.7743 15.6691 76.977 15.606V15.0782C75.2676 14.7836 75.7532 14.0017 75.6269 12.6516C75.6465 8.45244 75.5833 4.2322 75.7307 0.0119629ZM71.2999 6.80614C72.0171 6.80614 72.7553 7.03768 73.3462 7.4391C73.3462 9.71836 73.3462 11.9766 73.3462 14.2543C72.0802 14.8452 70.3708 14.8031 69.3785 13.7266C68.5351 12.8185 68.3862 11.4895 68.4494 10.3077C68.5335 9.23124 68.7666 7.98637 69.6942 7.31131C70.2024 6.97453 70.7512 6.82719 71.2999 6.80614Z" fill="#8C1515"/>
<path d="M3.96615 1.40409C5.40046 1.3199 6.83628 1.40409 8.24954 1.61458C8.16535 2.62792 8.16535 3.63975 8.24954 4.65309C8.12325 4.65309 7.84811 4.65309 7.70077 4.65309C7.59553 4.02013 7.46924 3.26088 6.81523 2.98574C5.82294 2.56327 4.66226 2.52117 3.62938 2.81735C2.27926 3.21878 2.04622 5.20186 3.05956 6.06635C4.32548 7.16388 5.86654 7.88104 7.15351 8.95753C9.17868 10.5617 8.90505 14.2963 6.52055 15.4149C4.51642 16.3441 2.13192 16.111 0.0631457 15.5202C0.0841943 14.5279 0.0420972 13.516 0 12.5238C0.14734 12.5238 0.443524 12.5238 0.611912 12.5027C0.717155 13.1357 0.822398 13.8949 1.45536 14.2332C2.59499 14.8662 4.0714 14.9293 5.25312 14.3805C6.72953 13.5581 6.4559 11.2157 5.08474 10.4129C3.88196 9.48374 2.51079 8.80868 1.39221 7.7758C0.168389 6.63617 0.0210486 4.63204 0.801349 3.21728C1.41176 2.07915 2.72128 1.50933 3.96615 1.40409Z" fill="#8C1515"/>
<path d="M12.491 3.53613C12.5962 3.53613 12.8293 3.55718 12.9555 3.55718C12.9555 4.31643 12.9555 5.07719 12.9555 5.83644H16.4376V7.14446H12.9555C12.9766 8.9802 12.9345 10.7949 12.9766 12.6306C13.0187 13.3267 13.0397 14.1927 13.6938 14.6137C14.5161 15.0993 15.4874 14.8031 16.3098 14.4874C16.5624 15.0993 15.9294 15.4586 15.4663 15.7112C14.4109 16.2179 13.145 16.281 12.0685 15.8586C11.1394 15.5203 10.6973 14.5085 10.6552 13.5793C10.55 11.4474 10.6552 9.29593 10.6763 7.16401H9.32617C9.32617 7.01667 9.32617 6.86932 9.32617 6.74153C10.7605 6.15217 11.7528 4.88625 12.491 3.53613Z" fill="#8C1515"/>
<path d="M21.7956 5.49822C20.2335 5.47717 18.6519 6.25747 18.1452 7.84062C18.2715 7.92482 18.5677 8.07216 18.694 8.15786C19.3059 7.10242 20.6981 6.55365 21.8167 7.16556C22.6812 7.56699 22.7669 8.62092 22.7458 9.46587C21.3746 9.9094 19.9599 10.2462 18.6729 10.9002C17.1318 11.7226 16.9214 14.0439 18.0399 15.2888C19.348 16.4916 21.522 16.3022 22.83 15.1625C23.2314 15.9428 24.1591 16.239 24.9619 16.006C25.6791 15.8797 26.1436 15.2888 26.6082 14.7821C26.524 14.6979 26.3556 14.5085 26.291 14.4018C25.9963 14.486 25.6791 14.6964 25.3829 14.486C25.0025 14.2334 25.0657 13.7267 25.0236 13.3253C25.0446 11.6369 25.1499 9.94849 25.0446 8.2616C25.0025 7.3971 24.6011 6.489 23.8418 6.02443C23.2104 5.66661 22.5128 5.49822 21.7956 5.49822ZM22.7248 10.7528C22.7248 11.8925 22.7248 13.0321 22.7248 14.1717C21.9866 14.489 21.1206 14.8047 20.3613 14.4243C19.4111 13.9176 19.4532 12.4202 20.235 11.8083C20.9943 11.2806 21.8798 11.0475 22.7248 10.7528Z" fill="#8C1515"/>
<path d="M51.7807 5.54019C50.6411 5.56124 49.4593 5.83487 48.5528 6.57458C47.2237 7.65106 46.6328 9.4447 46.696 11.1121C46.696 12.5464 47.1395 14.0664 48.2581 15.0376C49.5871 16.1983 51.5281 16.3246 53.1955 15.9668C54.947 15.5864 56.255 14.0468 56.6354 12.3374C57.0368 10.5437 56.8669 8.47647 55.6431 7.04066C54.6929 5.92057 53.194 5.4981 51.7807 5.54019ZM51.8018 6.74297C52.4137 6.76402 53.0256 7.0166 53.427 7.50222C54.1442 8.38777 54.3351 9.54845 54.3772 10.667C54.3772 11.8698 54.2299 13.1568 53.4691 14.1491C52.7309 15.0993 51.1267 15.2255 50.2832 14.3595C49.6292 13.7476 49.3752 12.8395 49.2278 11.9961C49.0805 10.8775 49.1226 9.69579 49.4593 8.6193C49.7119 7.90215 50.1976 7.16394 50.9568 6.90985C51.2319 6.78507 51.5071 6.74297 51.8018 6.74297Z" fill="#8C1515"/>
<path d="M27.4088 6.23656C28.6327 6.21551 29.8565 6.08922 30.9751 5.58255C31.0172 5.87723 31.0382 6.15236 31.0593 6.44704C32.3462 5.6036 34.0136 5.26532 35.49 5.79303C36.5454 6.15236 37.2836 7.18525 37.3889 8.28278C37.5994 10.3711 37.2836 12.482 37.5783 14.5703C37.5994 15.2243 38.3165 15.3716 38.8232 15.4784C38.8232 15.6047 38.8232 15.8377 38.8232 15.964C37.0927 15.8377 33.6317 15.964 33.6317 15.964V15.4784C33.6317 15.4784 34.8766 15.1191 34.9608 14.7612C35.2554 13.2202 35.1713 11.6175 35.1713 10.0343C35.1081 9.08413 35.1292 7.92345 34.2421 7.35514C33.2709 6.80637 32.0891 7.06046 31.1194 7.41828C31.1194 9.44346 31.1194 11.4912 31.1194 13.5374C31.1404 14.0862 31.0984 14.6981 31.4577 15.1627C31.7524 15.3731 32.1327 15.4152 32.471 15.5009C32.471 15.6272 32.471 15.8603 32.471 15.9866C30.7616 15.8813 29.0521 15.7971 27.3652 15.9866C27.3652 15.8603 27.3652 15.6272 27.3652 15.5009C27.893 15.3747 28.568 15.2273 28.6733 14.5928C28.9048 13.0954 28.7364 11.5543 28.7785 10.0343C28.7574 9.16983 28.8627 8.30383 28.6943 7.43933C28.568 6.84847 27.8719 6.89057 27.4073 6.76428C27.4088 6.63799 27.4088 6.36285 27.4088 6.23656Z" fill="#8C1515"/>
<path d="M57.7943 6.17309C59.0181 6.15204 60.2209 5.98365 61.3815 5.60327L61.4236 6.48882C62.5843 5.53862 64.3569 5.30709 65.6018 6.23623L64.2938 8.21931C63.6818 7.29017 62.458 7.05863 61.4868 7.54425C61.4868 7.54425 61.4868 11.6592 61.4868 13.7265C61.5289 14.1911 61.4657 14.782 61.8882 15.0766C62.3107 15.3292 62.8174 15.3082 63.2804 15.3713C63.2804 15.5187 63.2804 15.7938 63.2804 15.9411C61.4026 15.8148 59.5458 15.7938 57.668 15.9411V15.3713C58.2799 15.2661 58.8918 15.0541 58.997 14.6963C59.2496 13.8107 59.1233 12.8816 59.1654 11.9524C59.1444 10.4971 59.2075 9.0402 59.1233 7.60589C59.1233 6.90979 58.322 6.84664 57.7943 6.7414C57.7943 6.57451 57.7943 6.36252 57.7943 6.17309Z" fill="#8C1515"/>
</svg>
