<svg width="82" height="82" viewBox="0 0 82 82" fill="none" xmlns="http://www.w3.org/2000/svg">
<g clip-path="url(#clip0_3106_3510)">
<path d="M86.9641 -4.96436H-4.96411V86.9639H86.9641V-4.96436Z" fill="white"/>
<mask id="mask0_3106_3510" style="mask-type:luminance" maskUnits="userSpaceOnUse" x="0" y="0" width="82" height="82">
<path d="M2.39012 28.8652H0.183838V31.0715H2.39012V28.8652Z" fill="white"/>
<path d="M2.39012 31.0718H0.183838V33.2781H2.39012V31.0718Z" fill="white"/>
<path d="M2.39012 35.4844H0.183838V37.6907H2.39012V35.4844Z" fill="white"/>
<path d="M2.39012 37.6909H0.183838V39.8972H2.39012V37.6909Z" fill="white"/>
<path d="M2.39012 39.897H0.183838V42.1033H2.39012V39.897Z" fill="white"/>
<path d="M2.39012 42.103H0.183838V44.3093H2.39012V42.103Z" fill="white"/>
<path d="M2.39012 44.3091H0.183838V46.5154H2.39012V44.3091Z" fill="white"/>
<path d="M2.39012 48.7222H0.183838V50.9284H2.39012V48.7222Z" fill="white"/>
<path d="M2.39012 53.1348H0.183838V55.341H2.39012V53.1348Z" fill="white"/>
<path d="M2.39012 57.5469H0.183838V59.7532H2.39012V57.5469Z" fill="white"/>
<path d="M2.39012 59.7534H0.183838V61.9597H2.39012V59.7534Z" fill="white"/>
<path d="M4.59641 24.4531H2.39014V26.6594H4.59641V24.4531Z" fill="white"/>
<path d="M4.59641 28.8652H2.39014V31.0715H4.59641V28.8652Z" fill="white"/>
<path d="M4.59641 31.0718H2.39014V33.2781H4.59641V31.0718Z" fill="white"/>
<path d="M4.59641 37.6909H2.39014V39.8972H4.59641V37.6909Z" fill="white"/>
<path d="M4.59641 39.897H2.39014V42.1033H4.59641V39.897Z" fill="white"/>
<path d="M4.59641 46.5156H2.39014V48.7219H4.59641V46.5156Z" fill="white"/>
<path d="M4.59641 61.9595H2.39014V64.1658H4.59641V61.9595Z" fill="white"/>
<path d="M6.80271 17.834H4.59644V20.0403H6.80271V17.834Z" fill="white"/>
<path d="M6.80271 26.6592H4.59644V28.8655H6.80271V26.6592Z" fill="white"/>
<path d="M6.80271 28.8652H4.59644V31.0715H6.80271V28.8652Z" fill="white"/>
<path d="M6.80271 31.0718H4.59644V33.2781H6.80271V31.0718Z" fill="white"/>
<path d="M6.80271 33.2778H4.59644V35.4841H6.80271V33.2778Z" fill="white"/>
<path d="M6.80271 35.4844H4.59644V37.6907H6.80271V35.4844Z" fill="white"/>
<path d="M6.80271 37.6909H4.59644V39.8972H6.80271V37.6909Z" fill="white"/>
<path d="M6.80271 42.103H4.59644V44.3093H6.80271V42.103Z" fill="white"/>
<path d="M6.80271 44.3091H4.59644V46.5154H6.80271V44.3091Z" fill="white"/>
<path d="M6.80271 46.5156H4.59644V48.7219H6.80271V46.5156Z" fill="white"/>
<path d="M6.80271 50.9282H4.59644V53.1345H6.80271V50.9282Z" fill="white"/>
<path d="M6.80271 57.5469H4.59644V59.7532H6.80271V57.5469Z" fill="white"/>
<path d="M6.80271 59.7534H4.59644V61.9597H6.80271V59.7534Z" fill="white"/>
<path d="M9.00901 20.0405H6.80273V22.2468H9.00901V20.0405Z" fill="white"/>
<path d="M9.00901 31.0718H6.80273V33.2781H9.00901V31.0718Z" fill="white"/>
<path d="M9.00901 33.2778H6.80273V35.4841H9.00901V33.2778Z" fill="white"/>
<path d="M9.00901 35.4844H6.80273V37.6907H9.00901V35.4844Z" fill="white"/>
<path d="M9.00901 39.897H6.80273V42.1033H9.00901V39.897Z" fill="white"/>
<path d="M9.00901 44.3091H6.80273V46.5154H9.00901V44.3091Z" fill="white"/>
<path d="M9.00901 48.7222H6.80273V50.9284H9.00901V48.7222Z" fill="white"/>
<path d="M9.00901 50.9282H6.80273V53.1345H9.00901V50.9282Z" fill="white"/>
<path d="M9.00901 55.3408H6.80273V57.5471H9.00901V55.3408Z" fill="white"/>
<path d="M9.00901 57.5469H6.80273V59.7532H9.00901V57.5469Z" fill="white"/>
<path d="M9.00901 61.9595H6.80273V64.1658H9.00901V61.9595Z" fill="white"/>
<path d="M11.2153 17.834H9.00903V20.0403H11.2153V17.834Z" fill="white"/>
<path d="M11.2153 20.0405H9.00903V22.2468H11.2153V20.0405Z" fill="white"/>
<path d="M11.2153 22.2466H9.00903V24.4529H11.2153V22.2466Z" fill="white"/>
<path d="M11.2153 24.4531H9.00903V26.6594H11.2153V24.4531Z" fill="white"/>
<path d="M11.2153 26.6592H9.00903V28.8655H11.2153V26.6592Z" fill="white"/>
<path d="M11.2153 42.103H9.00903V44.3093H11.2153V42.103Z" fill="white"/>
<path d="M11.2153 50.9282H9.00903V53.1345H11.2153V50.9282Z" fill="white"/>
<path d="M11.2153 59.7534H9.00903V61.9597H11.2153V59.7534Z" fill="white"/>
<path d="M13.4216 17.834H11.2153V20.0403H13.4216V17.834Z" fill="white"/>
<path d="M13.4216 22.2466H11.2153V24.4529H13.4216V22.2466Z" fill="white"/>
<path d="M13.4216 26.6592H11.2153V28.8655H13.4216V26.6592Z" fill="white"/>
<path d="M13.4216 28.8652H11.2153V31.0715H13.4216V28.8652Z" fill="white"/>
<path d="M13.4216 37.6909H11.2153V39.8972H13.4216V37.6909Z" fill="white"/>
<path d="M13.4216 42.103H11.2153V44.3093H13.4216V42.103Z" fill="white"/>
<path d="M13.4216 44.3091H11.2153V46.5154H13.4216V44.3091Z" fill="white"/>
<path d="M13.4216 55.3408H11.2153V57.5471H13.4216V55.3408Z" fill="white"/>
<path d="M13.4216 57.5469H11.2153V59.7532H13.4216V57.5469Z" fill="white"/>
<path d="M13.4216 61.9595H11.2153V64.1658H13.4216V61.9595Z" fill="white"/>
<path d="M15.6279 17.834H13.4216V20.0403H15.6279V17.834Z" fill="white"/>
<path d="M15.6279 22.2466H13.4216V24.4529H15.6279V22.2466Z" fill="white"/>
<path d="M15.6279 26.6592H13.4216V28.8655H15.6279V26.6592Z" fill="white"/>
<path d="M15.6279 31.0718H13.4216V33.2781H15.6279V31.0718Z" fill="white"/>
<path d="M15.6279 35.4844H13.4216V37.6907H15.6279V35.4844Z" fill="white"/>
<path d="M15.6279 39.897H13.4216V42.1033H15.6279V39.897Z" fill="white"/>
<path d="M15.6279 44.3091H13.4216V46.5154H15.6279V44.3091Z" fill="white"/>
<path d="M15.6279 48.7222H13.4216V50.9284H15.6279V48.7222Z" fill="white"/>
<path d="M15.6279 53.1348H13.4216V55.341H15.6279V53.1348Z" fill="white"/>
<path d="M15.6279 57.5469H13.4216V59.7532H15.6279V57.5469Z" fill="white"/>
<path d="M15.6279 61.9595H13.4216V64.1658H15.6279V61.9595Z" fill="white"/>
<path d="M17.834 22.2466H15.6277V24.4529H17.834V22.2466Z" fill="white"/>
<path d="M17.834 24.4531H15.6277V26.6594H17.834V24.4531Z" fill="white"/>
<path d="M17.834 33.2778H15.6277V35.4841H17.834V33.2778Z" fill="white"/>
<path d="M17.834 35.4844H15.6277V37.6907H17.834V35.4844Z" fill="white"/>
<path d="M17.834 37.6909H15.6277V39.8972H17.834V37.6909Z" fill="white"/>
<path d="M17.834 46.5156H15.6277V48.7219H17.834V46.5156Z" fill="white"/>
<path d="M17.834 53.1348H15.6277V55.341H17.834V53.1348Z" fill="white"/>
<path d="M17.834 57.5469H15.6277V59.7532H17.834V57.5469Z" fill="white"/>
<path d="M20.0403 2.39014H17.834V4.59641H20.0403V2.39014Z" fill="white"/>
<path d="M20.0403 9.00879H17.834V11.2151H20.0403V9.00879Z" fill="white"/>
<path d="M20.0403 13.4214H17.834V15.6277H20.0403V13.4214Z" fill="white"/>
<path d="M20.0403 17.834H17.834V20.0403H20.0403V17.834Z" fill="white"/>
<path d="M20.0403 22.2466H17.834V24.4529H20.0403V22.2466Z" fill="white"/>
<path d="M20.0403 24.4531H17.834V26.6594H20.0403V24.4531Z" fill="white"/>
<path d="M20.0403 26.6592H17.834V28.8655H20.0403V26.6592Z" fill="white"/>
<path d="M20.0403 28.8652H17.834V31.0715H20.0403V28.8652Z" fill="white"/>
<path d="M20.0403 31.0718H17.834V33.2781H20.0403V31.0718Z" fill="white"/>
<path d="M20.0403 33.2778H17.834V35.4841H20.0403V33.2778Z" fill="white"/>
<path d="M20.0403 39.897H17.834V42.1033H20.0403V39.897Z" fill="white"/>
<path d="M20.0403 42.103H17.834V44.3093H20.0403V42.103Z" fill="white"/>
<path d="M20.0403 46.5156H17.834V48.7219H20.0403V46.5156Z" fill="white"/>
<path d="M20.0403 48.7222H17.834V50.9284H20.0403V48.7222Z" fill="white"/>
<path d="M20.0403 50.9282H17.834V53.1345H20.0403V50.9282Z" fill="white"/>
<path d="M20.0403 53.1348H17.834V55.341H20.0403V53.1348Z" fill="white"/>
<path d="M20.0403 55.3408H17.834V57.5471H20.0403V55.3408Z" fill="white"/>
<path d="M20.0403 57.5469H17.834V59.7532H20.0403V57.5469Z" fill="white"/>
<path d="M20.0403 59.7534H17.834V61.9597H20.0403V59.7534Z" fill="white"/>
<path d="M20.0403 61.9595H17.834V64.1658H20.0403V61.9595Z" fill="white"/>
<path d="M20.0403 64.166H17.834V66.3723H20.0403V64.166Z" fill="white"/>
<path d="M20.0403 68.5786H17.834V70.7849H20.0403V68.5786Z" fill="white"/>
<path d="M20.0403 70.7847H17.834V72.9909H20.0403V70.7847Z" fill="white"/>
<path d="M20.0403 75.1973H17.834V77.4035H20.0403V75.1973Z" fill="white"/>
<path d="M22.2468 0.184082H20.0405V2.39036H22.2468V0.184082Z" fill="white"/>
<path d="M22.2468 15.6279H20.0405V17.8342H22.2468V15.6279Z" fill="white"/>
<path d="M22.2468 24.4531H20.0405V26.6594H22.2468V24.4531Z" fill="white"/>
<path d="M22.2468 26.6592H20.0405V28.8655H22.2468V26.6592Z" fill="white"/>
<path d="M22.2468 35.4844H20.0405V37.6907H22.2468V35.4844Z" fill="white"/>
<path d="M22.2468 39.897H20.0405V42.1033H22.2468V39.897Z" fill="white"/>
<path d="M22.2468 46.5156H20.0405V48.7219H22.2468V46.5156Z" fill="white"/>
<path d="M22.2468 48.7222H20.0405V50.9284H22.2468V48.7222Z" fill="white"/>
<path d="M22.2468 50.9282H20.0405V53.1345H22.2468V50.9282Z" fill="white"/>
<path d="M22.2468 57.5469H20.0405V59.7532H22.2468V57.5469Z" fill="white"/>
<path d="M22.2468 59.7534H20.0405V61.9597H22.2468V59.7534Z" fill="white"/>
<path d="M22.2468 64.166H20.0405V66.3723H22.2468V64.166Z" fill="white"/>
<path d="M22.2468 68.5786H20.0405V70.7849H22.2468V68.5786Z" fill="white"/>
<path d="M22.2468 70.7847H20.0405V72.9909H22.2468V70.7847Z" fill="white"/>
<path d="M22.2468 72.9912H20.0405V75.1975H22.2468V72.9912Z" fill="white"/>
<path d="M22.2468 77.4038H20.0405V79.6101H22.2468V77.4038Z" fill="white"/>
<path d="M24.4529 0.184082H22.2466V2.39036H24.4529V0.184082Z" fill="white"/>
<path d="M24.4529 4.59619H22.2466V6.80247H24.4529V4.59619Z" fill="white"/>
<path d="M24.4529 6.80273H22.2466V9.00901H24.4529V6.80273Z" fill="white"/>
<path d="M24.4529 9.00879H22.2466V11.2151H24.4529V9.00879Z" fill="white"/>
<path d="M24.4529 11.2153H22.2466V13.4216H24.4529V11.2153Z" fill="white"/>
<path d="M24.4529 13.4214H22.2466V15.6277H24.4529V13.4214Z" fill="white"/>
<path d="M24.4529 15.6279H22.2466V17.8342H24.4529V15.6279Z" fill="white"/>
<path d="M24.4529 22.2466H22.2466V24.4529H24.4529V22.2466Z" fill="white"/>
<path d="M24.4529 28.8652H22.2466V31.0715H24.4529V28.8652Z" fill="white"/>
<path d="M24.4529 31.0718H22.2466V33.2781H24.4529V31.0718Z" fill="white"/>
<path d="M24.4529 35.4844H22.2466V37.6907H24.4529V35.4844Z" fill="white"/>
<path d="M24.4529 39.897H22.2466V42.1033H24.4529V39.897Z" fill="white"/>
<path d="M24.4529 46.5156H22.2466V48.7219H24.4529V46.5156Z" fill="white"/>
<path d="M24.4529 48.7222H22.2466V50.9284H24.4529V48.7222Z" fill="white"/>
<path d="M24.4529 50.9282H22.2466V53.1345H24.4529V50.9282Z" fill="white"/>
<path d="M24.4529 53.1348H22.2466V55.341H24.4529V53.1348Z" fill="white"/>
<path d="M24.4529 55.3408H22.2466V57.5471H24.4529V55.3408Z" fill="white"/>
<path d="M24.4529 57.5469H22.2466V59.7532H24.4529V57.5469Z" fill="white"/>
<path d="M24.4529 59.7534H22.2466V61.9597H24.4529V59.7534Z" fill="white"/>
<path d="M24.4529 64.166H22.2466V66.3723H24.4529V64.166Z" fill="white"/>
<path d="M24.4529 68.5786H22.2466V70.7849H24.4529V68.5786Z" fill="white"/>
<path d="M24.4529 72.9912H22.2466V75.1975H24.4529V72.9912Z" fill="white"/>
<path d="M24.4529 75.1973H22.2466V77.4035H24.4529V75.1973Z" fill="white"/>
<path d="M26.6592 0.184082H24.4529V2.39036H26.6592V0.184082Z" fill="white"/>
<path d="M26.6592 4.59619H24.4529V6.80247H26.6592V4.59619Z" fill="white"/>
<path d="M26.6592 9.00879H24.4529V11.2151H26.6592V9.00879Z" fill="white"/>
<path d="M26.6592 11.2153H24.4529V13.4216H26.6592V11.2153Z" fill="white"/>
<path d="M26.6592 22.2466H24.4529V24.4529H26.6592V22.2466Z" fill="white"/>
<path d="M26.6592 26.6592H24.4529V28.8655H26.6592V26.6592Z" fill="white"/>
<path d="M26.6592 33.2778H24.4529V35.4841H26.6592V33.2778Z" fill="white"/>
<path d="M26.6592 39.897H24.4529V42.1033H26.6592V39.897Z" fill="white"/>
<path d="M26.6592 44.3091H24.4529V46.5154H26.6592V44.3091Z" fill="white"/>
<path d="M26.6592 46.5156H24.4529V48.7219H26.6592V46.5156Z" fill="white"/>
<path d="M26.6592 53.1348H24.4529V55.341H26.6592V53.1348Z" fill="white"/>
<path d="M26.6592 57.5469H24.4529V59.7532H26.6592V57.5469Z" fill="white"/>
<path d="M26.6592 59.7534H24.4529V61.9597H26.6592V59.7534Z" fill="white"/>
<path d="M26.6592 64.166H24.4529V66.3723H26.6592V64.166Z" fill="white"/>
<path d="M26.6592 70.7847H24.4529V72.9909H26.6592V70.7847Z" fill="white"/>
<path d="M26.6592 72.9912H24.4529V75.1975H26.6592V72.9912Z" fill="white"/>
<path d="M26.6592 75.1973H24.4529V77.4035H26.6592V75.1973Z" fill="white"/>
<path d="M26.6592 79.6099H24.4529V81.8161H26.6592V79.6099Z" fill="white"/>
<path d="M28.8655 2.39014H26.6592V4.59641H28.8655V2.39014Z" fill="white"/>
<path d="M28.8655 6.80273H26.6592V9.00901H28.8655V6.80273Z" fill="white"/>
<path d="M28.8655 11.2153H26.6592V13.4216H28.8655V11.2153Z" fill="white"/>
<path d="M28.8655 13.4214H26.6592V15.6277H28.8655V13.4214Z" fill="white"/>
<path d="M28.8655 20.0405H26.6592V22.2468H28.8655V20.0405Z" fill="white"/>
<path d="M28.8655 26.6592H26.6592V28.8655H28.8655V26.6592Z" fill="white"/>
<path d="M28.8655 28.8652H26.6592V31.0715H28.8655V28.8652Z" fill="white"/>
<path d="M28.8655 37.6909H26.6592V39.8972H28.8655V37.6909Z" fill="white"/>
<path d="M28.8655 39.897H26.6592V42.1033H28.8655V39.897Z" fill="white"/>
<path d="M28.8655 44.3091H26.6592V46.5154H28.8655V44.3091Z" fill="white"/>
<path d="M28.8655 46.5156H26.6592V48.7219H28.8655V46.5156Z" fill="white"/>
<path d="M28.8655 48.7222H26.6592V50.9284H28.8655V48.7222Z" fill="white"/>
<path d="M28.8655 50.9282H26.6592V53.1345H28.8655V50.9282Z" fill="white"/>
<path d="M28.8655 64.166H26.6592V66.3723H28.8655V64.166Z" fill="white"/>
<path d="M28.8655 66.3721H26.6592V68.5783H28.8655V66.3721Z" fill="white"/>
<path d="M28.8655 68.5786H26.6592V70.7849H28.8655V68.5786Z" fill="white"/>
<path d="M28.8655 72.9912H26.6592V75.1975H28.8655V72.9912Z" fill="white"/>
<path d="M28.8655 75.1973H26.6592V77.4035H28.8655V75.1973Z" fill="white"/>
<path d="M28.8655 77.4038H26.6592V79.6101H28.8655V77.4038Z" fill="white"/>
<path d="M31.0718 0.184082H28.8655V2.39036H31.0718V0.184082Z" fill="white"/>
<path d="M31.0718 2.39014H28.8655V4.59641H31.0718V2.39014Z" fill="white"/>
<path d="M31.0718 17.834H28.8655V20.0403H31.0718V17.834Z" fill="white"/>
<path d="M31.0718 22.2466H28.8655V24.4529H31.0718V22.2466Z" fill="white"/>
<path d="M31.0718 28.8652H28.8655V31.0715H31.0718V28.8652Z" fill="white"/>
<path d="M31.0718 33.2778H28.8655V35.4841H31.0718V33.2778Z" fill="white"/>
<path d="M31.0718 42.103H28.8655V44.3093H31.0718V42.103Z" fill="white"/>
<path d="M31.0718 44.3091H28.8655V46.5154H31.0718V44.3091Z" fill="white"/>
<path d="M31.0718 46.5156H28.8655V48.7219H31.0718V46.5156Z" fill="white"/>
<path d="M31.0718 50.9282H28.8655V53.1345H31.0718V50.9282Z" fill="white"/>
<path d="M31.0718 57.5469H28.8655V59.7532H31.0718V57.5469Z" fill="white"/>
<path d="M31.0718 59.7534H28.8655V61.9597H31.0718V59.7534Z" fill="white"/>
<path d="M31.0718 61.9595H28.8655V64.1658H31.0718V61.9595Z" fill="white"/>
<path d="M31.0718 64.166H28.8655V66.3723H31.0718V64.166Z" fill="white"/>
<path d="M31.0718 70.7847H28.8655V72.9909H31.0718V70.7847Z" fill="white"/>
<path d="M31.0718 75.1973H28.8655V77.4035H31.0718V75.1973Z" fill="white"/>
<path d="M31.0718 77.4038H28.8655V79.6101H31.0718V77.4038Z" fill="white"/>
<path d="M33.2781 0.184082H31.0718V2.39036H33.2781V0.184082Z" fill="white"/>
<path d="M33.2781 2.39014H31.0718V4.59641H33.2781V2.39014Z" fill="white"/>
<path d="M33.2781 11.2153H31.0718V13.4216H33.2781V11.2153Z" fill="white"/>
<path d="M33.2781 13.4214H31.0718V15.6277H33.2781V13.4214Z" fill="white"/>
<path d="M33.2781 15.6279H31.0718V17.8342H33.2781V15.6279Z" fill="white"/>
<path d="M33.2781 17.834H31.0718V20.0403H33.2781V17.834Z" fill="white"/>
<path d="M33.2781 24.4531H31.0718V26.6594H33.2781V24.4531Z" fill="white"/>
<path d="M33.2781 28.8652H31.0718V31.0715H33.2781V28.8652Z" fill="white"/>
<path d="M33.2781 31.0718H31.0718V33.2781H33.2781V31.0718Z" fill="white"/>
<path d="M33.2781 33.2778H31.0718V35.4841H33.2781V33.2778Z" fill="white"/>
<path d="M33.2781 35.4844H31.0718V37.6907H33.2781V35.4844Z" fill="white"/>
<path d="M33.2781 42.103H31.0718V44.3093H33.2781V42.103Z" fill="white"/>
<path d="M33.2781 44.3091H31.0718V46.5154H33.2781V44.3091Z" fill="white"/>
<path d="M33.2781 50.9282H31.0718V53.1345H33.2781V50.9282Z" fill="white"/>
<path d="M33.2781 55.3408H31.0718V57.5471H33.2781V55.3408Z" fill="white"/>
<path d="M33.2781 57.5469H31.0718V59.7532H33.2781V57.5469Z" fill="white"/>
<path d="M33.2781 59.7534H31.0718V61.9597H33.2781V59.7534Z" fill="white"/>
<path d="M33.2781 61.9595H31.0718V64.1658H33.2781V61.9595Z" fill="white"/>
<path d="M33.2781 66.3721H31.0718V68.5783H33.2781V66.3721Z" fill="white"/>
<path d="M33.2781 72.9912H31.0718V75.1975H33.2781V72.9912Z" fill="white"/>
<path d="M33.2781 75.1973H31.0718V77.4035H33.2781V75.1973Z" fill="white"/>
<path d="M35.4844 0.184082H33.2781V2.39036H35.4844V0.184082Z" fill="white"/>
<path d="M35.4844 6.80273H33.2781V9.00901H35.4844V6.80273Z" fill="white"/>
<path d="M35.4844 11.2153H33.2781V13.4216H35.4844V11.2153Z" fill="white"/>
<path d="M35.4844 15.6279H33.2781V17.8342H35.4844V15.6279Z" fill="white"/>
<path d="M35.4844 22.2466H33.2781V24.4529H35.4844V22.2466Z" fill="white"/>
<path d="M35.4844 26.6592H33.2781V28.8655H35.4844V26.6592Z" fill="white"/>
<path d="M35.4844 28.8652H33.2781V31.0715H35.4844V28.8652Z" fill="white"/>
<path d="M35.4844 33.2778H33.2781V35.4841H35.4844V33.2778Z" fill="white"/>
<path d="M35.4844 37.6909H33.2781V39.8972H35.4844V37.6909Z" fill="white"/>
<path d="M35.4844 42.103H33.2781V44.3093H35.4844V42.103Z" fill="white"/>
<path d="M35.4844 44.3091H33.2781V46.5154H35.4844V44.3091Z" fill="white"/>
<path d="M35.4844 48.7222H33.2781V50.9284H35.4844V48.7222Z" fill="white"/>
<path d="M35.4844 50.9282H33.2781V53.1345H35.4844V50.9282Z" fill="white"/>
<path d="M35.4844 57.5469H33.2781V59.7532H35.4844V57.5469Z" fill="white"/>
<path d="M35.4844 59.7534H33.2781V61.9597H35.4844V59.7534Z" fill="white"/>
<path d="M35.4844 61.9595H33.2781V64.1658H35.4844V61.9595Z" fill="white"/>
<path d="M35.4844 64.166H33.2781V66.3723H35.4844V64.166Z" fill="white"/>
<path d="M35.4844 66.3721H33.2781V68.5783H35.4844V66.3721Z" fill="white"/>
<path d="M35.4844 75.1973H33.2781V77.4035H35.4844V75.1973Z" fill="white"/>
<path d="M35.4844 77.4038H33.2781V79.6101H35.4844V77.4038Z" fill="white"/>
<path d="M37.6907 4.59619H35.4844V6.80247H37.6907V4.59619Z" fill="white"/>
<path d="M37.6907 6.80273H35.4844V9.00901H37.6907V6.80273Z" fill="white"/>
<path d="M37.6907 13.4214H35.4844V15.6277H37.6907V13.4214Z" fill="white"/>
<path d="M37.6907 22.2466H35.4844V24.4529H37.6907V22.2466Z" fill="white"/>
<path d="M37.6907 24.4531H35.4844V26.6594H37.6907V24.4531Z" fill="white"/>
<path d="M37.6907 31.0718H35.4844V33.2781H37.6907V31.0718Z" fill="white"/>
<path d="M37.6907 35.4844H35.4844V37.6907H37.6907V35.4844Z" fill="white"/>
<path d="M37.6907 37.6909H35.4844V39.8972H37.6907V37.6909Z" fill="white"/>
<path d="M37.6907 42.103H35.4844V44.3093H37.6907V42.103Z" fill="white"/>
<path d="M37.6907 48.7222H35.4844V50.9284H37.6907V48.7222Z" fill="white"/>
<path d="M37.6907 53.1348H35.4844V55.341H37.6907V53.1348Z" fill="white"/>
<path d="M37.6907 64.166H35.4844V66.3723H37.6907V64.166Z" fill="white"/>
<path d="M37.6907 66.3721H35.4844V68.5783H37.6907V66.3721Z" fill="white"/>
<path d="M37.6907 68.5786H35.4844V70.7849H37.6907V68.5786Z" fill="white"/>
<path d="M37.6907 72.9912H35.4844V75.1975H37.6907V72.9912Z" fill="white"/>
<path d="M37.6907 75.1973H35.4844V77.4035H37.6907V75.1973Z" fill="white"/>
<path d="M37.6907 79.6099H35.4844V81.8161H37.6907V79.6099Z" fill="white"/>
<path d="M39.897 0.184082H37.6907V2.39036H39.897V0.184082Z" fill="white"/>
<path d="M39.897 2.39014H37.6907V4.59641H39.897V2.39014Z" fill="white"/>
<path d="M39.897 6.80273H37.6907V9.00901H39.897V6.80273Z" fill="white"/>
<path d="M39.897 15.6279H37.6907V17.8342H39.897V15.6279Z" fill="white"/>
<path d="M39.897 17.834H37.6907V20.0403H39.897V17.834Z" fill="white"/>
<path d="M39.897 20.0405H37.6907V22.2468H39.897V20.0405Z" fill="white"/>
<path d="M39.897 26.6592H37.6907V28.8655H39.897V26.6592Z" fill="white"/>
<path d="M39.897 31.0718H37.6907V33.2781H39.897V31.0718Z" fill="white"/>
<path d="M39.897 35.4844H37.6907V37.6907H39.897V35.4844Z" fill="white"/>
<path d="M39.897 37.6909H37.6907V39.8972H39.897V37.6909Z" fill="white"/>
<path d="M39.897 39.897H37.6907V42.1033H39.897V39.897Z" fill="white"/>
<path d="M39.897 44.3091H37.6907V46.5154H39.897V44.3091Z" fill="white"/>
<path d="M39.897 46.5156H37.6907V48.7219H39.897V46.5156Z" fill="white"/>
<path d="M39.897 55.3408H37.6907V57.5471H39.897V55.3408Z" fill="white"/>
<path d="M39.897 59.7534H37.6907V61.9597H39.897V59.7534Z" fill="white"/>
<path d="M39.897 61.9595H37.6907V64.1658H39.897V61.9595Z" fill="white"/>
<path d="M39.897 68.5786H37.6907V70.7849H39.897V68.5786Z" fill="white"/>
<path d="M39.897 70.7847H37.6907V72.9909H39.897V70.7847Z" fill="white"/>
<path d="M42.1033 0.184082H39.897V2.39036H42.1033V0.184082Z" fill="white"/>
<path d="M42.1033 4.59619H39.897V6.80247H42.1033V4.59619Z" fill="white"/>
<path d="M42.1033 9.00879H39.897V11.2151H42.1033V9.00879Z" fill="white"/>
<path d="M42.1033 11.2153H39.897V13.4216H42.1033V11.2153Z" fill="white"/>
<path d="M42.1033 13.4214H39.897V15.6277H42.1033V13.4214Z" fill="white"/>
<path d="M42.1033 15.6279H39.897V17.8342H42.1033V15.6279Z" fill="white"/>
<path d="M42.1033 20.0405H39.897V22.2468H42.1033V20.0405Z" fill="white"/>
<path d="M42.1033 24.4531H39.897V26.6594H42.1033V24.4531Z" fill="white"/>
<path d="M42.1033 26.6592H39.897V28.8655H42.1033V26.6592Z" fill="white"/>
<path d="M42.1033 28.8652H39.897V31.0715H42.1033V28.8652Z" fill="white"/>
<path d="M42.1033 37.6909H39.897V39.8972H42.1033V37.6909Z" fill="white"/>
<path d="M42.1033 42.103H39.897V44.3093H42.1033V42.103Z" fill="white"/>
<path d="M42.1033 55.3408H39.897V57.5471H42.1033V55.3408Z" fill="white"/>
<path d="M42.1033 57.5469H39.897V59.7532H42.1033V57.5469Z" fill="white"/>
<path d="M42.1033 59.7534H39.897V61.9597H42.1033V59.7534Z" fill="white"/>
<path d="M42.1033 68.5786H39.897V70.7849H42.1033V68.5786Z" fill="white"/>
<path d="M42.1033 72.9912H39.897V75.1975H42.1033V72.9912Z" fill="white"/>
<path d="M42.1033 75.1973H39.897V77.4035H42.1033V75.1973Z" fill="white"/>
<path d="M44.3093 0.184082H42.103V2.39036H44.3093V0.184082Z" fill="white"/>
<path d="M44.3093 2.39014H42.103V4.59641H44.3093V2.39014Z" fill="white"/>
<path d="M44.3093 4.59619H42.103V6.80247H44.3093V4.59619Z" fill="white"/>
<path d="M44.3093 6.80273H42.103V9.00901H44.3093V6.80273Z" fill="white"/>
<path d="M44.3093 11.2153H42.103V13.4216H44.3093V11.2153Z" fill="white"/>
<path d="M44.3093 17.834H42.103V20.0403H44.3093V17.834Z" fill="white"/>
<path d="M44.3093 20.0405H42.103V22.2468H44.3093V20.0405Z" fill="white"/>
<path d="M44.3093 22.2466H42.103V24.4529H44.3093V22.2466Z" fill="white"/>
<path d="M44.3093 26.6592H42.103V28.8655H44.3093V26.6592Z" fill="white"/>
<path d="M44.3093 28.8652H42.103V31.0715H44.3093V28.8652Z" fill="white"/>
<path d="M44.3093 33.2778H42.103V35.4841H44.3093V33.2778Z" fill="white"/>
<path d="M44.3093 37.6909H42.103V39.8972H44.3093V37.6909Z" fill="white"/>
<path d="M44.3093 42.103H42.103V44.3093H44.3093V42.103Z" fill="white"/>
<path d="M44.3093 46.5156H42.103V48.7219H44.3093V46.5156Z" fill="white"/>
<path d="M44.3093 48.7222H42.103V50.9284H44.3093V48.7222Z" fill="white"/>
<path d="M44.3093 53.1348H42.103V55.341H44.3093V53.1348Z" fill="white"/>
<path d="M44.3093 57.5469H42.103V59.7532H44.3093V57.5469Z" fill="white"/>
<path d="M44.3093 68.5786H42.103V70.7849H44.3093V68.5786Z" fill="white"/>
<path d="M44.3093 75.1973H42.103V77.4035H44.3093V75.1973Z" fill="white"/>
<path d="M46.5156 13.4214H44.3093V15.6277H46.5156V13.4214Z" fill="white"/>
<path d="M46.5156 15.6279H44.3093V17.8342H46.5156V15.6279Z" fill="white"/>
<path d="M46.5156 22.2466H44.3093V24.4529H46.5156V22.2466Z" fill="white"/>
<path d="M46.5156 24.4531H44.3093V26.6594H46.5156V24.4531Z" fill="white"/>
<path d="M46.5156 26.6592H44.3093V28.8655H46.5156V26.6592Z" fill="white"/>
<path d="M46.5156 28.8652H44.3093V31.0715H46.5156V28.8652Z" fill="white"/>
<path d="M46.5156 31.0718H44.3093V33.2781H46.5156V31.0718Z" fill="white"/>
<path d="M46.5156 35.4844H44.3093V37.6907H46.5156V35.4844Z" fill="white"/>
<path d="M46.5156 37.6909H44.3093V39.8972H46.5156V37.6909Z" fill="white"/>
<path d="M46.5156 39.897H44.3093V42.1033H46.5156V39.897Z" fill="white"/>
<path d="M46.5156 44.3091H44.3093V46.5154H46.5156V44.3091Z" fill="white"/>
<path d="M46.5156 46.5156H44.3093V48.7219H46.5156V46.5156Z" fill="white"/>
<path d="M46.5156 48.7222H44.3093V50.9284H46.5156V48.7222Z" fill="white"/>
<path d="M46.5156 50.9282H44.3093V53.1345H46.5156V50.9282Z" fill="white"/>
<path d="M46.5156 53.1348H44.3093V55.341H46.5156V53.1348Z" fill="white"/>
<path d="M46.5156 59.7534H44.3093V61.9597H46.5156V59.7534Z" fill="white"/>
<path d="M46.5156 64.166H44.3093V66.3723H46.5156V64.166Z" fill="white"/>
<path d="M46.5156 66.3721H44.3093V68.5783H46.5156V66.3721Z" fill="white"/>
<path d="M46.5156 75.1973H44.3093V77.4035H46.5156V75.1973Z" fill="white"/>
<path d="M46.5156 77.4038H44.3093V79.6101H46.5156V77.4038Z" fill="white"/>
<path d="M46.5156 79.6099H44.3093V81.8161H46.5156V79.6099Z" fill="white"/>
<path d="M48.7219 4.59619H46.5156V6.80247H48.7219V4.59619Z" fill="white"/>
<path d="M48.7219 11.2153H46.5156V13.4216H48.7219V11.2153Z" fill="white"/>
<path d="M48.7219 15.6279H46.5156V17.8342H48.7219V15.6279Z" fill="white"/>
<path d="M48.7219 17.834H46.5156V20.0403H48.7219V17.834Z" fill="white"/>
<path d="M48.7219 31.0718H46.5156V33.2781H48.7219V31.0718Z" fill="white"/>
<path d="M48.7219 33.2778H46.5156V35.4841H48.7219V33.2778Z" fill="white"/>
<path d="M48.7219 37.6909H46.5156V39.8972H48.7219V37.6909Z" fill="white"/>
<path d="M48.7219 50.9282H46.5156V53.1345H48.7219V50.9282Z" fill="white"/>
<path d="M48.7219 53.1348H46.5156V55.341H48.7219V53.1348Z" fill="white"/>
<path d="M48.7219 57.5469H46.5156V59.7532H48.7219V57.5469Z" fill="white"/>
<path d="M48.7219 59.7534H46.5156V61.9597H48.7219V59.7534Z" fill="white"/>
<path d="M48.7219 64.166H46.5156V66.3723H48.7219V64.166Z" fill="white"/>
<path d="M48.7219 70.7847H46.5156V72.9909H48.7219V70.7847Z" fill="white"/>
<path d="M48.7219 77.4038H46.5156V79.6101H48.7219V77.4038Z" fill="white"/>
<path d="M50.9282 2.39014H48.7219V4.59641H50.9282V2.39014Z" fill="white"/>
<path d="M50.9282 6.80273H48.7219V9.00901H50.9282V6.80273Z" fill="white"/>
<path d="M50.9282 11.2153H48.7219V13.4216H50.9282V11.2153Z" fill="white"/>
<path d="M50.9282 13.4214H48.7219V15.6277H50.9282V13.4214Z" fill="white"/>
<path d="M50.9282 20.0405H48.7219V22.2468H50.9282V20.0405Z" fill="white"/>
<path d="M50.9282 22.2466H48.7219V24.4529H50.9282V22.2466Z" fill="white"/>
<path d="M50.9282 24.4531H48.7219V26.6594H50.9282V24.4531Z" fill="white"/>
<path d="M50.9282 26.6592H48.7219V28.8655H50.9282V26.6592Z" fill="white"/>
<path d="M50.9282 28.8652H48.7219V31.0715H50.9282V28.8652Z" fill="white"/>
<path d="M50.9282 33.2778H48.7219V35.4841H50.9282V33.2778Z" fill="white"/>
<path d="M50.9282 37.6909H48.7219V39.8972H50.9282V37.6909Z" fill="white"/>
<path d="M50.9282 42.103H48.7219V44.3093H50.9282V42.103Z" fill="white"/>
<path d="M50.9282 46.5156H48.7219V48.7219H50.9282V46.5156Z" fill="white"/>
<path d="M50.9282 48.7222H48.7219V50.9284H50.9282V48.7222Z" fill="white"/>
<path d="M50.9282 50.9282H48.7219V53.1345H50.9282V50.9282Z" fill="white"/>
<path d="M50.9282 55.3408H48.7219V57.5471H50.9282V55.3408Z" fill="white"/>
<path d="M50.9282 57.5469H48.7219V59.7532H50.9282V57.5469Z" fill="white"/>
<path d="M50.9282 59.7534H48.7219V61.9597H50.9282V59.7534Z" fill="white"/>
<path d="M50.9282 61.9595H48.7219V64.1658H50.9282V61.9595Z" fill="white"/>
<path d="M50.9282 77.4038H48.7219V79.6101H50.9282V77.4038Z" fill="white"/>
<path d="M53.1345 4.59619H50.9282V6.80247H53.1345V4.59619Z" fill="white"/>
<path d="M53.1345 6.80273H50.9282V9.00901H53.1345V6.80273Z" fill="white"/>
<path d="M53.1345 9.00879H50.9282V11.2151H53.1345V9.00879Z" fill="white"/>
<path d="M53.1345 15.6279H50.9282V17.8342H53.1345V15.6279Z" fill="white"/>
<path d="M53.1345 17.834H50.9282V20.0403H53.1345V17.834Z" fill="white"/>
<path d="M53.1345 22.2466H50.9282V24.4529H53.1345V22.2466Z" fill="white"/>
<path d="M53.1345 24.4531H50.9282V26.6594H53.1345V24.4531Z" fill="white"/>
<path d="M53.1345 26.6592H50.9282V28.8655H53.1345V26.6592Z" fill="white"/>
<path d="M53.1345 28.8652H50.9282V31.0715H53.1345V28.8652Z" fill="white"/>
<path d="M53.1345 39.897H50.9282V42.1033H53.1345V39.897Z" fill="white"/>
<path d="M53.1345 46.5156H50.9282V48.7219H53.1345V46.5156Z" fill="white"/>
<path d="M53.1345 48.7222H50.9282V50.9284H53.1345V48.7222Z" fill="white"/>
<path d="M53.1345 55.3408H50.9282V57.5471H53.1345V55.3408Z" fill="white"/>
<path d="M53.1345 61.9595H50.9282V64.1658H53.1345V61.9595Z" fill="white"/>
<path d="M53.1345 66.3721H50.9282V68.5783H53.1345V66.3721Z" fill="white"/>
<path d="M53.1345 68.5786H50.9282V70.7849H53.1345V68.5786Z" fill="white"/>
<path d="M53.1345 75.1973H50.9282V77.4035H53.1345V75.1973Z" fill="white"/>
<path d="M53.1345 79.6099H50.9282V81.8161H53.1345V79.6099Z" fill="white"/>
<path d="M55.3408 2.39014H53.1345V4.59641H55.3408V2.39014Z" fill="white"/>
<path d="M55.3408 4.59619H53.1345V6.80247H55.3408V4.59619Z" fill="white"/>
<path d="M55.3408 6.80273H53.1345V9.00901H55.3408V6.80273Z" fill="white"/>
<path d="M55.3408 9.00879H53.1345V11.2151H55.3408V9.00879Z" fill="white"/>
<path d="M55.3408 13.4214H53.1345V15.6277H55.3408V13.4214Z" fill="white"/>
<path d="M55.3408 15.6279H53.1345V17.8342H55.3408V15.6279Z" fill="white"/>
<path d="M55.3408 20.0405H53.1345V22.2468H55.3408V20.0405Z" fill="white"/>
<path d="M55.3408 22.2466H53.1345V24.4529H55.3408V22.2466Z" fill="white"/>
<path d="M55.3408 24.4531H53.1345V26.6594H55.3408V24.4531Z" fill="white"/>
<path d="M55.3408 26.6592H53.1345V28.8655H55.3408V26.6592Z" fill="white"/>
<path d="M55.3408 35.4844H53.1345V37.6907H55.3408V35.4844Z" fill="white"/>
<path d="M55.3408 37.6909H53.1345V39.8972H55.3408V37.6909Z" fill="white"/>
<path d="M55.3408 39.897H53.1345V42.1033H55.3408V39.897Z" fill="white"/>
<path d="M55.3408 46.5156H53.1345V48.7219H55.3408V46.5156Z" fill="white"/>
<path d="M55.3408 48.7222H53.1345V50.9284H55.3408V48.7222Z" fill="white"/>
<path d="M55.3408 53.1348H53.1345V55.341H55.3408V53.1348Z" fill="white"/>
<path d="M55.3408 55.3408H53.1345V57.5471H55.3408V55.3408Z" fill="white"/>
<path d="M55.3408 59.7534H53.1345V61.9597H55.3408V59.7534Z" fill="white"/>
<path d="M55.3408 61.9595H53.1345V64.1658H55.3408V61.9595Z" fill="white"/>
<path d="M55.3408 66.3721H53.1345V68.5783H55.3408V66.3721Z" fill="white"/>
<path d="M55.3408 72.9912H53.1345V75.1975H55.3408V72.9912Z" fill="white"/>
<path d="M55.3408 75.1973H53.1345V77.4035H55.3408V75.1973Z" fill="white"/>
<path d="M55.3408 77.4038H53.1345V79.6101H55.3408V77.4038Z" fill="white"/>
<path d="M55.3408 79.6099H53.1345V81.8161H55.3408V79.6099Z" fill="white"/>
<path d="M57.5471 0.184082H55.3408V2.39036H57.5471V0.184082Z" fill="white"/>
<path d="M57.5471 2.39014H55.3408V4.59641H57.5471V2.39014Z" fill="white"/>
<path d="M57.5471 4.59619H55.3408V6.80247H57.5471V4.59619Z" fill="white"/>
<path d="M57.5471 15.6279H55.3408V17.8342H57.5471V15.6279Z" fill="white"/>
<path d="M57.5471 20.0405H55.3408V22.2468H57.5471V20.0405Z" fill="white"/>
<path d="M57.5471 22.2466H55.3408V24.4529H57.5471V22.2466Z" fill="white"/>
<path d="M57.5471 24.4531H55.3408V26.6594H57.5471V24.4531Z" fill="white"/>
<path d="M57.5471 31.0718H55.3408V33.2781H57.5471V31.0718Z" fill="white"/>
<path d="M57.5471 44.3091H55.3408V46.5154H57.5471V44.3091Z" fill="white"/>
<path d="M57.5471 48.7222H55.3408V50.9284H57.5471V48.7222Z" fill="white"/>
<path d="M57.5471 50.9282H55.3408V53.1345H57.5471V50.9282Z" fill="white"/>
<path d="M57.5471 53.1348H55.3408V55.341H57.5471V53.1348Z" fill="white"/>
<path d="M57.5471 55.3408H55.3408V57.5471H57.5471V55.3408Z" fill="white"/>
<path d="M57.5471 57.5469H55.3408V59.7532H57.5471V57.5469Z" fill="white"/>
<path d="M57.5471 59.7534H55.3408V61.9597H57.5471V59.7534Z" fill="white"/>
<path d="M57.5471 64.166H55.3408V66.3723H57.5471V64.166Z" fill="white"/>
<path d="M57.5471 68.5786H55.3408V70.7849H57.5471V68.5786Z" fill="white"/>
<path d="M57.5471 70.7847H55.3408V72.9909H57.5471V70.7847Z" fill="white"/>
<path d="M57.5471 72.9912H55.3408V75.1975H57.5471V72.9912Z" fill="white"/>
<path d="M59.7534 4.59619H57.5471V6.80247H59.7534V4.59619Z" fill="white"/>
<path d="M59.7534 9.00879H57.5471V11.2151H59.7534V9.00879Z" fill="white"/>
<path d="M59.7534 13.4214H57.5471V15.6277H59.7534V13.4214Z" fill="white"/>
<path d="M59.7534 15.6279H57.5471V17.8342H59.7534V15.6279Z" fill="white"/>
<path d="M59.7534 17.834H57.5471V20.0403H59.7534V17.834Z" fill="white"/>
<path d="M59.7534 20.0405H57.5471V22.2468H59.7534V20.0405Z" fill="white"/>
<path d="M59.7534 28.8652H57.5471V31.0715H59.7534V28.8652Z" fill="white"/>
<path d="M59.7534 35.4844H57.5471V37.6907H59.7534V35.4844Z" fill="white"/>
<path d="M59.7534 37.6909H57.5471V39.8972H59.7534V37.6909Z" fill="white"/>
<path d="M59.7534 39.897H57.5471V42.1033H59.7534V39.897Z" fill="white"/>
<path d="M59.7534 46.5156H57.5471V48.7219H59.7534V46.5156Z" fill="white"/>
<path d="M59.7534 50.9282H57.5471V53.1345H59.7534V50.9282Z" fill="white"/>
<path d="M59.7534 53.1348H57.5471V55.341H59.7534V53.1348Z" fill="white"/>
<path d="M59.7534 59.7534H57.5471V61.9597H59.7534V59.7534Z" fill="white"/>
<path d="M59.7534 64.166H57.5471V66.3723H59.7534V64.166Z" fill="white"/>
<path d="M59.7534 68.5786H57.5471V70.7849H59.7534V68.5786Z" fill="white"/>
<path d="M59.7534 77.4038H57.5471V79.6101H59.7534V77.4038Z" fill="white"/>
<path d="M61.9597 6.80273H59.7534V9.00901H61.9597V6.80273Z" fill="white"/>
<path d="M61.9597 9.00879H59.7534V11.2151H61.9597V9.00879Z" fill="white"/>
<path d="M61.9597 11.2153H59.7534V13.4216H61.9597V11.2153Z" fill="white"/>
<path d="M61.9597 17.834H59.7534V20.0403H61.9597V17.834Z" fill="white"/>
<path d="M61.9597 20.0405H59.7534V22.2468H61.9597V20.0405Z" fill="white"/>
<path d="M61.9597 22.2466H59.7534V24.4529H61.9597V22.2466Z" fill="white"/>
<path d="M61.9597 28.8652H59.7534V31.0715H61.9597V28.8652Z" fill="white"/>
<path d="M61.9597 33.2778H59.7534V35.4841H61.9597V33.2778Z" fill="white"/>
<path d="M61.9597 39.897H59.7534V42.1033H61.9597V39.897Z" fill="white"/>
<path d="M61.9597 42.103H59.7534V44.3093H61.9597V42.103Z" fill="white"/>
<path d="M61.9597 46.5156H59.7534V48.7219H61.9597V46.5156Z" fill="white"/>
<path d="M61.9597 48.7222H59.7534V50.9284H61.9597V48.7222Z" fill="white"/>
<path d="M61.9597 57.5469H59.7534V59.7532H61.9597V57.5469Z" fill="white"/>
<path d="M61.9597 59.7534H59.7534V61.9597H61.9597V59.7534Z" fill="white"/>
<path d="M61.9597 61.9595H59.7534V64.1658H61.9597V61.9595Z" fill="white"/>
<path d="M61.9597 66.3721H59.7534V68.5783H61.9597V66.3721Z" fill="white"/>
<path d="M61.9597 70.7847H59.7534V72.9909H61.9597V70.7847Z" fill="white"/>
<path d="M61.9597 72.9912H59.7534V75.1975H61.9597V72.9912Z" fill="white"/>
<path d="M61.9597 75.1973H59.7534V77.4035H61.9597V75.1973Z" fill="white"/>
<path d="M61.9597 77.4038H59.7534V79.6101H61.9597V77.4038Z" fill="white"/>
<path d="M64.1658 0.184082H61.9595V2.39036H64.1658V0.184082Z" fill="white"/>
<path d="M64.1658 2.39014H61.9595V4.59641H64.1658V2.39014Z" fill="white"/>
<path d="M64.1658 11.2153H61.9595V13.4216H64.1658V11.2153Z" fill="white"/>
<path d="M64.1658 13.4214H61.9595V15.6277H64.1658V13.4214Z" fill="white"/>
<path d="M64.1658 17.834H61.9595V20.0403H64.1658V17.834Z" fill="white"/>
<path d="M64.1658 24.4531H61.9595V26.6594H64.1658V24.4531Z" fill="white"/>
<path d="M64.1658 26.6592H61.9595V28.8655H64.1658V26.6592Z" fill="white"/>
<path d="M64.1658 28.8652H61.9595V31.0715H64.1658V28.8652Z" fill="white"/>
<path d="M64.1658 31.0718H61.9595V33.2781H64.1658V31.0718Z" fill="white"/>
<path d="M64.1658 33.2778H61.9595V35.4841H64.1658V33.2778Z" fill="white"/>
<path d="M64.1658 35.4844H61.9595V37.6907H64.1658V35.4844Z" fill="white"/>
<path d="M64.1658 37.6909H61.9595V39.8972H64.1658V37.6909Z" fill="white"/>
<path d="M64.1658 42.103H61.9595V44.3093H64.1658V42.103Z" fill="white"/>
<path d="M64.1658 46.5156H61.9595V48.7219H64.1658V46.5156Z" fill="white"/>
<path d="M64.1658 61.9595H61.9595V64.1658H64.1658V61.9595Z" fill="white"/>
<path d="M64.1658 64.166H61.9595V66.3723H64.1658V64.166Z" fill="white"/>
<path d="M64.1658 66.3721H61.9595V68.5783H64.1658V66.3721Z" fill="white"/>
<path d="M64.1658 68.5786H61.9595V70.7849H64.1658V68.5786Z" fill="white"/>
<path d="M64.1658 70.7847H61.9595V72.9909H64.1658V70.7847Z" fill="white"/>
<path d="M64.1658 72.9912H61.9595V75.1975H64.1658V72.9912Z" fill="white"/>
<path d="M64.1658 75.1973H61.9595V77.4035H64.1658V75.1973Z" fill="white"/>
<path d="M64.1658 79.6099H61.9595V81.8161H64.1658V79.6099Z" fill="white"/>
<path d="M66.3723 17.834H64.166V20.0403H66.3723V17.834Z" fill="white"/>
<path d="M66.3723 20.0405H64.166V22.2468H66.3723V20.0405Z" fill="white"/>
<path d="M66.3723 22.2466H64.166V24.4529H66.3723V22.2466Z" fill="white"/>
<path d="M66.3723 26.6592H64.166V28.8655H66.3723V26.6592Z" fill="white"/>
<path d="M66.3723 33.2778H64.166V35.4841H66.3723V33.2778Z" fill="white"/>
<path d="M66.3723 35.4844H64.166V37.6907H66.3723V35.4844Z" fill="white"/>
<path d="M66.3723 37.6909H64.166V39.8972H66.3723V37.6909Z" fill="white"/>
<path d="M66.3723 39.897H64.166V42.1033H66.3723V39.897Z" fill="white"/>
<path d="M66.3723 48.7222H64.166V50.9284H66.3723V48.7222Z" fill="white"/>
<path d="M66.3723 50.9282H64.166V53.1345H66.3723V50.9282Z" fill="white"/>
<path d="M66.3723 55.3408H64.166V57.5471H66.3723V55.3408Z" fill="white"/>
<path d="M66.3723 59.7534H64.166V61.9597H66.3723V59.7534Z" fill="white"/>
<path d="M66.3723 61.9595H64.166V64.1658H66.3723V61.9595Z" fill="white"/>
<path d="M66.3723 70.7847H64.166V72.9909H66.3723V70.7847Z" fill="white"/>
<path d="M66.3723 72.9912H64.166V75.1975H66.3723V72.9912Z" fill="white"/>
<path d="M66.3723 77.4038H64.166V79.6101H66.3723V77.4038Z" fill="white"/>
<path d="M68.5786 22.2466H66.3723V24.4529H68.5786V22.2466Z" fill="white"/>
<path d="M68.5786 33.2778H66.3723V35.4841H68.5786V33.2778Z" fill="white"/>
<path d="M68.5786 37.6909H66.3723V39.8972H68.5786V37.6909Z" fill="white"/>
<path d="M68.5786 39.897H66.3723V42.1033H68.5786V39.897Z" fill="white"/>
<path d="M68.5786 46.5156H66.3723V48.7219H68.5786V46.5156Z" fill="white"/>
<path d="M68.5786 48.7222H66.3723V50.9284H68.5786V48.7222Z" fill="white"/>
<path d="M68.5786 50.9282H66.3723V53.1345H68.5786V50.9282Z" fill="white"/>
<path d="M68.5786 57.5469H66.3723V59.7532H68.5786V57.5469Z" fill="white"/>
<path d="M68.5786 61.9595H66.3723V64.1658H68.5786V61.9595Z" fill="white"/>
<path d="M68.5786 66.3721H66.3723V68.5783H68.5786V66.3721Z" fill="white"/>
<path d="M68.5786 70.7847H66.3723V72.9909H68.5786V70.7847Z" fill="white"/>
<path d="M68.5786 72.9912H66.3723V75.1975H68.5786V72.9912Z" fill="white"/>
<path d="M68.5786 75.1973H66.3723V77.4035H68.5786V75.1973Z" fill="white"/>
<path d="M70.7846 20.0405H68.5784V22.2468H70.7846V20.0405Z" fill="white"/>
<path d="M70.7846 22.2466H68.5784V24.4529H70.7846V22.2466Z" fill="white"/>
<path d="M70.7846 26.6592H68.5784V28.8655H70.7846V26.6592Z" fill="white"/>
<path d="M70.7846 28.8652H68.5784V31.0715H70.7846V28.8652Z" fill="white"/>
<path d="M70.7846 31.0718H68.5784V33.2781H70.7846V31.0718Z" fill="white"/>
<path d="M70.7846 33.2778H68.5784V35.4841H70.7846V33.2778Z" fill="white"/>
<path d="M70.7846 35.4844H68.5784V37.6907H70.7846V35.4844Z" fill="white"/>
<path d="M70.7846 37.6909H68.5784V39.8972H70.7846V37.6909Z" fill="white"/>
<path d="M70.7846 39.897H68.5784V42.1033H70.7846V39.897Z" fill="white"/>
<path d="M70.7846 42.103H68.5784V44.3093H70.7846V42.103Z" fill="white"/>
<path d="M70.7846 44.3091H68.5784V46.5154H70.7846V44.3091Z" fill="white"/>
<path d="M70.7846 46.5156H68.5784V48.7219H70.7846V46.5156Z" fill="white"/>
<path d="M70.7846 50.9282H68.5784V53.1345H70.7846V50.9282Z" fill="white"/>
<path d="M70.7846 57.5469H68.5784V59.7532H70.7846V57.5469Z" fill="white"/>
<path d="M70.7846 61.9595H68.5784V64.1658H70.7846V61.9595Z" fill="white"/>
<path d="M70.7846 70.7847H68.5784V72.9909H70.7846V70.7847Z" fill="white"/>
<path d="M70.7846 75.1973H68.5784V77.4035H70.7846V75.1973Z" fill="white"/>
<path d="M72.9909 17.834H70.7847V20.0403H72.9909V17.834Z" fill="white"/>
<path d="M72.9909 20.0405H70.7847V22.2468H72.9909V20.0405Z" fill="white"/>
<path d="M72.9909 22.2466H70.7847V24.4529H72.9909V22.2466Z" fill="white"/>
<path d="M72.9909 24.4531H70.7847V26.6594H72.9909V24.4531Z" fill="white"/>
<path d="M72.9909 28.8652H70.7847V31.0715H72.9909V28.8652Z" fill="white"/>
<path d="M72.9909 31.0718H70.7847V33.2781H72.9909V31.0718Z" fill="white"/>
<path d="M72.9909 33.2778H70.7847V35.4841H72.9909V33.2778Z" fill="white"/>
<path d="M72.9909 35.4844H70.7847V37.6907H72.9909V35.4844Z" fill="white"/>
<path d="M72.9909 39.897H70.7847V42.1033H72.9909V39.897Z" fill="white"/>
<path d="M72.9909 42.103H70.7847V44.3093H72.9909V42.103Z" fill="white"/>
<path d="M72.9909 44.3091H70.7847V46.5154H72.9909V44.3091Z" fill="white"/>
<path d="M72.9909 61.9595H70.7847V64.1658H72.9909V61.9595Z" fill="white"/>
<path d="M72.9909 64.166H70.7847V66.3723H72.9909V64.166Z" fill="white"/>
<path d="M72.9909 66.3721H70.7847V68.5783H72.9909V66.3721Z" fill="white"/>
<path d="M72.9909 68.5786H70.7847V70.7849H72.9909V68.5786Z" fill="white"/>
<path d="M72.9909 70.7847H70.7847V72.9909H72.9909V70.7847Z" fill="white"/>
<path d="M72.9909 72.9912H70.7847V75.1975H72.9909V72.9912Z" fill="white"/>
<path d="M72.9909 75.1973H70.7847V77.4035H72.9909V75.1973Z" fill="white"/>
<path d="M72.9909 79.6099H70.7847V81.8161H72.9909V79.6099Z" fill="white"/>
<path d="M75.1972 20.0405H72.991V22.2468H75.1972V20.0405Z" fill="white"/>
<path d="M75.1972 26.6592H72.991V28.8655H75.1972V26.6592Z" fill="white"/>
<path d="M75.1972 28.8652H72.991V31.0715H75.1972V28.8652Z" fill="white"/>
<path d="M75.1972 31.0718H72.991V33.2781H75.1972V31.0718Z" fill="white"/>
<path d="M75.1972 33.2778H72.991V35.4841H75.1972V33.2778Z" fill="white"/>
<path d="M75.1972 37.6909H72.991V39.8972H75.1972V37.6909Z" fill="white"/>
<path d="M75.1972 42.103H72.991V44.3093H75.1972V42.103Z" fill="white"/>
<path d="M75.1972 48.7222H72.991V50.9284H75.1972V48.7222Z" fill="white"/>
<path d="M75.1972 53.1348H72.991V55.341H75.1972V53.1348Z" fill="white"/>
<path d="M75.1972 55.3408H72.991V57.5471H75.1972V55.3408Z" fill="white"/>
<path d="M75.1972 61.9595H72.991V64.1658H75.1972V61.9595Z" fill="white"/>
<path d="M75.1972 66.3721H72.991V68.5783H75.1972V66.3721Z" fill="white"/>
<path d="M75.1972 72.9912H72.991V75.1975H75.1972V72.9912Z" fill="white"/>
<path d="M75.1972 75.1973H72.991V77.4035H75.1972V75.1973Z" fill="white"/>
<path d="M75.1972 77.4038H72.991V79.6101H75.1972V77.4038Z" fill="white"/>
<path d="M77.4035 28.8652H75.1973V31.0715H77.4035V28.8652Z" fill="white"/>
<path d="M77.4035 33.2778H75.1973V35.4841H77.4035V33.2778Z" fill="white"/>
<path d="M77.4035 35.4844H75.1973V37.6907H77.4035V35.4844Z" fill="white"/>
<path d="M77.4035 37.6909H75.1973V39.8972H77.4035V37.6909Z" fill="white"/>
<path d="M77.4035 39.897H75.1973V42.1033H77.4035V39.897Z" fill="white"/>
<path d="M77.4035 42.103H75.1973V44.3093H77.4035V42.103Z" fill="white"/>
<path d="M77.4035 50.9282H75.1973V53.1345H77.4035V50.9282Z" fill="white"/>
<path d="M77.4035 53.1348H75.1973V55.341H77.4035V53.1348Z" fill="white"/>
<path d="M77.4035 57.5469H75.1973V59.7532H77.4035V57.5469Z" fill="white"/>
<path d="M77.4035 59.7534H75.1973V61.9597H77.4035V59.7534Z" fill="white"/>
<path d="M77.4035 61.9595H75.1973V64.1658H77.4035V61.9595Z" fill="white"/>
<path d="M77.4035 66.3721H75.1973V68.5783H77.4035V66.3721Z" fill="white"/>
<path d="M77.4035 68.5786H75.1973V70.7849H77.4035V68.5786Z" fill="white"/>
<path d="M77.4035 72.9912H75.1973V75.1975H77.4035V72.9912Z" fill="white"/>
<path d="M77.4035 75.1973H75.1973V77.4035H77.4035V75.1973Z" fill="white"/>
<path d="M77.4035 77.4038H75.1973V79.6101H77.4035V77.4038Z" fill="white"/>
<path d="M79.6098 17.834H77.4036V20.0403H79.6098V17.834Z" fill="white"/>
<path d="M79.6098 22.2466H77.4036V24.4529H79.6098V22.2466Z" fill="white"/>
<path d="M79.6098 28.8652H77.4036V31.0715H79.6098V28.8652Z" fill="white"/>
<path d="M79.6098 33.2778H77.4036V35.4841H79.6098V33.2778Z" fill="white"/>
<path d="M79.6098 35.4844H77.4036V37.6907H79.6098V35.4844Z" fill="white"/>
<path d="M79.6098 37.6909H77.4036V39.8972H79.6098V37.6909Z" fill="white"/>
<path d="M79.6098 42.103H77.4036V44.3093H79.6098V42.103Z" fill="white"/>
<path d="M79.6098 44.3091H77.4036V46.5154H79.6098V44.3091Z" fill="white"/>
<path d="M79.6098 46.5156H77.4036V48.7219H79.6098V46.5156Z" fill="white"/>
<path d="M79.6098 48.7222H77.4036V50.9284H79.6098V48.7222Z" fill="white"/>
<path d="M79.6098 50.9282H77.4036V53.1345H79.6098V50.9282Z" fill="white"/>
<path d="M79.6098 57.5469H77.4036V59.7532H79.6098V57.5469Z" fill="white"/>
<path d="M79.6098 59.7534H77.4036V61.9597H79.6098V59.7534Z" fill="white"/>
<path d="M79.6098 64.166H77.4036V66.3723H79.6098V64.166Z" fill="white"/>
<path d="M79.6098 68.5786H77.4036V70.7849H79.6098V68.5786Z" fill="white"/>
<path d="M79.6098 75.1973H77.4036V77.4035H79.6098V75.1973Z" fill="white"/>
<path d="M79.6098 77.4038H77.4036V79.6101H79.6098V77.4038Z" fill="white"/>
<path d="M81.8161 26.6592H79.6099V28.8655H81.8161V26.6592Z" fill="white"/>
<path d="M81.8161 37.6909H79.6099V39.8972H81.8161V37.6909Z" fill="white"/>
<path d="M81.8161 39.897H79.6099V42.1033H81.8161V39.897Z" fill="white"/>
<path d="M81.8161 46.5156H79.6099V48.7219H81.8161V46.5156Z" fill="white"/>
<path d="M81.8161 59.7534H79.6099V61.9597H81.8161V59.7534Z" fill="white"/>
<path d="M81.8161 64.166H79.6099V66.3723H81.8161V64.166Z" fill="white"/>
<path d="M81.8161 70.7847H79.6099V72.9909H81.8161V70.7847Z" fill="white"/>
<path d="M81.8161 75.1973H79.6099V77.4035H81.8161V75.1973Z" fill="white"/>
<path d="M81.8161 77.4038H79.6099V79.6101H81.8161V77.4038Z" fill="white"/>
<path d="M81.8161 79.6099H79.6099V81.8161H81.8161V79.6099Z" fill="white"/>
<path fill-rule="evenodd" clip-rule="evenodd" d="M0.183838 0.184082V15.628H15.6278V0.184082H0.183838ZM2.39012 2.39036H13.4215V13.4218H2.39012V2.39036Z" fill="white"/>
<path d="M11.2153 4.59619H4.59644V11.215H11.2153V4.59619Z" fill="white"/>
<path fill-rule="evenodd" clip-rule="evenodd" d="M81.8162 0.184082L66.3722 0.184082V15.628L81.8162 15.628V0.184082ZM79.6099 2.39036V13.4218H68.5785V2.39036L79.6099 2.39036Z" fill="white"/>
<path d="M77.4036 11.215V4.59619H70.7847V11.215H77.4036Z" fill="white"/>
<path fill-rule="evenodd" clip-rule="evenodd" d="M0.183838 81.8159H15.6278L15.6278 66.372H0.183838L0.183838 81.8159ZM2.39012 79.6096L2.39012 68.5782H13.4215V79.6096H2.39012Z" fill="white"/>
<path d="M4.59644 70.785V77.4038H11.2153V70.785H4.59644Z" fill="white"/>
</mask>
<g mask="url(#mask0_3106_3510)">
<path d="M86.9641 -4.96436H-4.96411V86.9639H86.9641V-4.96436Z" fill="black"/>
</g>
</g>
<defs>
<clipPath id="clip0_3106_3510">
<rect width="82" height="82" fill="white"/>
</clipPath>
</defs>
</svg>
