<svg width="129" height="28" viewBox="0 0 129 28" fill="none" xmlns="http://www.w3.org/2000/svg">
<path d="M70.7957 3.36747C71.8482 1.57746 73.9182 0.629965 75.9532 0.594965C77.8132 0.489965 79.8832 0.769967 81.1807 2.24497C80.5132 3.12247 79.8832 3.99997 79.2507 4.87747C78.5132 4.03497 77.9182 2.84246 76.7232 2.59746C75.5657 2.24746 74.0907 2.84247 73.7757 4.10747C73.2857 6.10747 73.5657 8.17747 73.4957 10.1775H77.2857V12.4225H73.4957C73.4957 15.825 73.4957 19.23 73.4957 22.6325C73.4957 23.615 73.6357 24.5625 73.8107 25.51C74.6882 25.895 75.6007 26.1075 76.5832 26.1425C76.5832 26.3875 76.5832 26.845 76.5832 27.09C73.4957 26.88 70.3732 26.81 67.2857 27.09C67.2857 26.88 67.2857 26.4925 67.2857 26.2825C68.2682 26.1075 69.4957 25.65 69.5307 24.4575C69.9157 20.4575 69.6707 16.4225 69.7407 12.3875C68.9682 12.3875 68.2307 12.3875 67.4607 12.3875C67.4607 12.0375 67.4607 11.72 67.4607 11.37C68.2332 11.02 68.9707 10.6325 69.7057 10.2125C69.6732 7.96247 69.5682 5.43747 70.7957 3.36747Z" fill="#950F0F"/>
<path d="M126.728 0.596191C124.728 1.05119 122.693 1.43869 120.623 1.54369C120.588 1.71869 120.553 2.10619 120.553 2.28119C121.325 2.52619 122.588 2.45619 122.623 3.50869C122.938 5.68369 122.728 7.89369 122.763 10.0712C119.815 9.5812 116.518 9.5812 113.99 11.4387C111.253 13.3687 110.305 16.9487 110.553 20.1762C110.693 22.6662 111.955 25.2287 114.203 26.4212C116.87 27.8937 120.308 27.5787 122.835 25.8937C122.87 26.3837 122.87 26.9112 122.87 27.4037C124.8 26.9137 126.8 26.6312 128.8 26.5262V25.6487C125.958 25.1587 126.765 23.8587 126.555 21.6137C126.588 14.6312 126.483 7.6137 126.728 0.596191ZM119.36 11.8937C120.553 11.8937 121.78 12.2787 122.763 12.9462C122.763 16.7362 122.763 20.4912 122.763 24.2787C120.658 25.2612 117.815 25.1912 116.165 23.4012C114.763 21.8912 114.515 19.6812 114.62 17.7162C114.76 15.9262 115.148 13.8562 116.69 12.7337C117.535 12.1737 118.448 11.9287 119.36 11.8937Z" fill="#950F0F"/>
<path d="M7.39456 2.91009C9.77957 2.77009 12.1671 2.9101 14.5171 3.2601C14.3771 4.9451 14.3771 6.6276 14.5171 8.3126C14.3071 8.3126 13.8496 8.3126 13.6046 8.3126C13.4296 7.2601 13.2196 5.9976 12.1321 5.5401C10.4821 4.8376 8.55206 4.7676 6.83456 5.2601C4.58956 5.9276 4.20206 9.2251 5.88706 10.6626C7.99206 12.4876 10.5546 13.6801 12.6946 15.4701C16.0621 18.1376 15.6071 24.3476 11.6421 26.2076C8.30957 27.7526 4.34456 27.3651 0.904561 26.3826C0.939561 24.7326 0.869561 23.0501 0.799561 21.4001C1.04456 21.4001 1.53706 21.4001 1.81706 21.3651C1.99206 22.4176 2.16706 23.6801 3.21956 24.2426C5.11456 25.2951 7.56957 25.4001 9.53457 24.4876C11.9896 23.1201 11.5346 19.2251 9.25457 17.8901C7.25457 16.3451 4.97456 15.2226 3.11456 13.5051C1.07956 11.6101 0.834561 8.2776 2.13206 5.9251C3.14706 4.0326 5.32456 3.08509 7.39456 2.91009Z" fill="#950F0F"/>
<path d="M21.5707 6.45557C21.7457 6.45557 22.1332 6.49057 22.3432 6.49057C22.3432 7.75307 22.3432 9.01807 22.3432 10.2806H28.1332V12.4556H22.3432C22.3782 15.5081 22.3082 18.5256 22.3782 21.5781C22.4482 22.7356 22.4832 24.1756 23.5707 24.8756C24.9382 25.6831 26.5532 25.1906 27.9207 24.6656C28.3407 25.6831 27.2882 26.2806 26.5182 26.7006C24.7632 27.5431 22.6582 27.6481 20.8682 26.9456C19.3232 26.3831 18.5882 24.7006 18.5182 23.1556C18.3432 19.6106 18.5182 16.0331 18.5532 12.4881H16.3082C16.3082 12.2431 16.3082 11.9981 16.3082 11.7856C18.6932 10.8056 20.3432 8.70057 21.5707 6.45557Z" fill="#950F0F"/>
<path d="M37.0449 9.71797C34.4474 9.68297 31.8174 10.9805 30.9749 13.613C31.1849 13.753 31.6774 13.998 31.8874 14.1405C32.9049 12.3855 35.2199 11.473 37.0799 12.4905C38.5174 13.158 38.6599 14.9105 38.6249 16.3155C36.3449 17.053 33.9924 17.613 31.8524 18.7005C29.2899 20.068 28.9399 23.928 30.7999 25.998C32.9749 27.998 36.5899 27.683 38.7649 25.788C39.4324 27.0855 40.9749 27.578 42.3099 27.1905C43.5024 26.9805 44.2749 25.998 45.0474 25.1555C44.9074 25.0155 44.6274 24.7005 44.5199 24.523C44.0299 24.663 43.5024 25.013 43.0099 24.663C42.3774 24.243 42.4824 23.4005 42.4124 22.733C42.4474 19.9255 42.6224 17.118 42.4474 14.313C42.3774 12.8755 41.7099 11.3655 40.4474 10.593C39.3974 9.99797 38.2374 9.71797 37.0449 9.71797ZM38.5899 18.4555C38.5899 20.3505 38.5899 22.2455 38.5899 24.1405C37.3624 24.668 35.9224 25.193 34.6599 24.5605C33.0799 23.718 33.1499 21.228 34.4499 20.2105C35.7124 19.333 37.1849 18.9455 38.5899 18.4555Z" fill="#950F0F"/>
<path d="M86.9011 9.78646C85.0061 9.82146 83.0411 10.2765 81.5336 11.5065C79.3236 13.2965 78.3411 16.279 78.4461 19.0515C78.4461 21.4365 79.1836 23.964 81.0436 25.579C83.2536 27.509 86.4811 27.719 89.2536 27.124C92.1661 26.4915 94.3411 23.9315 94.9736 21.089C95.6411 18.1065 95.3586 14.669 93.3236 12.2815C91.7436 10.419 89.2511 9.71646 86.9011 9.78646ZM86.9361 11.7865C87.9536 11.8215 88.9711 12.2415 89.6386 13.049C90.8311 14.5215 91.1486 16.4515 91.2186 18.3115C91.2186 20.3115 90.9736 22.4515 89.7086 24.1015C88.4811 25.6815 85.8136 25.8915 84.4111 24.4515C83.3236 23.434 82.9011 21.924 82.6561 20.5215C82.4111 18.6615 82.4811 16.6965 83.0411 14.9065C83.4611 13.714 84.2686 12.4865 85.5311 12.064C85.9886 11.8565 86.4461 11.7865 86.9361 11.7865Z" fill="#950F0F"/>
<path d="M46.3755 10.9445C48.4105 10.9095 50.4455 10.6995 52.3055 9.85698C52.3755 10.347 52.4105 10.8045 52.4455 11.2945C54.5855 9.89198 57.358 9.32948 59.813 10.207C61.568 10.8045 62.7955 12.522 62.9705 14.347C63.3205 17.8195 62.7955 21.3295 63.2855 24.802C63.3205 25.8895 64.513 26.1345 65.3555 26.312C65.3555 26.522 65.3555 26.9095 65.3555 27.1195C62.478 26.9095 56.723 27.1195 56.723 27.1195V26.312C56.723 26.312 58.793 25.7145 58.933 25.1195C59.423 22.557 59.283 19.892 59.283 17.2595C59.178 15.6795 59.213 13.7495 57.738 12.8045C56.123 11.892 54.158 12.3145 52.5455 12.9095C52.5455 16.277 52.5455 19.682 52.5455 23.0845C52.5805 23.997 52.5105 25.0145 53.108 25.787C53.598 26.137 54.2305 26.207 54.793 26.3495C54.793 26.5595 54.793 26.947 54.793 27.157C51.9505 26.982 49.108 26.842 46.303 27.157C46.303 26.947 46.303 26.5595 46.303 26.3495C47.1805 26.1395 48.303 25.8945 48.478 24.8395C48.863 22.3495 48.583 19.787 48.653 17.2595C48.618 15.822 48.793 14.382 48.513 12.9445C48.303 11.962 47.1455 12.032 46.373 11.822C46.3755 11.612 46.3755 11.1545 46.3755 10.9445Z" fill="#950F0F"/>
<path d="M96.902 10.8406C98.937 10.8056 100.937 10.5256 102.867 9.89307L102.937 11.3656C104.867 9.78557 107.814 9.40056 109.884 10.9456L107.709 14.2431C106.692 12.6981 104.657 12.3131 103.042 13.1206C103.042 13.1206 103.042 19.9631 103.042 23.4006C103.112 24.1731 103.007 25.1556 103.709 25.6456C104.412 26.0656 105.254 26.0306 106.024 26.1356C106.024 26.3806 106.024 26.8381 106.024 27.0831C102.902 26.8731 99.8145 26.8381 96.692 27.0831V26.1356C97.7095 25.9606 98.727 25.6081 98.902 25.0131C99.322 23.5406 99.112 21.9956 99.182 20.4506C99.147 18.0306 99.252 15.6081 99.112 13.2231C99.112 12.0656 97.7795 11.9606 96.902 11.7856C96.902 11.5081 96.902 11.1556 96.902 10.8406Z" fill="#950F0F"/>
</svg>
