<svg width="96" height="46" viewBox="0 0 96 46" fill="none" xmlns="http://www.w3.org/2000/svg">
<path d="M95.5451 20.0172V14.262H73.6525V35.4684C73.5347 32.984 72.6275 31.0564 70.9096 29.7007C69.7216 28.7636 67.9381 28.0143 65.5582 27.4546L60.1281 26.174C58.0327 25.6844 56.6627 25.2579 56.0175 24.8937C55.4246 24.5715 55.0085 24.1509 54.7656 23.6339L54.7654 23.6347C54.7635 23.6309 54.7622 23.6275 54.7603 23.6238C54.5989 23.2703 54.5063 22.8576 54.5063 22.4143C54.5063 21.4663 54.832 20.6598 55.5053 20.026C55.5053 20.0252 55.5056 20.0241 55.5056 20.0241C55.5202 20.0098 55.5353 19.9965 55.5499 19.9832L55.5502 19.983C55.5507 19.9803 55.5512 19.9798 55.552 19.9814C55.699 19.8476 55.8604 19.7213 56.0388 19.6037C57.0574 18.932 58.4205 18.5963 60.1278 18.5963C61.6627 18.5963 62.9467 18.8555 63.9799 19.3728C65.5296 20.1568 66.3613 21.4793 66.4763 23.3403H72.6896C72.576 20.0517 71.3544 17.5434 69.0239 15.8148C66.6931 14.0865 63.8774 13.2224 60.5772 13.2224C56.6245 13.2224 53.6281 14.1391 51.588 15.9722C50.3337 17.0996 49.4669 18.4046 48.9836 19.8858H48.9812C48.8774 20.2049 48.7903 20.5366 48.7219 20.8715H48.7213C47.9649 24.4399 45.6671 26.8636 41.8256 26.8636C35.6747 26.8636 33.3643 21.6303 33.3643 16.4401C33.3643 10.9898 35.6747 5.75792 41.8256 5.75792C45.2255 5.75792 48.1921 8.11177 48.6277 11.2077H55.2572C54.428 4.01263 48.6714 0 41.8259 0C32.6342 0 27.0568 6.5459 26.5589 15.1694V0.742067H19.7109V20.1045C19.7109 24.7271 18.1413 26.8638 13.2571 26.8638C7.71845 26.8638 6.84633 23.5059 6.84633 20.1045V0.742067H0V20.1045C0 28.5648 4.88315 32.6204 13.2571 32.6204C21.5876 32.6204 26.5586 28.5218 26.5586 20.1045V17.6769C27.0565 26.0753 32.6339 32.6207 41.8256 32.6207C45.6023 32.6207 48.823 31.4025 51.1981 29.232C51.3454 29.3504 51.4964 29.4658 51.6556 29.5749C52.8874 30.4287 55.1489 31.2193 58.4412 31.9471L61.7911 32.682C63.7519 33.1018 65.1838 33.5846 66.0874 34.1303C66.9898 34.69 67.4415 35.4812 67.4415 36.5025C67.4415 38.2523 66.5201 39.4487 64.6768 40.092C63.7052 40.428 62.4403 40.5958 60.8829 40.5958C58.2825 40.5958 56.4462 39.9591 55.3745 38.6854C54.789 37.9858 54.3957 36.9295 54.1958 35.516H48.0244C48.0244 38.735 49.1911 41.2643 51.5248 43.1044C53.859 44.9449 57.0627 45.8648 61.1366 45.8648C65.1254 45.8648 68.2123 44.9306 70.3979 43.0622C72.4078 41.3439 73.4909 39.2191 73.6525 36.6898V45.3998H80.4996V32.5339H93.5386V27.2136H80.4996V20.0172H95.5451Z" fill="black" fill-opacity="0.3"/>
</svg>
