<svg width="65" height="21" viewBox="0 0 65 21" fill="none" xmlns="http://www.w3.org/2000/svg">
<path d="M0.050518 14.7041C-0.0291066 14.026 0.00922149 13.0381 0.00922149 12.5429L1.04408 0.88251H4.84747L3.81248 12.646C3.59136 15.1993 4.5879 17.0066 7.1352 17.0066C9.72089 17.0066 11.0948 15.1787 11.313 12.9145L12.4098 0.88225H16.2309L15.1754 12.7522C14.7392 17.3368 11.7141 20.7509 6.81689 20.7509C2.99579 20.7509 0.527797 18.2861 0.050518 14.7041ZM17.7815 10.7562C18.2799 5.16318 22.0627 0.51381 28.5691 0.51381C30.2998 0.51381 31.951 0.905944 33.5872 1.97616L33.1478 6.6021C31.656 4.60609 29.8634 4.29944 28.2123 4.29944C24.1524 4.29944 21.9236 7.11807 21.6051 10.6767C21.3044 14.1705 23.097 16.9889 27.039 16.9889C28.752 16.9889 30.5622 16.4936 32.4729 14.583L32.0543 19.3326C30.2027 20.341 28.4719 20.7921 26.7412 20.7921C20.2697 20.7921 17.3068 15.9982 17.7809 10.7559M36.6508 0.882015H40.451L39.0565 16.7176H44.5109C44.909 16.7176 46.2033 16.6999 46.56 16.6999C46.5424 16.8857 46.2033 20.3382 46.2033 20.3382H34.9171L36.6508 0.882015ZM57.469 0.000520763H57.1918L46.7635 20.341H50.8234L52.274 17.2542H59.6388L60.5557 20.341H64.5742L57.4755 0M56.5025 8.14342C56.6234 7.87513 56.7207 7.52721 56.7797 7.34148H56.8416C56.8593 7.58915 56.9006 7.87804 56.9802 8.16407C57.1777 9.04856 58.6725 13.9661 58.6725 13.9661H53.8521C53.8521 13.9661 56.4407 8.28749 56.5025 8.14298L56.5025 8.14342Z" fill="#2774AE"/>
</svg>
