<svg width="526" height="172" viewBox="0 0 526 172" fill="none" xmlns="http://www.w3.org/2000/svg">
<g filter="url(#filter0_d_6013_3293)">
<rect x="2" width="522" height="168" rx="12" fill="white"/>
<rect x="2.5" y="0.5" width="521" height="167" rx="11.5" stroke="black" stroke-opacity="0.06"/>
<rect x="26" y="32" width="474" height="6" rx="3" fill="#F4F4F5"/>
<rect x="26" y="32" width="51" height="6" rx="3" fill="#D4D4D8"/>
<path d="M33.072 56.824C33.072 56.28 32.8427 55.832 32.384 55.48C31.936 55.1173 31.36 54.936 30.656 54.936C30.016 54.936 29.472 55.112 29.024 55.464C28.576 55.816 28.352 56.2587 28.352 56.792C28.352 57.1013 28.4213 57.3627 28.56 57.576C28.7093 57.7893 28.9227 57.9547 29.2 58.072C29.4773 58.1787 29.728 58.2587 29.952 58.312C30.1867 58.3547 30.48 58.3973 30.832 58.44C31.4507 58.5147 31.9733 58.6053 32.4 58.712C32.8373 58.8187 33.28 58.9893 33.728 59.224C34.176 59.4587 34.5173 59.7947 34.752 60.232C34.9867 60.6693 35.104 61.2027 35.104 61.832C35.104 62.7387 34.752 63.5227 34.048 64.184C33.344 64.8347 32.272 65.16 30.832 65.16C29.5093 65.16 28.464 64.8453 27.696 64.216C26.9387 63.5867 26.56 62.8187 26.56 61.912C26.56 61.8587 26.5867 61.832 26.64 61.832H28.064C28.128 61.832 28.16 61.864 28.16 61.928C28.16 62.3867 28.3947 62.8133 28.864 63.208C29.344 63.6027 30 63.8 30.832 63.8C31.6533 63.8 32.304 63.6133 32.784 63.24C33.264 62.856 33.504 62.3867 33.504 61.832C33.504 61.4907 33.4347 61.2027 33.296 60.968C33.1573 60.7227 32.9493 60.536 32.672 60.408C32.3947 60.28 32.1173 60.184 31.84 60.12C31.5733 60.056 31.2373 60.0027 30.832 59.96C30.416 59.9173 30.0427 59.864 29.712 59.8C29.3813 59.736 29.0187 59.6293 28.624 59.48C28.24 59.32 27.92 59.1333 27.664 58.92C27.408 58.7067 27.1893 58.4187 27.008 58.056C26.8373 57.6933 26.752 57.272 26.752 56.792C26.752 55.8213 27.1413 55.0427 27.92 54.456C28.6987 53.8693 29.6107 53.576 30.656 53.576C31.7547 53.576 32.6987 53.8587 33.488 54.424C34.2773 54.9893 34.672 55.7893 34.672 56.824C34.672 56.8773 34.6453 56.904 34.592 56.904H33.152C33.0987 56.904 33.072 56.8773 33.072 56.824ZM40.5824 63.72V64.92C40.5824 64.9733 40.5557 65 40.5024 65H39.2704C37.873 65 37.1744 64.3707 37.1744 63.112V58.184C37.1744 58.1307 37.1477 58.104 37.0944 58.104H35.6704C35.617 58.104 35.5904 58.0773 35.5904 58.024V56.984C35.5904 56.9307 35.617 56.904 35.6704 56.904H37.0944C37.1477 56.904 37.1744 56.8773 37.1744 56.824V54.664C37.1744 54.6107 37.201 54.584 37.2544 54.584H38.6144C38.6677 54.584 38.6944 54.6107 38.6944 54.664V56.824C38.6944 56.8773 38.721 56.904 38.7744 56.904H40.5024C40.5557 56.904 40.5824 56.9307 40.5824 56.984V58.024C40.5824 58.0773 40.5557 58.104 40.5024 58.104H38.7744C38.721 58.104 38.6944 58.1307 38.6944 58.184V62.84C38.6944 63.3733 38.9824 63.64 39.5584 63.64H40.5024C40.5557 63.64 40.5824 63.6667 40.5824 63.72ZM49.7178 63.72V64.92C49.7178 64.9733 49.6911 65 49.6378 65H49.3338C48.4271 65 47.8618 64.728 47.6378 64.184C47.6058 64.0987 47.5578 64.088 47.4938 64.152C46.8218 64.824 45.8991 65.16 44.7258 65.16C43.7444 65.16 42.9764 64.9307 42.4218 64.472C41.8778 64.0027 41.6058 63.3787 41.6058 62.6C41.6058 61.8853 41.9098 61.304 42.5178 60.856C43.1258 60.3973 43.9684 60.168 45.0458 60.168H46.7578C46.9178 60.168 47.0458 60.1147 47.1418 60.008C47.2378 59.8907 47.2858 59.768 47.2858 59.64C47.2858 59.4267 47.2698 59.2507 47.2378 59.112C47.2058 58.9733 47.1311 58.8187 47.0138 58.648C46.8964 58.4667 46.6938 58.3333 46.4058 58.248C46.1178 58.152 45.7498 58.104 45.3018 58.104C44.6511 58.104 44.1658 58.2373 43.8458 58.504C43.5364 58.7707 43.3818 59.1227 43.3818 59.56C43.3818 59.6133 43.3551 59.64 43.3018 59.64H41.9418C41.8884 59.64 41.8618 59.6133 41.8618 59.56C41.8618 58.664 42.1924 57.9707 42.8538 57.48C43.5151 56.9893 44.3311 56.744 45.3018 56.744C46.4218 56.744 47.2858 56.9893 47.8938 57.48C48.5018 57.96 48.8058 58.68 48.8058 59.64V63.112C48.8058 63.24 48.8538 63.3627 48.9498 63.48C49.0458 63.5867 49.1738 63.64 49.3338 63.64H49.6378C49.6911 63.64 49.7178 63.6667 49.7178 63.72ZM47.2858 61.672V61.448C47.2858 61.3947 47.2591 61.368 47.2058 61.368H45.0458C44.3844 61.368 43.8991 61.4907 43.5898 61.736C43.2804 61.9813 43.1258 62.2693 43.1258 62.6C43.1258 62.9093 43.2698 63.1867 43.5578 63.432C43.8458 63.6773 44.2351 63.8 44.7258 63.8C45.6111 63.8 46.2564 63.592 46.6618 63.176C47.0778 62.7493 47.2858 62.248 47.2858 61.672ZM51.2796 56.904H52.4796C52.5116 56.904 52.5383 56.9307 52.5596 56.984L52.7196 57.704C52.7303 57.7467 52.757 57.768 52.7996 57.768C52.8423 57.768 52.8743 57.752 52.8956 57.72C53.333 57.0693 54.0316 56.744 54.9916 56.744C56.101 56.744 56.9596 57.1013 57.5676 57.816C58.1756 58.52 58.4796 59.4213 58.4796 60.52V64.92C58.4796 64.9733 58.453 65 58.3996 65H57.0396C56.9863 65 56.9596 64.9733 56.9596 64.92V60.52C56.9596 59.8373 56.789 59.2667 56.4476 58.808C56.1063 58.3387 55.5676 58.104 54.8316 58.104C54.1916 58.104 53.6796 58.344 53.2956 58.824C52.9116 59.2933 52.7196 59.8587 52.7196 60.52V64.92C52.7196 64.9733 52.693 65 52.6396 65H51.2796C51.2263 65 51.1996 64.9733 51.1996 64.92V56.984C51.1996 56.9307 51.2263 56.904 51.2796 56.904ZM67.8033 65H66.6033C66.5713 65 66.5446 64.9733 66.5233 64.92L66.3633 64.28C66.3313 64.184 66.2779 64.1733 66.2033 64.248C65.9793 64.472 65.6379 64.68 65.1793 64.872C64.7206 65.064 64.2993 65.16 63.9153 65.16C62.7526 65.16 61.8246 64.776 61.1313 64.008C60.4486 63.2293 60.1073 62.2107 60.1073 60.952C60.1073 59.6933 60.4486 58.68 61.1313 57.912C61.8246 57.1333 62.7526 56.744 63.9153 56.744C64.4059 56.744 64.8699 56.856 65.3073 57.08C65.7553 57.2933 66.0539 57.4853 66.2033 57.656C66.2459 57.6987 66.2833 57.7147 66.3153 57.704C66.3473 57.6827 66.3633 57.656 66.3633 57.624V53.816C66.3633 53.7627 66.3899 53.736 66.4433 53.736H67.8033C67.8566 53.736 67.8833 53.7627 67.8833 53.816V64.92C67.8833 64.9733 67.8566 65 67.8033 65ZM62.2833 58.904C61.8459 59.4267 61.6273 60.1093 61.6273 60.952C61.6273 61.7947 61.8459 62.4827 62.2833 63.016C62.7206 63.5387 63.3179 63.8 64.0753 63.8C64.7899 63.8 65.3499 63.5387 65.7553 63.016C66.1606 62.4933 66.3633 61.8053 66.3633 60.952C66.3633 60.0987 66.1606 59.4107 65.7553 58.888C65.3499 58.3653 64.7899 58.104 64.0753 58.104C63.3179 58.104 62.7206 58.3707 62.2833 58.904ZM77.6865 63.72V64.92C77.6865 64.9733 77.6598 65 77.6065 65H77.3025C76.3958 65 75.8305 64.728 75.6065 64.184C75.5745 64.0987 75.5265 64.088 75.4625 64.152C74.7905 64.824 73.8678 65.16 72.6945 65.16C71.7132 65.16 70.9452 64.9307 70.3905 64.472C69.8465 64.0027 69.5745 63.3787 69.5745 62.6C69.5745 61.8853 69.8785 61.304 70.4865 60.856C71.0945 60.3973 71.9372 60.168 73.0145 60.168H74.7265C74.8865 60.168 75.0145 60.1147 75.1105 60.008C75.2065 59.8907 75.2545 59.768 75.2545 59.64C75.2545 59.4267 75.2385 59.2507 75.2065 59.112C75.1745 58.9733 75.0998 58.8187 74.9825 58.648C74.8652 58.4667 74.6625 58.3333 74.3745 58.248C74.0865 58.152 73.7185 58.104 73.2705 58.104C72.6198 58.104 72.1345 58.2373 71.8145 58.504C71.5052 58.7707 71.3505 59.1227 71.3505 59.56C71.3505 59.6133 71.3238 59.64 71.2705 59.64H69.9105C69.8572 59.64 69.8305 59.6133 69.8305 59.56C69.8305 58.664 70.1612 57.9707 70.8225 57.48C71.4838 56.9893 72.2998 56.744 73.2705 56.744C74.3905 56.744 75.2545 56.9893 75.8625 57.48C76.4705 57.96 76.7745 58.68 76.7745 59.64V63.112C76.7745 63.24 76.8225 63.3627 76.9185 63.48C77.0145 63.5867 77.1425 63.64 77.3025 63.64H77.6065C77.6598 63.64 77.6865 63.6667 77.6865 63.72ZM75.2545 61.672V61.448C75.2545 61.3947 75.2278 61.368 75.1745 61.368H73.0145C72.3532 61.368 71.8678 61.4907 71.5585 61.736C71.2492 61.9813 71.0945 62.2693 71.0945 62.6C71.0945 62.9093 71.2385 63.1867 71.5265 63.432C71.8145 63.6773 72.2038 63.8 72.6945 63.8C73.5798 63.8 74.2252 63.592 74.6305 63.176C75.0465 62.7493 75.2545 62.248 75.2545 61.672ZM83.6164 58.104H82.8004C82.1604 58.104 81.6484 58.344 81.2644 58.824C80.8804 59.2933 80.6884 59.8587 80.6884 60.52V64.92C80.6884 64.9733 80.6617 65 80.6084 65H79.2484C79.195 65 79.1684 64.9733 79.1684 64.92V56.984C79.1684 56.9307 79.195 56.904 79.2484 56.904H80.4484C80.4804 56.904 80.507 56.9307 80.5284 56.984L80.6884 57.704C80.7204 57.8 80.779 57.8053 80.8644 57.72C81.515 57.0693 82.1604 56.744 82.8004 56.744H83.6164C83.6697 56.744 83.6964 56.7707 83.6964 56.824V58.024C83.6964 58.0773 83.6697 58.104 83.6164 58.104ZM91.8814 65H90.6814C90.6494 65 90.6227 64.9733 90.6014 64.92L90.4414 64.28C90.4094 64.184 90.356 64.1733 90.2814 64.248C90.0574 64.472 89.716 64.68 89.2574 64.872C88.7987 65.064 88.3774 65.16 87.9934 65.16C86.8307 65.16 85.9027 64.776 85.2094 64.008C84.5267 63.2293 84.1854 62.2107 84.1854 60.952C84.1854 59.6933 84.5267 58.68 85.2094 57.912C85.9027 57.1333 86.8307 56.744 87.9934 56.744C88.484 56.744 88.948 56.856 89.3854 57.08C89.8334 57.2933 90.132 57.4853 90.2814 57.656C90.324 57.6987 90.3614 57.7147 90.3934 57.704C90.4254 57.6827 90.4414 57.656 90.4414 57.624V53.816C90.4414 53.7627 90.468 53.736 90.5214 53.736H91.8814C91.9347 53.736 91.9614 53.7627 91.9614 53.816V64.92C91.9614 64.9733 91.9347 65 91.8814 65ZM86.3614 58.904C85.924 59.4267 85.7054 60.1093 85.7054 60.952C85.7054 61.7947 85.924 62.4827 86.3614 63.016C86.7987 63.5387 87.396 63.8 88.1534 63.8C88.868 63.8 89.428 63.5387 89.8334 63.016C90.2387 62.4933 90.4414 61.8053 90.4414 60.952C90.4414 60.0987 90.2387 59.4107 89.8334 58.888C89.428 58.3653 88.868 58.104 88.1534 58.104C87.396 58.104 86.7987 58.3707 86.3614 58.904ZM104.6 59.64H103.176C103.133 59.64 103.101 59.6133 103.08 59.56C102.717 58.5893 101.981 58.104 100.872 58.104C100.125 58.104 99.5331 58.3707 99.0958 58.904C98.6584 59.4267 98.4398 60.1093 98.4398 60.952C98.4398 61.7947 98.6584 62.4827 99.0958 63.016C99.5331 63.5387 100.125 63.8 100.872 63.8C101.981 63.8 102.717 63.3147 103.08 62.344C103.101 62.2907 103.133 62.264 103.176 62.264H104.6C104.664 62.264 104.69 62.2907 104.68 62.344C104.456 63.24 104.013 63.9333 103.352 64.424C102.701 64.9147 101.874 65.16 100.872 65.16C99.6344 65.16 98.6638 64.776 97.9598 64.008C97.2664 63.24 96.9198 62.2213 96.9198 60.952C96.9198 59.672 97.2664 58.6533 97.9598 57.896C98.6638 57.128 99.6344 56.744 100.872 56.744C101.874 56.744 102.706 56.9947 103.368 57.496C104.029 57.9867 104.466 58.6747 104.68 59.56C104.69 59.6133 104.664 59.64 104.6 59.64ZM106.358 53.736H107.718C107.771 53.736 107.798 53.7627 107.798 53.816V57.688C107.798 57.7307 107.819 57.7573 107.862 57.768C107.904 57.7787 107.942 57.7627 107.974 57.72C108.486 57.0693 109.184 56.744 110.07 56.744C111.243 56.744 112.118 57.096 112.694 57.8C113.27 58.4933 113.558 59.4 113.558 60.52V64.92C113.558 64.9733 113.531 65 113.478 65H112.118C112.064 65 112.038 64.9733 112.038 64.92V60.52C112.038 59.8373 111.867 59.2667 111.526 58.808C111.184 58.3387 110.646 58.104 109.91 58.104C109.27 58.104 108.758 58.344 108.374 58.824C107.99 59.2933 107.798 59.8587 107.798 60.52V64.92C107.798 64.9733 107.771 65 107.718 65H106.358C106.304 65 106.278 64.9733 106.278 64.92V53.816C106.278 53.7627 106.304 53.736 106.358 53.736ZM122.817 61.496H116.881C116.828 61.496 116.801 61.5227 116.801 61.576C116.801 62.184 117.009 62.7067 117.425 63.144C117.841 63.5813 118.391 63.8 119.073 63.8C120.033 63.8 120.711 63.4267 121.105 62.68C121.127 62.6267 121.164 62.6 121.217 62.6H122.641C122.705 62.6 122.732 62.6267 122.721 62.68C122.519 63.4587 122.087 64.0667 121.425 64.504C120.775 64.9413 119.991 65.16 119.073 65.16C117.889 65.16 116.945 64.776 116.241 64.008C115.537 63.2293 115.185 62.2107 115.185 60.952C115.185 59.672 115.527 58.6533 116.209 57.896C116.903 57.128 117.857 56.744 119.073 56.744C120.3 56.744 121.255 57.128 121.937 57.896C122.631 58.664 122.977 59.6827 122.977 60.952C122.977 61.1227 122.961 61.272 122.929 61.4C122.908 61.464 122.871 61.496 122.817 61.496ZM121.313 60.216C121.313 59.6827 121.121 59.1973 120.737 58.76C120.353 58.3227 119.799 58.104 119.073 58.104C118.369 58.104 117.815 58.344 117.409 58.824C117.004 59.2933 116.801 59.7573 116.801 60.216C116.801 60.2693 116.828 60.296 116.881 60.296H121.233C121.287 60.296 121.313 60.2693 121.313 60.216ZM131.787 59.64H130.363C130.321 59.64 130.289 59.6133 130.267 59.56C129.905 58.5893 129.169 58.104 128.059 58.104C127.313 58.104 126.721 58.3707 126.283 58.904C125.846 59.4267 125.627 60.1093 125.627 60.952C125.627 61.7947 125.846 62.4827 126.283 63.016C126.721 63.5387 127.313 63.8 128.059 63.8C129.169 63.8 129.905 63.3147 130.267 62.344C130.289 62.2907 130.321 62.264 130.363 62.264H131.787C131.851 62.264 131.878 62.2907 131.867 62.344C131.643 63.24 131.201 63.9333 130.539 64.424C129.889 64.9147 129.062 65.16 128.059 65.16C126.822 65.16 125.851 64.776 125.147 64.008C124.454 63.24 124.107 62.2213 124.107 60.952C124.107 59.672 124.454 58.6533 125.147 57.896C125.851 57.128 126.822 56.744 128.059 56.744C129.062 56.744 129.894 56.9947 130.555 57.496C131.217 57.9867 131.654 58.6747 131.867 59.56C131.878 59.6133 131.851 59.64 131.787 59.64ZM141.081 65H139.641C139.577 65 139.529 64.9733 139.497 64.92L136.953 60.552C136.921 60.5093 136.884 60.5093 136.841 60.552L135.017 62.12C134.996 62.1413 134.985 62.1733 134.985 62.216V64.92C134.985 64.9733 134.959 65 134.905 65H133.545C133.492 65 133.465 64.9733 133.465 64.92V53.816C133.465 53.7627 133.492 53.736 133.545 53.736H134.905C134.959 53.736 134.985 53.7627 134.985 53.816V60.088C134.985 60.1093 134.996 60.1253 135.017 60.136C135.049 60.1467 135.076 60.1413 135.097 60.12L138.777 56.984C138.841 56.9307 138.921 56.904 139.017 56.904H140.985C141.007 56.904 141.023 56.9147 141.033 56.936C141.044 56.9573 141.044 56.9733 141.033 56.984L138.057 59.512C138.025 59.544 138.025 59.5867 138.057 59.64L141.145 64.92C141.167 64.9733 141.145 65 141.081 65ZM149.334 65H148.134C148.102 65 148.075 64.9733 148.054 64.92L147.894 64.2C147.873 64.1573 147.841 64.136 147.798 64.136C147.766 64.136 147.739 64.152 147.718 64.184C147.547 64.4293 147.27 64.6533 146.886 64.856C146.513 65.0587 146.091 65.16 145.622 65.16C144.385 65.16 143.494 64.8187 142.95 64.136C142.406 63.4427 142.134 62.5253 142.134 61.384V56.984C142.134 56.9307 142.161 56.904 142.214 56.904H143.574C143.627 56.904 143.654 56.9307 143.654 56.984V61.384C143.654 62.0667 143.825 62.6427 144.166 63.112C144.507 63.5707 145.046 63.8 145.782 63.8C146.422 63.8 146.934 63.5653 147.318 63.096C147.702 62.616 147.894 62.0453 147.894 61.384V56.984C147.894 56.9307 147.921 56.904 147.974 56.904H149.334C149.387 56.904 149.414 56.9307 149.414 56.984V64.92C149.414 64.9733 149.387 65 149.334 65ZM151.858 56.904H153.058C153.09 56.904 153.116 56.9307 153.138 56.984L153.298 57.64C153.319 57.6827 153.346 57.704 153.378 57.704C153.41 57.704 153.436 57.688 153.458 57.656C153.671 57.4213 154.007 57.2133 154.466 57.032C154.924 56.84 155.351 56.744 155.746 56.744C156.908 56.744 157.831 57.1333 158.514 57.912C159.207 58.68 159.554 59.6933 159.554 60.952C159.554 62.2107 159.207 63.2293 158.514 64.008C157.831 64.776 156.908 65.16 155.746 65.16C155.255 65.16 154.786 65.0533 154.338 64.84C153.9 64.616 153.607 64.4187 153.458 64.248C153.415 64.2053 153.378 64.1947 153.346 64.216C153.314 64.2267 153.298 64.248 153.298 64.28V68.088C153.298 68.1413 153.271 68.168 153.218 68.168H151.858C151.804 68.168 151.778 68.1413 151.778 68.088V56.984C151.778 56.9307 151.804 56.904 151.858 56.904ZM157.378 63.016C157.815 62.4827 158.034 61.7947 158.034 60.952C158.034 60.1093 157.815 59.4267 157.378 58.904C156.94 58.3707 156.343 58.104 155.586 58.104C154.871 58.104 154.311 58.3653 153.906 58.888C153.5 59.4107 153.298 60.0987 153.298 60.952C153.298 61.8053 153.5 62.4933 153.906 63.016C154.311 63.5387 154.871 63.8 155.586 63.8C156.343 63.8 156.94 63.5387 157.378 63.016Z" fill="#18181B"/>
<path d="M364.264 54.856V53.816C364.264 53.7627 364.291 53.736 364.344 53.736H365.704C365.757 53.736 365.784 53.7627 365.784 53.816V64.92C365.784 64.9733 365.757 65 365.704 65H364.344C364.291 65 364.264 64.9733 364.264 64.92V57.544C364.264 57.3947 364.211 57.2773 364.104 57.192C364.008 57.1067 363.896 57.064 363.768 57.064H361.32C361.267 57.064 361.24 57.0373 361.24 56.984V55.864C361.24 55.8107 361.267 55.784 361.32 55.784H363.304C363.571 55.784 363.795 55.6987 363.976 55.528C364.168 55.3467 364.264 55.1227 364.264 54.856ZM376.674 59.368C376.674 63.24 375.25 65.176 372.402 65.176C369.544 65.176 368.114 63.24 368.114 59.368C368.114 55.5067 369.544 53.576 372.402 53.576C375.25 53.576 376.674 55.5067 376.674 59.368ZM375.074 59.368C375.074 57.896 374.866 56.792 374.45 56.056C374.034 55.3093 373.352 54.936 372.402 54.936C371.453 54.936 370.77 55.3093 370.354 56.056C369.938 56.792 369.73 57.896 369.73 59.368C369.73 60.84 369.938 61.9493 370.354 62.696C370.77 63.4427 371.453 63.816 372.402 63.816C373.352 63.816 374.034 63.4427 374.45 62.696C374.866 61.9387 375.074 60.8293 375.074 59.368ZM385.598 63.72V64.92C385.598 64.9733 385.571 65 385.518 65H384.286C382.889 65 382.19 64.3707 382.19 63.112V58.184C382.19 58.1307 382.163 58.104 382.11 58.104H380.686C380.633 58.104 380.606 58.0773 380.606 58.024V56.984C380.606 56.9307 380.633 56.904 380.686 56.904H382.11C382.163 56.904 382.19 56.8773 382.19 56.824V54.664C382.19 54.6107 382.217 54.584 382.27 54.584H383.63C383.683 54.584 383.71 54.6107 383.71 54.664V56.824C383.71 56.8773 383.737 56.904 383.79 56.904H385.518C385.571 56.904 385.598 56.9307 385.598 56.984V58.024C385.598 58.0773 385.571 58.104 385.518 58.104H383.79C383.737 58.104 383.71 58.1307 383.71 58.184V62.84C383.71 63.3733 383.998 63.64 384.574 63.64H385.518C385.571 63.64 385.598 63.6667 385.598 63.72ZM393.378 57.896C394.092 58.664 394.45 59.6827 394.45 60.952C394.45 62.2213 394.092 63.24 393.378 64.008C392.674 64.776 391.708 65.16 390.482 65.16C389.244 65.16 388.274 64.776 387.57 64.008C386.866 63.24 386.514 62.2213 386.514 60.952C386.514 59.6827 386.866 58.664 387.57 57.896C388.274 57.128 389.244 56.744 390.482 56.744C391.708 56.744 392.674 57.128 393.378 57.896ZM392.274 63.016C392.711 62.4827 392.93 61.7947 392.93 60.952C392.93 60.1093 392.711 59.4267 392.274 58.904C391.836 58.3707 391.239 58.104 390.482 58.104C389.735 58.104 389.138 58.3707 388.69 58.904C388.252 59.4267 388.034 60.1093 388.034 60.952C388.034 61.7947 388.252 62.4827 388.69 63.016C389.138 63.5387 389.735 63.8 390.482 63.8C391.239 63.8 391.836 63.5387 392.274 63.016ZM401.498 54.856V53.816C401.498 53.7627 401.525 53.736 401.578 53.736H402.938C402.992 53.736 403.018 53.7627 403.018 53.816V64.92C403.018 64.9733 402.992 65 402.938 65H401.578C401.525 65 401.498 64.9733 401.498 64.92V57.544C401.498 57.3947 401.445 57.2773 401.338 57.192C401.242 57.1067 401.13 57.064 401.002 57.064H398.554C398.501 57.064 398.474 57.0373 398.474 56.984V55.864C398.474 55.8107 398.501 55.784 398.554 55.784H400.538C400.805 55.784 401.029 55.6987 401.21 55.528C401.402 55.3467 401.498 55.1227 401.498 54.856ZM405.205 59.64L405.909 53.848C405.919 53.7733 405.957 53.736 406.021 53.736H412.021C412.074 53.736 412.101 53.7627 412.101 53.816V55.016C412.101 55.0693 412.074 55.096 412.021 55.096H407.317C407.263 55.096 407.237 55.1227 407.237 55.176L406.885 57.816C406.885 57.848 406.885 57.8747 406.885 57.896C406.895 57.9067 406.911 57.912 406.933 57.912C406.965 57.9013 406.991 57.8853 407.013 57.864C407.599 57.4053 408.25 57.176 408.965 57.176C410.127 57.176 411.066 57.544 411.781 58.28C412.506 59.0053 412.869 59.9547 412.869 61.128C412.869 62.3867 412.527 63.3733 411.845 64.088C411.162 64.8027 410.202 65.16 408.965 65.16C408.271 65.16 407.658 65.048 407.125 64.824C406.591 64.5893 406.186 64.296 405.909 63.944C405.631 63.5813 405.423 63.2347 405.285 62.904C405.157 62.5627 405.093 62.248 405.093 61.96C405.093 61.9067 405.119 61.88 405.173 61.88H406.645C406.698 61.88 406.725 61.9067 406.725 61.96C406.725 62.344 406.906 62.7493 407.269 63.176C407.642 63.592 408.207 63.8 408.965 63.8C409.669 63.8 410.239 63.56 410.677 63.08C411.125 62.6 411.349 61.9493 411.349 61.128C411.349 60.3707 411.125 59.752 410.677 59.272C410.229 58.7813 409.658 58.536 408.965 58.536C408.41 58.536 407.957 58.6267 407.605 58.808C407.263 58.9787 406.965 59.256 406.709 59.64C406.677 59.6933 406.618 59.72 406.533 59.72H405.285C405.231 59.72 405.205 59.6933 405.205 59.64ZM419.12 65H417.92C417.867 65 417.84 64.9733 417.84 64.92V53.816C417.84 53.7627 417.867 53.736 417.92 53.736H419.28C419.334 53.736 419.36 53.7627 419.36 53.816V57.624C419.36 57.656 419.376 57.6827 419.408 57.704C419.44 57.7147 419.478 57.6987 419.52 57.656C419.67 57.4853 419.963 57.2933 420.4 57.08C420.848 56.856 421.318 56.744 421.808 56.744C422.971 56.744 423.894 57.1333 424.576 57.912C425.27 58.68 425.616 59.6933 425.616 60.952C425.616 62.2107 425.27 63.2293 424.576 64.008C423.894 64.776 422.971 65.16 421.808 65.16C421.424 65.16 421.003 65.064 420.544 64.872C420.086 64.68 419.744 64.472 419.52 64.248C419.446 64.1733 419.392 64.184 419.36 64.28L419.2 64.92C419.179 64.9733 419.152 65 419.12 65ZM423.44 63.016C423.878 62.4827 424.096 61.7947 424.096 60.952C424.096 60.1093 423.878 59.4267 423.44 58.904C423.003 58.3707 422.406 58.104 421.648 58.104C420.934 58.104 420.374 58.3653 419.968 58.888C419.563 59.4107 419.36 60.0987 419.36 60.952C419.36 61.8053 419.563 62.4933 419.968 63.016C420.374 63.5387 420.934 63.8 421.648 63.8C422.406 63.8 423.003 63.5387 423.44 63.016ZM428.892 56.984V64.92C428.892 64.9733 428.865 65 428.812 65H427.452C427.398 65 427.372 64.9733 427.372 64.92V56.984C427.372 56.9307 427.398 56.904 427.452 56.904H428.812C428.865 56.904 428.892 56.9307 428.892 56.984ZM428.924 55.512H427.324C427.27 55.512 427.243 55.4853 427.243 55.432V53.816C427.243 53.7627 427.27 53.736 427.324 53.736H428.924C428.977 53.736 429.004 53.7627 429.004 53.816V55.432C429.004 55.4853 428.977 55.512 428.924 55.512ZM437.518 57.896C438.233 58.664 438.59 59.6827 438.59 60.952C438.59 62.2213 438.233 63.24 437.518 64.008C436.814 64.776 435.849 65.16 434.622 65.16C433.385 65.16 432.414 64.776 431.71 64.008C431.006 63.24 430.654 62.2213 430.654 60.952C430.654 59.6827 431.006 58.664 431.71 57.896C432.414 57.128 433.385 56.744 434.622 56.744C435.849 56.744 436.814 57.128 437.518 57.896ZM436.414 63.016C436.851 62.4827 437.07 61.7947 437.07 60.952C437.07 60.1093 436.851 59.4267 436.414 58.904C435.977 58.3707 435.379 58.104 434.622 58.104C433.875 58.104 433.278 58.3707 432.83 58.904C432.393 59.4267 432.174 60.1093 432.174 60.952C432.174 61.7947 432.393 62.4827 432.83 63.016C433.278 63.5387 433.875 63.8 434.622 63.8C435.379 63.8 435.977 63.5387 436.414 63.016ZM440.436 56.904H441.636C441.668 56.904 441.695 56.9307 441.716 56.984L441.876 57.704C441.897 57.7467 441.929 57.768 441.972 57.768C442.015 57.7573 442.047 57.736 442.068 57.704C442.207 57.4267 442.457 57.1973 442.82 57.016C443.183 56.8347 443.567 56.744 443.972 56.744C444.537 56.744 444.991 56.8133 445.332 56.952C445.673 57.0907 445.993 57.3413 446.292 57.704C446.345 57.7787 446.409 57.7787 446.484 57.704C447.039 57.064 447.844 56.744 448.9 56.744C449.935 56.744 450.719 57.0693 451.252 57.72C451.785 58.3707 452.052 59.304 452.052 60.52V64.92C452.052 64.9733 452.025 65 451.972 65H450.612C450.559 65 450.532 64.9733 450.532 64.92V60.52C450.532 60.168 450.511 59.8693 450.468 59.624C450.425 59.368 450.345 59.1173 450.228 58.872C450.111 58.616 449.924 58.424 449.668 58.296C449.423 58.168 449.113 58.104 448.74 58.104C448.057 58.104 447.588 58.3227 447.332 58.76C447.087 59.1973 446.964 59.784 446.964 60.52V64.92C446.964 64.9413 446.953 64.9627 446.932 64.984C446.921 64.9947 446.905 65 446.884 65H445.524H445.508C445.476 65 445.46 64.9893 445.46 64.968C445.449 64.9573 445.444 64.9413 445.444 64.92V60.52C445.444 59.784 445.316 59.1973 445.06 58.76C444.815 58.3227 444.345 58.104 443.652 58.104C443.023 58.104 442.569 58.3333 442.292 58.792C442.015 59.24 441.876 59.816 441.876 60.52V64.92C441.876 64.9733 441.849 65 441.796 65H440.436C440.383 65 440.356 64.9733 440.356 64.92V56.984C440.356 56.9307 440.383 56.904 440.436 56.904ZM461.733 63.72V64.92C461.733 64.9733 461.707 65 461.653 65H461.349C460.443 65 459.877 64.728 459.653 64.184C459.621 64.0987 459.573 64.088 459.509 64.152C458.837 64.824 457.915 65.16 456.741 65.16C455.76 65.16 454.992 64.9307 454.437 64.472C453.893 64.0027 453.621 63.3787 453.621 62.6C453.621 61.8853 453.925 61.304 454.533 60.856C455.141 60.3973 455.984 60.168 457.061 60.168H458.773C458.933 60.168 459.061 60.1147 459.157 60.008C459.253 59.8907 459.301 59.768 459.301 59.64C459.301 59.4267 459.285 59.2507 459.253 59.112C459.221 58.9733 459.147 58.8187 459.029 58.648C458.912 58.4667 458.709 58.3333 458.421 58.248C458.133 58.152 457.765 58.104 457.317 58.104C456.667 58.104 456.181 58.2373 455.861 58.504C455.552 58.7707 455.397 59.1227 455.397 59.56C455.397 59.6133 455.371 59.64 455.317 59.64H453.957C453.904 59.64 453.877 59.6133 453.877 59.56C453.877 58.664 454.208 57.9707 454.869 57.48C455.531 56.9893 456.347 56.744 457.317 56.744C458.437 56.744 459.301 56.9893 459.909 57.48C460.517 57.96 460.821 58.68 460.821 59.64V63.112C460.821 63.24 460.869 63.3627 460.965 63.48C461.061 63.5867 461.189 63.64 461.349 63.64H461.653C461.707 63.64 461.733 63.6667 461.733 63.72ZM459.301 61.672V61.448C459.301 61.3947 459.275 61.368 459.221 61.368H457.061C456.4 61.368 455.915 61.4907 455.605 61.736C455.296 61.9813 455.141 62.2693 455.141 62.6C455.141 62.9093 455.285 63.1867 455.573 63.432C455.861 63.6773 456.251 63.8 456.741 63.8C457.627 63.8 458.272 63.592 458.677 63.176C459.093 62.7493 459.301 62.248 459.301 61.672ZM467.663 58.104H466.847C466.207 58.104 465.695 58.344 465.311 58.824C464.927 59.2933 464.735 59.8587 464.735 60.52V64.92C464.735 64.9733 464.709 65 464.655 65H463.295C463.242 65 463.215 64.9733 463.215 64.92V56.984C463.215 56.9307 463.242 56.904 463.295 56.904H464.495C464.527 56.904 464.554 56.9307 464.575 56.984L464.735 57.704C464.767 57.8 464.826 57.8053 464.911 57.72C465.562 57.0693 466.207 56.744 466.847 56.744H467.663C467.717 56.744 467.743 56.7707 467.743 56.824V58.024C467.743 58.0773 467.717 58.104 467.663 58.104ZM476.691 65H475.251C475.187 65 475.139 64.9733 475.107 64.92L472.563 60.552C472.531 60.5093 472.493 60.5093 472.451 60.552L470.627 62.12C470.605 62.1413 470.595 62.1733 470.595 62.216V64.92C470.595 64.9733 470.568 65 470.515 65H469.155C469.101 65 469.075 64.9733 469.075 64.92V53.816C469.075 53.7627 469.101 53.736 469.155 53.736H470.515C470.568 53.736 470.595 53.7627 470.595 53.816V60.088C470.595 60.1093 470.605 60.1253 470.627 60.136C470.659 60.1467 470.685 60.1413 470.707 60.12L474.387 56.984C474.451 56.9307 474.531 56.904 474.627 56.904H476.595C476.616 56.904 476.632 56.9147 476.643 56.936C476.653 56.9573 476.653 56.9733 476.643 56.984L473.667 59.512C473.635 59.544 473.635 59.5867 473.667 59.64L476.755 64.92C476.776 64.9733 476.755 65 476.691 65ZM484.786 61.496H478.85C478.797 61.496 478.77 61.5227 478.77 61.576C478.77 62.184 478.978 62.7067 479.394 63.144C479.81 63.5813 480.359 63.8 481.042 63.8C482.002 63.8 482.679 63.4267 483.074 62.68C483.095 62.6267 483.133 62.6 483.186 62.6H484.61C484.674 62.6 484.701 62.6267 484.69 62.68C484.487 63.4587 484.055 64.0667 483.394 64.504C482.743 64.9413 481.959 65.16 481.042 65.16C479.858 65.16 478.914 64.776 478.21 64.008C477.506 63.2293 477.154 62.2107 477.154 60.952C477.154 59.672 477.495 58.6533 478.178 57.896C478.871 57.128 479.826 56.744 481.042 56.744C482.269 56.744 483.223 57.128 483.906 57.896C484.599 58.664 484.946 59.6827 484.946 60.952C484.946 61.1227 484.93 61.272 484.898 61.4C484.877 61.464 484.839 61.496 484.786 61.496ZM483.282 60.216C483.282 59.6827 483.09 59.1973 482.706 58.76C482.322 58.3227 481.767 58.104 481.042 58.104C480.338 58.104 479.783 58.344 479.378 58.824C478.973 59.2933 478.77 59.7573 478.77 60.216C478.77 60.2693 478.797 60.296 478.85 60.296H483.202C483.255 60.296 483.282 60.2693 483.282 60.216ZM491.132 58.104H490.316C489.676 58.104 489.164 58.344 488.78 58.824C488.396 59.2933 488.204 59.8587 488.204 60.52V64.92C488.204 64.9733 488.177 65 488.124 65H486.764C486.711 65 486.684 64.9733 486.684 64.92V56.984C486.684 56.9307 486.711 56.904 486.764 56.904H487.964C487.996 56.904 488.023 56.9307 488.044 56.984L488.204 57.704C488.236 57.8 488.295 57.8053 488.38 57.72C489.031 57.0693 489.676 56.744 490.316 56.744H491.132C491.185 56.744 491.212 56.7707 491.212 56.824V58.024C491.212 58.0773 491.185 58.104 491.132 58.104ZM498.562 59.64H497.186C497.133 59.64 497.106 59.6133 497.106 59.56C497.106 59.112 496.93 58.76 496.578 58.504C496.237 58.2373 495.746 58.104 495.106 58.104C494.541 58.104 494.109 58.2053 493.81 58.408C493.522 58.6107 493.378 58.8507 493.378 59.128C493.378 59.256 493.394 59.368 493.426 59.464C493.469 59.56 493.533 59.6453 493.618 59.72C493.714 59.784 493.8 59.8373 493.874 59.88C493.96 59.9227 494.077 59.9653 494.226 60.008C494.386 60.04 494.504 60.0613 494.578 60.072C494.664 60.0827 494.797 60.0987 494.978 60.12C495.16 60.1413 495.277 60.1573 495.33 60.168C496.44 60.328 497.181 60.4827 497.554 60.632C498.418 60.9947 498.85 61.6453 498.85 62.584C498.85 63.4587 498.53 64.1093 497.89 64.536C497.25 64.952 496.397 65.16 495.33 65.16C494.168 65.16 493.272 64.8933 492.642 64.36C492.024 63.8267 491.714 63.1547 491.714 62.344C491.714 62.2907 491.741 62.264 491.794 62.264H493.138C493.202 62.264 493.234 62.2907 493.234 62.344C493.234 62.76 493.426 63.1067 493.81 63.384C494.194 63.6613 494.701 63.8 495.33 63.8C496.664 63.8 497.33 63.3947 497.33 62.584C497.33 62.488 497.314 62.3973 497.282 62.312C497.261 62.2267 497.218 62.152 497.154 62.088C497.09 62.024 497.026 61.9707 496.962 61.928C496.909 61.8747 496.824 61.832 496.706 61.8C496.6 61.7573 496.514 61.7253 496.45 61.704C496.386 61.6827 496.285 61.6613 496.146 61.64C496.008 61.6187 495.912 61.6027 495.858 61.592C495.805 61.5813 495.709 61.5707 495.57 61.56C495.432 61.5387 495.352 61.528 495.33 61.528C494.989 61.4853 494.717 61.4533 494.514 61.432C494.322 61.4 494.066 61.3467 493.746 61.272C493.437 61.1973 493.186 61.1067 492.994 61C492.813 60.8933 492.621 60.76 492.418 60.6C492.226 60.4293 492.082 60.2213 491.986 59.976C491.901 59.7307 491.858 59.448 491.858 59.128C491.858 58.456 492.157 57.8907 492.754 57.432C493.352 56.9733 494.136 56.744 495.106 56.744C496.141 56.744 496.984 56.9893 497.634 57.48C498.296 57.96 498.626 58.6533 498.626 59.56C498.626 59.6133 498.605 59.64 498.562 59.64Z" fill="#18181B" fill-opacity="0.5"/>
<rect x="26" y="104" width="474" height="6" rx="3" fill="#FC5F2B"/>
<path d="M26.435 129.281C26.435 126.053 33.1761 125.382 33.5989 129.248C33.6103 129.505 33.496 129.628 33.3018 129.628H31.6222C31.428 129.628 31.3366 129.538 31.2909 129.337C31.0281 127.818 28.7087 128.164 28.7087 129.281C28.7087 131.024 33.7702 129.739 33.7702 133.024C33.7702 136.666 26.3893 136.755 26.0008 132.879C25.9894 132.644 26.1036 132.543 26.3093 132.543H27.9889C28.1717 132.543 28.2745 132.644 28.3202 132.856C28.6058 134.376 31.4166 134.309 31.4166 133.024C31.4166 131.393 26.435 132.543 26.435 129.281ZM40.4657 127.136C40.4657 126.924 40.5571 126.801 40.8085 126.801H42.408C42.648 126.801 42.7622 126.924 42.7622 127.136V131.504C42.7622 133.672 41.3797 135.671 38.6376 135.671C35.8954 135.671 34.5015 133.672 34.5015 131.504L34.4901 127.136C34.4901 126.924 34.6157 126.801 34.8443 126.801H36.4667C36.7295 126.801 36.8209 126.924 36.8209 127.136L36.8323 131.504C36.8323 133.147 37.6892 133.661 38.6376 133.661C39.5859 133.661 40.4543 133.147 40.4543 131.504L40.4657 127.136ZM60.3921 130.22H56.0503C56.0503 129.337 56.9301 128.309 58.3354 128.309C59.7408 128.309 60.3921 129.337 60.3921 130.22ZM62.6772 131.527V131.214C62.6772 128.7 61.2033 126.533 58.2783 126.533C56.1074 126.533 54.5535 127.941 53.9823 129.784C53.7309 130.588 53.6966 131.46 53.8794 132.298C54.3365 134.353 55.9703 135.917 58.2783 135.917C58.6439 135.917 61.6603 135.917 62.5858 133.035C62.6429 132.845 62.5629 132.778 62.403 132.778H60.5749C60.4606 132.778 60.3806 132.834 60.3235 132.946C60.1407 133.325 59.6608 134.074 58.2783 134.074C57.0558 134.074 56.0503 133.001 56.0503 131.884H62.323C62.5515 131.884 62.6772 131.75 62.6772 131.527ZM110.082 130.242H106.06C106.06 129.382 106.803 128.376 108.186 128.376C109.568 128.376 110.082 129.382 110.082 130.242ZM112.539 131.527V131.214C112.539 128.7 111.053 126.533 108.129 126.533C105.958 126.533 104.404 127.93 103.832 129.784C103.57 130.588 103.535 131.46 103.73 132.298C104.175 134.353 105.821 135.917 108.129 135.917C108.494 135.917 111.51 135.917 112.447 133.046C112.505 132.845 112.425 132.778 112.253 132.778H110.436C110.311 132.778 110.231 132.834 110.174 132.946C109.991 133.325 109.511 134.085 108.129 134.085C106.906 134.085 106.015 133.013 106.015 131.884H112.173C112.413 131.884 112.539 131.75 112.539 131.527ZM118.663 126.801C118.983 126.801 119.143 126.98 119.143 127.304V128.611C119.143 128.946 118.96 129.091 118.617 129.091C116.618 129.091 115.658 130.007 115.658 132.365V135.325C115.658 135.537 115.521 135.649 115.327 135.649H113.624C113.43 135.649 113.316 135.537 113.316 135.325V132.365C113.316 130.331 113.898 126.801 118.663 126.801ZM97.5483 126.801H95.7088C95.5831 126.801 95.5374 126.846 95.4917 126.98L93.6408 132.342L92.2011 126.98C92.1668 126.846 92.1097 126.801 91.984 126.801H89.8246C89.6418 126.801 89.6646 126.913 89.6989 127.036L91.9155 135.415C91.9612 135.604 92.0412 135.649 92.2583 135.649H94.5548C94.7262 135.649 94.829 135.582 94.8862 135.403L96.6343 130.175L98.371 135.403C98.4281 135.582 98.5424 135.649 98.7023 135.649H101.01C101.227 135.649 101.307 135.604 101.353 135.415L103.57 127.036C103.604 126.913 103.627 126.801 103.433 126.801H101.285C101.147 126.801 101.09 126.846 101.056 126.98L99.6164 132.342L97.7768 126.98C97.7311 126.846 97.674 126.801 97.5483 126.801ZM82.6378 131.214C82.6378 129.639 83.5062 128.622 84.8887 128.622C86.2712 128.622 87.2652 129.639 87.2652 131.214C87.2652 132.789 86.2369 133.828 84.8887 133.828C83.5405 133.828 82.6378 132.8 82.6378 131.214ZM84.8887 126.533C82.1922 126.533 80.2499 128.7 80.2499 131.214C80.2499 133.728 82.1922 135.917 84.8887 135.917C87.5852 135.917 89.6532 133.795 89.6532 131.214C89.6532 128.633 87.4823 126.533 84.8887 126.533ZM68.8699 126.801C69.1898 126.801 69.3498 126.98 69.3498 127.304V128.611C69.3498 128.946 69.167 129.091 68.8242 129.091C66.8247 129.091 65.865 130.007 65.865 132.365V135.325C65.865 135.537 65.7278 135.649 65.5336 135.649H63.8312C63.6369 135.649 63.5227 135.537 63.5227 135.325V132.365C63.5227 130.331 64.1054 126.801 68.8699 126.801ZM72.4804 131.035C72.4804 132.588 73.3373 133.605 74.697 133.605C76.0567 133.605 77.0164 132.599 77.0164 131.035C77.0164 129.471 76.0224 128.488 74.697 128.488C73.3716 128.488 72.4804 129.494 72.4804 131.035ZM72.6061 134.744V138.375C72.6061 138.587 72.4804 138.699 72.2862 138.699H70.5723C70.3781 138.699 70.2638 138.587 70.2638 138.375V127.293C70.2638 126.969 70.4467 126.801 70.778 126.801H72.1948C72.5375 126.801 72.6061 126.969 72.6061 127.293V128.097H72.7318C74.4799 124.88 79.4615 126.622 79.4615 131.035C79.4615 135.772 74.3999 136.621 72.6061 134.744ZM45.9729 131.035C45.9729 132.588 46.8412 133.605 48.1894 133.605C49.5377 133.605 50.5089 132.599 50.5089 131.035C50.5089 129.471 49.5262 128.488 48.1894 128.488C46.8526 128.488 45.9729 129.494 45.9729 131.035ZM46.0757 134.744V138.375C46.0757 138.587 45.9386 138.699 45.7443 138.699H44.0419C43.8363 138.699 43.7334 138.587 43.7334 138.375V127.293C43.7334 126.969 43.9048 126.801 44.2362 126.801H45.6644C46.0071 126.801 46.0757 126.969 46.0757 127.293V128.097H46.1899C47.9381 124.88 52.9197 126.622 52.9197 131.035C52.9197 135.772 47.8581 136.621 46.0757 134.744Z" fill="#18181B"/>
<path d="M328.822 128.626C329.205 128.273 329.795 128.273 330.178 128.626L334.121 132.265C334.79 132.883 334.353 134 333.442 134H325.558C324.647 134 324.21 132.883 324.879 132.265L328.822 128.626Z" fill="#FC5F2B"/>
<path d="M345.264 126.856V125.816C345.264 125.763 345.291 125.736 345.344 125.736H346.704C346.757 125.736 346.784 125.763 346.784 125.816V136.92C346.784 136.973 346.757 137 346.704 137H345.344C345.291 137 345.264 136.973 345.264 136.92V129.544C345.264 129.395 345.211 129.277 345.104 129.192C345.008 129.107 344.896 129.064 344.768 129.064H342.32C342.267 129.064 342.24 129.037 342.24 128.984V127.864C342.24 127.811 342.267 127.784 342.32 127.784H344.304C344.571 127.784 344.795 127.699 344.976 127.528C345.168 127.347 345.264 127.123 345.264 126.856ZM357.674 131.368C357.674 135.24 356.25 137.176 353.402 137.176C350.544 137.176 349.114 135.24 349.114 131.368C349.114 127.507 350.544 125.576 353.402 125.576C356.25 125.576 357.674 127.507 357.674 131.368ZM356.074 131.368C356.074 129.896 355.866 128.792 355.45 128.056C355.034 127.309 354.352 126.936 353.402 126.936C352.453 126.936 351.77 127.309 351.354 128.056C350.938 128.792 350.73 129.896 350.73 131.368C350.73 132.84 350.938 133.949 351.354 134.696C351.77 135.443 352.453 135.816 353.402 135.816C354.352 135.816 355.034 135.443 355.45 134.696C355.866 133.939 356.074 132.829 356.074 131.368ZM367.612 131.368C367.612 135.24 366.188 137.176 363.34 137.176C360.481 137.176 359.052 135.24 359.052 131.368C359.052 127.507 360.481 125.576 363.34 125.576C366.188 125.576 367.612 127.507 367.612 131.368ZM366.012 131.368C366.012 129.896 365.804 128.792 365.388 128.056C364.972 127.309 364.289 126.936 363.34 126.936C362.391 126.936 361.708 127.309 361.292 128.056C360.876 128.792 360.668 129.896 360.668 131.368C360.668 132.84 360.876 133.949 361.292 134.696C361.708 135.443 362.391 135.816 363.34 135.816C364.289 135.816 364.972 135.443 365.388 134.696C365.804 133.939 366.012 132.829 366.012 131.368ZM376.536 135.72V136.92C376.536 136.973 376.509 137 376.456 137H375.224C373.826 137 373.128 136.371 373.128 135.112V130.184C373.128 130.131 373.101 130.104 373.048 130.104H371.623C371.57 130.104 371.543 130.077 371.543 130.024V128.984C371.543 128.931 371.57 128.904 371.623 128.904H373.048C373.101 128.904 373.128 128.877 373.128 128.824V126.664C373.128 126.611 373.154 126.584 373.208 126.584H374.568C374.621 126.584 374.648 126.611 374.648 126.664V128.824C374.648 128.877 374.674 128.904 374.728 128.904H376.456C376.509 128.904 376.536 128.931 376.536 128.984V130.024C376.536 130.077 376.509 130.104 376.456 130.104H374.728C374.674 130.104 374.648 130.131 374.648 130.184V134.84C374.648 135.373 374.936 135.64 375.512 135.64H376.456C376.509 135.64 376.536 135.667 376.536 135.72ZM384.315 129.896C385.03 130.664 385.387 131.683 385.387 132.952C385.387 134.221 385.03 135.24 384.315 136.008C383.611 136.776 382.646 137.16 381.419 137.16C380.182 137.16 379.211 136.776 378.507 136.008C377.803 135.24 377.451 134.221 377.451 132.952C377.451 131.683 377.803 130.664 378.507 129.896C379.211 129.128 380.182 128.744 381.419 128.744C382.646 128.744 383.611 129.128 384.315 129.896ZM383.211 135.016C383.648 134.483 383.867 133.795 383.867 132.952C383.867 132.109 383.648 131.427 383.211 130.904C382.774 130.371 382.176 130.104 381.419 130.104C380.672 130.104 380.075 130.371 379.627 130.904C379.19 131.427 378.971 132.109 378.971 132.952C378.971 133.795 379.19 134.483 379.627 135.016C380.075 135.539 380.672 135.8 381.419 135.8C382.176 135.8 382.774 135.539 383.211 135.016ZM392.436 126.856V125.816C392.436 125.763 392.463 125.736 392.516 125.736H393.876C393.929 125.736 393.956 125.763 393.956 125.816V136.92C393.956 136.973 393.929 137 393.876 137H392.516C392.463 137 392.436 136.973 392.436 136.92V129.544C392.436 129.395 392.383 129.277 392.276 129.192C392.18 129.107 392.068 129.064 391.94 129.064H389.492C389.439 129.064 389.412 129.037 389.412 128.984V127.864C389.412 127.811 389.439 127.784 389.492 127.784H391.476C391.743 127.784 391.967 127.699 392.148 127.528C392.34 127.347 392.436 127.123 392.436 126.856ZM395.806 136.92V135.8C395.806 135.704 395.828 135.635 395.87 135.592L400.318 131.256C401.236 130.381 401.689 129.619 401.678 128.968C401.668 128.467 401.481 128.003 401.118 127.576C400.756 127.149 400.233 126.936 399.55 126.936C398.964 126.936 398.478 127.128 398.094 127.512C397.71 127.885 397.518 128.323 397.518 128.824C397.518 128.877 397.492 128.904 397.438 128.904H396.078C396.025 128.904 395.998 128.877 395.998 128.824C395.998 127.875 396.329 127.096 396.99 126.488C397.662 125.88 398.516 125.576 399.55 125.576C400.67 125.576 401.556 125.901 402.206 126.552C402.868 127.203 403.198 128.008 403.198 128.968C403.198 130.109 402.606 131.208 401.422 132.264L397.902 135.512C397.881 135.523 397.876 135.549 397.886 135.592C397.897 135.624 397.924 135.64 397.966 135.64H403.118C403.172 135.64 403.198 135.667 403.198 135.72V136.92C403.198 136.973 403.172 137 403.118 137H395.886C395.833 137 395.806 136.973 395.806 136.92ZM413.049 131.368C413.049 135.24 411.625 137.176 408.777 137.176C405.919 137.176 404.489 135.24 404.489 131.368C404.489 127.507 405.919 125.576 408.777 125.576C411.625 125.576 413.049 127.507 413.049 131.368ZM411.449 131.368C411.449 129.896 411.241 128.792 410.825 128.056C410.409 127.309 409.727 126.936 408.777 126.936C407.828 126.936 407.145 127.309 406.729 128.056C406.313 128.792 406.105 129.896 406.105 131.368C406.105 132.84 406.313 133.949 406.729 134.696C407.145 135.443 407.828 135.816 408.777 135.816C409.727 135.816 410.409 135.443 410.825 134.696C411.241 133.939 411.449 132.829 411.449 131.368ZM419.589 137H418.389C418.336 137 418.309 136.973 418.309 136.92V125.816C418.309 125.763 418.336 125.736 418.389 125.736H419.749C419.802 125.736 419.829 125.763 419.829 125.816V129.624C419.829 129.656 419.845 129.683 419.877 129.704C419.909 129.715 419.946 129.699 419.989 129.656C420.138 129.485 420.432 129.293 420.869 129.08C421.317 128.856 421.786 128.744 422.277 128.744C423.44 128.744 424.362 129.133 425.045 129.912C425.738 130.68 426.085 131.693 426.085 132.952C426.085 134.211 425.738 135.229 425.045 136.008C424.362 136.776 423.44 137.16 422.277 137.16C421.893 137.16 421.472 137.064 421.013 136.872C420.554 136.68 420.213 136.472 419.989 136.248C419.914 136.173 419.861 136.184 419.829 136.28L419.669 136.92C419.648 136.973 419.621 137 419.589 137ZM423.909 135.016C424.346 134.483 424.565 133.795 424.565 132.952C424.565 132.109 424.346 131.427 423.909 130.904C423.472 130.371 422.874 130.104 422.117 130.104C421.402 130.104 420.842 130.365 420.437 130.888C420.032 131.411 419.829 132.099 419.829 132.952C419.829 133.805 420.032 134.493 420.437 135.016C420.842 135.539 421.402 135.8 422.117 135.8C422.874 135.8 423.472 135.539 423.909 135.016ZM429.36 128.984V136.92C429.36 136.973 429.334 137 429.28 137H427.92C427.867 137 427.84 136.973 427.84 136.92V128.984C427.84 128.931 427.867 128.904 427.92 128.904H429.28C429.334 128.904 429.36 128.931 429.36 128.984ZM429.392 127.512H427.792C427.739 127.512 427.712 127.485 427.712 127.432V125.816C427.712 125.763 427.739 125.736 427.792 125.736H429.392C429.446 125.736 429.472 125.763 429.472 125.816V127.432C429.472 127.485 429.446 127.512 429.392 127.512ZM437.987 129.896C438.702 130.664 439.059 131.683 439.059 132.952C439.059 134.221 438.702 135.24 437.987 136.008C437.283 136.776 436.318 137.16 435.091 137.16C433.854 137.16 432.883 136.776 432.179 136.008C431.475 135.24 431.123 134.221 431.123 132.952C431.123 131.683 431.475 130.664 432.179 129.896C432.883 129.128 433.854 128.744 435.091 128.744C436.318 128.744 437.283 129.128 437.987 129.896ZM436.883 135.016C437.32 134.483 437.539 133.795 437.539 132.952C437.539 132.109 437.32 131.427 436.883 130.904C436.446 130.371 435.848 130.104 435.091 130.104C434.344 130.104 433.747 130.371 433.299 130.904C432.862 131.427 432.643 132.109 432.643 132.952C432.643 133.795 432.862 134.483 433.299 135.016C433.747 135.539 434.344 135.8 435.091 135.8C435.848 135.8 436.446 135.539 436.883 135.016ZM440.905 128.904H442.105C442.137 128.904 442.163 128.931 442.185 128.984L442.345 129.704C442.366 129.747 442.398 129.768 442.441 129.768C442.483 129.757 442.515 129.736 442.537 129.704C442.675 129.427 442.926 129.197 443.289 129.016C443.651 128.835 444.035 128.744 444.441 128.744C445.006 128.744 445.459 128.813 445.801 128.952C446.142 129.091 446.462 129.341 446.761 129.704C446.814 129.779 446.878 129.779 446.953 129.704C447.507 129.064 448.313 128.744 449.369 128.744C450.403 128.744 451.187 129.069 451.721 129.72C452.254 130.371 452.521 131.304 452.521 132.52V136.92C452.521 136.973 452.494 137 452.441 137H451.081C451.027 137 451.001 136.973 451.001 136.92V132.52C451.001 132.168 450.979 131.869 450.937 131.624C450.894 131.368 450.814 131.117 450.697 130.872C450.579 130.616 450.393 130.424 450.137 130.296C449.891 130.168 449.582 130.104 449.209 130.104C448.526 130.104 448.057 130.323 447.801 130.76C447.555 131.197 447.433 131.784 447.433 132.52V136.92C447.433 136.941 447.422 136.963 447.401 136.984C447.39 136.995 447.374 137 447.353 137H445.993H445.977C445.945 137 445.929 136.989 445.929 136.968C445.918 136.957 445.913 136.941 445.913 136.92V132.52C445.913 131.784 445.785 131.197 445.529 130.76C445.283 130.323 444.814 130.104 444.121 130.104C443.491 130.104 443.038 130.333 442.761 130.792C442.483 131.24 442.345 131.816 442.345 132.52V136.92C442.345 136.973 442.318 137 442.265 137H440.905C440.851 137 440.825 136.973 440.825 136.92V128.984C440.825 128.931 440.851 128.904 440.905 128.904ZM462.202 135.72V136.92C462.202 136.973 462.175 137 462.122 137H461.818C460.911 137 460.346 136.728 460.122 136.184C460.09 136.099 460.042 136.088 459.978 136.152C459.306 136.824 458.383 137.16 457.21 137.16C456.229 137.16 455.461 136.931 454.906 136.472C454.362 136.003 454.09 135.379 454.09 134.6C454.09 133.885 454.394 133.304 455.002 132.856C455.61 132.397 456.453 132.168 457.53 132.168H459.242C459.402 132.168 459.53 132.115 459.626 132.008C459.722 131.891 459.77 131.768 459.77 131.64C459.77 131.427 459.754 131.251 459.722 131.112C459.69 130.973 459.615 130.819 459.498 130.648C459.381 130.467 459.178 130.333 458.89 130.248C458.602 130.152 458.234 130.104 457.786 130.104C457.135 130.104 456.65 130.237 456.33 130.504C456.021 130.771 455.866 131.123 455.866 131.56C455.866 131.613 455.839 131.64 455.786 131.64H454.426C454.373 131.64 454.346 131.613 454.346 131.56C454.346 130.664 454.677 129.971 455.338 129.48C455.999 128.989 456.815 128.744 457.786 128.744C458.906 128.744 459.77 128.989 460.378 129.48C460.986 129.96 461.29 130.68 461.29 131.64V135.112C461.29 135.24 461.338 135.363 461.434 135.48C461.53 135.587 461.658 135.64 461.818 135.64H462.122C462.175 135.64 462.202 135.667 462.202 135.72ZM459.77 133.672V133.448C459.77 133.395 459.743 133.368 459.69 133.368H457.53C456.869 133.368 456.383 133.491 456.074 133.736C455.765 133.981 455.61 134.269 455.61 134.6C455.61 134.909 455.754 135.187 456.042 135.432C456.33 135.677 456.719 135.8 457.21 135.8C458.095 135.8 458.741 135.592 459.146 135.176C459.562 134.749 459.77 134.248 459.77 133.672ZM468.132 130.104H467.316C466.676 130.104 466.164 130.344 465.78 130.824C465.396 131.293 465.204 131.859 465.204 132.52V136.92C465.204 136.973 465.177 137 465.124 137H463.764C463.711 137 463.684 136.973 463.684 136.92V128.984C463.684 128.931 463.711 128.904 463.764 128.904H464.964C464.996 128.904 465.023 128.931 465.044 128.984L465.204 129.704C465.236 129.8 465.295 129.805 465.38 129.72C466.031 129.069 466.676 128.744 467.316 128.744H468.132C468.185 128.744 468.212 128.771 468.212 128.824V130.024C468.212 130.077 468.185 130.104 468.132 130.104ZM477.159 137H475.719C475.655 137 475.607 136.973 475.575 136.92L473.031 132.552C472.999 132.509 472.962 132.509 472.919 132.552L471.095 134.12C471.074 134.141 471.063 134.173 471.063 134.216V136.92C471.063 136.973 471.037 137 470.983 137H469.623C469.57 137 469.543 136.973 469.543 136.92V125.816C469.543 125.763 469.57 125.736 469.623 125.736H470.983C471.037 125.736 471.063 125.763 471.063 125.816V132.088C471.063 132.109 471.074 132.125 471.095 132.136C471.127 132.147 471.154 132.141 471.175 132.12L474.855 128.984C474.919 128.931 474.999 128.904 475.095 128.904H477.063C477.085 128.904 477.101 128.915 477.111 128.936C477.122 128.957 477.122 128.973 477.111 128.984L474.135 131.512C474.103 131.544 474.103 131.587 474.135 131.64L477.223 136.92C477.245 136.973 477.223 137 477.159 137ZM485.255 133.496H479.319C479.266 133.496 479.239 133.523 479.239 133.576C479.239 134.184 479.447 134.707 479.863 135.144C480.279 135.581 480.828 135.8 481.511 135.8C482.471 135.8 483.148 135.427 483.543 134.68C483.564 134.627 483.602 134.6 483.655 134.6H485.079C485.143 134.6 485.17 134.627 485.159 134.68C484.956 135.459 484.524 136.067 483.863 136.504C483.212 136.941 482.428 137.16 481.511 137.16C480.327 137.16 479.383 136.776 478.679 136.008C477.975 135.229 477.623 134.211 477.623 132.952C477.623 131.672 477.964 130.653 478.647 129.896C479.34 129.128 480.295 128.744 481.511 128.744C482.738 128.744 483.692 129.128 484.375 129.896C485.068 130.664 485.415 131.683 485.415 132.952C485.415 133.123 485.399 133.272 485.367 133.4C485.346 133.464 485.308 133.496 485.255 133.496ZM483.751 132.216C483.751 131.683 483.559 131.197 483.175 130.76C482.791 130.323 482.236 130.104 481.511 130.104C480.807 130.104 480.252 130.344 479.847 130.824C479.442 131.293 479.239 131.757 479.239 132.216C479.239 132.269 479.266 132.296 479.319 132.296H483.671C483.724 132.296 483.751 132.269 483.751 132.216ZM491.601 130.104H490.785C490.145 130.104 489.633 130.344 489.249 130.824C488.865 131.293 488.673 131.859 488.673 132.52V136.92C488.673 136.973 488.646 137 488.593 137H487.233C487.179 137 487.153 136.973 487.153 136.92V128.984C487.153 128.931 487.179 128.904 487.233 128.904H488.433C488.465 128.904 488.491 128.931 488.513 128.984L488.673 129.704C488.705 129.8 488.763 129.805 488.849 129.72C489.499 129.069 490.145 128.744 490.785 128.744H491.601C491.654 128.744 491.681 128.771 491.681 128.824V130.024C491.681 130.077 491.654 130.104 491.601 130.104ZM499.031 131.64H497.655C497.602 131.64 497.575 131.613 497.575 131.56C497.575 131.112 497.399 130.76 497.047 130.504C496.706 130.237 496.215 130.104 495.575 130.104C495.01 130.104 494.578 130.205 494.279 130.408C493.991 130.611 493.847 130.851 493.847 131.128C493.847 131.256 493.863 131.368 493.895 131.464C493.938 131.56 494.002 131.645 494.087 131.72C494.183 131.784 494.268 131.837 494.343 131.88C494.428 131.923 494.546 131.965 494.695 132.008C494.855 132.04 494.972 132.061 495.047 132.072C495.132 132.083 495.266 132.099 495.447 132.12C495.628 132.141 495.746 132.157 495.799 132.168C496.908 132.328 497.65 132.483 498.023 132.632C498.887 132.995 499.319 133.645 499.319 134.584C499.319 135.459 498.999 136.109 498.359 136.536C497.719 136.952 496.866 137.16 495.799 137.16C494.636 137.16 493.74 136.893 493.111 136.36C492.492 135.827 492.183 135.155 492.183 134.344C492.183 134.291 492.21 134.264 492.263 134.264H493.607C493.671 134.264 493.703 134.291 493.703 134.344C493.703 134.76 493.895 135.107 494.279 135.384C494.663 135.661 495.17 135.8 495.799 135.8C497.132 135.8 497.799 135.395 497.799 134.584C497.799 134.488 497.783 134.397 497.751 134.312C497.73 134.227 497.687 134.152 497.623 134.088C497.559 134.024 497.495 133.971 497.431 133.928C497.378 133.875 497.292 133.832 497.175 133.8C497.068 133.757 496.983 133.725 496.919 133.704C496.855 133.683 496.754 133.661 496.615 133.64C496.476 133.619 496.38 133.603 496.327 133.592C496.274 133.581 496.178 133.571 496.039 133.56C495.9 133.539 495.82 133.528 495.799 133.528C495.458 133.485 495.186 133.453 494.983 133.432C494.791 133.4 494.535 133.347 494.215 133.272C493.906 133.197 493.655 133.107 493.463 133C493.282 132.893 493.09 132.76 492.887 132.6C492.695 132.429 492.551 132.221 492.455 131.976C492.37 131.731 492.327 131.448 492.327 131.128C492.327 130.456 492.626 129.891 493.223 129.432C493.82 128.973 494.604 128.744 495.575 128.744C496.61 128.744 497.452 128.989 498.103 129.48C498.764 129.96 499.095 130.653 499.095 131.56C499.095 131.613 499.074 131.64 499.031 131.64Z" fill="#18181B" fill-opacity="0.5"/>
</g>
<defs>
<filter id="filter0_d_6013_3293" x="0" y="0" width="526" height="172" filterUnits="userSpaceOnUse" color-interpolation-filters="sRGB">
<feFlood flood-opacity="0" result="BackgroundImageFix"/>
<feColorMatrix in="SourceAlpha" type="matrix" values="0 0 0 0 0 0 0 0 0 0 0 0 0 0 0 0 0 0 127 0" result="hardAlpha"/>
<feOffset dy="2"/>
<feGaussianBlur stdDeviation="1"/>
<feComposite in2="hardAlpha" operator="out"/>
<feColorMatrix type="matrix" values="0 0 0 0 0 0 0 0 0 0 0 0 0 0 0 0 0 0 0.025 0"/>
<feBlend mode="normal" in2="BackgroundImageFix" result="effect1_dropShadow_6013_3293"/>
<feBlend mode="normal" in="SourceGraphic" in2="effect1_dropShadow_6013_3293" result="shape"/>
</filter>
</defs>
</svg>
