<svg width="76" height="24" viewBox="0 0 76 24" fill="none" xmlns="http://www.w3.org/2000/svg">
<path d="M75.114 0H0V23.1108H75.114V0Z" fill="#002147"/>
<path d="M29.4285 14.467C29.4285 12.5114 28.4822 11.1543 26.8978 11.1543C25.1696 11.1543 24.3671 12.7799 24.3671 14.467C24.3671 16.4226 25.3133 17.7796 26.8978 17.7796C28.626 17.7591 29.4285 16.1336 29.4285 14.467ZM30.6021 14.4259C30.6021 16.5664 28.9561 18.1303 26.8772 18.1303C24.7779 18.1303 23.1523 16.5664 23.1523 14.5081C23.1523 12.3676 24.7984 10.8037 26.8772 10.8037C28.9972 10.8037 30.6021 12.3676 30.6021 14.4259Z" fill="white"/>
<path d="M52.1267 14.467C52.1267 12.5114 51.1804 11.1543 49.596 11.1543C47.8678 11.1543 47.0653 12.7799 47.0653 14.467C47.0653 16.4226 48.0115 17.7796 49.596 17.7796C51.3242 17.7591 52.1267 16.1336 52.1267 14.467ZM53.3209 14.4259C53.3209 16.5664 51.6748 18.1303 49.596 18.1303C47.4966 18.1303 45.8711 16.5664 45.8711 14.5081C45.8711 12.3676 47.5171 10.8037 49.596 10.8037C51.6954 10.8037 53.3209 12.3676 53.3209 14.4259Z" fill="white"/>
<path d="M57.8284 15.639C57.4162 15.0419 57.2518 14.8365 56.7384 14.8365H56.1824V17.244C56.1824 17.4494 56.2645 17.5315 56.4699 17.5726L57.2724 17.7575V18.0039H54.1035V17.7369L54.8238 17.5521C55.0292 17.4905 55.1114 17.4083 55.1114 17.2235V11.6677C55.1114 11.4623 55.0292 11.4007 54.8238 11.339L54.1035 11.1542V10.9077H57.1902C57.8489 10.9077 58.3008 10.9693 58.672 11.1131C59.4334 11.4007 59.8662 12.1415 59.8662 12.8208C59.8662 13.6849 59.2075 14.4258 58.138 14.6722V14.7133C58.3639 14.816 58.4666 14.9598 59.2485 15.9486L60.2153 17.2249C60.3591 17.4303 60.5234 17.533 60.7508 17.5741L61.4506 17.7384V17.9849H59.7635C59.5581 17.9849 59.4759 17.9233 59.2896 17.6973L57.8284 15.639ZM56.1824 14.5079H57.067C58.405 14.5079 58.6925 13.6643 58.6925 12.8619C58.6925 12.2442 58.4255 11.6882 57.7873 11.4007C57.4587 11.2569 57.1286 11.2569 56.6973 11.2569H56.1618V14.5079H56.1824Z" fill="white"/>
<path d="M43.9364 13.3342H44.224V15.7006H43.9364L43.7516 15.0008C43.6899 14.7544 43.5256 14.6517 43.2982 14.6517H41.5906V17.244C41.5906 17.4494 41.6727 17.5315 41.8781 17.5726L42.6806 17.7575V18.0039H39.5117V17.7369L40.2321 17.5521C40.458 17.4905 40.5196 17.4083 40.5196 17.2235V11.6677C40.5196 11.4623 40.4374 11.4007 40.2321 11.339L39.5117 11.1542V10.9077H44.8621V12.677H44.5746L44.246 11.6075C44.1638 11.3405 44.0406 11.2378 43.8132 11.2378H41.5906V14.2834H43.2982C43.5242 14.2834 43.6679 14.1808 43.7516 13.9343L43.9364 13.3342Z" fill="white"/>
<path d="M64.1028 11.2571V17.3484C64.1028 17.5949 64.1644 17.6565 64.4108 17.6565H65.275C66.098 17.6565 66.7156 17.5332 67.1469 17.2237C67.8673 16.6882 68.2164 15.7214 68.2164 14.5067C68.2164 13.3125 67.8878 12.1198 66.899 11.5637C66.4868 11.3173 65.9527 11.2557 65.1297 11.2557L64.1028 11.2571ZM62.0254 18.0071V17.7401L62.7457 17.5553C62.9717 17.4936 63.0333 17.4115 63.0333 17.2266V11.6708C63.0333 11.4654 62.9511 11.4038 62.7457 11.3422L62.0254 11.1574V10.9109H65.3586C66.2638 10.9109 66.9225 11.0341 67.4374 11.2601C68.7754 11.8777 69.393 13.1951 69.393 14.4905C69.393 15.7464 68.9192 16.9391 67.7264 17.5567C67.1704 17.8443 66.409 17.9895 65.4011 17.9895H62.0269V18.0071H62.0254Z" fill="white"/>
<path d="M33.3783 17.7384V17.9849H30.8887V17.7384L31.5268 17.5741C31.7733 17.5125 31.9186 17.4303 32.0829 17.266L34.2439 14.549L32.0829 11.6677C31.9391 11.4623 31.7748 11.3801 31.5474 11.3185L30.9503 11.1542V10.9077H34.0575V11.1542L33.3988 11.298C33.1729 11.339 33.214 11.4417 33.3372 11.5855L34.9216 13.8697H34.9627L36.5882 11.5855C36.7115 11.4212 36.7526 11.3596 36.5266 11.3185L35.8884 11.1542V10.9077H38.3781V11.1542L37.7399 11.3185C37.514 11.3801 37.3482 11.4623 37.1839 11.6266L35.1461 14.1984L37.4303 17.2029C37.5741 17.4083 37.7384 17.4905 37.9658 17.5521L38.5629 17.7164V17.9629H35.4557V17.7369L36.1349 17.5932C36.3608 17.5521 36.3403 17.4699 36.2171 17.3262L34.4903 14.8776H34.4493L32.7005 17.3056C32.5773 17.4699 32.5362 17.511 32.7621 17.5726L33.3783 17.7384Z" fill="white"/>
<path d="M25.9302 7.57329C25.7248 7.77868 25.4358 7.90191 25.025 7.90191C24.6759 7.90191 24.3458 7.79922 24.1199 7.57329C23.8118 7.2652 23.8323 6.8735 23.8323 6.46272V4.48657H24.2446V6.60649C24.2446 6.8735 24.2446 7.14197 24.45 7.34736C24.5937 7.49113 24.8197 7.57329 25.0676 7.57329C25.3141 7.57329 25.5209 7.49113 25.6441 7.3679C25.8701 7.14197 25.8495 6.89403 25.8495 6.27786V4.50858H26.2412V6.17517C26.2178 6.79134 26.2589 7.26374 25.9302 7.57329Z" fill="white"/>
<path d="M29.4903 7.8403L27.8648 5.10274L27.8853 7.8403H27.5156V4.48657H27.9264L29.5519 7.26374L29.5314 4.48657H29.9026V7.8403H29.4903Z" fill="white"/>
<path d="M31.713 4.48657H31.3008V7.8403H31.713V4.48657Z" fill="white"/>
<path d="M34.2246 7.8403H33.7508L32.5977 4.48657H33.0304L33.9972 7.45006L35.0066 4.48657H35.3968L34.2246 7.8403Z" fill="white"/>
<path d="M36.3223 7.8403V4.48657H38.1341V4.81519H36.714V5.92723H38.0519V6.25586H36.714V7.51167H38.1752V7.8403H36.3223Z" fill="white"/>
<path d="M41.0971 7.8403L40.7053 6.97619C40.4589 6.44071 40.3562 6.37909 39.8618 6.37909H39.6359V7.8403H39.2441V4.48657H39.9645C40.4178 4.48657 40.7464 4.48657 41.0134 4.75358C41.1777 4.91789 41.2804 5.14529 41.2804 5.43283C41.2804 5.65876 41.2188 5.86562 41.075 6.00939C40.9518 6.13262 40.7464 6.25586 40.5396 6.2764C40.6628 6.2764 40.745 6.33802 40.8271 6.42017C40.9093 6.50233 40.9914 6.6461 41.0736 6.8735L41.5269 7.88137H41.0941V7.8403H41.0971ZM40.7259 5.00005C40.541 4.8152 40.2931 4.81519 40.0056 4.81519H39.6359V6.07101H39.7591C40.0877 6.07101 40.4589 6.09155 40.6848 5.86562C40.7875 5.76292 40.8491 5.59861 40.8491 5.43283C40.8902 5.22744 40.808 5.0822 40.7259 5.00005Z" fill="white"/>
<path d="M45.8497 4.48657H45.4375V7.8403H45.8497V4.48657Z" fill="white"/>
<path d="M48.134 4.81519V7.8403H47.7437V4.81519H46.7344V4.48657H49.1418V4.81519H48.134Z" fill="white"/>
<path d="M51.0784 6.52287V7.8403H50.6661V6.52287L49.6172 4.48657H50.0705L50.8935 6.07101L51.696 4.48657H52.1273L51.0784 6.52287Z" fill="white"/>
<path d="M55.8929 7.90176C55.0288 7.90176 54.3906 7.18143 54.3906 6.17355C54.3906 5.14514 55.0288 4.4248 55.934 4.4248C56.8186 4.4248 57.4363 5.14514 57.4363 6.15301C57.4363 7.18143 56.8201 7.90176 55.8929 7.90176ZM55.8929 4.77397C55.2342 4.77397 54.8029 5.32999 54.8029 6.17355C54.8029 7.01712 55.2767 7.57314 55.9134 7.57314C56.6132 7.57314 57.0035 6.97604 57.0035 6.15301C57.0049 5.30945 56.5516 4.77397 55.8929 4.77397Z" fill="white"/>
<path d="M58.9381 4.81519V5.92723H60.235V6.25586H58.9381V7.8403H58.5273V4.48657H60.3172V4.81519H58.9381Z" fill="white"/>
<path d="M42.3302 5.30945C42.3302 4.79451 42.7424 4.4248 43.3586 4.4248C43.9748 4.4248 44.2638 4.73289 44.3049 4.77397L44.0995 5.02044C44.0173 4.95882 43.7503 4.77397 43.3792 4.77397C42.9464 4.77397 42.7204 4.9999 42.7204 5.30945C42.7204 5.45322 42.7821 5.55591 42.8848 5.65861C43.008 5.7613 43.1723 5.84346 43.3586 5.92562C43.5845 6.02831 43.8941 6.15155 44.0995 6.3584C44.2433 6.50218 44.346 6.70757 44.346 6.9555C44.346 7.51152 43.9542 7.94284 43.2559 7.94284C42.6588 7.94284 42.2891 7.61422 42.248 7.59368L42.4329 7.32667C42.5356 7.38829 42.9068 7.61422 43.2354 7.61422C43.7503 7.61422 43.9352 7.34721 43.9352 6.99658C43.9352 6.83227 43.8736 6.70903 43.7503 6.62688C43.586 6.4831 43.3586 6.38041 43.1327 6.27771C42.9068 6.17502 42.6794 6.07233 42.5356 5.90801C42.4329 5.74077 42.3302 5.57646 42.3302 5.30945Z" fill="white"/>
<path d="M11.4828 9.03436C11.4828 8.74681 11.3801 8.49888 11.1747 8.37564C11.031 8.29349 10.8461 8.27295 10.6187 8.27295H8.97266V11.6061H10.7625C11.1747 11.6061 11.4212 11.7088 11.4417 12.08H11.4828V9.03436Z" fill="white"/>
<path d="M11.7109 9.03436C11.7109 8.74681 11.8136 8.49888 12.019 8.37564C12.1628 8.29349 12.3476 8.27295 12.575 8.27295H14.2416V11.6061H12.4313C12.019 11.6061 11.7726 11.7088 11.752 12.08H11.7109V9.03436Z" fill="white"/>
<path d="M14.5904 8.51969V12.0597H12.0392L12.0187 12.1419C11.9776 12.2446 11.8954 12.3473 11.6064 12.3473C11.3174 12.3473 11.2573 12.2446 11.1942 12.1419L11.1736 12.0597H8.6224V8.51969H8.39647V8.62238L8.17055 8.56076C8.15001 8.47861 8.06785 8.41699 7.96516 8.41699C7.84192 8.41699 7.75977 8.51969 7.75977 8.62238C7.75977 8.74562 7.86246 8.82777 7.96516 8.82777C8.00623 8.82777 8.06785 8.80723 8.08839 8.78669L8.37594 8.86885V9.1564L8.15001 9.11532C8.10893 9.03316 8.04731 8.99208 7.96516 8.99208C7.84192 8.99208 7.75977 9.09478 7.75977 9.19748C7.75977 9.32071 7.86246 9.40286 7.96516 9.40286C8.02677 9.40286 8.08839 9.38233 8.10893 9.34125L8.37594 9.38233V9.66987H8.15001C8.10893 9.60826 8.04731 9.56718 7.96516 9.56718C7.84192 9.56718 7.75977 9.66987 7.75977 9.77257C7.75977 9.8958 7.86246 9.97796 7.96516 9.97796C8.02677 9.97796 8.08839 9.93688 8.12947 9.8958H8.37594V10.2039H8.15001C8.10893 10.1423 8.04731 10.1217 7.98569 10.1217C7.86246 10.1217 7.7803 10.2244 7.7803 10.3271C7.7803 10.4504 7.883 10.5325 7.98569 10.5325C8.06785 10.5325 8.12947 10.4914 8.17055 10.4298H8.39647V10.7174L8.15001 10.7584C8.10893 10.7174 8.04731 10.6968 8.00623 10.6968C7.883 10.6968 7.80084 10.7995 7.80084 10.9022C7.80084 11.0254 7.90354 11.1076 8.00623 11.1076C8.08839 11.1076 8.17055 11.046 8.19108 10.9844L8.39647 10.9433V11.2308L8.12947 11.313C8.08839 11.2925 8.04731 11.2719 8.00623 11.2719C7.883 11.2719 7.80084 11.3746 7.80084 11.4773C7.80084 11.6005 7.90354 11.6827 8.00623 11.6827C8.10893 11.6827 8.19108 11.6211 8.21162 11.5389L8.41701 11.4773V11.7443L8.10893 11.8675C8.06785 11.847 8.02677 11.8265 7.98569 11.8265C7.86246 11.8265 7.7803 11.9292 7.7803 12.0319C7.7803 12.1551 7.883 12.2372 7.98569 12.2372C8.08839 12.2372 8.17055 12.1551 8.19108 12.0729L8.39647 11.9702V12.2167H11.0313C11.134 12.4016 11.3189 12.5043 11.6079 12.5043C11.8954 12.5043 12.0818 12.4016 12.1845 12.2167H14.8399V8.45073H14.5934V8.51969H14.5904Z" fill="white"/>
<path d="M9.87696 7.3457C9.34148 7.3457 8.91016 7.42786 8.91016 7.53056C8.91016 7.63325 9.34294 7.71541 9.87696 7.71541C10.4124 7.71541 10.8438 7.63325 10.8438 7.53056C10.8232 7.42933 10.3919 7.3457 9.87696 7.3457Z" fill="white"/>
<path d="M11.1945 6.17353L10.6385 6.56524V6.60632L10.7617 6.66794C10.7823 6.68847 10.7823 6.70901 10.7823 6.70901L10.4331 6.99656H10.392L10.1456 6.62686C10.125 6.60632 10.125 6.58578 10.1661 6.56524L10.3304 6.5447V6.50362L9.89763 5.88599H9.83602L9.40323 6.50362V6.5447L9.56754 6.56524C9.58808 6.56524 9.60862 6.58578 9.58808 6.62686L9.34161 6.99656H9.30053L8.97191 6.70901C8.95137 6.68847 8.95137 6.66794 8.99245 6.66794L9.11568 6.60632V6.56524L8.53912 6.17353L8.49805 6.19407L8.84721 7.24303C9.01152 7.16087 9.42377 7.11979 9.87563 7.09925C10.3495 7.09925 10.7397 7.16087 10.904 7.24303L11.2532 6.19407L11.1945 6.17353Z" fill="white"/>
<path d="M11.6055 14.3232C11.07 14.3232 10.6387 14.4054 10.6387 14.5081C10.6387 14.6108 11.0715 14.6929 11.6055 14.6929C12.141 14.6929 12.5723 14.6108 12.5723 14.5081C12.5737 14.4259 12.141 14.3232 11.6055 14.3232Z" fill="white"/>
<path d="M12.9235 13.1701L12.3675 13.5618V13.6029L12.4907 13.6645C12.5113 13.6851 12.5113 13.7056 12.5113 13.7056L12.1621 13.9931H12.121L11.8746 13.6234C11.854 13.6029 11.854 13.5824 11.8951 13.5618L12.0594 13.5413V13.5002L11.6266 12.8826H11.565L11.1322 13.5002V13.5413L11.2965 13.5618C11.3171 13.5618 11.3376 13.5824 11.3171 13.6234L11.0706 13.9931H11.0295L10.7009 13.7056C10.6804 13.6851 10.6804 13.6645 10.7215 13.6645L10.8447 13.6029V13.5618L10.2696 13.1701L10.2285 13.1907L10.5777 14.2396C10.742 14.1575 11.1542 14.1164 11.6061 14.0958C12.08 14.0958 12.4702 14.1575 12.6345 14.2396L12.9837 13.1907L12.9235 13.1701Z" fill="white"/>
<path d="M13.3359 7.3457C12.8005 7.3457 12.3691 7.42786 12.3691 7.53056C12.3691 7.63325 12.8019 7.71541 13.3359 7.71541C13.8714 7.71541 14.3027 7.63325 14.3027 7.53056C14.3027 7.42786 13.87 7.3457 13.3359 7.3457Z" fill="white"/>
<path d="M14.673 6.17353L14.117 6.56524V6.60632L14.2403 6.66794C14.2608 6.68847 14.2608 6.70901 14.2608 6.70901L13.9116 6.99656H13.8706L13.6241 6.62686C13.6035 6.60632 13.6035 6.58578 13.6446 6.56524L13.8089 6.5447V6.50362L13.3761 5.88599H13.3145L12.8817 6.50362V6.5447L13.0461 6.56524C13.0666 6.56524 13.0871 6.58578 13.0666 6.62686L12.8201 6.99656H12.7791L12.4504 6.68847C12.4299 6.66794 12.4299 6.6474 12.471 6.6474L12.5942 6.58578V6.5447L12.0176 6.15299L11.9766 6.17353L12.3257 7.22249C12.49 7.14033 12.9023 7.09925 13.3541 7.07872C13.828 7.07872 14.2182 7.14033 14.3826 7.22249L14.7317 6.17353H14.673Z" fill="white"/>
<path d="M9.36307 9.15751C9.36307 9.21913 9.38361 9.23967 9.42469 9.23967C9.48631 9.23967 9.54792 9.17805 9.54792 9.03428C9.54792 8.86997 9.46577 8.82889 9.40415 8.82889H9.36307V8.86997C9.36307 8.8685 9.36307 9.15751 9.36307 9.15751ZM9.40562 8.80688C9.48777 8.80688 9.56993 8.82742 9.61101 8.8685C9.65208 8.90958 9.67262 8.95066 9.67262 9.01227C9.67262 9.19712 9.52885 9.27928 9.36454 9.27928H9.17969V9.25874C9.2413 9.25874 9.2413 9.25874 9.2413 9.17659V8.93012C9.2413 8.84796 9.2413 8.84796 9.17969 8.84796V8.82742H9.40562V8.80688Z" fill="#002147"/>
<path d="M9.87863 9.01379C9.87863 9.13702 9.91971 9.23972 10.0019 9.23972C10.0635 9.23972 10.1046 9.1781 10.1046 9.05487C10.1046 8.91109 10.0429 8.82894 9.98133 8.82894C9.91971 8.82747 9.87863 8.88909 9.87863 9.01379ZM10.2293 9.03433C10.2293 9.19864 10.1266 9.28079 9.9828 9.28079C9.83902 9.28079 9.73633 9.1781 9.73633 9.03433C9.73633 8.91109 9.81848 8.78786 9.9828 8.78786C10.1251 8.78639 10.2293 8.88909 10.2293 9.03433Z" fill="#002147"/>
<path d="M10.8857 8.80688V8.82742C10.8241 8.82742 10.8241 8.82742 10.8241 8.90958V9.15605C10.8241 9.2382 10.8241 9.2382 10.8857 9.2382V9.25874H10.6598V9.2382C10.7214 9.2382 10.7214 9.2382 10.7214 9.15605V8.88904L10.5776 9.25874H10.5365L10.3928 8.90958V9.07389C10.3928 9.13551 10.3928 9.17659 10.3928 9.19713C10.3928 9.21767 10.4133 9.2382 10.4544 9.2382V9.25874H10.2695V9.2382C10.3106 9.2382 10.3106 9.2382 10.3311 9.19713C10.3311 9.17659 10.3311 9.13551 10.3517 9.07389V8.93012C10.3517 8.82742 10.3517 8.82742 10.2901 8.82742V8.80688H10.4544L10.5776 9.09443L10.6803 8.80688H10.8857Z" fill="#002147"/>
<path d="M11.1126 9.15751C11.1126 9.23967 11.1126 9.23967 11.1742 9.23967V9.26021H10.9277V9.23967C10.9688 9.23967 10.9894 9.23967 10.9894 9.15751V8.91104C10.9894 8.82889 10.9894 8.82889 10.9277 8.82889V8.80835H11.1742V8.82889C11.1331 8.82889 11.1126 8.82889 11.1126 8.91104V9.15751Z" fill="#002147"/>
<path d="M9.94014 10.1655H9.87852L9.61152 9.81638V9.96015C9.61152 10.0423 9.61152 10.0834 9.61152 10.1039C9.61152 10.1245 9.63205 10.145 9.69367 10.145V10.1655H9.50882V10.1245C9.5499 10.1245 9.57044 10.1039 9.57044 10.0834C9.57044 10.0628 9.57044 10.0218 9.57044 9.93962V9.79584C9.57044 9.73423 9.57044 9.73422 9.5499 9.71369C9.52936 9.69315 9.52936 9.69315 9.48828 9.69315V9.67261H9.65259L9.89906 9.98069V9.878C9.89906 9.79584 9.89906 9.75476 9.89906 9.73422C9.89906 9.71369 9.87852 9.69315 9.81691 9.69315V9.67261H10.0018V9.69315C9.96068 9.69315 9.94014 9.71369 9.94014 9.73422C9.94014 9.75476 9.94014 9.79584 9.94014 9.878V10.1655Z" fill="#002147"/>
<path d="M10.2279 10.1655C10.1868 10.0423 10.1046 9.85743 10.0841 9.77381C10.0636 9.71219 10.043 9.71219 10.002 9.71219V9.69165H10.2484V9.71219H10.2279C10.2073 9.71219 10.2073 9.71219 10.2073 9.75327C10.2279 9.79435 10.269 9.93812 10.31 10.0203C10.3306 9.95866 10.3717 9.81488 10.3922 9.77381C10.4127 9.73273 10.4127 9.71219 10.3717 9.71219H10.3511V9.69165H10.536V9.71219C10.4949 9.71219 10.4744 9.71219 10.4538 9.79434C10.4538 9.79434 10.3511 10.0203 10.31 10.164H10.2279V10.1655Z" fill="#002147"/>
<path d="M10.5567 10.0012C10.5772 10.0423 10.6183 10.1245 10.6799 10.1245C10.721 10.1245 10.7416 10.1039 10.7416 10.0423C10.7416 10.0012 10.721 9.98069 10.6594 9.96015H10.6389C10.5772 9.93962 10.5156 9.89854 10.5156 9.81638C10.5156 9.73423 10.5772 9.67261 10.7005 9.67261H10.7621L10.8032 9.69315C10.8032 9.71369 10.8032 9.75477 10.8237 9.81638H10.7826C10.7621 9.7753 10.7416 9.71369 10.6799 9.71369C10.6389 9.71369 10.6183 9.73423 10.6183 9.7753C10.6183 9.81638 10.6389 9.83692 10.7005 9.85746H10.721C10.7826 9.89854 10.8442 9.91908 10.8442 10.0218C10.8442 10.1039 10.7621 10.1861 10.6594 10.1861C10.6389 10.1861 10.5978 10.1861 10.5772 10.1655L10.5362 10.145C10.5362 10.1039 10.5156 10.0628 10.5156 10.0218L10.5567 10.0012Z" fill="#002147"/>
<path d="M9.61063 10.9268C9.61063 11.009 9.61063 11.009 9.67225 11.009V11.0295H9.42578V11.009C9.46686 11.009 9.4874 11.009 9.4874 10.9268V10.6803C9.4874 10.5982 9.4874 10.5982 9.42578 10.5982V10.5776H9.67225V10.5982C9.63117 10.5982 9.61063 10.5982 9.61063 10.6803V10.9268Z" fill="#002147"/>
<path d="M9.89869 10.9268C9.89869 10.9679 9.89869 10.9884 9.91923 10.9884H9.98084L10.0425 10.9679C10.063 10.9474 10.063 10.9268 10.0835 10.8858H10.1246C10.1246 10.9063 10.1041 10.9884 10.1041 11.009H9.73438V10.9884C9.79599 10.9884 9.79599 10.9884 9.79599 10.9063V10.6598C9.79599 10.5777 9.79599 10.5777 9.73438 10.5777V10.5571H9.98084V10.5777C9.91923 10.5777 9.91923 10.5777 9.91923 10.6598V10.9268H9.89869Z" fill="#002147"/>
<path d="M10.3108 10.9268C10.3108 10.9679 10.3108 10.9884 10.3313 10.9884H10.393L10.4546 10.9679C10.4751 10.9474 10.4751 10.9268 10.4956 10.8858H10.5367C10.5367 10.9063 10.5162 10.9884 10.5162 11.009H10.1465V10.9884C10.2081 10.9884 10.2081 10.9884 10.2081 10.9063V10.6598C10.2081 10.5777 10.2081 10.5777 10.1465 10.5777V10.5571H10.393V10.5777C10.3313 10.5777 10.3313 10.5777 10.3313 10.6598V10.9268H10.3108Z" fill="#002147"/>
<path d="M10.6595 11.05C10.6184 10.9268 10.5363 10.742 10.5157 10.6583C10.4952 10.5967 10.4747 10.5967 10.4336 10.5967V10.5762H10.6801V10.5967H10.6595C10.639 10.5967 10.639 10.5967 10.639 10.6378C10.6595 10.6789 10.7006 10.8226 10.7417 10.9048C10.7622 10.8432 10.8033 10.6994 10.8238 10.6583C10.8444 10.6172 10.8444 10.5967 10.8033 10.5967H10.7828V10.5762H10.9676V10.5967C10.9265 10.5967 10.906 10.5967 10.8855 10.6789C10.8855 10.6789 10.7828 10.9048 10.7417 11.0486H10.6595V11.05Z" fill="#002147"/>
<path d="M12.6366 8.80688V8.82742C12.575 8.82742 12.575 8.82742 12.575 8.90958V9.15605C12.575 9.2382 12.575 9.2382 12.6366 9.2382V9.25874H12.4107V9.2382C12.4723 9.2382 12.4723 9.2382 12.4723 9.15605V8.88904L12.3286 9.25874H12.2875L12.1437 8.90958V9.07389C12.1437 9.13551 12.1437 9.17659 12.1437 9.19713C12.1437 9.21767 12.1642 9.2382 12.2053 9.2382V9.25874H12.041V9.2382C12.0821 9.2382 12.0821 9.2382 12.1026 9.19713C12.1026 9.17659 12.1026 9.13551 12.1232 9.07389V8.93012C12.1232 8.82742 12.1232 8.82742 12.0616 8.82742V8.80688H12.2259L12.3491 9.09443L12.4518 8.80688H12.6366Z" fill="#002147"/>
<path d="M12.8821 9.15751C12.8821 9.23967 12.8821 9.23967 12.9437 9.23967V9.26021H12.6973V9.23967C12.7383 9.23967 12.7589 9.23967 12.7589 9.15751V8.91104C12.7589 8.82889 12.7589 8.82889 12.6973 8.82889V8.80835H12.9437V8.82889C12.9027 8.82889 12.8821 8.82889 12.8821 8.91104V9.15751Z" fill="#002147"/>
<path d="M13.4187 9.28075H13.357L13.09 8.93159V9.07536C13.09 9.15751 13.09 9.19859 13.09 9.21913C13.09 9.23967 13.1106 9.26021 13.1722 9.26021V9.28075H12.9873V9.26021C13.0284 9.26021 13.049 9.23967 13.049 9.21913C13.049 9.19859 13.049 9.15751 13.049 9.07536V8.93159C13.049 8.86997 13.049 8.86997 13.0284 8.84943C13.0079 8.82889 13.0079 8.82889 12.9668 8.82889V8.80835H13.1311L13.3776 9.11644V9.01374C13.3776 8.93158 13.3776 8.89051 13.3776 8.86997C13.3776 8.84943 13.357 8.82889 13.2954 8.82889V8.80835H13.4803V8.82889C13.4392 8.82889 13.4187 8.84943 13.4187 8.86997C13.4187 8.89051 13.4187 8.93158 13.4187 9.01374V9.28075Z" fill="#002147"/>
<path d="M13.6428 9.09599H13.7455L13.7044 8.95222L13.6428 9.09599ZM13.725 9.23976H13.7455C13.7661 9.23976 13.7661 9.21922 13.7661 9.19869L13.7455 9.11653H13.6223L13.6018 9.17815C13.6018 9.21922 13.6018 9.21922 13.6223 9.21922H13.6428V9.23976H13.4785V9.21922C13.5196 9.21922 13.5196 9.21922 13.5607 9.15761L13.7044 8.7659L13.7455 8.74536L13.7866 8.88913C13.8277 8.97129 13.8482 9.05345 13.8688 9.1356C13.8893 9.19722 13.9098 9.19722 13.9509 9.21776V9.2383H13.725V9.23976Z" fill="#002147"/>
<path d="M12.6352 10.0423C12.6352 10.1245 12.6352 10.1245 12.6968 10.1245V10.145H12.4504V10.1245C12.512 10.1245 12.512 10.1245 12.512 10.0423V9.71372H12.4914C12.4504 9.71372 12.4298 9.71372 12.4093 9.73426C12.4093 9.75479 12.3887 9.7548 12.3887 9.79587H12.3477C12.3477 9.73426 12.3477 9.69318 12.3477 9.6521H12.3682L12.4093 9.67264H12.6968L12.7379 9.6521H12.7584C12.7584 9.69318 12.7584 9.7548 12.7584 9.79587H12.7174C12.6968 9.7548 12.6968 9.73426 12.6968 9.71372C12.6763 9.69318 12.6557 9.69318 12.6147 9.69318H12.5941V10.0423H12.6352Z" fill="#002147"/>
<path d="M13.0266 10.0423C13.0266 10.1244 13.0266 10.1244 13.0883 10.1244V10.145H12.8418V10.1244C12.8829 10.1244 12.9034 10.1244 12.9034 10.0423V9.79581C12.9034 9.71366 12.9034 9.71365 12.8418 9.71365V9.69312H13.0883V9.71365C13.0472 9.71365 13.0266 9.71366 13.0266 9.79581V10.0423Z" fill="#002147"/>
<path d="M13.2746 9.89855C13.2746 10.0218 13.3157 10.1245 13.3979 10.1245C13.4595 10.1245 13.5006 10.0629 13.5006 9.93963C13.5006 9.79586 13.4389 9.7137 13.3773 9.7137C13.3157 9.7137 13.2746 9.77532 13.2746 9.89855ZM13.6238 9.91909C13.6238 10.0834 13.5211 10.1656 13.3773 10.1656C13.2336 10.1656 13.1309 10.0629 13.1309 9.91909C13.1309 9.79586 13.213 9.67262 13.3773 9.67262C13.5211 9.67116 13.6238 9.77532 13.6238 9.91909Z" fill="#002147"/>
<path d="M12.8417 10.5571V10.5777C12.7801 10.5777 12.7801 10.5777 12.7801 10.6598V10.9063C12.7801 10.9884 12.7801 10.9884 12.8417 10.9884V11.009H12.6158V10.9884C12.6774 10.9884 12.6774 10.9884 12.6774 10.9063V10.6393L12.5336 11.009H12.4926L12.3488 10.6598V10.8241C12.3488 10.8858 12.3488 10.9268 12.3488 10.9474C12.3488 10.9679 12.3693 10.9884 12.4104 10.9884V11.009H12.2461V10.9884C12.2872 10.9884 12.2872 10.9679 12.3077 10.9474C12.3077 10.9268 12.3077 10.8858 12.3282 10.8241V10.6804C12.3282 10.5777 12.3282 10.5777 12.2666 10.5777V10.5571H12.4309L12.5542 10.8447L12.6569 10.5571H12.8417Z" fill="#002147"/>
<path d="M12.964 10.6803C12.964 10.5982 12.964 10.5982 12.9023 10.5982V10.5776H13.2515C13.2515 10.5982 13.2515 10.6393 13.2515 10.7009H13.2104C13.2104 10.6598 13.1899 10.6393 13.1899 10.6393C13.1694 10.6187 13.1488 10.6187 13.1077 10.6187H13.0872C13.0667 10.6187 13.0667 10.6187 13.0667 10.6393V10.783H13.1077C13.1694 10.783 13.1694 10.783 13.1899 10.7214H13.231V10.8857H13.1899C13.1899 10.8241 13.1899 10.8241 13.1077 10.8241H13.0667V10.9473C13.0667 10.9884 13.0667 11.009 13.0872 11.009H13.1488C13.1694 11.009 13.2104 11.009 13.231 10.9884C13.2515 10.9679 13.2515 10.9473 13.272 10.9063H13.3131C13.3131 10.9473 13.2926 11.009 13.2926 11.0295H12.9229V11.009C12.9845 11.009 12.9845 11.009 12.9845 10.9268V10.6803H12.964Z" fill="#002147"/>
<path d="M13.4582 10.8653H13.5609L13.5198 10.7215L13.4582 10.8653ZM13.5609 11.0091H13.5815C13.602 11.0091 13.602 10.9885 13.602 10.968L13.5815 10.8858H13.4582L13.4377 10.9474C13.4377 10.9885 13.4377 10.9885 13.4582 10.9885H13.4788V11.0091H13.3145V10.9885C13.3555 10.9885 13.3555 10.9885 13.3966 10.9269L13.5404 10.5352L13.5815 10.5146L13.6225 10.6584C13.6636 10.7406 13.6842 10.8227 13.7047 10.9049C13.7252 10.9665 13.7458 10.9665 13.7869 10.987V11.0076H13.5609V11.0091Z" fill="#002147"/>
<path d="M10.951 16.9779C10.951 17.0809 10.8685 17.1634 10.7655 17.1634C10.6625 17.1634 10.5801 17.0809 10.5801 16.9779C10.5801 16.8749 10.6625 16.7925 10.7655 16.7925C10.8465 16.7719 10.951 16.8543 10.951 16.9779Z" fill="white"/>
<path d="M12.8826 17.2873C12.8826 17.3903 12.8002 17.4727 12.6972 17.4727C12.5941 17.4727 12.5117 17.3903 12.5117 17.2873C12.5117 17.1842 12.5941 17.1018 12.6972 17.1018C12.8002 17.1004 12.8826 17.1828 12.8826 17.2873Z" fill="white"/>
<path d="M11.7928 3.3749C11.7928 3.47792 11.7103 3.56034 11.6073 3.56034C11.5043 3.56034 11.4219 3.47792 11.4219 3.3749C11.4219 3.27187 11.5043 3.18945 11.6073 3.18945C11.7103 3.18945 11.7928 3.27187 11.7928 3.3749Z" fill="white"/>
<path d="M16.3609 5.18612C16.3609 5.28882 16.2582 5.37097 16.1556 5.37097C16.0529 5.37097 15.9707 5.26828 15.9707 5.16558C15.9707 5.06289 16.0734 4.98073 16.1761 4.98073C16.2993 4.97927 16.3815 5.06142 16.3609 5.18612Z" fill="white"/>
<path d="M6.70778 13.4385C6.78994 13.5412 6.81048 13.6645 6.81048 13.7672C6.81048 13.9109 6.7694 14.0136 6.52293 14.1794L5.82314 14.6738L5.69991 14.489L6.42024 13.974C6.54347 13.8919 6.60509 13.8302 6.60509 13.7276C6.60509 13.6659 6.58455 13.6043 6.54347 13.5427C6.48185 13.44 6.37916 13.4195 6.297 13.4195C6.23539 13.4195 6.15323 13.4605 6.00946 13.5632L5.35074 14.0166L5.24805 13.8317L5.86568 13.4195C6.03 13.2962 6.17377 13.2141 6.29847 13.2141C6.48185 13.1906 6.62563 13.3138 6.70778 13.4385Z" fill="white"/>
<path d="M4.48633 12.0798L5.80376 11.6265L5.88591 11.8113L5.1245 12.7385L6.0913 12.3673L6.15292 12.5522L4.85603 13.0671L4.77387 12.8617L5.53528 11.936L4.56848 12.2852L4.48633 12.0798Z" fill="white"/>
<path d="M5.67549 10.8218L4.29102 11.0271L4.32416 11.2506L5.70863 11.0453L5.67549 10.8218Z" fill="white"/>
<path d="M4.25983 9.36289V9.13696L5.63887 9.69298V9.91891L4.21875 10.3502V10.1038L5.3704 9.79568L4.25983 9.36289Z" fill="white"/>
<path d="M5.26759 6.64589C5.34975 6.50211 5.41136 6.4405 5.49352 6.4405C5.5346 6.4405 5.57568 6.4405 5.61675 6.46104C5.67837 6.48157 5.71945 6.54319 5.71945 6.58427V6.64589C5.71945 6.72804 5.67837 6.8102 5.61675 6.89235L5.59622 6.95397L5.20451 6.74858L5.26759 6.64589ZM5.51406 6.23511C5.30867 6.23511 5.22651 6.35834 5.10181 6.58427L4.9375 6.87182L6.17277 7.55107L6.27547 7.36622L5.76053 7.07867L5.78107 7.01706C5.86322 6.85274 5.9043 6.8322 6.10969 6.85274L6.5014 6.89382L6.62463 6.68843L6.17131 6.64735C6.06861 6.64735 6.00699 6.62681 5.94538 6.64735L5.88376 6.68843L5.9043 6.60628C5.9043 6.5652 5.9043 6.52412 5.88376 6.48304C5.86322 6.40089 5.80161 6.33927 5.71945 6.27765C5.63876 6.25565 5.57568 6.23511 5.51406 6.23511Z" fill="white"/>
<path d="M7.22667 4.12148L7.04688 4.2583L7.89446 5.37209L8.07426 5.23527L7.22667 4.12148Z" fill="white"/>
<path d="M7.81836 3.70458L8.72501 3.23071L8.80717 3.39502L8.45654 3.57987L9.01255 4.65084L8.80717 4.75353L8.25115 3.68404L7.90198 3.86889L7.81836 3.70458Z" fill="white"/>
<path d="M10.0838 2.79794L10.3112 2.73633L10.1249 3.68406L10.2701 4.21807L10.0633 4.27969L9.91949 3.74567L9.24023 3.04588L9.46763 2.98426L9.96057 3.4772L10.0838 2.79794Z" fill="white"/>
<path d="M14.3438 4.71226L15.0641 3.51807L15.7228 3.90977L15.6201 4.07409L15.1462 3.78654L14.9614 4.1357L15.3927 4.38217L15.3106 4.54795L14.8587 4.27948L14.5286 4.8355L14.3438 4.71226Z" fill="white"/>
<path d="M17.9461 7.84029L18.461 7.22266L18.5226 7.47059L18.1515 7.90191L18.7075 8.02514L18.7896 8.25254L18.0282 8.06622L17.4722 8.72494L17.3901 8.49901L17.8023 8.00461L17.1847 7.86083L17.123 7.6349L17.9461 7.84029Z" fill="white"/>
<path d="M17.5332 9.21942L18.9328 9.09619L18.9944 9.87814L18.8096 9.89868L18.7685 9.34266L18.3768 9.3632L18.4193 9.89868H18.233L18.1919 9.38374L17.5537 9.44536L17.5332 9.21942Z" fill="white"/>
<path d="M18.2732 11.5238C18.0062 11.5238 17.6761 11.3801 17.6761 11.0911C17.6761 10.9884 17.7172 10.8651 17.8404 10.7624C17.9226 10.7008 18.0253 10.6803 18.1485 10.6803C18.2923 10.6803 18.5402 10.7214 18.6634 10.9062C18.7045 10.9678 18.725 11.05 18.725 11.1116C18.725 11.2143 18.684 11.3375 18.5607 11.4197C18.5006 11.5033 18.3964 11.5238 18.2732 11.5238ZM18.15 10.4543C17.9856 10.4543 17.8419 10.4954 17.7172 10.5776C17.5118 10.7214 17.4707 10.9473 17.4707 11.072C17.4707 11.5458 17.924 11.7307 18.2527 11.7307C18.417 11.7307 18.5607 11.6896 18.6854 11.6075C18.9114 11.4432 18.9319 11.1747 18.9319 11.0925C18.9319 10.7008 18.5417 10.4543 18.15 10.4543Z" fill="white"/>
<path d="M17.1215 6.93507C16.9982 6.93507 16.875 6.87345 16.8134 6.75022C16.7723 6.6886 16.7518 6.62698 16.7518 6.54483C16.7518 6.38052 16.8545 6.2162 17.0393 6.11204C17.1626 6.02989 17.2858 5.98881 17.3885 5.98881C17.5323 5.98881 17.635 6.05043 17.6966 6.17366C17.7377 6.23528 17.7582 6.31743 17.7582 6.37905C17.7582 6.54336 17.6555 6.68713 17.4912 6.79129C17.3679 6.89399 17.2447 6.93507 17.1215 6.93507ZM17.3474 5.80249C17.2036 5.80249 17.0599 5.84357 16.9146 5.94626C16.6476 6.11057 16.5449 6.35851 16.5449 6.54336C16.5449 6.66659 16.586 6.76929 16.6476 6.87198C16.7914 7.09791 17.0173 7.15953 17.1626 7.15953C17.3063 7.15953 17.4501 7.11845 17.5953 7.01576C17.7597 6.91306 17.965 6.70767 17.965 6.41866C17.965 6.29543 17.924 6.19273 17.8624 6.09003C17.7391 5.90518 17.5528 5.80249 17.3474 5.80249Z" fill="white"/>
<path d="M13.4594 4.17695C13.3567 4.17695 13.213 4.13587 13.1308 3.97156C13.0897 3.88941 13.0692 3.80725 13.0692 3.7251C13.0692 3.47863 13.2335 3.128 13.5431 3.128C13.7074 3.128 13.9348 3.25123 13.9348 3.58132C13.9333 3.76617 13.7881 4.17695 13.4594 4.17695ZM13.5211 2.92261C13.2335 2.92261 12.965 3.128 12.8829 3.47863C12.8623 3.56078 12.8418 3.6224 12.8418 3.70456C12.8418 3.84833 12.8623 3.95103 12.924 4.05372C13.0472 4.30019 13.2937 4.3618 13.48 4.3618C13.5827 4.3618 13.6854 4.34127 13.7675 4.27965C13.9934 4.15641 14.1592 3.84686 14.1592 3.55932C14.1592 3.43608 14.1387 3.31285 14.0771 3.21015C13.9538 3.0253 13.747 2.92261 13.5211 2.92261Z" fill="white"/>
<path d="M5.78334 8.00441L5.96819 8.04548L5.74227 8.82743L4.4043 8.45773L4.63023 7.67578L4.81508 7.71686L4.65076 8.27288L5.02193 8.37557L5.16571 7.88117L5.33002 7.92225L5.18625 8.43719L5.61756 8.56042L5.78334 8.00441Z" fill="white"/>
<path d="M6.13271 5.0821C6.31756 4.85617 6.52442 4.87671 6.52442 4.87671L6.5655 5.06156C6.5655 5.06156 6.42173 5.06156 6.29849 5.20533C6.23688 5.26695 6.21634 5.32856 6.21634 5.36964C6.21634 5.41072 6.23688 5.4518 6.27795 5.49288C6.38065 5.57503 6.54496 5.49288 6.64766 5.4518C6.72981 5.41072 6.83251 5.36964 6.95574 5.36964C7.0379 5.36964 7.12005 5.39018 7.20221 5.47234C7.3049 5.5545 7.34598 5.65719 7.34598 5.75988C7.34598 5.88312 7.3049 5.98581 7.20221 6.08851C7.01736 6.2939 6.78996 6.31444 6.78996 6.31444L6.74888 6.12959C6.89266 6.08851 6.99535 6.04743 7.05697 5.96528C7.09805 5.90366 7.13912 5.84204 7.13912 5.78042C7.13912 5.71881 7.11858 5.67773 7.07751 5.63665C7.03643 5.59557 6.99535 5.59557 6.95427 5.59557C6.87212 5.59557 6.74888 5.65719 6.66673 5.67773C6.50241 5.73935 6.31756 5.80096 6.15178 5.65719C6.06963 5.57503 6.02855 5.49288 6.02855 5.39018C5.98894 5.28895 6.03002 5.16425 6.13271 5.0821Z" fill="white"/>
<path d="M17.9866 13.1085C17.925 13.1085 17.8223 13.0674 17.7812 12.9648C17.7607 12.9442 17.7607 12.9031 17.7607 12.8826C17.7607 12.8004 17.8017 12.7183 17.8428 12.6361L17.8633 12.5745L18.2756 12.7594L18.2345 12.8621C18.1509 13.0469 18.1098 13.1085 17.9866 13.1085ZM17.1636 12.265L17.699 12.5114L17.6785 12.573C17.5963 12.7374 17.5758 12.7579 17.3499 12.7579H16.9582L16.8555 12.9633H17.3088C17.4115 12.9633 17.4731 12.9633 17.5347 12.9427L17.5963 12.9017V12.9427C17.5963 13.0044 17.5963 13.0454 17.6169 13.0865C17.6785 13.2303 17.8428 13.3124 17.9866 13.3124C18.2125 13.3124 18.2947 13.1892 18.3988 12.9427L18.5221 12.6347L17.2457 12.0581L17.1636 12.265Z" fill="white"/>
<path d="M16.9381 14.6516C16.8354 14.6516 16.7327 14.6105 16.6095 14.5284C16.5068 14.4462 16.3836 14.3025 16.3836 14.1367C16.3836 14.0134 16.4452 13.8902 16.5479 13.767L16.6506 13.6437L17.4531 14.2819L17.3915 14.3641C17.2257 14.5489 17.123 14.6516 16.9381 14.6516ZM16.4437 13.6027C16.3 13.7875 16.1973 13.9518 16.1973 14.1587C16.1973 14.3435 16.2794 14.5504 16.4848 14.6942C16.6286 14.7969 16.7724 14.8585 16.9381 14.8585C17.123 14.8585 17.2873 14.7969 17.5352 14.4888L17.7612 14.2218L16.6711 13.3577L16.4437 13.6027Z" fill="white"/>
<path d="M16.2996 16.2567C15.0027 16.71 13.7894 16.6895 12.739 16.4621C12.7801 15.9882 12.9649 15.4953 13.2539 15.4131C15.5382 14.7133 17.2048 12.5728 17.2048 10.0627C17.2048 6.97597 14.6946 4.46582 11.5874 4.46582C8.50063 4.46582 5.96994 6.97597 5.96994 10.0627C5.96994 11.7704 6.77242 13.4164 8.13093 14.4668C7.80231 14.6106 7.53384 14.8365 7.34898 15.1256C7.24629 15.0639 7.14359 14.9818 7.06144 14.8996L7.02036 14.9407C7.08198 15.0229 7.18467 15.105 7.28737 15.2282C7.12305 15.5158 7.02036 15.8253 7.02036 16.1745C7.02036 16.2361 7.02036 16.2772 7.02036 16.3388C5.00314 14.8776 3.81041 12.5523 3.81041 10.0422C3.81041 5.76124 7.30937 2.26374 11.5888 2.26374C15.8683 2.26374 19.3658 5.76124 19.3658 10.0422C19.3863 12.5112 18.2537 14.7749 16.2996 16.2567ZM11.7927 18.089C10.7232 18.089 9.38528 17.7193 8.45956 17.1839C8.17201 17.0195 7.84192 16.71 7.84192 16.1965C7.84192 16.0527 7.86246 15.9295 7.92408 15.8048C8.27324 16.0924 8.62387 16.3608 8.8498 16.4841C8.89088 16.5046 8.93195 16.5251 8.99357 16.5251C9.13734 16.5251 9.26058 16.4019 9.26058 16.2581C9.26058 16.1554 9.19896 16.0527 9.09627 16.0117C8.91141 15.9295 8.49917 15.7652 8.06785 15.5378C8.27324 15.2708 8.58279 15.105 8.93195 15.105C9.09627 15.105 9.24004 15.1461 9.38528 15.2077L9.67282 15.372C10.6191 15.9486 13.0265 17.4098 15.9284 16.6073C14.8384 17.6152 13.4799 18.089 11.7927 18.089ZM12.7185 18.7478C12.4309 18.7478 12.183 18.9531 12.183 19.2832C12.183 19.5913 12.4295 19.8187 12.7185 19.8187C12.7595 19.8187 12.8006 19.8187 12.8417 19.7982C12.7801 20.2515 12.2651 20.7444 11.5859 20.9718C10.9272 20.7459 10.4122 20.2515 10.3301 19.7982C10.3712 19.8187 10.4122 19.8187 10.4533 19.8187C10.7614 19.8187 10.9888 19.5928 10.9888 19.2832C10.9888 18.9957 10.7629 18.7683 10.4533 18.7478C10.5355 18.5834 10.6382 18.3986 10.6998 18.2123C11.0695 18.2739 11.4201 18.315 11.7693 18.315C12.0363 18.315 12.3048 18.2944 12.5718 18.2739C12.6158 18.4177 12.6568 18.582 12.7185 18.7478ZM8.91142 14.5285C9.46744 14.5285 9.98091 14.816 10.2905 15.2693C10.0235 15.2077 9.75498 15.105 9.50851 15.0023C9.32366 14.9202 9.13881 14.8791 8.93195 14.8791C8.49917 14.8791 8.10893 15.0845 7.86246 15.4351C7.75976 15.3735 7.65707 15.3119 7.55437 15.2503C7.84045 14.816 8.33486 14.5285 8.91142 14.5285ZM11.0929 15.639C11.0313 15.6801 10.9697 15.7417 10.9286 15.8239C10.7232 15.7212 10.4753 15.598 10.311 15.5158C10.5369 15.5569 10.845 15.6185 11.0929 15.639ZM12.8006 15.5363C12.6363 15.7623 12.5542 16.0924 12.5131 16.4004C11.9981 16.2772 11.5463 16.0924 11.134 15.906C11.2162 15.7623 11.4216 15.6596 11.5874 15.6596C12.0187 15.6596 12.4104 15.6185 12.8006 15.5363ZM11.6064 15.4336C11.2573 15.4336 10.9272 15.3926 10.5985 15.3309C10.2699 14.7133 9.63175 14.3025 8.91142 14.3025C8.7471 14.3025 8.56225 14.3231 8.41701 14.3641C7.0585 13.3563 6.23548 11.7513 6.23548 10.0422C6.23548 7.07867 8.64294 4.6712 11.6064 4.6712C14.5699 4.6712 16.9774 7.07867 16.9774 10.0422C16.9788 13.0262 14.5699 15.4336 11.6064 15.4336ZM8.91142 17.8411C8.00623 17.8411 7.26536 17.1002 7.26536 16.195C7.26536 15.9075 7.34752 15.639 7.47075 15.4131C7.55291 15.4953 7.6556 15.5774 7.73776 15.6596C7.6556 15.8239 7.61452 16.0087 7.61452 16.2156C7.61452 16.71 7.86099 17.1208 8.33486 17.4098C8.60186 17.5741 8.91142 17.7179 9.24004 17.8426C9.11681 17.8411 9.01411 17.8411 8.91142 17.8411ZM19.6328 10.0627C19.6328 5.638 16.0311 2.05688 11.6064 2.05688C7.18174 2.05688 3.58008 5.65854 3.58008 10.0627C3.58008 12.7181 4.89751 15.1872 7.07904 16.6689C7.28443 17.4714 8.0253 18.0685 8.90995 18.0685C9.13588 18.0685 9.38381 18.0274 9.5892 17.9453C9.87675 18.048 10.1863 18.1301 10.4944 18.1917C10.4122 18.4382 10.289 18.6656 10.1658 18.871L10.3301 19.0353C10.3712 19.0148 10.4122 18.9942 10.4738 18.9942C10.6382 18.9942 10.7819 19.138 10.7819 19.3023C10.7819 19.4666 10.6382 19.6104 10.4738 19.6104C10.3301 19.6104 10.2068 19.5282 10.1452 19.4255C10.1452 19.4255 10.1041 19.5693 10.1041 19.7336C10.1041 20.3102 10.7218 20.9689 11.6064 21.2359C12.4705 20.9689 13.1087 20.3102 13.1087 19.7336C13.1087 19.5282 13.0676 19.4255 13.0676 19.4255C13.006 19.5077 12.8828 19.6104 12.739 19.6104C12.5747 19.6104 12.4309 19.4666 12.4309 19.3023C12.4309 19.138 12.5747 18.9942 12.739 18.9942C12.8006 18.9942 12.8417 19.0148 12.9033 19.0353L13.0676 18.871C12.9855 18.6451 12.9033 18.4587 12.8622 18.2533C14.3029 18.0685 15.5176 17.4509 16.4844 16.443C18.4606 14.8982 19.6328 12.5934 19.6328 10.0627Z" fill="white"/>
</svg>
