<svg width="20" height="20" viewBox="0 0 20 20" fill="none" xmlns="http://www.w3.org/2000/svg">
<path fill-rule="evenodd" clip-rule="evenodd" d="M10.0007 1.875C7.69946 1.875 5.83398 3.74048 5.83398 6.04167V7.56251C4.40758 7.85205 3.33398 9.11315 3.33398 10.625V15.2083C3.33398 16.9342 4.73309 18.3333 6.45898 18.3333H13.5423C15.2682 18.3333 16.6673 16.9342 16.6673 15.2083V10.625C16.6673 9.11315 15.5937 7.85205 14.1673 7.56251V6.04167C14.1673 3.74048 12.3018 1.875 10.0007 1.875ZM12.9173 7.5V6.04167C12.9173 4.43084 11.6115 3.125 10.0007 3.125C8.38982 3.125 7.08398 4.43084 7.08398 6.04167V7.5H12.9173ZM10.0007 11.0417C10.3458 11.0417 10.6257 11.3215 10.6257 11.6667V14.1667C10.6257 14.5118 10.3458 14.7917 10.0007 14.7917C9.65547 14.7917 9.37565 14.5118 9.37565 14.1667V11.6667C9.37565 11.3215 9.65547 11.0417 10.0007 11.0417Z" fill="#18181B" fill-opacity="0.5"/>
</svg>
