<svg width="16" height="20" viewBox="0 0 16 20" fill="none" xmlns="http://www.w3.org/2000/svg">
<path fill-rule="evenodd" clip-rule="evenodd" d="M0 8C0 3.58172 3.58172 0 8 0C12.4183 0 16 3.58172 16 8C16 10.29 15.0635 12.4327 13.8969 14.2215C12.7265 16.016 11.2865 17.5125 10.19 18.5255C8.94067 19.6797 7.05933 19.6797 5.81002 18.5255C4.71352 17.5125 3.27353 16.016 2.10314 14.2215C0.936463 12.4327 0 10.29 0 8ZM4.875 8C4.875 6.27411 6.27411 4.875 8 4.875C9.72589 4.875 11.125 6.27411 11.125 8C11.125 9.72589 9.72589 11.125 8 11.125C6.27411 11.125 4.875 9.72589 4.875 8Z" fill="#A1A1AA"/>
</svg>
